<svg width="18" height="18" viewBox="0 0 18 18" fill="none" xmlns="http://www.w3.org/2000/svg">
<g clip-path="url(#clip0_7222_61735)">
<path d="M17.3145 7.84587C17.3145 6.73378 16.7832 5.69253 15.8978 5.0267V5.01253C15.8978 3.6667 14.9557 2.54045 13.702 2.25003C13.4115 0.996282 12.2853 0.0541992 10.9395 0.0541992C10.0965 0.0541992 9.33154 0.429616 8.81445 1.01753C8.29737 0.429616 7.53237 0.0541992 6.68945 0.0541992C5.34362 0.0541992 4.21737 0.996282 3.92695 2.25003C2.6732 2.54045 1.73112 3.6667 1.73112 5.01253V5.0267C0.845703 5.69253 0.314453 6.73378 0.314453 7.84587C0.314453 8.47628 0.484453 9.07837 0.803203 9.6167C0.484453 10.155 0.314453 10.7571 0.314453 11.3875C0.314453 12.5846 0.92362 13.6825 1.92237 14.3413C2.43237 15.9563 3.91279 17.0542 5.62695 17.0542C6.94445 17.0542 8.10612 16.3954 8.81445 15.3967C9.52279 16.3954 10.6845 17.0542 12.002 17.0542C13.7161 17.0542 15.1965 15.9492 15.7065 14.3413C16.7053 13.6896 17.3145 12.5846 17.3145 11.3875C17.3145 10.7571 17.1445 10.155 16.8257 9.6167C17.1445 9.07837 17.3145 8.47628 17.3145 7.84587ZM5.62695 15.6375C4.47237 15.6375 3.4807 14.8442 3.21862 13.7179L3.14779 13.4063L2.86445 13.2575C2.17029 12.8821 1.73112 12.1667 1.73112 11.3946C1.73112 10.92 1.89404 10.4596 2.21279 10.07L2.57404 9.62378L2.21279 9.17753C1.90112 8.78795 1.73112 8.32753 1.73112 7.85295C1.73112 7.09503 2.14904 6.3867 2.82195 6.01128L3.26112 5.76337C3.26112 5.76337 3.14779 5.10462 3.14779 5.01962C3.14779 4.24045 3.78529 3.60295 4.56445 3.60295H5.27279V2.89462C5.27279 2.11545 5.91029 1.47795 6.68945 1.47795C7.46862 1.47795 8.10612 2.11545 8.10612 2.89462V13.1654C8.10612 14.5325 6.99404 15.6446 5.62695 15.6446V15.6375ZM15.4161 10.0629C15.7278 10.4525 15.8978 10.9129 15.8978 11.3875C15.8978 12.1667 15.4657 12.875 14.7645 13.2504L14.4811 13.3992L14.4103 13.7109C14.1482 14.8442 13.1565 15.6304 12.002 15.6304C10.6349 15.6304 9.52279 14.5184 9.52279 13.1513V2.88753C9.52279 2.10837 10.1603 1.47087 10.9395 1.47087C11.7186 1.47087 12.3561 2.10837 12.3561 2.88753V3.59587H13.0645C13.8436 3.59587 14.4811 4.23337 14.4811 5.01253C14.4811 5.09753 14.3678 5.75628 14.3678 5.75628L14.807 6.0042C15.4799 6.3867 15.8978 7.08795 15.8978 7.84587C15.8978 8.32753 15.7349 8.78087 15.4161 9.17045L15.0549 9.6167L15.4161 10.0629Z" fill="#757575"/>
</g>
<defs>
<clipPath id="clip0_7222_61735">
<rect width="17" height="17" fill="white" transform="translate(0.314453 0.0541992)"/>
</clipPath>
</defs>
</svg>
