<svg width="18" height="18" viewBox="0 0 18 18" fill="none" xmlns="http://www.w3.org/2000/svg">
<g clip-path="url(#clip0_7222_61768)">
<path d="M17.627 8.13102C17.627 7.01894 17.0957 5.97769 16.2103 5.31186V5.29769C16.2103 3.95186 15.2682 2.82561 14.0145 2.53519C13.724 1.28144 12.5978 0.339355 11.252 0.339355C10.409 0.339355 9.64404 0.714772 9.12695 1.30269C8.60987 0.714772 7.84487 0.339355 7.00195 0.339355C5.65612 0.339355 4.52987 1.28144 4.23945 2.53519C2.9857 2.82561 2.04362 3.95186 2.04362 5.29769V5.31186C1.1582 5.97769 0.626953 7.01894 0.626953 8.13102C0.626953 8.76144 0.796953 9.36352 1.1157 9.90186C0.796953 10.4402 0.626953 11.0423 0.626953 11.6727C0.626953 12.8698 1.23612 13.9677 2.23487 14.6264C2.74487 16.2414 4.22529 17.3394 5.93945 17.3394C7.25695 17.3394 8.41862 16.6806 9.12695 15.6819C9.83529 16.6806 10.997 17.3394 12.3145 17.3394C14.0286 17.3394 15.509 16.2344 16.019 14.6264C17.0178 13.9748 17.627 12.8698 17.627 11.6727C17.627 11.0423 17.457 10.4402 17.1382 9.90186C17.457 9.36352 17.627 8.76144 17.627 8.13102ZM5.93945 15.9227C4.78487 15.9227 3.7932 15.1294 3.53112 14.0031L3.46029 13.6914L3.17695 13.5427C2.48279 13.1673 2.04362 12.4519 2.04362 11.6798C2.04362 11.2052 2.20654 10.7448 2.52529 10.3552L2.88654 9.90894L2.52529 9.46269C2.21362 9.07311 2.04362 8.61269 2.04362 8.13811C2.04362 7.38019 2.46154 6.67186 3.13445 6.29644L3.57362 6.04852C3.57362 6.04852 3.46029 5.38977 3.46029 5.30477C3.46029 4.52561 4.09779 3.88811 4.87695 3.88811H5.58529V3.17977C5.58529 2.40061 6.22279 1.76311 7.00195 1.76311C7.78112 1.76311 8.41862 2.40061 8.41862 3.17977V13.4506C8.41862 14.8177 7.30654 15.9298 5.93945 15.9298V15.9227ZM15.7286 10.3481C16.0403 10.7377 16.2103 11.1981 16.2103 11.6727C16.2103 12.4519 15.7782 13.1602 15.077 13.5356L14.7936 13.6844L14.7228 13.996C14.4607 15.1294 13.469 15.9156 12.3145 15.9156C10.9474 15.9156 9.83529 14.8035 9.83529 13.4364V3.17269C9.83529 2.39352 10.4728 1.75602 11.252 1.75602C12.0311 1.75602 12.6686 2.39352 12.6686 3.17269V3.88102H13.377C14.1561 3.88102 14.7936 4.51852 14.7936 5.29769C14.7936 5.38269 14.6803 6.04144 14.6803 6.04144L15.1195 6.28935C15.7924 6.67185 16.2103 7.37311 16.2103 8.13102C16.2103 8.61269 16.0474 9.06602 15.7286 9.45561L15.3674 9.90186L15.7286 10.3481Z" fill="#0A1932"/>
</g>
<defs>
<clipPath id="clip0_7222_61768">
<rect width="17" height="17" fill="white" transform="translate(0.626953 0.339355)"/>
</clipPath>
</defs>
</svg>
