<svg width="17" height="17" viewBox="0 0 17 17" fill="none" xmlns="http://www.w3.org/2000/svg">
<g clip-path="url(#clip0_7222_61770)">
<path d="M8.62695 0.839355C4.21562 0.839355 0.626953 4.42802 0.626953 8.83936C0.626953 13.2507 4.21562 16.8394 8.62695 16.8394C13.0383 16.8394 16.627 13.2507 16.627 8.83936C16.627 4.42802 13.0383 0.839355 8.62695 0.839355ZM8.62695 15.506C4.95095 15.506 1.96029 12.5154 1.96029 8.83936C1.96029 7.84336 2.18029 6.89802 2.57362 6.04802L3.68429 7.21536C3.86095 7.40069 4.10562 7.50602 4.36162 7.50602H5.66095C5.85295 7.50602 6.03695 7.58202 6.17295 7.71802L6.42162 7.96669C6.55362 8.09869 6.62762 8.27736 6.62762 8.46336V9.10536C6.62762 9.36202 6.72962 9.60736 6.91095 9.78869L7.70429 10.582C7.86895 10.7467 7.96162 10.97 7.96162 11.2027V12.7794C7.96162 13.1807 8.28695 13.506 8.68829 13.506H8.83029C9.11362 13.506 9.37095 13.3414 9.48962 13.084L10.9836 9.84669C11.1616 9.46136 11.025 9.00469 10.6656 8.77936L8.95762 7.71202C8.74229 7.57736 8.49362 7.50602 8.23962 7.50602H7.28562C7.07829 7.50602 6.87895 7.42336 6.73229 7.27669L6.33762 6.88202C6.12962 6.67402 6.12962 6.33736 6.33762 6.13002L6.69029 5.77736C6.85229 5.61536 7.09962 5.57536 7.30429 5.67802L7.89095 5.97136C8.13162 6.09202 8.42295 6.04469 8.61362 5.85402L8.61562 5.85202C8.81895 5.64869 8.85762 5.33336 8.70962 5.08736L8.15162 4.15669C8.03495 3.96202 8.03762 3.72069 8.16095 3.53002C8.35829 3.22536 8.68095 2.72869 9.03829 2.18602C11.2196 2.31936 13.1216 3.50602 14.239 5.24336L13.179 5.85469C12.8523 6.04269 12.6903 6.42469 12.7823 6.79002L13.2003 8.46136C13.2603 8.70136 13.4223 8.90269 13.6436 9.01269L15.2256 9.79802C14.7596 13.0214 11.9783 15.506 8.62829 15.506H8.62695Z" fill="#0A1932"/>
</g>
<defs>
<clipPath id="clip0_7222_61770">
<rect width="16" height="16" fill="white" transform="translate(0.626953 0.839355)"/>
</clipPath>
</defs>
</svg>
