<svg width="17" height="17" viewBox="0 0 17 17" fill="none" xmlns="http://www.w3.org/2000/svg">
<g clip-path="url(#clip0_7222_61734)">
<path d="M8.31445 0.554199C3.90312 0.554199 0.314453 4.14287 0.314453 8.5542C0.314453 12.9655 3.90312 16.5542 8.31445 16.5542C12.7258 16.5542 16.3145 12.9655 16.3145 8.5542C16.3145 4.14287 12.7258 0.554199 8.31445 0.554199ZM8.31445 15.2209C4.63845 15.2209 1.64779 12.2302 1.64779 8.5542C1.64779 7.5582 1.86779 6.61287 2.26112 5.76287L3.37179 6.9302C3.54845 7.11553 3.79312 7.22087 4.04912 7.22087H5.34845C5.54045 7.22087 5.72445 7.29687 5.86045 7.43287L6.10912 7.68153C6.24112 7.81353 6.31512 7.9922 6.31512 8.1782V8.8202C6.31512 9.07687 6.41712 9.3222 6.59845 9.50353L7.39179 10.2969C7.55645 10.4615 7.64912 10.6849 7.64912 10.9175V12.4942C7.64912 12.8955 7.97445 13.2209 8.37579 13.2209H8.51779C8.80112 13.2209 9.05845 13.0562 9.17712 12.7989L10.6711 9.56153C10.8491 9.1762 10.7125 8.71953 10.3531 8.4942L8.64512 7.42687C8.42979 7.2922 8.18112 7.22087 7.92712 7.22087H6.97312C6.76579 7.22087 6.56645 7.1382 6.41979 6.99153L6.02512 6.59687C5.81712 6.38887 5.81712 6.0522 6.02512 5.84487L6.37779 5.4922C6.53979 5.3302 6.78712 5.2902 6.99179 5.39287L7.57845 5.6862C7.81912 5.80687 8.11045 5.75953 8.30112 5.56887L8.30312 5.56687C8.50645 5.36353 8.54512 5.0482 8.39712 4.8022L7.83912 3.87153C7.72245 3.67687 7.72512 3.43553 7.84845 3.24487C8.04579 2.9402 8.36845 2.44353 8.72579 1.90087C10.9071 2.0342 12.8091 3.22087 13.9265 4.9582L12.8665 5.56953C12.5398 5.75753 12.3778 6.13953 12.4698 6.50487L12.8878 8.1762C12.9478 8.4162 13.1098 8.61753 13.3311 8.72753L14.9131 9.51287C14.4471 12.7362 11.6658 15.2209 8.31579 15.2209H8.31445Z" fill="#757575"/>
</g>
<defs>
<clipPath id="clip0_7222_61734">
<rect width="16" height="16" fill="white" transform="translate(0.314453 0.554199)"/>
</clipPath>
</defs>
</svg>
