<svg width="17" height="17" viewBox="0 0 17 17" fill="none" xmlns="http://www.w3.org/2000/svg">
<path d="M5.87448 12.0591C6.53834 12.5206 7.31403 12.7839 8.1192 12.8215C8.7363 12.85 9.3412 12.7463 9.91763 12.5135C10.4524 12.297 10.9282 11.9828 11.3338 11.5792C11.7252 11.1888 12.0332 10.7324 12.2498 10.222C12.4663 9.71166 12.5812 9.17183 12.5893 8.6198C12.5985 8.04743 12.4938 7.48625 12.2772 6.95252C11.9651 6.17988 11.4395 5.5211 10.7584 5.04735C10.0945 4.5858 9.31883 4.32249 8.51366 4.28488C7.89656 4.25641 7.29166 4.36011 6.71523 4.59291C6.18048 4.80946 5.7047 5.1236 5.29906 5.5272C4.90766 5.91759 4.59962 6.37406 4.38308 6.88542C4.16653 7.39577 4.05165 7.9356 4.04352 8.48764C4.03437 9.06 4.13908 9.62118 4.35563 10.1549C4.66773 10.9276 5.19333 11.5863 5.87448 12.0601V12.0591ZM6.95313 5.17951C7.44416 4.98127 7.95959 4.89282 8.48417 4.91722C9.90034 4.9833 11.1589 5.87489 11.6906 7.1894C12.4429 9.04983 11.5412 11.1746 9.68075 11.9269C9.18972 12.1251 8.67428 12.2136 8.1497 12.1892C6.73353 12.1231 5.47494 11.2315 4.94324 9.91702C4.19093 8.05658 5.09269 5.93182 6.95313 5.17951Z" fill="#757575" stroke="#757575" stroke-width="0.6"/>
<path d="M6.35969 16.5228C6.52439 16.5309 6.68705 16.4587 6.79176 16.3235L7.65082 15.2144C8.05645 15.2551 8.46514 15.2591 8.87077 15.2256L9.71051 16.3479C9.85081 16.535 10.0989 16.6041 10.3154 16.5177C10.3154 16.5177 10.3154 16.5177 10.3164 16.5177L12.4137 15.6698C12.6303 15.5824 12.7614 15.3587 12.7319 15.127L12.5551 13.7362C12.8702 13.479 13.1793 13.1903 13.4416 12.8792L14.816 13.0764C15.0478 13.11 15.2725 12.9829 15.364 12.7674L16.2454 10.6833C16.3369 10.4677 16.2708 10.2176 16.0858 10.0743L14.9767 9.21727C15.0173 8.81265 15.0194 8.40294 14.9858 7.99629L16.1082 7.15553C16.2952 7.01524 16.3644 6.76616 16.2769 6.54962L15.8215 5.42624L15.4311 4.45739C15.4057 4.39538 15.3701 4.34149 15.3264 4.29473C15.2156 4.17578 15.0519 4.11377 14.8842 4.13512L14.0343 4.2439V4.24796L13.4975 4.31608C13.2403 4.00092 12.9526 3.70915 12.6415 3.44584L12.8417 2.05814C12.8753 1.82634 12.7482 1.60065 12.5327 1.51017L10.4496 0.626717C10.2341 0.53522 9.98399 0.600284 9.84064 0.785312L8.98159 1.89446C8.57595 1.85379 8.16625 1.84973 7.76061 1.88328L6.92087 0.760912C6.78058 0.573852 6.5315 0.503704 6.31496 0.592151L4.21764 1.44002C4.21764 1.44002 4.21764 1.44002 4.21663 1.44002C4.00009 1.52847 3.86996 1.75111 3.89944 1.9829L4.07633 3.37366C3.76118 3.63087 3.4694 3.91857 3.20609 4.22966L1.81839 4.02939C1.58761 3.99584 1.36192 4.12292 1.27043 4.33844L0.386971 6.42153C0.295474 6.63705 0.360538 6.88714 0.545566 7.03049L1.65471 7.88954C1.61405 8.29518 1.60998 8.70488 1.64353 9.11052L0.521166 9.95026C0.334106 10.0906 0.263958 10.3396 0.352405 10.5562L1.20028 12.6535C1.28771 12.87 1.51137 13.0012 1.74316 12.9717L3.13391 12.7948C3.39112 13.11 3.67883 13.4017 3.98992 13.665L3.78964 15.0527C3.75609 15.2845 3.88317 15.5092 4.0987 15.6007L6.18178 16.4842C6.23871 16.5086 6.29869 16.5218 6.35867 16.5248L6.35969 16.5228ZM4.52874 13.2838C4.1536 12.9839 3.81607 12.6403 3.52328 12.2621C3.45415 12.1736 3.34436 12.1269 3.23253 12.1411L1.75536 12.3292L0.975602 10.4006L2.16811 9.50904C2.25758 9.44194 2.30536 9.33215 2.29316 9.22032C2.24029 8.74555 2.24436 8.26265 2.30637 7.78686C2.32061 7.67503 2.27486 7.56422 2.18641 7.49611L1.00813 6.58419L1.82042 4.66885L3.29454 4.88133C3.40536 4.89759 3.51718 4.85286 3.58733 4.76543C3.88724 4.39029 4.23086 4.05277 4.60905 3.75998C4.6975 3.69085 4.74426 3.58105 4.73003 3.46922L4.54195 1.99205L6.4705 1.2123L7.36209 2.40481C7.42919 2.49529 7.53899 2.54205 7.65082 2.52985C8.12558 2.47699 8.60848 2.48106 9.08427 2.54307C9.1961 2.5573 9.30589 2.51155 9.37502 2.42311L10.2869 1.24483L12.2023 2.05712L11.9888 3.53124C11.9725 3.64205 12.0173 3.75388 12.1047 3.82403C12.4798 4.12394 12.8173 4.46756 13.1101 4.84575C13.1793 4.93419 13.2891 4.98096 13.4009 4.96672L14.876 4.77966L15.1953 5.56654L15.61 6.59639C15.6161 6.61265 15.6233 6.6279 15.6314 6.64315L15.6558 6.70415L14.4633 7.59675C14.3738 7.66385 14.326 7.77365 14.3382 7.88548C14.3921 8.36228 14.388 8.84416 14.3281 9.31893C14.3138 9.43076 14.3596 9.54056 14.449 9.60969L15.6273 10.5206L14.816 12.4369L13.5148 12.2499C13.5056 12.2479 13.4975 12.2468 13.4883 12.2458L13.3419 12.2245C13.2647 12.2133 13.1874 12.2316 13.1234 12.2733C13.0939 12.2916 13.0674 12.3149 13.0451 12.3434C12.7452 12.7186 12.4015 13.0561 12.0234 13.3489C11.9349 13.418 11.8881 13.5278 11.9024 13.6396L12.0905 15.1168L10.1619 15.8965L9.27031 14.704C9.20321 14.6146 9.09342 14.5668 8.98159 14.579C8.5058 14.6319 8.02392 14.6278 7.54814 14.5658C7.43631 14.5515 7.32549 14.5973 7.25738 14.6857L6.34546 15.864L4.43012 15.0517L4.6426 13.5776C4.65886 13.4668 4.61413 13.355 4.5267 13.2848L4.52874 13.2838Z" fill="#757575" stroke="#757575" stroke-width="0.6"/>
</svg>
