<svg width="17" height="18" viewBox="0 0 17 18" fill="none" xmlns="http://www.w3.org/2000/svg">
<path d="M6.18698 12.3442C6.85084 12.8058 7.62653 13.0691 8.4317 13.1067C9.0488 13.1352 9.6537 13.0315 10.2301 12.7987C10.7649 12.5821 11.2407 12.268 11.6463 11.8644C12.0377 11.474 12.3457 11.0175 12.5623 10.5072C12.7788 9.99682 12.8937 9.45699 12.9018 8.90495C12.911 8.33259 12.8063 7.77141 12.5897 7.23768C12.2776 6.46503 11.752 5.80626 11.0709 5.33251C10.407 4.87096 9.63133 4.60765 8.82616 4.57003C8.20906 4.54157 7.60416 4.64526 7.02773 4.87807C6.49298 5.09461 6.0172 5.40875 5.61156 5.81236C5.22016 6.20274 4.91212 6.65921 4.69558 7.17058C4.47903 7.68093 4.36415 8.22076 4.35602 8.77279C4.34687 9.34516 4.45158 9.90634 4.66813 10.4401C4.98023 11.2127 5.50583 11.8715 6.18698 12.3452V12.3442ZM7.26563 5.46467C7.75666 5.26643 8.27209 5.17798 8.79667 5.20238C10.2128 5.26846 11.4714 6.16005 12.0031 7.47455C12.7554 9.33499 11.8537 11.4598 9.99325 12.2121C9.50222 12.4103 8.98678 12.4988 8.4622 12.4744C7.04603 12.4083 5.78744 11.5167 5.25574 10.2022C4.50343 8.34174 5.40519 6.21698 7.26563 5.46467Z" fill="#0A1932" stroke="#0A1932" stroke-width="0.6"/>
<path d="M6.67219 16.8079C6.83689 16.8161 6.99955 16.7439 7.10426 16.6087L7.96332 15.4995C8.36895 15.5402 8.77764 15.5443 9.18327 15.5107L10.023 16.6331C10.1633 16.8201 10.4114 16.8893 10.6279 16.8029C10.6279 16.8029 10.6279 16.8029 10.6289 16.8029L12.7262 15.955C12.9428 15.8676 13.0739 15.6439 13.0444 15.4121L12.8676 14.0214C13.1827 13.7642 13.4918 13.4754 13.7541 13.1643L15.1285 13.3616C15.3603 13.3951 15.585 13.268 15.6765 13.0525L16.5579 10.9684C16.6494 10.7529 16.5833 10.5028 16.3983 10.3594L15.2892 9.50242C15.3298 9.0978 15.3319 8.6881 15.2983 8.28145L16.4207 7.44069C16.6077 7.3004 16.6769 7.05132 16.5894 6.83478L16.134 5.7114L15.7436 4.74255C15.7182 4.68053 15.6826 4.62665 15.6389 4.57989C15.5281 4.46094 15.3644 4.39893 15.1967 4.42027L14.3468 4.52905V4.53312L13.81 4.60123C13.5528 4.28608 13.2651 3.9943 12.954 3.731L13.1542 2.34329C13.1878 2.1115 13.0607 1.88581 12.8452 1.79533L10.7621 0.911873C10.5466 0.820376 10.2965 0.885441 10.1531 1.07047L9.29409 2.17961C8.88845 2.13895 8.47875 2.13488 8.07311 2.16843L7.23337 1.04607C7.09308 0.859008 6.844 0.788861 6.62746 0.877308L4.53014 1.72518C4.53014 1.72518 4.53014 1.72518 4.52913 1.72518C4.31259 1.81363 4.18246 2.03627 4.21194 2.26806L4.38883 3.65882C4.07368 3.91602 3.7819 4.20373 3.51859 4.51482L2.13089 4.31454C1.90011 4.281 1.67442 4.40807 1.58293 4.6236L0.699471 6.70668C0.607974 6.92221 0.673038 7.1723 0.858066 7.31564L1.96721 8.1747C1.92655 8.58034 1.92248 8.99004 1.95603 9.39568L0.833666 10.2354C0.646606 10.3757 0.576458 10.6248 0.664905 10.8413L1.51278 12.9386C1.60021 13.1552 1.82387 13.2863 2.05566 13.2569L3.44641 13.08C3.70362 13.3951 3.99133 13.6869 4.30242 13.9502L4.10214 15.3379C4.06859 15.5697 4.19567 15.7944 4.4112 15.8859L6.49428 16.7693C6.55121 16.7937 6.61119 16.8069 6.67117 16.81L6.67219 16.8079ZM4.84124 13.569C4.4661 13.2691 4.12857 12.9254 3.83578 12.5472C3.76665 12.4588 3.65686 12.412 3.54503 12.4263L2.06786 12.6143L1.2881 10.6858L2.48061 9.7942C2.57008 9.7271 2.61786 9.6173 2.60566 9.50547C2.55279 9.03071 2.55686 8.5478 2.61887 8.07202C2.63311 7.96019 2.58736 7.84938 2.49891 7.78126L1.32063 6.86934L2.13292 4.95401L3.60704 5.16648C3.71786 5.18275 3.82968 5.13802 3.89983 5.05059C4.19974 4.67545 4.54336 4.33793 4.92155 4.04514C5.01 3.97601 5.05676 3.86621 5.04253 3.75438L4.85445 2.27721L6.783 1.49745L7.67459 2.68996C7.74169 2.78044 7.85149 2.82721 7.96332 2.81501C8.43808 2.76215 8.92098 2.76621 9.39677 2.82823C9.5086 2.84246 9.61839 2.79671 9.68752 2.70826L10.5994 1.52999L12.5148 2.34228L12.3013 3.81639C12.285 3.92721 12.3298 4.03904 12.4172 4.10918C12.7923 4.40909 13.1298 4.75271 13.4226 5.1309C13.4918 5.21935 13.6016 5.26611 13.7134 5.25188L15.1885 5.06482L15.5078 5.85169L15.9225 6.88154C15.9286 6.89781 15.9358 6.91306 15.9439 6.92831L15.9683 6.98931L14.7758 7.88191C14.6863 7.94901 14.6385 8.0588 14.6507 8.17063C14.7046 8.64744 14.7005 9.12932 14.6406 9.60409C14.6263 9.71592 14.6721 9.82571 14.7615 9.89484L15.9398 10.8057L15.1285 12.7221L13.8273 12.535C13.8181 12.533 13.81 12.532 13.8008 12.531L13.6544 12.5096C13.5772 12.4984 13.4999 12.5167 13.4359 12.5584C13.4064 12.5767 13.3799 12.6001 13.3576 12.6286C13.0577 13.0037 12.714 13.3412 12.3359 13.634C12.2474 13.7032 12.2006 13.8129 12.2149 13.9248L12.403 15.4019L10.4744 16.1817L9.58281 14.9892C9.51571 14.8997 9.40592 14.8519 9.29409 14.8641C8.8183 14.917 8.33642 14.9129 7.86064 14.8509C7.74881 14.8367 7.63799 14.8824 7.56988 14.9709L6.65796 16.1492L4.74262 15.3369L4.9551 13.8628C4.97136 13.752 4.92663 13.6401 4.8392 13.57L4.84124 13.569Z" fill="#0A1932" stroke="#0A1932" stroke-width="0.6"/>
</svg>
