<svg width="17" height="18" viewBox="0 0 17 18" fill="none" xmlns="http://www.w3.org/2000/svg">
<g clip-path="url(#clip0_7222_61754)">
<path d="M9.91667 13.0896H7.08333C6.30204 13.0896 5.66667 12.4542 5.66667 11.6729V8.83961C5.66667 8.05832 6.30204 7.42295 7.08333 7.42295H9.91667C10.698 7.42295 11.3333 8.05832 11.3333 8.83961V11.6729C11.3333 12.4542 10.698 13.0896 9.91667 13.0896ZM7.08333 8.83961V11.6729H9.91808L9.91667 8.83961H7.08333ZM13.4583 17.3396H3.54167C1.58879 17.3396 0 15.7508 0 13.7979V7.22745C0 6.04807 0.583667 4.95016 1.56117 4.29141L6.51879 0.945238C7.72225 0.133488 9.27775 0.133488 10.4812 0.945238L15.4395 4.29141C16.4163 4.95016 17 6.04736 17 7.22745V13.7979C17 15.7508 15.4112 17.3396 13.4583 17.3396ZM8.5 1.75416C8.08633 1.75416 7.67267 1.87599 7.31142 2.12036L2.35308 5.46582C1.76658 5.86107 1.41667 6.51911 1.41667 7.22674V13.7972C1.41667 14.9688 2.37008 15.9222 3.54167 15.9222H13.4583C14.6299 15.9222 15.5833 14.9688 15.5833 13.7972V7.22745C15.5833 6.51982 15.2334 5.86107 14.6476 5.46653L9.68858 2.12036C9.32733 1.87599 8.91367 1.75416 8.5 1.75416Z" fill="#0A1932"/>
</g>
<defs>
<clipPath id="clip0_7222_61754">
<rect width="17" height="17" fill="white" transform="translate(0 0.339355)"/>
</clipPath>
</defs>
</svg>
