<svg width="18" height="18" viewBox="0 0 18 18" fill="none" xmlns="http://www.w3.org/2000/svg">
<g clip-path="url(#clip0_7222_61749)">
<path d="M10.6042 12.8045H7.77083C6.98954 12.8045 6.35417 12.1691 6.35417 11.3878V8.55446C6.35417 7.77317 6.98954 7.13779 7.77083 7.13779H10.6042C11.3855 7.13779 12.0208 7.77317 12.0208 8.55446V11.3878C12.0208 12.1691 11.3855 12.8045 10.6042 12.8045ZM7.77083 8.55446V11.3878H10.6056L10.6042 8.55446H7.77083ZM14.1458 17.0545H4.22917C2.27629 17.0545 0.6875 15.4657 0.6875 13.5128V6.94229C0.6875 5.76292 1.27117 4.665 2.24867 4.00625L7.20629 0.660082C8.40975 -0.151668 9.96525 -0.151668 11.1687 0.660082L16.127 4.00625C17.1038 4.665 17.6875 5.76221 17.6875 6.94229V13.5128C17.6875 15.4657 16.0987 17.0545 14.1458 17.0545ZM9.1875 1.469C8.77383 1.469 8.36017 1.59083 7.99892 1.83521L3.04058 5.18067C2.45408 5.57592 2.10417 6.23396 2.10417 6.94158V13.5121C2.10417 14.6837 3.05758 15.6371 4.22917 15.6371H14.1458C15.3174 15.6371 16.2708 14.6837 16.2708 13.5121V6.94229C16.2708 6.23467 15.9209 5.57592 15.3351 5.18137L10.3761 1.83521C10.0148 1.59083 9.60117 1.469 9.1875 1.469Z" fill="#757575"/>
</g>
<defs>
<clipPath id="clip0_7222_61749">
<rect width="17" height="17" fill="white" transform="translate(0.6875 0.0541992)"/>
</clipPath>
</defs>
</svg>
