<svg width="18" height="18" viewBox="0 0 18 18" fill="none" xmlns="http://www.w3.org/2000/svg">
<g clip-path="url(#clip0_7222_61766)">
<path d="M14.0853 1.75602H13.377V1.04769C13.377 0.656689 13.0596 0.339355 12.6686 0.339355C12.2776 0.339355 11.9603 0.656689 11.9603 1.04769V1.75602H6.29362V1.04769C6.29362 0.656689 5.97629 0.339355 5.58529 0.339355C5.19429 0.339355 4.87695 0.656689 4.87695 1.04769V1.75602H4.16862C2.21574 1.75602 0.626953 3.34481 0.626953 5.29769V13.7977C0.626953 15.7506 2.21574 17.3394 4.16862 17.3394H14.0853C16.0382 17.3394 17.627 15.7506 17.627 13.7977V5.29769C17.627 3.34481 16.0382 1.75602 14.0853 1.75602ZM4.16862 3.17269H14.0853C15.2569 3.17269 16.2103 4.12611 16.2103 5.29769V6.00602H2.04362V5.29769C2.04362 4.12611 2.99704 3.17269 4.16862 3.17269ZM14.0853 15.9227H4.16862C2.99704 15.9227 2.04362 14.9693 2.04362 13.7977V7.42269H16.2103V13.7977C16.2103 14.9693 15.2569 15.9227 14.0853 15.9227ZM12.2415 11.2137C12.2415 11.4821 12.0545 11.7081 11.8406 11.8271L10.7327 12.4434L11.2243 13.7842C11.3192 14.0442 11.2335 14.3353 11.0125 14.5018C10.7866 14.6718 10.4749 14.6696 10.2511 14.4968L9.14891 13.6447L8.04674 14.4968C7.82291 14.6696 7.51124 14.6718 7.28529 14.5018C7.06429 14.3353 6.97858 14.0442 7.07349 13.7842L7.56508 12.4434L6.45724 11.8271C6.24333 11.7081 6.05633 11.4821 6.05633 11.2137C6.05633 10.9863 6.25395 10.7349 6.57412 10.7349H8.16574L8.58791 9.11773C8.65449 8.86131 8.8847 8.68281 9.14891 8.67786C9.41312 8.68281 9.64333 8.86131 9.70991 9.11773L10.1321 10.7349H11.7237C12.0439 10.7349 12.2415 10.9856 12.2415 11.2137Z" fill="#0A1932"/>
</g>
<defs>
<clipPath id="clip0_7222_61766">
<rect width="17" height="17" fill="white" transform="translate(0.626953 0.339355)"/>
</clipPath>
</defs>
</svg>
