<svg width="18" height="18" viewBox="0 0 18 18" fill="none" xmlns="http://www.w3.org/2000/svg">
<g clip-path="url(#clip0_7222_61737)">
<path d="M13.7728 1.47087H13.0645V0.762533C13.0645 0.371533 12.7471 0.0541992 12.3561 0.0541992C11.9651 0.0541992 11.6478 0.371533 11.6478 0.762533V1.47087H5.98112V0.762533C5.98112 0.371533 5.66379 0.0541992 5.27279 0.0541992C4.88179 0.0541992 4.56445 0.371533 4.56445 0.762533V1.47087H3.85612C1.90324 1.47087 0.314453 3.05966 0.314453 5.01253V13.5125C0.314453 15.4654 1.90324 17.0542 3.85612 17.0542H13.7728C15.7257 17.0542 17.3145 15.4654 17.3145 13.5125V5.01253C17.3145 3.05966 15.7257 1.47087 13.7728 1.47087ZM3.85612 2.88753H13.7728C14.9444 2.88753 15.8978 3.84095 15.8978 5.01253V5.72087H1.73112V5.01253C1.73112 3.84095 2.68454 2.88753 3.85612 2.88753ZM13.7728 15.6375H3.85612C2.68454 15.6375 1.73112 14.6841 1.73112 13.5125V7.13753H15.8978V13.5125C15.8978 14.6841 14.9444 15.6375 13.7728 15.6375ZM11.929 10.9285C11.929 11.197 11.742 11.4229 11.5281 11.5419L10.4202 12.1582L10.9118 13.4991C11.0067 13.759 10.921 14.0502 10.7 14.2166C10.4741 14.3866 10.1624 14.3845 9.93858 14.2117L8.83641 13.3595L7.73424 14.2117C7.51041 14.3845 7.19874 14.3866 6.97279 14.2166C6.75179 14.0502 6.66608 13.759 6.76099 13.4991L7.25258 12.1582L6.14474 11.5419C5.93083 11.4229 5.74383 11.197 5.74383 10.9285C5.74383 10.7012 5.94145 10.4497 6.26162 10.4497H7.85324L8.27541 8.83257C8.34199 8.57616 8.5722 8.39766 8.83641 8.3927C9.10062 8.39766 9.33083 8.57616 9.39741 8.83257L9.81958 10.4497H11.4112C11.7314 10.4497 11.929 10.7004 11.929 10.9285Z" fill="#757575"/>
</g>
<defs>
<clipPath id="clip0_7222_61737">
<rect width="17" height="17" fill="white" transform="translate(0.314453 0.0541992)"/>
</clipPath>
</defs>
</svg>
