<svg width="18" height="18" viewBox="0 0 18 18" fill="none" xmlns="http://www.w3.org/2000/svg">
<g clip-path="url(#clip0_7222_61732)">
<path d="M17.3145 7.13759C17.3145 7.08589 17.3088 7.03433 17.2975 6.98388L16.3766 2.82738C16.2055 2.03847 15.7684 1.33236 15.1385 0.827462C14.5087 0.322562 13.7244 0.0495693 12.9171 0.0542586H4.71179C3.90503 0.0502209 3.12139 0.323512 2.4921 0.828358C1.86282 1.3332 1.42611 2.03895 1.25512 2.82738L0.331454 6.98388C0.320127 7.03433 0.314425 7.08589 0.314454 7.13759V7.84593C0.313883 8.53555 0.565857 9.20152 1.02279 9.71805V13.5126C1.02391 14.4516 1.39741 15.3517 2.06136 16.0157C2.72531 16.6796 3.62549 17.0531 4.56445 17.0543H13.0645C14.0034 17.0531 14.9036 16.6796 15.5676 16.0157C16.2315 15.3517 16.605 14.4516 16.6061 13.5126V9.71805C17.0631 9.20152 17.315 8.53555 17.3145 7.84593V7.13759ZM1.73112 7.2148L2.63779 3.1348C2.74053 2.66181 3.00259 2.23846 3.38013 1.93558C3.75767 1.63269 4.22778 1.46866 4.71179 1.47093H5.27279V3.59593C5.27279 3.78379 5.34742 3.96395 5.48025 4.09679C5.61309 4.22963 5.79326 4.30426 5.98112 4.30426C6.16898 4.30426 6.34915 4.22963 6.48199 4.09679C6.61483 3.96395 6.68945 3.78379 6.68945 3.59593V1.47093H10.9395V3.59593C10.9395 3.78379 11.0141 3.96395 11.1469 4.09679C11.2798 4.22963 11.4599 4.30426 11.6478 4.30426C11.8357 4.30426 12.0158 4.22963 12.1487 4.09679C12.2815 3.96395 12.3561 3.78379 12.3561 3.59593V1.47093H12.9171C13.4011 1.46866 13.8712 1.63269 14.2488 1.93558C14.6263 2.23846 14.8884 2.66181 14.9911 3.1348L15.8978 7.2148V7.84593C15.8978 8.22165 15.7485 8.58198 15.4829 8.84766C15.2172 9.11334 14.8568 9.26259 14.4811 9.26259H13.7728C13.3971 9.26259 13.0367 9.11334 12.7711 8.84766C12.5054 8.58198 12.3561 8.22165 12.3561 7.84593C12.3561 7.65806 12.2815 7.4779 12.1487 7.34506C12.0158 7.21222 11.8357 7.13759 11.6478 7.13759C11.4599 7.13759 11.2798 7.21222 11.1469 7.34506C11.0141 7.4779 10.9395 7.65806 10.9395 7.84593C10.9395 8.22165 10.7902 8.58198 10.5245 8.84766C10.2588 9.11334 9.89851 9.26259 9.52279 9.26259H8.10612C7.7304 9.26259 7.37006 9.11334 7.10439 8.84766C6.83871 8.58198 6.68945 8.22165 6.68945 7.84593C6.68945 7.65806 6.61483 7.4779 6.48199 7.34506C6.34915 7.21222 6.16898 7.13759 5.98112 7.13759C5.79326 7.13759 5.61309 7.21222 5.48025 7.34506C5.34742 7.4779 5.27279 7.65806 5.27279 7.84593C5.27279 8.22165 5.12353 8.58198 4.85786 8.84766C4.59218 9.11334 4.23184 9.26259 3.85612 9.26259H3.14779C2.77206 9.26259 2.41173 9.11334 2.14605 8.84766C1.88038 8.58198 1.73112 8.22165 1.73112 7.84593V7.2148ZM13.0645 15.6376H4.56445C4.00087 15.6376 3.46037 15.4137 3.06185 15.0152C2.66334 14.6167 2.43945 14.0762 2.43945 13.5126V10.5893C2.6708 10.6492 2.90882 10.6794 3.14779 10.6793H3.85612C4.25832 10.6795 4.65594 10.5938 5.0224 10.4281C5.38885 10.2623 5.71571 10.0202 5.98112 9.71805C6.24653 10.0202 6.57339 10.2623 6.93985 10.4281C7.3063 10.5938 7.70392 10.6795 8.10612 10.6793H9.52279C9.92499 10.6795 10.3226 10.5938 10.6891 10.4281C11.0555 10.2623 11.3824 10.0202 11.6478 9.71805C11.9132 10.0202 12.2401 10.2623 12.6065 10.4281C12.973 10.5938 13.3706 10.6795 13.7728 10.6793H14.4811C14.7201 10.6794 14.9581 10.6492 15.1895 10.5893V13.5126C15.1895 14.0762 14.9656 14.6167 14.5671 15.0152C14.1685 15.4137 13.628 15.6376 13.0645 15.6376Z" fill="#757575"/>
</g>
<defs>
<clipPath id="clip0_7222_61732">
<rect width="17" height="17" fill="white" transform="translate(0.314453 0.0541992)"/>
</clipPath>
</defs>
</svg>
