<svg width="18" height="18" viewBox="0 0 18 18" fill="none" xmlns="http://www.w3.org/2000/svg">
<g clip-path="url(#clip0_7222_61771)">
<path d="M17.627 7.42275C17.627 7.37104 17.6213 7.31949 17.61 7.26904L16.6891 3.11254C16.518 2.32363 16.0809 1.61752 15.451 1.11262C14.8212 0.607718 14.0369 0.334726 13.2296 0.339415H5.02429C4.21753 0.335377 3.43389 0.608668 2.8046 1.11351C2.17532 1.61836 1.73861 2.3241 1.56762 3.11254L0.643954 7.26904C0.632627 7.31949 0.626925 7.37104 0.626954 7.42275V8.13108C0.626383 8.82071 0.878357 9.48668 1.33529 10.0032V13.7977C1.33641 14.7367 1.70991 15.6369 2.37386 16.3008C3.03781 16.9648 3.93799 17.3383 4.87695 17.3394H13.377C14.3159 17.3383 15.2161 16.9648 15.8801 16.3008C16.544 15.6369 16.9175 14.7367 16.9186 13.7977V10.0032C17.3756 9.48668 17.6275 8.82071 17.627 8.13108V7.42275ZM2.04362 7.49996L2.95029 3.41996C3.05303 2.94697 3.31509 2.52361 3.69263 2.22073C4.07017 1.91785 4.54028 1.75382 5.02429 1.75608H5.58529V3.88108C5.58529 4.06894 5.65992 4.24911 5.79275 4.38195C5.92559 4.51479 6.10576 4.58942 6.29362 4.58942C6.48148 4.58942 6.66165 4.51479 6.79449 4.38195C6.92733 4.24911 7.00195 4.06894 7.00195 3.88108V1.75608H11.252V3.88108C11.252 4.06894 11.3266 4.24911 11.4594 4.38195C11.5923 4.51479 11.7724 4.58942 11.9603 4.58942C12.1482 4.58942 12.3283 4.51479 12.4612 4.38195C12.594 4.24911 12.6686 4.06894 12.6686 3.88108V1.75608H13.2296C13.7136 1.75382 14.1837 1.91785 14.5613 2.22073C14.9388 2.52361 15.2009 2.94697 15.3036 3.41996L16.2103 7.49996V8.13108C16.2103 8.50681 16.061 8.86714 15.7954 9.13282C15.5297 9.39849 15.1693 9.54775 14.7936 9.54775H14.0853C13.7096 9.54775 13.3492 9.39849 13.0836 9.13282C12.8179 8.86714 12.6686 8.50681 12.6686 8.13108C12.6686 7.94322 12.594 7.76305 12.4612 7.63021C12.3283 7.49738 12.1482 7.42275 11.9603 7.42275C11.7724 7.42275 11.5923 7.49738 11.4594 7.63021C11.3266 7.76305 11.252 7.94322 11.252 8.13108C11.252 8.50681 11.1027 8.86714 10.837 9.13282C10.5713 9.39849 10.211 9.54775 9.83529 9.54775H8.41862C8.0429 9.54775 7.68256 9.39849 7.41689 9.13282C7.15121 8.86714 7.00195 8.50681 7.00195 8.13108C7.00195 7.94322 6.92733 7.76305 6.79449 7.63021C6.66165 7.49738 6.48148 7.42275 6.29362 7.42275C6.10576 7.42275 5.92559 7.49738 5.79275 7.63021C5.65992 7.76305 5.58529 7.94322 5.58529 8.13108C5.58529 8.50681 5.43603 8.86714 5.17036 9.13282C4.90468 9.39849 4.54434 9.54775 4.16862 9.54775H3.46029C3.08456 9.54775 2.72423 9.39849 2.45855 9.13282C2.19288 8.86714 2.04362 8.50681 2.04362 8.13108V7.49996ZM13.377 15.9227H4.87695C4.31337 15.9227 3.77287 15.6989 3.37435 15.3004C2.97584 14.9018 2.75195 14.3613 2.75195 13.7977V10.8745C2.9833 10.9344 3.22132 10.9646 3.46029 10.9644H4.16862C4.57082 10.9646 4.96844 10.879 5.3349 10.7132C5.70135 10.5475 6.02821 10.3054 6.29362 10.0032C6.55903 10.3054 6.88589 10.5475 7.25235 10.7132C7.6188 10.879 8.01642 10.9646 8.41862 10.9644H9.83529C10.2375 10.9646 10.6351 10.879 11.0016 10.7132C11.368 10.5475 11.6949 10.3054 11.9603 10.0032C12.2257 10.3054 12.5526 10.5475 12.919 10.7132C13.2855 10.879 13.6831 10.9646 14.0853 10.9644H14.7936C15.0326 10.9646 15.2706 10.9344 15.502 10.8745V13.7977C15.502 14.3613 15.2781 14.9018 14.8796 15.3004C14.481 15.6989 13.9405 15.9227 13.377 15.9227Z" fill="#0A1932"/>
</g>
<defs>
<clipPath id="clip0_7222_61771">
<rect width="17" height="17" fill="white" transform="translate(0.626953 0.339355)"/>
</clipPath>
</defs>
</svg>
