<svg width="364" height="387" viewBox="0 0 364 387" fill="none" xmlns="http://www.w3.org/2000/svg">
<path d="M234.969 17.3524C218.971 9.22811 201.969 3.19771 184.883 0.936317C166.708 -1.49259 149.37 0.852561 133.708 7.63675C124.746 11.5733 116.371 16.5986 108.498 22.2102C100.625 27.9056 93.3381 34.4385 87.6427 42.3115C82.0311 49.9332 78.5134 58.6438 76.0007 67.9407C73.4043 77.405 71.3104 86.9531 67.5414 95.8312C52.8004 130.506 22.3135 154.46 7.57251 189.219C1.03959 204.546 -1.89185 221.632 1.29086 239.472C4.2223 255.972 11.7603 271.969 21.4759 286.542C31.4428 301.535 43.7549 315.187 56.9882 327.583C72.5667 342.156 89.4853 355.473 107.912 365.943C124.914 375.574 143.256 382.61 161.934 385.206C179.104 387.635 196.441 386.295 211.601 380.516C216.961 378.422 221.986 375.826 226.593 372.559C243.093 364.1 256.912 352.039 269.057 338.471C281.788 324.232 293.179 308.654 303.732 292.656C314.452 276.492 324.084 259.406 331.455 241.147C338.574 223.475 343.767 204.546 344.856 184.696C346.698 151.612 335.056 117.524 314.871 87.9582C294.77 58.4763 266.628 33.4334 234.969 17.2686" fill="#DCDCE6"/>
<path d="M323.666 147.676C320.65 141.897 315.206 137.625 309.595 133.856C296.026 124.894 281.704 116.519 266.712 109.651C237.398 96.1661 204.314 89.4657 171.315 90.6383C155.82 91.1408 139.571 93.1509 126.422 100.94C119.805 104.793 114.11 109.818 109.084 115.262C102.468 122.382 95.8509 128.747 89.9042 136.536C83.6226 144.744 77.676 153.12 72.0643 161.747C60.9249 178.581 51.293 190.977 41.3261 208.315C32.1967 224.144 9.3315 249.02 3.55238 261.834C-1.64046 273.393 -1.55669 283.443 8.32645 292.656C18.0421 301.618 47.6077 314.182 60.1711 319.039C90.658 330.849 113.105 334.45 145.35 342.323C166.373 347.516 186.893 356.143 208.753 357.316C213.611 357.567 218.888 356.981 223.159 354.3C227.598 351.453 230.697 346.846 234.634 343.496C238.235 340.397 241.502 336.712 244.768 333.194C250.715 326.912 257.918 320.296 262.189 312.758C266.126 305.806 270.146 298.854 274.082 291.819C281.704 278.25 289.158 264.598 295.943 250.779C302.811 236.875 309.092 222.721 314.453 208.315C319.394 194.746 324.419 180.592 326.178 166.353C326.932 160.072 326.681 153.455 323.666 147.592" fill="#F2E0CF"/>
<path d="M230.949 193.49C210.094 185.868 189.155 178.582 168.132 171.462C158.082 168.028 148.031 164.511 137.897 161.244C130.023 158.648 121.062 154.628 112.435 154.795C112.602 154.041 112.77 153.204 112.854 152.45C112.937 151.696 111.681 151.529 111.514 152.282C111.262 153.204 111.011 154.041 110.592 154.879C110.006 154.879 109.42 154.963 108.833 155.13C107.326 155.381 107.828 157.559 109.252 157.559C106.572 162.249 102.384 166.018 98.4477 169.787C93.3386 174.645 88.6483 179.922 84.4605 185.617C82.5342 188.214 80.5241 190.894 80.0215 194.16C79.4352 197.594 80.524 201.112 80.7753 204.462C81.5291 212.67 80.4403 220.962 78.0114 228.835C73.2373 244.162 63.5217 257.396 52.2985 268.703C47.6082 273.477 41.5778 277.581 37.39 282.857C33.286 288.05 36.8037 291.233 41.159 294.583C51.8797 302.959 64.5268 308.319 77.5089 311.837C84.7118 313.763 92.0823 315.187 99.4528 316.192C105.316 316.946 109.922 315.857 113.942 311.25C121.899 302.121 122.653 289.223 126.255 278.251C128.516 271.299 132.201 265.185 138.483 261.165C143.759 257.731 149.874 255.804 155.653 253.124C158.668 251.7 161.683 250.193 164.363 248.182C165.955 246.926 167.462 245.083 169.221 244.162C171.399 242.99 173.995 243.576 176.34 243.408C183.124 243.073 189.155 239.723 194.431 235.619C208.502 224.647 220.312 209.739 231.284 195.835C231.954 194.998 231.703 193.909 230.698 193.574" fill="#D6B899"/>
<path d="M278.522 310.245C278.522 306.141 278.522 302.037 278.522 297.933C278.522 282.69 278.355 267.446 278.271 252.286C278.271 245.586 279.276 237.797 277.768 231.18C277.098 228.249 275.423 225.987 273.078 224.312C272.408 223.81 271.738 223.475 270.984 223.056C270.649 222.888 270.314 222.721 269.979 222.553C264.032 220.124 256.997 220.292 250.631 220.041C242.088 219.706 233.629 219.789 225.086 220.208C220.061 220.459 215.035 220.794 209.926 221.213C199.373 222.051 188.904 223.307 178.434 224.898C178.853 222.637 179.272 220.292 179.691 218.03C179.942 216.355 177.429 215.602 177.094 217.36C176.592 220.041 176.089 222.721 175.503 225.401C174.917 225.485 174.414 225.568 173.828 225.652C173.074 225.736 173.241 226.992 173.995 226.909C174.414 226.909 174.833 226.909 175.252 226.825C172.906 239.137 170.729 251.449 168.384 263.761C165.871 277.078 162.939 290.395 160.846 303.712C160.594 304.969 160.427 306.225 160.259 307.565C159.924 309.826 159.757 312.255 160.092 314.6C160.092 315.354 160.343 316.024 160.511 316.694C160.846 317.951 161.432 319.207 162.269 320.296C165.117 324.232 170.059 324.735 174.498 324.567C190.076 324.232 205.655 323.562 221.233 323.73C237.566 323.897 257.164 328.336 273.078 323.311C273.915 323.06 274.669 322.725 275.256 322.39C276.177 321.887 276.847 321.301 277.349 320.631C279.276 317.951 278.606 314.182 278.522 310.078" fill="#ED8545"/>
<path d="M240.58 285.621C240.161 284.867 239.659 284.03 239.156 283.276C236.392 278.502 234.047 273.644 229.524 270.21C225.504 267.111 220.814 266.19 216.207 264.598C216.626 258.233 213.946 251.7 210.512 246.256C208.837 243.66 206.91 241.231 205.319 238.634C202.974 234.865 202.974 231.85 205.319 227.914C206.659 225.568 208.251 223.307 210.009 221.213C199.456 222.051 188.987 223.307 178.517 224.898C178.936 222.637 179.355 220.292 179.774 218.03C180.025 216.355 177.512 215.602 177.177 217.36C176.675 220.041 176.172 222.721 175.586 225.401C175 225.485 174.497 225.568 173.911 225.652C173.157 225.736 173.325 226.992 174.078 226.909C174.497 226.909 174.916 226.909 175.335 226.825C172.99 239.137 170.812 251.449 168.467 263.761C165.954 277.078 163.023 290.395 160.929 303.712C162.101 303.21 163.19 302.791 164.111 302.456C173.66 299.106 182.873 294.834 191.667 289.809C198.116 286.04 206.157 281.768 211.266 275.905C215.37 275.152 219.558 274.398 223.745 274.649C230.865 275.068 235.974 280.512 239.491 286.207C239.91 286.877 241.083 286.207 240.58 285.537" fill="#B55929"/>
<path d="M156.49 236.875C152.553 230.426 148.114 224.312 143.089 218.616C138.064 212.837 132.452 207.477 126.422 202.703C120.978 198.348 115.282 193.992 108.163 193.239C107.493 193.239 107.158 193.49 106.907 193.909C102.133 191.145 97.1911 188.548 92.2496 186.287C86.7217 183.69 80.4401 181.848 74.4934 184.025C62.3489 188.548 58.9149 205.299 53.387 215.434C45.514 229.84 36.971 243.827 28.8467 258.149C25.9153 263.342 22.23 269.624 23.8214 275.821C25.2452 281.266 30.5218 284.113 35.0446 286.542C47.7754 293.41 61.5113 298.184 75.0797 303.126C82.3664 305.722 89.5694 308.402 96.6049 311.585C101.714 313.846 107.912 318.62 113.858 317.783C119.303 317.029 124.412 311.585 128.348 308.067C133.709 303.293 138.566 298.017 143.089 292.489C151.13 282.522 160.929 270.377 162.437 257.144C163.274 249.606 160.343 243.157 156.574 236.875" fill="white"/>
<path d="M158.081 229.924C155.652 223.893 150.626 219.454 145.099 216.271C137.979 212.084 129.939 208.985 122.233 206.137C117.962 204.546 113.607 203.373 109.167 202.452C105.566 201.698 101.964 201.028 99.0331 198.934C99.5356 199.269 103.221 194.495 103.388 193.992C98.6143 193.992 93.6727 199.185 90.9088 202.871C84.7946 210.911 82.3657 220.375 77.9267 229.17C74.0739 236.791 65.1959 239.974 57.9929 243.492C54.5589 245.167 50.6224 246.842 47.4397 249.02C45.7646 250.192 44.6758 251.532 45.5971 253.459C45.7646 253.71 46.0996 253.878 46.4346 253.878C50.8737 252.956 55.8152 251.281 60.4218 251.365C65.1121 251.365 68.6298 253.794 71.5613 257.312C73.9902 260.159 75.8328 263.509 77.5079 266.86C78.513 268.954 79.3505 271.969 81.5282 273.141C83.9571 274.481 86.1347 272.89 88.5636 272.388C93.2539 271.299 98.1118 273.058 102.635 273.895C110.424 275.403 118.548 275.403 126.421 274.063C133.875 272.806 141.413 270.294 147.862 266.273C154.06 262.504 156.573 257.06 158.164 250.192C159.756 243.576 160.677 236.456 158.164 230.007" fill="#D6D1E0"/>
<path d="M263.195 191.229C264.535 186.957 264.535 183.44 260.682 180.676C258.17 178.917 253.396 176.655 250.38 178.247C248.454 179.252 247.365 182.435 246.528 184.193C245.104 187.209 244.015 190.391 242.759 193.406C241.837 195.668 240.832 197.929 239.66 200.023C239.241 200.777 238.822 201.531 238.32 202.201C238.152 202.368 238.068 202.62 237.901 202.787C236.058 205.384 233.713 207.561 231.954 210.325C229.86 213.508 227.85 218.868 230.363 222.386C233.378 226.574 239.576 224.815 243.345 222.888C254.401 217.109 259.51 203.457 262.86 192.234C262.944 191.899 263.111 191.48 263.195 191.145" fill="#FFBF73"/>
<path d="M289.912 112.583C289.912 100.857 288.74 86.2834 279.778 77.6566C276.763 74.7252 271.235 71.2912 267.215 74.4739C263.864 77.1541 264.283 82.9332 265.372 86.5347C266.293 89.6336 267.968 92.3976 268.973 95.4128C269.057 95.664 269.141 95.9153 269.225 96.1666C269.476 97.0041 269.727 97.8417 269.895 98.6792C270.397 101.024 270.732 103.537 270.984 105.882C271.319 109.232 271.57 112.499 272.072 115.849C272.324 117.859 272.491 121.126 274.082 122.633C276.595 124.978 281.788 124.141 284.636 123.136C289.075 121.628 290.08 118.194 289.996 113.755C289.996 113.42 289.996 113.001 289.996 112.666" fill="#FFBF73"/>
<path d="M340.668 141.059C330.617 133.773 320.567 126.402 309.846 120.037C295.105 111.326 279.61 102.951 263.864 95.7477C248.202 88.5447 230.865 80.2529 213.611 78.4103C192.421 76.1489 170.058 76.2326 148.784 77.0702C144.178 77.2377 139.655 77.5727 135.048 77.9077C127.845 78.4103 120.642 78.9966 113.356 79.0803C107.995 79.1641 102.635 79.2478 97.3584 79.4991C90.9092 79.8341 84.46 80.3366 78.0946 81.3417C71.5617 82.4305 64.945 83.6031 58.5796 85.2782C53.9731 86.5345 48.3614 87.6234 44.5087 90.471C38.9808 94.5751 41.0747 101.694 47.7752 102.532C50.4553 102.867 53.2193 102.197 55.8994 102.364C59.0821 102.616 74.7444 103.537 79.4347 103.621C78.5134 111.494 78.8484 119.45 79.4347 127.323C79.6022 129.334 79.8535 131.344 79.7697 133.27C79.7697 135.867 78.9322 138.044 78.5972 140.557V140.892C74.1581 141.394 69.7191 142.567 65.5313 143.488C60.2547 144.661 54.2243 145.582 49.3665 148.095C41.996 151.948 44.76 159.904 52.298 161.077C57.7421 161.914 63.6887 161.077 69.1328 161.161C76.1683 161.244 83.2875 161.579 90.3229 161.998C101.881 162.752 113.356 164.176 124.914 164.93C124.914 165.516 124.83 166.186 124.83 166.856C124.83 167.861 126.505 168.196 126.673 167.107C126.757 166.353 127.008 165.683 127.259 165.013C128.432 165.013 129.604 165.181 130.777 165.181C131.949 165.181 132.284 163.255 131.028 163.087C130.274 163.003 129.604 162.919 128.85 162.836C133.708 158.648 144.848 161.831 150.041 163.087C157.746 165.013 165.117 167.694 172.571 170.206C188.484 175.65 204.482 180.759 220.646 185.366C230.027 188.046 237.9 188.716 246.108 189.554C249.207 189.889 252.39 190.224 255.656 190.81C258.001 191.229 260.514 191.648 263.027 192.318C263.445 192.318 263.78 192.485 264.199 192.569C270.816 194.244 278.103 197.008 285.389 200.191C286.394 200.609 287.399 201.028 288.321 201.531C297.45 205.635 306.496 210.241 314.369 213.843C317.551 215.267 326.011 220.041 328.942 216.188C330.701 213.927 329.277 209.488 328.942 206.975C328.523 203.708 327.937 200.442 327.1 197.259C331.036 194.495 334.051 190.308 336.731 186.371C340.584 180.676 344.604 174.645 346.95 168.112C352.645 168.112 362.193 167.861 363.533 163.59C364.873 159.318 346.782 145.415 340.584 140.892" fill="#FFBF73"/>
<path d="M296.612 165.432C295.774 159.904 290.582 153.958 285.64 151.613C274.249 146.168 261.854 158.983 257.498 168.364C257.163 169.034 257.749 169.62 258.336 169.452C257.833 172.468 257.414 175.567 258.336 178.498C259.425 181.848 260.848 185.031 261.77 188.465C262.105 189.721 262.524 191.061 263.026 192.318C263.445 192.318 263.78 192.485 264.199 192.569C270.815 194.244 278.102 197.008 285.389 200.191C288.32 195.584 290.163 189.638 290.582 186.12C291.168 180.759 293.178 177.158 295.272 172.468C296.277 170.206 296.947 167.777 296.612 165.265" fill="#DE8F54"/>
<path d="M311.772 167.023C310.515 166.27 309.259 165.599 307.919 165.013C308.254 164.678 308.756 164.594 309.259 164.594C309.761 164.594 310.264 164.594 310.767 164.594C311.269 164.427 311.688 163.924 311.52 163.506C311.353 163.087 310.85 162.836 310.431 162.752C308.589 162.417 306.662 163.254 305.657 164.762C304.904 165.934 304.652 167.358 304.987 168.698C305.071 169.117 305.239 169.955 305.574 170.29C305.992 170.625 306.746 170.457 306.998 169.955C306.998 169.787 306.998 169.536 306.998 169.285C306.998 168.363 306.998 167.442 306.998 166.437C308.254 167.191 309.51 168.028 310.767 168.782C311.102 168.196 311.353 167.61 311.688 167.023" fill="#DE8F54"/>
<path d="M230.111 177.074C229.357 177.074 228.604 176.153 229.357 175.65C240.916 166.688 248.035 154.544 253.311 141.143C256.243 133.689 259.342 126.151 259.593 118.11C259.761 113.168 258.588 108.394 257.415 103.62C249.542 99.4326 239.241 102.699 232.373 108.311C222.741 116.016 214.616 127.156 210.345 138.965C208.251 137.625 205.571 136.955 202.974 136.452C202.807 137.29 202.723 138.044 202.556 138.881C205.152 139.384 207.748 140.138 209.507 141.478C209.256 142.315 209.005 143.237 208.754 144.158C208.754 144.242 208.754 144.409 208.754 144.493C205.738 147.006 203.644 150.44 203.058 154.46C202.137 160.323 204.817 165.181 208.754 169.285C213.611 174.226 219.642 177.995 226.175 180.424C227.347 180.843 228.52 181.262 229.776 181.597C229.944 180.089 230.027 178.665 230.195 177.158" fill="#DE8F54"/>
<path d="M120.558 128.077C121.982 126.569 123.406 125.145 124.914 123.721C124.495 123.386 124.076 122.968 123.657 122.298C121.145 121.879 120.307 120.79 121.229 119.031C121.229 117.356 122.569 115.011 123.071 113.42C123.825 111.326 124.327 108.729 125.5 106.887C126.673 105.128 128.683 103.788 130.19 102.364C132.787 99.9349 135.132 97.3385 137.226 94.4908C140.409 90.3031 142.837 85.4452 138.566 81.1737C137.226 79.8336 135.886 79.1636 134.964 77.8235C127.761 78.326 120.558 78.9123 113.272 78.9961C107.911 79.0798 102.551 79.1636 97.2744 79.4148C96.5206 81.8437 96.0181 84.3564 96.1019 86.9528C96.1856 89.5492 97.0232 91.8106 97.6932 94.1558C98.782 98.176 97.6932 100.772 96.8557 104.541C95.7668 109.483 96.6044 114.508 98.0283 119.366C98.9496 122.633 100.038 125.899 101.043 129.166C100.792 129.417 100.708 129.836 100.96 130.171C101.211 130.422 101.462 130.757 101.713 131.008C102.216 132.683 102.802 134.358 103.389 135.95C103.64 136.704 104.645 136.536 104.645 135.782C104.645 135.28 104.645 134.693 104.645 134.191C107.241 136.62 110.173 138.546 113.272 140.138C114.947 135.615 117.124 131.511 120.475 127.909" fill="#DE8F54"/>
<path d="M257.834 174.98C258.085 174.561 266.88 167.442 266.88 167.442L277.349 179L268.806 191.145L257.918 175.064L257.834 174.98Z" fill="#FFB29E"/>
<path d="M288.321 167.861C289.661 166.772 290.75 165.348 291.42 163.925C292.09 162.501 291.755 160.742 290.498 160.072C290.75 158.983 290.666 157.81 290.247 157.057C289.745 156.135 288.823 155.8 287.902 155.884C287.902 155.716 287.902 155.465 287.902 155.298C287.651 153.79 286.143 153.12 284.803 153.288C282.709 153.455 280.364 154.293 278.186 155.465C278.186 155.465 278.102 155.465 278.019 155.549C277.432 155.884 276.846 156.219 276.26 156.638C276.511 155.884 276.595 155.046 276.344 154.209C276.344 154.125 276.344 154.041 276.344 153.958C276.344 153.958 276.344 153.874 276.344 153.79C276.092 153.204 275.422 152.785 274.752 153.036C271.402 154.544 268.136 158.313 266.042 161.328C263.864 164.595 262.943 169.369 265.288 172.803C265.455 173.054 265.623 173.138 265.79 173.138C267.047 175.818 269.392 177.744 272.072 179.419C276.427 182.016 279.526 178.749 283.463 176.572C285.724 175.315 291.587 173.054 291.587 169.201C291.587 167.861 289.409 167.777 288.404 167.694" fill="#FFB29E"/>
<path d="M286.896 155.549C285.556 155.632 284.3 156.973 283.211 157.643C281.787 158.564 280.196 159.318 278.856 160.406C278.185 160.993 278.856 161.998 279.693 161.83C281.536 161.328 283.211 160.239 284.802 159.234C285.891 158.48 287.566 157.643 287.65 156.219C287.65 155.884 287.315 155.465 286.98 155.549" fill="#E07A59"/>
<path d="M289.828 159.737C288.572 159.485 287.483 160.658 286.562 161.328C285.389 162.082 282.374 163.422 281.369 164.511C280.866 165.013 281.201 166.186 282.039 166.102C283.547 165.935 286.478 164.092 287.651 163.254C288.656 162.584 290.331 161.663 290.331 160.323C290.331 160.072 290.163 159.82 289.912 159.737" fill="#E07A59"/>
<path d="M287.315 167.61C287.399 167.61 287.232 167.61 287.148 167.61C286.98 167.61 286.813 167.777 286.562 167.861C286.143 168.028 285.724 168.28 285.305 168.447C284.468 168.866 283.379 169.117 282.709 169.787C282.123 170.374 282.541 171.379 283.379 171.462C284.468 171.462 285.724 170.792 286.729 170.29C287.148 170.039 287.567 169.871 287.902 169.536C288.32 169.117 288.32 168.782 288.32 168.28C288.32 167.777 287.734 167.358 287.315 167.693" fill="#E07A59"/>
<path d="M278.102 155.466C277.516 156.136 276.929 156.722 276.427 157.308C275.422 158.397 273.83 160.407 272.155 159.905C271.653 159.821 271.485 159.318 271.653 158.9C271.988 158.062 272.658 157.727 273.328 157.057C273.998 156.387 274.584 155.717 275.254 155.047C275.589 154.712 275.924 154.293 276.259 153.958C276.259 153.958 276.259 154.126 276.259 154.209C276.51 154.963 276.427 155.801 276.175 156.638C276.762 156.303 277.348 155.884 277.934 155.549C277.934 155.549 278.018 155.549 278.102 155.466Z" fill="#E07A59"/>
<path d="M131.195 88.126C130.274 88.461 127.175 90.8062 126.337 90.0524C125.583 89.4661 125.919 87.1209 125.751 86.2834C125.416 84.5245 124.913 82.8494 124.495 81.0905C123.992 79.1642 123.741 75.5627 121.479 74.6414C119.134 73.6363 118.381 75.3952 118.213 77.6566C117.459 76.149 116.454 74.3064 114.612 73.9713C113.104 73.7201 112.266 74.5576 112.015 75.814C110.926 75.1439 109.586 75.2277 108.749 76.9028C107.995 78.4104 108.414 80.6718 108.665 82.3469C107.66 81.1743 106.655 80.923 105.063 82.5144C103.64 83.9382 105.733 90.6387 106.571 93.4026C107.66 97.3391 108.832 99.9355 112.853 101.443C115.282 102.364 118.381 102.951 120.893 102.113C120.642 102.783 121.396 103.537 121.982 103.118C124.83 101.192 127.007 98.5117 129.352 95.999C130.693 94.4914 132.116 93.0676 133.457 91.56C134.043 90.8899 134.713 90.3037 134.713 89.4661C134.713 87.3722 132.954 87.5397 131.195 88.2098" fill="#FFB29E"/>
<path d="M119.889 81.7605C119.637 80.5879 119.637 79.3316 119.051 78.2427C118.716 77.6564 117.962 77.9077 117.711 78.4102C117.292 79.5828 117.46 81.0067 117.627 82.263C117.795 83.3518 117.795 84.7757 118.716 85.6132C119.219 86.1157 119.972 85.8645 120.224 85.1944C120.643 84.1056 120.056 82.7655 119.889 81.6767" fill="#E07A59"/>
<path d="M113.775 81.2578C113.439 79.499 113.104 77.6564 112.267 76.065C112.016 75.6462 111.346 75.73 111.178 76.2325C110.759 77.9914 111.011 79.834 111.262 81.5929C111.597 83.5192 111.848 85.6131 112.769 87.372C113.272 88.2933 114.863 87.8745 114.78 86.7857C114.696 84.9431 114.026 83.1005 113.691 81.2578" fill="#E07A59"/>
<path d="M110.006 85.6129C109.671 84.4403 109.42 83.184 108.666 82.2627C108.331 81.9277 107.828 82.1789 107.661 82.514C107.158 83.7703 107.577 85.2779 107.828 86.4505C108.079 87.7068 108.414 89.2982 109.336 90.2195C110.006 90.8058 110.843 90.3032 110.927 89.5494C111.095 88.2931 110.341 86.7855 110.006 85.6129Z" fill="#E07A59"/>
<path d="M241.418 73.7196C239.575 68.3592 236.979 61.0725 231.954 57.8898C228.185 55.4609 223.662 58.8111 220.731 61.0725C217.464 63.6689 214.533 66.0978 219.139 68.778C221.401 70.1181 223.578 70.2018 226.175 70.4531C230.53 70.8719 234.466 71.8769 238.403 73.7196C238.822 73.8871 239.24 73.8033 239.492 73.6358C239.659 73.8871 239.743 74.1383 239.91 74.3896C240.329 75.1434 241.669 74.6409 241.418 73.8033" fill="#ED8545"/>
<path d="M220.395 141.897C219.892 142.483 219.39 142.985 218.803 143.572C218.468 143.32 218.049 143.153 217.631 143.237C217.631 143.153 217.714 143.069 217.798 142.985C218.552 141.98 217.044 140.556 216.039 141.227C215.286 141.729 214.615 142.315 213.945 142.902C213.945 142.902 214.029 142.734 214.113 142.65C214.532 142.148 214.197 141.227 213.694 140.892C210.344 139.216 206.659 146.419 205.57 148.681C205.235 149.435 205.57 150.105 206.24 150.356C205.989 151.361 207.078 152.617 208.166 151.863C208.334 151.696 208.501 151.612 208.669 151.445C208.083 152.282 207.496 153.12 206.826 153.874C206.072 154.795 206.742 155.967 207.58 156.219C207.915 157.056 209.171 157.643 210.009 156.805C214.364 152.617 218.552 148.094 221.986 143.069C222.656 142.148 221.148 141.059 220.395 141.897Z" fill="#2E6163"/>
<path d="M232.456 75.9812C222.657 73.301 207.999 70.2858 200.378 76.3999C192.086 83.1004 191.667 123.722 191.667 123.722L200.126 137.374C200.126 137.374 202.388 139.887 206.575 143.907C210.596 147.843 215.286 151.361 220.814 152.617C228.352 154.292 234.382 151.11 239.073 146.001C239.575 145.414 240.078 144.828 240.58 144.242C240.58 144.242 240.58 144.242 240.664 144.158C244.098 139.803 246.694 134.442 248.369 129.668C250.212 124.476 256.912 118.78 257.918 110.237C259.76 94.4073 251.301 81.174 232.456 75.9812Z" fill="#FFB29E"/>
<path d="M241.334 138.798C242.423 136.955 243.93 135.28 245.186 133.521C245.438 133.186 245.773 133.102 246.108 133.102C246.108 132.097 246.192 131.176 246.275 130.171C246.275 129.166 247.95 128.915 247.95 129.92C248.202 133.856 248.453 137.039 248.118 138.211C247.448 140.724 245.019 141.227 242.674 141.143C241.501 141.143 240.496 139.887 241.166 138.714" fill="#FFB29E"/>
<path d="M245.187 126.988C244.936 126.234 244.015 125.983 243.345 125.815C242.675 125.564 242.423 125.397 242.088 124.726C241.753 124.056 241.502 123.386 240.748 123.051C240.33 122.884 239.827 122.884 239.576 123.386C238.822 124.643 239.576 126.402 240.497 127.323C241.418 128.16 243.345 128.998 244.601 128.328C245.02 128.077 245.271 127.574 245.104 127.072" fill="#0F0F24"/>
<path d="M251.301 117.859C251.134 117.189 250.715 116.519 250.212 116.016C249.123 115.011 247.532 114.592 246.025 114.425C245.187 114.425 244.349 114.341 243.512 114.425C243.177 114.425 242.758 114.425 242.423 114.676C239.408 116.686 245.522 118.948 246.36 119.534C247.197 120.12 247.951 121.125 249.04 121.125C249.794 121.125 250.464 120.707 250.882 120.12C251.301 119.45 251.385 118.613 251.217 117.859" fill="#473663"/>
<path d="M268.22 107.474C267.969 106.72 267.383 106.133 267.048 105.463C266.294 103.956 266.545 102.448 266.043 100.857C265.373 98.8467 263.949 97.2554 262.19 96.1666C259.342 94.324 254.401 92.9839 250.799 94.1564C250.632 93.9889 250.464 93.9052 250.129 93.9889C243.931 94.994 241 101.359 234.802 102.281C232.457 102.616 227.599 104.626 230.614 107.725C231.787 108.981 233.294 108.562 234.802 108.395C235.556 108.06 236.309 107.892 237.147 107.976C237.733 107.976 238.403 108.144 238.906 108.479C239.157 108.646 239.492 108.814 239.743 108.981C240.748 109.484 241.921 109.567 243.01 109.484C243.261 109.484 244.015 109.232 244.769 109.149C245.439 108.981 246.025 108.897 246.109 108.981C247.616 110.573 250.464 110.74 252.726 110.237C253.647 110.07 254.401 109.651 255.238 109.232C255.238 110.07 255.238 110.908 255.406 111.745C255.573 113.504 255.741 115.012 255.322 116.687C255.071 117.692 254.736 118.027 255.071 118.948C255.322 119.534 255.657 119.869 256.327 119.869C258.505 120.037 260.012 118.278 260.934 116.1C261.269 117.357 262.106 118.194 263.53 118.194C267.885 118.278 269.477 110.489 268.388 107.39" fill="#473663"/>
<path d="M252.809 83.4354C248.453 76.4 242.423 72.2959 234.801 69.1132C225.588 65.2605 215.454 63.5016 205.654 65.6793C205.236 65.763 204.817 65.8468 204.398 66.0143C201.969 66.6006 199.54 67.5219 197.111 68.6945C189.49 72.2959 182.203 78.2426 178.266 84.7755C177.01 86.8694 175.921 89.047 175 91.3084C172.236 98.0089 171.482 104.877 172.236 112.08C172.571 115.011 172.739 120.455 172.822 124.224C172.822 125.648 172.822 126.904 172.906 127.658V127.993C172.906 128.328 172.906 128.58 172.906 128.58C172.906 128.58 169.807 132.181 171.063 135.364C171.231 135.866 171.817 136.034 172.236 135.95C173.157 138.128 174.581 140.054 176.508 141.645C180.528 144.996 188.066 145.749 192.672 148.178C199.54 151.864 209.507 162.166 217.715 156.303C217.967 156.721 218.134 157.14 218.385 157.475C218.972 158.397 220.228 156.721 220.228 156.721L214.03 151.612L209.926 148.262C209.926 148.262 208.837 144.577 212.941 131.762C214.951 125.481 218.72 120.539 223.997 116.77C228.52 113.504 237.063 104.374 241.251 100.689C246.527 95.915 249.207 95.1612 254.233 94.3236C255.74 94.1561 257.499 94.1561 257.499 94.1561C257.499 94.1561 257.499 90.8897 252.892 83.4354" fill="#4A8F91"/>
<path d="M211.601 64.7576C211.601 64.7576 207.246 61.7424 203.979 60.2348C201.802 59.2297 199.038 57.7221 196.609 58.0571C192.002 58.8109 189.406 65.9302 188.987 69.7829C188.652 72.7143 188.568 77.6559 188.568 77.6559C188.568 77.6559 192.84 73.4681 197.446 70.2017C200.797 67.7728 204.566 66.0977 205.487 65.5951L211.685 64.7576H211.601Z" fill="#ED8545"/>
<path d="M175.753 99.0143C176.423 99.7681 177.177 99.2656 177.68 98.5955C179.187 96.5017 179.187 93.0677 180.36 90.7225C181.7 88.0424 183.961 85.8647 185.218 83.1008C185.804 81.8444 186.474 80.5881 187.144 79.3318C187.563 78.4942 188.735 77.4892 187.814 77.7404C184.799 78.4105 180.025 79.248 177.093 80.1693C175.083 80.8394 172.487 81.5094 170.896 82.9333C167.043 86.451 171.649 92.0626 173.576 95.4128C174.329 96.7529 175 98.1768 175.753 99.0143Z" fill="#ED8545"/>
<path d="M280.28 180.759C280.029 180.006 279.778 179.252 279.359 178.582C278.019 176.069 275.841 173.64 273.999 171.881C270.983 169.117 267.466 166.689 263.613 165.265C260.263 164.008 259.174 165.767 256.578 168.029C254.065 170.29 251.552 172.635 249.291 175.232C248.956 175.65 248.621 175.985 248.286 176.404C247.783 175.985 247.364 175.483 246.946 175.064C246.778 174.897 246.611 174.729 246.443 174.562C242.423 170.206 230.781 161.077 225.672 158.062C221.065 155.382 217.212 153.288 213.946 151.613C206.24 147.592 201.801 145.75 199.624 143.991C196.441 141.227 193.007 138.965 190.076 135.95C187.647 133.521 185.469 130.757 182.454 129.082C181.03 128.245 178.685 128.245 177.01 128.329C175.921 128.412 175.083 128.58 175.083 128.58C175.083 128.58 174.246 128.245 172.822 127.658C172.655 127.658 172.487 127.491 172.236 127.491C167.797 125.732 159.002 122.717 152.218 122.717C145.434 122.717 139.487 123.471 132.787 124.56C132.368 124.56 131.949 124.727 131.531 124.811C131.447 124.811 131.279 124.811 131.196 124.811C131.196 124.057 131.363 123.387 131.447 122.717C131.698 120.204 131.949 117.692 131.531 115.263C131.112 112.834 129.856 110.572 129.437 108.143C128.934 104.877 131.196 100.522 128.013 98.6791C125.752 97.339 122.066 97.004 119.554 96.669C114.109 95.9989 107.074 96.1664 103.305 100.857C102.049 102.364 101.714 104.291 101.63 106.217C101.379 109.484 101.127 111.661 99.7873 114.76C97.6934 119.534 97.0234 124.56 96.3534 129.752C95.2645 138.128 95.432 147.341 100.122 154.628C100.625 155.382 101.127 156.052 101.714 156.805C104.394 159.988 107.577 161.914 111.764 162.249C113.858 162.417 115.952 162.668 118.13 162.836C110.173 170.457 104.059 180.341 98.3635 189.637C92.1656 199.772 88.8154 212.251 93.4219 223.726C98.531 236.457 111.932 236.541 122.066 243.492C127.092 246.926 130.693 252.789 136.807 254.297C140.492 255.218 143.508 256.139 146.774 258.149C146.858 258.149 147.025 258.317 147.193 258.401C147.193 258.401 147.193 258.401 147.109 258.484C146.523 258.987 145.937 259.49 145.35 259.992C144.848 260.327 144.429 260.746 144.01 261.081C141.581 263.091 138.901 264.766 136.472 266.776C136.137 267.028 135.802 267.363 135.551 267.614C132.201 270.713 135.132 278.67 137.812 282.355C140.911 286.626 143.34 292.154 147.863 294.918C149.287 295.756 150.711 296.007 152.134 295.756C155.736 295.337 159.421 292.657 162.939 291.568C171.985 288.72 180.193 283.527 188.317 278.67C195.604 274.398 203.477 268.703 205.403 259.908C207.916 248.853 198.535 237.713 191.667 230.259C190.662 229.17 189.406 227.495 187.982 226.071C189.573 224.312 191.165 222.47 192.672 220.543C194.347 218.366 196.022 216.188 197.53 214.094C199.708 211.246 201.801 208.315 203.728 205.216C203.728 205.216 203.728 205.216 203.728 205.132C204.147 204.462 204.565 203.708 204.984 202.955C206.073 203.457 207.078 204.043 208.167 204.546C212.02 206.472 215.872 208.399 219.725 210.241C224.667 212.503 229.943 214.094 235.22 215.434C240.245 216.691 245.271 218.449 250.296 216.439C259.174 212.838 266.293 204.63 271.737 197.092C274.752 192.904 281.872 186.539 280.113 180.759" fill="#4A8F91"/>
<path d="M167.043 135.113C167.043 134.945 166.875 134.778 166.624 134.694C163.525 134.359 160.426 134.527 157.411 134.694C155.233 134.694 152.721 134.527 151.045 136.202C149.705 137.542 149.454 139.468 149.203 141.227C148.952 143.488 148.784 145.75 148.7 148.095C148.7 148.933 147.863 153.372 149.622 153.037C150.04 153.037 150.292 152.702 150.627 152.45C153.474 149.77 156.071 146.922 158.751 144.159C161.515 141.478 164.614 138.966 167.043 135.95C167.21 135.699 167.21 135.448 167.043 135.28" fill="#ED8545"/>
<path d="M141.665 159.737C137.561 159.737 130.442 159.988 127.594 163.422C125.919 165.432 126.505 168.112 126.589 170.458C126.589 173.305 125.835 176.32 126.589 179.084C126.84 180.173 127.929 179.252 128.264 178.749C130.358 175.483 132.787 172.384 135.3 169.369C137.645 166.521 140.409 163.925 142.419 160.993C142.838 160.407 142.251 159.737 141.665 159.737Z" fill="#ED8545"/>
<path d="M119.805 186.706C119.051 187.208 108.665 190.056 106.99 192.82C104.896 196.421 107.157 201.865 108.833 205.216C109.084 205.718 109.838 206.891 110.089 206.472C113.523 200.19 117.376 194.076 120.977 187.794C121.396 187.124 120.558 186.203 119.805 186.622" fill="#ED8545"/>
<path d="M140.241 234.028C138.817 236.289 137.393 238.551 135.969 240.812C131.949 233.693 125.751 227.579 119.47 222.637C115.198 219.287 110.675 216.188 105.901 213.508C102.802 211.749 100.541 210.744 99.5358 206.975C99.0332 205.132 99.117 203.792 97.6931 202.452C98.9495 200.693 100.206 198.934 101.546 197.092C101.965 196.505 99.5358 187.795 99.2008 188.297C88.6476 205.886 85.4649 219.622 82.1147 233.441C80.272 241.063 71.4777 260.913 70.8914 263.928C70.0539 268.535 68.965 272.22 66.7874 276.408C64.6935 280.261 63.7722 283.946 65.0285 287.631C65.4473 288.804 66.1174 289.976 66.9549 291.233C70.7239 296.342 75.4142 296.761 81.1096 298.938C85.4649 300.53 93.6729 304.717 98.1119 301.451C98.3632 301.283 98.5307 301.116 98.782 300.865C100.457 299.273 101.63 296.928 102.886 295.002C105.315 291.4 107.828 287.799 110.34 284.197C114.779 277.748 119.386 271.299 123.825 264.766C126.673 260.578 129.52 256.307 132.2 252.035C133.54 249.941 134.797 247.847 136.053 245.753C136.472 246.591 136.974 247.345 137.393 248.182C137.812 249.02 139.236 248.434 138.985 247.512C138.566 246.172 137.98 244.832 137.393 243.576C138.985 240.812 140.66 237.964 142.167 235.117C142.837 233.86 141.078 232.855 140.325 234.028" fill="#4A8F91"/>
<path d="M170.058 131.097C161.013 137.379 153.81 146.424 146.439 154.465C138.566 162.924 131.112 171.467 124.16 180.68C113.607 194.751 96.6884 216.612 108.163 234.87C108.749 235.792 110.173 234.954 109.67 234.033C104.561 223.982 106.236 213.094 111.597 203.462C116.622 194.416 122.988 185.538 129.688 177.498C136.053 169.876 142.168 161.919 148.952 154.633C156.071 147.011 164.447 140.31 170.979 132.186C171.398 131.683 170.812 130.678 170.142 131.097" fill="#2E6163"/>
<path d="M240.579 144.241C240.077 144.828 239.658 145.414 239.072 146C238.486 145.498 237.983 144.828 237.564 144.158C236.81 142.985 235.47 140.054 236.727 138.881C236.894 138.797 236.978 138.714 237.145 138.797C238.067 139.132 238.15 140.054 238.486 140.975C238.988 142.148 239.574 143.32 240.579 144.158" fill="#E07A59"/>
<path d="M144.513 135.28C144.513 135.28 131.949 150.775 128.85 153.036C125.751 155.381 118.213 162.752 118.213 162.752C116.036 162.584 113.858 162.417 111.848 162.165C107.66 161.747 104.478 159.904 101.797 156.721C101.211 156.051 100.709 155.298 100.206 154.544C101.714 153.79 103.64 152.952 106.32 152.031C116.622 148.597 117.962 148.765 122.401 144.409C126.84 140.054 135.551 134.275 138.064 133.94C140.576 133.689 144.513 135.196 144.513 135.196" fill="#2E6163"/>
<path d="M132.787 124.475C130.525 126.234 127.091 126.486 124.411 127.239C120.558 128.328 117.794 132.6 113.607 132.432C113.104 132.432 113.02 131.846 113.355 131.595C116.203 129.417 118.632 126.653 121.982 125.397C124.83 124.308 128.18 123.387 131.279 122.633C131.279 123.303 131.111 124.057 131.028 124.727C131.111 124.727 131.279 124.727 131.363 124.727C131.782 124.727 132.2 124.559 132.619 124.475" fill="#2E6163"/>
<path d="M192.253 143.404C189.908 140.222 185.134 140.222 182.202 137.458C179.02 134.359 176.004 131.009 172.738 127.91C172.57 127.742 172.403 127.575 172.235 127.323C172.403 127.323 172.57 127.491 172.738 127.491C172.738 126.737 172.738 125.481 172.654 124.057C173.994 125.481 175.418 126.821 176.926 128.161C177.009 128.245 177.177 128.412 177.261 128.496C180.611 131.427 182.956 135.448 186.893 137.709C189.405 139.133 191.834 140.054 193.174 142.734C193.509 143.488 192.588 143.991 192.169 143.321" fill="#2E6163"/>
<path d="M211.768 111.159C207.664 115.849 206.492 121.963 205.487 127.993C204.565 133.94 203.56 140.054 206.073 145.833C206.408 146.587 207.413 146.001 207.329 145.331C205.403 134.945 207.329 121.293 213.36 112.499C214.03 111.577 212.522 110.405 211.768 111.242" fill="#2E6163"/>
<path d="M254.483 188.046C254.483 188.8 253.394 189.218 252.975 188.465C251.719 186.036 251.468 183.188 250.212 180.759C250.212 180.675 250.128 180.508 250.044 180.424C250.379 184.528 249.96 188.716 248.62 192.15C248.285 192.987 246.861 192.987 246.861 191.899C246.861 187.962 247.615 184.109 247.364 180.173C247.364 178.414 247.113 176.739 246.861 175.064C247.28 175.482 247.783 175.985 248.201 176.404C248.536 175.985 248.871 175.65 249.206 175.231C249.29 175.65 249.374 176.069 249.458 176.488C250.463 178.246 251.97 179.838 252.808 181.68C253.646 183.607 254.483 185.868 254.399 188.046" fill="#2E6163"/>
<path d="M191.751 220.041C188.066 218.114 185.051 215.937 181.03 214.764C179.271 214.261 177.931 212.754 176.34 211.833C175.837 211.581 175.335 212.168 175.754 212.67C179.355 217.109 188.066 226.071 188.066 226.071C189.657 224.312 191.248 222.47 192.756 220.543C192.421 220.376 192.17 220.208 191.835 220.041" fill="#2E6163"/>
<path d="M119.721 243.66C112.936 239.556 108.497 233.106 103.64 226.992C102.886 225.987 101.629 227.244 102.048 228.249C103.723 232.101 105.231 236.289 107.827 239.639C108.916 240.979 110.256 242.068 111.429 243.325C113.188 245.335 113.69 247.764 114.36 250.276C115.365 253.794 116.957 256.055 119.386 258.736C121.144 260.578 122.233 262.84 123.741 264.85C126.589 260.662 129.436 256.39 132.116 252.119C132.116 252.119 124.997 246.926 119.637 243.743" fill="#2E6163"/>
<path d="M170.393 273.058C168.215 271.131 165.702 270.21 163.274 268.703C162.436 268.2 161.598 267.614 160.761 267.111C162.771 269.624 164.279 272.555 164.53 275.57C164.53 276.408 163.441 276.576 163.022 275.989C161.766 273.979 161.263 271.718 160.091 269.708C159.002 267.949 157.494 266.441 156.406 264.682C156.071 264.515 155.736 264.347 155.317 264.18C151.799 262.84 148.533 261.751 145.434 259.908C146.02 259.406 146.606 258.903 147.192 258.401C151.799 259.992 156.573 261.5 160.677 263.928C163.357 265.52 165.954 267.195 168.718 268.703C170.393 269.624 171.314 270.461 171.984 272.22C172.319 273.058 171.147 273.56 170.56 273.058" fill="#2E6163"/>
<path d="M205.067 202.954C204.649 203.708 204.23 204.378 203.811 205.048C203.56 204.881 203.225 204.713 202.89 204.546C200.712 203.457 198.367 202.703 196.441 201.112C196.106 200.777 196.441 200.19 196.776 200.19C199.456 200.19 202.136 201.363 204.481 202.619C204.649 202.703 204.9 202.787 205.067 202.954Z" fill="#2E6163"/>
<path d="M255.572 98.0089C255.237 97.5901 254.484 98.0089 254.484 98.4277C254.484 100.019 254.819 101.527 254.819 103.034C254.819 104.626 254.232 106.133 254.232 107.725C254.232 108.562 255.321 109.148 255.908 108.395C258.085 105.798 257.666 100.438 255.489 97.9252" fill="#0F0F24"/>
<path d="M248.034 96.25C245.27 96.8363 242.422 95.915 239.742 97.0876C237.397 98.0926 235.722 99.6002 233.126 100.354C230.613 101.024 225.923 104.291 228.687 107.389C229.608 108.395 232.121 108.813 233.293 108.813C235.89 108.813 238.151 106.887 240.664 106.384C245.019 105.463 247.867 102.783 248.285 98.1764C248.285 98.0926 248.285 98.0089 248.285 97.9251C248.369 97.9251 248.537 97.8414 248.62 97.7576C249.29 97.2551 248.872 96.1663 248.034 96.4175" fill="#473663"/>
<path d="M253.395 97.339C253.562 100.857 250.882 103.202 248.034 104.793C247.029 106.301 246.024 107.892 244.684 109.149C243.93 109.316 243.093 109.484 242.925 109.484C241.837 109.567 240.664 109.484 239.659 108.981C239.408 108.813 239.073 108.646 238.821 108.478C238.235 108.143 237.649 107.976 237.062 107.976C238.486 107.557 239.743 106.887 241.083 105.882C242.172 105.044 243.26 104.123 244.6 103.537C246.527 102.699 248.034 102.448 249.626 100.857C250.798 99.7679 251.803 98.4278 252.809 97.1715C253.06 96.9202 253.395 97.1715 253.395 97.4227" fill="#0F0F24"/>
<path d="M97.4424 298.938C97.2749 298.771 97.1074 298.519 96.8561 298.352C96.5211 297.933 96.1023 297.598 95.6835 297.263C95.2648 296.928 94.846 296.593 94.511 296.342C91.1608 293.662 87.1405 291.819 82.9527 290.981C82.0314 290.814 81.1939 290.646 80.2725 290.563C78.9325 290.395 77.5924 290.228 76.2523 289.976C76.001 289.976 75.7497 289.893 75.5822 289.809C73.1533 289.139 70.8919 287.547 68.2955 287.296C66.8717 287.129 65.6991 287.296 64.9453 287.799C65.3641 288.971 66.0341 290.144 66.8717 291.4C68.463 293.494 70.1381 294.75 71.9808 295.756C72.4833 296.007 72.9858 296.258 73.4884 296.426C75.7497 297.431 78.2624 298.017 81.0263 299.022C85.3816 300.613 93.5897 304.801 98.0287 301.535C98.28 301.367 98.4475 301.2 98.6987 301.032C98.4475 300.278 97.9449 299.692 97.4424 299.022" fill="#0F0F24"/>
<path d="M152.218 292.154C151.38 287.883 146.69 282.522 144.177 279.172C144.177 279.172 144.177 279.088 144.094 279.005C143.591 278.335 143.088 277.497 142.753 276.743C142.586 276.492 142.502 276.241 142.418 275.989C141.078 273.226 140.157 270.294 138.231 268.2C137.728 267.614 137.142 267.195 136.556 266.86C136.221 267.111 135.886 267.446 135.634 267.698C133.038 270.043 134.127 275.152 135.969 279.088C136.137 279.423 136.304 279.675 136.472 280.01C136.974 280.931 137.393 281.769 137.896 282.439C140.995 286.71 143.423 292.238 147.946 295.002C149.37 295.839 150.794 296.091 152.218 295.839C152.553 294.834 152.72 293.578 152.385 292.154" fill="#0F0F24"/>
<path d="M175.502 110.572C175.502 109.818 175.586 109.064 175.67 108.311C175.921 106.552 175.753 101.778 175.753 101.778C175.753 101.778 169.639 107.054 167.88 109.316C166.373 111.242 164.028 114.006 164.195 116.602C164.363 119.115 167.378 121.293 169.137 122.633C170.309 123.554 171.482 124.308 172.738 125.062C173.743 125.648 175.251 127.072 175.586 125.062C176.005 122.549 175.586 119.953 175.586 117.44C175.502 115.178 175.418 112.833 175.586 110.488" fill="#ED8545"/>
<path d="M204.314 65.9307C201.885 66.517 199.457 67.4383 197.028 68.6109C189.322 73.9713 183.459 81.6768 179.355 90.4711C174.079 101.527 171.147 116.351 174.916 128.496C174.916 128.496 174.916 128.496 175 128.58C175.67 129.501 176.759 130.004 177.764 130.506C176.926 124.057 175.754 117.859 176.34 111.242C176.926 104.291 178.936 97.339 181.952 90.9736C184.716 85.1945 188.233 79.8341 192.589 75.0601C196.358 70.8723 200.88 68.1084 205.738 65.512C205.319 65.5957 204.901 65.6795 204.482 65.847" fill="#2E6163"/>
<path d="M94.3431 332.189C94.2594 334.451 92.4168 335.875 90.2391 336.377C90.2391 336.377 90.1554 336.377 90.0716 336.377C86.3864 337.131 83.79 335.875 80.4398 334.2C76.5033 332.106 76.6708 329.342 75.6657 325.405C75.0794 323.06 74.5769 320.631 73.5718 318.37C72.818 316.611 72.148 315.438 71.4779 314.098C70.9754 313.093 70.4729 312.088 69.9703 310.748C69.049 308.152 68.9653 305.304 69.8028 302.624C70.7241 299.692 72.818 298.604 75.4144 297.263C76.922 296.51 78.9322 291.903 80.2722 290.479C81.1935 290.563 82.1149 290.731 82.9524 290.898C87.1402 291.736 91.1604 293.578 94.5107 296.258C94.8457 296.51 95.2645 296.845 95.6832 297.18C96.102 297.515 96.5208 297.85 96.8558 298.268C97.0233 298.436 97.1908 298.687 97.4421 298.855C97.9446 299.441 98.4472 300.111 98.6984 300.865C98.4472 301.367 95.0132 308.654 94.2594 310.832C93.5056 313.093 94.4269 328.588 94.2594 332.022" fill="#FFB29E"/>
<path d="M152.051 295.756C152.051 295.756 146.188 297.598 144.68 299.441C143.172 301.367 136.053 312.507 134.713 314.768C133.373 317.03 131.614 318.621 129.855 318.872C129.018 319.04 128.097 318.872 127.259 318.37C126.756 318.119 126.254 317.616 125.751 317.113C123.071 314.098 124.328 310.497 124.16 306.895C123.992 304.383 123.741 301.954 123.49 299.441C123.322 297.766 123.071 296.175 122.904 294.751C122.82 294.081 122.736 293.411 122.652 292.741C122.485 290.982 122.317 289.055 122.652 287.38C123.071 284.449 124.495 281.936 128.264 281.182C130.19 280.764 133.708 279.759 135.886 278.837C136.053 278.837 136.221 278.753 136.388 278.67C138.231 277.832 140.66 276.743 142.419 275.822C142.502 276.073 142.67 276.325 142.754 276.576C143.089 277.33 143.591 278.167 144.094 278.837C144.094 278.837 144.094 279.005 144.178 279.005C146.69 282.355 151.381 287.799 152.218 291.987C152.553 293.411 152.386 294.667 152.051 295.672" fill="#FFB29E"/>
<path d="M90.0718 300.697C89.8205 300.194 88.8155 300.278 88.7317 300.864C88.5642 301.953 87.9779 303.126 87.3078 304.047C86.6378 304.885 85.4652 305.471 85.2977 306.56C85.214 307.23 85.549 307.9 86.3028 307.9C87.8104 307.9 89.0667 306.141 89.7367 304.968C90.5743 303.545 90.6581 302.121 89.988 300.697" fill="#E07A59"/>
<path d="M88.3131 334.45C87.7269 333.529 87.2243 332.44 87.0568 331.352C86.9731 329.844 86.3868 329.425 85.633 328.253C84.0416 325.991 83.7066 324.735 83.2878 322.306C83.0365 320.798 82.9528 320.296 81.7802 319.291C78.8488 316.611 74.7447 316.276 71.3945 314.182C72.0646 315.438 72.7346 316.694 73.4884 318.453C74.4097 320.715 74.996 323.143 75.5823 325.489C76.5874 329.425 76.4199 332.189 80.3564 334.283C83.7066 335.958 86.303 337.214 89.9883 336.461C89.3182 335.791 88.7319 335.204 88.3131 334.534" fill="#E07A59"/>
<path d="M141.665 286.458C140.912 288.133 138.65 289.725 136.891 290.227C136.389 290.395 136.054 290.814 136.054 291.4C136.054 291.484 136.054 291.651 136.054 291.735C136.137 292.405 136.975 292.656 137.561 292.573C138.901 292.321 140.409 291.232 141.33 290.311C142.335 289.306 142.754 288.217 142.754 286.793C142.754 286.291 142 285.956 141.749 286.542" fill="#E07A59"/>
<path d="M129.939 318.956C129.102 319.123 128.18 318.956 127.343 318.453C128.348 316.359 129.102 313.763 130.693 312.255C130.944 312.004 131.363 312.088 131.447 312.423C131.949 314.349 131.028 316.778 129.939 318.872" fill="#E07A59"/>
<path d="M285.305 107.306C281.536 104.709 277.683 102.448 273.579 100.438C272.323 99.8516 271.066 99.1816 269.81 98.5953C269.642 97.7578 269.391 96.9202 269.14 96.0827C269.14 95.8314 268.972 95.5801 268.889 95.3289C275.338 97.674 281.871 101.192 286.729 105.296C287.817 106.217 286.394 108.06 285.221 107.222" fill="#DE8F54"/>
<path d="M311.186 183.439C311.186 185.198 310.014 187.041 307.836 187.125C305.24 187.125 303.146 184.528 304.318 182.016C304.821 180.927 305.826 180.173 306.998 180.089C307.585 180.089 308.171 180.089 308.757 180.34C309.176 180.508 309.595 180.759 310.014 181.01C310.767 181.597 311.186 182.518 311.186 183.439Z" fill="#0F0F24"/>
<path d="M311.186 183.44C309.929 183.691 308.505 183.607 308.338 182.016C308.338 181.513 308.422 180.843 308.757 180.341C309.175 180.508 309.594 180.76 310.013 181.011C310.767 181.597 311.186 182.518 311.186 183.44Z" fill="white"/>
<path d="M328.104 157.14C328.104 158.899 326.932 160.742 324.754 160.742C322.157 160.742 320.064 158.145 321.236 155.633C321.739 154.544 322.744 153.79 323.916 153.706C324.503 153.706 325.173 153.706 325.843 154.041C326.262 154.209 326.597 154.376 326.932 154.628C327.685 155.214 328.104 156.135 328.104 157.14Z" fill="#0F0F24"/>
<path d="M328.104 157.14C326.848 157.391 325.591 157.14 325.424 155.716C325.424 155.214 325.508 154.627 325.843 154.041C326.261 154.209 326.596 154.376 326.931 154.627C327.685 155.214 328.104 156.135 328.104 157.14Z" fill="white"/>
<path d="M315.206 164.762C315.039 164.762 314.871 164.762 314.788 164.762C313.28 164.846 311.689 165.348 310.684 166.521C310.097 167.191 309.762 168.112 309.595 169.034C309.427 170.039 309.26 173.724 311.27 173.054C311.856 172.886 312.191 172.384 312.526 171.881C313.699 170.29 314.871 168.615 315.793 166.856C316.128 166.27 316.379 165.432 315.793 164.929C315.625 164.762 315.374 164.678 315.123 164.678" fill="#B8634D"/>
<path d="M358.425 160.574C358.425 160.407 358.341 160.239 358.257 160.072C357.503 158.313 356.331 156.805 354.823 155.633C354.321 155.214 353.734 154.879 353.064 154.963C351.808 155.214 350.97 157.14 350.384 158.145C349.63 159.485 348.96 160.909 348.541 162.417C348.374 162.919 348.29 163.422 348.541 163.841C348.793 164.176 349.295 164.259 349.714 164.343C352.059 164.511 354.404 164.343 356.666 163.589C357.252 163.422 357.922 163.171 358.257 162.668C358.676 162.082 358.592 161.244 358.341 160.574" fill="#DE8F54"/>
<path d="M324.67 204.043C324.67 203.876 324.586 203.792 324.502 203.625C324.251 203.038 324 202.368 323.497 201.949C321.822 200.358 319.812 202.619 318.723 203.792C317.718 204.797 316.797 205.886 316.043 207.058C315.541 207.812 315.122 208.734 315.541 209.487C315.792 209.906 316.294 210.241 316.713 210.409C318.723 211.414 320.901 212.084 323.162 212.503C323.749 212.586 324.335 212.67 324.837 212.503C325.759 212.084 326.01 210.911 326.01 209.906C326.01 207.896 325.34 205.886 324.586 204.043" fill="#DE8F54"/>
<path d="M277.265 320.715C276.763 321.385 276.093 321.971 275.172 322.473C273.999 320.882 273.161 320.128 270.565 319.626C267.131 318.872 264.618 319.961 261.184 320.463C250.212 321.803 239.324 318.704 228.604 317.113C215.956 315.27 203.226 315.019 190.495 315.27C180.612 315.438 170.393 315.27 160.427 316.778C160.259 316.108 160.092 315.354 160.008 314.684C170.645 312.171 182.454 312.842 193.007 312.674C206.241 312.506 219.474 312.925 232.54 315.103C239.408 316.275 246.192 317.867 253.144 318.118C256.745 318.286 260.347 318.118 263.948 317.281C265.707 316.946 267.466 316.192 269.309 316.108C268.639 306.727 269.476 297.179 269.727 287.799C269.979 278.334 270.23 268.87 270.565 259.406C270.816 250.025 271.068 240.644 270.9 231.264C270.9 229.002 270.9 226.071 270.9 222.972C271.654 223.307 272.324 223.726 272.994 224.228C273.58 233.023 273.245 241.901 273.078 250.611C272.826 261.499 272.491 272.471 272.156 283.36C271.821 294.164 272.156 305.304 270.816 316.108C271.068 316.108 271.403 316.108 271.654 316.275C273.831 316.862 275.674 318.621 277.182 320.715" fill="#B55929"/>
<path d="M235.974 245C226.928 243.074 214.868 245.503 207.916 251.701C206.911 252.622 208.167 253.962 209.256 253.46C213.528 251.617 217.38 249.356 221.987 248.267C226.51 247.178 231.032 247.178 235.639 247.178C236.895 247.178 237.23 245.252 235.974 244.917" fill="#B55929"/>
</svg>
