<svg width="48" height="46" viewBox="0 0 48 46" fill="none" xmlns="http://www.w3.org/2000/svg">
<path d="M32.1496 6.48166C33.0096 6.03395 34.0918 6.3275 34.5667 7.13596C35.0426 7.94639 34.7306 8.96634 33.8706 9.41405C33.0117 9.86176 31.9294 9.56824 31.4545 8.75979C30.9786 7.94837 31.2896 6.92938 32.1496 6.48166ZM33.8414 35.4368C45.4541 29.3872 47.5153 21.4341 47.0571 15.5674C46.7711 11.9116 44.9374 8.55815 42.0977 6.23953L43.8343 1.78414L40.9403 3.31507L39.9551 0.496338L37.6872 3.80924C37.538 3.75883 34.8151 2.41963 31.9534 3.69161C29.1168 4.95568 27.8373 6.82858 27.2361 8.47316C26.5035 10.4785 25.6623 12.4443 24.7136 14.3547C17.2025 14.3369 9.50034 13.0264 1.60931 10.438C0.911106 18.6075 6.52385 25.8806 14.6007 28.0055C14.5923 28.0134 14.5829 28.0233 14.5746 28.0302L13.9765 28.5768L13.9745 28.5787L0 41.3618C5.14102 40.1017 6.49776 41.433 7.03211 45.582H7.23666L11.1003 35.8321C18.0405 39.1272 26.5275 39.2468 33.8414 35.4368Z" fill="white"/>
<path d="M9.81479 11.2221C14.5404 12.2708 19.1962 12.844 23.76 12.9251C24.3413 11.7035 24.8757 10.4315 25.3819 9.12987C20.2262 7.48924 15.1259 5.20126 10.0809 2.26196C9.09154 5.2823 9.06858 8.35895 9.81479 11.2221Z" fill="white"/>
</svg>
