<svg width="38" height="43" viewBox="0 0 38 43" fill="none" xmlns="http://www.w3.org/2000/svg">
<path d="M18.8045 30.8274C17.6794 30.8274 17.0898 30.3095 17.0355 29.2757H13.6186C13.7271 30.6544 14.2427 31.6961 15.1642 32.3979C16.0461 33.0492 17.2317 33.3753 18.7231 33.3753C20.4044 33.3753 21.7403 32.979 22.7296 32.1874C23.7879 31.3324 24.316 30.1316 24.316 28.5858C24.316 27.2446 23.909 26.1654 23.096 25.348C22.283 24.5307 21.1777 24.1215 19.7813 24.1215C18.5874 24.1215 17.6867 24.4219 17.0762 25.0219L17.4425 22.4354H23.8077V19.8113H15.0828L14.107 27.2447L17.1774 27.3791C17.5709 26.8296 18.1543 26.5548 18.9266 26.5548C19.5507 26.5548 20.0182 26.7732 20.3303 27.2091C20.6152 27.5945 20.7571 28.1015 20.7571 28.7291C20.7571 30.1286 20.1059 30.8274 18.8045 30.8274ZM26.6746 6.81759C27.2142 6.81759 27.6525 6.40446 27.6525 5.89646L27.8195 0.921135C27.8195 0.412138 27.2142 0 26.6746 0C26.1351 0 25.5308 0.412138 25.5308 0.921135L25.6978 5.89646C25.6978 6.40446 26.1351 6.81759 26.6746 6.81759ZM36.9577 2.58056H29.0155V4.49004C29.3474 4.93084 29.5426 5.4685 29.5426 6.04965C29.5426 7.54204 28.2589 8.75178 26.6746 8.75178C25.0914 8.75178 23.8067 7.54204 23.8067 6.04965C23.8067 5.4685 24.0029 4.93084 24.3337 4.49004V2.58056H13.5674V4.49004C13.8993 4.93084 14.0955 5.4685 14.0955 6.04965C14.0955 7.54204 12.8108 8.75178 11.2276 8.75178C9.64332 8.75178 8.35963 7.54204 8.35963 6.04965C8.35963 5.4685 8.55479 4.93084 8.88667 4.49004V2.58056H0.9779C0.437289 2.58056 0 2.9927 0 3.5017V10.4557H37.9346V3.5017C37.9346 2.9927 37.4973 2.58056 36.9577 2.58056ZM11.2276 6.8166C11.7671 6.8166 12.2044 6.40446 12.2044 5.89646L12.3714 0.921135C12.3714 0.412138 11.7671 0 11.2276 0C10.687 0 10.0827 0.412138 10.0827 0.921135L10.2497 5.89646C10.2497 6.40446 10.687 6.8166 11.2276 6.8166ZM2.52981 16.3343H35.4068V35.8818C35.4068 36.285 35.027 36.6122 34.5594 36.6122H3.37725C2.90969 36.6122 2.52981 36.285 2.52981 35.8818V16.3343ZM0 37.3949C0 37.9039 0.437289 38.3161 0.9779 38.3161H36.9577C37.4973 38.3161 37.9346 37.9039 37.9346 37.3949V12.7575H0V37.3949ZM0 39.591C0 40.1 0.437289 40.5122 0.9779 40.5122H36.9577C37.4973 40.5122 37.9346 40.1 37.9346 39.591V39.2738H0V39.591ZM0 41.7634C0 42.2724 0.437289 42.6845 0.9779 42.6845H36.9577C37.4973 42.6845 37.9346 42.2724 37.9346 41.7634V41.4461H0V41.7634Z" fill="white"/>
</svg>
