<svg width="53" height="40" viewBox="0 0 53 40" fill="none" xmlns="http://www.w3.org/2000/svg">
<path d="M37.8245 27.6048C37.8245 29.1561 35.704 30.5155 32.5175 31.2931V27.5825C34.9736 26.9813 36.7942 26.034 37.4961 24.919H37.8245V27.6048ZM30.6853 30.6832H30.2433V31.8768C30.2433 32.8085 29.4151 33.5677 28.3975 33.5677H23.8071C22.7895 33.5677 21.9623 32.8085 21.9623 31.8768V31.6382C17.8213 30.9799 14.9042 29.4247 14.9042 27.6048V24.919H15.2326C16.0986 26.2949 18.6727 27.4089 22.0423 27.9354C22.2644 27.2305 22.9663 26.7089 23.8071 26.7089H28.3975C29.4151 26.7089 30.2433 27.4671 30.2433 28.3998V29.478H30.6853C31.0484 29.478 31.343 29.7475 31.343 30.0801C31.343 30.4137 31.0484 30.6832 30.6853 30.6832ZM51.0504 28.4464C46.8168 25.3233 42.78 22.9605 36.1249 21.8425L34.8074 19.2877C34.5958 18.8795 34.6106 18.4024 34.8505 18.0068L37.5561 13.506C37.8424 13.028 37.8034 12.4414 37.453 11.9983L30.6001 3.33024C30.4822 3.18287 30.3349 3.05682 30.1644 2.95986L25.3267 0.211085C24.9816 0.0152288 24.5648 -0.0477945 24.1691 0.0365594L18.7074 1.19909C17.2657 1.50548 17.0836 3.3186 18.4391 3.86254L20.5417 4.70511C21.0963 4.92715 21.4572 5.42745 21.4625 5.98206L21.5277 12.0798C21.5309 12.3929 21.4204 12.6984 21.212 12.9466L16.8669 18.1707C16.7511 18.3103 16.6638 18.4693 16.6111 18.638L15.3557 22.6686C9.12786 24.5409 5.24362 27.6406 2.47594 29.2104C-3.915 32.8366 10.8527 41.2255 23.2104 38.8791C40.4101 35.6126 57.916 33.5105 51.0504 28.4464ZM28.3985 27.915H23.8082C23.5167 27.915 23.2788 28.1322 23.2788 28.3998V31.8768C23.2788 32.1444 23.5167 32.3625 23.8082 32.3625H28.3985C28.69 32.3625 28.9268 32.1444 28.9268 31.8768V30.6832H27.1768C26.8137 30.6832 26.519 30.4137 26.519 30.0801C26.519 29.7475 26.8137 29.478 27.1768 29.478H28.9268V28.3998C28.9268 28.1322 28.69 27.915 28.3985 27.915Z" fill="white"/>
</svg>
