<svg width="42" height="44" viewBox="0 0 42 44" fill="none" xmlns="http://www.w3.org/2000/svg">
<path d="M31.3803 40.0689C30.9952 40.7578 30.0872 41.0246 29.3546 40.6619C28.6209 40.2972 28.3391 39.4443 28.7252 38.7525C29.1114 38.0617 30.0183 37.7967 30.752 38.1595C31.4847 38.5222 31.7664 39.3781 31.3803 40.0689ZM41.2303 28.8326C41.0497 28.2574 40.6249 27.8216 40.0645 27.6318L33.7901 25.5217C32.8007 25.1896 31.6318 25.7035 31.0662 26.7166L25.3918 36.9013C24.8324 37.9055 25.038 39.0905 25.874 39.6756L31.2342 43.4243C31.5671 43.6556 31.9689 43.7702 32.3864 43.7583C32.5742 43.7524 32.7652 43.7218 32.9552 43.6635C33.5657 43.4797 34.1021 43.0418 34.4246 42.4627L41.0121 30.6412C41.3304 30.066 41.4108 29.4078 41.2303 28.8326Z" fill="white"/>
<path d="M22.7063 11.5288C21.024 10.0463 19.1746 8.64493 17.8857 6.82245C17.2407 5.90924 16.7575 4.90208 16.5133 3.82875C16.2879 2.83054 16.5217 1.40438 15.5354 0.719467C14.9969 0.346867 14.0691 0.553459 14.0691 0.553459C13.0494 0.713568 12.0799 2.43918 11.7783 3.24862C11.3118 4.49787 11.3577 5.94575 11.6092 7.22861C11.9202 8.81191 12.6831 10.2628 13.5285 11.6474C14.0461 12.4944 14.6118 13.3158 15.0752 14.1934C15.3183 14.655 15.6367 15.2223 15.2829 15.7046C14.7015 16.5002 13.3062 16.1582 12.4796 16.0653C10.8526 15.8854 9.21821 15.7698 7.58073 15.7105C7.109 15.6947 6.63727 15.6818 6.16554 15.6739C5.74912 15.664 5.33166 15.6601 4.91525 15.666C4.5124 15.672 4.10955 15.6966 3.71401 15.7698C3.43118 15.8202 3.15252 15.9013 2.89265 16.0208C2.23933 16.3203 1.66637 16.8569 1.38458 17.4915C1.2249 17.8502 1.12263 18.293 1.12263 18.6843C1.12263 19.727 1.69559 20.6413 2.55973 21.169C1.2249 21.5318 0.248047 22.6921 0.248047 24.0668C0.248047 25.406 1.17377 26.5396 2.45432 26.9349C1.78013 27.4657 1.3491 28.2613 1.3491 29.1528C1.3491 30.6372 2.53468 31.8568 4.06154 32.0249C3.67435 32.4963 3.44266 33.0843 3.44266 33.7277C3.44266 34.8999 4.21287 35.9011 5.30244 36.3103C5.51222 36.4071 5.73242 36.4802 5.9589 36.5227C11.5988 37.6544 16.7116 37.1177 20.6837 36.9418C21.9351 36.8854 23.6686 37.768 23.6686 37.768L30.5953 25.151C25.5461 22.0061 26.8976 15.2153 22.7063 11.5288Z" fill="white"/>
</svg>
