<svg width="58" height="51" viewBox="0 0 58 51" fill="none" xmlns="http://www.w3.org/2000/svg">
<path d="M28.6915 50.8914C36.0096 50.8934 41.9365 45.3034 41.9354 38.4177H15.4497C15.4497 45.3054 21.3787 50.8934 28.6915 50.8914Z" fill="white"/>
<path d="M53.1587 33.2229L53.0981 33.2852C52.7339 33.6291 51.9668 33.8238 50.9879 33.8238C47.595 33.8238 42.6982 31.6672 38.5111 28.3277C31.5771 22.7822 29.6306 16.782 30.9425 15.3015C31.3057 14.9576 32.0717 14.7629 33.0444 14.7629C36.4384 14.7629 41.3362 16.9234 45.5233 20.2659C52.4626 25.8084 54.41 31.8046 53.1587 33.2229ZM4.20213 33.1211C3.24198 32.0319 4.31381 27.2988 9.79401 22.1378C10.4254 21.5428 11.1027 20.9567 11.8062 20.3963C15.9661 17.0765 20.8181 14.9299 24.164 14.9299C25.1398 14.9299 25.8986 15.1305 26.1991 15.4745C27.1603 16.5616 26.0822 21.2888 20.5958 26.4558C19.9654 27.0528 19.2902 27.6368 18.592 28.1952C14.4299 31.515 9.57589 33.6597 6.22473 33.6597C5.25622 33.6588 4.49957 33.4601 4.20213 33.1211ZM25.908 26.1484H31.0949C32.1396 27.4224 33.3544 28.6825 34.7205 29.8912H22.1905C22.5453 29.5809 22.9221 29.2814 23.2592 28.9642C24.2412 28.0401 25.119 27.0943 25.908 26.1484ZM41.9363 13.6826V12.97C41.9363 6.08038 36.0073 0.49634 28.6914 0.49634C21.3754 0.492387 15.4495 6.08038 15.4495 12.97V13.7864C13.4061 14.8073 11.3438 16.1139 9.37133 17.6873C8.59068 18.3129 7.83821 18.9653 7.13166 19.6314C0.888554 25.5129 -1.55985 32.1377 1.30601 35.3863C2.35592 36.5773 4.05811 37.2068 6.22473 37.2068C9.00605 37.2068 12.2925 36.2146 15.603 34.4642H41.2642C44.6863 36.3174 48.1032 37.3729 50.9868 37.3689C53.0126 37.3729 54.6647 36.8244 55.7584 35.7916C55.8607 35.6986 55.9577 35.5969 56.0517 35.4901C59.3266 31.7799 55.6927 23.7359 47.955 17.5628C46.0055 16.0042 43.961 14.7016 41.9363 13.6826Z" fill="white"/>
</svg>
