<svg width="55" height="46" viewBox="0 0 55 46" fill="none" xmlns="http://www.w3.org/2000/svg">
<path d="M17.4646 39.7733C16.5347 39.7733 15.7812 39.0646 15.7812 38.1899V2.32642H19.1469V38.1899C19.1459 39.0646 18.3913 39.7733 17.4646 39.7733Z" fill="white"/>
<path d="M54.2055 4.24438C54.2055 4.24438 52.0828 7.28252 46.0266 7.28252C44.0427 7.28252 42.4794 6.95636 41.0423 6.51853L39.6856 24.2502L37.9427 23.7135C37.1913 23.4822 36.4879 23.2292 35.8064 22.9841C34.6011 22.5512 33.4333 22.1351 32.0922 21.8742L31.9263 24.2195C36.1154 24.9123 38.5105 27.0402 44.0438 27.0402C50.6509 27.0402 54.2483 25.2237 54.2483 25.2237L54.2055 4.24438Z" fill="white"/>
<path d="M39.918 2.3979C37.4363 1.53508 35.1038 0.496338 31.2382 0.496338C24.631 0.496338 21.0347 2.31091 21.0347 2.31091L21.0775 12.0549V23.2892C21.0775 23.2892 23.1992 20.2511 29.2574 20.2511C33.1898 20.2511 35.468 21.529 38.388 22.4264L39.918 2.3979Z" fill="white"/>
<path d="M21.515 34.5482C21.0975 34.5116 20.6665 34.4809 20.2407 34.4572L20.3503 32.7395C20.7949 32.7642 21.2416 32.7958 21.6789 32.8344L21.515 34.5482Z" fill="white"/>
<path d="M25.8209 35.1484C25.0434 34.9922 24.22 34.8568 23.3726 34.7471L23.622 33.0403C24.5122 33.1579 25.3805 33.2992 26.2018 33.4653L25.8209 35.1484ZM8.64705 35.2433L8.23588 33.5661C9.05199 33.3901 9.91819 33.236 10.8115 33.1085L11.085 34.8114C10.2375 34.93 9.41724 35.0772 8.64705 35.2433ZM29.9067 36.3314C29.2325 36.0537 28.4613 35.7967 27.618 35.5694L28.1211 33.913C29.0426 34.162 29.89 34.4457 30.6393 34.755L29.9067 36.3314ZM4.60719 36.5093L3.81612 34.9576C4.55083 34.6256 5.39408 34.3192 6.32186 34.0504L6.86141 35.693C6.02025 35.94 5.26154 36.2118 4.60719 36.5093ZM32.7913 38.4494C32.6159 38.0136 32.1526 37.55 31.4523 37.1102L32.4656 35.6781C33.4999 36.3284 34.1835 37.0568 34.4997 37.8406L32.7913 38.4494ZM2.06495 38.7024L0.256348 38.4652C0.388888 37.5639 0.981653 36.7277 2.01797 35.9766L3.13048 37.3415C2.497 37.7991 2.12861 38.2695 2.06495 38.7024ZM32.1056 42.2248L31.1611 40.7522C31.9 40.3312 32.427 39.8815 32.6859 39.4496L34.2774 40.2946C33.8579 40.9934 33.1263 41.6437 32.1056 42.2248ZM3.27867 42.4719C2.27471 41.9619 1.50658 41.3927 0.995209 40.7809L2.43019 39.7155C2.78711 40.1424 3.36425 40.5605 4.14592 40.9568L3.27867 42.4719ZM27.736 43.8753L27.259 42.2129C28.1044 41.9985 28.8818 41.7554 29.5727 41.4895L30.2636 43.0837C29.5049 43.3753 28.6533 43.6421 27.736 43.8753ZM7.67337 43.9949C6.7602 43.7785 5.90651 43.5314 5.13527 43.2576L5.77919 41.6477C6.48468 41.8967 7.27157 42.124 8.11795 42.3256L7.67337 43.9949ZM23.2296 44.6957L22.999 42.9888C23.8464 42.886 24.6719 42.7595 25.4536 42.6122L25.8136 44.2993C24.9881 44.4545 24.1188 44.5899 23.2296 44.6957ZM12.186 44.752C11.2968 44.6551 10.4264 44.5316 9.59885 44.3893L9.93279 42.6963C10.7186 42.8336 11.5473 42.9512 12.3947 43.0421L12.186 44.752ZM18.6836 45.0159L18.6376 43.2962C19.4809 43.2754 20.32 43.2339 21.1361 43.1706L21.2843 44.8864C20.4348 44.9506 19.5602 44.9951 18.6836 45.0159ZM16.7331 45.0257C15.8595 45.0139 14.9839 44.9773 14.1323 44.922L14.2607 43.2062C15.0789 43.2606 15.9201 43.2932 16.7612 43.3051L16.7331 45.0257Z" fill="white"/>
<path d="M12.965 34.5893L12.7812 32.8755C13.2227 32.835 13.6694 32.7984 14.1077 32.7698L14.2381 34.4855C13.8165 34.5142 13.3876 34.5488 12.965 34.5893Z" fill="white"/>
</svg>
