<svg width="75" height="75" viewBox="0 0 75 75" fill="none" xmlns="http://www.w3.org/2000/svg">
<g id="Achievement" clip-path="url(#clip0_5374_207855)">
<path id="Vector" d="M47.1594 49.9906C67.6937 49.8875 75 39.0125 75 29.6875C75 24.4469 71.2906 20.0625 66.3625 19.0031C66.7875 17.7937 67.1562 16.6844 67.4062 15.8438C68.5094 12.1156 67.7938 8.175 65.4469 5.03437C63.0531 1.8375 59.3937 0 55.4031 0H19.5969C15.6062 0 11.9437 1.8375 9.55 5.0375C7.20312 8.17813 6.49063 12.1188 7.59375 15.8438C7.84375 16.6844 8.20937 17.7937 8.6375 19.0031C3.70937 20.0625 0 24.4469 0 29.6875C0 39.0125 7.30938 49.8875 27.8406 49.9906C28.0156 50.9344 28.125 51.8969 28.125 52.875V62.5C28.125 68.2063 23.325 68.725 21.875 68.75H18.75C17.0219 68.75 15.625 70.1469 15.625 71.875C15.625 73.6031 17.0219 75 18.75 75H56.25C57.9781 75 59.375 73.6031 59.375 71.875C59.375 70.1469 57.9781 68.75 56.25 68.75H53.15C51.675 68.725 46.875 68.2063 46.875 62.5V52.875C46.875 51.8969 46.9844 50.9344 47.1594 49.9906ZM64.0625 25C66.6469 25 68.75 27.1031 68.75 29.6875C68.75 36.0438 63.7219 42.8031 49.8875 43.6562C50.5781 42.7219 51.3687 41.8563 52.2687 41.0906C57.7031 36.4719 61.4344 30.3 63.9156 24.9688C63.9687 24.9688 64.0094 25 64.0625 25ZM6.25 29.6875C6.25 27.1031 8.35312 25 10.9375 25C10.9906 25 11.0344 24.9719 11.0844 24.9688C13.5656 30.3 17.2938 36.4688 22.7313 41.0906C23.6313 41.8563 24.4219 42.7188 25.1125 43.6562C11.2781 42.8031 6.25 36.0438 6.25 29.6875ZM32.8531 68.75C33.775 67.0594 34.375 65.0188 34.375 62.5V52.875C34.375 46.4656 31.6063 40.4375 26.7781 36.3313C21.25 31.6313 16.3188 23.3094 13.5875 14.075C13.05 12.2531 13.4 10.325 14.5594 8.78125C15.7594 7.17188 17.5969 6.25 19.5969 6.25H55.4C57.4 6.25 59.2375 7.17188 60.4375 8.77812C61.5906 10.325 61.9437 12.2531 61.4094 14.0719C58.675 23.3125 53.7438 31.6313 48.2188 36.3313C43.3906 40.4344 40.6219 46.4656 40.6219 52.875V62.5C40.6219 65.0188 41.2188 67.0594 42.1437 68.75H32.8531ZM30.5969 30.5094C29.7719 29.9406 29.425 28.8906 29.7531 27.9406L31.375 22.9219L27.1062 19.7969C26.0844 19.0469 25.8625 17.6125 26.6125 16.5906C27.0437 16.0031 27.7313 15.6531 28.4594 15.6531H33.7125L35.3094 10.675C35.7125 9.46562 37.0187 8.81563 38.2281 9.21875C38.9156 9.44688 39.4562 9.9875 39.6844 10.675L41.2781 15.6531H46.5312C47.7969 15.6531 48.825 16.6781 48.825 17.9469C48.825 18.6812 48.475 19.3687 47.8844 19.8L43.6156 22.925L45.2375 27.9438C45.625 29.15 44.9625 30.4437 43.7531 30.8344C43.0531 31.0594 42.2875 30.9344 41.6937 30.5L37.4969 27.4125L33.2969 30.4969C32.4969 31.0938 31.4031 31.0969 30.5969 30.5094Z" fill="white"/>
</g>
<defs>
<clipPath id="clip0_5374_207855">
<rect width="75" height="75" fill="white"/>
</clipPath>
</defs>
</svg>
