<svg width="38" height="51" viewBox="0 0 38 51" fill="none" xmlns="http://www.w3.org/2000/svg">
<path d="M19.9094 40.3286L21.0939 48.4172L22.5988 46.821L26.1952 48.4172L19.9094 40.3286ZM0.0357086 7.59419C-0.152143 6.75214 0.419768 5.92589 1.31415 5.74898C2.20854 5.57108 3.08727 6.11169 3.27512 6.95375L4.55251 12.6712L7.96202 16.6453H14.9397V16.6512C15.4041 16.6512 15.8675 16.8291 16.1952 17.1879L19.2436 20.5334L21.5897 18.1239C21.6752 18.0369 21.7692 17.9638 21.8683 17.8995V2.86802C21.5792 2.66936 21.3914 2.34914 21.3914 1.98543C21.3914 1.38156 21.9111 0.891357 22.5519 0.891357C23.1937 0.891357 23.7145 1.38156 23.7145 1.98543C23.7145 2.34815 23.5245 2.66837 23.2355 2.86802V17.6791C23.4859 17.7414 23.7249 17.855 23.9263 18.0299C24.6005 18.6111 24.6454 19.5975 24.0276 20.231L23.2355 21.0453V41.2557L30.7871 50.4808H5.39994L14.1173 39.8335C16.239 37.2411 19.6684 37.1739 21.8683 39.6092V22.4488L20.4208 23.9332C20.1066 24.2554 19.6642 24.4393 19.2018 24.4393C19.1924 24.4393 19.1831 24.4393 19.1737 24.4373C18.7009 24.4314 18.2542 24.2327 17.9464 23.8947L14.8531 20.5008L14.4252 27.1701L17.8775 26.8745C18.3419 26.836 18.8011 26.9803 19.1434 27.2758C19.4857 27.5713 19.6819 27.9904 19.6819 28.4262V36.144C19.6819 37.0049 18.942 37.7036 18.0278 37.7036C17.1135 37.7036 16.3726 37.0049 16.3726 36.144V30.133L10.7308 30.6134C10.7203 30.6134 10.7109 30.6114 10.7015 30.6134V43.437C10.7015 44.2978 9.96161 44.9965 9.04635 44.9965C8.13318 44.9965 7.39324 44.2978 7.39324 43.437V28.4074L7.32228 20.8536L1.7316 14.3346C1.5667 14.1439 1.45191 13.9175 1.39973 13.6764L0.0357086 7.59419ZM23.8783 3.28406V12.2908C28.4139 15.8576 32.9474 8.84542 37.483 13.4313L34.9303 7.48055L37.483 4.42459C32.9474 -0.163239 28.4129 6.84897 23.8783 3.28406ZM7.94011 12.3856C7.94011 10.4919 9.5713 8.95514 11.5803 8.95514C13.5913 8.95514 15.2204 10.4919 15.2204 12.3856C15.2204 14.2792 13.5903 15.8141 11.5803 15.8141C9.5713 15.8141 7.94011 14.2792 7.94011 12.3856Z" fill="white"/>
</svg>
