<svg width="57" height="46" viewBox="0 0 57 46" fill="none" xmlns="http://www.w3.org/2000/svg">
<path d="M29.0124 6.17785C28.5856 6.06467 28.1514 6.26544 28.0137 6.65713C27.6651 7.36966 20.993 17.5331 16.5951 24.189C16.4375 24.4281 16.4291 24.7302 16.5763 24.9753C16.7214 25.2203 16.9979 25.3739 17.2985 25.3739H30.7042L27.9667 38.6698C27.8895 39.0458 28.1159 39.4168 28.5 39.5487C28.5918 39.5772 28.6858 39.594 28.7797 39.594C29.075 39.594 29.3568 39.4454 29.505 39.1905L40.5677 20.2129C40.7086 19.9718 40.7034 19.6795 40.5531 19.4443C40.4049 19.2091 40.1346 19.0634 39.8424 19.0634H26.682L29.5864 7.12167C29.6845 6.71718 29.4372 6.28906 29.0124 6.17785Z" fill="white"/>
<path d="M56.4479 16.9502C55.8592 16.5398 55.0316 16.652 54.5954 17.2021L52.6198 19.6822C51.1451 9.51585 42.679 1.49594 31.5881 0.186029C19.5736 -1.24002 8.47025 5.65794 5.15458 16.5762C4.9542 17.2356 5.36123 17.9216 6.06569 18.1095C6.76911 18.2945 7.5007 17.9146 7.70108 17.2553C10.6577 7.52489 20.563 1.37587 31.2573 2.65036C41.2074 3.82544 48.7916 11.059 50.0305 20.2058L47.1792 18.2099C46.5927 17.7985 45.7651 17.9097 45.3267 18.4609C44.8884 19.01 45.0084 19.7895 45.5949 20.1989L50.9009 23.9161C51.1388 24.0824 51.4164 24.1631 51.6919 24.1631C52.0958 24.1631 52.4935 23.9919 52.7533 23.6641L56.7161 18.6882C57.1544 18.1391 57.0344 17.3616 56.4479 16.9502Z" fill="white"/>
<path d="M51.1574 27.6588C50.4415 27.4738 49.7203 27.8527 49.5199 28.5121C46.5654 38.2395 36.6747 44.3885 25.9648 43.118C16.0292 41.9458 8.45235 34.73 7.19997 25.6029L9.96877 27.6273C10.5449 28.0505 11.3787 27.9511 11.8265 27.4118C12.2763 26.8705 12.173 26.0901 11.5969 25.6688L6.37548 21.8493C5.7973 21.4261 4.96552 21.5236 4.51675 22.0649L0.444428 26.963C-0.0043415 27.5033 0.0968938 28.2847 0.674032 28.7059C0.916158 28.8841 1.20212 28.9697 1.48703 28.9697C1.88153 28.9697 2.27081 28.8054 2.53173 28.4914L4.5898 26.0172C6.03317 36.218 14.5149 44.2714 25.635 45.5862C26.6828 45.7093 27.7233 45.7712 28.7545 45.7712C39.5166 45.7712 49.0399 39.1587 52.0675 29.197C52.2679 28.5327 51.8608 27.8458 51.1574 27.6588Z" fill="white"/>
</svg>
