<svg width="33" height="54" viewBox="0 0 33 54" fill="none" xmlns="http://www.w3.org/2000/svg">
<path d="M4.64492 36.3537C4.37253 36.3626 4.14501 36.1625 4.13562 35.9063C4.12519 35.6511 4.33807 35.4362 4.61046 35.4274C4.62089 35.4274 8.42385 35.2825 11.5735 37.1736C11.8031 37.3106 11.871 37.5974 11.7248 37.8122C11.5777 38.028 11.274 38.0921 11.0444 37.9541C8.15565 36.2197 4.65535 36.3537 4.64492 36.3537Z" fill="#ED2224"/>
<path d="M27.9987 35.4274C28.2711 35.4363 28.484 35.6511 28.4746 35.9063C28.4652 36.1626 28.2356 36.3626 27.9643 36.3538C27.9538 36.3528 24.4535 36.2197 21.5658 37.9542C21.3362 38.0912 21.0304 38.0281 20.8864 37.8123C20.7393 37.5974 20.8071 37.3107 21.0367 37.1737C24.1843 35.2816 27.9883 35.4274 27.9987 35.4274Z" fill="#ED2224"/>
<path d="M18.6035 45.7363C18.1485 45.622 17.4889 45.5619 16.7991 45.8605V53.2013C17.0986 53.1983 17.6298 53.0032 18.2059 51.9054C18.2017 51.8906 18.1986 51.8748 18.1954 51.8591C17.5369 48.8987 17.6966 46.9356 18.6035 45.7363ZM15.8097 53.2013V45.8605C15.122 45.5619 14.4603 45.622 14.0063 45.7363C14.9112 46.9356 15.0719 48.8987 14.4133 51.8591C14.4102 51.8748 14.4071 51.8906 14.4029 51.9054C14.98 53.0032 15.5102 53.1983 15.8097 53.2013Z" fill="white"/>
<path d="M13.1251 43.8134C13.1011 43.8154 7.38936 44.2569 3.45699 42.7422C3.2347 42.8358 3.01449 42.957 2.80472 43.1029C1.92182 43.7129 1.19025 44.7299 0.782196 45.8642C0.376227 46.9926 0.297965 48.2274 0.720632 49.2769C0.840649 49.5735 1.00241 49.8564 1.20696 50.1195C2.90807 52.2865 11.6348 51.5494 13.5102 51.3632C14.1625 48.2362 13.8139 46.4791 12.5793 45.7104C11.255 44.8846 8.86089 45.0758 5.55678 45.8701C5.2917 45.9332 5.02243 45.7824 4.95564 45.5331C4.88884 45.2847 5.04957 45.0324 5.31257 44.9694C8.88176 44.112 11.5252 43.9395 13.1241 44.9368C13.1606 44.9595 13.1961 44.9832 13.2316 45.0068C13.7878 44.792 15.0151 44.4599 16.3009 45.0571C17.5876 44.4599 18.816 44.792 19.3712 45.0068C19.4067 44.9832 19.4411 44.9595 19.4787 44.9368C21.0775 43.9395 23.72 44.112 27.2902 44.9694C27.5542 45.0324 27.715 45.2847 27.6471 45.5331C27.5814 45.7824 27.3111 45.9332 27.046 45.8701C23.743 45.0758 21.3478 44.8846 20.0235 45.7104C18.7889 46.4791 18.4403 48.2362 19.0926 51.3632C20.968 51.5494 29.6947 52.2875 31.3958 50.1195C31.6014 49.8564 31.7632 49.5735 31.8832 49.2769C32.3048 48.2264 32.2265 46.9926 31.8206 45.8642C31.4136 44.7299 30.681 43.7129 29.7991 43.1029C29.5872 42.957 29.3691 42.8358 29.1468 42.7422C25.2134 44.2569 19.5017 43.8154 19.4787 43.8134L19.2074 43.7937L19.0978 43.5995C17.7828 43.7424 16.7747 43.3216 16.2988 43.0644C15.8239 43.3216 14.8168 43.7424 13.5008 43.5995L13.3902 43.7937L13.1251 43.8134Z" fill="white"/>
<path d="M5.33238 29.1729C4.45052 30.0608 -0.164379 34.9586 0.902204 39.2011C1.20381 40.4024 2.19629 41.2263 3.49247 41.787C3.59266 41.7978 3.68659 41.8372 3.76277 41.8993C6.90303 43.1371 11.5785 42.9715 12.7692 42.9055C12.7755 42.8907 12.7838 42.8759 12.7912 42.8622C13.0416 42.3201 13.5405 41.0065 13.4205 39.3065C13.4027 39.0513 13.6114 38.8306 13.8817 38.8148C14.1541 38.799 14.3879 38.9932 14.4056 39.2484C14.4098 39.3036 14.4129 39.3578 14.416 39.412H18.1929C18.195 39.3578 18.1982 39.3036 18.2023 39.2484C18.2201 38.9932 18.4538 38.799 18.7262 38.8148C18.9986 38.8306 19.2053 39.0513 19.1875 39.3065C19.0685 41.0065 19.5663 42.3201 19.8168 42.8622C19.8262 42.8759 19.8346 42.8907 19.8398 42.9055C21.0305 42.9715 25.7039 43.1371 28.8462 41.8993C28.9203 41.8363 29.0163 41.7978 29.1155 41.787C30.4127 41.2253 31.4041 40.4024 31.7047 39.2011C32.7702 34.9586 28.1574 30.0608 27.2756 29.1729H5.33238Z" fill="white"/>
<path d="M14.4161 39.4121C14.485 40.8006 14.1834 41.9606 13.9131 42.6987C14.8263 42.7322 15.4984 42.4385 15.8094 42.2661V40.0221C15.8094 39.7659 16.0306 39.558 16.304 39.558C16.5775 39.558 16.7998 39.7659 16.7998 40.0221V42.2661C17.1118 42.4385 17.7839 42.7322 18.6971 42.6987C18.4247 41.9606 18.1231 40.8006 18.194 39.4121H14.4161Z" fill="white"/>
<path d="M27.5266 25.4803C31.1511 41.4352 16.3713 41.8619 16.3296 41.8639L16.3045 41.8649L16.2795 41.8639C16.2367 41.8619 1.45898 41.4352 5.08243 25.4803C4.9812 25.4478 4.88625 25.4123 4.79232 25.3758C3.66521 24.9314 2.90856 24.2327 2.50363 23.4275C2.26882 22.9624 2.153 22.4617 2.15091 21.9542C2.14882 21.4526 2.25734 20.9471 2.47233 20.4671C2.9096 19.4866 3.78625 18.5967 5.0553 18.032C5.20767 17.965 5.39031 17.9601 5.5552 18.034C5.84115 18.1641 5.96325 18.4893 5.82445 18.7603C5.81923 18.7701 3.98038 22.2676 6.55917 21.8685C7.9858 21.6478 8.96055 20.8387 9.97913 19.9931C11.4913 18.7366 13.0933 17.4072 16.3066 17.4072C19.5189 17.4072 21.1198 18.7366 22.6341 19.9931C23.6527 20.8387 24.6274 21.6478 26.053 21.8685C28.6318 22.2676 26.7929 18.7701 26.7877 18.7603C26.7147 18.6174 26.7084 18.4459 26.7856 18.2912C26.9223 18.0202 27.2667 17.9039 27.5558 18.032C28.8248 18.5967 29.7015 19.4866 30.1388 20.4671C30.3538 20.9471 30.4633 21.4526 30.4592 21.9542C30.4571 22.4617 30.3423 22.9624 30.1064 23.4275C29.7015 24.2327 28.947 24.9314 27.8188 25.3758C27.7228 25.4133 27.6257 25.4487 27.5266 25.4803Z" fill="#C13192"/>
<path d="M6.20338 25.744C2.9765 40.063 15.692 40.7538 16.3046 40.7785C16.9172 40.7538 29.6327 40.063 26.4048 25.744C26.3223 25.7558 26.2378 25.7677 26.1522 25.7775C25.5782 25.8445 24.9301 25.8593 24.2006 25.8091C19.8101 25.5046 17.2992 22.5255 16.3056 21.2236C15.3121 22.5255 12.7991 25.5046 8.41063 25.8091C7.68114 25.8593 7.03305 25.8445 6.45801 25.7775C6.37035 25.7677 6.28478 25.7558 6.20338 25.744Z" fill="white"/>
<path d="M26.1225 12.1114C25.01 10.3996 23.1847 8.69373 20.8606 7.32293C20.2407 7.56535 19.579 7.79695 18.8996 8.03346L18.7044 8.10146C18.9059 8.21282 19.1052 8.3301 19.2972 8.4523C20.1154 8.96869 20.8397 9.57672 21.4032 10.3158C21.9511 11.0333 22.4667 11.7398 22.9269 12.3715C24.7929 14.9269 25.6831 16.1449 27.3039 15.802C27.3863 14.6815 26.9595 13.4004 26.1225 12.1114ZM28.8495 13.09C29.2743 11.4284 29.2001 9.80338 28.7305 8.29756C28.0563 6.1502 26.5765 4.23344 24.5779 2.7838C24.5978 2.88334 24.6134 2.98386 24.628 3.08832C24.8242 4.45518 24.245 5.39238 23.2244 6.12656C25.1081 7.56734 26.6266 9.17366 27.6764 10.7898C28.1742 11.5566 28.5688 12.3292 28.8495 13.09ZM20.393 0.126953C21.0234 1.34796 21.1956 3.6333 15.5861 5.55892L15.4191 5.61805V5.61706C11.9741 6.83018 9.149 8.81987 7.3571 10.9426C5.71027 12.8958 4.95263 14.9358 5.43582 16.5303C7.0837 16.9018 7.97284 15.6847 9.85345 13.1077C10.3137 12.476 10.8293 11.7714 11.3761 11.052C12.9969 8.92827 15.8793 7.92407 18.4957 7.01152C21.2999 6.03491 23.7608 5.17754 23.4811 3.2322C23.1231 0.718242 21.4659 0.194951 20.393 0.126953Z" fill="white"/>
<path d="M19.0476 0.150043C15.2394 -0.374232 11.6035 0.509731 8.79924 2.26586V2.26685C7.41331 3.13407 6.23403 4.2112 5.34173 5.43319C4.45152 6.65124 3.84412 8.01318 3.59887 9.45198C3.32335 11.0593 3.50078 12.7731 4.23967 14.5036C4.5037 13.1268 5.27284 11.6634 6.45109 10.267C8.36092 8.00332 11.3645 5.88652 15.0172 4.59948L15.0192 4.59751L15.1862 4.53936H15.1883C20.6903 2.65118 19.4734 0.651652 19.0476 0.150043Z" fill="white"/>
<path d="M16.3051 18.498C13.5249 18.498 12.0951 19.6855 10.7425 20.808C9.59664 21.76 8.49979 22.6706 6.74337 22.9426C3.77322 23.4018 3.71791 21.5304 4.1124 20.0246C3.86715 20.2936 3.67408 20.5853 3.54049 20.8859C3.38395 21.2367 3.30362 21.5994 3.3057 21.9522C3.30779 22.299 3.38708 22.644 3.54989 22.9652C3.83689 23.5378 4.39211 24.0404 5.23536 24.3725C5.61628 24.5233 6.06712 24.6356 6.59728 24.6977C7.10239 24.7568 7.67741 24.7686 8.32655 24.7243C12.4854 24.4365 14.796 21.35 15.5495 20.3429C15.8146 19.9891 15.9721 19.7782 16.304 19.7782C16.6359 19.7782 16.7945 19.9891 17.0596 20.3429C17.8131 21.35 20.1247 24.4365 24.2825 24.7243C24.9316 24.7686 25.5067 24.7568 26.0118 24.6977C26.543 24.6356 26.9917 24.5233 27.3737 24.3725C28.218 24.0404 28.7722 23.5378 29.0602 22.9652C29.223 22.644 29.3023 22.299 29.3044 21.9522C29.3055 21.5984 29.2261 21.2367 29.0685 20.8859C28.935 20.5853 28.743 20.2936 28.4967 20.0246C28.8922 21.5304 28.8369 23.4018 25.8667 22.9426C24.1093 22.6706 23.0135 21.76 21.8655 20.808C20.5161 19.6855 19.0853 18.498 16.3051 18.498Z" fill="white"/>
<path d="M16.6332 15.0445C16.6332 15.0445 16.7762 17.7802 20.145 18.1822C23.5148 18.5843 23.9135 14.7498 23.9135 14.7498C23.9135 14.7498 23.7997 13.8107 22.1706 13.7308C20.5436 13.65 18.4606 13.6766 18.0035 13.7032C17.5464 13.7308 16.6332 14.3478 16.6332 14.3478H15.9736C15.9736 14.3478 15.0605 13.7308 14.6033 13.7032C14.1462 13.6766 12.0621 13.65 10.4361 13.7308C8.8081 13.8107 8.69434 14.7498 8.69434 14.7498C8.69434 14.7498 9.09404 18.5843 12.4628 18.1822C15.8317 17.7802 15.9736 15.0445 15.9736 15.0445H16.6332Z" fill="white"/>
</svg>
