<svg width="38" height="57" viewBox="0 0 38 57" fill="none" xmlns="http://www.w3.org/2000/svg">
<path d="M34.293 28.4535C33.4755 28.5017 32.7402 28.8516 32.2156 29.4389L27.4148 37.6095C26.3223 38.8838 24.3133 38.1141 23.065 37.4785C21.8176 36.8438 20.7694 35.9027 20.0278 34.7763C18.2811 32.1185 18.3453 28.6555 20.2216 26.0696L21.0781 24.887C21.6628 24.0809 22.7932 23.8256 23.7087 24.2928L29.4596 27.2315C31.5413 28.2958 34.1255 26.8777 34.2298 24.6958C34.3362 22.5169 31.948 21.3738 30.1981 20.4307C28.1522 19.3279 25.8799 18.443 23.5053 18.2538C22.2938 18.1572 21.0633 18.2538 19.9024 18.5977C19.3609 18.7583 18.6519 19.2501 18.0714 19.1791C17.491 19.1082 17.1191 18.5356 17.3182 18.0231L22.9238 3.63417C24.209 0.337738 18.7425 -1.59774 17.4309 1.73023L9.62984 22.239L9.61404 22.2824L9.61298 22.2844L9.61087 22.2893C9.26533 23.194 7.30057 22.6017 7.6419 21.6694L11.7031 10.6242L13.7648 5.40507C15.2049 1.76175 9.52448 -0.214131 8.17496 3.51295L0.95752 23.4256L1.03338 26.4204C1.06077 27.8553 1.25777 29.2852 1.61701 30.6718L4.29918 41.0164C4.65104 42.3763 4.83015 43.7718 4.83015 45.1682V56.4963H21.5964C21.7787 54.3548 22.2116 52.1937 23.0313 50.1813C23.5232 48.9771 24.169 47.7974 25.0824 46.8208C26.1812 45.6491 27.7098 45.0194 29.0498 44.1285C30.4014 43.2317 31.6951 42.1861 32.6338 40.903C33.7547 39.3755 34.5311 37.6302 35.337 35.947C35.749 35.0907 36.1535 34.2284 36.6054 33.3878C36.9826 32.6831 37.4409 32.0436 37.4387 31.2276C37.4366 29.6577 35.9818 28.3608 34.293 28.4535C35.1263 28.4081 33.4755 28.5027 34.293 28.4535Z" fill="white"/>
<path d="M2.74142 5.85531C1.38031 5.95878 0.578613 6.99353 0.578613 8.21651L0.847242 18.9799L5.08543 7.28819C4.68089 6.13616 3.56314 5.79322 2.74142 5.85531C3.56314 5.79322 1.85859 5.92232 2.74142 5.85531Z" fill="white"/>
</svg>
