<svg width="15" height="16" viewBox="0 0 15 16" fill="none" xmlns="http://www.w3.org/2000/svg">
<path d="M9.96135 1.07735C9.96135 0.758768 10.2763 0.5 10.6656 0.5C11.055 0.5 11.3699 0.758768 11.3699 1.07735V3.60644C11.3699 3.92501 11.055 4.18378 10.6656 4.18378C10.2763 4.18378 9.96135 3.92501 9.96135 3.60644V1.07735ZM8.06941 13.3969C7.97176 13.3969 7.97176 12.1641 8.06941 12.1641H9.99675C10.0944 12.1641 10.0944 13.3969 9.99675 13.3969H8.06941ZM1.93466 8.91484C1.83701 8.91484 1.83701 7.68203 1.93466 7.68203H3.86199C3.95964 7.68203 3.95964 8.91484 3.86199 8.91484H1.93466ZM5.00203 8.91484C4.90439 8.91484 4.90439 7.68203 5.00203 7.68203H6.92937C7.02702 7.68203 7.02702 8.91484 6.92937 8.91484H5.00203ZM8.06941 8.91484C7.97176 8.91484 7.97176 7.68203 8.06941 7.68203H9.99675C10.0944 7.68203 10.0944 8.91484 9.99675 8.91484H8.06941ZM11.138 7.68203H13.0605C13.1581 7.68203 13.1581 8.91484 13.0605 8.91484H11.138C11.0404 8.91484 11.0404 7.68203 11.138 7.68203ZM1.93466 11.1559C1.83701 11.1559 1.83701 9.92306 1.93466 9.92306H3.86199C3.95964 9.92306 3.95964 11.1559 3.86199 11.1559H1.93466ZM5.00448 11.1559C4.90683 11.1559 4.90683 9.92306 5.00448 9.92306H6.92937C7.02702 9.92306 7.02702 11.1559 6.92937 11.1559H5.00448ZM8.07185 11.1559C7.9742 11.1559 7.9742 9.92306 8.07185 9.92306H9.99675C10.0944 9.92306 10.0944 11.1559 9.99675 11.1559H8.07185ZM11.1405 11.1559C11.0428 11.1559 11.0428 9.92306 11.1405 9.92306H13.0605C13.1581 9.92306 13.1581 11.1559 13.0605 11.1559H11.1405ZM1.9371 13.3969C1.83945 13.3969 1.83945 12.1641 1.9371 12.1641H3.86199C3.95964 12.1641 3.95964 13.3969 3.86199 13.3969H1.9371ZM5.00448 13.3969C4.90683 13.3969 4.90683 12.1641 5.00448 12.1641H6.92937C7.02702 12.1641 7.02702 13.3969 6.92937 13.3969H5.00448ZM3.61421 1.07735C3.61421 0.758768 3.92912 0.5 4.3185 0.5C4.70787 0.5 5.02278 0.758768 5.02278 1.07735V3.60644C5.02278 3.92501 4.70787 4.18378 4.3185 4.18378C3.92912 4.18378 3.61421 3.92501 3.61421 3.60644V1.07735ZM0.781186 5.80596H14.2164V3.12064C14.2153 3.02602 14.1777 2.93547 14.1114 2.86797C14.0783 2.83469 14.0389 2.80829 13.9955 2.79028C13.9522 2.77226 13.9057 2.76299 13.8587 2.763H12.5722C12.4686 2.763 12.3693 2.72185 12.296 2.6486C12.2228 2.57535 12.1816 2.476 12.1816 2.37241C12.1816 2.26881 12.2228 2.16947 12.296 2.09622C12.3693 2.02296 12.4686 1.98181 12.5722 1.98181H13.86C14.1617 1.98278 14.4508 2.10307 14.6642 2.31643C14.8775 2.5298 14.9978 2.8189 14.9988 3.12064V14.3612C14.9978 14.6629 14.8775 14.952 14.6642 15.1654C14.4508 15.3787 14.1617 15.499 13.86 15.5H1.13882C0.836875 15.499 0.547588 15.3786 0.334191 15.1649C0.120794 14.9513 0.000643644 14.6619 0 14.36L0 3.12064C0.000965568 2.8189 0.121258 2.5298 0.33462 2.31643C0.547982 2.10307 0.837086 1.98278 1.13882 1.98181H2.51444C2.56574 1.98181 2.61653 1.99192 2.66392 2.01155C2.71131 2.03117 2.75436 2.05995 2.79063 2.09622C2.8269 2.13249 2.85568 2.17554 2.8753 2.22293C2.89493 2.27032 2.90504 2.32111 2.90504 2.37241C2.90504 2.4237 2.89493 2.47449 2.8753 2.52188C2.85568 2.56927 2.8269 2.61233 2.79063 2.6486C2.75436 2.68487 2.71131 2.71364 2.66392 2.73327C2.61653 2.7529 2.56574 2.763 2.51444 2.763H1.13882C1.0442 2.76403 0.953653 2.80165 0.886158 2.86797C0.852881 2.9011 0.826477 2.94047 0.808462 2.98383C0.790448 3.02719 0.781178 3.07368 0.781186 3.12064V5.80596ZM14.2176 6.58837H0.781186V14.36C0.782216 14.4546 0.819836 14.5451 0.886158 14.6126C0.919283 14.6459 0.958657 14.6723 1.00202 14.6903C1.04538 14.7083 1.09187 14.7176 1.13882 14.7176H13.86C13.9546 14.7166 14.0451 14.6789 14.1126 14.6126C14.1459 14.5795 14.1723 14.5401 14.1903 14.4968C14.2083 14.4534 14.2176 14.4069 14.2176 14.36V6.58837ZM6.15551 2.763C6.05191 2.763 5.95256 2.72185 5.87931 2.6486C5.80606 2.57535 5.76491 2.476 5.76491 2.37241C5.76491 2.26881 5.80606 2.16947 5.87931 2.09622C5.95256 2.02296 6.05191 1.98181 6.15551 1.98181H8.77858C8.82988 1.98181 8.88067 1.99192 8.92806 2.01155C8.97544 2.03117 9.0185 2.05995 9.05477 2.09622C9.09104 2.13249 9.11981 2.17554 9.13944 2.22293C9.15907 2.27032 9.16918 2.32111 9.16918 2.37241C9.16918 2.4237 9.15907 2.47449 9.13944 2.52188C9.11981 2.56927 9.09104 2.61233 9.05477 2.6486C9.0185 2.68487 8.97544 2.71364 8.92806 2.73327C8.88067 2.7529 8.82988 2.763 8.77858 2.763H6.15551Z" fill="#0A1932"/>
</svg>
