<svg width="79" height="79" viewBox="0 0 79 79" fill="none" xmlns="http://www.w3.org/2000/svg">
<circle cx="39.6366" cy="39.6718" r="38.8046" fill="#F68B1F"/>
<path d="M51.1997 22.9133L36.7672 19.0454C36.0352 18.8363 32.3747 23.8541 32.1655 24.6904L31.1197 34.5169C30.9105 35.2487 31.3289 36.0849 32.1655 36.294L46.598 40.1619C47.3301 40.371 48.1668 39.9528 48.376 39.1165L52.2456 24.6904C52.3501 23.8541 51.9318 23.1224 51.1997 22.9133Z" stroke="white" stroke-width="2" stroke-miterlimit="22.9256" stroke-linecap="round" stroke-linejoin="round"/>
<path d="M58.625 41.3116L43.6696 41.207C42.9375 41.207 42.2054 41.8342 42.2054 42.566L42.1008 57.5148C42.1008 58.2466 42.7283 58.9783 43.4604 58.9783L58.4158 59.0829C59.1479 59.0829 59.88 58.4556 59.88 57.7239L59.9846 42.7751C59.9846 41.9388 59.3571 41.3116 58.625 41.3116Z" stroke="white" stroke-width="2" stroke-miterlimit="22.9256" stroke-linecap="round" stroke-linejoin="round"/>
<path d="M20.1384 43.8208L33.9434 38.1758C34.6755 37.8622 35.5121 38.1757 35.8259 38.9075L41.4734 52.7064C41.7872 53.4382 41.4734 54.2744 40.7413 54.5881L26.9363 60.2331C26.2042 60.5467 25.3676 60.2331 25.0538 59.5013L19.4063 45.7024C19.0926 44.8661 19.4063 44.1344 20.1384 43.8208Z" stroke="white" stroke-width="2" stroke-miterlimit="22.9256" stroke-linecap="round" stroke-linejoin="round"/>
<path d="M35.5122 33.89L43.4605 23.8545L45.0293 36.5034" stroke="white" stroke-width="2" stroke-miterlimit="22.9256" stroke-linecap="round" stroke-linejoin="round"/>
<path d="M38.7542 29.8125L43.7741 31.1715" stroke="white" stroke-width="2" stroke-miterlimit="22.9256" stroke-linecap="round" stroke-linejoin="round"/>
<path d="M55.5923 52.393C55.3831 53.0202 54.9648 53.6475 54.5465 54.1702C54.1281 54.6928 53.6052 55.111 53.0823 55.4246C52.5594 55.7382 51.9319 55.8427 51.1998 55.8427C50.5723 55.8427 49.9448 55.6337 49.3173 55.4246C48.7944 55.111 48.2714 54.6928 47.8531 54.1702C47.4348 53.6475 47.121 53.0202 46.8073 52.393C46.5981 51.7658 46.3889 50.9295 46.3889 50.1978C46.3889 49.466 46.4935 48.6297 46.8073 48.0024C47.0164 47.3752 47.4348 46.748 47.8531 46.2253C48.2714 45.7026 48.7944 45.2845 49.3173 44.9709C49.8402 44.6573 50.4677 44.5527 51.1998 44.5527C51.8273 44.5527 52.4548 44.7618 53.0823 44.9709C53.6052 45.2845 54.1281 45.7026 54.5465 46.2253C54.9648 46.748 55.2786 47.3752 55.5923 48.0024" stroke="white" stroke-width="2" stroke-miterlimit="22.9256" stroke-linecap="round" stroke-linejoin="round"/>
<path d="M26.7272 50.9295L30.4922 49.4661C32.061 48.8388 32.8976 47.1662 32.3747 45.7027C31.8518 44.2392 30.0739 43.612 28.4005 44.3437L24.6355 45.8073L28.7143 55.8428" stroke="white" stroke-width="2" stroke-miterlimit="22.9256" stroke-linecap="round" stroke-linejoin="round"/>
<path d="M26.7271 50.8247L31.5379 48.943C33.1067 48.3158 34.8845 48.8385 35.4075 50.1975C35.9304 51.5565 35.0937 53.1245 33.525 53.8563L28.7142 55.7379" stroke="white" stroke-width="2" stroke-miterlimit="22.9256" stroke-linecap="round" stroke-linejoin="round"/>
</svg>
