<svg width="79" height="79" viewBox="0 0 79 79" fill="none" xmlns="http://www.w3.org/2000/svg">
<circle cx="39.5819" cy="39.6718" r="38.8046" fill="#009ACC"/>
<path d="M26.054 19.6038C27.9365 19.6038 29.5052 20.7537 30.2373 22.4263C32.6427 20.3355 35.9894 18.9766 39.6498 18.9766C43.3102 18.9766 46.6569 20.3355 49.0623 22.4263C49.6898 20.7537 51.3631 19.6038 53.2456 19.6038C55.7556 19.6038 57.7427 21.59 57.7427 24.0989C57.7427 26.6078 55.7556 28.594 53.2456 28.594C53.141 28.594 52.9318 28.594 52.8273 28.594C53.0364 29.4303 53.1411 30.3711 53.1411 31.3119C53.1411 38.0023 47.0752 43.5428 39.6498 43.5428C32.2244 43.5428 26.1585 38.1068 26.1585 31.3119C26.1585 30.3711 26.2631 29.5348 26.4723 28.594C26.3677 28.594 26.2631 28.594 26.054 28.594C23.544 28.594 21.5569 26.6078 21.5569 24.0989C21.5569 21.59 23.544 19.6038 26.054 19.6038Z" stroke="white" stroke-width="2" stroke-miterlimit="22.9256" stroke-linecap="round" stroke-linejoin="round"/>
<path d="M39.5452 30.5801C43.4148 30.5801 46.5522 32.7754 46.5522 35.4933C46.5522 38.2113 43.4148 40.4066 39.5452 40.4066C35.6756 40.4066 32.5381 38.2113 32.5381 35.4933C32.5381 32.7754 35.6756 30.5801 39.5452 30.5801Z" stroke="white" stroke-width="2" stroke-miterlimit="22.9256" stroke-linecap="round" stroke-linejoin="round"/>
<path d="M34.9436 29.7441C35.3619 29.7441 35.7802 30.1623 35.7802 30.5804C35.7802 30.9986 35.3619 31.4168 34.9436 31.4168C34.5253 31.4168 34.1069 30.9986 34.1069 30.5804C34.1069 30.1623 34.4207 29.7441 34.9436 29.7441Z" stroke="white" stroke-width="2" stroke-miterlimit="22.9256" stroke-linecap="round" stroke-linejoin="round"/>
<path d="M44.2515 29.7441C44.6698 29.7441 45.0882 30.1623 45.0882 30.5804C45.0882 30.9986 44.6698 31.4168 44.2515 31.4168C43.8332 31.4168 43.4148 30.9986 43.4148 30.5804C43.4148 30.1623 43.8332 29.7441 44.2515 29.7441Z" stroke="white" stroke-width="2" stroke-miterlimit="22.9256" stroke-linecap="round" stroke-linejoin="round"/>
<path d="M39.5453 33.9258V40.0935" stroke="white" stroke-width="2" stroke-miterlimit="22.9256" stroke-linecap="round" stroke-linejoin="round"/>
<path d="M39.5453 33.7158C40.8003 33.7158 41.7415 34.0294 41.7415 34.4476C41.7415 34.8657 40.8003 35.1794 39.5453 35.1794C38.2903 35.1794 37.349 34.8657 37.349 34.4476C37.349 34.0294 38.3949 33.7158 39.5453 33.7158Z" stroke="white" stroke-width="2" stroke-miterlimit="22.9256" stroke-linecap="round" stroke-linejoin="round"/>
<path d="M57.3243 49.2924C55.0235 47.2016 50.7355 47.7243 47.598 50.4422C44.5651 53.1602 43.9377 57.0281 46.1339 59.0143C48.4348 61.105 52.7227 60.5824 55.8602 57.8644C58.8931 55.251 59.6252 51.3831 57.3243 49.2924Z" stroke="white" stroke-width="2" stroke-miterlimit="22.9256" stroke-linecap="round" stroke-linejoin="round"/>
<path d="M21.8706 49.2924C24.1715 47.2016 28.4594 47.7243 31.5969 50.4422C34.6298 53.1602 35.2573 57.0281 33.061 59.0143C30.7602 61.105 26.4723 60.5824 23.3348 57.8644C20.1973 55.251 19.5698 51.3831 21.8706 49.2924Z" stroke="white" stroke-width="2" stroke-miterlimit="22.9256" stroke-linecap="round" stroke-linejoin="round"/>
<path d="M46.4478 42.3926C46.8661 43.0198 47.2844 43.647 47.5981 44.3787C47.9119 45.1105 48.2257 45.8423 48.5394 46.5741C48.644 46.9922 49.1669 48.7693 49.1669 49.0829" stroke="white" stroke-width="2" stroke-miterlimit="22.9256" stroke-linecap="round" stroke-linejoin="round"/>
<path d="M46.0293 59.4326C44.4606 60.2689 41.5323 60.3734 39.5452 60.3734C37.5581 60.3734 34.6298 60.2689 33.061 59.4326" stroke="white" stroke-width="2" stroke-miterlimit="22.9256" stroke-linecap="round" stroke-linejoin="round"/>
<path d="M29.9236 49.1875C30.0282 48.7693 30.4465 46.9922 30.5511 46.6786C30.7602 45.9468 31.074 45.2151 31.4923 44.4833C31.8061 43.7515 32.2244 43.1243 32.6427 42.4971" stroke="white" stroke-width="2" stroke-miterlimit="22.9256" stroke-linecap="round" stroke-linejoin="round"/>
<path d="M25.7402 47.7242C25.2173 47.097 25.1127 46.0516 25.4265 44.9017C25.7402 43.7518 26.4723 42.3928 27.4135 41.1384C27.9365 40.5111 28.4594 39.9885 28.9823 39.5703" stroke="white" stroke-width="2" stroke-miterlimit="22.9256" stroke-linecap="round" stroke-linejoin="round"/>
<path d="M53.3502 47.7242C53.8731 47.097 53.9778 46.0516 53.664 44.9017C53.3503 43.7518 52.6182 42.3928 51.6769 41.1384C51.154 40.5111 50.6311 39.9885 50.1082 39.5703" stroke="white" stroke-width="2" stroke-miterlimit="22.9256" stroke-linecap="round" stroke-linejoin="round"/>
</svg>
