<svg width="79" height="79" viewBox="0 0 79 79" fill="none" xmlns="http://www.w3.org/2000/svg">
<circle cx="39.5272" cy="39.6718" r="38.8046" fill="#BE1A8D"/>
<path d="M34.9568 43.042L25.2306 47.6416C21.8839 49.2097 20.6289 51.5095 20.7335 53.7048C20.7335 55.3774 21.4656 56.8409 22.616 57.9908C23.7664 59.1407 25.3352 59.8724 26.9039 59.8724C29.1002 59.8724 31.401 58.618 32.9697 55.2728L37.5714 45.5509" stroke="white" stroke-width="2" stroke-miterlimit="22.9256" stroke-linecap="round" stroke-linejoin="round"/>
<path d="M59.4294 41.3689C55.7689 41.787 49.7031 40.2189 45.206 35.7238C40.7089 31.2288 39.1402 25.1656 39.5585 21.5068" stroke="white" stroke-width="2" stroke-miterlimit="22.9256" stroke-linecap="round" stroke-linejoin="round"/>
<path d="M57.3377 23.7025C51.6902 18.0575 42.696 18.0575 37.0485 23.7025C31.401 29.3475 31.401 38.3377 37.0485 43.9827C42.696 49.6277 51.6902 49.6277 57.3377 43.9827C62.9852 38.3377 62.9852 29.243 57.3377 23.7025Z" stroke="white" stroke-width="2" stroke-miterlimit="22.9256" stroke-linecap="round" stroke-linejoin="round"/>
<path d="M56.7101 44.4012C53.0497 44.8194 46.7747 43.2513 42.2776 38.6517C37.7805 34.1566 36.1072 27.9889 36.5255 24.2256" stroke="white" stroke-width="2" stroke-miterlimit="22.9256" stroke-linecap="round" stroke-linejoin="round"/>
</svg>
