<svg width="79" height="79" viewBox="0 0 79 79" fill="none" xmlns="http://www.w3.org/2000/svg">
<ellipse cx="39.4491" cy="39.6719" rx="38.8046" ry="38.8047" fill="#019772"/>
<path d="M47.6839 39.8392C45.5922 36.0758 36.4935 32.5216 31.3689 32.3125" stroke="white" stroke-width="2" stroke-miterlimit="22.9256" stroke-linecap="round" stroke-linejoin="round"/>
<path d="M37.3302 20.8095C36.9119 21.8549 37.5394 22.9003 38.899 22.7957L43.919 23.0048C44.5465 23.0048 44.9649 22.4821 45.0694 21.8549L45.3832 20.3914C45.4878 19.7642 44.9648 18.9278 43.7098 19.0324H40.8861C38.899 19.0324 38.2715 19.4505 37.3302 20.8095ZM37.3302 20.8095C36.389 20.8095 35.4477 20.8095 34.7157 21.0186C33.3561 21.3322 32.8332 21.8549 32.5194 23.1093C32.4149 23.2139 32.4149 23.4229 32.4149 23.632L29.8003 48.7209" stroke="white" stroke-width="2" stroke-miterlimit="22.9256" stroke-linecap="round" stroke-linejoin="round"/>
<path d="M51.8672 52.9003C51.4488 45.0601 49.148 41.7149 47.6838 39.8332L51.0305 34.7109C52.39 35.5472 55.0047 36.1744 56.3643 35.3381C58.1422 34.0837 58.6651 31.0521 55.423 30.5294C52.4947 30.1112 46.4289 30.2158 45.906 31.3657C45.1739 33.4565 49.6709 34.0836 50.9259 34.7109" stroke="white" stroke-width="2" stroke-miterlimit="22.9256" stroke-linecap="round" stroke-linejoin="round"/>
<path d="M29.6956 47.3672C30.5323 47.3672 31.1597 47.9944 31.1597 48.8307C31.1597 49.667 30.5323 50.2942 29.6956 50.2942C28.859 50.2942 28.2314 49.667 28.2314 48.8307C28.2314 47.9944 28.859 47.3672 29.6956 47.3672Z" stroke="white" stroke-width="2" stroke-miterlimit="22.9256" stroke-linecap="round" stroke-linejoin="round"/>
<path d="M29.6956 39.9453C34.611 39.9453 38.5851 43.9177 38.5851 48.831C38.5851 53.7442 34.611 57.7166 29.6956 57.7166C24.7801 57.7166 20.8059 53.7442 20.8059 48.831C20.8059 43.9177 24.7801 39.9453 29.6956 39.9453Z" stroke="white" stroke-width="2" stroke-miterlimit="22.9256" stroke-linecap="round" stroke-linejoin="round"/>
<path d="M51.9719 47.8828C54.691 47.8828 56.7827 50.0781 56.7827 52.6915C56.7827 55.4095 54.5864 57.5002 51.9719 57.5002C49.2527 57.5002 47.1611 55.3049 47.1611 52.6915C47.0565 50.0781 49.2527 47.8828 51.9719 47.8828Z" stroke="white" stroke-width="1.5" stroke-miterlimit="22.9256" stroke-linecap="round" stroke-linejoin="round"/>
<path d="M51.9718 51.3359C52.8084 51.3359 53.436 51.9632 53.436 52.7995C53.436 53.6358 52.8084 54.263 51.9718 54.263C51.1351 54.263 50.5076 53.6358 50.5076 52.7995C50.5076 51.9632 51.1351 51.3359 51.9718 51.3359Z" stroke="white" stroke-width="2" stroke-miterlimit="22.9256" stroke-linecap="round" stroke-linejoin="round"/>
</svg>
