<svg width="45" height="45" viewBox="0 0 45 45" fill="none" xmlns="http://www.w3.org/2000/svg">
<path d="M42.8218 22.0741C42.8218 33.5314 33.5338 42.8193 22.0765 42.8193C10.6192 42.8193 1.33125 33.5314 1.33125 22.0741C1.33125 10.6167 10.6192 1.32875 22.0765 1.32875C33.5338 1.32875 42.8218 10.6167 42.8218 22.0741Z" fill="white" stroke="#3F3A64" stroke-width="1.1"/>
<path d="M36.9855 36.9369C40.6676 33.2549 42.99 28.211 43.1334 22.625H43.3702H43.593C43.3007 34.2502 33.7699 43.6 22.0749 43.6C10.1961 43.6 0.55 33.9539 0.55 22.075C0.55 10.1961 10.1961 0.55 22.0749 0.55C33.7699 0.55 43.3007 9.89977 43.593 21.525H43.3702H43.1334C42.99 15.9391 40.6676 10.8951 36.9855 7.21308C33.1831 3.41058 27.9281 1.05811 22.1237 1.05811C16.3192 1.05811 11.0643 3.41058 7.26178 7.21308C3.45929 11.0156 1.10684 16.2706 1.10684 22.075C1.10684 27.8794 3.45929 33.1344 7.26178 36.9369C11.0643 40.7394 16.3192 43.0919 22.1237 43.0919C27.9281 43.0919 33.1831 40.7394 36.9855 36.9369Z" fill="white" stroke="#3F3A64" stroke-width="1.1"/>
<path d="M36.165 23.2812L37.3969 22.3009H35.8225H15.9892C15.8543 22.3009 15.7595 22.206 15.7595 22.0712C15.7595 21.9364 15.8544 21.8415 15.9892 21.8415H38.0154C38.081 21.8415 38.1255 21.8598 38.1525 21.8792C38.1774 21.8969 38.2023 21.9255 38.2175 21.9787L38.2208 21.9901L38.2246 22.0015C38.2443 22.0606 38.2369 22.181 38.1309 22.2978L27.2276 31.0301C27.1306 31.0572 27.0452 31.0724 27.0023 31.0724C26.9341 31.0724 26.902 31.0575 26.8617 31.0056C26.824 30.9502 26.8063 30.8787 26.8128 30.8088C26.8194 30.7386 26.8467 30.6989 26.8647 30.6826L36.165 23.2812Z" fill="#3F3A64" stroke="#3F3A64" stroke-width="1.1"/>
<path d="M26.907 13.5048L26.8953 13.4954L26.8831 13.4867C26.8486 13.4621 26.8288 13.4273 26.8247 13.3834C26.8205 13.3388 26.8331 13.279 26.8835 13.2201L26.8993 13.2016L26.9135 13.1819C26.9381 13.1474 26.9729 13.1276 27.0167 13.1235C27.0614 13.1193 27.1212 13.1319 27.18 13.1823L27.1871 13.1884L27.1944 13.1942L38.1588 21.9657L38.1705 21.9751L38.1827 21.9838C38.2171 22.0084 38.2369 22.0432 38.2411 22.0871C38.2449 22.1277 38.2348 22.1809 38.1949 22.2345C38.1449 22.279 38.0896 22.302 38.0151 22.302C37.9988 22.302 37.9644 22.2986 37.9225 22.2866C37.89 22.2773 37.8641 22.2661 37.8462 22.2562L26.907 13.5048Z" fill="#3F3A64" stroke="#3F3A64" stroke-width="1.1"/>
<path d="M5.98539 22.1453C5.96567 22.0862 5.97307 21.9658 6.07901 21.849L16.9823 13.1167C17.0793 13.0896 17.1648 13.0744 17.2077 13.0744C17.2758 13.0744 17.308 13.0893 17.3483 13.1412C17.386 13.1966 17.4037 13.268 17.3971 13.338C17.3906 13.4081 17.3633 13.4478 17.3453 13.4642L8.04497 20.8655L6.81308 21.8459H8.38745H28.2208C28.3556 21.8459 28.4505 21.9408 28.4505 22.0756C28.4505 22.2104 28.3556 22.3053 28.2208 22.3053H6.19458C6.12897 22.3053 6.08446 22.2869 6.0574 22.2676C6.03257 22.2499 6.00763 22.2213 5.99246 22.1681L5.98917 22.1567L5.98539 22.1453Z" fill="#3F3A64" stroke="#3F3A64" stroke-width="1.1"/>
<path d="M17.3067 30.693L17.3184 30.7024L17.3306 30.7111C17.3651 30.7357 17.3849 30.7705 17.389 30.8144C17.3932 30.859 17.3806 30.9188 17.3302 30.9777L17.3144 30.9961L17.3002 31.0159C17.2756 31.0504 17.2408 31.0702 17.197 31.0743C17.1523 31.0785 17.0925 31.0659 17.0336 31.0155L17.0266 31.0094L17.0193 31.0036L6.0549 22.2321L6.04319 22.2227L6.031 22.214C5.99654 22.1894 5.97674 22.1546 5.97263 22.1107C5.96882 22.0701 5.97888 22.0169 6.01876 21.9633C6.06882 21.9188 6.12413 21.8958 6.19862 21.8958C6.21491 21.8958 6.24924 21.8992 6.29119 21.9112C6.32363 21.9205 6.34955 21.9317 6.36746 21.9416L17.3067 30.693Z" fill="#3F3A64" stroke="#3F3A64" stroke-width="1.1"/>
</svg>
