<svg width="212" height="292" viewBox="0 0 212 292" fill="none" xmlns="http://www.w3.org/2000/svg">
<path d="M3.49974 270.444V270.434L3.4996 270.423L2.13145 170.46C12.1417 165.739 18.6971 156.718 18.6971 145.5C18.6971 134.409 13.5588 125.31 3.49974 120.535V21.556C3.49974 10.5264 12.6129 1.5 23.8281 1.5H190.171C201.387 1.5 210.5 10.5264 210.5 21.556V120.967C205.318 123.042 201.646 126.122 199.265 130.163C196.755 134.423 195.763 139.609 195.763 145.5C195.763 151.391 196.754 156.462 199.276 160.605C201.665 164.531 205.34 167.482 210.5 169.534V270.444C210.5 281.474 201.387 290.5 190.171 290.5H23.8281C12.6129 290.5 3.49974 281.474 3.49974 270.444Z" fill="white" stroke="#009ACC" stroke-width="3"/>
</svg>
