<svg width="212" height="292" viewBox="0 0 212 292" fill="none" xmlns="http://www.w3.org/2000/svg">
<path d="M2.96068 270.444V270.434L2.96054 270.423L1.59238 170.46C11.6026 165.739 18.158 156.718 18.158 145.5C18.158 134.409 13.0197 125.31 2.96068 120.535V21.556C2.96068 10.5264 12.0739 1.5 23.2891 1.5H189.632C200.848 1.5 209.961 10.5264 209.961 21.556V118.965C204.793 121.016 201.003 123.975 198.502 128.144C195.866 132.539 194.763 138.11 194.763 145C194.763 150.916 195.879 156.338 198.491 160.83C200.966 165.085 204.734 168.417 209.961 170.531V270.444C209.961 281.474 200.848 290.5 189.632 290.5H23.2891C12.0739 290.5 2.96068 281.474 2.96068 270.444Z" fill="white" stroke="#EEBA00" stroke-width="3"/>
</svg>
