<svg width="56" height="56" viewBox="0 0 56 56" fill="none" xmlns="http://www.w3.org/2000/svg">
<rect width="56" height="56" rx="28" fill="#F8F8F8"/>
<path d="M40.3738 36.5651C39.91 37.6365 39.361 38.6228 38.725 39.5295C37.858 40.7656 37.1482 41.6212 36.6011 42.0963C35.7531 42.8762 34.8445 43.2756 33.8715 43.2983C33.173 43.2983 32.3306 43.0996 31.3501 42.6964C30.3663 42.2951 29.4622 42.0963 28.6356 42.0963C27.7686 42.0963 26.8388 42.2951 25.8443 42.6964C24.8482 43.0996 24.0458 43.3097 23.4323 43.3305C22.4992 43.3703 21.5692 42.9595 20.6409 42.0963C20.0484 41.5795 19.3073 40.6936 18.4195 39.4386C17.467 38.0984 16.6839 36.5443 16.0704 34.7725C15.4134 32.8587 15.084 31.0056 15.084 29.2114C15.084 27.1562 15.5281 25.3837 16.4176 23.8983C17.1166 22.7052 18.0466 21.764 19.2106 21.0731C20.3746 20.3822 21.6323 20.0301 22.9867 20.0075C23.7277 20.0075 24.6996 20.2368 25.9073 20.6873C27.1116 21.1393 27.8848 21.3686 28.2239 21.3686C28.4773 21.3686 29.3364 21.1005 30.7926 20.5661C32.1697 20.0706 33.332 19.8654 34.2841 19.9462C36.8642 20.1544 38.8026 21.1715 40.0917 23.0039C37.7842 24.402 36.6428 26.3603 36.6655 28.8724C36.6863 30.8291 37.3961 32.4574 38.7912 33.7503C39.4235 34.3504 40.1296 34.8142 40.9151 35.1435C40.7448 35.6376 40.5649 36.1108 40.3738 36.5651ZM34.4564 13.28C34.4564 14.8137 33.8961 16.2457 32.7793 17.5711C31.4315 19.1468 29.8013 20.0573 28.0334 19.9136C28.0109 19.7297 27.9979 19.536 27.9979 19.3325C27.9979 17.8602 28.6388 16.2845 29.777 14.9962C30.3453 14.3438 31.068 13.8015 31.9445 13.3688C32.819 12.9426 33.6462 12.7069 34.4242 12.6665C34.4469 12.8715 34.4564 13.0766 34.4564 13.28V13.28Z" fill="#0A1932"/>
</svg>
