<svg width="729" height="678" viewBox="0 0 729 678" fill="none" xmlns="http://www.w3.org/2000/svg">
<g opacity="0.2" clip-path="url(#clip0_5621_61742)">
<mask id="mask0_5621_61742" style="mask-type:luminance" maskUnits="userSpaceOnUse" x="7" y="-151" width="729" height="562">
<path d="M736 -151H7V410.505H736V-151Z" fill="white"/>
</mask>
<g mask="url(#mask0_5621_61742)">
<path d="M277.854 -3.17676C273.74 -3.17676 270.492 -0.384138 270.492 3.1532C270.492 6.69053 273.74 9.48318 277.854 9.48318C281.967 9.48318 285.215 6.69053 285.215 3.1532C285.215 -0.384138 281.967 -3.17676 277.854 -3.17676Z" fill="#019772"/>
</g>
<mask id="mask1_5621_61742" style="mask-type:luminance" maskUnits="userSpaceOnUse" x="7" y="-151" width="729" height="562">
<path d="M736 -151H7V410.505H736V-151Z" fill="white"/>
</mask>
<g mask="url(#mask1_5621_61742)">
<path d="M414.913 60.6815C414.047 58.8198 411.665 57.8889 409.5 58.8198C407.335 59.5645 406.252 61.6124 407.335 63.4742C408.201 65.3359 410.583 66.2668 412.748 65.3359C414.696 64.5912 415.779 62.5433 414.913 60.6815Z" fill="#019772"/>
</g>
<mask id="mask2_5621_61742" style="mask-type:luminance" maskUnits="userSpaceOnUse" x="7" y="-151" width="729" height="562">
<path d="M736 -151H7V410.505H736V-151Z" fill="white"/>
</mask>
<g mask="url(#mask2_5621_61742)">
<path d="M57.8793 62.1701C61.56 63.2871 65.8903 66.0797 66.9729 70.1756C67.4059 72.0373 66.9729 74.0853 65.6738 75.7608C64.5912 77.0641 63.2921 77.995 61.56 78.1811C57.8793 78.7397 54.4151 76.1332 53.3325 73.1544C52.25 70.1756 52.8995 66.4521 55.2812 62.9148C55.4977 62.5424 55.9307 61.9839 56.1472 61.6115C56.7968 61.7977 57.4463 61.9839 57.8793 62.1701ZM28.8665 83.9526C30.1656 83.7664 30.8152 82.8355 30.5987 81.7185C29.2996 75.7609 32.1142 69.0585 37.5271 65.1489C41.2078 62.5424 46.1876 61.053 51.1674 61.053C48.1362 65.5212 47.2702 70.3618 48.7858 74.2715C49.6518 76.6917 51.3839 78.7397 53.7656 80.2291C56.3637 81.7185 59.1784 82.4632 61.9931 81.9046C64.8077 81.5323 67.1894 80.0429 69.138 77.8088C71.0866 75.2023 71.9527 72.0373 71.0866 69.2447C69.7875 64.5903 65.2408 60.4945 59.1784 58.4466C59.1784 58.4466 59.1784 58.4466 58.9619 58.4466C64.8077 53.606 73.6848 51.1857 81.9123 52.6751C83.2114 52.8613 84.2939 52.3027 84.5104 51.1857C84.727 50.0686 84.0774 49.1378 82.7783 48.9516C76.9325 47.8345 70.4371 48.3931 64.5912 50.6272C60.4775 52.3027 56.7968 54.5369 53.9821 57.5157C47.0537 56.771 39.6922 58.4465 34.4959 62.3562C27.784 67.1968 24.3198 75.2023 26.0519 82.6494C26.2684 83.5802 27.1344 84.3249 28.217 84.3249C28.65 84.1388 28.65 84.1388 28.8665 83.9526Z" fill="#4A003D"/>
</g>
<mask id="mask3_5621_61742" style="mask-type:luminance" maskUnits="userSpaceOnUse" x="7" y="-151" width="729" height="562">
<path d="M736 -151H7V410.505H736V-151Z" fill="white"/>
</mask>
<g mask="url(#mask3_5621_61742)">
<path d="M244.943 8.92553C244.727 8.92553 244.727 8.92553 244.51 8.92553C243.211 8.73936 242.345 7.6223 242.561 6.50525L245.376 -7.08557H231.303C230.653 -7.08557 230.004 -7.27172 229.571 -7.64407C229.138 -8.01642 228.921 -8.57496 228.921 -9.13348L229.571 -20.304H216.58C215.93 -20.304 215.064 -20.6764 214.631 -21.0487C214.198 -21.6073 213.982 -22.1658 214.198 -22.9105L218.095 -33.3363C218.528 -34.4533 219.828 -35.0119 221.127 -34.6395C222.426 -34.2672 223.075 -33.1501 222.642 -32.0331L219.828 -24.2137H232.169C232.818 -24.2137 233.468 -24.0275 233.901 -23.6552C234.334 -23.2828 234.55 -22.7243 234.55 -22.1658L233.901 -10.9952H248.407C249.057 -10.9952 249.706 -10.8091 250.139 -10.2505C250.572 -9.8782 250.789 -9.13348 250.572 -8.57495L247.325 7.43612C247.108 8.367 246.026 8.92553 244.943 8.92553Z" fill="#4A003D"/>
</g>
<mask id="mask4_5621_61742" style="mask-type:luminance" maskUnits="userSpaceOnUse" x="7" y="-151" width="729" height="562">
<path d="M736 -151H7V410.505H736V-151Z" fill="white"/>
</mask>
<g mask="url(#mask4_5621_61742)">
<path d="M373.556 2.59393H363.163C361.864 2.59393 360.781 1.66304 360.781 0.545988C360.781 -0.571065 361.864 -1.50195 363.163 -1.50195H373.556C374.855 -1.50195 375.937 -0.571065 375.937 0.545988C375.937 1.66304 374.855 2.59393 373.556 2.59393Z" fill="white"/>
</g>
<mask id="mask5_5621_61742" style="mask-type:luminance" maskUnits="userSpaceOnUse" x="7" y="-151" width="729" height="562">
<path d="M736 -151H7V410.505H736V-151Z" fill="white"/>
</mask>
<g mask="url(#mask5_5621_61742)">
<path d="M631.855 89.911C631.205 87.6769 630.989 85.0704 632.504 83.3948C634.236 81.5331 637.484 81.1607 640.082 82.2778C642.464 83.3948 644.196 85.6289 644.846 87.863C645.495 90.0971 645.495 92.5174 645.279 94.9377C646.578 92.7036 648.093 90.4695 650.258 88.7939C652.424 87.1183 655.238 85.8151 658.053 86.0013C661.084 86.1874 663.899 87.863 664.548 90.2833C665.414 93.8206 661.95 96.7994 658.702 99.2197C654.805 101.826 645.928 111.135 640.948 108.342C635.752 105.177 633.154 94.7515 631.855 89.911Z" fill="#4A003D"/>
</g>
<mask id="mask6_5621_61742" style="mask-type:luminance" maskUnits="userSpaceOnUse" x="7" y="-151" width="729" height="562">
<path d="M736 -151H7V410.505H736V-151Z" fill="white"/>
</mask>
<g mask="url(#mask6_5621_61742)">
<path d="M640.086 56.7724C639.436 56.7724 638.787 56.4001 638.354 56.0277C637.704 55.283 637.921 54.1659 639.003 53.6074C657.84 42.8092 674.295 26.7981 684.255 9.67C694.431 -7.83049 696.812 -24.5863 691.183 -37.4324C686.853 -47.4858 677.759 -54.7467 664.335 -59.0287C648.963 -64.0555 628.178 -64.9863 602.846 -61.8214C563.224 -56.9808 523.169 -40.225 496.538 -26.8204C467.525 -12.2987 447.822 1.10593 447.606 1.2921C446.74 1.85063 445.44 1.85063 444.791 0.919757C444.141 0.175056 444.141 -0.942003 445.224 -1.50053C445.44 -1.6867 465.36 -15.2775 494.589 -29.7992C511.694 -38.3633 528.798 -45.6241 545.037 -51.2094C565.389 -58.284 584.659 -62.9384 602.413 -65.1725C628.394 -68.3375 649.829 -67.2204 665.851 -62.1937C673.212 -59.7734 679.491 -56.4223 684.471 -52.3264C689.234 -48.4167 692.699 -43.7623 695.08 -38.5494C701.143 -24.7724 698.761 -6.89962 688.152 11.5318C683.172 20.282 676.46 28.6599 668.666 36.2931C660.438 44.2986 651.345 51.1871 641.601 56.7724C640.952 56.7724 640.519 56.7724 640.086 56.7724Z" fill="white"/>
</g>
<mask id="mask7_5621_61742" style="mask-type:luminance" maskUnits="userSpaceOnUse" x="7" y="-151" width="729" height="562">
<path d="M736 -151H7V410.505H736V-151Z" fill="white"/>
</mask>
<g mask="url(#mask7_5621_61742)">
<path d="M151.413 -65.546C152.712 -65.546 153.795 -66.2907 153.795 -67.4078C153.795 -68.5248 152.929 -69.2695 151.63 -69.2695H151.413C150.331 -69.2695 149.248 -68.5248 149.465 -67.4078C149.465 -66.4769 150.331 -65.546 151.413 -65.546ZM165.703 -66.6631C165.703 -67.7801 164.837 -68.5248 163.755 -68.711H163.538H163.321C162.239 -68.711 161.373 -67.9663 161.373 -67.0354C161.373 -66.6631 161.373 -66.1046 161.806 -65.7322C162.239 -65.3599 162.672 -65.1737 163.105 -65.1737C163.105 -65.1737 163.105 -65.1737 163.321 -65.1737C163.321 -65.1737 163.321 -65.1737 163.538 -65.1737H163.755C164.621 -65.1737 165.703 -65.7322 165.703 -66.6631ZM139.938 -64.9875H140.155C141.237 -65.1737 141.887 -65.9184 141.887 -66.8492V-67.0354C141.887 -67.4078 141.454 -67.7801 141.237 -68.1525C140.804 -68.5248 140.155 -68.711 139.505 -68.5248H139.289C138.856 -68.5248 138.206 -68.1525 137.989 -67.7801C137.773 -67.4078 137.556 -66.8493 137.556 -66.4769C137.556 -66.1045 137.989 -65.7322 138.206 -65.3598C138.639 -64.9875 139.072 -64.9875 139.505 -64.9875C139.722 -64.8013 139.722 -64.8013 139.938 -64.9875ZM177.611 -64.9875C177.611 -65.1737 177.611 -65.1737 177.611 -65.3598C177.611 -66.2907 176.962 -66.8493 175.879 -67.0354H175.663C175.446 -67.0354 175.446 -67.0354 175.23 -67.0354C174.147 -67.0354 173.498 -66.4769 173.281 -65.546C173.065 -64.6151 173.714 -63.6843 175.013 -63.4981H175.23C175.446 -63.4981 175.446 -63.4981 175.663 -63.4981C176.529 -63.4981 177.395 -64.2428 177.611 -64.9875ZM128.679 -62.5672C129.762 -62.9396 130.195 -63.4981 130.195 -64.2428C130.195 -64.429 130.195 -64.6152 129.978 -64.8013C129.762 -65.546 128.896 -65.9184 128.03 -65.9184C127.813 -65.9184 127.597 -65.9184 127.38 -65.7322C127.38 -65.7322 127.38 -65.7322 127.164 -65.7322C126.081 -65.3599 125.432 -64.429 125.865 -63.4981C126.081 -62.7534 126.947 -62.1949 127.813 -62.1949C128.246 -62.5672 128.463 -62.5672 128.679 -62.5672ZM189.087 -62.5672C189.087 -62.7534 189.087 -62.9396 189.087 -62.9396C189.087 -63.6843 188.437 -64.429 187.571 -64.6151H187.354C187.138 -64.6151 186.921 -64.6151 186.921 -64.6151C186.055 -64.6151 185.189 -64.0566 184.973 -63.3119C184.756 -62.9396 184.973 -62.3811 185.189 -62.0087C185.406 -61.6363 185.839 -61.264 186.488 -61.264C186.488 -61.264 186.488 -61.264 186.705 -61.264C186.705 -61.264 186.705 -61.264 186.921 -61.264C187.138 -61.264 187.354 -61.264 187.354 -61.264C188.004 -61.264 188.87 -61.8225 189.087 -62.5672ZM200.562 -59.5884C200.562 -59.7746 200.562 -59.9608 200.562 -60.1469C200.562 -60.8916 199.912 -61.6363 199.046 -61.8225H198.83C198.613 -61.8225 198.397 -61.8225 198.18 -61.8225C197.314 -61.8225 196.448 -61.264 196.231 -60.5193C196.015 -60.1469 196.015 -59.5884 196.448 -59.2161C196.665 -58.8437 197.098 -58.4714 197.747 -58.2852C197.747 -58.2852 197.747 -58.2852 197.964 -58.2852C198.18 -58.2852 198.397 -58.2852 198.613 -58.2852C199.479 -58.2852 200.345 -58.8437 200.562 -59.5884ZM118.287 -58.4713C119.153 -58.8437 119.369 -59.4022 119.369 -60.1469C119.369 -60.5193 119.369 -60.7055 119.153 -61.0778C118.72 -61.6363 118.07 -62.0087 117.421 -62.0087C116.988 -62.0087 116.771 -62.0087 116.338 -61.8225L116.122 -61.6363C115.256 -61.0778 114.823 -59.9608 115.472 -59.2161C115.905 -58.6575 116.555 -58.2852 117.204 -58.2852C117.421 -58.099 117.854 -58.2852 118.287 -58.4713ZM211.82 -56.0511C211.82 -56.2372 212.037 -56.4234 212.037 -56.6096C212.037 -57.3543 211.604 -57.9128 210.738 -58.2852H210.521C210.305 -58.2852 210.088 -58.4713 209.872 -58.4713C209.006 -58.4713 208.14 -58.099 207.923 -57.3543C207.707 -56.982 207.707 -56.4234 207.923 -56.0511C208.14 -55.6787 208.573 -55.3064 209.006 -55.1202C209.006 -55.1202 209.006 -55.1202 209.222 -55.1202C209.222 -55.1202 209.222 -55.1202 209.439 -55.1202C209.655 -55.1202 209.872 -54.934 210.088 -54.934C210.738 -54.934 211.604 -55.4925 211.82 -56.0511ZM109.193 -52.3276C109.843 -52.8861 110.059 -53.2584 110.059 -53.817C110.059 -54.1893 109.843 -54.7478 109.41 -55.1202C108.977 -55.4925 108.544 -55.6787 107.894 -55.6787C107.461 -55.6787 106.812 -55.4925 106.379 -55.1202L106.162 -54.934C105.296 -54.1893 105.296 -53.0723 106.162 -52.3276C106.595 -51.9552 107.028 -51.7691 107.678 -51.7691C108.327 -51.7691 108.76 -51.9552 109.193 -52.3276ZM222.863 -52.1414C223.079 -52.3276 223.079 -52.5137 223.079 -52.8861C223.079 -53.6308 222.646 -54.1893 221.78 -54.5617H221.564C221.347 -54.7479 221.131 -54.7478 220.697 -54.7478C219.831 -54.7478 219.182 -54.3755 218.749 -53.6308C218.532 -53.2585 218.532 -52.6999 218.749 -52.3276C218.965 -51.9552 219.398 -51.5829 219.831 -51.3967H220.048C220.264 -51.2105 220.481 -51.2105 220.914 -51.2105C221.78 -51.2105 222.646 -51.5829 222.863 -52.1414ZM233.905 -48.0455C234.121 -48.2317 234.121 -48.6041 234.121 -48.7902C234.121 -49.5349 233.688 -50.0934 232.822 -50.4658H232.606C232.389 -50.652 231.956 -50.652 231.74 -50.652C230.874 -50.652 230.224 -50.2796 229.791 -49.5349C229.575 -49.1626 229.575 -48.6041 229.791 -48.2317C230.008 -47.8593 230.441 -47.487 230.874 -47.3008H231.09C231.307 -47.1146 231.74 -47.1147 231.956 -47.1147C232.822 -46.9285 233.472 -47.3008 233.905 -48.0455ZM102.048 -44.6944C102.481 -45.0667 102.481 -45.4391 102.481 -45.8114C102.481 -46.3699 102.048 -46.9285 101.615 -47.3008C101.182 -47.487 100.966 -47.6732 100.533 -47.6732C99.8831 -47.6732 99.2336 -47.3008 98.8005 -46.9285L98.584 -46.7423C98.3675 -46.3699 98.151 -45.8114 98.3675 -45.4391C98.584 -45.0667 98.8005 -44.5082 99.2336 -44.322C99.6666 -44.1359 99.8831 -43.9497 100.316 -43.9497C100.966 -43.7635 101.615 -44.1359 102.048 -44.6944ZM244.514 -43.3912C244.73 -43.5773 244.73 -43.9497 244.73 -44.1358C244.73 -44.8805 244.297 -45.4391 243.648 -45.6253C243.648 -45.6253 243.431 -45.6252 243.431 -45.8114C243.215 -45.9976 242.782 -45.9976 242.565 -45.9976C241.699 -45.9976 241.05 -45.6253 240.617 -45.0667C240.184 -44.1358 240.617 -43.205 241.483 -42.6464H241.699C241.916 -42.4603 242.349 -42.4603 242.565 -42.4603C243.648 -42.4603 244.297 -42.8326 244.514 -43.3912ZM255.123 -38.5506C255.34 -38.7368 255.34 -39.1091 255.34 -39.4815C255.34 -40.04 254.907 -40.7847 254.257 -40.9709C254.257 -40.9709 254.257 -40.9709 254.041 -40.9709C253.824 -41.157 253.391 -41.157 252.958 -41.157C252.308 -41.157 251.442 -40.7847 251.226 -40.2262C251.009 -39.8538 250.793 -39.2953 251.009 -38.9229C251.226 -38.5506 251.442 -38.1782 252.092 -37.8059C252.092 -37.8059 252.308 -37.8059 252.308 -37.6197C252.525 -37.4335 252.958 -37.4335 253.391 -37.4335C254.041 -37.6197 254.907 -37.9921 255.123 -38.5506ZM96.8519 -35.758C97.0684 -36.1303 97.0684 -36.3165 97.0684 -36.5026C97.0684 -37.2473 96.6354 -37.8059 95.7694 -38.1782C95.5529 -38.1782 95.3363 -38.3644 95.1198 -38.3644C94.2538 -38.3644 93.6042 -37.9921 93.1712 -37.2474V-37.0612C92.7382 -36.1303 93.3877 -35.1994 94.4703 -34.8271C94.6868 -34.8271 94.9033 -34.6409 95.1198 -34.6409C95.7694 -34.6409 96.4189 -35.1994 96.8519 -35.758ZM265.516 -33.5239C265.732 -33.71 265.732 -34.0824 265.732 -34.4547C265.732 -35.0133 265.299 -35.758 264.65 -35.9441L264.433 -36.1303C264.217 -36.3165 263.784 -36.3165 263.351 -36.3165C262.701 -36.3165 261.835 -35.9441 261.618 -35.3856C260.969 -34.4547 261.402 -33.5238 262.268 -32.9653H262.485C262.701 -32.7791 263.134 -32.7791 263.567 -32.7791C264.433 -32.593 265.299 -32.9653 265.516 -33.5239ZM275.908 -28.3109C276.125 -28.6833 276.125 -28.8695 276.125 -29.2418C276.125 -29.8003 275.692 -30.3589 275.042 -30.7312C275.042 -30.7312 274.826 -30.7312 274.826 -30.9174C274.393 -31.1036 274.176 -31.1036 273.743 -31.1036C273.094 -31.1036 272.444 -30.7312 272.011 -30.1727C271.795 -29.8003 271.578 -29.2418 271.795 -28.8695C272.011 -28.4971 272.228 -27.9386 272.661 -27.7524H272.877C273.31 -27.5662 273.527 -27.5662 273.96 -27.5662C274.826 -27.3801 275.475 -27.7524 275.908 -28.3109ZM93.6042 -26.263C93.6042 -26.6353 93.6042 -26.6353 93.6042 -26.8215C93.6042 -27.7524 92.9547 -28.4971 91.8721 -28.4971C91.6556 -28.4971 91.6556 -28.4971 91.4391 -28.4971C90.3565 -28.4971 89.4905 -27.9386 89.4905 -27.0077C89.4905 -27.0077 89.4905 -27.0077 89.4905 -26.8215C89.274 -25.8906 89.9235 -24.9598 91.2226 -24.7736C91.4391 -24.7736 91.4391 -24.7736 91.6556 -24.7736C92.7382 -24.7736 93.6042 -25.3321 93.6042 -26.263ZM286.084 -22.7257C286.301 -23.098 286.518 -23.2842 286.518 -23.6565C286.518 -24.2151 286.084 -24.7736 285.651 -25.146L285.435 -25.3321C285.002 -25.5183 284.785 -25.7045 284.352 -25.7045C283.703 -25.7045 283.053 -25.3321 282.62 -24.9598C281.971 -24.2151 282.187 -23.098 283.27 -22.5395C283.27 -22.5395 283.486 -22.5395 283.486 -22.3533C283.919 -22.1672 284.136 -21.981 284.569 -21.981C285.002 -21.981 285.651 -22.1671 286.084 -22.7257ZM296.044 -17.1404C296.261 -17.5128 296.477 -17.6989 296.477 -18.0713C296.477 -18.6298 296.044 -19.1883 295.611 -19.5607C295.611 -19.5607 295.611 -19.5607 295.395 -19.5607C294.962 -19.7469 294.745 -19.933 294.312 -19.933C293.662 -19.933 293.013 -19.5607 292.58 -19.1883C292.363 -18.816 292.147 -18.2574 292.363 -17.8851C292.58 -17.5127 292.796 -16.9542 293.229 -16.7681L293.446 -16.5819C293.879 -16.3957 294.095 -16.2095 294.528 -16.2095C294.962 -16.3957 295.611 -16.5819 296.044 -17.1404ZM91.8721 -15.0925C92.3052 -15.4648 92.5217 -15.8372 92.5217 -16.3957V-16.5819C92.5217 -16.9542 92.3052 -17.5127 91.8721 -17.8851C91.4391 -18.2574 91.0061 -18.4436 90.3565 -18.4436C89.707 -18.4436 89.274 -18.2574 88.8409 -17.8851C88.4079 -17.5127 88.1914 -17.1404 88.1914 -16.5819V-16.3957C88.1914 -15.8372 88.4079 -15.4648 88.8409 -15.0925C89.274 -14.7201 89.707 -14.534 90.3565 -14.534C91.0061 -14.534 91.6556 -14.7201 91.8721 -15.0925ZM305.787 -11.369C306.004 -11.7413 306.22 -11.9275 306.22 -12.2998C306.22 -12.8584 305.787 -13.4169 305.354 -13.7892L305.138 -13.9754C304.705 -14.1616 304.488 -14.3478 304.055 -14.3478C303.406 -14.3478 302.756 -13.9754 302.323 -13.6031C301.673 -12.8584 301.89 -11.7413 302.756 -11.1828C302.756 -11.1828 302.756 -11.1828 302.972 -11.1828C303.406 -10.9966 303.622 -10.8105 304.055 -10.8105C304.921 -10.6243 305.571 -10.8104 305.787 -11.369ZM315.747 -5.41135C315.963 -5.7837 316.18 -6.15606 316.18 -6.52841C316.18 -7.08694 315.747 -7.64547 315.314 -8.01782L315.097 -8.20398C314.664 -8.39016 314.231 -8.57633 313.798 -8.57633C313.149 -8.57633 312.499 -8.20399 312.066 -7.83164C311.633 -7.45928 311.633 -6.90076 311.633 -6.52841C311.633 -6.15606 312.066 -5.59752 312.499 -5.41135L312.716 -5.22519C313.149 -5.03902 313.582 -4.85282 314.015 -4.85282C314.664 -4.66664 315.314 -4.85282 315.747 -5.41135ZM91.4391 -4.29431C92.5217 -4.48049 93.3877 -5.22517 93.1712 -6.34223V-6.52841C92.9547 -7.45929 92.0886 -8.01782 91.2226 -8.01782H91.0061C89.9235 -7.83165 89.274 -7.08695 89.274 -6.15607V-5.96988C89.274 -5.96988 89.274 -5.96987 89.274 -5.78369C89.274 -5.03899 90.14 -4.29431 91.4391 -4.29431C91.2226 -4.29431 91.2226 -4.29431 91.4391 -4.29431ZM325.273 0.732446C325.49 0.360095 325.706 -0.0122669 325.706 -0.384618C325.706 -0.943144 325.49 -1.50168 324.84 -1.87403C324.84 -1.87403 324.624 -1.87401 324.624 -2.06019C324.191 -2.24636 323.758 -2.43256 323.325 -2.43256C322.675 -2.43256 322.026 -2.06019 321.593 -1.68784C320.943 -0.943138 321.16 0.17392 322.026 0.732446C322.026 0.732446 322.242 0.732429 322.242 0.918605C322.675 1.10478 323.108 1.29095 323.541 1.29095C324.407 1.47713 325.057 1.1048 325.273 0.732446ZM93.8207 5.75918C94.9033 5.573 95.5529 4.64211 95.3363 3.71124V3.52508C95.1198 2.78038 94.2538 2.22183 93.3877 2.22183C93.1712 2.22183 92.9547 2.22183 92.9547 2.22183C92.5217 2.408 92.0886 2.59418 91.8721 2.78036C91.6556 3.15271 91.4391 3.52507 91.4391 3.89742C91.4391 4.0836 91.4391 4.08359 91.4391 4.26977V4.45596C91.6556 5.20066 92.5217 5.75918 93.3877 5.75918C93.3877 5.94535 93.6042 5.75918 93.8207 5.75918ZM335.016 6.87621C335.233 6.50386 335.449 6.13153 335.449 5.75918C335.449 5.20065 335.233 4.64212 334.583 4.26977C334.15 4.08359 333.717 3.89742 333.284 3.89742C332.635 3.89742 331.985 4.08359 331.552 4.64211C331.119 5.01446 331.119 5.57298 331.119 5.94534C331.119 6.31769 331.552 6.87622 331.985 7.0624C331.985 7.0624 332.202 7.06241 332.202 7.24859C332.635 7.43476 333.068 7.62093 333.501 7.62093C333.934 7.43476 334.583 7.24856 335.016 6.87621ZM344.543 13.02C344.76 12.6477 344.976 12.2753 344.976 11.903C344.976 11.3444 344.76 10.7859 344.11 10.4136C344.11 10.4136 343.894 10.4136 343.894 10.2274C343.46 10.0412 343.027 9.85503 342.594 9.85503C341.945 9.85503 341.295 10.0412 340.862 10.5997C340.429 10.9721 340.429 11.5306 340.429 11.903C340.429 12.2753 340.862 12.8338 341.295 13.02C341.295 13.02 341.295 13.02 341.512 13.2062C341.945 13.3924 342.378 13.5785 342.811 13.5785C343.46 13.7647 344.11 13.3924 344.543 13.02ZM97.285 15.6265C98.3675 15.2541 99.0171 14.3232 98.584 13.3924V13.2062C98.3675 12.4615 97.5015 12.0891 96.6354 12.0891C96.4189 12.0891 96.2024 12.0891 95.9859 12.2753C95.1198 12.4615 94.4703 13.2062 94.4703 13.9509C94.4703 14.1371 94.4703 14.3232 94.6868 14.5094V14.6956C94.9033 15.4403 95.7694 15.8126 96.6354 15.8126C96.8519 15.8126 97.0684 15.6265 97.285 15.6265ZM354.07 19.35C354.286 18.9776 354.503 18.6053 354.503 18.2329C354.503 17.6744 354.286 17.1159 353.637 16.7435C353.637 16.7435 353.42 16.7435 353.42 16.5574C352.987 16.3712 352.554 16.185 352.121 16.185C351.471 16.185 350.822 16.3712 350.389 16.9297C349.739 17.6744 349.956 18.7915 350.822 19.35C350.822 19.35 351.038 19.35 351.038 19.5361C351.471 19.7223 351.904 19.9085 352.338 19.9085C352.987 19.9085 353.637 19.7223 354.07 19.35ZM101.832 25.1214C102.265 24.9352 102.698 24.5629 102.914 24.1905C103.131 23.8182 103.131 23.2597 102.914 22.8873V22.7011C102.481 22.1426 101.832 21.5841 100.966 21.5841C100.749 21.5841 100.316 21.5841 100.1 21.7702C99.4501 22.1426 98.8005 22.7011 98.8005 23.4458C98.8005 23.632 98.8006 24.0044 99.0171 24.1905V24.3767C99.4501 24.9352 100.1 25.4938 100.966 25.4938C101.182 25.3076 101.399 25.3076 101.832 25.1214ZM363.38 25.4938C363.596 25.1214 363.813 24.7491 363.813 24.3767C363.813 23.8182 363.596 23.2597 362.947 23.0735C362.947 23.0735 362.73 23.0735 362.73 22.8873C362.297 22.7011 361.864 22.515 361.431 22.515C360.782 22.515 360.132 22.7011 359.699 23.2597C359.266 23.632 359.266 24.1905 359.266 24.5629C359.266 24.9352 359.699 25.4938 360.132 25.6799C360.132 25.6799 360.132 25.6799 360.348 25.6799C360.782 25.8661 361.215 26.0523 361.648 26.0523C362.514 26.2385 363.163 26.0523 363.38 25.4938ZM372.906 32.0099C373.123 31.6375 373.339 31.2652 373.339 30.8929C373.339 30.3343 373.123 29.7758 372.473 29.5896C372.473 29.5896 372.473 29.5896 372.257 29.5896C371.824 29.4035 371.391 29.2173 370.958 29.2173C370.308 29.2173 369.659 29.4035 369.442 29.962C369.009 30.3343 369.009 30.7067 369.009 31.2652C369.009 31.6376 369.442 32.1961 369.875 32.3823L370.092 32.5684C370.525 32.7546 370.958 32.9408 371.391 32.9408C371.824 32.5684 372.473 32.3822 372.906 32.0099ZM107.245 34.244C107.678 34.0579 108.111 33.6855 108.327 33.127C108.544 32.7546 108.327 32.1961 108.111 31.8237L107.894 31.6376C107.461 31.079 106.812 30.7067 106.162 30.7067C105.729 30.7067 105.512 30.7067 105.079 30.8929C104.43 31.2652 103.997 31.8237 103.997 32.3823C103.997 32.7546 103.997 32.9408 104.213 33.3131V33.4993C104.646 34.0578 105.296 34.4302 105.945 34.4302C106.595 34.6164 107.028 34.4302 107.245 34.244ZM382.216 38.3399C382.433 37.9675 382.649 37.5952 382.649 37.2228C382.649 36.6643 382.433 36.1058 381.783 35.9196L381.567 35.7334C381.134 35.5472 380.701 35.3611 380.268 35.3611C379.618 35.3611 378.969 35.5473 378.752 36.1058C378.319 36.4781 378.319 36.8505 378.319 37.409C378.319 37.7814 378.752 38.3399 379.185 38.526C379.185 38.526 379.402 38.526 379.402 38.7122C379.835 38.8984 380.268 39.0846 380.701 39.0846C381.35 39.0846 381.783 38.7122 382.216 38.3399ZM391.526 44.6698C391.743 44.2975 391.959 43.9251 391.959 43.5528C391.959 42.9943 391.743 42.4357 391.093 42.2495C391.093 42.2495 390.877 42.2496 390.877 42.0634C390.444 41.8772 390.011 41.691 389.578 41.691C388.928 41.691 388.279 41.8772 388.062 42.4357C387.629 42.8081 387.629 43.1804 387.629 43.739C387.629 44.1113 388.062 44.6698 388.495 44.856C388.495 44.856 388.495 44.856 388.712 45.0422C389.145 45.2284 389.578 45.4146 390.011 45.4146C390.66 45.4146 391.31 45.2284 391.526 44.6698ZM401.053 51.186C401.486 50.8136 401.486 50.4413 401.486 49.8828C401.486 49.5104 401.053 48.9519 400.62 48.7657L400.403 48.5795C399.97 48.3934 399.537 48.2072 399.104 48.2072C398.455 48.2072 397.805 48.3933 397.589 48.9519C396.939 49.6966 396.939 50.8136 398.022 51.3722L398.238 51.5583C398.671 51.7445 399.104 51.9307 399.537 51.9307C399.97 51.7445 400.62 51.5583 401.053 51.186Z" fill="white"/>
</g>
<mask id="mask8_5621_61742" style="mask-type:luminance" maskUnits="userSpaceOnUse" x="7" y="-151" width="729" height="562">
<path d="M736 -151H7V410.505H736V-151Z" fill="white"/>
</mask>
<g mask="url(#mask8_5621_61742)">
<path d="M505.625 9.6684C504.326 9.6684 503.243 8.9237 503.243 7.80664C501.944 -8.94915 489.82 -24.7741 472.282 -32.2211C454.744 -39.6681 432.877 -38.3648 416.422 -29.0561C415.339 -28.4975 413.823 -28.6837 413.174 -29.6146C412.524 -30.5455 412.741 -31.8487 413.824 -32.4072C422.484 -37.434 432.66 -40.2266 443.486 -40.9713C454.311 -41.5298 464.921 -39.8543 474.231 -35.7584C483.541 -31.8487 491.768 -25.5187 497.614 -17.8855C503.676 -10.0662 507.141 -1.31594 507.79 7.62049C508.223 8.55136 507.141 9.48222 505.625 9.6684Z" fill="#4A003D"/>
</g>
<mask id="mask9_5621_61742" style="mask-type:luminance" maskUnits="userSpaceOnUse" x="7" y="-151" width="729" height="562">
<path d="M736 -151H7V410.505H736V-151Z" fill="white"/>
</mask>
<g mask="url(#mask9_5621_61742)">
<path d="M505.631 9.66938C504.981 9.66938 504.548 9.48323 504.115 9.11088L490.908 -0.942615C489.825 -1.68732 489.825 -2.99054 490.691 -3.73525C491.557 -4.47995 493.073 -4.66611 493.939 -3.9214L505.198 4.64265L513.425 -5.41081C514.075 -6.34169 515.59 -6.52786 516.673 -5.78316C517.755 -5.03846 517.972 -3.9214 517.106 -2.99053L507.363 8.7385C506.93 9.11085 506.28 9.48322 505.631 9.48322C505.847 9.48322 505.631 9.66938 505.631 9.66938Z" fill="#4A003D"/>
</g>
<mask id="mask10_5621_61742" style="mask-type:luminance" maskUnits="userSpaceOnUse" x="7" y="-151" width="729" height="562">
<path d="M736 -151H7V410.505H736V-151Z" fill="white"/>
</mask>
<g mask="url(#mask10_5621_61742)">
<path d="M102.482 99.0332H102.266C100.317 98.847 99.0179 97.5438 99.2345 95.8682L101.4 74.0857C101.616 72.4101 103.132 71.293 105.08 71.4792C107.029 71.6654 108.328 72.9686 108.112 74.6442L105.946 96.4267C105.73 97.9161 104.214 99.0332 102.482 99.0332Z" fill="#FFEB00"/>
</g>
<mask id="mask11_5621_61742" style="mask-type:luminance" maskUnits="userSpaceOnUse" x="7" y="-151" width="729" height="562">
<path d="M736 -151H7V410.505H736V-151Z" fill="white"/>
</mask>
<g mask="url(#mask11_5621_61742)">
<path d="M116.123 89.1666H115.906L90.5742 87.3049C88.6256 87.1187 87.3265 85.8154 87.5431 84.1399C87.7596 82.4643 89.2752 81.3472 91.2238 81.5334L116.556 83.3952C118.504 83.5813 119.804 84.8846 119.587 86.5601C119.37 88.0495 117.855 89.1666 116.123 89.1666Z" fill="#FFEB00"/>
</g>
<mask id="mask12_5621_61742" style="mask-type:luminance" maskUnits="userSpaceOnUse" x="7" y="-151" width="729" height="562">
<path d="M736 -151H7V410.505H736V-151Z" fill="white"/>
</mask>
<g mask="url(#mask12_5621_61742)">
<path d="M305.353 73.899C305.137 73.899 304.92 73.899 304.704 73.7128C303.405 73.3405 302.755 72.2234 303.188 71.1064C306.003 63.6594 314.23 58.0741 323.107 57.3294C330.902 56.7709 338.913 59.7497 343.893 65.1488C347.357 61.7976 352.77 59.7497 357.966 59.9358C364.462 60.122 370.74 63.287 373.772 68.3137C374.421 69.2446 373.988 70.5478 372.906 71.1064C371.823 71.6649 370.307 71.2926 369.658 70.3617C367.276 66.8243 362.729 64.2179 357.75 64.2179C352.986 64.2179 348.007 66.452 345.625 69.9893C345.192 70.5479 344.326 70.9202 343.46 70.9202C342.594 70.9202 341.944 70.5478 341.511 69.8031C338.047 64.4041 330.685 61.0529 323.541 61.6114C316.396 62.17 309.9 66.8243 307.519 72.5958C307.302 73.3405 306.436 73.899 305.353 73.899Z" fill="#FFB0BA"/>
</g>
<mask id="mask13_5621_61742" style="mask-type:luminance" maskUnits="userSpaceOnUse" x="7" y="-151" width="729" height="562">
<path d="M736 -151H7V410.505H736V-151Z" fill="white"/>
</mask>
<g mask="url(#mask13_5621_61742)">
<path d="M363.596 2.40835H373.989C375.288 2.40835 376.371 1.47747 376.371 0.360413C376.371 -0.75664 375.288 -1.6875 373.989 -1.6875H363.596C362.297 -1.6875 361.215 -0.75664 361.215 0.360413C361.215 1.47747 362.297 2.40835 363.596 2.40835Z" fill="white"/>
</g>
</g>
<g opacity="0.2" clip-path="url(#clip1_5621_61742)">
<mask id="mask14_5621_61742" style="mask-type:luminance" maskUnits="userSpaceOnUse" x="-6" y="341" width="729" height="562">
<path d="M723 341H-6V902.505H723V341Z" fill="white"/>
</mask>
<g mask="url(#mask14_5621_61742)">
<path d="M172.842 677.977C168.945 677.977 165.914 680.77 165.914 683.935C165.914 687.1 169.162 689.892 172.842 689.892C176.74 689.892 179.771 687.1 179.771 683.935C179.771 680.77 176.74 677.977 172.842 677.977Z" fill="white"/>
</g>
<mask id="mask15_5621_61742" style="mask-type:luminance" maskUnits="userSpaceOnUse" x="-6" y="341" width="729" height="562">
<path d="M723 341H-6V902.505H723V341Z" fill="white"/>
</mask>
<g mask="url(#mask15_5621_61742)">
<path d="M48.7789 673.696C46.1808 673.696 44.0156 675.558 44.0156 677.792C44.0156 680.026 46.1808 681.888 48.7789 681.888C51.3771 681.888 53.5422 680.026 53.5422 677.792C53.5422 675.558 51.3771 673.696 48.7789 673.696Z" fill="white"/>
</g>
<mask id="mask16_5621_61742" style="mask-type:luminance" maskUnits="userSpaceOnUse" x="-6" y="341" width="729" height="562">
<path d="M723 341H-6V902.505H723V341Z" fill="white"/>
</mask>
<g mask="url(#mask16_5621_61742)">
<path d="M661.075 615.982C659.993 613.934 657.178 612.817 654.797 613.748C652.415 614.679 651.116 617.099 652.198 619.147C653.281 621.195 656.096 622.312 658.477 621.381C660.859 620.636 661.941 618.03 661.075 615.982Z" fill="#019772"/>
</g>
<mask id="mask17_5621_61742" style="mask-type:luminance" maskUnits="userSpaceOnUse" x="-6" y="341" width="729" height="562">
<path d="M723 341H-6V902.505H723V341Z" fill="white"/>
</mask>
<g mask="url(#mask17_5621_61742)">
<path d="M41.8503 598.853C37.9531 598.853 34.9219 601.459 34.9219 604.811C34.9219 608.162 37.9531 610.768 41.8503 610.768C45.7475 610.768 48.7787 608.162 48.7787 604.811C48.7787 601.459 45.7475 598.853 41.8503 598.853Z" fill="#4A003D"/>
</g>
<mask id="mask18_5621_61742" style="mask-type:luminance" maskUnits="userSpaceOnUse" x="-6" y="341" width="729" height="562">
<path d="M723 341H-6V902.505H723V341Z" fill="white"/>
</mask>
<g mask="url(#mask18_5621_61742)">
<path d="M401.913 552.682C401.047 550.82 398.665 549.889 396.5 550.82C394.335 551.564 393.252 553.612 394.335 555.474C395.201 557.336 397.583 558.267 399.748 557.336C401.696 556.591 402.779 554.543 401.913 552.682Z" fill="#019772"/>
</g>
<mask id="mask19_5621_61742" style="mask-type:luminance" maskUnits="userSpaceOnUse" x="-6" y="341" width="729" height="562">
<path d="M723 341H-6V902.505H723V341Z" fill="white"/>
</mask>
<g mask="url(#mask19_5621_61742)">
<path d="M701.997 630.875C697.883 630.13 693.77 632.178 692.904 635.715C692.037 639.253 694.419 642.79 698.533 643.535C702.647 644.279 706.76 642.232 707.626 638.694C708.709 635.157 706.111 631.62 701.997 630.875Z" fill="#4A003D"/>
</g>
<mask id="mask20_5621_61742" style="mask-type:luminance" maskUnits="userSpaceOnUse" x="-6" y="341" width="729" height="562">
<path d="M723 341H-6V902.505H723V341Z" fill="white"/>
</mask>
<g mask="url(#mask20_5621_61742)">
<path d="M663.673 656.195L660.426 676.116L680.778 683.19C682.943 683.935 682.51 686.728 680.128 686.914L659.993 688.217L657.611 708.51C657.395 710.558 653.93 710.931 653.281 708.883L646.569 690.451L622.103 697.526C619.721 698.271 618.206 695.664 619.938 694.175L637.475 681.515L622.752 665.318C621.237 663.642 623.402 661.594 625.567 662.525L644.62 671.089L659.776 655.078C661.292 653.216 664.106 654.333 663.673 656.195Z" fill="white"/>
</g>
<mask id="mask21_5621_61742" style="mask-type:luminance" maskUnits="userSpaceOnUse" x="-6" y="341" width="729" height="562">
<path d="M723 341H-6V902.505H723V341Z" fill="white"/>
</mask>
<g mask="url(#mask21_5621_61742)">
<path d="M113.732 651.169L119.795 655.265L124.775 651.913C126.074 650.983 128.022 652.286 127.373 653.589L124.991 658.057L130.404 661.595C131.919 662.525 130.837 664.573 129.105 664.201L123.042 663.084L121.527 669.414C121.094 670.903 118.496 670.903 118.279 669.414L117.197 664.201L110.052 665.132C108.32 665.318 107.453 663.27 108.969 662.525L114.165 659.733L111.351 653.403C110.701 651.355 112.433 650.238 113.732 651.169Z" fill="#019772"/>
</g>
<mask id="mask22_5621_61742" style="mask-type:luminance" maskUnits="userSpaceOnUse" x="-6" y="341" width="729" height="562">
<path d="M723 341H-6V902.505H723V341Z" fill="white"/>
</mask>
<g mask="url(#mask22_5621_61742)">
<path d="M546.757 654.147C546.541 654.147 546.324 654.148 545.891 653.961C544.592 653.589 543.943 652.472 544.376 651.355L548.273 641.674C549.356 638.695 552.17 636.647 555.851 636.088C559.315 635.53 562.996 636.647 565.161 639.067L567.543 641.674C568.625 642.791 570.141 643.349 571.873 643.349C573.605 643.349 574.904 642.418 575.77 641.301L576.853 639.812C578.585 637.392 581.4 635.902 584.647 635.902C587.895 635.716 590.926 637.019 592.875 639.067C593.957 640.184 595.689 640.929 597.422 640.743C599.154 640.557 600.669 639.626 601.319 638.323L606.515 629.386C607.165 628.455 608.464 627.897 609.763 628.455C610.845 629.014 611.495 630.131 610.845 631.248L605.649 640.184C604.133 642.791 601.319 644.466 597.855 644.839C594.39 645.211 591.143 643.908 589.194 641.674C588.111 640.557 586.596 639.998 584.864 639.998C583.132 639.998 581.833 640.743 580.967 642.046L579.884 643.535C578.152 645.77 575.337 647.259 572.09 647.445C568.842 647.631 565.811 646.514 563.862 644.28L561.48 641.674C560.398 640.371 558.449 639.812 556.717 640.184C554.985 640.557 553.469 641.488 552.82 642.977L548.923 652.658C548.706 653.589 547.623 654.147 546.757 654.147Z" fill="#4A003D"/>
</g>
<mask id="mask23_5621_61742" style="mask-type:luminance" maskUnits="userSpaceOnUse" x="-6" y="341" width="729" height="562">
<path d="M723 341H-6V902.505H723V341Z" fill="white"/>
</mask>
<g mask="url(#mask23_5621_61742)">
<path d="M44.8793 554.17C48.56 555.287 52.8903 558.08 53.9729 562.176C54.4059 564.037 53.9729 566.085 52.6738 567.761C51.5912 569.064 50.2921 569.995 48.56 570.181C44.8793 570.74 41.4151 568.133 40.3325 565.154C39.25 562.176 39.8995 558.452 42.2812 554.915C42.4977 554.542 42.9307 553.984 43.1472 553.612C43.7968 553.798 44.4463 553.984 44.8793 554.17ZM15.8665 575.953C17.1656 575.766 17.8152 574.836 17.5987 573.718C16.2996 567.761 19.1142 561.059 24.5271 557.149C28.2078 554.542 33.1876 553.053 38.1674 553.053C35.1362 557.521 34.2702 562.362 35.7858 566.271C36.6518 568.692 38.3839 570.74 40.7656 572.229C43.3637 573.718 46.1784 574.463 48.9931 573.905C51.8077 573.532 54.1894 572.043 56.138 569.809C58.0866 567.202 58.9527 564.037 58.0866 561.245C56.7875 556.59 52.2408 552.494 46.1784 550.447C46.1784 550.447 46.1784 550.447 45.9619 550.447C51.8077 545.606 60.6848 543.186 68.9123 544.675C70.2114 544.861 71.2939 544.303 71.5104 543.186C71.727 542.069 71.0774 541.138 69.7783 540.952C63.9325 539.835 57.4371 540.393 51.5912 542.627C47.4775 544.303 43.7968 546.537 40.9821 549.516C34.0537 548.771 26.6922 550.447 21.4959 554.356C14.784 559.197 11.3198 567.202 13.0519 574.649C13.2684 575.58 14.1344 576.325 15.217 576.325C15.65 576.139 15.65 576.139 15.8665 575.953Z" fill="#4A003D"/>
</g>
<mask id="mask24_5621_61742" style="mask-type:luminance" maskUnits="userSpaceOnUse" x="-6" y="341" width="729" height="562">
<path d="M723 341H-6V902.505H723V341Z" fill="white"/>
</mask>
<g mask="url(#mask24_5621_61742)">
<path d="M105.931 771.995C95.1054 771.995 84.2797 770.878 74.5366 768.644C57.8651 764.921 44.0083 758.218 33.1826 748.91C23.0065 740.159 15.6451 728.989 11.9643 716.329C8.2836 704.041 8.06709 691.009 11.3148 678.908C17.8102 655.263 37.5129 633.853 64.144 621.752C65.2266 621.193 66.7422 621.566 67.3917 622.683C68.0412 623.613 67.6082 624.917 66.3091 625.475C40.7606 637.018 21.9239 657.497 15.8616 680.025C9.36617 703.855 17.3772 729.733 36.6468 746.303C53.1018 760.452 78.2174 768.272 106.148 768.272C111.344 768.272 116.757 767.899 121.953 767.527C153.131 764.362 182.144 753.005 210.29 742.207C211.589 741.835 212.889 742.207 213.322 743.138C213.755 744.255 213.322 745.372 212.239 745.745C183.876 756.729 154.43 768.086 122.603 771.437C116.757 771.623 111.344 771.995 105.931 771.995Z" fill="white"/>
</g>
<mask id="mask25_5621_61742" style="mask-type:luminance" maskUnits="userSpaceOnUse" x="-6" y="341" width="729" height="562">
<path d="M723 341H-6V902.505H723V341Z" fill="white"/>
</mask>
<g mask="url(#mask25_5621_61742)">
<path d="M84.0658 617.843C82.9833 617.843 82.1172 617.284 81.6842 616.353C81.2512 615.236 82.1172 614.119 83.1998 613.747C87.3135 612.63 91.6438 611.699 95.7575 610.582C97.0566 610.209 98.3557 610.954 98.7887 611.885C99.2218 613.002 98.3557 614.119 97.2731 614.492C92.9429 615.609 88.8291 616.539 84.7154 617.656C84.7154 617.843 84.2823 617.843 84.0658 617.843Z" fill="white"/>
</g>
<mask id="mask26_5621_61742" style="mask-type:luminance" maskUnits="userSpaceOnUse" x="-6" y="341" width="729" height="562">
<path d="M723 341H-6V902.505H723V341Z" fill="white"/>
</mask>
<g mask="url(#mask26_5621_61742)">
<path d="M618.855 581.911C618.205 579.677 617.989 577.07 619.504 575.395C621.236 573.533 624.484 573.161 627.082 574.278C629.464 575.395 631.196 577.629 631.846 579.863C632.495 582.097 632.495 584.517 632.279 586.938C633.578 584.704 635.093 582.469 637.258 580.794C639.424 579.118 642.238 577.815 645.053 578.001C648.084 578.187 650.899 579.863 651.548 582.283C652.414 585.821 648.95 588.799 645.702 591.22C641.805 593.826 632.928 603.135 627.948 600.342C622.752 597.177 620.154 586.752 618.855 581.911Z" fill="#4A003D"/>
</g>
<mask id="mask27_5621_61742" style="mask-type:luminance" maskUnits="userSpaceOnUse" x="-6" y="341" width="729" height="562">
<path d="M723 341H-6V902.505H723V341Z" fill="white"/>
</mask>
<g mask="url(#mask27_5621_61742)">
<path d="M113.515 610.954C112.216 610.954 111.35 610.21 111.133 609.093C110.917 607.975 111.999 607.045 113.298 606.858C114.814 606.672 116.33 606.486 118.062 606.486C119.577 606.3 121.309 606.114 122.825 606.114C124.124 605.928 125.207 606.858 125.423 607.975C125.64 609.092 124.557 610.023 123.258 610.21C121.742 610.396 120.227 610.582 118.495 610.582C116.979 610.768 115.247 610.954 113.731 610.954H113.515Z" fill="white"/>
</g>
<mask id="mask28_5621_61742" style="mask-type:luminance" maskUnits="userSpaceOnUse" x="-6" y="341" width="729" height="562">
<path d="M723 341H-6V902.505H723V341Z" fill="white"/>
</mask>
<g mask="url(#mask28_5621_61742)">
<path d="M89.4822 591.033H89.2656C87.317 590.847 86.0179 589.544 86.2345 587.868L88.3996 566.086C88.6161 564.41 90.1317 563.293 92.0803 563.479C94.0289 563.665 95.328 564.969 95.1115 566.644L92.9464 588.427C92.7299 589.916 91.2143 591.033 89.4822 591.033Z" fill="#FFEB00"/>
</g>
<mask id="mask29_5621_61742" style="mask-type:luminance" maskUnits="userSpaceOnUse" x="-6" y="341" width="729" height="562">
<path d="M723 341H-6V902.505H723V341Z" fill="white"/>
</mask>
<g mask="url(#mask29_5621_61742)">
<path d="M103.123 581.167H102.906L77.5742 579.305C75.6256 579.119 74.3265 577.815 74.5431 576.14C74.7596 574.464 76.2752 573.347 78.2238 573.533L103.556 575.395C105.504 575.581 106.804 576.885 106.587 578.56C106.37 580.05 104.855 581.167 103.123 581.167Z" fill="#FFEB00"/>
</g>
<mask id="mask30_5621_61742" style="mask-type:luminance" maskUnits="userSpaceOnUse" x="-6" y="341" width="729" height="562">
<path d="M723 341H-6V902.505H723V341Z" fill="white"/>
</mask>
<g mask="url(#mask30_5621_61742)">
<path d="M292.353 565.899C292.137 565.899 291.92 565.899 291.704 565.713C290.405 565.34 289.755 564.223 290.188 563.106C293.003 555.659 301.23 550.074 310.107 549.329C317.902 548.771 325.913 551.75 330.893 557.149C334.357 553.798 339.77 551.75 344.966 551.936C351.462 552.122 357.74 555.287 360.772 560.314C361.421 561.245 360.988 562.548 359.906 563.106C358.823 563.665 357.307 563.293 356.658 562.362C354.276 558.824 349.729 556.218 344.75 556.218C339.986 556.218 335.007 558.452 332.625 561.989C332.192 562.548 331.326 562.92 330.46 562.92C329.594 562.92 328.944 562.548 328.511 561.803C325.047 556.404 317.685 553.053 310.541 553.611C303.396 554.17 296.9 558.824 294.519 564.596C294.302 565.34 293.436 565.899 292.353 565.899Z" fill="#FFB0BA"/>
</g>
<mask id="mask31_5621_61742" style="mask-type:luminance" maskUnits="userSpaceOnUse" x="-6" y="341" width="729" height="562">
<path d="M723 341H-6V902.505H723V341Z" fill="white"/>
</mask>
<g mask="url(#mask31_5621_61742)">
<path d="M448.24 649.12C447.374 649.12 446.508 648.748 446.292 648.003C444.56 644.28 445.859 639.625 449.756 636.646C452.787 634.226 457.117 632.923 462.097 632.923C465.345 632.923 468.376 633.481 471.407 634.412C472.49 634.785 473.139 635.902 472.706 636.833C472.273 637.763 470.974 638.322 469.892 637.95C467.51 637.205 464.695 636.646 462.097 636.646C458.2 636.646 454.952 637.577 452.571 639.439C450.189 641.301 449.106 644.28 450.189 646.514C450.622 647.445 450.189 648.562 448.89 648.934C448.673 649.12 448.457 649.12 448.24 649.12Z" fill="#FF7A7A"/>
</g>
<mask id="mask32_5621_61742" style="mask-type:luminance" maskUnits="userSpaceOnUse" x="-6" y="341" width="729" height="562">
<path d="M723 341H-6V902.505H723V341Z" fill="white"/>
</mask>
<g mask="url(#mask32_5621_61742)">
<path d="M208.779 690.823C207.697 690.823 206.614 690.078 206.614 689.147C205.748 679.838 212.893 670.716 223.069 667.551C233.245 664.572 245.586 667.923 251.649 675.556C252.298 676.487 252.082 677.604 250.999 678.163C249.917 678.721 248.618 678.535 247.968 677.604C242.988 671.274 232.812 668.482 224.585 671.088C216.141 673.695 210.295 681.142 210.944 688.775C211.161 689.706 210.078 690.637 208.779 690.823Z" fill="#FF7A7A"/>
</g>
<mask id="mask33_5621_61742" style="mask-type:luminance" maskUnits="userSpaceOnUse" x="-6" y="341" width="729" height="562">
<path d="M723 341H-6V902.505H723V341Z" fill="white"/>
</mask>
<g mask="url(#mask33_5621_61742)">
<path d="M273.952 685.239C273.086 685.239 272.436 684.867 272.003 684.122C270.271 681.143 268.322 678.909 266.157 677.419C263.559 675.744 260.528 674.813 257.713 675.372C254.899 675.744 252.517 677.606 251.867 679.84C251.651 680.957 250.352 681.515 249.269 681.329C247.97 681.143 247.321 680.026 247.537 679.095C248.403 675.372 252.3 672.393 257.064 671.834C260.961 671.276 265.291 672.393 268.972 674.627C271.787 676.489 274.168 679.095 276.117 682.632C276.55 683.563 276.117 684.68 275.034 685.239C274.601 685.053 274.385 685.239 273.952 685.239Z" fill="#FF7A7A"/>
</g>
<mask id="mask34_5621_61742" style="mask-type:luminance" maskUnits="userSpaceOnUse" x="-6" y="341" width="729" height="562">
<path d="M723 341H-6V902.505H723V341Z" fill="white"/>
</mask>
<g mask="url(#mask34_5621_61742)">
<path d="M383.94 699.016C382.857 699.016 381.991 698.457 381.775 697.526C380.476 691.569 383.94 684.866 390.219 681.888C394.549 679.84 399.745 679.653 404.292 680.957C404.076 678.164 404.942 674.999 407.323 672.951C411.437 669.228 418.366 668.855 423.129 671.834C423.995 672.393 424.211 673.696 423.562 674.441C422.912 675.185 421.397 675.371 420.531 674.813C417.716 672.951 413.169 673.323 410.571 675.371C408.189 677.605 407.973 681.515 410.355 683.935C411.221 684.68 411.004 685.797 410.138 686.542C409.272 687.287 407.973 687.287 407.107 686.542C403.21 683.563 396.931 682.818 392.384 685.052C387.837 687.287 385.239 692.313 386.105 696.595C386.322 697.712 385.672 698.643 384.373 698.829C384.373 699.016 384.156 699.016 383.94 699.016Z" fill="#FF7A7A"/>
</g>
</g>
<g opacity="0.2" clip-path="url(#clip2_5621_61742)">
<mask id="mask35_5621_61742" style="mask-type:luminance" maskUnits="userSpaceOnUse" x="-284" y="35" width="729" height="562">
<path d="M445 35H-284V596.505H445V35Z" fill="white"/>
</mask>
<g mask="url(#mask35_5621_61742)">
<path d="M5.25991 476.236C2.01221 476.236 -0.585938 478.47 -0.585938 481.263C-0.585938 484.055 2.01221 486.289 5.25991 486.289C8.50761 486.289 11.1058 484.055 11.1058 481.263C11.1058 478.47 8.50761 476.236 5.25991 476.236Z" fill="#019772"/>
</g>
<mask id="mask36_5621_61742" style="mask-type:luminance" maskUnits="userSpaceOnUse" x="-284" y="35" width="729" height="562">
<path d="M445 35H-284V596.505H445V35Z" fill="white"/>
</mask>
<g mask="url(#mask36_5621_61742)">
<path d="M123.913 246.682C123.047 244.82 120.665 243.889 118.5 244.82C116.335 245.564 115.252 247.612 116.335 249.474C117.201 251.336 119.583 252.267 121.748 251.336C123.696 250.591 124.779 248.543 123.913 246.682Z" fill="#019772"/>
</g>
<mask id="mask37_5621_61742" style="mask-type:luminance" maskUnits="userSpaceOnUse" x="-284" y="35" width="729" height="562">
<path d="M445 35H-284V596.505H445V35Z" fill="white"/>
</mask>
<g mask="url(#mask37_5621_61742)">
<path d="M47.6992 138.699C47.6992 146.332 51.5965 153.221 57.8754 157.875C64.1543 162.53 67.6185 169.418 67.6185 176.679C67.6185 178.168 69.1341 179.471 70.8662 179.471H84.29C86.0221 179.471 87.5377 178.168 87.5377 176.679V176.493C87.5377 169.232 91.2184 162.53 97.4973 157.689C103.776 152.848 107.673 145.774 107.457 137.954C107.024 124.364 94.0331 113.193 78.2276 113.007C61.1231 113.007 47.6992 124.55 47.6992 138.699Z" fill="#FFEB00"/>
</g>
<mask id="mask38_5621_61742" style="mask-type:luminance" maskUnits="userSpaceOnUse" x="-284" y="35" width="729" height="562">
<path d="M445 35H-284V596.505H445V35Z" fill="white"/>
</mask>
<g mask="url(#mask38_5621_61742)">
<path d="M82.5555 188.594H72.1629C70.8638 188.594 69.7812 187.663 69.7812 186.546C69.7812 185.429 70.8638 184.498 72.1629 184.498H82.5555C83.8546 184.498 84.9372 185.429 84.9372 186.546C84.9372 187.663 83.8546 188.594 82.5555 188.594Z" fill="white"/>
</g>
<mask id="mask39_5621_61742" style="mask-type:luminance" maskUnits="userSpaceOnUse" x="-284" y="35" width="729" height="562">
<path d="M445 35H-284V596.505H445V35Z" fill="white"/>
</mask>
<g mask="url(#mask39_5621_61742)">
<path d="M67.1893 105.374C65.8902 105.56 64.5912 104.816 64.3746 103.699L62.6425 92.9004C62.426 91.7834 63.2921 90.6663 64.5911 90.4802C65.8902 90.294 67.1893 91.0387 67.4058 92.1558L69.1379 102.954C69.3544 104.257 68.4884 105.188 67.1893 105.374Z" fill="white"/>
</g>
<mask id="mask40_5621_61742" style="mask-type:luminance" maskUnits="userSpaceOnUse" x="-284" y="35" width="729" height="562">
<path d="M445 35H-284V596.505H445V35Z" fill="white"/>
</mask>
<g mask="url(#mask40_5621_61742)">
<path d="M50.5079 111.89C49.8584 111.89 48.9923 111.704 48.5593 111.145C45.5281 107.794 42.2804 104.629 39.2492 101.278C38.3832 100.347 38.5997 99.0441 39.6823 98.2994C40.7648 97.5547 42.2804 97.7408 43.1465 98.6717C46.1777 101.837 49.4254 105.188 52.4566 108.539C53.3226 109.47 53.1061 110.773 52.0235 111.518C51.5905 111.89 51.1575 111.89 50.5079 111.89Z" fill="white"/>
</g>
<mask id="mask41_5621_61742" style="mask-type:luminance" maskUnits="userSpaceOnUse" x="-284" y="35" width="729" height="562">
<path d="M445 35H-284V596.505H445V35Z" fill="white"/>
</mask>
<g mask="url(#mask41_5621_61742)">
<path d="M35.361 122.875C35.1445 122.875 34.928 122.875 34.7115 122.875L21.9372 119.896C20.6381 119.523 19.9886 118.406 20.2051 117.289C20.6381 116.172 21.9372 115.614 23.2363 115.8L36.0106 118.779C37.3096 119.151 37.9592 120.268 37.7427 121.385C37.3096 122.316 36.2271 122.875 35.361 122.875Z" fill="white"/>
</g>
<mask id="mask42_5621_61742" style="mask-type:luminance" maskUnits="userSpaceOnUse" x="-284" y="35" width="729" height="562">
<path d="M445 35H-284V596.505H445V35Z" fill="white"/>
</mask>
<g mask="url(#mask42_5621_61742)">
<path d="M-139.587 120.454C-138.288 120.454 -137.205 119.709 -137.205 118.592C-137.205 117.475 -138.071 116.73 -139.37 116.73H-139.587C-140.669 116.73 -141.752 117.475 -141.535 118.592C-141.535 119.523 -140.669 120.454 -139.587 120.454ZM-125.297 119.337C-125.297 118.22 -126.163 117.475 -127.245 117.289H-127.462H-127.679C-128.761 117.289 -129.627 118.034 -129.627 118.965C-129.627 119.337 -129.627 119.895 -129.194 120.268C-128.761 120.64 -128.328 120.826 -127.895 120.826C-127.895 120.826 -127.895 120.826 -127.679 120.826C-127.679 120.826 -127.679 120.826 -127.462 120.826H-127.245C-126.379 120.826 -125.297 120.268 -125.297 119.337ZM-151.062 121.013H-150.845C-149.763 120.826 -149.113 120.082 -149.113 119.151V118.965C-149.113 118.592 -149.546 118.22 -149.763 117.848C-150.196 117.475 -150.845 117.289 -151.495 117.475H-151.711C-152.144 117.475 -152.794 117.848 -153.011 118.22C-153.227 118.592 -153.444 119.151 -153.444 119.523C-153.444 119.895 -153.011 120.268 -152.794 120.64C-152.361 121.013 -151.928 121.013 -151.495 121.013C-151.278 121.199 -151.278 121.199 -151.062 121.013ZM-113.389 121.013C-113.389 120.826 -113.389 120.826 -113.389 120.64C-113.389 119.709 -114.038 119.151 -115.121 118.965H-115.337C-115.554 118.965 -115.554 118.965 -115.77 118.965C-116.853 118.965 -117.502 119.523 -117.719 120.454C-117.935 121.385 -117.286 122.316 -115.987 122.502H-115.77C-115.554 122.502 -115.554 122.502 -115.337 122.502C-114.471 122.502 -113.605 121.757 -113.389 121.013ZM-162.321 123.433C-161.238 123.06 -160.805 122.502 -160.805 121.757C-160.805 121.571 -160.805 121.385 -161.022 121.199C-161.238 120.454 -162.104 120.082 -162.97 120.082C-163.187 120.082 -163.403 120.082 -163.62 120.268C-163.62 120.268 -163.62 120.268 -163.836 120.268C-164.919 120.64 -165.568 121.571 -165.135 122.502C-164.919 123.247 -164.053 123.805 -163.187 123.805C-162.754 123.433 -162.537 123.433 -162.321 123.433ZM-101.913 123.433C-101.913 123.247 -101.913 123.06 -101.913 123.06C-101.913 122.316 -102.563 121.571 -103.429 121.385H-103.646C-103.862 121.385 -104.079 121.385 -104.079 121.385C-104.945 121.385 -105.811 121.943 -106.027 122.688C-106.244 123.06 -106.027 123.619 -105.811 123.991C-105.594 124.364 -105.161 124.736 -104.512 124.736C-104.512 124.736 -104.512 124.736 -104.295 124.736C-104.295 124.736 -104.295 124.736 -104.079 124.736C-103.862 124.736 -103.646 124.736 -103.646 124.736C-102.996 124.736 -102.13 124.177 -101.913 123.433ZM-90.4382 126.412C-90.4382 126.225 -90.4382 126.039 -90.4382 125.853C-90.4382 125.108 -91.0878 124.364 -91.9538 124.177H-92.1703C-92.3869 124.177 -92.6034 124.177 -92.8199 124.177C-93.6859 124.177 -94.552 124.736 -94.7685 125.481C-94.985 125.853 -94.985 126.412 -94.552 126.784C-94.3355 127.156 -93.9024 127.529 -93.2529 127.715C-93.2529 127.715 -93.2529 127.715 -93.0364 127.715C-92.8199 127.715 -92.6034 127.715 -92.3869 127.715C-91.5208 127.715 -90.6548 127.156 -90.4382 126.412ZM-172.713 127.529C-171.847 127.156 -171.631 126.598 -171.631 125.853C-171.631 125.481 -171.631 125.295 -171.847 124.922C-172.28 124.364 -172.93 123.991 -173.579 123.991C-174.012 123.991 -174.229 123.991 -174.662 124.177L-174.878 124.364C-175.744 124.922 -176.177 126.039 -175.528 126.784C-175.095 127.342 -174.445 127.715 -173.796 127.715C-173.579 127.901 -173.146 127.715 -172.713 127.529ZM-79.1795 129.949C-79.1795 129.763 -78.963 129.577 -78.963 129.39C-78.963 128.646 -79.3961 128.087 -80.2621 127.715H-80.4786C-80.6952 127.715 -80.9117 127.529 -81.1282 127.529C-81.9942 127.529 -82.8603 127.901 -83.0768 128.646C-83.2933 129.018 -83.2933 129.577 -83.0768 129.949C-82.8603 130.321 -82.4273 130.694 -81.9942 130.88C-81.9942 130.88 -81.9942 130.88 -81.7777 130.88C-81.7777 130.88 -81.7777 130.88 -81.5612 130.88C-81.3447 130.88 -81.1282 131.066 -80.9117 131.066C-80.2621 131.066 -79.3961 130.507 -79.1795 129.949ZM-181.807 133.672C-181.157 133.114 -180.941 132.742 -180.941 132.183C-180.941 131.811 -181.157 131.252 -181.59 130.88C-182.023 130.507 -182.456 130.321 -183.106 130.321C-183.539 130.321 -184.188 130.507 -184.621 130.88L-184.838 131.066C-185.704 131.811 -185.704 132.928 -184.838 133.672C-184.405 134.045 -183.972 134.231 -183.322 134.231C-182.673 134.231 -182.24 134.045 -181.807 133.672ZM-68.1374 133.859C-67.9209 133.672 -67.9209 133.486 -67.9209 133.114C-67.9209 132.369 -68.3539 131.811 -69.2199 131.438H-69.4365C-69.653 131.252 -69.8695 131.252 -70.3025 131.252C-71.1686 131.252 -71.8181 131.624 -72.2511 132.369C-72.4676 132.742 -72.4676 133.3 -72.2511 133.672C-72.0346 134.045 -71.6016 134.417 -71.1686 134.603H-70.9521C-70.7355 134.789 -70.519 134.789 -70.086 134.789C-69.2199 134.789 -68.3539 134.417 -68.1374 133.859ZM-57.0952 137.954C-56.8787 137.768 -56.8787 137.396 -56.8787 137.21C-56.8787 136.465 -57.3117 135.907 -58.1778 135.534H-58.3943C-58.6108 135.348 -59.0438 135.348 -59.2603 135.348C-60.1264 135.348 -60.7759 135.72 -61.209 136.465C-61.4255 136.837 -61.4255 137.396 -61.209 137.768C-60.9925 138.141 -60.5594 138.513 -60.1264 138.699H-59.9099C-59.6934 138.885 -59.2604 138.885 -59.0438 138.885C-58.1778 139.072 -57.5282 138.699 -57.0952 137.954ZM-188.952 141.306C-188.519 140.933 -188.519 140.561 -188.519 140.189C-188.519 139.63 -188.952 139.072 -189.385 138.699C-189.818 138.513 -190.034 138.327 -190.467 138.327C-191.117 138.327 -191.766 138.699 -192.199 139.072L-192.416 139.258C-192.632 139.63 -192.849 140.189 -192.632 140.561C-192.416 140.933 -192.199 141.492 -191.766 141.678C-191.333 141.864 -191.117 142.05 -190.684 142.05C-190.034 142.237 -189.385 141.864 -188.952 141.306ZM-46.4861 142.609C-46.2696 142.423 -46.2695 142.05 -46.2695 141.864C-46.2695 141.119 -46.7026 140.561 -47.3521 140.375C-47.3521 140.375 -47.5686 140.375 -47.5686 140.189C-47.7851 140.002 -48.2182 140.002 -48.4347 140.002C-49.3007 140.002 -49.9503 140.375 -50.3833 140.933C-50.8163 141.864 -50.3833 142.795 -49.5172 143.354H-49.3007C-49.0842 143.54 -48.6512 143.54 -48.4347 143.54C-47.3521 143.54 -46.7026 143.167 -46.4861 142.609ZM-35.8769 147.449C-35.6604 147.263 -35.6604 146.891 -35.6604 146.519C-35.6604 145.96 -36.0934 145.215 -36.743 145.029C-36.743 145.029 -36.743 145.029 -36.9595 145.029C-37.176 144.843 -37.609 144.843 -38.042 144.843C-38.6916 144.843 -39.5576 145.215 -39.7741 145.774C-39.9907 146.146 -40.2072 146.705 -39.9907 147.077C-39.7742 147.449 -39.5576 147.822 -38.9081 148.194C-38.9081 148.194 -38.6916 148.194 -38.6916 148.38C-38.4751 148.566 -38.042 148.566 -37.609 148.566C-36.9595 148.38 -36.0934 148.008 -35.8769 147.449ZM-194.148 150.242C-193.932 149.87 -193.932 149.684 -193.932 149.497C-193.932 148.753 -194.365 148.194 -195.231 147.822C-195.447 147.822 -195.664 147.636 -195.88 147.636C-196.746 147.636 -197.396 148.008 -197.829 148.753V148.939C-198.262 149.87 -197.612 150.801 -196.53 151.173C-196.313 151.173 -196.097 151.359 -195.88 151.359C-195.231 151.359 -194.581 150.801 -194.148 150.242ZM-25.4843 152.476C-25.2678 152.29 -25.2678 151.918 -25.2678 151.545C-25.2678 150.987 -25.7008 150.242 -26.3503 150.056L-26.5669 149.87C-26.7834 149.684 -27.2164 149.684 -27.6494 149.684C-28.299 149.684 -29.165 150.056 -29.3815 150.614C-30.031 151.545 -29.598 152.476 -28.732 153.035H-28.5155C-28.299 153.221 -27.8659 153.221 -27.4329 153.221C-26.5668 153.407 -25.7008 153.035 -25.4843 152.476ZM-15.0917 157.689C-14.8751 157.317 -14.8751 157.131 -14.8751 156.758C-14.8751 156.2 -15.3082 155.641 -15.9577 155.269C-15.9577 155.269 -16.1742 155.269 -16.1742 155.083C-16.6072 154.896 -16.8238 154.896 -17.2568 154.896C-17.9063 154.896 -18.5558 155.269 -18.9889 155.827C-19.2054 156.2 -19.4219 156.758 -19.2054 157.131C-18.9889 157.503 -18.7724 158.061 -18.3394 158.248H-18.1228C-17.6898 158.434 -17.4733 158.434 -17.0403 158.434C-16.1742 158.62 -15.5247 158.248 -15.0917 157.689ZM-197.396 159.737C-197.396 159.365 -197.396 159.365 -197.396 159.178C-197.396 158.248 -198.045 157.503 -199.128 157.503C-199.344 157.503 -199.344 157.503 -199.561 157.503C-200.643 157.503 -201.51 158.061 -201.51 158.992C-201.51 158.992 -201.51 158.992 -201.51 159.178C-201.726 160.109 -201.076 161.04 -199.777 161.226C-199.561 161.226 -199.561 161.226 -199.344 161.226C-198.262 161.226 -197.396 160.668 -197.396 159.737ZM-4.9155 163.274C-4.69899 162.902 -4.48249 162.716 -4.48249 162.343C-4.48249 161.785 -4.91553 161.226 -5.34856 160.854L-5.56505 160.668C-5.99808 160.482 -6.21459 160.296 -6.64762 160.296C-7.29716 160.296 -7.9467 160.668 -8.37973 161.04C-9.02927 161.785 -8.81275 162.902 -7.73018 163.461C-7.73018 163.461 -7.51369 163.46 -7.51369 163.647C-7.08066 163.833 -6.86415 164.019 -6.43112 164.019C-5.9981 164.019 -5.34853 163.833 -4.9155 163.274ZM5.04408 168.86C5.2606 168.487 5.4771 168.301 5.4771 167.929C5.4771 167.37 5.04409 166.812 4.61106 166.439C4.61106 166.439 4.61105 166.439 4.39454 166.439C3.96151 166.253 3.745 166.067 3.31197 166.067C2.66243 166.067 2.01292 166.439 1.57989 166.812C1.36338 167.184 1.14685 167.743 1.36336 168.115C1.57988 168.487 1.79638 169.046 2.2294 169.232L2.44593 169.418C2.87896 169.604 3.09547 169.79 3.5285 169.79C3.96152 169.604 4.61106 169.418 5.04408 168.86ZM-199.128 170.908C-198.695 170.535 -198.478 170.163 -198.478 169.604V169.418C-198.478 169.046 -198.695 168.487 -199.128 168.115C-199.561 167.743 -199.994 167.556 -200.643 167.556C-201.293 167.556 -201.726 167.743 -202.159 168.115C-202.592 168.487 -202.809 168.86 -202.809 169.418V169.604C-202.809 170.163 -202.592 170.535 -202.159 170.908C-201.726 171.28 -201.293 171.466 -200.643 171.466C-199.994 171.466 -199.344 171.28 -199.128 170.908ZM14.7872 174.631C15.0037 174.259 15.2202 174.073 15.2202 173.7C15.2202 173.142 14.7872 172.583 14.3542 172.211L14.1376 172.025C13.7046 171.838 13.4881 171.652 13.0551 171.652C12.4055 171.652 11.756 172.025 11.323 172.397C10.6734 173.142 10.89 174.259 11.756 174.817C11.756 174.817 11.756 174.817 11.9725 174.817C12.4055 175.003 12.622 175.19 13.0551 175.19C13.9211 175.376 14.5707 175.19 14.7872 174.631ZM24.7468 180.589C24.9633 180.216 25.1798 179.844 25.1798 179.472C25.1798 178.913 24.7468 178.355 24.3138 177.982L24.0973 177.796C23.6642 177.61 23.2312 177.424 22.7982 177.424C22.1486 177.424 21.4991 177.796 21.0661 178.168C20.6331 178.541 20.633 179.099 20.633 179.472C20.633 179.844 21.0661 180.402 21.4991 180.589L21.7156 180.775C22.1486 180.961 22.5817 181.147 23.0147 181.147C23.6642 181.333 24.3138 181.147 24.7468 180.589ZM-199.561 181.706C-198.478 181.52 -197.612 180.775 -197.829 179.658V179.472C-198.045 178.541 -198.911 177.982 -199.777 177.982H-199.994C-201.076 178.168 -201.726 178.913 -201.726 179.844V180.03C-201.726 180.03 -201.726 180.03 -201.726 180.216C-201.726 180.961 -200.86 181.706 -199.561 181.706C-199.777 181.706 -199.777 181.706 -199.561 181.706ZM34.2734 186.732C34.4899 186.36 34.7064 185.988 34.7064 185.615C34.7064 185.057 34.4899 184.498 33.8403 184.126C33.8403 184.126 33.6238 184.126 33.6238 183.94C33.1908 183.754 32.7578 183.567 32.3248 183.567C31.6752 183.567 31.0257 183.94 30.5926 184.312C29.9431 185.057 30.1596 186.174 31.0257 186.732C31.0257 186.732 31.2422 186.732 31.2422 186.919C31.6752 187.105 32.1082 187.291 32.5413 187.291C33.4073 187.477 34.0569 187.105 34.2734 186.732ZM-197.179 191.759C-196.097 191.573 -195.447 190.642 -195.664 189.711V189.525C-195.88 188.78 -196.746 188.222 -197.612 188.222C-197.829 188.222 -198.045 188.222 -198.045 188.222C-198.478 188.408 -198.911 188.594 -199.128 188.78C-199.344 189.153 -199.561 189.525 -199.561 189.897C-199.561 190.084 -199.561 190.084 -199.561 190.27V190.456C-199.344 191.201 -198.478 191.759 -197.612 191.759C-197.612 191.945 -197.396 191.759 -197.179 191.759ZM44.0165 192.876C44.233 192.504 44.4495 192.132 44.4495 191.759C44.4495 191.201 44.233 190.642 43.5834 190.27C43.1504 190.084 42.7174 189.897 42.2843 189.897C41.6348 189.897 40.9853 190.084 40.5523 190.642C40.1192 191.014 40.1192 191.573 40.1192 191.945C40.1192 192.318 40.5523 192.876 40.9853 193.062C40.9853 193.062 41.2018 193.062 41.2018 193.249C41.6348 193.435 42.0678 193.621 42.5009 193.621C42.9339 193.435 43.5834 193.249 44.0165 192.876ZM53.5431 199.02C53.7596 198.648 53.9761 198.275 53.9761 197.903C53.9761 197.344 53.7595 196.786 53.11 196.414C53.11 196.414 52.8935 196.414 52.8935 196.227C52.4605 196.041 52.0274 195.855 51.5944 195.855C50.9449 195.855 50.2953 196.041 49.8623 196.6C49.4293 196.972 49.4293 197.531 49.4293 197.903C49.4293 198.275 49.8623 198.834 50.2954 199.02C50.2954 199.02 50.2953 199.02 50.5119 199.206C50.9449 199.392 51.3779 199.579 51.8109 199.579C52.4605 199.765 53.11 199.392 53.5431 199.02ZM-193.715 201.626C-192.632 201.254 -191.983 200.323 -192.416 199.392V199.206C-192.632 198.461 -193.499 198.089 -194.365 198.089C-194.581 198.089 -194.798 198.089 -195.014 198.275C-195.88 198.461 -196.53 199.206 -196.53 199.951C-196.53 200.137 -196.53 200.323 -196.313 200.509V200.696C-196.097 201.44 -195.231 201.813 -194.365 201.813C-194.148 201.813 -193.932 201.626 -193.715 201.626ZM63.0696 205.35C63.2861 204.978 63.5026 204.605 63.5026 204.233C63.5026 203.674 63.2861 203.116 62.6366 202.744C62.6366 202.744 62.4201 202.744 62.4201 202.557C61.9871 202.371 61.554 202.185 61.121 202.185C60.4715 202.185 59.8219 202.371 59.3889 202.93C58.7394 203.674 58.9559 204.791 59.8219 205.35C59.8219 205.35 60.0385 205.35 60.0385 205.536C60.4715 205.722 60.9045 205.908 61.3375 205.908C61.9871 205.908 62.6366 205.722 63.0696 205.35ZM-189.168 211.121C-188.735 210.935 -188.302 210.563 -188.086 210.191C-187.869 209.818 -187.869 209.26 -188.086 208.887V208.701C-188.519 208.143 -189.168 207.584 -190.034 207.584C-190.251 207.584 -190.684 207.584 -190.9 207.77C-191.55 208.143 -192.199 208.701 -192.199 209.446C-192.199 209.632 -192.199 210.004 -191.983 210.191V210.377C-191.55 210.935 -190.9 211.494 -190.034 211.494C-189.818 211.308 -189.601 211.308 -189.168 211.121ZM72.3797 211.494C72.5962 211.121 72.8127 210.749 72.8127 210.377C72.8127 209.818 72.5962 209.26 71.9467 209.073C71.9467 209.073 71.7302 209.073 71.7302 208.887C71.2971 208.701 70.8641 208.515 70.4311 208.515C69.7815 208.515 69.132 208.701 68.699 209.26C68.266 209.632 68.2659 210.191 68.2659 210.563C68.2659 210.935 68.699 211.494 69.132 211.68C69.132 211.68 69.132 211.68 69.3485 211.68C69.7815 211.866 70.2146 212.052 70.6476 212.052C71.5136 212.238 72.1632 212.052 72.3797 211.494ZM81.9063 218.01C82.1228 217.638 82.3393 217.265 82.3393 216.893C82.3393 216.334 82.1228 215.776 81.4733 215.59C81.4733 215.59 81.4732 215.59 81.2567 215.59C80.8237 215.403 80.3907 215.217 79.9577 215.217C79.3081 215.217 78.6586 215.403 78.4421 215.962C78.0091 216.334 78.009 216.707 78.009 217.265C78.009 217.638 78.4421 218.196 78.8751 218.382L79.0916 218.568C79.5246 218.755 79.9577 218.941 80.3907 218.941C80.8237 218.568 81.4732 218.382 81.9063 218.01ZM-183.755 220.244C-183.322 220.058 -182.889 219.685 -182.673 219.127C-182.456 218.755 -182.673 218.196 -182.889 217.824L-183.106 217.638C-183.539 217.079 -184.188 216.707 -184.838 216.707C-185.271 216.707 -185.488 216.707 -185.921 216.893C-186.57 217.265 -187.003 217.824 -187.003 218.382C-187.003 218.755 -187.003 218.941 -186.787 219.313V219.499C-186.354 220.058 -185.704 220.43 -185.055 220.43C-184.405 220.616 -183.972 220.43 -183.755 220.244ZM91.2163 224.34C91.4329 223.968 91.6494 223.595 91.6494 223.223C91.6494 222.664 91.4329 222.106 90.7833 221.92L90.5668 221.733C90.1338 221.547 89.7008 221.361 89.2677 221.361C88.6182 221.361 87.9686 221.547 87.7521 222.106C87.3191 222.478 87.3191 222.85 87.3191 223.409C87.3191 223.781 87.7521 224.34 88.1852 224.526C88.1852 224.526 88.4017 224.526 88.4017 224.712C88.8347 224.898 89.2677 225.085 89.7008 225.085C90.3503 225.085 90.7833 224.712 91.2163 224.34ZM100.526 230.67C100.743 230.297 100.959 229.925 100.959 229.553C100.959 228.994 100.743 228.436 100.093 228.25C100.093 228.25 99.8769 228.25 99.8769 228.063C99.4438 227.877 99.0108 227.691 98.5778 227.691C97.9282 227.691 97.2787 227.877 97.0622 228.436C96.6292 228.808 96.6292 229.18 96.6292 229.739C96.6292 230.111 97.0622 230.67 97.4952 230.856C97.4952 230.856 97.4952 230.856 97.7117 231.042C98.1448 231.228 98.5778 231.415 99.0108 231.415C99.6604 231.415 100.31 231.228 100.526 230.67ZM110.053 237.186C110.486 236.814 110.486 236.441 110.486 235.883C110.486 235.51 110.053 234.952 109.62 234.766L109.403 234.58C108.97 234.393 108.537 234.207 108.104 234.207C107.455 234.207 106.805 234.393 106.589 234.952C105.939 235.697 105.939 236.814 107.022 237.372L107.238 237.558C107.671 237.744 108.104 237.931 108.537 237.931C108.97 237.745 109.62 237.558 110.053 237.186Z" fill="white"/>
</g>
<mask id="mask43_5621_61742" style="mask-type:luminance" maskUnits="userSpaceOnUse" x="-284" y="35" width="729" height="562">
<path d="M445 35H-284V596.505H445V35Z" fill="white"/>
</mask>
<g mask="url(#mask43_5621_61742)">
<path d="M14.3534 259.899C14.1369 259.899 13.9204 259.899 13.7039 259.713C12.4048 259.34 11.7553 258.223 12.1883 257.106C15.003 249.659 23.2305 244.074 32.1075 243.329C39.902 242.771 47.913 245.75 52.8928 251.149C56.357 247.798 61.7698 245.75 66.9661 245.936C73.4615 246.122 79.7404 249.287 82.7716 254.314C83.4211 255.245 82.9881 256.548 81.9055 257.106C80.823 257.665 79.3074 257.293 78.6578 256.362C76.2762 252.824 71.7294 250.218 66.7496 250.218C61.9863 250.218 57.0065 252.452 54.6249 255.989C54.1919 256.548 53.3258 256.92 52.4598 256.92C51.5937 256.92 50.9441 256.548 50.5111 255.803C47.0469 250.404 39.6854 247.053 32.5405 247.611C25.3956 248.17 18.9002 252.824 16.5186 258.596C16.302 259.34 15.436 259.899 14.3534 259.899Z" fill="#FFB0BA"/>
</g>
<mask id="mask44_5621_61742" style="mask-type:luminance" maskUnits="userSpaceOnUse" x="-284" y="35" width="729" height="562">
<path d="M445 35H-284V596.505H445V35Z" fill="white"/>
</mask>
<g mask="url(#mask44_5621_61742)">
<path d="M105.94 393.016C104.857 393.016 103.991 392.457 103.775 391.526C102.476 385.569 105.94 378.866 112.219 375.888C116.549 373.84 121.745 373.653 126.292 374.957C126.076 372.164 126.942 368.999 129.323 366.951C133.437 363.228 140.366 362.855 145.129 365.834C145.995 366.393 146.211 367.696 145.562 368.441C144.912 369.185 143.397 369.371 142.531 368.813C139.716 366.951 135.169 367.323 132.571 369.371C130.189 371.605 129.973 375.515 132.355 377.935C133.221 378.68 133.004 379.797 132.138 380.542C131.272 381.287 129.973 381.287 129.107 380.542C125.21 377.563 118.931 376.818 114.384 379.052C109.837 381.287 107.239 386.313 108.105 390.595C108.322 391.712 107.672 392.643 106.373 392.829C106.373 393.016 106.156 393.016 105.94 393.016Z" fill="#FF7A7A"/>
</g>
<mask id="mask45_5621_61742" style="mask-type:luminance" maskUnits="userSpaceOnUse" x="-284" y="35" width="729" height="562">
<path d="M445 35H-284V596.505H445V35Z" fill="white"/>
</mask>
<g mask="url(#mask45_5621_61742)">
<path d="M107.458 138.514C107.458 146.147 103.56 153.036 97.2815 157.69C91.0026 162.344 87.5384 169.233 87.5384 176.494C87.5384 177.983 86.0228 179.286 84.2907 179.286H70.8669C69.1348 179.286 67.6192 177.983 67.6192 176.494V176.308C67.6192 169.047 63.9385 162.344 57.6596 157.504C51.3807 152.663 47.4835 145.589 47.7 137.769C48.133 124.178 61.1238 113.008 76.9293 112.822C93.8173 112.822 107.458 124.178 107.458 138.514Z" fill="#FFEB00"/>
</g>
<mask id="mask46_5621_61742" style="mask-type:luminance" maskUnits="userSpaceOnUse" x="-284" y="35" width="729" height="562">
<path d="M445 35H-284V596.505H445V35Z" fill="white"/>
</mask>
<g mask="url(#mask46_5621_61742)">
<path d="M72.5965 188.408H82.9891C84.2882 188.408 85.3708 187.477 85.3708 186.36C85.3708 185.243 84.2882 184.312 82.9891 184.312H72.5965C71.2974 184.312 70.2148 185.243 70.2148 186.36C70.2148 187.477 71.2974 188.408 72.5965 188.408Z" fill="white"/>
</g>
<mask id="mask47_5621_61742" style="mask-type:luminance" maskUnits="userSpaceOnUse" x="-284" y="35" width="729" height="562">
<path d="M445 35H-284V596.505H445V35Z" fill="white"/>
</mask>
<g mask="url(#mask47_5621_61742)">
<path d="M87.1026 105.002C88.4016 105.374 89.7007 104.63 90.1337 103.513L93.3814 92.9006C93.8145 91.7835 92.9484 90.6665 91.6493 90.2941C90.3502 89.9218 89.0512 90.6665 88.6182 91.7835L85.3705 102.396C84.9374 103.699 85.8035 104.816 87.1026 105.002Z" fill="white"/>
</g>
<mask id="mask48_5621_61742" style="mask-type:luminance" maskUnits="userSpaceOnUse" x="-284" y="35" width="729" height="562">
<path d="M445 35H-284V596.505H445V35Z" fill="white"/>
</mask>
<g mask="url(#mask48_5621_61742)">
<path d="M104.424 111.705C105.074 111.705 105.724 111.518 106.373 110.96C109.404 107.609 112.652 104.444 115.683 101.093C116.549 100.162 116.333 98.8585 115.25 98.1138C114.168 97.3691 112.652 97.5553 111.786 98.4862C108.755 101.651 105.507 105.002 102.476 108.353C101.61 109.284 101.826 110.588 102.909 111.332C103.342 111.705 103.991 111.705 104.424 111.705Z" fill="white"/>
</g>
</g>
<g opacity="0.2" clip-path="url(#clip3_5621_61742)">
<mask id="mask49_5621_61742" style="mask-type:luminance" maskUnits="userSpaceOnUse" x="515" y="-30" width="529" height="562">
<path d="M1043.39 -30H515.396V531.505H1043.39V-30Z" fill="white"/>
</mask>
<g mask="url(#mask49_5621_61742)">
<path d="M724.898 411.236C722.546 411.236 720.664 413.47 720.664 416.263C720.664 419.055 722.546 421.289 724.898 421.289C727.25 421.289 729.132 419.055 729.132 416.263C729.132 413.47 727.25 411.236 724.898 411.236Z" fill="#019772"/>
</g>
<mask id="mask50_5621_61742" style="mask-type:luminance" maskUnits="userSpaceOnUse" x="515" y="-30" width="529" height="562">
<path d="M1043.39 -30H515.396V531.505H1043.39V-30Z" fill="white"/>
</mask>
<g mask="url(#mask50_5621_61742)">
<path d="M711.566 117.823C708.587 117.823 706.234 120.616 706.234 124.153C706.234 127.691 708.587 130.483 711.566 130.483C714.545 130.483 716.898 127.691 716.898 124.153C716.898 120.616 714.545 117.823 711.566 117.823Z" fill="#019772"/>
</g>
<mask id="mask51_5621_61742" style="mask-type:luminance" maskUnits="userSpaceOnUse" x="515" y="-30" width="529" height="562">
<path d="M1043.39 -30H515.396V531.505H1043.39V-30Z" fill="white"/>
</mask>
<g mask="url(#mask51_5621_61742)">
<path d="M644.926 306.977C642.104 306.977 639.908 309.77 639.908 312.935C639.908 316.1 642.26 318.892 644.926 318.892C647.749 318.892 649.944 316.1 649.944 312.935C649.944 309.77 647.749 306.977 644.926 306.977Z" fill="white"/>
</g>
<mask id="mask52_5621_61742" style="mask-type:luminance" maskUnits="userSpaceOnUse" x="515" y="-30" width="529" height="562">
<path d="M1043.39 -30H515.396V531.505H1043.39V-30Z" fill="white"/>
</mask>
<g mask="url(#mask52_5621_61742)">
<path d="M602.114 280.169L606.504 284.265L610.111 280.913C611.052 279.983 612.463 281.286 611.993 282.589L610.268 287.057L614.188 290.595C615.286 291.525 614.502 293.573 613.247 293.201L608.857 292.084L607.759 298.414C607.445 299.903 605.563 299.903 605.407 298.414L604.623 293.201L599.448 294.132C598.193 294.318 597.566 292.27 598.664 291.525L602.427 288.733L600.389 282.403C599.918 280.355 601.173 279.238 602.114 280.169Z" fill="#019772"/>
</g>
<mask id="mask53_5621_61742" style="mask-type:luminance" maskUnits="userSpaceOnUse" x="515" y="-30" width="529" height="562">
<path d="M1043.39 -30H515.396V531.505H1043.39V-30Z" fill="white"/>
</mask>
<g mask="url(#mask53_5621_61742)">
<path d="M671.895 416.076C657.625 416.076 643.355 409.932 632.848 398.389C618.265 382.192 611.992 356.499 616.54 333.414L607.601 341.047C606.66 341.792 605.406 341.605 604.779 340.488C604.151 339.371 604.308 337.882 605.249 337.137L619.049 325.408C619.833 324.85 620.774 324.85 621.401 325.408C622.185 325.967 622.342 327.084 622.028 328.201C615.128 350.914 620.617 378.468 635.671 394.852C650.568 411.421 674.09 416.076 692.751 406.208C693.848 405.65 694.946 406.208 695.417 407.325C695.887 408.442 695.417 409.932 694.319 410.49C687.419 414.214 679.578 416.076 671.895 416.076Z" fill="#4A003D"/>
</g>
<mask id="mask54_5621_61742" style="mask-type:luminance" maskUnits="userSpaceOnUse" x="515" y="-30" width="529" height="562">
<path d="M1043.39 -30H515.396V531.505H1043.39V-30Z" fill="white"/>
</mask>
<g mask="url(#mask54_5621_61742)">
<path d="M627.05 347.563C626.266 347.563 625.482 347.004 625.168 346.073L618.269 328.201C617.798 327.083 618.269 325.594 619.209 325.036C620.15 324.477 621.405 325.036 621.875 326.153L628.775 344.025C629.245 345.142 628.775 346.632 627.834 347.19C627.677 347.563 627.364 347.563 627.05 347.563Z" fill="#4A003D"/>
</g>
<mask id="mask55_5621_61742" style="mask-type:luminance" maskUnits="userSpaceOnUse" x="515" y="-30" width="529" height="562">
<path d="M1043.39 -30H515.396V531.505H1043.39V-30Z" fill="white"/>
</mask>
<g mask="url(#mask55_5621_61742)">
<path d="M687.729 129.926C687.573 129.926 687.573 129.926 687.416 129.926C686.475 129.739 685.848 128.622 686.004 127.505L688.043 113.914H677.85C677.38 113.914 676.909 113.728 676.596 113.356C676.282 112.984 676.125 112.425 676.125 111.867L676.596 100.696H667.187C666.716 100.696 666.089 100.324 665.776 99.9513C665.462 99.3927 665.305 98.8342 665.462 98.0895L668.285 87.6637C668.598 86.5467 669.539 85.9881 670.48 86.3605C671.421 86.7328 671.891 87.8499 671.578 88.9669L669.539 96.7863H678.477C678.948 96.7863 679.418 96.9725 679.732 97.3448C680.046 97.7172 680.202 98.2757 680.202 98.8342L679.732 110.005H690.238C690.709 110.005 691.179 110.191 691.493 110.749C691.806 111.122 691.963 111.867 691.806 112.425L689.454 128.436C689.297 129.367 688.513 129.926 687.729 129.926Z" fill="#4A003D"/>
</g>
<mask id="mask56_5621_61742" style="mask-type:luminance" maskUnits="userSpaceOnUse" x="515" y="-30" width="529" height="562">
<path d="M1043.39 -30H515.396V531.505H1043.39V-30Z" fill="white"/>
</mask>
<g mask="url(#mask56_5621_61742)">
<path d="M596.464 400.995C588.624 400.995 580.783 399.878 573.726 397.644C561.652 393.921 551.616 387.218 543.775 377.91C536.405 369.159 531.073 357.989 528.408 345.329C525.742 333.041 525.585 320.009 527.937 307.908C532.641 284.263 546.911 262.853 566.199 250.752C566.983 250.193 568.081 250.566 568.552 251.683C569.022 252.613 568.708 253.917 567.768 254.475C549.264 266.018 535.621 286.497 531.23 309.025C526.526 332.855 532.328 358.733 546.284 375.303C558.202 389.452 576.392 397.272 596.621 397.272C600.385 397.272 604.305 396.899 608.068 396.527C630.65 393.362 651.662 382.005 672.048 371.207C672.989 370.835 673.93 371.207 674.243 372.138C674.557 373.255 674.243 374.372 673.459 374.745C652.917 385.729 631.59 397.086 608.539 400.437C604.305 400.623 600.385 400.995 596.464 400.995Z" fill="white"/>
</g>
<mask id="mask57_5621_61742" style="mask-type:luminance" maskUnits="userSpaceOnUse" x="515" y="-30" width="529" height="562">
<path d="M1043.39 -30H515.396V531.505H1043.39V-30Z" fill="white"/>
</mask>
<g mask="url(#mask57_5621_61742)">
<path d="M668.917 388.151C668.76 388.151 668.604 388.151 668.447 387.965C667.506 387.592 667.035 386.475 667.349 385.358L670.328 373.815L658.567 369.906C657.627 369.533 657.156 368.416 657.47 367.486C657.783 366.368 658.724 365.81 659.508 366.182L672.994 370.65C673.465 370.837 673.778 371.209 674.092 371.581C674.249 372.14 674.406 372.698 674.249 373.071L670.642 386.662C670.328 387.592 669.701 388.151 668.917 388.151Z" fill="white"/>
</g>
<mask id="mask58_5621_61742" style="mask-type:luminance" maskUnits="userSpaceOnUse" x="515" y="-30" width="529" height="562">
<path d="M1043.39 -30H515.396V531.505H1043.39V-30Z" fill="white"/>
</mask>
<g mask="url(#mask58_5621_61742)">
<path d="M619.991 55.454C620.931 55.454 621.715 54.7093 621.715 53.5922C621.715 52.4752 621.088 51.7305 620.147 51.7305H619.991C619.206 51.7305 618.422 52.4752 618.579 53.5922C618.579 54.5231 619.206 55.454 619.991 55.454ZM630.34 54.3369C630.34 53.2199 629.713 52.4752 628.929 52.289H628.772H628.615C627.831 52.289 627.204 53.0337 627.204 53.9646C627.204 54.3369 627.204 54.8954 627.518 55.2678C627.831 55.6401 628.145 55.8263 628.458 55.8263C628.458 55.8263 628.458 55.8263 628.615 55.8263C628.615 55.8263 628.615 55.8263 628.772 55.8263H628.929C629.556 55.8263 630.34 55.2678 630.34 54.3369ZM611.679 56.0125H611.836C612.62 55.8263 613.091 55.0816 613.091 54.1508V53.9646C613.091 53.5922 612.777 53.2199 612.62 52.8475C612.307 52.4752 611.836 52.289 611.366 52.4752H611.209C610.895 52.4752 610.425 52.8475 610.268 53.2199C610.111 53.5922 609.955 54.1507 609.955 54.5231C609.955 54.8955 610.268 55.2678 610.425 55.6402C610.739 56.0125 611.052 56.0125 611.366 56.0125C611.523 56.1987 611.523 56.1987 611.679 56.0125ZM638.965 56.0125C638.965 55.8263 638.965 55.8263 638.965 55.6402C638.965 54.7093 638.494 54.1507 637.71 53.9646H637.554C637.397 53.9646 637.397 53.9646 637.24 53.9646C636.456 53.9646 635.985 54.5231 635.829 55.454C635.672 56.3849 636.142 57.3157 637.083 57.5019H637.24C637.397 57.5019 637.397 57.5019 637.554 57.5019C638.181 57.5019 638.808 56.7572 638.965 56.0125ZM603.525 58.4328C604.309 58.0604 604.623 57.5019 604.623 56.7572C604.623 56.571 604.623 56.3848 604.466 56.1987C604.309 55.454 603.682 55.0816 603.055 55.0816C602.898 55.0816 602.741 55.0816 602.584 55.2678C602.584 55.2678 602.584 55.2678 602.427 55.2678C601.643 55.6401 601.173 56.571 601.487 57.5019C601.643 58.2466 602.271 58.8051 602.898 58.8051C603.212 58.4328 603.368 58.4328 603.525 58.4328ZM647.276 58.4328C647.276 58.2466 647.276 58.0604 647.276 58.0604C647.276 57.3157 646.806 56.571 646.178 56.3849H646.021C645.865 56.3849 645.708 56.3849 645.708 56.3849C645.081 56.3849 644.453 56.9434 644.297 57.6881C644.14 58.0604 644.297 58.6189 644.453 58.9913C644.61 59.3637 644.924 59.736 645.394 59.736C645.394 59.736 645.394 59.736 645.551 59.736C645.551 59.736 645.551 59.736 645.708 59.736C645.865 59.736 646.021 59.736 646.021 59.736C646.492 59.736 647.119 59.1775 647.276 58.4328ZM655.587 61.4116C655.587 61.2254 655.587 61.0392 655.587 60.8531C655.587 60.1084 655.117 59.3637 654.489 59.1775H654.333C654.176 59.1775 654.019 59.1775 653.862 59.1775C653.235 59.1775 652.608 59.736 652.451 60.4807C652.294 60.8531 652.294 61.4116 652.608 61.7839C652.764 62.1563 653.078 62.5286 653.548 62.7148C653.548 62.7148 653.548 62.7148 653.705 62.7148C653.862 62.7148 654.019 62.7148 654.176 62.7148C654.803 62.7148 655.43 62.1563 655.587 61.4116ZM595.998 62.5287C596.625 62.1563 596.782 61.5978 596.782 60.8531C596.782 60.4807 596.782 60.2945 596.625 59.9222C596.312 59.3637 595.841 58.9913 595.371 58.9913C595.057 58.9913 594.9 58.9913 594.587 59.1775L594.43 59.3637C593.803 59.9222 593.489 61.0392 593.96 61.7839C594.273 62.3425 594.744 62.7148 595.214 62.7148C595.371 62.901 595.685 62.7148 595.998 62.5287ZM663.741 64.9489C663.741 64.7628 663.898 64.5766 663.898 64.3904C663.898 63.6457 663.585 63.0872 662.957 62.7148H662.8C662.644 62.7148 662.487 62.5287 662.33 62.5287C661.703 62.5287 661.076 62.901 660.919 63.6457C660.762 64.018 660.762 64.5766 660.919 64.9489C661.076 65.3213 661.389 65.6936 661.703 65.8798C661.703 65.8798 661.703 65.8798 661.86 65.8798C661.86 65.8798 661.86 65.8798 662.016 65.8798C662.173 65.8798 662.33 66.066 662.487 66.066C662.957 66.066 663.585 65.5075 663.741 64.9489ZM589.412 68.6724C589.882 68.1139 590.039 67.7416 590.039 67.183C590.039 66.8107 589.882 66.2522 589.569 65.8798C589.255 65.5075 588.942 65.3213 588.471 65.3213C588.158 65.3213 587.687 65.5075 587.373 65.8798L587.217 66.066C586.589 66.8107 586.589 67.9277 587.217 68.6724C587.53 69.0448 587.844 69.2309 588.314 69.2309C588.785 69.2309 589.098 69.0448 589.412 68.6724ZM671.739 68.8586C671.896 68.6724 671.896 68.4863 671.896 68.1139C671.896 67.3692 671.582 66.8107 670.955 66.4383H670.798C670.641 66.2521 670.484 66.2522 670.171 66.2522C669.543 66.2522 669.073 66.6245 668.759 67.3692C668.603 67.7415 668.603 68.3001 668.759 68.6724C668.916 69.0448 669.23 69.4171 669.543 69.6033H669.7C669.857 69.7895 670.014 69.7895 670.327 69.7895C670.955 69.7895 671.582 69.4171 671.739 68.8586ZM679.736 72.9545C679.893 72.7683 679.893 72.3959 679.893 72.2098C679.893 71.4651 679.579 70.9066 678.952 70.5342H678.795C678.639 70.348 678.325 70.348 678.168 70.348C677.541 70.348 677.07 70.7204 676.757 71.4651C676.6 71.8374 676.6 72.3959 676.757 72.7683C676.914 73.1407 677.227 73.513 677.541 73.6992H677.698C677.854 73.8854 678.168 73.8853 678.325 73.8853C678.952 74.0715 679.423 73.6992 679.736 72.9545ZM584.237 76.3056C584.551 75.9333 584.551 75.5609 584.551 75.1886C584.551 74.6301 584.237 74.0715 583.924 73.6992C583.61 73.513 583.453 73.3268 583.14 73.3268C582.669 73.3268 582.199 73.6992 581.885 74.0715L581.728 74.2577C581.571 74.6301 581.415 75.1886 581.571 75.5609C581.728 75.9333 581.885 76.4918 582.199 76.678C582.512 76.8641 582.669 77.0503 582.983 77.0503C583.453 77.2365 583.924 76.8641 584.237 76.3056ZM687.42 77.6088C687.577 77.4227 687.577 77.0503 687.577 76.8642C687.577 76.1195 687.263 75.5609 686.793 75.3747C686.793 75.3747 686.636 75.3748 686.636 75.1886C686.479 75.0024 686.166 75.0024 686.009 75.0024C685.382 75.0024 684.911 75.3747 684.597 75.9333C684.284 76.8642 684.597 77.795 685.225 78.3536H685.381C685.538 78.5397 685.852 78.5397 686.009 78.5397C686.793 78.5397 687.263 78.1674 687.42 77.6088ZM695.104 82.4494C695.261 82.2632 695.261 81.8909 695.261 81.5185C695.261 80.96 694.947 80.2153 694.477 80.0291C694.477 80.0291 694.477 80.0291 694.32 80.0291C694.163 79.843 693.849 79.843 693.536 79.843C693.065 79.843 692.438 80.2153 692.281 80.7738C692.124 81.1462 691.968 81.7047 692.124 82.0771C692.281 82.4494 692.438 82.8218 692.909 83.1941C692.909 83.1941 693.065 83.1941 693.065 83.3803C693.222 83.5665 693.536 83.5665 693.849 83.5665C694.32 83.3803 694.947 83.0079 695.104 82.4494ZM580.474 85.242C580.631 84.8697 580.63 84.6835 580.63 84.4974C580.63 83.7527 580.317 83.1941 579.69 82.8218C579.533 82.8218 579.376 82.6356 579.219 82.6356C578.592 82.6356 578.121 83.0079 577.808 83.7526V83.9388C577.494 84.8697 577.965 85.8006 578.749 86.1729C578.906 86.1729 579.062 86.3591 579.219 86.3591C579.69 86.3591 580.16 85.8006 580.474 85.242ZM702.631 87.4761C702.788 87.29 702.788 86.9176 702.788 86.5453C702.788 85.9867 702.474 85.242 702.004 85.0559L701.847 84.8697C701.69 84.6835 701.376 84.6835 701.063 84.6835C700.592 84.6835 699.965 85.0559 699.808 85.6144C699.338 86.5453 699.651 87.4762 700.279 88.0347H700.436C700.592 88.2209 700.906 88.2209 701.22 88.2209C701.847 88.407 702.474 88.0347 702.631 87.4761ZM710.158 92.6891C710.315 92.3167 710.315 92.1305 710.315 91.7582C710.315 91.1997 710.001 90.6411 709.531 90.2688C709.531 90.2688 709.374 90.2688 709.374 90.0826C709.06 89.8964 708.903 89.8964 708.59 89.8964C708.119 89.8964 707.649 90.2688 707.335 90.8273C707.179 91.1997 707.022 91.7582 707.179 92.1305C707.335 92.5029 707.492 93.0614 707.806 93.2476H707.963C708.276 93.4338 708.433 93.4338 708.747 93.4338C709.374 93.6199 709.844 93.2476 710.158 92.6891ZM578.121 94.737C578.121 94.3647 578.121 94.3647 578.121 94.1785C578.121 93.2476 577.651 92.5029 576.867 92.5029C576.71 92.5029 576.71 92.5029 576.553 92.5029C575.769 92.5029 575.142 93.0614 575.142 93.9923C575.142 93.9923 575.142 93.9923 575.142 94.1785C574.985 95.1094 575.456 96.0402 576.397 96.2264C576.553 96.2264 576.553 96.2264 576.71 96.2264C577.494 96.2264 578.121 95.6679 578.121 94.737ZM717.528 98.2743C717.685 97.902 717.842 97.7158 717.842 97.3435C717.842 96.7849 717.528 96.2264 717.215 95.854L717.058 95.6679C716.744 95.4817 716.587 95.2955 716.274 95.2955C715.803 95.2955 715.333 95.6679 715.019 96.0402C714.549 96.7849 714.706 97.902 715.49 98.4605C715.49 98.4605 715.646 98.4605 715.646 98.6467C715.96 98.8328 716.117 99.019 716.43 99.019C716.744 99.019 717.215 98.8329 717.528 98.2743ZM724.742 103.86C724.898 103.487 725.055 103.301 725.055 102.929C725.055 102.37 724.742 101.812 724.428 101.439C724.428 101.439 724.428 101.439 724.271 101.439C723.957 101.253 723.801 101.067 723.487 101.067C723.017 101.067 722.546 101.439 722.233 101.812C722.076 102.184 721.919 102.743 722.076 103.115C722.233 103.487 722.389 104.046 722.703 104.232L722.86 104.418C723.173 104.604 723.33 104.79 723.644 104.79C723.957 104.604 724.428 104.418 724.742 103.86ZM576.867 105.908C577.181 105.535 577.337 105.163 577.337 104.604V104.418C577.337 104.046 577.181 103.487 576.867 103.115C576.553 102.743 576.24 102.556 575.769 102.556C575.299 102.556 574.985 102.743 574.672 103.115C574.358 103.487 574.201 103.86 574.201 104.418V104.604C574.201 105.163 574.358 105.535 574.672 105.908C574.985 106.28 575.299 106.466 575.769 106.466C576.24 106.466 576.71 106.28 576.867 105.908ZM731.798 109.631C731.955 109.259 732.112 109.073 732.112 108.7C732.112 108.142 731.798 107.583 731.484 107.211L731.328 107.025C731.014 106.838 730.857 106.652 730.544 106.652C730.073 106.652 729.603 107.025 729.289 107.397C728.819 108.142 728.975 109.259 729.603 109.817C729.603 109.817 729.603 109.817 729.76 109.817C730.073 110.003 730.23 110.19 730.544 110.19C731.171 110.376 731.641 110.19 731.798 109.631ZM739.012 115.589C739.168 115.216 739.325 114.844 739.325 114.472C739.325 113.913 739.012 113.355 738.698 112.982L738.541 112.796C738.227 112.61 737.914 112.424 737.6 112.424C737.13 112.424 736.659 112.796 736.346 113.168C736.032 113.541 736.032 114.099 736.032 114.472C736.032 114.844 736.346 115.402 736.659 115.589L736.816 115.775C737.13 115.961 737.443 116.147 737.757 116.147C738.227 116.333 738.698 116.147 739.012 115.589ZM576.553 116.706C577.337 116.52 577.965 115.775 577.808 114.658V114.472C577.651 113.541 577.024 112.982 576.397 112.982H576.24C575.456 113.168 574.985 113.913 574.985 114.844V115.03C574.985 115.03 574.985 115.03 574.985 115.216C574.985 115.961 575.612 116.706 576.553 116.706C576.397 116.706 576.397 116.706 576.553 116.706ZM745.911 121.732C746.068 121.36 746.225 120.988 746.225 120.615C746.225 120.057 746.068 119.498 745.598 119.126C745.598 119.126 745.441 119.126 745.441 118.94C745.127 118.754 744.814 118.567 744.5 118.567C744.03 118.567 743.559 118.94 743.245 119.312C742.775 120.057 742.932 121.174 743.559 121.732C743.559 121.732 743.716 121.732 743.716 121.919C744.03 122.105 744.343 122.291 744.657 122.291C745.284 122.477 745.754 122.105 745.911 121.732ZM578.278 126.759C579.062 126.573 579.533 125.642 579.376 124.711V124.525C579.219 123.78 578.592 123.222 577.965 123.222C577.808 123.222 577.651 123.222 577.651 123.222C577.337 123.408 577.024 123.594 576.867 123.78C576.71 124.153 576.553 124.525 576.553 124.897C576.553 125.084 576.553 125.084 576.553 125.27V125.456C576.71 126.201 577.337 126.759 577.965 126.759C577.965 126.945 578.121 126.759 578.278 126.759ZM752.968 127.876C753.125 127.504 753.281 127.132 753.281 126.759C753.281 126.201 753.125 125.642 752.654 125.27C752.341 125.084 752.027 124.897 751.713 124.897C751.243 124.897 750.772 125.084 750.459 125.642C750.145 126.014 750.145 126.573 750.145 126.945C750.145 127.318 750.459 127.876 750.772 128.062C750.772 128.062 750.929 128.062 750.929 128.249C751.243 128.435 751.557 128.621 751.87 128.621C752.184 128.435 752.654 128.249 752.968 127.876ZM759.868 134.02C760.024 133.648 760.181 133.275 760.181 132.903C760.181 132.344 760.024 131.786 759.554 131.414C759.554 131.414 759.397 131.414 759.397 131.227C759.084 131.041 758.77 130.855 758.456 130.855C757.986 130.855 757.515 131.041 757.202 131.6C756.888 131.972 756.888 132.531 756.888 132.903C756.888 133.275 757.202 133.834 757.515 134.02C757.515 134.02 757.515 134.02 757.672 134.206C757.986 134.392 758.3 134.579 758.613 134.579C759.084 134.765 759.554 134.392 759.868 134.02ZM580.787 136.626C581.571 136.254 582.042 135.323 581.728 134.392V134.206C581.571 133.461 580.944 133.089 580.317 133.089C580.16 133.089 580.003 133.089 579.846 133.275C579.219 133.461 578.749 134.206 578.749 134.951C578.749 135.137 578.749 135.323 578.906 135.509V135.696C579.062 136.44 579.69 136.813 580.317 136.813C580.474 136.813 580.631 136.626 580.787 136.626ZM766.767 140.35C766.924 139.978 767.081 139.605 767.081 139.233C767.081 138.674 766.924 138.116 766.454 137.744C766.454 137.744 766.297 137.744 766.297 137.557C765.983 137.371 765.67 137.185 765.356 137.185C764.886 137.185 764.415 137.371 764.102 137.93C763.631 138.674 763.788 139.791 764.415 140.35C764.415 140.35 764.572 140.35 764.572 140.536C764.886 140.722 765.199 140.908 765.513 140.908C765.983 140.908 766.454 140.722 766.767 140.35ZM584.08 146.121C584.394 145.935 584.708 145.563 584.864 145.191C585.021 144.818 585.021 144.26 584.864 143.887V143.701C584.551 143.143 584.08 142.584 583.453 142.584C583.296 142.584 582.983 142.584 582.826 142.77C582.355 143.143 581.885 143.701 581.885 144.446C581.885 144.632 581.885 145.004 582.042 145.191V145.377C582.355 145.935 582.826 146.494 583.453 146.494C583.61 146.308 583.767 146.308 584.08 146.121ZM773.51 146.494C773.667 146.121 773.824 145.749 773.824 145.377C773.824 144.818 773.667 144.26 773.197 144.073C773.197 144.073 773.04 144.073 773.04 143.887C772.726 143.701 772.413 143.515 772.099 143.515C771.629 143.515 771.158 143.701 770.845 144.26C770.531 144.632 770.531 145.191 770.531 145.563C770.531 145.935 770.845 146.494 771.158 146.68C771.158 146.68 771.158 146.68 771.315 146.68C771.629 146.866 771.942 147.052 772.256 147.052C772.883 147.238 773.354 147.052 773.51 146.494ZM780.41 153.01C780.567 152.638 780.724 152.265 780.724 151.893C780.724 151.334 780.567 150.776 780.096 150.59C780.096 150.59 780.096 150.59 779.94 150.59C779.626 150.403 779.312 150.217 778.999 150.217C778.528 150.217 778.058 150.403 777.901 150.962C777.587 151.334 777.587 151.707 777.587 152.265C777.587 152.638 777.901 153.196 778.215 153.382L778.372 153.568C778.685 153.755 778.999 153.941 779.312 153.941C779.626 153.568 780.096 153.382 780.41 153.01ZM588.001 155.244C588.314 155.058 588.628 154.685 588.785 154.127C588.942 153.755 588.785 153.196 588.628 152.824L588.471 152.638C588.158 152.079 587.687 151.707 587.217 151.707C586.903 151.707 586.746 151.707 586.433 151.893C585.962 152.265 585.649 152.824 585.649 153.382C585.649 153.755 585.649 153.941 585.805 154.313V154.499C586.119 155.058 586.589 155.43 587.06 155.43C587.53 155.616 587.844 155.43 588.001 155.244ZM787.153 159.34C787.31 158.968 787.467 158.595 787.467 158.223C787.467 157.664 787.31 157.106 786.839 156.92L786.683 156.733C786.369 156.547 786.055 156.361 785.742 156.361C785.271 156.361 784.801 156.547 784.644 157.106C784.33 157.478 784.33 157.85 784.33 158.409C784.33 158.781 784.644 159.34 784.958 159.526C784.958 159.526 785.114 159.526 785.114 159.712C785.428 159.898 785.742 160.085 786.055 160.085C786.526 160.085 786.839 159.712 787.153 159.34ZM793.896 165.67C794.053 165.297 794.21 164.925 794.21 164.553C794.21 163.994 794.053 163.436 793.582 163.25C793.582 163.25 793.426 163.25 793.426 163.063C793.112 162.877 792.798 162.691 792.485 162.691C792.014 162.691 791.544 162.877 791.387 163.436C791.073 163.808 791.073 164.18 791.073 164.739C791.073 165.111 791.387 165.67 791.701 165.856C791.701 165.856 791.701 165.856 791.857 166.042C792.171 166.228 792.485 166.415 792.798 166.415C793.269 166.415 793.739 166.228 793.896 165.67ZM800.796 172.186C801.109 171.814 801.109 171.441 801.109 170.883C801.109 170.51 800.796 169.952 800.482 169.766L800.325 169.58C800.012 169.393 799.698 169.207 799.384 169.207C798.914 169.207 798.444 169.393 798.287 169.952C797.816 170.697 797.816 171.814 798.6 172.372L798.757 172.558C799.071 172.744 799.384 172.931 799.698 172.931C800.012 172.745 800.482 172.558 800.796 172.186Z" fill="white"/>
</g>
<mask id="mask59_5621_61742" style="mask-type:luminance" maskUnits="userSpaceOnUse" x="515" y="-30" width="529" height="562">
<path d="M1043.39 -30H515.396V531.505H1043.39V-30Z" fill="white"/>
</mask>
<g mask="url(#mask59_5621_61742)">
<path d="M670.954 319.823C670.169 319.823 669.385 319.078 669.385 318.147C668.758 308.838 673.933 299.716 681.303 296.551C688.673 293.572 697.612 296.923 702.003 304.556C702.473 305.487 702.316 306.604 701.532 307.163C700.748 307.721 699.807 307.535 699.337 306.604C695.73 300.274 688.36 297.482 682.401 300.088C676.285 302.695 672.051 310.142 672.522 317.775C672.678 318.706 671.894 319.637 670.954 319.823Z" fill="#FF7A7A"/>
</g>
<mask id="mask60_5621_61742" style="mask-type:luminance" maskUnits="userSpaceOnUse" x="515" y="-30" width="529" height="562">
<path d="M1043.39 -30H515.396V531.505H1043.39V-30Z" fill="white"/>
</mask>
<g mask="url(#mask60_5621_61742)">
<path d="M718.155 314.239C717.528 314.239 717.057 313.867 716.744 313.122C715.489 310.143 714.078 307.909 712.51 306.419C710.628 304.744 708.433 303.813 706.394 304.372C704.355 304.744 702.631 306.606 702.16 308.84C702.003 309.957 701.062 310.515 700.278 310.329C699.337 310.143 698.867 309.026 699.024 308.095C699.651 304.372 702.474 301.393 705.924 300.834C708.746 300.276 711.883 301.393 714.548 303.627C716.587 305.489 718.312 308.095 719.723 311.632C720.037 312.563 719.723 313.68 718.939 314.239C718.625 314.053 718.469 314.239 718.155 314.239Z" fill="#FF7A7A"/>
</g>
</g>
<defs>
<clipPath id="clip0_5621_61742">
<rect width="729" height="241" fill="white" transform="translate(7 -151)"/>
</clipPath>
<clipPath id="clip1_5621_61742">
<rect width="729" height="241" fill="white" transform="translate(-6 554)"/>
</clipPath>
<clipPath id="clip2_5621_61742">
<rect width="272" height="640" fill="white" transform="translate(-152 35)"/>
</clipPath>
<clipPath id="clip3_5621_61742">
<rect width="197" height="640" fill="white" transform="translate(611 -30)"/>
</clipPath>
</defs>
</svg>
