<svg width="29" height="20" viewBox="0 0 29 20" fill="none" xmlns="http://www.w3.org/2000/svg">
<g id="Group 1000009206">
<path id="Vector" fill-rule="evenodd" clip-rule="evenodd" d="M0.18457 1.8241C4.1071 -0.431439 8.12043 -0.778444 12.2745 1.8241V18.675C9.40297 16.6924 5.23074 16.9315 0.18457 18.675V1.8241ZM13.5979 1.86641H14.7965C15.0416 1.86641 15.2414 2.05261 15.2414 2.27901V18.6327C15.2414 18.8612 15.0416 19.0474 14.7965 19.0474H13.5979C13.4801 19.0468 13.3673 19.003 13.284 18.9253C13.2006 18.8477 13.1536 18.7425 13.153 18.6327V2.27901C13.1553 2.05261 13.355 1.86641 13.5979 1.86641ZM28.0781 1.8241C24.1556 -0.431439 20.14 -0.778444 15.9859 1.8241V18.675C18.8575 16.6924 23.0297 16.9315 28.0781 18.675V1.8241Z" fill="#4BBCE8"/>
</g>
</svg>
