<svg width="18" height="17" viewBox="0 0 18 17" fill="none" xmlns="http://www.w3.org/2000/svg">
<g clip-path="url(#clip0_7110_112578)">
<path d="M17.9883 7.79167C17.9883 6.67958 17.457 5.63833 16.5716 4.9725V4.95833C16.5716 3.6125 15.6295 2.48625 14.3758 2.19583C14.0854 0.942083 12.9591 0 11.6133 0C10.7704 0 10.0054 0.375417 9.48828 0.963333C8.9712 0.375417 8.2062 0 7.36328 0C6.01745 0 4.8912 0.942083 4.60078 2.19583C3.34703 2.48625 2.40495 3.6125 2.40495 4.95833V4.9725C1.51953 5.63833 0.988281 6.67958 0.988281 7.79167C0.988281 8.42208 1.15828 9.02417 1.47703 9.5625C1.15828 10.1008 0.988281 10.7029 0.988281 11.3333C0.988281 12.5304 1.59745 13.6283 2.5962 14.2871C3.1062 15.9021 4.58661 17 6.30078 17C7.61828 17 8.77995 16.3412 9.48828 15.3425C10.1966 16.3412 11.3583 17 12.6758 17C14.3899 17 15.8704 15.895 16.3804 14.2871C17.3791 13.6354 17.9883 12.5304 17.9883 11.3333C17.9883 10.7029 17.8183 10.1008 17.4995 9.5625C17.8183 9.02417 17.9883 8.42208 17.9883 7.79167ZM6.30078 15.5833C5.1462 15.5833 4.15453 14.79 3.89245 13.6638L3.82161 13.3521L3.53828 13.2033C2.84411 12.8279 2.40495 12.1125 2.40495 11.3404C2.40495 10.8658 2.56786 10.4054 2.88661 10.0158L3.24786 9.56958L2.88661 9.12333C2.57495 8.73375 2.40495 8.27333 2.40495 7.79875C2.40495 7.04083 2.82286 6.3325 3.49578 5.95708L3.93495 5.70917C3.93495 5.70917 3.82161 5.05042 3.82161 4.96542C3.82161 4.18625 4.45911 3.54875 5.23828 3.54875H5.94661V2.84042C5.94661 2.06125 6.58411 1.42375 7.36328 1.42375C8.14245 1.42375 8.77995 2.06125 8.77995 2.84042V13.1112C8.77995 14.4783 7.66786 15.5904 6.30078 15.5904V15.5833ZM16.0899 10.0087C16.4016 10.3983 16.5716 10.8587 16.5716 11.3333C16.5716 12.1125 16.1395 12.8208 15.4383 13.1962L15.1549 13.345L15.0841 13.6567C14.822 14.79 13.8304 15.5762 12.6758 15.5762C11.3087 15.5762 10.1966 14.4642 10.1966 13.0971V2.83333C10.1966 2.05417 10.8341 1.41667 11.6133 1.41667C12.3924 1.41667 13.0299 2.05417 13.0299 2.83333V3.54167H13.7383C14.5174 3.54167 15.1549 4.17917 15.1549 4.95833C15.1549 5.04333 15.0416 5.70208 15.0416 5.70208L15.4808 5.95C16.1537 6.3325 16.5716 7.03375 16.5716 7.79167C16.5716 8.27333 16.4087 8.72667 16.0899 9.11625L15.7287 9.5625L16.0899 10.0087Z" fill="#0A1932"/>
</g>
<defs>
<clipPath id="clip0_7110_112578">
<rect width="17" height="17" fill="white" transform="translate(0.988281)"/>
</clipPath>
</defs>
</svg>
