<svg width="28" height="28" viewBox="0 0 28 28" fill="none" xmlns="http://www.w3.org/2000/svg">
<path d="M18.5945 1.07771C18.5945 0.483034 19.1824 0 19.9092 0C20.636 0 21.2239 0.483034 21.2239 1.07771V5.79868C21.2239 6.39336 20.636 6.87639 19.9092 6.87639C19.1824 6.87639 18.5945 6.39336 18.5945 5.79868V1.07771ZM15.0629 24.0742C14.8806 24.0742 14.8806 21.773 15.0629 21.773H18.6606C18.8429 21.773 18.8429 24.0742 18.6606 24.0742H15.0629ZM3.61136 15.7077C3.42908 15.7077 3.42908 13.4065 3.61136 13.4065H7.20905C7.39132 13.4065 7.39132 15.7077 7.20905 15.7077H3.61136ZM9.33713 15.7077C9.15485 15.7077 9.15485 13.4065 9.33713 13.4065H12.9348C13.1171 13.4065 13.1171 15.7077 12.9348 15.7077H9.33713ZM15.0629 15.7077C14.8806 15.7077 14.8806 13.4065 15.0629 13.4065H18.6606C18.8429 13.4065 18.8429 15.7077 18.6606 15.7077H15.0629ZM20.7909 13.4065H24.3795C24.5618 13.4065 24.5618 15.7077 24.3795 15.7077H20.7909C20.6087 15.7077 20.6087 13.4065 20.7909 13.4065ZM3.61136 19.891C3.42908 19.891 3.42908 17.5897 3.61136 17.5897H7.20905C7.39132 17.5897 7.39132 19.891 7.20905 19.891H3.61136ZM9.34169 19.891C9.15941 19.891 9.15941 17.5897 9.34169 17.5897H12.9348C13.1171 17.5897 13.1171 19.891 12.9348 19.891H9.34169ZM15.0675 19.891C14.8852 19.891 14.8852 17.5897 15.0675 17.5897H18.6606C18.8429 17.5897 18.8429 19.891 18.6606 19.891H15.0675ZM20.7955 19.891C20.6132 19.891 20.6132 17.5897 20.7955 17.5897H24.3795C24.5618 17.5897 24.5618 19.891 24.3795 19.891H20.7955ZM3.61592 24.0742C3.43364 24.0742 3.43364 21.773 3.61592 21.773H7.20905C7.39132 21.773 7.39132 24.0742 7.20905 24.0742H3.61592ZM9.34169 24.0742C9.15941 24.0742 9.15941 21.773 9.34169 21.773H12.9348C13.1171 21.773 13.1171 24.0742 12.9348 24.0742H9.34169ZM6.74652 1.07771C6.74652 0.483034 7.33436 0 8.06119 0C8.78802 0 9.37586 0.483034 9.37586 1.07771V5.79868C9.37586 6.39336 8.78802 6.87639 8.06119 6.87639C7.33436 6.87639 6.74652 6.39336 6.74652 5.79868V1.07771ZM1.45821 9.90447H26.5372V4.89185C26.5353 4.71523 26.4651 4.5462 26.3413 4.42021C26.2794 4.3581 26.2059 4.30881 26.125 4.27518C26.0441 4.24155 25.9573 4.22425 25.8696 4.22427H23.4681C23.2748 4.22427 23.0893 4.14745 22.9526 4.01072C22.8158 3.87398 22.739 3.68853 22.739 3.49516C22.739 3.30179 22.8158 3.11634 22.9526 2.9796C23.0893 2.84287 23.2748 2.76605 23.4681 2.76605H25.8719C26.4352 2.76785 26.9748 2.9924 27.3731 3.39068C27.7714 3.78895 27.9959 4.32861 27.9977 4.89185V25.8742C27.9959 26.4374 27.7714 26.9771 27.3731 27.3754C26.9748 27.7737 26.4352 27.9982 25.8719 28H2.1258C1.56217 27.9982 1.02216 27.7733 0.623823 27.3746C0.225483 26.9758 0.00120147 26.4356 0 25.8719L0 4.89185C0.00180239 4.32861 0.226349 3.78895 0.624624 3.39068C1.0229 2.9924 1.56256 2.76785 2.1258 2.76605H4.69363C4.78938 2.76605 4.88419 2.78491 4.97264 2.82155C5.0611 2.85819 5.14148 2.9119 5.20918 2.9796C5.27689 3.04731 5.33059 3.12768 5.36723 3.21614C5.40388 3.3046 5.42273 3.39941 5.42273 3.49516C5.42273 3.59091 5.40388 3.68572 5.36723 3.77418C5.33059 3.86263 5.27689 3.94301 5.20918 4.01072C5.14148 4.07842 5.0611 4.13212 4.97264 4.16877C4.88419 4.20541 4.78938 4.22427 4.69363 4.22427H2.1258C1.94918 4.22619 1.78015 4.29641 1.65416 4.42021C1.59204 4.48205 1.54276 4.55554 1.50913 4.63648C1.4755 4.71742 1.4582 4.80421 1.45821 4.89185V9.90447ZM26.5395 11.365H1.45821V25.8719C1.46014 26.0485 1.53036 26.2176 1.65416 26.3436C1.71599 26.4057 1.78949 26.455 1.87043 26.4886C1.95137 26.5222 2.03816 26.5395 2.1258 26.5395H25.8719C26.0485 26.5376 26.2176 26.4674 26.3436 26.3436C26.4057 26.2817 26.455 26.2082 26.4886 26.1273C26.5222 26.0464 26.5395 25.9596 26.5395 25.8719V11.365ZM11.4903 4.22427C11.2969 4.22427 11.1115 4.14745 10.9747 4.01072C10.838 3.87398 10.7612 3.68853 10.7612 3.49516C10.7612 3.30179 10.838 3.11634 10.9747 2.9796C11.1115 2.84287 11.2969 2.76605 11.4903 2.76605H16.3867C16.4824 2.76605 16.5772 2.78491 16.6657 2.82155C16.7542 2.85819 16.8345 2.9119 16.9022 2.9796C16.9699 3.04731 17.0236 3.12768 17.0603 3.21614C17.0969 3.3046 17.1158 3.39941 17.1158 3.49516C17.1158 3.59091 17.0969 3.68572 17.0603 3.77418C17.0236 3.86263 16.9699 3.94301 16.9022 4.01072C16.8345 4.07842 16.7542 4.13212 16.6657 4.16877C16.5772 4.20541 16.4824 4.22427 16.3867 4.22427H11.4903Z" fill="#0A1932"/>
</svg>
