<svg width="14" height="15" viewBox="0 0 14 15" fill="none" xmlns="http://www.w3.org/2000/svg">
<circle cx="7" cy="7.40039" r="5" fill="#F3BD40"/>
<path d="M13.7812 7.25C13.7812 10.9961 10.7188 14.0312 7 14.0312C3.25391 14.0312 0.21875 10.9961 0.21875 7.25C0.21875 3.53125 3.25391 0.46875 7 0.46875C10.7188 0.46875 13.7812 3.53125 13.7812 7.25ZM6.20703 10.8594L11.2383 5.82812C11.4023 5.66406 11.4023 5.36328 11.2383 5.19922L10.6094 4.59766C10.4453 4.40625 10.1719 4.40625 10.0078 4.59766L5.90625 8.69922L3.96484 6.78516C3.80078 6.59375 3.52734 6.59375 3.36328 6.78516L2.73438 7.38672C2.57031 7.55078 2.57031 7.85156 2.73438 8.01562L5.57812 10.8594C5.74219 11.0234 6.04297 11.0234 6.20703 10.8594Z" fill="white"/>
</svg>
