<svg width="28" height="31" viewBox="0 0 28 31" fill="none" xmlns="http://www.w3.org/2000/svg">
<path d="M26.1914 11.7582C25.4895 10.1565 24.5291 8.73701 23.2731 7.4993C22.0171 6.26158 20.5762 5.27855 18.9508 4.62329C17.7317 4.11365 16.4389 3.78594 15.109 3.64033V2.76669H16.1065C16.5128 2.76669 16.8453 2.43924 16.8453 2.0388V0.727889C16.8453 0.327452 16.5128 0 16.1065 0H11.1562C10.7498 0 10.4173 0.327452 10.4173 0.727889V2.0388C10.4173 2.43924 10.7498 2.76669 11.1562 2.76669H12.1537V3.64033C10.8238 3.78594 9.53091 4.11365 8.31184 4.62329C6.68642 5.27855 5.20859 6.26158 3.98952 7.4993C2.73351 8.73701 1.73617 10.1565 1.07122 11.7582C0.369334 13.4328 0 15.1808 0 17.001C0 18.8211 0.369334 20.5683 1.07122 22.2428C1.77311 23.8446 2.73351 25.3004 3.98952 26.5017C5.24553 27.7394 6.72336 28.7225 8.31184 29.4142C10.0112 30.1058 11.7841 30.47 13.6312 30.47C15.4783 30.47 17.2515 30.1058 18.9508 29.4142C20.5762 28.7225 22.054 27.7394 23.2731 26.5017C24.5291 25.3004 25.5265 23.8446 26.1914 22.2428C26.8933 20.5683 27.2626 18.8211 27.2626 17.001C27.2626 15.1808 26.8933 13.4328 26.1914 11.7582ZM13.6312 28.0668C7.42503 28.0668 2.40106 23.1167 2.40106 17.001C2.40106 10.8852 7.42503 5.9342 13.6312 5.9342C19.8374 5.9342 24.8616 10.9216 24.8616 17.001C24.8616 23.0803 19.8374 28.0668 13.6312 28.0668Z" fill="#0A1932"/>
<path d="M13.9442 8.01652C10.2639 7.98191 6.79794 10.1628 5.40443 13.6929C3.61789 18.2613 5.97606 23.3481 10.6925 25.0786C15.409 26.809 20.6616 24.5249 22.4482 19.9565L13.9442 16.842V8.01652Z" fill="#0A1932"/>
</svg>
