<svg width="21" height="20" viewBox="0 0 21 20" fill="none" xmlns="http://www.w3.org/2000/svg">
<g clip-path="url(#clip0_7160_20924)">
<path d="M15.2623 7.58167C15.5848 7.91 15.5798 8.4375 15.2507 8.76L11.5623 12.3808C10.9098 13.0208 10.0698 13.34 9.22898 13.34C8.39732 13.34 7.56565 13.0267 6.91565 12.3992L5.33315 10.8433C5.00482 10.5208 5.00065 9.99333 5.32315 9.665C5.64482 9.33583 6.17398 9.33167 6.50148 9.655L8.07898 11.2058C8.72565 11.8308 9.74648 11.8275 10.3965 11.1908L14.084 7.57083C14.4115 7.2475 14.9373 7.25333 15.2623 7.58167ZM20.084 10C20.084 15.5142 15.5982 20 10.084 20C4.56982 20 0.0839844 15.5142 0.0839844 10C0.0839844 4.48583 4.56982 0 10.084 0C15.5982 0 20.084 4.48583 20.084 10ZM18.4173 10C18.4173 5.405 14.679 1.66667 10.084 1.66667C5.48898 1.66667 1.75065 5.405 1.75065 10C1.75065 14.595 5.48898 18.3333 10.084 18.3333C14.679 18.3333 18.4173 14.595 18.4173 10Z" fill="white"/>
</g>
<defs>
<clipPath id="clip0_7160_20924">
<rect width="20" height="20" fill="white" transform="translate(0.0839844)"/>
</clipPath>
</defs>
</svg>
