<svg width="63" height="48" viewBox="0 0 63 48" fill="none" xmlns="http://www.w3.org/2000/svg">
<path d="M59.0635 29.8145L52.8478 25.7476L55.241 21.3602C55.8182 20.2647 56.1206 19.0453 56.1222 17.807V10.8518C56.127 8.89615 55.5606 6.98165 54.4925 5.3434C53.4244 3.70516 51.9012 2.41449 50.1098 1.62988C48.3184 0.845275 46.3369 0.600888 44.4085 0.92673C42.4802 1.25257 40.689 2.13446 39.2549 3.4641L41.3557 5.73199C42.3495 4.81319 43.5897 4.20433 44.9244 3.98004C46.2591 3.75576 47.6302 3.92581 48.8696 4.46933C50.1091 5.01286 51.163 5.90624 51.9022 7.03995C52.6414 8.17366 53.0337 9.49842 53.031 10.8518V17.807C53.0307 18.5281 52.858 19.2386 52.5272 19.8793L48.7679 26.7716L57.3709 32.4009C57.9388 32.7725 58.4049 33.2802 58.7266 33.8778C59.0484 34.4753 59.2157 35.1439 59.2134 35.8225V40.9912H52.2582V44.0824H62.3046V35.8224C62.3077 34.6303 62.0129 33.4562 61.4468 32.407C60.8808 31.3577 60.0615 30.4666 59.0635 29.8145Z" fill="white"/>
<path d="M59.0635 29.8145L52.8478 25.7476L55.241 21.3602C55.8182 20.2647 56.1206 19.0453 56.1222 17.807V10.8518C56.127 8.89615 55.5606 6.98165 54.4925 5.3434C53.4244 3.70516 51.9012 2.41449 50.1098 1.62988C48.3184 0.845275 46.3369 0.600888 44.4085 0.92673C42.4802 1.25257 40.689 2.13446 39.2549 3.4641L41.3557 5.73199C42.3495 4.81319 43.5897 4.20433 44.9244 3.98004C46.2591 3.75576 47.6302 3.92581 48.8696 4.46933C50.1091 5.01286 51.163 5.90624 51.9022 7.03995C52.6414 8.17366 53.0337 9.49842 53.031 10.8518V17.807C53.0307 18.5281 52.858 19.2386 52.5272 19.8793L48.7679 26.7716L57.3709 32.4009C57.9388 32.7725 58.4049 33.2802 58.7266 33.8778C59.0484 34.4753 59.2157 35.1439 59.2134 35.8225V40.9912H52.2582V44.0824H62.3046V35.8224C62.3077 34.6303 62.0129 33.4562 61.4468 32.407C60.8808 31.3577 60.0615 30.4666 59.0635 29.8145Z" stroke="white"/>
<path d="M4.22705 29.8145L10.4427 25.7476L8.04952 21.3602C7.47231 20.2647 7.16991 19.0453 7.16834 17.807V10.8518C7.16353 8.89615 7.72994 6.98165 8.79803 5.3434C9.86611 3.70516 11.3894 2.41449 13.1808 1.62988C14.9721 0.845275 16.9536 0.600888 18.882 0.92673C20.8103 1.25257 22.6015 2.13446 24.0356 3.4641L21.9348 5.73199C20.9411 4.81319 19.7008 4.20433 18.3661 3.98004C17.0315 3.75576 15.6603 3.92581 14.4209 4.46933C13.1814 5.01286 12.1275 5.90624 11.3883 7.03995C10.6492 8.17366 10.2569 9.49842 10.2596 10.8518V17.807C10.2599 18.5281 10.4326 19.2386 10.7633 19.8793L14.5226 26.7716L5.91958 32.4009C5.35169 32.7725 4.88568 33.2802 4.56391 33.8778C4.24213 34.4753 4.0748 35.1439 4.07712 35.8225V40.9912H11.0324V44.0824H0.985907V35.8224C0.982792 34.6303 1.27765 33.4562 1.84369 32.407C2.40973 31.3577 3.229 30.4666 4.22705 29.8145Z" fill="white"/>
<path d="M4.22705 29.8145L10.4427 25.7476L8.04952 21.3602C7.47231 20.2647 7.16991 19.0453 7.16834 17.807V10.8518C7.16353 8.89615 7.72994 6.98165 8.79803 5.3434C9.86611 3.70516 11.3894 2.41449 13.1808 1.62988C14.9721 0.845275 16.9536 0.600888 18.882 0.92673C20.8103 1.25257 22.6015 2.13446 24.0356 3.4641L21.9348 5.73199C20.9411 4.81319 19.7008 4.20433 18.3661 3.98004C17.0315 3.75576 15.6603 3.92581 14.4209 4.46933C13.1814 5.01286 12.1275 5.90624 11.3883 7.03995C10.6492 8.17366 10.2569 9.49842 10.2596 10.8518V17.807C10.2599 18.5281 10.4326 19.2386 10.7633 19.8793L14.5226 26.7716L5.91958 32.4009C5.35169 32.7725 4.88568 33.2802 4.56391 33.8778C4.24213 34.4753 4.0748 35.1439 4.07712 35.8225V40.9912H11.0324V44.0824H0.985907V35.8224C0.982792 34.6303 1.27765 33.4562 1.84369 32.407C2.40973 31.3577 3.229 30.4666 4.22705 29.8145Z" stroke="white"/>
<path d="M45.1524 32.9076L38.9368 28.8407L41.3299 24.4533C41.9071 23.3578 42.2095 22.1384 42.2111 20.9001V13.9449C42.2091 11.2789 41.1497 8.72264 39.2653 6.83679C37.3809 4.95095 34.8254 3.88956 32.1595 3.8855C26.6227 3.8855 22.1182 8.39819 22.1182 13.9449V20.9001C22.1123 22.1378 22.4114 23.3579 22.989 24.4526L25.3951 28.8638L19.2157 32.9076C18.2188 33.5586 17.4003 34.4483 16.8343 35.4959C16.2684 36.5435 15.9731 37.7158 15.9751 38.9064L15.9268 47.1754H48.3935V38.9155C48.3966 37.7233 48.1018 36.5493 47.5357 35.5C46.9697 34.4508 46.1504 33.5596 45.1524 32.9076ZM45.3023 44.0842H19.0359L19.0659 38.9155C19.0636 38.2368 19.2309 37.5683 19.5526 36.9707C19.8744 36.3732 20.3404 35.8655 20.9083 35.4938L29.4751 29.8882L25.7027 22.9724C25.3757 22.3307 25.2066 21.6203 25.2094 20.9001V13.9449C25.2094 12.1002 25.9422 10.3312 27.2465 9.0268C28.5509 7.72244 30.32 6.98966 32.1646 6.98966C34.0093 6.98966 35.7784 7.72244 37.0827 9.0268C38.3871 10.3312 39.1199 12.1002 39.1199 13.9449V20.9001C39.1196 21.6212 38.9468 22.3317 38.6161 22.9724L34.8568 29.8646L43.4598 35.4939C44.0277 35.8656 44.4937 36.3733 44.8155 36.9708C45.1373 37.5684 45.3046 38.2369 45.3023 38.9156V44.0842Z" fill="white"/>
<path d="M45.1524 32.9076L38.9368 28.8407L41.3299 24.4533C41.9071 23.3578 42.2095 22.1384 42.2111 20.9001V13.9449C42.2091 11.2789 41.1497 8.72264 39.2653 6.83679C37.3809 4.95095 34.8254 3.88956 32.1595 3.8855C26.6227 3.8855 22.1182 8.39819 22.1182 13.9449V20.9001C22.1123 22.1378 22.4114 23.3579 22.989 24.4526L25.3951 28.8638L19.2157 32.9076C18.2188 33.5586 17.4003 34.4483 16.8343 35.4959C16.2684 36.5435 15.9731 37.7158 15.9751 38.9064L15.9268 47.1754H48.3935V38.9155C48.3966 37.7233 48.1018 36.5493 47.5357 35.5C46.9697 34.4508 46.1504 33.5596 45.1524 32.9076ZM45.3023 44.0842H19.0359L19.0659 38.9155C19.0636 38.2368 19.2309 37.5683 19.5526 36.9707C19.8744 36.3732 20.3404 35.8655 20.9083 35.4938L29.4751 29.8882L25.7027 22.9724C25.3757 22.3307 25.2066 21.6203 25.2094 20.9001V13.9449C25.2094 12.1002 25.9422 10.3312 27.2465 9.0268C28.5509 7.72244 30.32 6.98966 32.1646 6.98966C34.0093 6.98966 35.7784 7.72244 37.0827 9.0268C38.3871 10.3312 39.1199 12.1002 39.1199 13.9449V20.9001C39.1196 21.6212 38.9468 22.3317 38.6161 22.9724L34.8568 29.8646L43.4598 35.4939C44.0277 35.8656 44.4937 36.3733 44.8155 36.9708C45.1373 37.5684 45.3046 38.2369 45.3023 38.9156V44.0842Z" stroke="white"/>
</svg>
