<svg width="48" height="48" viewBox="0 0 48 48" fill="none" xmlns="http://www.w3.org/2000/svg">
<path d="M47.5868 33.5993C47.8605 31.502 47.9983 28.3446 47.9983 24.136C47.9983 19.9326 47.8605 16.7787 47.5868 14.6744C47.3131 12.5736 46.4431 10.1485 44.9804 7.40607C42.6024 2.46869 35.6566 0 24.136 0C12.4324 0 5.30176 2.46869 2.74241 7.40607C1.46099 9.96891 0.685167 12.2999 0.411449 14.4007C0.137731 16.5033 0 19.6606 0 23.8623C0 28.0709 0.137731 31.2265 0.411449 33.3273C0.685167 35.4316 1.50806 37.8498 2.88014 40.5939C4.25047 43.3381 6.67209 45.2558 10.1485 46.3525C13.6196 47.4526 18.2397 48 23.9983 48C29.7585 48 34.3751 47.4526 37.8498 46.3525C41.3209 45.2558 43.7478 43.3834 45.1181 40.7299C46.4902 38.0799 47.3131 35.7036 47.5868 33.5993Z" fill="#3F3A64"/>
<g clip-path="url(#clip0_7364_86365)">
<path d="M15.9996 30.999C14.6206 30.999 13.4996 29.878 13.4996 28.499C13.4996 27.12 14.6206 25.999 15.9996 25.999C17.3786 25.999 18.4996 27.12 18.4996 28.499C18.4996 29.878 17.3786 30.999 15.9996 30.999ZM26.4996 28.499C26.4996 27.118 25.3806 25.999 23.9996 25.999C22.6186 25.999 21.4996 27.118 21.4996 28.499C21.4996 29.88 22.6186 30.999 23.9996 30.999C25.3806 30.999 26.4996 29.88 26.4996 28.499ZM23.9996 16.999C25.3806 16.999 26.4996 15.88 26.4996 14.499C26.4996 13.118 25.3806 11.999 23.9996 11.999C22.6186 11.999 21.4996 13.118 21.4996 14.499C21.4996 15.88 22.6186 16.999 23.9996 16.999ZM29.4996 28.499C29.4996 29.88 30.6186 30.999 31.9996 30.999C33.3806 30.999 34.4996 29.88 34.4996 28.499C34.4996 27.118 33.3806 25.999 31.9996 25.999C30.6186 25.999 29.4996 27.118 29.4996 28.499ZM29.8356 19.313L35.1506 14.757C35.5696 14.398 35.6186 13.767 35.2586 13.348C34.8986 12.927 34.2666 12.879 33.8486 13.24L28.5346 17.795C27.6286 18.571 26.4726 18.999 25.2806 18.999H22.7196C21.5276 18.999 20.3716 18.571 19.4656 17.796L14.1506 13.24C13.7316 12.881 13.0996 12.928 12.7406 13.348C12.3816 13.767 12.4296 14.398 12.8486 14.757L18.1636 19.314C18.7146 19.786 19.3406 20.147 19.9986 20.425V24.498C19.9986 25.051 20.4466 25.498 20.9986 25.498C21.5506 25.498 21.9986 25.051 21.9986 24.498V20.934C22.2386 20.959 22.4756 20.998 22.7186 20.998H25.2796C25.5226 20.998 25.7596 20.959 25.9996 20.934V24.498C25.9996 25.051 26.4476 25.498 26.9996 25.498C27.5516 25.498 27.9996 25.051 27.9996 24.498V20.425C28.6586 20.146 29.2846 19.785 29.8356 19.313ZM35.9346 34.644C35.3346 33.062 33.7536 31.998 31.9996 31.998C30.2456 31.998 28.6646 33.061 28.0646 34.644C27.8686 35.161 28.1286 35.738 28.6456 35.934C29.1616 36.129 29.7396 35.87 29.9356 35.353C30.2426 34.542 31.0726 33.999 32.0006 33.999C32.9286 33.999 33.7586 34.543 34.0656 35.353C34.2166 35.752 34.5976 35.999 35.0006 35.999C35.1186 35.999 35.2386 35.978 35.3546 35.935C35.8706 35.739 36.1306 35.162 35.9356 34.645L35.9346 34.644ZM23.9996 31.998C22.2456 31.998 20.6646 33.061 20.0646 34.644C19.8686 35.161 20.1286 35.738 20.6456 35.934C21.1606 36.129 21.7396 35.87 21.9356 35.353C22.2426 34.542 23.0726 33.999 24.0006 33.999C24.9286 33.999 25.7586 34.543 26.0656 35.353C26.2166 35.752 26.5976 35.999 27.0006 35.999C27.1186 35.999 27.2386 35.978 27.3546 35.935C27.8706 35.739 28.1306 35.162 27.9356 34.645C27.3356 33.063 25.7546 31.999 24.0006 31.999L23.9996 31.998ZM15.9996 31.998C14.2456 31.998 12.6646 33.061 12.0646 34.644C11.8686 35.161 12.1286 35.738 12.6456 35.934C13.1616 36.129 13.7396 35.87 13.9356 35.353C14.2426 34.542 15.0726 33.999 16.0006 33.999C16.9286 33.999 17.7586 34.543 18.0656 35.353C18.2166 35.752 18.5976 35.999 19.0006 35.999C19.1186 35.999 19.2386 35.978 19.3546 35.935C19.8706 35.739 20.1306 35.162 19.9356 34.645C19.3356 33.063 17.7546 31.999 16.0006 31.999L15.9996 31.998Z" fill="white"/>
</g>
<defs>
<clipPath id="clip0_7364_86365">
<rect width="24" height="24" fill="white" transform="translate(12 11.999)"/>
</clipPath>
</defs>
</svg>
