<svg width="200" height="200" viewBox="0 0 200 200" fill="none" xmlns="http://www.w3.org/2000/svg">
<rect width="200" height="200" rx="100" fill="#3F3A64"/>
<path d="M127.186 63.4375L118.749 55C116.249 52.5 112.186 52.5 109.686 55L79.4779 85.1042C80.832 88.125 79.3737 91.6667 76.3529 92.9167C74.7904 93.5417 73.1237 93.5417 71.5612 92.9167L55.207 109.479C52.707 111.979 52.707 116.042 55.207 118.542L63.6445 126.979C66.2487 124.375 70.5195 124.375 73.1237 126.979C75.7279 129.583 75.7279 133.854 73.1237 136.458L81.5612 144.896C84.0612 147.396 88.1237 147.396 90.6237 144.896L107.082 128.438C105.728 125.417 107.186 121.875 110.207 120.625C111.77 120 113.436 120 114.999 120.625L145.103 90.5208C147.603 88.0208 147.603 83.9583 145.103 81.4583L136.665 73.0208C134.061 75.625 129.79 75.5208 127.186 72.9167C124.582 70.3125 124.582 66.0417 127.186 63.4375Z" fill="#F05C5C"/>
<path d="M83.0195 96.4585C83.7487 95.7293 83.7487 94.5835 83.0195 93.8543L79.582 90.4168C79.4779 90.3127 79.4779 90.3127 79.3737 90.2085C78.8529 91.2502 77.9154 92.1877 76.7695 92.7085C76.7695 92.7085 76.7695 92.8127 76.8737 92.8127L76.9779 92.9168L80.4154 96.3543C81.1445 97.1877 82.2904 97.1877 83.0195 96.4585Z" fill="white"/>
<path d="M91.8737 102.709L88.4362 99.271C87.707 98.5418 86.5612 98.5418 85.832 99.271C85.1029 100 85.1029 101.146 85.832 101.875L89.2695 105.313C89.9987 106.042 91.1445 106.042 91.8737 105.313C92.6029 104.584 92.6029 103.438 91.8737 102.709Z" fill="white"/>
<path d="M109.792 120.834C109.687 120.625 109.583 120.521 109.479 120.417L106.042 116.979C105.312 116.25 104.167 116.25 103.437 116.979C102.708 117.709 102.708 118.854 103.437 119.584L106.875 123.021C106.979 123.125 107.187 123.229 107.292 123.334C107.917 122.292 108.75 121.459 109.792 120.834Z" fill="white"/>
<path d="M94.582 108.125C93.8529 108.854 93.8529 110 94.582 110.625L98.0195 114.062C98.7487 114.791 99.8945 114.791 100.624 114.062C101.353 113.333 101.353 112.187 100.624 111.458L97.1862 108.02C96.457 107.395 95.3112 107.395 94.582 108.125Z" fill="white"/>
<path d="M99.3724 96.4582C97.7057 96.4582 96.0391 95.8332 94.7891 94.5832C92.2891 92.0832 92.2891 87.9165 94.7891 85.4165C96.0391 84.1665 97.7057 83.5415 99.3724 83.5415C101.039 83.5415 102.706 84.2707 103.956 85.4165C106.456 87.9165 106.456 92.0832 103.956 94.5832C102.706 95.8332 101.039 96.4582 99.3724 96.4582ZM99.3724 87.0832C98.6432 87.0832 97.9141 87.3957 97.3932 87.9165C96.2474 89.0623 96.2474 90.8332 97.3932 91.979C98.5391 93.1248 100.31 93.1248 101.456 91.979C102.602 90.8332 102.602 89.0623 101.456 87.9165C100.831 87.3957 100.102 87.0832 99.3724 87.0832Z" fill="white"/>
<path d="M121.872 96.4582C120.206 96.4582 118.539 95.8332 117.289 94.5832C114.789 92.0832 114.789 87.9165 117.289 85.4165C119.789 82.9165 123.956 82.9165 126.456 85.4165C128.956 87.9165 128.956 92.0832 126.456 94.5832C125.206 95.8332 123.539 96.4582 121.872 96.4582ZM121.872 87.0832C121.143 87.0832 120.414 87.3957 119.893 87.9165C118.747 89.0623 118.747 90.8332 119.893 91.979C121.039 93.1248 122.81 93.1248 123.956 91.979C125.102 90.8332 125.102 89.0623 123.956 87.9165C123.331 87.3957 122.602 87.0832 121.872 87.0832Z" fill="white"/>
<path d="M110.621 106.354C109.579 106.354 108.746 105.521 108.746 104.479V75.3125C108.746 74.2708 109.579 73.4375 110.621 73.4375C111.663 73.4375 112.496 74.2708 112.496 75.3125V104.583C112.392 105.521 111.663 106.354 110.621 106.354Z" fill="white"/>
</svg>
