<svg width="53" height="49" viewBox="0 0 53 49" fill="none" xmlns="http://www.w3.org/2000/svg">
<path d="M33.1844 30.7534C36.3402 32.8899 37.9505 34.5039 38.6404 35.868C40.4485 39.4429 35.8428 42.9386 32.1758 44.5518C13.1466 52.9228 -2.82842 34.2991 5.01882 15.3555C11.9922 -1.47864 31.423 0.309077 36.614 8.87033C41.1732 16.3894 36.1367 22.0289 33.1779 22.2012C29.1822 22.4338 27.4004 26.8376 33.1844 30.7534Z" stroke="white" stroke-width="1.4" stroke-linecap="round"/>
<circle cx="3.9303" cy="3.9303" r="3.4303" transform="matrix(0.916857 0.399216 0.399216 -0.916857 8.33057 36.259)" stroke="white"/>
<circle cx="3.9303" cy="3.9303" r="3.4303" transform="matrix(0.916857 0.399216 0.399216 -0.916857 18.6533 40.751)" stroke="white"/>
<circle cx="3.9303" cy="3.9303" r="3.4303" transform="matrix(0.916857 0.399216 0.399216 -0.916857 5.05615 25.6926)" stroke="white"/>
<circle cx="3.9303" cy="3.9303" r="3.4303" transform="matrix(0.916857 0.399216 0.399216 -0.916857 10.9956 15.6809)" stroke="white"/>
<circle cx="3.9303" cy="3.9303" r="3.4303" transform="matrix(0.916857 0.399216 0.399216 -0.916857 21.5688 11.8792)" stroke="white"/>
<path d="M42.3602 38.2632C41.5717 37.1285 41.1838 35.2792 41.1745 32.6096C41.1576 27.7798 42.4392 20.9591 43.5746 16.2987C42.0052 14.9661 41.2628 12.7746 41.6345 10.7768C42.3168 7.1097 45.559 6.88785 45.8772 3.70976C45.9325 3.15638 46.5236 2.82651 47.0238 3.07071C50.5387 4.78671 52.8158 8.89302 52.5036 12.0108C52.3129 13.9163 51.2286 15.7994 49.5315 16.7886C49.8112 21.6376 49.8398 28.646 48.9475 33.3991C48.4533 36.0311 47.7319 37.7731 46.7419 38.7245C45.4083 40.0063 43.4377 39.8136 42.3602 38.2632ZM50.9122 11.8517C51.1233 9.74244 49.6926 6.71403 47.2363 5.04061C46.3467 7.92973 43.7062 8.38561 43.2069 11.0692C42.7972 13.2713 44.2654 15.7215 46.572 15.8909C49.2669 16.0886 50.7324 13.6479 50.9122 11.8517ZM45.0125 17.1605C44.8584 17.8114 44.6266 18.8237 44.3699 20.0597L48.071 20.3313C48.0412 19.0805 47.9962 18.0532 47.9624 17.3912C47.0136 17.5875 45.9627 17.531 45.0125 17.1605ZM45.6337 37.5715C48.0589 35.2408 48.13 25.2865 48.0979 21.9369L44.0535 21.6401C43.4118 24.9728 41.7415 34.5703 43.6737 37.3506C44.189 38.0924 45.0076 38.1732 45.6337 37.5715Z" fill="white"/>
</svg>
