<svg width="48" height="48" viewBox="0 0 48 48" fill="none" xmlns="http://www.w3.org/2000/svg">
<path d="M47.5819 33.5993C47.8556 31.502 47.9934 28.3446 47.9934 24.136C47.9934 19.9326 47.8556 16.7787 47.5819 14.6744C47.3082 12.5736 46.4382 10.1485 44.9755 7.40607C42.5975 2.46869 35.6517 0 24.1311 0C12.4275 0 5.29687 2.46869 2.73752 7.40607C1.4561 9.96891 0.680284 12.2999 0.406566 14.4007C0.132848 16.5033 -0.00488281 19.6606 -0.00488281 23.8623C-0.00488281 28.0709 0.132848 31.2265 0.406566 33.3273C0.680284 35.4316 1.50318 37.8498 2.87526 40.5939C4.24559 43.3381 6.66721 45.2558 10.1436 46.3525C13.6148 47.4526 18.2348 48 23.9934 48C29.7537 48 34.3702 47.4526 37.8449 46.3525C41.3161 45.2558 43.7429 43.3834 45.1132 40.7299C46.4853 38.0799 47.3082 35.7036 47.5819 33.5993Z" fill="#EEBA00"/>
<g clip-path="url(#clip0_7364_86370)">
<path d="M28.1863 30.9951H19.4011V32.6641H28.1863V30.9951Z" fill="white"/>
<path d="M26.4237 34.334H21.1555V35.9994H26.4237V34.334Z" fill="white"/>
<path d="M23.7884 12C21.4602 12 19.2269 12.8783 17.5779 14.4415C15.9326 16.0046 15.0087 18.1265 15.0087 20.3378C14.9484 21.5504 15.1949 22.7574 15.7245 23.8622C16.2522 24.9669 17.0484 25.9366 18.0472 26.6889C18.9219 27.4668 19.3985 27.9087 19.3985 28.672H21.1552C21.1552 27.1381 20.1837 26.2817 19.2342 25.4545C18.4106 24.8592 17.7569 24.0813 17.3278 23.1865C16.8986 22.2972 16.7014 21.3185 16.7617 20.336C16.7617 18.5684 17.5031 16.872 18.8197 15.6211C20.1381 14.3684 21.9258 13.6672 23.7884 13.6672C25.651 13.6672 27.4387 14.3702 28.7572 15.6211C30.0738 16.872 30.8133 18.5684 30.8133 20.336C30.8736 21.3166 30.68 22.2954 30.249 23.1883C29.8163 24.0813 29.1589 24.8592 28.3353 25.4545C27.3967 26.289 26.4235 27.1235 26.4235 28.672H28.182C28.182 27.9087 28.6458 27.4668 29.5332 26.6816C30.5321 25.9293 31.3283 24.9615 31.856 23.8567C32.3837 22.7556 32.6284 21.5485 32.5718 20.3378C32.5718 19.2422 32.3436 18.1593 31.9017 17.1477C31.4598 16.1361 30.8115 15.2175 29.997 14.4433C29.1826 13.669 28.213 13.0555 27.1484 12.6373C26.0838 12.2155 24.9407 12 23.7884 12Z" fill="white"/>
</g>
<defs>
<clipPath id="clip0_7364_86370">
<rect width="24" height="24" fill="white" transform="translate(12 11.999)"/>
</clipPath>
</defs>
</svg>
