<svg width="38" height="52" viewBox="0 0 38 52" fill="none" xmlns="http://www.w3.org/2000/svg">
<path d="M9.28418 40.804H27.8154V44.5102H9.28418V40.804Z" fill="white"/>
<path d="M12.9902 48.2192H24.109V51.9255H12.9902V48.2192Z" fill="white"/>
<path d="M18.5497 0.036377C13.6349 0.036377 8.92138 1.98877 5.44609 5.46406C1.9708 8.93934 0.0184087 13.6528 0.0184087 18.5676C-0.10691 21.2609 0.408999 23.9453 1.52369 26.4002C2.63839 28.8552 4.32002 31.0103 6.43023 32.6885C8.28335 34.4119 9.28404 35.394 9.28404 37.0989H12.9903C12.9903 33.6892 10.9333 31.7804 8.93195 29.9458C7.19994 28.6195 5.81957 26.8887 4.91174 24.905C4.00391 22.9214 3.59632 20.7454 3.72466 18.5676C3.72466 14.6358 5.28658 10.865 8.06681 8.08477C10.847 5.30455 14.6178 3.74263 18.5497 3.74263C22.4815 3.74263 26.2523 5.30455 29.0325 8.08477C31.8128 10.865 33.3747 14.6358 33.3747 18.5676C33.5009 20.747 33.0904 22.924 32.1793 24.9078C31.2682 26.8916 29.8843 28.6215 28.1489 29.9458C26.166 31.799 24.1091 33.6521 24.1091 37.0989H27.8153C27.8153 35.394 28.7975 34.4119 30.6691 32.6699C32.7779 30.9947 34.4587 28.8427 35.5734 26.391C36.6881 23.9393 37.2048 21.258 37.0809 18.5676C37.0809 16.1341 36.6016 13.7243 35.6703 11.476C34.739 9.22772 33.374 7.18484 31.6533 5.46406C29.9325 3.74327 27.8896 2.37827 25.6413 1.44699C23.393 0.515702 20.9832 0.036377 18.5497 0.036377Z" fill="white"/>
</svg>
