<svg width="758" height="284" viewBox="0 0 758 284" fill="none" xmlns="http://www.w3.org/2000/svg">
<path d="M758 20.1942V33.6964H755.383V20.1942H758ZM758 47.1693V60.6421H755.383V47.1693H758Z" fill="white"/>
<path d="M755.093 101.774C753.868 106.086 752.289 110.25 750.357 114.236L748.197 112.124C750.025 108.317 751.521 104.391 752.663 100.346L755.093 101.774ZM744.043 125.091C741.8 128.333 739.307 131.426 736.628 134.341L735.049 131.337C737.645 128.541 740.034 125.567 742.194 122.444L744.064 125.091H744.043ZM728.444 142.073C725.681 144.363 722.773 146.505 719.741 148.468L718.661 145.047C721.631 143.144 724.456 141.062 727.135 138.832L728.444 142.073ZM710.664 153.643C707.652 155.13 704.536 156.468 701.317 157.658L700.673 154.029C703.809 152.869 706.863 151.561 709.812 150.103L710.664 153.643ZM691.783 160.602C688.626 161.405 685.406 162.059 682.124 162.535L681.854 158.788C685.074 158.312 688.231 157.687 691.326 156.914L691.783 160.602Z" fill="white"/>
<path d="M651.84 163.605H641.392V159.858H651.84V163.605ZM630.944 163.605H620.496V159.858H630.944V163.605ZM610.048 163.605H599.6V159.858H610.048V163.605ZM589.153 163.605H578.705V159.858H589.153V163.605ZM568.257 163.605H557.809V159.858H568.257V163.605ZM547.361 163.605H536.913V159.858H547.361V163.605ZM526.465 163.605H516.018V159.858H526.465V163.605ZM505.57 163.605H495.122V159.858H505.57V163.605ZM484.674 163.605H474.226V159.858H484.674V163.605ZM463.778 163.605H453.33V159.858H463.778V163.605ZM442.882 163.605H432.435V159.858H442.882V163.605ZM421.987 163.605H411.539V159.858H421.987V163.605ZM401.091 163.605H390.643V159.858H401.091V163.605ZM380.195 163.605H369.747V159.858H380.195V163.605ZM359.299 163.605H348.852V159.858H359.299V163.605ZM338.404 163.605H327.956V159.858H338.404V163.605ZM317.508 163.605H307.06V159.858H317.508V163.605ZM296.612 163.605H286.165V159.858H296.612V163.605ZM275.717 163.605H265.269V159.858H275.717V163.605ZM254.821 163.605H244.373V159.858H254.821V163.605ZM233.925 163.605H223.477V159.858H233.925V163.605ZM213.03 163.605H202.582V159.858H213.03V163.605ZM192.134 163.605H181.686V159.858H192.134V163.605ZM171.238 163.605H160.79V159.858H171.238V163.605ZM150.342 163.605H139.894V159.858H150.342V163.605ZM129.446 163.605H118.999V159.858H129.446V163.605ZM108.551 163.605H98.1028V159.858H108.551V163.605ZM87.6549 163.605H77.2072V159.858H87.6549V163.605ZM66.7593 163.605H56.3113V159.858H66.7593V163.605Z" fill="white"/>
<path d="M26.1909 167.74C23.096 169.584 20.188 171.993 17.5709 174.878L15.9714 171.904C18.7755 168.811 21.8706 166.253 25.1939 164.26L26.1909 167.74ZM10.5294 184.961C8.51462 188.738 6.83237 192.871 5.54456 197.303L3.11425 195.875C4.48514 191.117 6.29212 186.685 8.45231 182.67L10.5294 184.961Z" fill="white"/>
<path d="M0.021004 242.538H2.63818V258.717H0.021004V242.538Z" fill="white"/>
<path d="M758 0V6.72152H755.383V0H758ZM758 74.115V80.8663C758 83.2456 757.896 85.6544 757.668 88.0039L755.071 87.4985C755.279 85.2977 755.383 83.0969 755.383 80.8663V74.115H758ZM672.382 163.487C670.761 163.546 669.141 163.606 667.5 163.606H662.287V159.859H667.5C669.1 159.859 670.699 159.799 672.278 159.739L672.361 163.487H672.382ZM46.0081 163.606H40.7945C39.1121 163.606 37.4503 163.755 35.8093 164.052L35.4769 160.335C37.2217 160.007 38.9874 159.859 40.7945 159.859H46.0081V163.606ZM2.94958 211.102C2.74188 213.422 2.61719 215.802 2.61719 218.24V226.33H0V218.24C0 215.653 0.124756 213.095 0.35321 210.597L2.94958 211.102ZM2.61719 274.927V283.017H0V274.927H2.61719Z" fill="white"/>
</svg>
