<svg width="761" height="292" viewBox="0 0 761 292" fill="none" xmlns="http://www.w3.org/2000/svg">
<path d="M0 20.7969V34.7022H2.62754V20.7969H0ZM0 48.5772V62.4521H2.62754V48.5772H0Z" fill="white"/>
<path d="M2.91797 104.812C4.14831 109.253 5.73323 113.541 7.67259 117.646L9.84128 115.471C8.00619 111.55 6.50483 107.507 5.3579 103.342L2.91797 104.812ZM14.0119 128.825C16.2641 132.164 18.7665 135.349 21.4566 138.351L23.0415 135.257C20.4348 132.378 18.0367 129.315 15.8679 126.099L13.9912 128.825H14.0119ZM29.6728 146.314C32.4463 148.673 35.3658 150.878 38.4104 152.9L39.4948 149.377C36.5127 147.417 33.6767 145.273 30.9866 142.976L29.6728 146.314ZM47.5232 158.229C50.547 159.76 53.675 161.139 56.9072 162.364L57.5537 158.627C54.4048 157.433 51.3395 156.085 48.3783 154.584L47.5232 158.229ZM66.479 165.396C69.6487 166.223 72.8808 166.897 76.1757 167.387L76.4468 163.528C73.2145 163.038 70.0448 162.394 66.9377 161.598L66.479 165.396Z" fill="white"/>
<path d="M106.58 168.489H117.069V164.63H106.58V168.489ZM127.559 168.489H138.048V164.63H127.559V168.489ZM148.537 168.489H159.026V164.63H148.537V168.489ZM169.515 168.489H180.005V164.63H169.515V168.489ZM190.494 168.489H200.983V164.63H190.494V168.489ZM211.472 168.489H221.962V164.63H211.472V168.489ZM232.451 168.489H242.94V164.63H232.451V168.489ZM253.429 168.489H263.918V164.63H253.429V168.489ZM274.408 168.489H284.897V164.63H274.408V168.489ZM295.386 168.489H305.875V164.63H295.386V168.489ZM316.364 168.489H326.854V164.63H316.364V168.489ZM337.343 168.489H347.832V164.63H337.343V168.489ZM358.321 168.489H368.811V164.63H358.321V168.489ZM379.3 168.489H389.789V164.63H379.3V168.489ZM400.278 168.489H410.767V164.63H400.278V168.489ZM421.257 168.489H431.746V164.63H421.257V168.489ZM442.235 168.489H452.724V164.63H442.235V168.489ZM463.214 168.489H473.703V164.63H463.214V168.489ZM484.192 168.489H494.681V164.63H484.192V168.489ZM505.17 168.489H515.66V164.63H505.17V168.489ZM526.149 168.489H536.638V164.63H526.149V168.489ZM547.127 168.489H557.616V164.63H547.127V168.489ZM568.106 168.489H578.595V164.63H568.106V168.489ZM589.084 168.489H599.573V164.63H589.084V168.489ZM610.063 168.489H620.552V164.63H610.063V168.489ZM631.041 168.489H641.53V164.63H631.041V168.489ZM652.019 168.489H662.509V164.63H652.019V168.489ZM672.998 168.489H683.487V164.63H672.998V168.489ZM693.976 168.489H704.466V164.63H693.976V168.489Z" fill="white"/>
<path d="M734.705 172.748C737.812 174.647 740.732 177.128 743.359 180.099L744.965 177.036C742.15 173.85 739.043 171.216 735.706 169.164L734.705 172.748ZM750.429 190.482C752.451 194.372 754.14 198.629 755.433 203.193L757.873 201.723C756.497 196.822 754.683 192.258 752.514 188.124L750.429 190.482Z" fill="white"/>
<path d="M760.979 249.778H758.352V266.44H760.979V249.778Z" fill="white"/>
<path d="M0 0V6.92217H2.62754V0H0ZM0 76.3274V83.2803C0 85.7306 0.104211 88.2112 0.333597 90.6309L2.94026 90.1104C2.73173 87.8439 2.62754 85.5774 2.62754 83.2803V76.3274H0ZM85.9573 168.367C87.5839 168.428 89.2105 168.49 90.8579 168.49H96.0921V164.63H90.8579C89.2522 164.63 87.6465 164.569 86.0617 164.508L85.9782 168.367H85.9573ZM714.81 168.49H720.044C721.733 168.49 723.401 168.643 725.049 168.949L725.383 165.121C723.631 164.784 721.858 164.63 720.044 164.63H714.81V168.49ZM758.039 217.404C758.247 219.793 758.372 222.244 758.372 224.755V233.086H761V224.755C761 222.09 760.875 219.456 760.645 216.884L758.039 217.404ZM758.372 283.134V291.465H761V283.134H758.372Z" fill="white"/>
</svg>
