<svg width="342" height="200" viewBox="0 0 342 200" fill="none" xmlns="http://www.w3.org/2000/svg">
<rect width="342" height="200" rx="16" fill="white"/>
<mask id="mask0_7436_61751" style="mask-type:alpha" maskUnits="userSpaceOnUse" x="0" y="0" width="342" height="200">
<rect width="342" height="200" rx="16" fill="#ED713C"/>
</mask>
<g mask="url(#mask0_7436_61751)">
<ellipse opacity="0.05" cx="26.6009" cy="231.522" rx="174.257" ry="122.826" fill="#F05C5C"/>
<ellipse opacity="0.05" cx="315.398" cy="-31.5216" rx="174.257" ry="122.826" fill="#F05C5C"/>
</g>
<path d="M41.7539 27.2383H54.9641V51.0441H41.7539V27.2383Z" fill="#FF5F00"/>
<path d="M32.8228 63.0266V60.5031C32.8228 59.5355 32.2355 58.9048 31.229 58.9048C30.7258 58.9048 30.1806 59.073 29.8031 59.6198C29.5096 59.1571 29.0903 58.9048 28.4612 58.9048C28.0417 58.9048 27.6226 59.0309 27.2869 59.4936V58.9889H26.4062V63.0266H27.2869V60.7974C27.2869 60.0825 27.6644 59.7459 28.2517 59.7459C28.8385 59.7459 29.1323 60.1245 29.1323 60.7974V63.0266H30.013V60.7974C30.013 60.0825 30.4321 59.7459 30.9774 59.7459C31.5646 59.7459 31.858 60.1245 31.858 60.7974V63.0266H32.8228V63.0266ZM45.865 58.9889H44.4393V57.7692H43.5586V58.9889H42.7618V59.7879H43.5584V61.6387C43.5584 62.5641 43.9359 63.1107 44.9425 63.1107C45.32 63.1107 45.7391 62.9846 46.0329 62.8164L45.7811 62.0592C45.5295 62.2274 45.2361 62.2696 45.0264 62.2696C44.607 62.2696 44.4393 62.0173 44.4393 61.5965V59.7879H45.865V58.9889V58.9889ZM53.3299 58.9046C52.8268 58.9046 52.4913 59.1571 52.2815 59.4936V58.9889H51.4009V63.0266H52.2815V60.7554C52.2815 60.0825 52.575 59.7039 53.1202 59.7039C53.2879 59.7039 53.4977 59.7461 53.6654 59.7881L53.917 58.9469C53.7493 58.9048 53.4977 58.9048 53.3299 58.9048V58.9046ZM42.0489 59.3253C41.6294 59.0309 41.0423 58.9048 40.4132 58.9048C39.4068 58.9048 38.7359 59.4095 38.7359 60.2086C38.7359 60.8817 39.2391 61.2601 40.1198 61.3863L40.5391 61.4285C41.0005 61.5124 41.2521 61.6387 41.2521 61.849C41.2521 62.1433 40.9166 62.3537 40.3294 62.3537C39.7423 62.3537 39.2809 62.1433 38.9873 61.9331L38.568 62.606C39.0294 62.9425 39.6584 63.1107 40.2873 63.1107C41.4616 63.1107 42.1327 62.5641 42.1327 61.8069C42.1327 61.0919 41.5875 60.7133 40.7487 60.5872L40.3294 60.545C39.9519 60.5029 39.6584 60.419 39.6584 60.1666C39.6584 59.8722 39.9519 59.7039 40.4132 59.7039C40.9166 59.7039 41.4198 59.9141 41.6714 60.0404L42.0489 59.3253V59.3253ZM65.4499 58.9048C64.9465 58.9048 64.611 59.1571 64.4013 59.4936V58.9889H63.5206V63.0266H64.4013V60.7554C64.4013 60.0825 64.6949 59.7039 65.2399 59.7039C65.4078 59.7039 65.6176 59.7461 65.7853 59.7881L66.0369 58.9469C65.8692 58.9048 65.6176 58.9048 65.4499 58.9048V58.9048ZM54.2106 61.0077C54.2106 62.2274 55.0493 63.1107 56.3495 63.1107C56.9365 63.1107 57.3558 62.9846 57.7752 62.6482L57.3558 61.9331C57.0204 62.1855 56.6849 62.3115 56.3074 62.3115C55.5945 62.3115 55.0913 61.8069 55.0913 61.0077C55.0913 60.2508 55.5945 59.7459 56.3074 59.7039C56.6849 59.7039 57.0204 59.83 57.3558 60.0825L57.7752 59.3675C57.3558 59.0309 56.9365 58.9048 56.3495 58.9048C55.0493 58.9048 54.2106 59.7881 54.2106 61.0077ZM62.3465 61.0077V58.9889H61.4658V59.4936C61.1722 59.1152 60.7528 58.9048 60.2076 58.9048C59.0754 58.9048 58.1947 59.7881 58.1947 61.0077C58.1947 62.2274 59.0754 63.1107 60.2076 63.1107C60.7947 63.1107 61.2142 62.9005 61.4658 62.5219V63.0266H62.3465V61.0077V61.0077ZM59.1172 61.0077C59.1172 60.2927 59.5785 59.7039 60.3333 59.7039C61.0463 59.7039 61.5497 60.2508 61.5497 61.0077C61.5497 61.7228 61.0463 62.3115 60.3333 62.3115C59.5785 62.2694 59.1172 61.7228 59.1172 61.0077V61.0077ZM48.5911 58.9048C47.4168 58.9048 46.578 59.7459 46.578 61.0077C46.578 62.2696 47.4166 63.1107 48.6329 63.1107C49.22 63.1107 49.8072 62.9425 50.2686 62.5641L49.8491 61.9331C49.5136 62.1855 49.0943 62.3537 48.675 62.3537C48.1297 62.3537 47.5845 62.1014 47.4586 61.3861H50.4363V61.0499C50.4783 59.7459 49.7234 58.9048 48.5909 58.9048H48.5911ZM48.5911 59.6618C49.1361 59.6618 49.5138 59.9984 49.5975 60.6293H47.5007C47.5845 60.0825 47.962 59.6618 48.5911 59.6618ZM70.4403 61.0077V57.3906H69.5596V59.4936C69.266 59.1152 68.8467 58.9048 68.3015 58.9048C67.1692 58.9048 66.2885 59.7881 66.2885 61.0077C66.2885 62.2274 67.1692 63.1107 68.3015 63.1107C68.8887 63.1107 69.308 62.9005 69.5596 62.5219V63.0266H70.4403V61.0077V61.0077ZM67.2112 61.0077C67.2112 60.2927 67.6724 59.7039 68.4273 59.7039C69.1403 59.7039 69.6435 60.2508 69.6435 61.0077C69.6435 61.7228 69.1403 62.3115 68.4273 62.3115C67.6724 62.2694 67.2112 61.7228 67.2112 61.0077V61.0077ZM37.7712 61.0077V58.9889H36.8905V59.4936C36.5969 59.1152 36.1776 58.9048 35.6323 58.9048C34.5001 58.9048 33.6194 59.7881 33.6194 61.0077C33.6194 62.2274 34.5001 63.1107 35.6323 63.1107C36.2196 63.1107 36.6389 62.9005 36.8905 62.5219V63.0266H37.7712V61.0077V61.0077ZM34.5001 61.0077C34.5001 60.2927 34.9614 59.7039 35.7162 59.7039C36.4292 59.7039 36.9325 60.2508 36.9325 61.0077C36.9325 61.7228 36.4292 62.3115 35.7162 62.3115C34.9614 62.2694 34.5001 61.7228 34.5001 61.0077V61.0077Z" fill="black"/>
<path d="M42.5918 39.1415C42.5918 34.3047 44.8564 30.0145 48.337 27.2385C45.7791 25.2197 42.55 24 39.0273 24C30.6815 24 23.9297 30.7715 23.9297 39.1415C23.9297 47.5114 30.6815 54.2831 39.0271 54.2831C42.5498 54.2831 45.7789 53.0634 48.337 51.0444C44.8564 48.3105 42.5918 43.9784 42.5918 39.1415V39.1415Z" fill="#EB001B"/>
<path d="M72.7863 39.1415C72.7863 47.5114 66.0345 54.2831 57.6889 54.2831C54.1662 54.2831 50.9371 53.0634 48.3789 51.0444C51.9016 48.2686 54.1243 43.9784 54.1243 39.1415C54.1243 34.3047 51.8596 30.0145 48.3789 27.2385C50.9369 25.2197 54.1662 24 57.6889 24C66.0345 24 72.7865 30.8137 72.7865 39.1415H72.7863Z" fill="#F79E1B"/>
</svg>
