<svg width="17" height="16" viewBox="0 0 17 16" fill="none" xmlns="http://www.w3.org/2000/svg">
<g id="Bin" clip-path="url(#clip0_7168_41380)">
<path id="Vector" d="M14.4985 2.66667H12.4198C12.2642 1.91428 11.8524 1.23823 11.2539 0.752479C10.6554 0.266727 9.90673 0.000969683 9.13411 0L7.79301 0C7.02039 0.000969683 6.27173 0.266727 5.67322 0.752479C5.0747 1.23823 4.66293 1.91428 4.50729 2.66667H2.42858C2.25074 2.66667 2.08018 2.7369 1.95443 2.86193C1.82867 2.98695 1.75803 3.15652 1.75803 3.33333C1.75803 3.51014 1.82867 3.67971 1.95443 3.80474C2.08018 3.92976 2.25074 4 2.42858 4H3.09913V12.6667C3.1002 13.5504 3.45378 14.3976 4.08231 15.0225C4.71085 15.6474 5.56302 15.9989 6.4519 16H10.4752C11.3641 15.9989 12.2163 15.6474 12.8448 15.0225C13.4733 14.3976 13.8269 13.5504 13.828 12.6667V4H14.4985C14.6764 4 14.8469 3.92976 14.9727 3.80474C15.0984 3.67971 15.1691 3.51014 15.1691 3.33333C15.1691 3.15652 15.0984 2.98695 14.9727 2.86193C14.8469 2.7369 14.6764 2.66667 14.4985 2.66667ZM7.79301 1.33333H9.13411C9.55004 1.33384 9.95562 1.46225 10.2953 1.70096C10.6349 1.93967 10.8919 2.27699 11.0311 2.66667H5.89601C6.03521 2.27699 6.29224 1.93967 6.63187 1.70096C6.97149 1.46225 7.37708 1.33384 7.79301 1.33333ZM12.4869 12.6667C12.4869 13.1971 12.2749 13.7058 11.8977 14.0809C11.5204 14.456 11.0087 14.6667 10.4752 14.6667H6.4519C5.91837 14.6667 5.4067 14.456 5.02944 14.0809C4.65218 13.7058 4.44024 13.1971 4.44024 12.6667V4H12.4869V12.6667Z" fill="#F05C5C"/>
<path id="Vector_2" d="M7.12246 12.0003C7.3003 12.0003 7.47086 11.9301 7.59661 11.8051C7.72236 11.68 7.79301 11.5105 7.79301 11.3337V7.33366C7.79301 7.15685 7.72236 6.98728 7.59661 6.86225C7.47086 6.73723 7.3003 6.66699 7.12246 6.66699C6.94462 6.66699 6.77406 6.73723 6.6483 6.86225C6.52255 6.98728 6.4519 7.15685 6.4519 7.33366V11.3337C6.4519 11.5105 6.52255 11.68 6.6483 11.8051C6.77406 11.9301 6.94462 12.0003 7.12246 12.0003Z" fill="#F05C5C"/>
<path id="Vector_3" d="M9.80468 12.0003C9.98252 12.0003 10.1531 11.9301 10.2788 11.8051C10.4046 11.68 10.4752 11.5105 10.4752 11.3337V7.33366C10.4752 7.15685 10.4046 6.98728 10.2788 6.86225C10.1531 6.73723 9.98252 6.66699 9.80468 6.66699C9.62684 6.66699 9.45628 6.73723 9.33053 6.86225C9.20477 6.98728 9.13412 7.15685 9.13412 7.33366V11.3337C9.13412 11.5105 9.20477 11.68 9.33053 11.8051C9.45628 11.9301 9.62684 12.0003 9.80468 12.0003Z" fill="#F05C5C"/>
</g>
<defs>
<clipPath id="clip0_7168_41380">
<rect width="16.0933" height="16" fill="white" transform="translate(0.416931)"/>
</clipPath>
</defs>
</svg>
