<svg width="43" height="52" viewBox="0 0 43 52" fill="none" xmlns="http://www.w3.org/2000/svg">
<path d="M17.4843 5.74821C19.9094 5.74821 22.2801 6.46734 24.2965 7.81467C26.3129 9.162 27.8845 11.077 28.8126 13.3175C29.7406 15.5581 29.9834 18.0235 29.5103 20.402C29.0372 22.7805 27.8694 24.9654 26.1546 26.6802C24.4397 28.395 22.2549 29.5628 19.8764 30.0359C17.4979 30.5091 15.0324 30.2662 12.7919 29.3382C10.5514 28.4101 8.63637 26.8385 7.28904 24.8221C5.94171 22.8057 5.22258 20.435 5.22258 18.0099C5.22258 14.7579 6.51443 11.6391 8.81394 9.33957C11.1135 7.04006 14.2323 5.74821 17.4843 5.74821ZM17.4843 2.24487C14.3662 2.24487 11.3182 3.16947 8.72568 4.90176C6.13314 6.63404 4.1125 9.09619 2.91928 11.9769C1.72607 14.8576 1.41387 18.0274 2.02217 21.0855C2.63046 24.1436 4.13193 26.9526 6.33671 29.1574C8.54148 31.3622 11.3505 32.8637 14.4087 33.472C17.4668 34.0803 20.6366 33.7681 23.5173 32.5748C26.3979 31.3816 28.8601 29.361 30.5924 26.7684C32.3247 24.1759 33.2493 21.1279 33.2493 18.0099C33.2493 13.8287 31.5883 9.81885 28.6318 6.86234C25.6753 3.90582 21.6654 2.24487 17.4843 2.24487Z" fill="white" stroke="white" stroke-width="0.1" stroke-linecap="round"/>
<path d="M42.0077 18.0066C42.0099 14.7863 41.3757 11.5973 40.1418 8.62279C38.9078 5.64829 37.0983 2.94691 34.8172 0.673828L32.3385 3.15244C36.2742 7.08643 38.4884 12.4211 38.4952 17.9858C38.502 23.5505 36.3009 28.8906 32.3749 32.8342C28.4489 36.7778 23.1188 39.0028 17.5541 39.0209C11.9895 39.039 6.64491 36.8488 2.69332 32.9308L2.62676 32.8642L0.149902 35.3411C2.42334 37.6221 5.12507 39.4314 8.09987 40.6651C11.0747 41.8988 14.2639 42.5325 17.4844 42.5299V47.7849H10.4777V51.2883H27.9944V47.7849H20.9877V42.2497C26.8179 41.4045 32.1494 38.4903 36.0086 34.0393C39.8679 29.5883 41.9972 23.8976 42.0077 18.0066Z" fill="white" stroke="white" stroke-width="0.1" stroke-linecap="round"/>
</svg>
