<svg width="48" height="48" viewBox="0 0 48 48" fill="none" xmlns="http://www.w3.org/2000/svg">
<path d="M47.5868 33.5993C47.8605 31.502 47.9983 28.3446 47.9983 24.136C47.9983 19.9326 47.8605 16.7787 47.5868 14.6744C47.3131 12.5736 46.4431 10.1485 44.9804 7.40607C42.6024 2.46869 35.6566 0 24.136 0C12.4324 0 5.30176 2.46869 2.74241 7.40607C1.46099 9.96891 0.685167 12.2999 0.411449 14.4007C0.137731 16.5033 0 19.6606 0 23.8623C0 28.0709 0.137731 31.2265 0.411449 33.3273C0.685167 35.4316 1.50806 37.8498 2.88014 40.5939C4.25047 43.3381 6.67209 45.2558 10.1485 46.3525C13.6196 47.4526 18.2397 48 23.9983 48C29.7585 48 34.3751 47.4526 37.8498 46.3525C41.3209 45.2558 43.7478 43.3834 45.1181 40.7299C46.4902 38.0799 47.3131 35.7036 47.5868 33.5993Z" fill="#029871"/>
<g clip-path="url(#clip0_7364_86369)">
<path d="M25.0003 27.9991C26.5826 27.9991 28.1293 27.5299 29.4449 26.6509C30.7605 25.7718 31.7859 24.5224 32.3914 23.0606C32.9969 21.5988 33.1553 19.9903 32.8466 18.4384C32.5379 16.8866 31.776 15.4611 30.6572 14.3423C29.5383 13.2235 28.1129 12.4615 26.561 12.1528C25.0092 11.8442 23.4007 12.0026 21.9388 12.6081C20.477 13.2136 19.2276 14.239 18.3486 15.5546C17.4695 16.8702 17.0003 18.4169 17.0003 19.9991C17.0027 22.1201 17.8463 24.1536 19.3461 25.6534C20.8459 27.1531 22.8793 27.9967 25.0003 27.9991ZM25.0003 13.9991C26.187 13.9991 27.347 14.351 28.3337 15.0103C29.3204 15.6696 30.0895 16.6067 30.5436 17.703C30.9977 18.7994 31.1165 20.0058 30.885 21.1697C30.6535 22.3336 30.0821 23.4027 29.243 24.2418C28.4038 25.0809 27.3347 25.6523 26.1709 25.8838C25.007 26.1154 23.8006 25.9965 22.7042 25.5424C21.6079 25.0883 20.6708 24.3192 20.0115 23.3326C19.3522 22.3459 19.0003 21.1858 19.0003 19.9991C19.0019 18.4083 19.6346 16.8831 20.7594 15.7582C21.8843 14.6334 23.4095 14.0007 25.0003 13.9991ZM34.9073 26.7721C33.8995 28.2406 32.5772 29.4662 31.0365 30.3598C29.4958 31.2533 27.7754 31.7925 26.0003 31.9381V33.9991H30.0003C30.2655 33.9991 30.5199 34.1045 30.7074 34.292C30.895 34.4796 31.0003 34.7339 31.0003 34.9991C31.0003 35.2643 30.895 35.5187 30.7074 35.7062C30.5199 35.8938 30.2655 35.9991 30.0003 35.9991H20.0003C19.7351 35.9991 19.4807 35.8938 19.2932 35.7062C19.1057 35.5187 19.0003 35.2643 19.0003 34.9991C19.0003 34.7339 19.1057 34.4796 19.2932 34.292C19.4807 34.1045 19.7351 33.9991 20.0003 33.9991H24.0003V31.9481C21.8178 31.7665 19.7266 30.9908 17.9536 29.7051C16.1806 28.4194 14.7935 26.6728 13.9427 24.6547C13.0919 22.6366 12.81 20.4241 13.1274 18.2571C13.4448 16.0901 14.3495 14.0514 15.7433 12.3621C15.9123 12.1576 16.1555 12.0287 16.4196 12.0035C16.6836 11.9784 16.9468 12.0592 17.1513 12.2281C17.3558 12.3971 17.4848 12.6403 17.5099 12.9044C17.5351 13.1684 17.4543 13.4316 17.2853 13.6361C16.4269 14.6786 15.7885 15.8842 15.4086 17.1802C15.0288 18.4761 14.9154 19.8356 15.0753 21.1766C15.2351 22.5176 15.6649 23.8123 16.3388 24.9826C17.0127 26.1529 17.9166 27.1747 18.9961 27.9861C20.0755 28.7976 21.3082 29.3821 22.6197 29.7042C23.9312 30.0263 25.2943 30.0794 26.6269 29.8604C27.9595 29.6414 29.2339 29.1547 30.3733 28.4297C31.5127 27.7047 32.4934 26.7565 33.2563 25.6421C33.4062 25.4232 33.6368 25.2728 33.8976 25.2239C34.1584 25.175 34.4279 25.2318 34.6468 25.3816C34.8658 25.5315 35.0162 25.7622 35.065 26.0229C35.1139 26.2837 35.0572 26.5532 34.9073 26.7721Z" fill="white"/>
</g>
<defs>
<clipPath id="clip0_7364_86369">
<rect width="24" height="24" fill="white" transform="translate(12 11.999)"/>
</clipPath>
</defs>
</svg>
