<svg width="48" height="48" viewBox="0 0 48 48" fill="none" xmlns="http://www.w3.org/2000/svg">
<path d="M47.5868 33.5993C47.8605 31.502 47.9983 28.3446 47.9983 24.136C47.9983 19.9326 47.8605 16.7787 47.5868 14.6744C47.3131 12.5736 46.4431 10.1485 44.9804 7.40607C42.6024 2.46869 35.6566 0 24.136 0C12.4324 0 5.30176 2.46869 2.74241 7.40607C1.46099 9.96891 0.685167 12.2999 0.411449 14.4007C0.137731 16.5033 0 19.6606 0 23.8623C0 28.0709 0.137731 31.2265 0.411449 33.3273C0.685167 35.4316 1.50806 37.8498 2.88014 40.5939C4.25047 43.3381 6.67209 45.2558 10.1485 46.3525C13.6196 47.4526 18.2397 48 23.9983 48C29.7585 48 34.3751 47.4526 37.8498 46.3525C41.3209 45.2558 43.7478 43.3834 45.1181 40.7299C46.4902 38.0799 47.3131 35.7036 47.5868 33.5993Z" fill="#F05C5C"/>
<g clip-path="url(#clip0_7364_86364)">
<path d="M29.5 13.917C28.3739 13.9345 27.2724 14.2488 26.3067 14.8283C25.341 15.4077 24.5453 16.2317 24 17.217C23.4546 16.2317 22.6589 15.4077 21.6932 14.8283C20.7275 14.2488 19.626 13.9345 18.5 13.917C16.7049 13.995 15.0137 14.7802 13.7957 16.1012C12.5778 17.4222 11.9322 19.1715 12 20.967C12 25.514 16.786 30.48 20.8 33.847C21.6962 34.6001 22.8293 35.013 24 35.013C25.1706 35.013 26.3037 34.6001 27.2 33.847C31.214 30.48 36 25.514 36 20.967C36.0677 19.1715 35.4221 17.4222 34.2042 16.1012C32.9863 14.7802 31.295 13.995 29.5 13.917ZM25.915 32.317C25.3789 32.7684 24.7007 33.0159 24 33.0159C23.2992 33.0159 22.621 32.7684 22.085 32.317C16.947 28.006 14 23.87 14 20.967C13.9316 19.7017 14.3663 18.4607 15.2093 17.5147C16.0523 16.5687 17.2352 15.9943 18.5 15.917C19.7647 15.9943 20.9476 16.5687 21.7906 17.5147C22.6336 18.4607 23.0683 19.7017 23 20.967C23 21.2322 23.1053 21.4866 23.2929 21.6741C23.4804 21.8616 23.7347 21.967 24 21.967C24.2652 21.967 24.5195 21.8616 24.7071 21.6741C24.8946 21.4866 25 21.2322 25 20.967C24.9316 19.7017 25.3663 18.4607 26.2093 17.5147C27.0523 16.5687 28.2352 15.9943 29.5 15.917C30.7647 15.9943 31.9476 16.5687 32.7906 17.5147C33.6336 18.4607 34.0683 19.7017 34 20.967C34 23.87 31.053 28.006 25.915 32.313V32.317Z" fill="white"/>
</g>
<defs>
<clipPath id="clip0_7364_86364">
<rect width="24" height="24" fill="white" transform="translate(12 11.999)"/>
</clipPath>
</defs>
</svg>
