<svg width="50" height="54" viewBox="0 0 50 54" fill="none" xmlns="http://www.w3.org/2000/svg">
<path d="M35.5565 16.226C33.1754 13.8422 30.6143 11.6453 27.8957 9.65484C29.755 8.5301 31.7066 7.56553 33.7293 6.77158C34.2657 6.57042 34.7686 6.41956 35.2715 6.26869C35.6796 6.76236 36.2051 7.14558 36.8 7.38313C37.3948 7.62067 38.0397 7.70493 38.6756 7.62816C39.3115 7.55139 39.9178 7.31605 40.439 6.94376C40.9602 6.57148 41.3795 6.07419 41.6583 5.49758C42.8553 5.60597 43.9848 6.10011 44.8768 6.90569C46.8716 8.9005 46.9219 12.9237 45.0444 17.9358C45.8658 19.0254 46.6202 20.1318 47.3075 21.2885C47.5924 20.6179 47.8942 19.9642 48.1289 19.3104C50.593 12.8566 50.2745 7.57621 47.2404 4.59237C45.7224 3.15489 43.7454 2.29995 41.6583 2.17848C41.3101 1.45257 40.7424 0.85451 40.0357 0.468911C39.3289 0.0833129 38.5188 -0.0703065 37.7199 0.0297836C36.921 0.129874 36.1739 0.478606 35.5841 1.02665C34.9943 1.57469 34.5917 2.29431 34.4334 3.08369C33.8131 3.26809 33.1929 3.45248 32.5391 3.70393C29.8608 4.75872 27.2944 6.07838 24.8784 7.64327C22.4574 6.05823 19.8857 4.71625 17.2009 3.63687C10.7471 1.18946 5.46666 1.49119 2.49959 4.52532C-0.283095 7.32477 -0.7357 11.9682 1.10825 17.7011C0.687384 18.2423 0.419833 18.8867 0.333629 19.5669C0.247426 20.247 0.345744 20.9378 0.61828 21.5668C0.890817 22.1959 1.32754 22.7401 1.88268 23.1423C2.43781 23.5446 3.09093 23.7901 3.77358 23.8532C4.31 24.8758 4.89671 25.8983 5.55048 26.9041C3.99374 29.3255 2.68519 31.8977 1.64467 34.5816C-0.819516 41.0187 -0.501016 46.3158 2.53311 49.2829C3.45624 50.1457 4.54321 50.8143 5.72957 51.2491C6.91592 51.6839 8.17751 51.876 9.43952 51.8141C12.1173 51.7268 14.7575 51.159 17.2344 50.1378C19.9166 49.0798 22.4882 47.7603 24.9119 46.1985C27.3132 47.7962 29.8683 49.1496 32.5391 50.2384C34.5025 51.011 36.5602 51.5184 38.6577 51.7471C39.0259 52.53 39.6467 53.1663 40.4202 53.5537C41.1938 53.9412 42.0752 54.0571 42.9227 53.883C43.7702 53.7088 44.5344 53.2547 45.0926 52.5937C45.6507 51.9326 45.9703 51.1031 45.9999 50.2384C46.4451 49.9633 46.8608 49.6431 47.2404 49.2829C50.2745 46.2488 50.593 41.0187 48.1289 34.5816C45.2377 27.6675 40.9587 21.4202 35.5565 16.226ZM16.0107 47.0366C10.9817 48.9644 6.87477 48.9309 4.86319 46.9025C2.85161 44.8742 2.80132 40.8343 4.74585 35.7718C5.53374 33.7493 6.49272 31.7977 7.61234 29.9382C9.60877 32.6468 11.8053 35.2019 14.1835 37.5822C14.9043 38.303 15.6419 39.0071 16.3795 39.6776C17.3853 39.1636 18.4078 38.5768 19.4471 37.9175C18.4749 37.0458 17.5026 36.2412 16.5639 35.2186C12.791 31.5113 9.55256 27.2969 6.94182 22.6966C7.46611 22.1532 7.8185 21.4672 7.95488 20.7245C8.09126 19.9818 8.00559 19.2154 7.70857 18.5212C7.41156 17.827 6.91639 17.2358 6.28505 16.8215C5.65371 16.4073 4.91422 16.1885 4.15914 16.1925C2.9019 12.0017 3.11982 8.66582 4.87995 6.90569C5.49988 6.35936 6.2222 5.94168 7.00494 5.67693C7.78769 5.41217 8.61525 5.30563 9.43952 5.36348C11.7016 5.43902 13.9322 5.9158 16.0274 6.77158C18.0502 7.56553 20.0018 8.5301 21.861 9.65484C19.1425 11.6453 16.5813 13.8422 14.2003 16.226C13.4627 16.9636 12.7419 17.7347 12.0378 18.5058C12.5425 19.5678 13.1021 20.6029 13.7141 21.607C14.6193 20.5844 15.5413 19.5786 16.5303 18.5896C19.1094 16.0134 21.9145 13.6739 24.9119 11.5994C27.8773 13.6818 30.6539 16.0208 33.2097 18.5896C35.7864 21.1682 38.1259 23.9733 40.1999 26.9712C38.1206 29.965 35.7815 32.7697 33.2097 35.3527C28.3319 40.3777 22.4794 44.3536 16.0107 47.0366ZM44.8768 46.8858L44.6086 47.1037C44.1684 46.7305 43.6491 46.4624 43.09 46.3195C42.5308 46.1767 41.9465 46.1629 41.3813 46.2792C40.816 46.3954 40.2846 46.6388 39.8273 46.9907C39.37 47.3427 38.9987 47.794 38.7415 48.3106C37.0184 48.0893 35.3292 47.6558 33.7126 47.0199C31.6869 46.2326 29.7347 45.2677 27.879 44.1366C30.5975 42.1462 33.1587 39.9493 35.5397 37.5655C37.9273 35.1938 40.1244 32.6379 42.1109 29.9215C43.2355 31.7808 44.2 33.7324 44.9941 35.755C46.9051 40.8343 46.9051 44.891 44.8768 46.8858Z" fill="white"/>
<path d="M25.987 32.3371C29.0026 31.8476 31.0505 29.0061 30.561 25.9904C30.0715 22.9747 27.23 20.9269 24.2143 21.4164C21.1986 21.9059 19.1507 24.7474 19.6402 27.7631C20.1298 30.7788 22.9713 32.8266 25.987 32.3371Z" fill="white"/>
</svg>
