<svg width="50" height="54" viewBox="0 0 50 54" fill="none" xmlns="http://www.w3.org/2000/svg">
<path d="M35.5643 16.226C33.1832 13.8422 30.6221 11.6453 27.9036 9.65484C29.7628 8.5301 31.7144 7.56553 33.7371 6.77158C34.2735 6.57042 34.7764 6.41956 35.2793 6.26869C35.6874 6.76236 36.213 7.14558 36.8078 7.38313C37.4026 7.62067 38.0475 7.70493 38.6834 7.62816C39.3193 7.55139 39.9256 7.31605 40.4468 6.94376C40.968 6.57148 41.3873 6.07419 41.6661 5.49758C42.8631 5.60597 43.9926 6.10011 44.8846 6.90569C46.8794 8.9005 46.9297 12.9237 45.0522 17.9358C45.8736 19.0254 46.628 20.1318 47.3153 21.2885C47.6002 20.6179 47.902 19.9642 48.1367 19.3104C50.6008 12.8566 50.2823 7.57621 47.2482 4.59237C45.7302 3.15489 43.7532 2.29995 41.6661 2.17848C41.3179 1.45257 40.7502 0.85451 40.0435 0.468911C39.3367 0.0833129 38.5266 -0.0703065 37.7277 0.0297836C36.9289 0.129874 36.1817 0.478606 35.5919 1.02665C35.0021 1.57469 34.5995 2.29431 34.4412 3.08369C33.8209 3.26809 33.2007 3.45248 32.5469 3.70393C29.8686 4.75872 27.3023 6.07838 24.8862 7.64327C22.4652 6.05823 19.8935 4.71625 17.2087 3.63687C10.7549 1.18946 5.47447 1.49119 2.5074 4.52532C-0.275283 7.32477 -0.727888 11.9682 1.11606 17.7011C0.695197 18.2423 0.427645 18.8867 0.341442 19.5669C0.255238 20.247 0.353556 20.9378 0.626093 21.5668C0.898629 22.1959 1.33535 22.7401 1.89049 23.1423C2.44563 23.5446 3.09874 23.7901 3.7814 23.8532C4.31782 24.8758 4.90453 25.8983 5.55829 26.9041C4.00156 29.3255 2.693 31.8977 1.65248 34.5816C-0.811704 41.0187 -0.493203 46.3158 2.54092 49.2829C3.46405 50.1457 4.55102 50.8143 5.73738 51.2491C6.92374 51.6839 8.18533 51.876 9.44734 51.8141C12.1251 51.7268 14.7653 51.159 17.2422 50.1378C19.9244 49.0798 22.496 47.7603 24.9197 46.1985C27.321 47.7962 29.8761 49.1496 32.5469 50.2384C34.5103 51.011 36.568 51.5184 38.6655 51.7471C39.0337 52.53 39.6545 53.1663 40.4281 53.5537C41.2016 53.9412 42.083 54.0571 42.9305 53.883C43.778 53.7088 44.5422 53.2547 45.1004 52.5937C45.6585 51.9326 45.9781 51.1031 46.0077 50.2384C46.4529 49.9633 46.8686 49.6431 47.2482 49.2829C50.2823 46.2488 50.6008 41.0187 48.1367 34.5816C45.2455 27.6675 40.9665 21.4202 35.5643 16.226ZM16.0185 47.0366C10.9895 48.9644 6.88258 48.9309 4.871 46.9025C2.85942 44.8742 2.80913 40.8343 4.75366 35.7718C5.54155 33.7493 6.50053 31.7977 7.62016 29.9382C9.61658 32.6468 11.8131 35.2019 14.1913 37.5822C14.9121 38.303 15.6497 39.0071 16.3873 39.6776C17.3931 39.1636 18.4156 38.5768 19.4549 37.9175C18.4827 37.0458 17.5104 36.2412 16.5717 35.2186C12.7988 31.5113 9.56037 27.2969 6.94963 22.6966C7.47392 22.1532 7.82631 21.4672 7.96269 20.7245C8.09907 19.9818 8.0134 19.2154 7.71638 18.5212C7.41937 17.827 6.92421 17.2358 6.29286 16.8215C5.66152 16.4073 4.92204 16.1885 4.16695 16.1925C2.90971 12.0017 3.12763 8.66582 4.88776 6.90569C5.50769 6.35936 6.23001 5.94168 7.01276 5.67693C7.7955 5.41217 8.62306 5.30563 9.44734 5.36348C11.7094 5.43902 13.94 5.9158 16.0353 6.77158C18.058 7.56553 20.0096 8.5301 21.8688 9.65484C19.1503 11.6453 16.5891 13.8422 14.2081 16.226C13.4705 16.9636 12.7497 17.7347 12.0456 18.5058C12.5504 19.5678 13.1099 20.6029 13.7219 21.607C14.6271 20.5844 15.5491 19.5786 16.5381 18.5896C19.1172 16.0134 21.9223 13.6739 24.9197 11.5994C27.8851 13.6818 30.6618 16.0208 33.2175 18.5896C35.7942 21.1682 38.1337 23.9733 40.2077 26.9712C38.1284 29.965 35.7893 32.7697 33.2175 35.3527C28.3398 40.3777 22.4872 44.3536 16.0185 47.0366ZM44.8846 46.8858L44.6164 47.1037C44.1762 46.7305 43.6569 46.4624 43.0978 46.3195C42.5386 46.1767 41.9543 46.1629 41.3891 46.2792C40.8238 46.3954 40.2924 46.6388 39.8351 46.9907C39.3778 47.3427 39.0065 47.794 38.7493 48.3106C37.0262 48.0893 35.3371 47.6558 33.7204 47.0199C31.6947 46.2326 29.7426 45.2677 27.8868 44.1366C30.6053 42.1462 33.1665 39.9493 35.5475 37.5655C37.9351 35.1938 40.1323 32.6379 42.1187 29.9215C43.2433 31.7808 44.2079 33.7324 45.002 35.755C46.913 40.8343 46.913 44.891 44.8846 46.8858Z" fill="white"/>
</svg>
