<svg width="48" height="48" viewBox="0 0 48 48" fill="none" xmlns="http://www.w3.org/2000/svg">
<path d="M47.5834 33.5993C47.8571 31.502 47.9948 28.3446 47.9948 24.136C47.9948 19.9326 47.8571 16.7787 47.5834 14.6744C47.3097 12.5736 46.4397 10.1485 44.977 7.40607C42.5989 2.46869 35.6531 0 24.1326 0C12.429 0 5.29834 2.46869 2.73899 7.40607C1.45757 9.96891 0.681749 12.2999 0.408031 14.4007C0.134313 16.5033 -0.00341797 19.6606 -0.00341797 23.8623C-0.00341797 28.0709 0.134313 31.2265 0.408031 33.3273C0.681749 35.4316 1.50465 37.8498 2.87672 40.5939C4.24706 43.3381 6.66867 45.2558 10.1451 46.3525C13.6162 47.4526 18.2363 48 23.9948 48C29.7551 48 34.3717 47.4526 37.8464 46.3525C41.3175 45.2558 43.7444 43.3834 45.1147 40.7299C46.4868 38.0799 47.3097 35.7036 47.5834 33.5993Z" fill="#0A1932"/>
<g clip-path="url(#clip0_7364_86371)">
<path d="M34.5629 13.4362C32.1889 11.0622 28.6439 11.6412 23.9999 15.1362C19.3569 11.6412 15.8129 11.0612 13.4369 13.4362C11.0609 15.8112 11.6419 19.3552 15.1369 23.9992C11.6419 28.6422 11.0619 32.1872 13.4369 34.5622C13.8822 35.0239 14.4173 35.3896 15.0092 35.6368C15.6012 35.8839 16.2374 36.0072 16.8789 35.9992C18.8499 35.9992 21.2299 34.9472 23.9999 32.8632C26.7689 34.9472 29.1489 35.9992 31.1209 35.9992C31.7623 36.0072 32.3986 35.8839 32.9905 35.6368C33.5825 35.3896 34.1176 35.0239 34.5629 34.5622C36.9379 32.1872 36.3629 28.6432 32.8629 23.9992C36.3579 19.3552 36.9379 15.8112 34.5629 13.4362ZM31.0849 14.0272C31.467 14.0157 31.8475 14.0824 32.2029 14.2232C32.5584 14.3641 32.8813 14.5761 33.1519 14.8462C34.8979 16.5932 33.6079 19.5592 31.5639 22.3852C30.7259 21.3972 29.7819 20.3702 28.7059 19.2932C27.6299 18.2162 26.5999 17.2722 25.6119 16.4332C27.5099 15.0602 29.4719 14.0272 31.0849 14.0272ZM30.3109 23.9992C29.2999 25.2192 28.2289 26.3602 27.2949 27.2992C26.3609 28.2382 25.2199 29.2992 23.9999 30.3102C22.7799 29.2992 21.6389 28.2282 20.7049 27.2992C19.7709 26.3702 18.6999 25.2192 17.6889 23.9992C18.6999 22.7792 19.7709 21.6372 20.7049 20.7042C21.6389 19.7712 22.7799 18.6992 23.9999 17.6872C25.2199 18.6972 26.3609 19.7702 27.2999 20.7042C28.2389 21.6382 29.2999 22.7792 30.3109 23.9992ZM14.8479 14.8472C15.1181 14.5766 15.441 14.3642 15.7965 14.2232C16.152 14.0822 16.5326 14.0155 16.9149 14.0272C18.5279 14.0272 20.4899 15.0602 22.3879 16.4332C21.3999 17.2722 20.3719 18.2162 19.2939 19.2932C18.2159 20.3702 17.2739 21.3932 16.4349 22.3852C14.3919 19.5592 13.0999 16.5932 14.8479 14.8472ZM14.8479 33.1472C13.1019 31.4012 14.3919 28.4342 16.4349 25.6092C17.2739 26.5972 18.2179 27.6242 19.2939 28.7012C20.3699 29.7782 21.3939 30.7242 22.3829 31.5622C19.5579 33.6082 16.5919 34.8992 14.8479 33.1512V33.1472ZM33.1479 33.1472C31.4029 34.8912 28.4379 33.6042 25.6129 31.5622C26.5989 30.7242 27.6269 29.7752 28.7019 28.7012C29.7769 27.6272 30.7219 26.6012 31.5599 25.6092C33.6079 28.4392 34.8999 31.4052 33.1519 33.1512L33.1479 33.1472Z" fill="white"/>
<path d="M24.0002 25.999C25.1048 25.999 26.0002 25.1036 26.0002 23.999C26.0002 22.8945 25.1048 21.999 24.0002 21.999C22.8957 21.999 22.0002 22.8945 22.0002 23.999C22.0002 25.1036 22.8957 25.999 24.0002 25.999Z" fill="white"/>
</g>
<defs>
<clipPath id="clip0_7364_86371">
<rect width="24" height="24" fill="white" transform="translate(12 11.999)"/>
</clipPath>
</defs>
</svg>
