<svg width="54" height="51" viewBox="0 0 54 51" fill="none" xmlns="http://www.w3.org/2000/svg">
<path d="M30.9246 50.443C31.7563 50.435 32.4277 49.774 32.4277 48.9605V42.7383L37.6787 45.9595C37.9201 46.1079 38.1995 46.1867 38.4847 46.1868C38.742 46.1872 38.9952 46.1236 39.2204 46.0022C39.4457 45.8807 39.6356 45.7053 39.7723 45.4924C40.218 44.7992 40.0043 43.8841 39.2937 43.4483L32.4277 39.2367V31.556C33.7038 31.2605 34.8378 30.602 35.7079 29.6973L42.5717 33.5521L42.8875 41.4386C42.9194 42.2373 43.5926 42.8631 44.404 42.8631C44.4243 42.8631 44.4445 42.8631 44.4641 42.8621C45.3023 42.8302 45.9551 42.141 45.9226 41.3227L45.681 35.2978L51.2292 38.4137C51.4021 38.511 51.5928 38.574 51.7906 38.5992C51.9884 38.6244 52.1894 38.6112 52.382 38.5605C52.5746 38.5098 52.755 38.4225 52.913 38.3036C53.071 38.1847 53.2035 38.0366 53.3028 37.8677C53.7213 37.1577 53.4707 36.252 52.7441 35.8434L47.2088 32.735L52.6919 29.9293C53.4345 29.5491 53.7213 28.6531 53.3318 27.928C52.9418 27.2024 52.0242 26.9225 51.2821 27.3033L44.0901 30.9836L37.2239 27.1283C37.4058 26.5329 37.4982 25.915 37.4982 25.2938C37.4982 24.6562 37.4014 24.0413 37.2233 23.4594L44.0913 19.6047L51.2815 23.2879C51.4984 23.3999 51.7402 23.4584 51.9856 23.4582C52.3251 23.4583 52.6549 23.3472 52.9222 23.1428C53.1896 22.9383 53.379 22.6523 53.4604 22.3304C53.5417 22.0085 53.5102 21.6693 53.3709 21.3669C53.2316 21.0645 52.9925 20.8164 52.6919 20.6623L47.21 17.8536L52.7435 14.7477C53.4702 14.3397 53.7206 13.4331 53.3028 12.7233C52.8849 12.0137 51.9564 11.7692 51.23 12.1767L45.681 15.2913L45.9226 9.26365C45.9551 8.44537 45.3023 7.75617 44.4641 7.72427C43.6265 7.69133 42.9208 8.32934 42.8875 9.14777L42.5717 17.0371L35.7061 20.8906C34.8364 19.9878 33.7032 19.3299 32.4277 19.0349V11.3507L39.2937 7.14295C40.0037 6.70777 40.218 5.7926 39.7723 5.0994C39.3264 4.4056 38.3891 4.1964 37.6791 4.63158L32.4277 7.85009V1.63117C32.4277 1.43647 32.3885 1.24366 32.3122 1.06377C32.2359 0.883886 32.124 0.720436 31.983 0.582761C31.842 0.445086 31.6746 0.335884 31.4904 0.261393C31.3109 0.188809 31.1188 0.150567 30.9246 0.148692V21.8257C32.876 21.8335 34.4612 23.386 34.4612 25.2932C34.4612 27.2034 32.876 28.7577 30.9246 28.7655V50.443Z" fill="white"/>
<path d="M32.593 1.36864C32.593 0.61276 31.9654 0 31.1913 0C30.4171 0 29.7896 0.61276 29.7896 1.36864V22.0351C30.1558 21.9103 30.5494 21.8425 30.9591 21.8425C31.5483 21.8425 32.104 21.9827 32.593 22.2307V1.36864Z" fill="white"/>
<path d="M32.593 28.3855C32.104 28.6335 31.5483 28.7737 30.9591 28.7737C30.5494 28.7737 30.1558 28.7059 29.7896 28.5811V49.4517C29.7896 50.2076 30.4171 50.8203 31.1913 50.8203C31.9654 50.8203 32.593 50.2076 32.593 49.4517V28.3855Z" fill="white"/>
<path d="M26.0649 11.7263C8.68387 13.4083 7.78633 36.6229 26.0649 39.2023V11.7263Z" stroke="white" stroke-width="2.7" stroke-linejoin="round"/>
<path d="M25.9521 1.66943L25.9819 7.61435" stroke="white" stroke-width="2.7" stroke-linecap="round"/>
<path d="M25.9521 43.2261L25.9819 49.171" stroke="white" stroke-width="2.7" stroke-linecap="round"/>
<path d="M7.47607 25.1382L1.53215 25.2507" stroke="white" stroke-width="2.7" stroke-linecap="round"/>
<path d="M12.8174 38.5024L8.60647 42.699" stroke="white" stroke-width="2.7" stroke-linecap="round"/>
<path d="M8.56836 8.12622L12.7748 12.3272" stroke="white" stroke-width="2.7" stroke-linecap="round"/>
</svg>
