<svg width="49" height="54" viewBox="0 0 49 54" fill="none" xmlns="http://www.w3.org/2000/svg">
<path d="M1.35873 20.5756L2.50143 20.9157L5.43529 10.631L15.0407 7.88261L21.866 14.677L19.1172 24.3125L9.51224 27.0307L2.19267 19.7417L1.35873 20.5756L2.50143 20.9157L1.35873 20.5756L0.493878 21.4405L8.80196 29.7173L21.0629 26.2277L24.5529 13.9976L15.7509 5.19531L3.52048 8.68488L0 20.9466L0.493878 21.4405L1.35873 20.5756Z" fill="white"/>
<path d="M14.609 19.7903L13.7751 18.9564C13.3736 19.3579 12.8178 19.5739 12.2927 19.5739C11.7677 19.5739 11.2118 19.3579 10.8103 18.9564C10.378 18.524 10.1924 17.999 10.1924 17.4431C10.1924 16.918 10.4088 16.3622 10.8103 15.9607C11.2427 15.5283 11.7677 15.3432 12.2927 15.3432C12.8178 15.3432 13.3736 15.5283 13.7751 15.9607C14.2075 16.3622 14.3926 16.918 14.3926 17.4431C14.3926 17.999 14.1766 18.524 13.7751 18.9564L14.609 19.7903L15.443 20.6243C16.3077 19.7595 16.7708 18.5858 16.7708 17.4431C16.7708 16.3004 16.3386 15.1267 15.443 14.2619C14.5782 13.3971 13.4045 12.9341 12.2618 12.9341C11.1191 12.9341 9.94539 13.3971 9.08063 14.2619C8.21587 15.1267 7.75244 16.3004 7.75244 17.4431C7.75244 18.5858 8.18499 19.7595 9.08063 20.6243C9.94539 21.5199 11.1191 21.9521 12.2618 21.9521C13.4045 21.9521 14.5782 21.5199 15.443 20.6243L14.609 19.7903Z" fill="white"/>
<path d="M38.6671 21.68C38.6671 20.7535 38.6056 19.7956 38.482 18.869L37.3084 19.0545L38.513 18.8999C38.3276 17.4484 38.0186 15.9972 37.5244 14.6074L36.3817 15.0085L37.5244 14.6383C36.4744 11.4572 34.714 8.49214 32.1815 5.99051L29.1858 2.99482L28.3519 3.85967L29.4328 4.35355L29.8343 3.76693C30.2667 3.36543 30.7916 3.14939 31.3167 3.14939C31.7182 3.14939 32.1197 3.27251 32.4903 3.4887L33.1391 2.50019L32.2743 3.33413L32.367 3.42687C32.7994 3.7666 33.2006 4.16846 33.6021 4.56995C37.1847 8.12165 39.3775 12.5376 40.2423 17.1702C40.4585 18.2821 40.582 19.4251 40.6438 20.5369C40.6438 20.9075 40.6747 21.2785 40.6747 21.68C40.6747 22.3286 41.1998 22.8532 41.8792 22.8532C42.5587 22.8532 43.0838 22.3286 43.0838 21.68C43.0838 21.2476 43.0838 20.8456 43.0838 20.4133C43.022 19.1779 42.8675 17.9427 42.6513 16.7382C41.6939 11.6423 39.2541 6.79347 35.3318 2.87116C34.8994 2.43878 34.4363 2.00667 33.973 1.60518L33.2009 2.50019L34.0654 1.66701L33.8494 1.48152C33.1082 1.01825 32.2433 0.77124 31.3785 0.77124C30.2358 0.77124 29.0621 1.20341 28.1973 2.09906C27.8267 2.46967 27.5181 2.90178 27.3019 3.36504C27.0857 3.82831 27.2091 4.35388 27.5489 4.69361L30.5446 7.6893C32.7682 9.91297 34.3743 12.569 35.3009 15.3795C35.7332 16.6148 36.0113 17.9119 36.1657 19.1782C36.2892 20.0121 36.3199 20.8461 36.3199 21.68C36.3199 22.3286 36.845 22.8532 37.5244 22.8532C38.2039 22.8532 38.729 22.3286 38.729 21.68H38.6671Z" fill="white"/>
<path d="M34.2515 21.6809C34.2515 20.1058 34.0351 18.5615 33.6336 17.0482C32.8615 14.1451 31.3174 11.3962 29.0628 9.11073L26.7156 6.76349C25.8508 5.89873 24.6775 5.46659 23.5348 5.46659H23.4729C22.8244 5.46659 22.1758 5.62068 21.5581 5.89864L22.0829 6.97989L22.9169 6.14595L22.7932 5.99138L22.3612 5.37384C22.2376 5.065 22.1757 4.78695 22.1757 4.50899C22.1757 3.95307 22.3917 3.42807 22.7932 2.99569L21.9596 2.16175L22.6699 3.11935L23.3493 2.5938L22.639 1.63696L23.2256 2.65563C23.5654 2.47032 23.9054 2.37815 24.276 2.37815C24.8319 2.37815 25.3569 2.59419 25.7584 2.99569L30.4528 7.69017C32.6765 9.91384 34.2822 12.5699 35.2088 15.3803C35.6411 16.6157 35.9192 17.9128 36.0736 19.179C36.1972 20.0129 36.2282 20.847 36.2282 21.6809C36.2282 22.3294 36.7533 22.8541 37.4327 22.8541C38.1122 22.8541 38.6369 22.3294 38.6369 21.6809C38.6369 20.7543 38.5753 19.7964 38.4518 18.8699L37.2782 19.0554L38.4827 18.9008C38.2974 17.4493 37.9883 15.998 37.4942 14.6082L36.3515 15.0094L37.4942 14.6391C36.4441 11.4581 34.6838 8.49301 32.1512 5.99138L27.4568 1.2969C26.592 0.432139 25.4187 0 24.276 0C23.5039 0 22.7006 0.185125 22.0211 0.586621L21.8978 0.679365L21.2185 1.20416L21.0948 1.2969C20.23 2.19255 19.7666 3.36627 19.7666 4.50899C19.7666 5.12668 19.8901 5.74461 20.1372 6.30052L21.2185 5.83681L20.1063 6.26961C20.3225 6.79464 20.6315 7.28867 21.0639 7.69017L21.2185 7.81383C21.5891 8.18444 22.1448 8.27658 22.6081 8.06039C22.8861 7.90597 23.1641 7.84474 23.442 7.84474H23.5039C24.0289 7.84474 24.5848 8.06078 24.9862 8.46228L27.3335 10.8095C29.3101 12.7861 30.6069 15.1332 31.2864 17.6657C31.6261 18.9629 31.8116 20.3219 31.8116 21.6809C31.8116 22.3294 32.3366 22.8541 33.0161 22.8541C33.6956 22.8541 34.2206 22.3294 34.2206 21.6809H34.2515Z" fill="white"/>
<path fill-rule="evenodd" clip-rule="evenodd" d="M43.5322 36.7256C43.6241 36.6025 43.72 36.4702 43.8199 36.3259C46.3216 32.6198 47.5568 28.296 47.5568 24.034V9.39483C47.5568 6.92408 45.6421 4.7312 43.0478 4.66943H42.8318C41.6891 4.76209 40.6388 5.22514 39.8666 5.99725C39.1563 6.6767 38.6933 7.57262 38.6007 8.5918L38.5388 9.08568V10.8463L38.2545 11.0653C38.6149 11.8278 38.929 12.6066 39.1948 13.3429L40.917 12.0195V8.86526L40.9475 8.86928C41.0093 8.40602 41.1948 8.00488 41.5345 7.69604C41.9051 7.32543 42.3682 7.10939 42.9242 7.0785H43.0169C43.5728 7.0785 44.0669 7.32549 44.4993 7.75787C44.9008 8.19025 45.1481 8.77714 45.1481 9.39483V24.034C45.1481 27.8636 44.036 31.6927 41.8124 34.9973C41.7105 35.1807 41.5683 35.3642 41.4124 35.5654C41.332 35.6691 41.248 35.7775 41.1639 35.8931L40.7006 36.5106L41.064 37.1775L41.0403 37.1907L44.623 43.6451L27.7911 50.4086L26.9572 48.3086C25.9998 45.8997 23.9303 44.0156 21.336 43.5214C17.599 42.7802 14.0476 40.958 11.1444 38.0857L3.26879 30.1799C2.83641 29.7784 2.65126 29.2226 2.65126 28.6975C2.65126 28.1725 2.8673 27.6159 3.26879 27.2144C3.57763 26.8747 3.97909 26.6895 4.38058 26.6278L4.75118 26.5659C5.27621 26.5659 5.80119 26.782 6.23357 27.2144L8.27204 29.2223L8.33387 29.2842C10.5884 31.5387 13.5843 32.681 16.5801 32.681C19.4215 32.681 22.2625 31.6316 24.3627 29.5006C26.4937 27.3387 27.5747 24.5281 27.5747 21.7176V21.6867V20.4818H27.5109C27.2502 18.0308 26.1904 15.6698 24.3317 13.8111L21.9849 11.4638C21.5834 11.0623 21.367 10.5065 21.367 9.98145C21.367 9.42553 21.5834 8.86964 21.9849 8.46815L22.5406 8.06626H22.6024C22.8804 7.91184 23.1584 7.85061 23.4363 7.85061H23.4982C24.0232 7.85061 24.5791 8.06665 24.9806 8.46815L27.3278 10.8154C29.2117 12.6993 30.5089 14.9844 31.2193 17.3934L31.7131 19.0922L33.7954 17.4921C33.57 16.6154 33.2747 15.7608 33.0172 15.0991L33.0076 15.1066C32.1468 12.9289 30.8455 10.874 29.088 9.1166L26.7408 6.76936C25.876 5.9046 24.7023 5.47246 23.5596 5.47246H23.4982C22.8496 5.47246 22.201 5.62655 21.5834 5.90451L21.5882 5.91443C21.1049 6.10073 20.6811 6.40528 20.317 6.76936C19.4214 7.665 18.9888 8.80784 18.9888 9.98145C18.9888 11.1242 19.4214 12.267 20.317 13.1626L22.6642 15.5099C24.3629 17.1776 25.2275 19.4321 25.2275 21.6558V21.6867C25.2275 23.9104 24.3938 26.134 22.7261 27.8018C21.0892 29.4695 18.8961 30.2727 16.6416 30.2727C14.2635 30.2727 11.8545 29.3458 10.0941 27.5854H10.0327L7.99418 25.5164C7.12942 24.6516 5.98661 24.1878 4.81301 24.1878L3.98451 24.2799L3.97907 24.2496C3.08343 24.404 2.24946 24.8369 1.57 25.5164C0.674357 26.3811 0.242188 27.5548 0.242188 28.6975C0.242188 29.8403 0.674357 31.0132 1.57 31.878L9.44566 39.7536C12.6885 42.9965 16.6724 45.0348 20.8727 45.8686C22.6022 46.2084 24.0538 47.4748 24.7332 49.1735L26.432 53.5279L48.0202 44.85L43.5322 36.7256Z" fill="white"/>
</svg>
