<svg width="64" height="53" viewBox="0 0 64 53" fill="none" xmlns="http://www.w3.org/2000/svg">
<path d="M26.8492 7.80918C27.7567 3.33318 25.9142 2.60103 25.4465 2L10.0175 17.1167C9.22149 17.8966 9.21647 19.1767 10.0064 19.9629L40.7018 50.5125C41.4514 51.2585 42.466 51.6773 43.5235 51.6773H57.2962C60.8217 50.5556 61.9702 48.0049 62.1037 46.8698C62.8582 38.2686 56.3305 36.334 52.3883 36.4162C51.9667 36.425 51.5695 36.1984 51.3926 35.8156L41.8722 15.2206C31.6563 18.2252 26.0532 11.7354 26.8492 7.80918Z" stroke="white" stroke-width="2" stroke-linecap="round"/>
<path d="M12.4131 14.844L42.3688 45.2319C43.3085 46.1851 44.5911 46.7218 45.9296 46.7218H62.2957" stroke="white" stroke-width="2" stroke-linecap="round"/>
<path d="M18.2549 9.3623L23.2888 15.2577C24.1674 16.2866 24.2485 17.7763 23.4869 18.8946L20.7434 22.9225" stroke="white" stroke-width="2" stroke-linecap="round"/>
<path d="M44.2664 20.2661L40.833 21.725" stroke="white" stroke-width="2" stroke-linecap="round"/>
<path d="M46.6687 25.4683L43.2354 26.9272" stroke="white" stroke-width="2" stroke-linecap="round"/>
<path d="M49.0745 30.6785L45.6411 32.1374" stroke="white" stroke-width="2" stroke-linecap="round"/>
<path d="M46.3091 51.7998H11.6758" stroke="white" stroke-width="2" stroke-linecap="round"/>
<path d="M12.6725 5.10083H3.87305" stroke="white" stroke-width="2" stroke-linecap="round"/>
<path d="M10.5968 26.1968H1.79736" stroke="white" stroke-width="2" stroke-linecap="round"/>
<path d="M22.6566 40.481H8.97754" stroke="white" stroke-width="2" stroke-linecap="round"/>
</svg>
