<svg width="61" height="61" viewBox="0 0 61 61" fill="none" xmlns="http://www.w3.org/2000/svg">
<path d="M58.7781 30.0653C58.7781 45.7802 46.0338 58.5199 30.3126 58.5199C14.5913 58.5199 1.847 45.7802 1.847 30.0653C1.847 14.3504 14.5913 1.61055 30.3126 1.61055C46.0338 1.61055 58.7781 14.3504 58.7781 30.0653Z" fill="white" stroke="#3F3A64" stroke-width="1.1"/>
<path d="M50.4875 50.1682C55.5122 45.1453 58.6654 38.2492 58.8102 30.6167H59.3278H59.8351C59.5413 46.6525 46.4242 59.5833 30.3123 59.5833C14.0166 59.5833 0.784375 46.3558 0.784375 30.0667C0.784375 13.7775 14.0166 0.55 30.3123 0.55C46.4242 0.55 59.5413 13.4808 59.8351 29.5167H59.3278H58.8102C58.6654 21.8841 55.5122 14.988 50.4875 9.9651C45.3423 4.82186 38.2324 1.64028 30.3787 1.64028C22.525 1.64028 15.415 4.82186 10.2699 9.9651C5.12471 15.1083 1.94187 22.2157 1.94187 30.0667C1.94187 37.9176 5.12471 45.0249 10.2699 50.1682C15.415 55.3114 22.525 58.493 30.3787 58.493C38.2324 58.493 45.3423 55.3114 50.4875 50.1682Z" stroke="#3F3A64" stroke-width="1.1"/>
<path d="M49.3465 31.5142L50.4669 30.6229H49.0352H22.0116C21.69 30.6229 21.4492 30.382 21.4492 30.061C21.4492 29.74 21.69 29.499 22.0116 29.499H52.0231C52.2868 29.499 52.4727 29.6372 52.5383 29.8666L52.5413 29.877L52.5447 29.8873C52.6061 30.0712 52.5579 30.3343 52.3508 30.5526L37.4415 42.4887C37.2805 42.5368 37.1171 42.57 37.0173 42.57C36.8446 42.57 36.7279 42.5126 36.6241 42.3764C36.4311 42.1012 36.4998 41.7442 36.67 41.5985L49.3465 31.5142Z" fill="#3F3A64" stroke="#3F3A64"/>
<path d="M36.7316 18.588L36.7209 18.5795L36.7098 18.5715C36.5058 18.4259 36.4409 18.1063 36.6661 17.8437L36.6804 17.8269L36.6933 17.809C36.8391 17.605 37.1591 17.54 37.4219 17.7652L37.4283 17.7707L37.435 17.776L52.3743 29.723L52.385 29.7315L52.396 29.7394C52.5963 29.8824 52.6625 30.193 52.452 30.4527C52.3388 30.5602 52.2008 30.6246 52.0226 30.6246C51.9159 30.6246 51.759 30.5853 51.6509 30.519L36.7316 18.588Z" fill="#3F3A64" stroke="#3F3A64"/>
<path d="M8.14521 30.2413C8.08388 30.0574 8.13204 29.7942 8.33916 29.576L23.2484 17.6399C23.4095 17.5917 23.5728 17.5586 23.6726 17.5586C23.8453 17.5586 23.962 17.616 24.0659 17.7522C24.2588 18.0274 24.1901 18.3844 24.0199 18.53L11.3434 28.6143L10.223 29.5056H11.6547H38.6783C38.9999 29.5056 39.2407 29.7466 39.2407 30.0676C39.2407 30.3886 39 30.6295 38.6783 30.6295H8.66684C8.40308 30.6295 8.21719 30.4914 8.15163 30.262L8.14864 30.2516L8.14521 30.2413Z" fill="#3F3A64" stroke="#3F3A64"/>
<path d="M23.9568 41.6089L23.9675 41.6174L23.9785 41.6253C24.1826 41.771 24.2474 42.0906 24.0223 42.3531L24.0079 42.3699L23.9951 42.3879C23.8493 42.5919 23.5293 42.6568 23.2665 42.4316L23.26 42.4261L23.2534 42.4208L8.31407 30.4738L8.30343 30.4653L8.29234 30.4574C8.09208 30.3144 8.0259 30.0039 8.23642 29.7442C8.34956 29.6366 8.48759 29.5723 8.66577 29.5723C8.77248 29.5723 8.92934 29.6115 9.03748 29.6779L23.9568 41.6089Z" fill="#3F3A64" stroke="#3F3A64"/>
</svg>
