<svg width="277" height="389" viewBox="0 0 277 389" fill="none" xmlns="http://www.w3.org/2000/svg">
<path d="M248.031 386.906L29.4478 386.906C14.4732 386.906 2.26425 374.701 2.26425 359.733L2.26427 229.557C16.5845 223.841 26.1008 209.886 26.1008 194.344C26.1008 178.803 16.5845 164.848 2.26427 159.131L2.26428 28.6737C2.26428 13.7061 14.4732 1.50089 29.4478 1.50089L248.031 1.50091C263.006 1.50091 275.215 13.7061 275.215 28.6738L275.215 160.062C261.971 166.326 253.503 179.609 253.503 194.344C253.503 209.08 261.971 222.363 275.215 228.626L275.215 359.733C275.215 374.701 263.006 386.906 248.031 386.906Z" fill="white" stroke="#F68B1F" stroke-width="3"/>
</svg>
