<svg width="411" height="493" viewBox="0 0 411 493" fill="none" xmlns="http://www.w3.org/2000/svg">
<mask id="mask0_5332_59209" style="mask-type:luminance" maskUnits="userSpaceOnUse" x="0" y="0" width="411" height="493">
<path d="M410.543 0H0V492.238H410.543V0Z" fill="white"/>
</mask>
<g mask="url(#mask0_5332_59209)">
<mask id="mask1_5332_59209" style="mask-type:luminance" maskUnits="userSpaceOnUse" x="0" y="0" width="411" height="493">
<path d="M410.543 0H0V492.238H410.543V0Z" fill="white"/>
</mask>
<g mask="url(#mask1_5332_59209)">
<path d="M273.982 445.958C273.982 445.958 325.832 416.269 326.364 308.851C326.893 201.434 280.96 57.2124 248.495 24.0345C209.953 -15.3525 127.682 -3.83214 70.6536 40.4071C-15.5193 107.259 -21.4155 254.064 45.033 342.575C78.4075 387.03 88.8451 378.04 105.389 418.375C121.93 458.709 209.764 487.611 273.982 445.958Z" fill="#F15C57"/>
</g>
<mask id="mask2_5332_59209" style="mask-type:luminance" maskUnits="userSpaceOnUse" x="37" y="74" width="317" height="395">
<path d="M353.167 74.8232H37.5742V468.902H353.167V74.8232Z" fill="white"/>
</mask>
<g mask="url(#mask2_5332_59209)">
<path d="M331.431 464.048C321.326 468.003 311.545 468.905 303.036 468.373C302.871 468.36 302.707 468.348 302.544 468.34C287.48 467.304 273.575 459.137 264.335 446.077L223.943 388.977C223.943 388.977 210.507 390.529 190.704 387.433C179.268 385.644 166.407 378.944 157.591 373.612C153.792 371.307 150.739 369.263 148.882 367.972C147.59 367.068 146.864 366.536 146.864 366.536L154.763 358.947L154.986 358.736L161.489 352.493L164.339 349.759L221.824 294.558L242.246 301.079L250.659 303.756L250.666 303.765L261.265 307.144L261.453 307.203L280.047 313.134C280.047 313.134 301.024 347.191 322.944 369.631C327.825 374.625 331.864 378.775 335.195 382.21C347.008 394.396 353.167 411.872 351.527 429.548C350.202 443.829 345.267 458.642 331.433 464.044" fill="#F9B08C"/>
<g opacity="0.6">
<mask id="mask3_5332_59209" style="mask-type:luminance" maskUnits="userSpaceOnUse" x="223" y="388" width="81" height="81">
<path d="M303.038 388.944H223.945V468.372H303.038V388.944Z" fill="white"/>
</mask>
<g mask="url(#mask3_5332_59209)">
<mask id="mask4_5332_59209" style="mask-type:luminance" maskUnits="userSpaceOnUse" x="223" y="388" width="81" height="81">
<path d="M303.038 388.944H223.945V468.372H303.038V388.944Z" fill="white"/>
</mask>
<g mask="url(#mask4_5332_59209)">
<path d="M303.04 468.372C302.873 468.36 302.71 468.351 302.546 468.339C287.48 467.299 273.578 459.14 264.337 446.076L223.945 388.976C223.945 388.976 235.97 388.202 245.869 394.391C254.326 399.68 292.153 452.909 303.04 468.372Z" fill="#BD623C"/>
</g>
</g>
</g>
<g opacity="0.6">
<mask id="mask5_5332_59209" style="mask-type:luminance" maskUnits="userSpaceOnUse" x="146" y="226" width="125" height="162">
<path d="M270.148 226.478H146.872V387.434H270.148V226.478Z" fill="white"/>
</mask>
<g mask="url(#mask5_5332_59209)">
<mask id="mask6_5332_59209" style="mask-type:luminance" maskUnits="userSpaceOnUse" x="146" y="226" width="125" height="162">
<path d="M270.144 226.478H146.872V387.434H270.144V226.478Z" fill="white"/>
</mask>
<g mask="url(#mask6_5332_59209)">
<path d="M270.146 356.472L208.863 369.885C208.863 369.885 198.963 371.957 190.71 387.436C170.913 384.338 146.872 366.538 146.872 366.538L221.83 294.56L235.272 226.479C235.736 227.263 250.396 252.431 253.18 263.606C254.44 268.671 257.957 287.689 261.455 307.207C261.733 308.751 262.01 310.295 262.285 311.836C266.338 334.54 270.146 356.472 270.146 356.472Z" fill="#D97243"/>
</g>
</g>
</g>
<path d="M252.006 351.31L127.279 380.774C123.036 381.777 118.855 378.826 117.94 374.185L66.9215 115.511C66.0065 110.867 68.7031 106.291 72.9457 105.288L197.673 75.825C201.914 74.8237 206.097 77.7749 207.01 82.4179L258.027 341.092C258.943 345.733 256.249 350.307 252.006 351.31Z" fill="#5B556B"/>
<path d="M242.422 345.879L133.964 371.497C129.393 372.576 124.887 369.399 123.899 364.396L78.8512 135.988C77.8657 130.985 80.7702 126.051 85.3413 124.973L193.802 99.3527C198.373 98.2742 202.881 101.453 203.866 106.455L248.912 334.864C249.9 339.867 246.993 344.798 242.422 345.877" fill="#F3F3F3"/>
<path d="M119.267 107.717C119.709 109.961 118.406 112.171 116.357 112.659C114.305 113.142 112.285 111.716 111.842 109.472C111.4 107.23 112.703 105.018 114.754 104.532C116.805 104.047 118.824 105.475 119.267 107.717Z" fill="#363147"/>
<path d="M163.306 94.61L124.832 103.698L125.852 108.87L164.326 99.7819L163.306 94.61Z" fill="#363147"/>
<path d="M242.514 345.662L134.051 371.276C129.48 372.355 124.976 369.178 123.989 364.175L78.9517 135.763C77.9662 130.76 80.8726 125.829 85.4436 124.75L193.904 99.1359C198.475 98.0574 202.981 101.236 203.967 106.239L249.006 334.649C249.991 339.652 247.085 344.584 242.514 345.662Z" fill="#F3F3F3"/>
<path opacity="0.5" d="M217.783 177.379L217.635 176.626L217.511 175.998L217.44 175.645L203.964 106.238L207.114 122.215C206.256 120.555 204.516 118.591 201.175 119.343L86.7851 147.112C86.7851 147.112 82.292 148.14 82.3254 152.886L92.5885 206.008L217.783 177.379Z" fill="#D2C6B0"/>
<path d="M150.706 327.065C150.764 327.051 150.799 326.992 150.786 326.929C150.775 326.868 150.717 326.83 150.662 326.84C150.606 326.854 150.571 326.915 150.584 326.978C150.595 327.037 150.651 327.078 150.706 327.065ZM152.007 324.667C151.952 324.681 151.916 324.742 151.927 324.803C151.939 324.864 151.994 324.904 152.05 324.89C152.106 324.876 152.141 324.815 152.13 324.756C152.119 324.693 152.063 324.657 152.007 324.667Z" fill="white"/>
<path d="M166.715 323.306C166.657 323.32 166.599 323.278 166.586 323.215C166.577 323.152 166.611 323.089 166.672 323.074C166.729 323.062 166.787 323.103 166.798 323.166C166.811 323.229 166.772 323.292 166.715 323.306Z" fill="white"/>
<path d="M159.989 288.471C159.933 288.483 159.874 288.445 159.861 288.38C159.848 288.317 159.887 288.252 159.944 288.239C160.002 288.227 160.059 288.268 160.072 288.331C160.084 288.394 160.048 288.459 159.989 288.471Z" fill="white"/>
<path d="M113.162 277.519C112.967 276.912 112.75 275.982 112.507 274.731C112.265 273.479 112.122 272.533 112.076 271.891C112.031 271.249 112.128 270.473 112.367 269.563C112.729 267.945 114.476 266.773 117.608 266.05C120.789 265.314 122.872 265.599 123.852 266.909C124.347 267.589 124.69 268.235 124.887 268.845C125.082 269.452 125.301 270.38 125.542 271.631C125.784 272.884 125.928 273.831 125.975 274.473C126.021 275.114 125.936 275.886 125.721 276.79C125.503 277.69 124.958 278.415 124.074 278.959C123.193 279.506 121.968 279.959 120.403 280.32C118.837 280.682 117.551 280.81 116.543 280.7C115.535 280.592 114.769 280.188 114.244 279.485C113.718 278.781 113.358 278.127 113.162 277.517" fill="#F04C64"/>
<path d="M127.794 274.136C127.599 273.53 127.382 272.6 127.138 271.349C126.895 270.098 126.752 269.151 126.706 268.507C126.661 267.866 126.756 267.09 126.997 266.18C127.361 264.561 129.106 263.391 132.238 262.666C135.421 261.931 137.5 262.215 138.48 263.525C138.975 264.208 139.32 264.851 139.515 265.459C139.71 266.068 139.929 266.998 140.17 268.247C140.412 269.501 140.555 270.447 140.603 271.089C140.649 271.731 140.564 272.505 140.351 273.408C140.133 274.31 139.586 275.033 138.704 275.578C137.825 276.124 136.6 276.575 135.033 276.938C133.469 277.3 132.181 277.428 131.173 277.32C130.165 277.213 129.399 276.806 128.874 276.104C128.348 275.401 127.988 274.747 127.794 274.136Z" fill="#344E5D"/>
<path d="M155.297 267.776C155.251 267.136 155.106 266.188 154.867 264.934C154.625 263.685 154.406 262.755 154.212 262.146C154.019 261.538 153.642 260.872 153.083 260.147C152.155 258.829 150.123 258.53 146.992 259.256C143.811 259.991 142.013 261.173 141.601 262.802C141.4 263.647 141.324 264.388 141.369 265.03C141.415 265.676 141.56 266.622 141.801 267.871C142.042 269.125 142.261 270.055 142.458 270.662C142.653 271.271 143.017 271.938 143.546 272.671C144.077 273.4 144.845 273.818 145.853 273.926C146.86 274.034 148.148 273.908 149.715 273.544C151.279 273.183 152.502 272.73 153.384 272.185C154.265 271.641 154.817 270.93 155.037 270.057C155.258 269.181 155.346 268.424 155.299 267.778" fill="#B15282"/>
<path d="M228.895 250.759C228.851 250.116 228.706 249.171 228.465 247.918C228.223 246.667 228.004 245.737 227.809 245.129C227.615 244.522 227.24 243.856 226.685 243.131C225.755 241.812 223.725 241.516 220.594 242.239C217.411 242.974 215.614 244.156 215.202 245.787C215.002 246.632 214.926 247.372 214.97 248.015C215.017 248.659 215.161 249.606 215.403 250.857C215.644 252.108 215.861 253.04 216.058 253.646C216.253 254.255 216.616 254.923 217.147 255.654C217.678 256.384 218.445 256.802 219.452 256.91C220.46 257.017 221.746 256.891 223.314 256.53C224.881 256.166 226.104 255.715 226.985 255.167C227.867 254.625 228.416 253.914 228.639 253.04C228.86 252.163 228.947 251.405 228.899 250.763" fill="#2B313C"/>
<path d="M213.942 254.218C213.895 253.577 213.752 252.628 213.511 251.377C213.27 250.126 213.051 249.198 212.854 248.588C212.661 247.981 212.284 247.313 211.73 246.59C210.798 245.269 208.769 244.973 205.637 245.696C202.454 246.433 200.659 247.615 200.247 249.244C200.045 250.089 199.969 250.831 200.015 251.472C200.06 252.116 200.206 253.063 200.448 254.314C200.689 255.567 200.904 256.495 201.101 257.103C201.296 257.712 201.659 258.378 202.19 259.107C202.721 259.84 203.489 260.257 204.497 260.364C205.503 260.472 206.789 260.346 208.355 259.983C209.922 259.621 211.145 259.168 212.026 258.622C212.906 258.08 213.459 257.367 213.68 256.493C213.903 255.618 213.988 254.86 213.942 254.216" fill="#EBB50E"/>
<path d="M186.44 260.576C186.245 259.969 186.024 259.038 185.783 257.787C185.541 256.534 185.399 255.588 185.352 254.946C185.306 254.304 185.402 253.528 185.643 252.618C186.005 250.999 187.752 249.827 190.885 249.104C194.066 248.367 196.146 248.653 197.126 249.963C197.621 250.644 197.967 251.29 198.161 251.899C198.356 252.506 198.575 253.437 198.817 254.688C199.058 255.941 199.203 256.887 199.247 257.529C199.294 258.171 199.208 258.941 198.993 259.847C198.778 260.749 198.23 261.472 197.349 262.016C196.469 262.562 195.242 263.015 193.678 263.377C192.111 263.738 190.823 263.866 189.817 263.757C188.811 263.649 188.043 263.245 187.518 262.542C186.993 261.839 186.635 261.185 186.44 260.576Z" fill="#0FAB85"/>
<path d="M171.807 263.96C171.61 263.352 171.391 262.422 171.15 261.171C170.909 259.92 170.764 258.973 170.718 258.329C170.673 257.69 170.768 256.912 171.009 256.002C171.371 254.385 173.119 253.213 176.252 252.49C179.433 251.753 181.513 252.039 182.491 253.349C182.987 254.032 183.332 254.673 183.529 255.283C183.724 255.892 183.943 256.822 184.184 258.074C184.425 259.327 184.568 260.273 184.615 260.915C184.659 261.557 184.576 262.329 184.36 263.233C184.145 264.134 183.596 264.857 182.714 265.402C181.833 265.948 180.61 266.401 179.043 266.765C177.477 267.126 176.193 267.254 175.183 267.146C174.175 267.039 173.409 266.633 172.884 265.932C172.358 265.229 171.996 264.573 171.803 263.964" fill="#066F9A"/>
<path d="M170.252 264.319C170.204 263.677 170.063 262.731 169.82 261.479C169.576 260.228 169.359 259.3 169.164 258.691C168.97 258.083 168.593 257.417 168.038 256.692C167.108 255.372 165.08 255.075 161.947 255.798C158.764 256.534 156.968 257.716 156.556 259.347C156.355 260.19 156.277 260.933 156.325 261.575C156.37 262.217 156.515 263.165 156.756 264.416C156.997 265.67 157.216 266.6 157.413 267.207C157.608 267.816 157.972 268.483 158.502 269.214C159.033 269.943 159.801 270.361 160.809 270.469C161.815 270.579 163.103 270.451 164.669 270.089C166.236 269.726 167.457 269.275 168.339 268.73C169.22 268.184 169.773 267.475 169.992 266.6C170.213 265.726 170.3 264.967 170.256 264.323" fill="#F89922"/>
<path d="M114.52 284.68C114.52 284.68 113.07 285.017 113.376 286.604L114.314 291.47C114.314 291.47 114.622 293.054 116.071 292.719L129.1 289.709C129.1 289.709 130.549 289.374 130.245 287.786L129.304 282.921C129.304 282.921 128.998 281.333 127.546 281.67L114.52 284.68Z" fill="#D2C6B0"/>
<path d="M116.387 294.35C116.387 294.35 114.937 294.686 115.244 296.272L116.183 301.138C116.183 301.138 116.489 302.725 117.938 302.389L152.345 294.434C152.345 294.434 153.794 294.099 153.49 292.512L152.551 287.646C152.551 287.646 152.245 286.059 150.795 286.397L116.387 294.35Z" fill="#D2C6B0"/>
<path d="M118.224 303.862C118.224 303.862 116.774 304.2 117.081 305.784L118.018 310.652C118.018 310.652 118.324 312.239 119.775 311.901L159.811 302.644C159.811 302.644 161.26 302.309 160.954 300.722L160.013 295.856C160.013 295.856 159.707 294.27 158.259 294.603L118.224 303.86V303.862Z" fill="#D2C6B0"/>
<path d="M123.649 328.577C123.649 328.577 122.2 328.912 122.508 330.498L123.447 335.363C123.447 335.363 123.753 336.949 125.203 336.614L173.02 325.561C173.02 325.561 174.469 325.224 174.165 323.637L173.224 318.771C173.224 318.771 172.918 317.184 171.468 317.522L123.649 328.577Z" fill="#D2C6B0"/>
<path d="M120.025 313.193C120.025 313.193 118.575 313.528 118.881 315.115L119.819 319.981C119.819 319.981 120.127 321.569 121.576 321.23L153.447 313.863C153.447 313.863 154.897 313.526 154.591 311.94L153.652 307.075C153.652 307.075 153.345 305.487 151.896 305.824L120.025 313.193Z" fill="#D2C6B0"/>
<path d="M100.504 212.079C100.504 212.079 99.0546 212.416 99.3608 214.003L100.3 218.869C100.3 218.869 100.606 220.455 102.056 220.12L185.023 200.937C185.023 200.937 186.473 200.603 186.167 199.017L185.228 194.151C185.228 194.151 184.921 192.562 183.474 192.9L100.504 212.083V212.079Z" fill="#D2C6B0"/>
<path d="M102.487 222.346C102.487 222.346 101.037 222.683 101.343 224.267L102.282 229.134C102.282 229.134 102.59 230.72 104.038 230.385L108.281 229.404C108.281 229.404 109.73 229.069 109.424 227.483L108.485 222.614C108.485 222.614 108.179 221.028 106.729 221.363L102.487 222.346Z" fill="#D2C6B0"/>
<path d="M106.553 243.401C106.553 243.401 105.103 243.738 105.41 245.324L106.349 250.188C106.349 250.188 106.657 251.777 108.104 251.44L112.347 250.459C112.347 250.459 113.796 250.126 113.49 248.539L112.551 243.671C112.551 243.671 112.243 242.084 110.794 242.42L106.553 243.401Z" fill="#D2C6B0"/>
<path d="M109.311 257.696C109.311 257.696 107.861 258.031 108.167 259.617L109.107 264.484C109.107 264.484 109.415 266.07 110.862 265.735L142.735 258.364C142.735 258.364 144.185 258.029 143.879 256.444L142.94 251.578C142.94 251.578 142.633 249.992 141.184 250.327L109.311 257.696Z" fill="#D2C6B0"/>
<path d="M116.864 241.018C116.864 241.018 115.415 241.353 115.723 242.937L116.66 247.806C116.66 247.806 116.968 249.392 118.417 249.057L138.888 244.322C138.888 244.322 140.337 243.987 140.033 242.403L139.094 237.536C139.094 237.536 138.788 235.95 137.338 236.287L116.866 241.02L116.864 241.018Z" fill="#D2C6B0"/>
<path d="M114.824 230.442C114.824 230.442 113.373 230.78 113.681 232.364L114.618 237.23C114.618 237.23 114.926 238.817 116.374 238.481L128.242 235.737C128.242 235.737 129.691 235.402 129.387 233.816L128.446 228.95C128.446 228.95 128.142 227.363 126.69 227.696L114.824 230.442Z" fill="#D2C6B0"/>
<path d="M153.202 210.619C153.202 210.619 151.75 210.954 152.059 212.543L152.998 217.409C152.998 217.409 153.306 218.998 154.753 218.66L175.226 213.928C175.226 213.928 176.675 213.591 176.369 212.006L175.43 207.14C175.43 207.14 175.122 205.554 173.674 205.887L153.202 210.619Z" fill="#D2C6B0"/>
<path d="M157.267 231.676C157.267 231.676 155.817 232.013 156.124 233.597L157.063 238.463C157.063 238.463 157.367 240.05 158.818 239.715L179.291 234.98C179.291 234.98 180.74 234.643 180.434 233.059L179.495 228.192C179.495 228.192 179.189 226.606 177.739 226.941L157.267 231.676Z" fill="#D2C6B0"/>
<path d="M155.225 221.101C155.225 221.101 153.775 221.436 154.082 223.023L155.021 227.889C155.021 227.889 155.327 229.476 156.776 229.14L197.723 219.673C197.723 219.673 199.174 219.336 198.868 217.752L197.929 212.886C197.929 212.886 197.623 211.299 196.173 211.634L155.225 221.101Z" fill="#D2C6B0"/>
<path d="M104.511 232.827C104.511 232.827 103.059 233.164 103.366 234.748L104.305 239.615C104.305 239.615 104.611 241.201 106.06 240.866L110.301 239.885C110.301 239.885 111.752 239.55 111.446 237.963L110.505 233.097C110.505 233.097 110.199 231.511 108.751 231.848L104.511 232.827Z" fill="#D2C6B0"/>
<path d="M245.945 319.079L120.843 348.621L124.016 364.728C124.952 369.46 129.215 372.47 133.541 371.449L242.976 345.607C247.302 344.584 250.05 339.918 249.119 335.182L245.943 319.079H245.945Z" fill="#D2C6B0"/>
<path d="M179.525 347.543C178.873 344.025 180.952 340.59 184.168 339.88C187.381 339.165 190.521 341.437 191.167 344.959C191.818 348.479 189.741 351.908 186.525 352.623C183.313 353.329 180.176 351.057 179.525 347.543Z" fill="white"/>
<path d="M136.055 358.557C135.406 355.038 137.483 351.605 140.701 350.892C143.911 350.177 147.052 352.452 147.699 355.972C148.353 359.492 146.274 362.922 143.056 363.637C139.843 364.342 136.707 362.067 136.055 358.557Z" fill="white"/>
<path d="M157.016 353.86C156.364 350.342 158.443 346.907 161.659 346.194C164.87 345.481 168.008 347.756 168.656 351.274C169.309 354.794 167.233 358.224 164.014 358.939C160.802 359.646 157.665 357.373 157.014 353.86" fill="white"/>
<path d="M200.647 342.89C199.995 339.37 202.074 335.937 205.292 335.224C208.503 334.509 211.641 336.784 212.289 340.304C212.942 343.822 210.865 347.256 207.649 347.967C204.437 348.672 201.3 346.399 200.647 342.887" fill="white"/>
<path d="M221.605 338.194C220.956 334.674 223.032 331.243 226.251 330.528C229.461 329.815 232.6 332.09 233.249 335.608C233.901 339.128 231.824 342.558 228.608 343.273C225.393 343.98 222.257 341.707 221.605 338.194Z" fill="white"/>
<path d="M107.269 264.382C107.269 264.382 106.014 263.941 103.939 263.184C101.813 262.414 98.819 261.311 95.4227 260.011C83.5172 255.449 66.6489 248.495 64.8413 245.032C62.0129 239.615 58.4366 226.464 61.9665 218.721C62.527 217.502 63.4902 216.416 64.7225 215.453C67.9685 212.904 73.0592 211.214 77.3742 210.16C81.0989 209.248 84.241 208.803 85.1077 208.689C85.1374 208.689 85.1596 208.681 85.1745 208.681C85.2264 208.681 85.2636 208.673 85.2933 208.673C85.3304 208.665 85.3452 208.665 85.3452 208.665L86.1228 212.847L87.8247 222.078C87.8247 222.078 87.8692 222.103 87.9509 222.143C88.6895 222.519 92.6537 224.587 96.9539 227.77C101.059 230.828 105.469 234.913 107.657 239.534C112.374 249.508 107.269 264.384 107.269 264.384" fill="#F9B08C"/>
<path d="M82.5187 197.821C82.5187 197.821 78.6585 195.437 73.5919 192.268C65.4538 187.18 54.1903 180.106 50.6976 177.703C37.5745 168.677 44.0998 151.39 54.9364 153.708C58.1694 154.394 62.2895 155.335 65.9623 156.194C71.001 157.351 75.2121 158.357 75.2121 158.357L82.5187 197.821Z" fill="#F9B08C"/>
<path d="M123.064 323.454L119.302 321.681L115.084 319.699L106.381 315.604L106.186 315.512L101.97 313.528L100.634 312.896L79.2185 302.816C70.1858 297.948 70.7389 277.328 75.657 270.859C76.2991 270.01 77.0155 269.407 77.7987 269.114C83.7932 266.825 96.662 266.701 96.662 266.701L98.5439 277.531C98.5439 277.531 98.6701 277.606 98.9169 277.744C100.066 278.39 103.724 280.496 107.918 283.358C113.599 287.221 120.28 292.466 123.064 297.31C129.975 309.35 123.064 323.454 123.064 323.454Z" fill="#F9B08C"/>
<path d="M163.289 357.166L133.745 363.351L96.6623 347.535C96.6623 347.535 93.2066 332.401 93.8339 323.456C94.4594 314.511 105.149 310.384 105.149 310.384L107.029 319.67L129.662 331.71C129.662 331.71 150.092 329.988 158.892 334.808C159.534 335.161 160.11 335.577 160.616 336.057C167.073 342.095 163.289 357.166 163.289 357.166Z" fill="#F9B08C"/>
<g opacity="0.6">
<mask id="mask7_5332_59209" style="mask-type:luminance" maskUnits="userSpaceOnUse" x="93" y="310" width="68" height="28">
<path d="M160.617 310.382H93.834V337.905H160.617V310.382Z" fill="white"/>
</mask>
<g mask="url(#mask7_5332_59209)">
<mask id="mask8_5332_59209" style="mask-type:luminance" maskUnits="userSpaceOnUse" x="93" y="310" width="68" height="28">
<path d="M160.617 310.382H93.834V337.901H160.617V310.382Z" fill="white"/>
</mask>
<g mask="url(#mask8_5332_59209)">
<path d="M160.617 336.057L160.303 336.351C160.303 336.351 140.031 335.324 130.132 337.907C130.132 337.907 97.6033 328.617 93.834 323.456C94.4613 314.511 105.149 310.384 105.149 310.384L107.029 319.67L129.662 331.714C129.662 331.714 150.092 329.988 158.892 334.808C159.535 335.161 160.11 335.573 160.617 336.057Z" fill="#D97243"/>
</g>
</g>
</g>
<path d="M83.1475 255.008C83.1475 255.008 80.9464 243.313 84.404 233.682C84.404 233.682 99.8042 239.872 102.948 244.345C102.948 244.345 101.69 257.072 102.319 262.578L83.1475 255.008Z" fill="#F9C4B7"/>
<path d="M145.062 361.291V343.058C145.062 343.058 158.263 340.994 160.463 342.371C162.662 343.748 161.09 357.16 161.09 357.16L145.062 361.291Z" fill="#F9C4B7"/>
<path d="M102.004 313.823C102.004 313.823 100.119 299.725 104.519 292.842C104.519 292.842 117.091 298.693 119.919 302.128C122.747 305.571 119.29 321.736 119.29 321.736L102.004 313.823Z" fill="#F9C4B7"/>
<path d="M280.047 313.136L262.283 311.838L252.111 311.033L235.278 226.495L235.27 226.477C235.263 226.469 235.263 226.461 235.263 226.461C235.263 226.461 222.531 206.855 213.571 178.99C202.987 146.052 223.949 131.527 223.949 131.527L239.503 168.158C239.503 168.158 271.64 224.909 275.885 236.779C280.123 248.638 280.049 313.134 280.049 313.134" fill="#F9B08C"/>
<g opacity="0.6">
<mask id="mask9_5332_59209" style="mask-type:luminance" maskUnits="userSpaceOnUse" x="235" y="226" width="28" height="86">
<path d="M262.282 226.496H235.277V311.839H262.282V226.496Z" fill="white"/>
</mask>
<g mask="url(#mask9_5332_59209)">
<mask id="mask10_5332_59209" style="mask-type:luminance" maskUnits="userSpaceOnUse" x="235" y="226" width="28" height="86">
<path d="M262.284 226.494H235.277V311.835H262.284V226.494Z" fill="white"/>
</mask>
<g mask="url(#mask10_5332_59209)">
<path d="M262.283 311.839L252.109 311.036L235.279 226.494C235.645 227.532 259.165 294.166 262.284 311.839" fill="#D97243"/>
</g>
</g>
</g>
<path d="M225.128 134.881C225.128 134.881 219.705 141.072 217.114 148.81L225.599 172.545C225.599 172.545 236.442 170.478 238.797 166.351L225.128 134.881Z" fill="#F9C4B7"/>
<g opacity="0.6">
<mask id="mask11_5332_59209" style="mask-type:luminance" maskUnits="userSpaceOnUse" x="75" y="266" width="24" height="12">
<path d="M98.5442 266.703H75.6592V277.537H98.5442V266.703Z" fill="white"/>
</mask>
<g mask="url(#mask11_5332_59209)">
<mask id="mask12_5332_59209" style="mask-type:luminance" maskUnits="userSpaceOnUse" x="75" y="266" width="24" height="12">
<path d="M98.5442 266.703H75.6592V277.537H98.5442V266.703Z" fill="white"/>
</mask>
<g mask="url(#mask12_5332_59209)">
<path d="M98.5442 277.535C91.0872 273.215 77.5021 271.121 75.6592 270.859C76.2995 270.01 77.0158 269.407 77.8009 269.114C83.7936 266.825 96.6623 266.701 96.6623 266.701L98.5442 277.535Z" fill="#D97243"/>
</g>
</g>
</g>
<g opacity="0.6">
<mask id="mask13_5332_59209" style="mask-type:luminance" maskUnits="userSpaceOnUse" x="65" y="156" width="18" height="42">
<path d="M82.5184 156.191H65.9619V197.821H82.5184V156.191Z" fill="white"/>
</mask>
<g mask="url(#mask13_5332_59209)">
<mask id="mask14_5332_59209" style="mask-type:luminance" maskUnits="userSpaceOnUse" x="65" y="156" width="18" height="42">
<path d="M82.5164 156.191H65.96V197.821H82.5164V156.191Z" fill="white"/>
</mask>
<g mask="url(#mask14_5332_59209)">
<path d="M82.5184 197.821C82.5184 197.821 78.6581 195.436 73.5915 192.268L65.9619 156.193C71.0007 157.351 75.2117 158.356 75.2117 158.356L82.5184 197.821Z" fill="#D97243"/>
</g>
</g>
</g>
<g opacity="0.6">
<mask id="mask15_5332_59209" style="mask-type:luminance" maskUnits="userSpaceOnUse" x="64" y="208" width="24" height="15">
<path d="M87.8248 208.679H64.7227V222.076H87.8248V208.679Z" fill="white"/>
</mask>
<g mask="url(#mask15_5332_59209)">
<mask id="mask16_5332_59209" style="mask-type:luminance" maskUnits="userSpaceOnUse" x="64" y="208" width="24" height="15">
<path d="M87.8268 208.677H64.7246V222.076H87.8268V208.677Z" fill="white"/>
</mask>
<g mask="url(#mask16_5332_59209)">
<path d="M87.8248 222.074C87.8248 222.074 74.815 216.306 64.7598 215.448H64.7227C67.9705 212.899 73.0593 211.21 77.3743 210.155C81.0991 209.241 84.2411 208.799 85.1078 208.685C85.1375 208.685 85.1598 208.677 85.1746 208.677L87.8248 222.074Z" fill="#D97243"/>
</g>
</g>
</g>
<path d="M86.7892 147.114L201.179 119.345C204.518 118.594 206.261 120.558 207.118 122.217L203.969 106.241C202.983 101.238 198.477 98.0594 193.906 99.1379L85.4456 124.752C80.8745 125.831 77.9682 130.762 78.9537 135.765L82.3295 152.889C82.298 148.144 86.7892 147.114 86.7892 147.114Z" fill="#D2C6B0"/>
</g>
</g>
</svg>
