<svg width="380" height="493" viewBox="0 0 380 493" fill="none" xmlns="http://www.w3.org/2000/svg">
<g clip-path="url(#clip0_7448_269)">
<mask id="mask0_7448_269" style="mask-type:luminance" maskUnits="userSpaceOnUse" x="16" y="18" width="411" height="493">
<path d="M426.543 18H16V510.238H426.543V18Z" fill="white"/>
</mask>
<g mask="url(#mask0_7448_269)">
<mask id="mask1_7448_269" style="mask-type:luminance" maskUnits="userSpaceOnUse" x="16" y="18" width="411" height="493">
<path d="M426.543 18H16V510.238H426.543V18Z" fill="white"/>
</mask>
<g mask="url(#mask1_7448_269)">
<path d="M289.982 463.958C289.982 463.958 341.832 434.269 342.364 326.851C342.893 219.434 296.96 75.2124 264.495 42.0345C225.953 2.6475 143.682 14.1679 86.6536 58.4071C0.480705 125.259 -5.4155 272.064 61.033 360.575C94.4075 405.03 104.845 396.04 121.389 436.375C137.93 476.709 225.764 505.611 289.982 463.958Z" fill="#F15C57"/>
</g>
<mask id="mask2_7448_269" style="mask-type:luminance" maskUnits="userSpaceOnUse" x="53" y="92" width="317" height="395">
<path d="M369.167 92.8232H53.5742V486.902H369.167V92.8232Z" fill="white"/>
</mask>
<g mask="url(#mask2_7448_269)">
<path d="M347.431 482.048C337.326 486.003 327.545 486.905 319.036 486.373C318.871 486.36 318.707 486.348 318.544 486.34C303.48 485.304 289.575 477.137 280.335 464.077L239.943 406.977C239.943 406.977 226.507 408.529 206.704 405.433C195.268 403.644 182.407 396.944 173.591 391.612C169.792 389.307 166.739 387.263 164.882 385.972C163.59 385.068 162.864 384.536 162.864 384.536L170.763 376.947L170.986 376.736L177.489 370.493L180.339 367.759L237.824 312.558L258.246 319.079L266.659 321.756L266.666 321.765L277.265 325.144L277.453 325.203L296.047 331.134C296.047 331.134 317.024 365.191 338.944 387.631C343.825 392.625 347.864 396.775 351.195 400.21C363.008 412.396 369.167 429.872 367.527 447.548C366.202 461.829 361.267 476.642 347.433 482.044" fill="#F9B08C"/>
<g opacity="0.6">
<mask id="mask3_7448_269" style="mask-type:luminance" maskUnits="userSpaceOnUse" x="239" y="406" width="81" height="81">
<g opacity="0.6">
<path d="M319.038 406.944H239.945V486.372H319.038V406.944Z" fill="white"/>
</g>
</mask>
<g mask="url(#mask3_7448_269)">
<mask id="mask4_7448_269" style="mask-type:luminance" maskUnits="userSpaceOnUse" x="239" y="406" width="81" height="81">
<g opacity="0.6">
<path d="M319.038 406.944H239.945V486.372H319.038V406.944Z" fill="white"/>
</g>
</mask>
<g mask="url(#mask4_7448_269)">
<path d="M319.04 486.372C318.873 486.36 318.71 486.351 318.546 486.339C303.48 485.299 289.578 477.14 280.337 464.076L239.945 406.976C239.945 406.976 251.97 406.202 261.869 412.391C270.326 417.68 308.153 470.909 319.04 486.372Z" fill="#BD623C"/>
</g>
</g>
</g>
<g opacity="0.6">
<mask id="mask5_7448_269" style="mask-type:luminance" maskUnits="userSpaceOnUse" x="162" y="244" width="125" height="162">
<g opacity="0.6">
<path d="M286.148 244.478H162.872V405.434H286.148V244.478Z" fill="white"/>
</g>
</mask>
<g mask="url(#mask5_7448_269)">
<mask id="mask6_7448_269" style="mask-type:luminance" maskUnits="userSpaceOnUse" x="162" y="244" width="125" height="162">
<g opacity="0.6">
<path d="M286.144 244.478H162.872V405.434H286.144V244.478Z" fill="white"/>
</g>
</mask>
<g mask="url(#mask6_7448_269)">
<path d="M286.146 374.472L224.863 387.885C224.863 387.885 214.963 389.957 206.71 405.436C186.913 402.338 162.872 384.538 162.872 384.538L237.83 312.56L251.272 244.479C251.736 245.263 266.396 270.431 269.18 281.606C270.44 286.671 273.957 305.689 277.455 325.207C277.733 326.751 278.01 328.295 278.285 329.836C282.338 352.54 286.146 374.472 286.146 374.472Z" fill="#D97243"/>
</g>
</g>
</g>
<path d="M268.006 369.31L143.279 398.774C139.036 399.777 134.855 396.826 133.94 392.185L82.9215 133.511C82.0065 128.867 84.7031 124.291 88.9457 123.288L213.673 93.825C217.914 92.8237 222.097 95.7749 223.01 100.418L274.027 359.092C274.943 363.733 272.249 368.307 268.006 369.31Z" fill="#5B556B"/>
<path d="M258.422 363.879L149.964 389.497C145.393 390.576 140.887 387.399 139.899 382.396L94.8512 153.988C93.8657 148.985 96.7702 144.051 101.341 142.973L209.802 117.353C214.373 116.274 218.881 119.453 219.866 124.455L264.912 352.864C265.9 357.867 262.993 362.798 258.422 363.877" fill="#F3F3F3"/>
<path d="M135.267 125.717C135.709 127.961 134.406 130.171 132.357 130.659C130.305 131.142 128.285 129.716 127.842 127.472C127.4 125.23 128.703 123.018 130.754 122.532C132.805 122.047 134.824 123.475 135.267 125.717Z" fill="#363147"/>
<path d="M179.306 112.61L140.832 121.698L141.852 126.87L180.326 117.782L179.306 112.61Z" fill="#363147"/>
<path d="M258.514 363.662L150.051 389.276C145.48 390.355 140.976 387.178 139.989 382.175L94.9517 153.763C93.9662 148.76 96.8726 143.829 101.444 142.75L209.904 117.136C214.475 116.057 218.981 119.236 219.967 124.239L265.006 352.649C265.991 357.652 263.085 362.584 258.514 363.662Z" fill="#F3F3F3"/>
<path opacity="0.5" d="M233.783 195.379L233.635 194.626L233.511 193.998L233.44 193.645L219.964 124.238L223.114 140.215C222.256 138.555 220.516 136.591 217.175 137.343L102.785 165.112C102.785 165.112 98.292 166.14 98.3254 170.886L108.588 224.008L233.783 195.379Z" fill="#D2C6B0"/>
<path d="M166.706 345.065C166.764 345.051 166.799 344.992 166.786 344.929C166.775 344.868 166.717 344.83 166.662 344.84C166.606 344.854 166.571 344.915 166.584 344.978C166.595 345.037 166.651 345.078 166.706 345.065ZM168.007 342.667C167.952 342.681 167.916 342.742 167.927 342.803C167.939 342.864 167.994 342.904 168.05 342.89C168.106 342.876 168.141 342.815 168.13 342.756C168.119 342.693 168.063 342.657 168.007 342.667Z" fill="white"/>
<path d="M182.715 341.306C182.657 341.32 182.599 341.278 182.586 341.215C182.577 341.152 182.611 341.089 182.672 341.074C182.729 341.062 182.787 341.103 182.798 341.166C182.811 341.229 182.772 341.292 182.715 341.306Z" fill="white"/>
<path d="M175.989 306.471C175.933 306.483 175.874 306.445 175.861 306.38C175.848 306.317 175.887 306.252 175.944 306.239C176.002 306.227 176.059 306.268 176.072 306.331C176.084 306.394 176.048 306.459 175.989 306.471Z" fill="white"/>
<path d="M129.162 295.519C128.967 294.912 128.75 293.982 128.507 292.731C128.265 291.479 128.122 290.533 128.076 289.891C128.031 289.249 128.128 288.473 128.367 287.563C128.729 285.945 130.476 284.773 133.608 284.05C136.789 283.314 138.872 283.599 139.852 284.909C140.347 285.589 140.69 286.235 140.887 286.845C141.082 287.452 141.301 288.38 141.542 289.631C141.784 290.884 141.928 291.831 141.975 292.473C142.021 293.114 141.936 293.886 141.721 294.79C141.503 295.69 140.958 296.415 140.074 296.959C139.193 297.506 137.968 297.959 136.403 298.32C134.837 298.682 133.551 298.81 132.543 298.7C131.535 298.592 130.769 298.188 130.244 297.485C129.718 296.781 129.358 296.127 129.162 295.517" fill="#F04C64"/>
<path d="M143.794 292.136C143.599 291.53 143.382 290.6 143.138 289.349C142.895 288.098 142.752 287.151 142.706 286.507C142.661 285.866 142.756 285.09 142.997 284.18C143.361 282.561 145.106 281.391 148.238 280.666C151.421 279.931 153.5 280.215 154.48 281.525C154.975 282.208 155.32 282.851 155.515 283.459C155.71 284.068 155.929 284.998 156.17 286.247C156.412 287.501 156.555 288.447 156.603 289.089C156.649 289.731 156.564 290.505 156.351 291.408C156.133 292.31 155.586 293.033 154.704 293.578C153.825 294.124 152.6 294.575 151.033 294.938C149.469 295.3 148.181 295.428 147.173 295.32C146.165 295.213 145.399 294.806 144.874 294.104C144.348 293.401 143.988 292.747 143.794 292.136Z" fill="#344E5D"/>
<path d="M171.297 285.776C171.251 285.136 171.106 284.188 170.867 282.934C170.625 281.685 170.406 280.755 170.212 280.146C170.019 279.538 169.642 278.872 169.083 278.147C168.155 276.829 166.123 276.53 162.992 277.256C159.811 277.991 158.013 279.173 157.601 280.802C157.4 281.647 157.324 282.388 157.369 283.03C157.415 283.676 157.56 284.622 157.801 285.871C158.042 287.125 158.261 288.055 158.458 288.662C158.653 289.271 159.017 289.938 159.546 290.671C160.077 291.4 160.845 291.818 161.853 291.926C162.86 292.034 164.148 291.908 165.715 291.544C167.279 291.183 168.502 290.73 169.384 290.185C170.265 289.641 170.817 288.93 171.037 288.057C171.258 287.181 171.346 286.424 171.299 285.778" fill="#B15282"/>
<path d="M244.895 268.759C244.851 268.116 244.706 267.171 244.465 265.918C244.223 264.667 244.004 263.737 243.809 263.129C243.615 262.522 243.24 261.856 242.685 261.131C241.755 259.812 239.725 259.516 236.594 260.239C233.411 260.974 231.614 262.156 231.202 263.787C231.002 264.632 230.926 265.372 230.97 266.015C231.017 266.659 231.161 267.606 231.403 268.857C231.644 270.108 231.861 271.04 232.058 271.646C232.253 272.255 232.616 272.923 233.147 273.654C233.678 274.384 234.445 274.802 235.452 274.91C236.46 275.017 237.746 274.891 239.314 274.53C240.881 274.166 242.104 273.715 242.985 273.167C243.867 272.625 244.416 271.914 244.639 271.04C244.86 270.163 244.947 269.405 244.899 268.763" fill="#2B313C"/>
<path d="M229.942 272.218C229.895 271.577 229.752 270.628 229.511 269.377C229.27 268.126 229.051 267.198 228.854 266.588C228.661 265.981 228.284 265.313 227.73 264.59C226.798 263.269 224.769 262.973 221.637 263.696C218.454 264.433 216.659 265.615 216.247 267.244C216.045 268.089 215.969 268.831 216.015 269.472C216.06 270.116 216.206 271.063 216.448 272.314C216.689 273.567 216.904 274.495 217.101 275.103C217.296 275.712 217.659 276.378 218.19 277.107C218.721 277.84 219.489 278.257 220.497 278.364C221.503 278.472 222.789 278.346 224.355 277.983C225.922 277.621 227.145 277.168 228.026 276.622C228.906 276.08 229.459 275.367 229.68 274.493C229.903 273.618 229.988 272.86 229.942 272.216" fill="#EBB50E"/>
<path d="M202.44 278.576C202.245 277.969 202.024 277.038 201.783 275.787C201.541 274.534 201.399 273.588 201.352 272.946C201.306 272.304 201.402 271.528 201.643 270.618C202.005 268.999 203.752 267.827 206.885 267.104C210.066 266.367 212.146 266.653 213.126 267.963C213.621 268.644 213.967 269.29 214.161 269.899C214.356 270.506 214.575 271.437 214.817 272.688C215.058 273.941 215.203 274.887 215.247 275.529C215.294 276.171 215.208 276.941 214.993 277.847C214.778 278.749 214.23 279.472 213.349 280.016C212.469 280.562 211.242 281.015 209.678 281.377C208.111 281.738 206.823 281.866 205.817 281.757C204.811 281.649 204.043 281.245 203.518 280.542C202.993 279.839 202.635 279.185 202.44 278.576Z" fill="#0FAB85"/>
<path d="M187.807 281.96C187.61 281.352 187.391 280.422 187.15 279.171C186.909 277.92 186.764 276.973 186.718 276.329C186.673 275.69 186.768 274.912 187.009 274.002C187.371 272.385 189.119 271.213 192.252 270.49C195.433 269.753 197.513 270.039 198.491 271.349C198.987 272.032 199.332 272.673 199.529 273.283C199.724 273.892 199.943 274.822 200.184 276.074C200.425 277.327 200.568 278.273 200.615 278.915C200.659 279.557 200.576 280.329 200.36 281.233C200.145 282.134 199.596 282.857 198.714 283.402C197.833 283.948 196.61 284.401 195.043 284.765C193.477 285.126 192.193 285.254 191.183 285.146C190.175 285.039 189.409 284.633 188.884 283.932C188.358 283.229 187.996 282.573 187.803 281.964" fill="#066F9A"/>
<path d="M186.252 282.319C186.204 281.677 186.063 280.731 185.82 279.479C185.576 278.228 185.359 277.3 185.164 276.691C184.97 276.083 184.593 275.417 184.038 274.692C183.108 273.372 181.08 273.075 177.947 273.798C174.764 274.534 172.968 275.716 172.556 277.347C172.355 278.19 172.277 278.933 172.325 279.575C172.37 280.217 172.515 281.165 172.756 282.416C172.997 283.67 173.216 284.6 173.413 285.207C173.608 285.816 173.972 286.483 174.502 287.214C175.033 287.943 175.801 288.361 176.809 288.469C177.815 288.579 179.103 288.451 180.669 288.089C182.236 287.726 183.457 287.275 184.339 286.73C185.22 286.184 185.773 285.475 185.992 284.6C186.213 283.726 186.3 282.967 186.256 282.323" fill="#F89922"/>
<path d="M130.52 302.68C130.52 302.68 129.07 303.017 129.376 304.604L130.314 309.47C130.314 309.47 130.622 311.054 132.071 310.719L145.1 307.709C145.1 307.709 146.549 307.374 146.245 305.786L145.304 300.921C145.304 300.921 144.998 299.333 143.546 299.67L130.52 302.68Z" fill="#D2C6B0"/>
<path d="M132.387 312.35C132.387 312.35 130.937 312.686 131.244 314.272L132.183 319.138C132.183 319.138 132.489 320.725 133.938 320.389L168.345 312.434C168.345 312.434 169.794 312.099 169.49 310.512L168.551 305.646C168.551 305.646 168.245 304.059 166.795 304.397L132.387 312.35Z" fill="#D2C6B0"/>
<path d="M134.224 321.862C134.224 321.862 132.774 322.2 133.081 323.784L134.018 328.652C134.018 328.652 134.324 330.239 135.775 329.901L175.811 320.644C175.811 320.644 177.26 320.309 176.954 318.722L176.013 313.856C176.013 313.856 175.707 312.27 174.259 312.603L134.224 321.86V321.862Z" fill="#D2C6B0"/>
<path d="M139.649 346.577C139.649 346.577 138.2 346.912 138.508 348.498L139.447 353.363C139.447 353.363 139.753 354.949 141.203 354.614L189.02 343.561C189.02 343.561 190.469 343.224 190.165 341.637L189.224 336.771C189.224 336.771 188.918 335.184 187.468 335.522L139.649 346.577Z" fill="#D2C6B0"/>
<path d="M136.025 331.193C136.025 331.193 134.575 331.528 134.881 333.115L135.819 337.981C135.819 337.981 136.127 339.569 137.576 339.23L169.447 331.863C169.447 331.863 170.897 331.526 170.591 329.94L169.652 325.075C169.652 325.075 169.345 323.487 167.896 323.824L136.025 331.193Z" fill="#D2C6B0"/>
<path d="M116.504 230.079C116.504 230.079 115.055 230.416 115.361 232.003L116.3 236.869C116.3 236.869 116.606 238.455 118.056 238.12L201.023 218.937C201.023 218.937 202.473 218.603 202.167 217.017L201.228 212.151C201.228 212.151 200.921 210.562 199.474 210.9L116.504 230.083V230.079Z" fill="#D2C6B0"/>
<path d="M118.487 240.346C118.487 240.346 117.037 240.683 117.343 242.267L118.282 247.134C118.282 247.134 118.59 248.72 120.038 248.385L124.281 247.404C124.281 247.404 125.73 247.069 125.424 245.483L124.485 240.614C124.485 240.614 124.179 239.028 122.729 239.363L118.487 240.346Z" fill="#D2C6B0"/>
<path d="M122.553 261.401C122.553 261.401 121.103 261.738 121.41 263.324L122.349 268.188C122.349 268.188 122.657 269.777 124.104 269.44L128.347 268.459C128.347 268.459 129.796 268.126 129.49 266.539L128.551 261.671C128.551 261.671 128.243 260.084 126.794 260.42L122.553 261.401Z" fill="#D2C6B0"/>
<path d="M125.311 275.696C125.311 275.696 123.861 276.031 124.167 277.617L125.107 282.484C125.107 282.484 125.415 284.07 126.862 283.735L158.735 276.364C158.735 276.364 160.185 276.029 159.879 274.444L158.94 269.578C158.94 269.578 158.633 267.992 157.184 268.327L125.311 275.696Z" fill="#D2C6B0"/>
<path d="M132.864 259.018C132.864 259.018 131.415 259.353 131.723 260.937L132.66 265.806C132.66 265.806 132.968 267.392 134.417 267.057L154.888 262.322C154.888 262.322 156.337 261.987 156.033 260.403L155.094 255.536C155.094 255.536 154.788 253.95 153.338 254.287L132.866 259.02L132.864 259.018Z" fill="#D2C6B0"/>
<path d="M130.824 248.442C130.824 248.442 129.373 248.78 129.681 250.364L130.618 255.23C130.618 255.23 130.926 256.817 132.374 256.481L144.242 253.737C144.242 253.737 145.691 253.402 145.387 251.816L144.446 246.95C144.446 246.95 144.142 245.363 142.69 245.696L130.824 248.442Z" fill="#D2C6B0"/>
<path d="M169.202 228.619C169.202 228.619 167.75 228.954 168.059 230.543L168.998 235.409C168.998 235.409 169.306 236.998 170.753 236.66L191.226 231.928C191.226 231.928 192.675 231.591 192.369 230.006L191.43 225.14C191.43 225.14 191.122 223.554 189.674 223.887L169.202 228.619Z" fill="#D2C6B0"/>
<path d="M173.267 249.676C173.267 249.676 171.817 250.013 172.124 251.597L173.063 256.463C173.063 256.463 173.367 258.05 174.818 257.715L195.291 252.98C195.291 252.98 196.74 252.643 196.434 251.059L195.495 246.192C195.495 246.192 195.189 244.606 193.739 244.941L173.267 249.676Z" fill="#D2C6B0"/>
<path d="M171.225 239.101C171.225 239.101 169.775 239.436 170.082 241.023L171.021 245.889C171.021 245.889 171.327 247.476 172.776 247.14L213.723 237.673C213.723 237.673 215.174 237.336 214.868 235.752L213.929 230.886C213.929 230.886 213.623 229.299 212.173 229.634L171.225 239.101Z" fill="#D2C6B0"/>
<path d="M120.511 250.827C120.511 250.827 119.059 251.164 119.366 252.748L120.305 257.615C120.305 257.615 120.611 259.201 122.06 258.866L126.301 257.885C126.301 257.885 127.752 257.55 127.446 255.963L126.505 251.097C126.505 251.097 126.199 249.511 124.751 249.848L120.511 250.827Z" fill="#D2C6B0"/>
<path d="M261.945 337.079L136.843 366.621L140.016 382.728C140.952 387.46 145.215 390.47 149.541 389.449L258.976 363.607C263.302 362.584 266.05 357.918 265.119 353.182L261.943 337.079H261.945Z" fill="#D2C6B0"/>
<path d="M195.525 365.543C194.873 362.025 196.952 358.59 200.168 357.88C203.381 357.165 206.521 359.437 207.167 362.959C207.818 366.479 205.741 369.908 202.525 370.623C199.313 371.329 196.176 369.057 195.525 365.543Z" fill="white"/>
<path d="M152.055 376.557C151.406 373.038 153.483 369.605 156.701 368.892C159.911 368.177 163.052 370.452 163.699 373.972C164.353 377.492 162.274 380.922 159.056 381.637C155.843 382.342 152.707 380.067 152.055 376.557Z" fill="white"/>
<path d="M173.016 371.86C172.364 368.342 174.443 364.907 177.659 364.194C180.87 363.481 184.008 365.756 184.656 369.274C185.309 372.794 183.233 376.224 180.014 376.939C176.802 377.646 173.665 375.373 173.014 371.86" fill="white"/>
<path d="M216.647 360.89C215.995 357.37 218.074 353.937 221.292 353.224C224.503 352.509 227.641 354.784 228.289 358.304C228.942 361.822 226.865 365.256 223.649 365.967C220.437 366.672 217.3 364.399 216.647 360.887" fill="white"/>
<path d="M237.605 356.194C236.956 352.674 239.032 349.243 242.251 348.528C245.461 347.815 248.6 350.09 249.249 353.608C249.901 357.128 247.824 360.558 244.608 361.273C241.393 361.98 238.257 359.707 237.605 356.194Z" fill="white"/>
<path d="M123.269 282.382C123.269 282.382 122.014 281.941 119.939 281.184C117.813 280.414 114.819 279.311 111.423 278.011C99.5172 273.449 82.6489 266.495 80.8413 263.032C78.0129 257.615 74.4366 244.464 77.9665 236.721C78.527 235.502 79.4902 234.416 80.7225 233.453C83.9685 230.904 89.0592 229.214 93.3742 228.16C97.0989 227.248 100.241 226.803 101.108 226.689C101.137 226.689 101.16 226.681 101.175 226.681C101.226 226.681 101.264 226.673 101.293 226.673C101.33 226.665 101.345 226.665 101.345 226.665L102.123 230.847L103.825 240.078C103.825 240.078 103.869 240.103 103.951 240.143C104.69 240.519 108.654 242.587 112.954 245.77C117.059 248.828 121.469 252.913 123.657 257.534C128.374 267.508 123.269 282.384 123.269 282.384" fill="#F9B08C"/>
<path d="M98.5187 215.821C98.5187 215.821 94.6585 213.437 89.5919 210.268C81.4538 205.18 70.1903 198.106 66.6976 195.703C53.5745 186.677 60.0998 169.39 70.9364 171.708C74.1694 172.394 78.2895 173.335 81.9623 174.194C87.001 175.351 91.2121 176.357 91.2121 176.357L98.5187 215.821Z" fill="#F9B08C"/>
<path d="M139.064 341.454L135.302 339.681L131.084 337.699L122.381 333.604L122.186 333.512L117.97 331.528L116.634 330.896L95.2185 320.816C86.1858 315.948 86.7389 295.328 91.657 288.859C92.2991 288.01 93.0155 287.407 93.7987 287.114C99.7932 284.825 112.662 284.701 112.662 284.701L114.544 295.531C114.544 295.531 114.67 295.606 114.917 295.744C116.066 296.39 119.724 298.496 123.918 301.358C129.599 305.221 136.28 310.466 139.064 315.31C145.975 327.35 139.064 341.454 139.064 341.454Z" fill="#F9B08C"/>
<path d="M179.289 375.166L149.745 381.351L112.662 365.535C112.662 365.535 109.207 350.401 109.834 341.456C110.459 332.511 121.149 328.384 121.149 328.384L123.029 337.67L145.662 349.71C145.662 349.71 166.092 347.988 174.892 352.808C175.534 353.161 176.11 353.577 176.616 354.057C183.073 360.095 179.289 375.166 179.289 375.166Z" fill="#F9B08C"/>
<g opacity="0.6">
<mask id="mask7_7448_269" style="mask-type:luminance" maskUnits="userSpaceOnUse" x="109" y="328" width="68" height="28">
<g opacity="0.6">
<path d="M176.617 328.382H109.834V355.905H176.617V328.382Z" fill="white"/>
</g>
</mask>
<g mask="url(#mask7_7448_269)">
<mask id="mask8_7448_269" style="mask-type:luminance" maskUnits="userSpaceOnUse" x="109" y="328" width="68" height="28">
<g opacity="0.6">
<path d="M176.617 328.382H109.834V355.901H176.617V328.382Z" fill="white"/>
</g>
</mask>
<g mask="url(#mask8_7448_269)">
<path d="M176.617 354.057L176.303 354.351C176.303 354.351 156.031 353.324 146.132 355.907C146.132 355.907 113.603 346.617 109.834 341.456C110.461 332.511 121.149 328.384 121.149 328.384L123.029 337.67L145.662 349.714C145.662 349.714 166.092 347.988 174.892 352.808C175.535 353.161 176.11 353.573 176.617 354.057Z" fill="#D97243"/>
</g>
</g>
</g>
<path d="M99.1475 273.008C99.1475 273.008 96.9464 261.313 100.404 251.682C100.404 251.682 115.804 257.872 118.948 262.345C118.948 262.345 117.69 275.072 118.319 280.578L99.1475 273.008Z" fill="#F9C4B7"/>
<path d="M161.062 379.291V361.058C161.062 361.058 174.263 358.994 176.463 360.371C178.662 361.748 177.09 375.16 177.09 375.16L161.062 379.291Z" fill="#F9C4B7"/>
<path d="M118.004 331.823C118.004 331.823 116.119 317.725 120.519 310.842C120.519 310.842 133.091 316.693 135.919 320.128C138.747 323.571 135.29 339.736 135.29 339.736L118.004 331.823Z" fill="#F9C4B7"/>
<path d="M296.047 331.136L278.283 329.838L268.111 329.033L251.278 244.495L251.27 244.477C251.263 244.469 251.263 244.461 251.263 244.461C251.263 244.461 238.531 224.855 229.571 196.99C218.987 164.052 239.949 149.527 239.949 149.527L255.503 186.158C255.503 186.158 287.64 242.909 291.885 254.779C296.123 266.638 296.049 331.134 296.049 331.134" fill="#F9B08C"/>
<g opacity="0.6">
<mask id="mask9_7448_269" style="mask-type:luminance" maskUnits="userSpaceOnUse" x="251" y="244" width="28" height="86">
<g opacity="0.6">
<path d="M278.282 244.496H251.277V329.839H278.282V244.496Z" fill="white"/>
</g>
</mask>
<g mask="url(#mask9_7448_269)">
<mask id="mask10_7448_269" style="mask-type:luminance" maskUnits="userSpaceOnUse" x="251" y="244" width="28" height="86">
<g opacity="0.6">
<path d="M278.284 244.494H251.277V329.835H278.284V244.494Z" fill="white"/>
</g>
</mask>
<g mask="url(#mask10_7448_269)">
<path d="M278.283 329.839L268.109 329.036L251.279 244.494C251.645 245.532 275.165 312.166 278.284 329.839" fill="#D97243"/>
</g>
</g>
</g>
<path d="M241.128 152.881C241.128 152.881 235.705 159.072 233.114 166.81L241.599 190.545C241.599 190.545 252.442 188.478 254.797 184.351L241.128 152.881Z" fill="#F9C4B7"/>
<g opacity="0.6">
<mask id="mask11_7448_269" style="mask-type:luminance" maskUnits="userSpaceOnUse" x="91" y="284" width="24" height="12">
<g opacity="0.6">
<path d="M114.544 284.703H91.6592V295.537H114.544V284.703Z" fill="white"/>
</g>
</mask>
<g mask="url(#mask11_7448_269)">
<mask id="mask12_7448_269" style="mask-type:luminance" maskUnits="userSpaceOnUse" x="91" y="284" width="24" height="12">
<g opacity="0.6">
<path d="M114.544 284.703H91.6592V295.537H114.544V284.703Z" fill="white"/>
</g>
</mask>
<g mask="url(#mask12_7448_269)">
<path d="M114.544 295.535C107.087 291.215 93.5021 289.121 91.6592 288.859C92.2995 288.01 93.0158 287.407 93.8009 287.114C99.7936 284.825 112.662 284.701 112.662 284.701L114.544 295.535Z" fill="#D97243"/>
</g>
</g>
</g>
<g opacity="0.6">
<mask id="mask13_7448_269" style="mask-type:luminance" maskUnits="userSpaceOnUse" x="81" y="174" width="18" height="42">
<g opacity="0.6">
<path d="M98.5184 174.191H81.9619V215.821H98.5184V174.191Z" fill="white"/>
</g>
</mask>
<g mask="url(#mask13_7448_269)">
<mask id="mask14_7448_269" style="mask-type:luminance" maskUnits="userSpaceOnUse" x="81" y="174" width="18" height="42">
<g opacity="0.6">
<path d="M98.5164 174.191H81.96V215.821H98.5164V174.191Z" fill="white"/>
</g>
</mask>
<g mask="url(#mask14_7448_269)">
<path d="M98.5184 215.821C98.5184 215.821 94.6581 213.436 89.5915 210.268L81.9619 174.193C87.0007 175.351 91.2117 176.356 91.2117 176.356L98.5184 215.821Z" fill="#D97243"/>
</g>
</g>
</g>
<g opacity="0.6">
<mask id="mask15_7448_269" style="mask-type:luminance" maskUnits="userSpaceOnUse" x="80" y="226" width="24" height="15">
<g opacity="0.6">
<path d="M103.825 226.679H80.7227V240.076H103.825V226.679Z" fill="white"/>
</g>
</mask>
<g mask="url(#mask15_7448_269)">
<mask id="mask16_7448_269" style="mask-type:luminance" maskUnits="userSpaceOnUse" x="80" y="226" width="24" height="15">
<g opacity="0.6">
<path d="M103.827 226.677H80.7246V240.076H103.827V226.677Z" fill="white"/>
</g>
</mask>
<g mask="url(#mask16_7448_269)">
<path d="M103.825 240.074C103.825 240.074 90.815 234.306 80.7598 233.448H80.7227C83.9705 230.899 89.0593 229.21 93.3743 228.155C97.0991 227.241 100.241 226.799 101.108 226.685C101.137 226.685 101.16 226.677 101.175 226.677L103.825 240.074Z" fill="#D97243"/>
</g>
</g>
</g>
<path d="M102.789 165.114L217.179 137.345C220.518 136.594 222.261 138.558 223.118 140.217L219.969 124.241C218.983 119.238 214.477 116.059 209.906 117.138L101.446 142.752C96.8745 143.831 93.9682 148.762 94.9537 153.765L98.3295 170.889C98.298 166.144 102.789 165.114 102.789 165.114Z" fill="#D2C6B0"/>
</g>
</g>
</g>
<defs>
<clipPath id="clip0_7448_269">
<rect width="380" height="492.24" fill="white"/>
</clipPath>
</defs>
</svg>
