<svg width="20" height="18" viewBox="0 0 20 18" fill="none" xmlns="http://www.w3.org/2000/svg">
<path d="M15.34 3.01308C15.1027 3.01308 14.8707 3.07437 14.6733 3.1892C14.476 3.30402 14.3222 3.46723 14.2313 3.65818C14.1405 3.84913 14.1168 4.05924 14.1631 4.26195C14.2094 4.46466 14.3236 4.65086 14.4915 4.79701C14.6593 4.94316 14.8731 5.04268 15.1059 5.083C15.3387 5.12333 15.5799 5.10263 15.7992 5.02354C16.0185 4.94444 16.2059 4.8105 16.3378 4.63865C16.4696 4.4668 16.54 4.26476 16.54 4.05808C16.54 3.78093 16.4136 3.51513 16.1885 3.31916C15.9635 3.12318 15.6583 3.01308 15.34 3.01308ZM19.94 5.1205C19.9206 4.39797 19.7652 3.6831 19.48 3.00437C19.2257 2.42364 18.83 1.89779 18.32 1.463C17.8248 1.01663 17.2196 0.674179 16.55 0.461542C15.7727 0.205657 14.9508 0.067237 14.12 0.0522499C13.06 -4.86616e-08 12.72 0 10 0C7.28 0 6.94 -4.86616e-08 5.88 0.0522499C5.04915 0.067237 4.22734 0.205657 3.45 0.461542C2.78168 0.676331 2.17693 1.01849 1.68 1.463C1.16743 1.89422 0.774176 2.4213 0.53 3.00437C0.236161 3.68131 0.07721 4.39697 0.0599999 5.1205C-5.58794e-08 6.04358 0 6.33967 0 8.70833C0 11.077 -5.58794e-08 11.3731 0.0599999 12.2962C0.07721 13.0197 0.236161 13.7354 0.53 14.4123C0.774176 14.9954 1.16743 15.5224 1.68 15.9537C2.17693 16.3982 2.78168 16.7403 3.45 16.9551C4.22734 17.211 5.04915 17.3494 5.88 17.3644C6.94 17.4167 7.28 17.4167 10 17.4167C12.72 17.4167 13.06 17.4167 14.12 17.3644C14.9508 17.3494 15.7727 17.211 16.55 16.9551C17.2196 16.7425 17.8248 16.4 18.32 15.9537C18.8322 15.5205 19.2283 14.9942 19.48 14.4123C19.7652 13.7336 19.9206 13.0187 19.94 12.2962C19.94 11.3731 20 11.077 20 8.70833C20 6.33967 20 6.04358 19.94 5.1205ZM18.14 12.1917C18.1327 12.7444 18.0178 13.2921 17.8 13.8114C17.6403 14.1904 17.3839 14.5328 17.05 14.8129C16.7256 15.1007 16.3332 15.3236 15.9 15.466C15.3037 15.6556 14.6748 15.7557 14.04 15.7621C13.04 15.8056 12.67 15.8143 10.04 15.8143C7.41 15.8143 7.04 15.8143 6.04 15.7621C5.38089 15.7728 4.72459 15.6844 4.1 15.5008C3.68578 15.3511 3.31136 15.1288 3 14.8477C2.66809 14.568 2.41484 14.2252 2.26 13.8462C2.01586 13.3195 1.88044 12.7594 1.86 12.1917C1.86 11.3208 1.8 10.9986 1.8 8.70833C1.8 6.41804 1.8 6.09583 1.86 5.225C1.86448 4.65988 1.98295 4.09984 2.21 3.57042C2.38605 3.20285 2.65626 2.87519 3 2.6125C3.30381 2.31308 3.67929 2.07528 4.1 1.91583C4.70955 1.72429 5.352 1.62417 6 1.61975C7 1.61975 7.37 1.5675 10 1.5675C12.63 1.5675 13 1.5675 14 1.61975C14.6348 1.62609 15.2637 1.72621 15.86 1.91583C16.3144 2.0627 16.7223 2.30148 17.05 2.6125C17.3777 2.88 17.6338 3.20705 17.8 3.57042C18.0223 4.1007 18.1373 4.66051 18.14 5.225C18.19 6.09583 18.2 6.41804 18.2 8.70833C18.2 10.9986 18.19 11.3208 18.14 12.1917ZM10 4.24096C8.98581 4.24268 7.99496 4.50615 7.15265 4.99808C6.31035 5.49 5.65438 6.18831 5.26763 7.00477C4.88089 7.82122 4.78072 8.71919 4.97979 9.5852C5.17886 10.4512 5.66824 11.2464 6.38608 11.8703C7.10392 12.4942 8.01801 12.9188 9.01286 13.0905C10.0077 13.2622 11.0387 13.1732 11.9755 12.8348C12.9123 12.4964 13.7129 11.9238 14.2761 11.1894C14.8394 10.4549 15.14 9.59152 15.14 8.70833C15.1413 8.12061 15.0092 7.53846 14.7512 6.99537C14.4933 6.45227 14.1146 5.95895 13.6369 5.54377C13.1592 5.12859 12.5919 4.79975 11.9678 4.57617C11.3436 4.35258 10.6749 4.23866 10 4.24096ZM10 11.6082C9.34139 11.6082 8.69757 11.4381 8.14995 11.1195C7.60234 10.8008 7.17552 10.3479 6.92348 9.81807C6.67144 9.28818 6.6055 8.70512 6.73398 8.1426C6.86247 7.58007 7.17963 7.06337 7.64533 6.65781C8.11104 6.25226 8.70439 5.97607 9.35035 5.86418C9.99631 5.75229 10.6659 5.80971 11.2743 6.0292C11.8828 6.24868 12.4029 6.62037 12.7688 7.09725C13.1347 7.57413 13.33 8.13479 13.33 8.70833C13.33 9.08915 13.2439 9.46624 13.0765 9.81807C12.9092 10.1699 12.6639 10.4896 12.3547 10.7589C12.0454 11.0281 11.6784 11.2417 11.2743 11.3875C10.8703 11.5332 10.4373 11.6082 10 11.6082Z" fill="white"/>
</svg>
