<svg width="28" height="29" viewBox="0 0 28 29" fill="none" xmlns="http://www.w3.org/2000/svg">
<g clip-path="url(#clip0_5374_207871)">
<path d="M27.9982 13.9441C27.9976 13.1395 27.7593 12.353 27.3132 11.6835C26.8671 11.0139 26.2332 10.491 25.491 10.1804C25.0173 7.47648 23.6054 5.02618 21.5035 3.2605C19.4016 1.49482 16.7444 0.526855 13.9993 0.526855C11.2543 0.526855 8.59708 1.49482 6.4952 3.2605C4.39332 5.02618 2.98136 7.47648 2.50768 10.1804C1.66069 10.5367 0.95864 11.1683 0.515069 11.9731C0.071498 12.7778 -0.0876668 13.7087 0.0633122 14.6151C0.214291 15.5215 0.666588 16.3505 1.34706 16.968C2.02754 17.5856 2.89641 17.9555 3.81318 18.0181C4.41575 19.2968 5.23297 20.4628 6.22935 21.4656C4.76937 23.0597 3.84281 25.0694 3.57868 27.2149C3.55956 27.367 3.5706 27.5213 3.61115 27.6691C3.6517 27.8169 3.72097 27.9553 3.81501 28.0763C3.90906 28.1973 4.02602 28.2986 4.15923 28.3744C4.29244 28.4502 4.43927 28.499 4.59135 28.5181C4.63936 28.5239 4.68765 28.527 4.73602 28.5274C5.01995 28.5271 5.29401 28.4232 5.50685 28.2353C5.71969 28.0474 5.85669 27.7883 5.89218 27.5066C6.1037 25.8151 6.8449 24.2339 8.00968 22.9892C9.74701 24.2716 11.8393 24.9837 13.9982 25.0274C16.1507 24.9833 18.2369 24.2742 19.9703 22.9974C21.1301 24.2399 21.8682 25.8166 22.0797 27.5031C22.1149 27.785 22.2518 28.0443 22.4647 28.2325C22.6775 28.4207 22.9517 28.5247 23.2358 28.5251C23.2846 28.5248 23.3333 28.5217 23.3817 28.5157C23.6886 28.4773 23.9677 28.3185 24.1576 28.0744C24.3475 27.8302 24.4326 27.5207 24.3943 27.2137C24.1321 25.0737 23.2102 23.0684 21.7565 21.4761C22.7584 20.4703 23.58 19.2998 24.1855 18.0157C25.2189 17.9471 26.1876 17.4883 26.8954 16.7324C27.6033 15.9764 27.9975 14.9797 27.9982 13.9441ZM23.6208 15.6626C23.3487 15.6127 23.0678 15.6619 22.8287 15.8012C22.5897 15.9405 22.4084 16.1607 22.3177 16.4221C21.249 19.4531 17.6498 22.6941 13.9982 22.6941C10.3465 22.6941 6.74735 19.4507 5.67868 16.4197C5.58773 16.1585 5.40641 15.9384 5.16745 15.7992C4.92848 15.6599 4.64761 15.6106 4.37552 15.6602C4.27856 15.6792 4.18025 15.6905 4.08152 15.6941C3.64843 15.6889 3.23266 15.5233 2.9146 15.2293C2.59654 14.9353 2.39879 14.5339 2.3596 14.1025C2.32042 13.6712 2.44258 13.2406 2.70245 12.8941C2.96233 12.5477 3.34146 12.3099 3.76652 12.2267C4.01457 12.1818 4.24138 12.0577 4.413 11.873C4.58461 11.6883 4.6918 11.4531 4.71852 11.2024C4.87433 9.71059 5.38912 8.27871 6.21888 7.0292C7.04863 5.7797 8.16866 4.74973 9.48318 4.02739C9.29215 4.76951 9.28335 5.5468 9.45752 6.29306C9.69471 7.27993 10.2472 8.16257 11.0312 8.80718C11.8152 9.45179 12.788 9.82322 13.8021 9.86517C14.8162 9.90712 15.8164 9.61729 16.6509 9.03963C17.4855 8.46197 18.109 7.62797 18.4268 6.66406C18.4787 6.49282 18.4895 6.31179 18.4584 6.13562C18.4273 5.95944 18.3551 5.79305 18.2478 5.64993C18.1404 5.50681 18.0009 5.39096 17.8405 5.31176C17.6801 5.23257 17.5032 5.19224 17.3243 5.19406H17.1482C16.9336 5.20109 16.7268 5.27621 16.5578 5.40856C16.3887 5.5409 16.2662 5.7236 16.2078 5.93022C16.0722 6.3381 15.8266 6.7006 15.498 6.97771C15.1694 7.25483 14.7707 7.4358 14.3458 7.50067C13.9209 7.56553 13.4863 7.51176 13.09 7.34529C12.6937 7.17882 12.3511 6.90612 12.1 6.55728C11.8489 6.20843 11.699 5.797 11.6669 5.36837C11.6348 4.93974 11.7217 4.51056 11.918 4.1282C12.1144 3.74583 12.4125 3.42513 12.7796 3.20147C13.1466 2.97781 13.5684 2.85989 13.9982 2.86072C16.3033 2.85521 18.5285 3.70528 20.2428 5.24631C21.9571 6.78734 23.0386 8.9097 23.2779 11.2024C23.3046 11.4531 23.4118 11.6883 23.5834 11.873C23.755 12.0577 23.9818 12.1818 24.2299 12.2267C24.6549 12.3099 25.034 12.5477 25.2939 12.8941C25.5538 13.2406 25.6759 13.6712 25.6368 14.1025C25.5976 14.5339 25.3998 14.9353 25.0818 15.2293C24.7637 15.5233 24.3479 15.6889 23.9148 15.6941C23.8162 15.6913 23.7179 15.6808 23.6208 15.6626Z" fill="white"/>
<path d="M11.082 15.6938C12.0485 15.6938 12.832 14.9103 12.832 13.9438C12.832 12.9773 12.0485 12.1938 11.082 12.1938C10.1155 12.1938 9.33203 12.9773 9.33203 13.9438C9.33203 14.9103 10.1155 15.6938 11.082 15.6938Z" fill="white"/>
<path d="M16.918 15.6938C17.8845 15.6938 18.668 14.9103 18.668 13.9438C18.668 12.9773 17.8845 12.1938 16.918 12.1938C15.9515 12.1938 15.168 12.9773 15.168 13.9438C15.168 14.9103 15.9515 15.6938 16.918 15.6938Z" fill="white"/>
</g>
<defs>
<clipPath id="clip0_5374_207871">
<rect width="28" height="28" fill="white" transform="translate(0 0.527344)"/>
</clipPath>
</defs>
</svg>
