<svg width="16" height="17" viewBox="0 0 16 17" fill="none" xmlns="http://www.w3.org/2000/svg">
<g clip-path="url(#clip0_4773_442207)">
<path d="M16.0004 8.13731C16 7.67756 15.8638 7.22816 15.6089 6.84553C15.3541 6.46291 14.9918 6.16411 14.5677 5.98664C14.297 4.44155 13.4902 3.04138 12.2891 2.03242C11.088 1.02346 9.56965 0.470337 8.00102 0.470337C6.4324 0.470337 4.91401 1.02346 3.71294 2.03242C2.51186 3.04138 1.70503 4.44155 1.43436 5.98664C0.950358 6.19027 0.54919 6.55119 0.29572 7.01104C0.0422511 7.4709 -0.0487003 8.00281 0.0375735 8.52076C0.123847 9.03871 0.382302 9.51243 0.771146 9.8653C1.15999 10.2182 1.65649 10.4296 2.18036 10.4653C2.52468 11.196 2.99166 11.8623 3.56102 12.4353C2.72675 13.3462 2.19728 14.4947 2.04636 15.7206C2.03543 15.8075 2.04174 15.8957 2.06491 15.9802C2.08808 16.0647 2.12767 16.1437 2.1814 16.2129C2.23514 16.282 2.30198 16.3399 2.3781 16.3832C2.45422 16.4265 2.53812 16.4544 2.62502 16.4653C2.65246 16.4687 2.68005 16.4704 2.70769 16.4706C2.86994 16.4705 3.02654 16.4111 3.14817 16.3037C3.26979 16.1963 3.34808 16.0483 3.36836 15.8873C3.48922 14.9207 3.91276 14.0172 4.57836 13.306C5.57112 14.0388 6.76669 14.4457 8.00036 14.4706C9.23037 14.4455 10.4225 14.0403 11.413 13.3106C12.0757 14.0206 12.4975 14.9216 12.6184 15.8853C12.6385 16.0464 12.7167 16.1946 12.8383 16.3021C12.96 16.4097 13.1167 16.4691 13.279 16.4693C13.3069 16.4692 13.3347 16.4674 13.3624 16.464C13.5377 16.442 13.6972 16.3513 13.8057 16.2118C13.9142 16.0723 13.9629 15.8954 13.941 15.72C13.7912 14.4971 13.2643 13.3512 12.4337 12.4413C13.0062 11.8666 13.4757 11.1977 13.8217 10.464C14.4122 10.4247 14.9657 10.1626 15.3702 9.73063C15.7747 9.29865 16 8.72911 16.0004 8.13731ZM13.499 9.11931C13.3435 9.09082 13.183 9.11892 13.0464 9.19852C12.9098 9.27812 12.8062 9.40397 12.7544 9.55331C12.1437 11.2853 10.087 13.1373 8.00036 13.1373C5.91369 13.1373 3.85702 11.284 3.24636 9.55198C3.19438 9.40272 3.09077 9.27695 2.95422 9.19737C2.81767 9.11779 2.65717 9.08963 2.50169 9.11798C2.44629 9.12884 2.39011 9.1353 2.33369 9.13731C2.08621 9.13435 1.84863 9.03973 1.66688 8.87174C1.48513 8.70375 1.37213 8.47433 1.34974 8.22786C1.32735 7.98138 1.39715 7.73535 1.54565 7.53736C1.69415 7.33937 1.9108 7.20348 2.15369 7.15598C2.29543 7.13028 2.42504 7.05937 2.52311 6.95385C2.62117 6.84833 2.68243 6.71388 2.69769 6.57064C2.78673 5.71818 3.08089 4.89997 3.55504 4.18596C4.02918 3.47196 4.6692 2.88341 5.42036 2.47064C5.3112 2.89471 5.30617 3.33888 5.40569 3.76531C5.54123 4.32924 5.85693 4.8336 6.30493 5.20195C6.75294 5.5703 7.30882 5.78255 7.88831 5.80652C8.4678 5.83049 9.03931 5.66487 9.51621 5.33478C9.9931 5.00469 10.3494 4.52812 10.531 3.97731C10.5606 3.87946 10.5668 3.77602 10.549 3.67534C10.5313 3.57467 10.49 3.47959 10.4287 3.39781C10.3674 3.31602 10.2876 3.24983 10.196 3.20457C10.1043 3.15931 10.0032 3.13627 9.90102 3.13731H9.80036C9.67774 3.14133 9.55958 3.18425 9.46298 3.25988C9.36638 3.33551 9.29635 3.43991 9.26302 3.55798C9.18553 3.79105 9.04516 3.99819 8.8574 4.15654C8.66965 4.31489 8.4418 4.41831 8.19899 4.45537C7.95618 4.49244 7.70786 4.46171 7.48141 4.36659C7.25496 4.27146 7.05918 4.11563 6.91568 3.91629C6.77218 3.71695 6.68653 3.48185 6.66818 3.23692C6.64983 2.99198 6.6995 2.74674 6.81169 2.52825C6.92389 2.30975 7.09426 2.12649 7.30401 1.99869C7.51376 1.87088 7.75474 1.8035 8.00036 1.80397C9.31758 1.80082 10.5891 2.28658 11.5687 3.16717C12.5483 4.04776 13.1663 5.26053 13.303 6.57064C13.3183 6.71388 13.3795 6.84833 13.4776 6.95385C13.5757 7.05937 13.7053 7.13028 13.847 7.15598C14.0899 7.20348 14.3066 7.33937 14.4551 7.53736C14.6036 7.73535 14.6734 7.98138 14.651 8.22786C14.6286 8.47433 14.5156 8.70375 14.3338 8.87174C14.1521 9.03973 13.9145 9.13435 13.667 9.13731C13.6106 9.13574 13.5545 9.12973 13.499 9.11931Z" fill="#0A1932"/>
<path d="M6.33301 9.13721C6.88529 9.13721 7.33301 8.68949 7.33301 8.13721C7.33301 7.58492 6.88529 7.13721 6.33301 7.13721C5.78072 7.13721 5.33301 7.58492 5.33301 8.13721C5.33301 8.68949 5.78072 9.13721 6.33301 9.13721Z" fill="#0A1932"/>
<path d="M9.66699 9.13721C10.2193 9.13721 10.667 8.68949 10.667 8.13721C10.667 7.58492 10.2193 7.13721 9.66699 7.13721C9.11471 7.13721 8.66699 7.58492 8.66699 8.13721C8.66699 8.68949 9.11471 9.13721 9.66699 9.13721Z" fill="#0A1932"/>
</g>
<defs>
<clipPath id="clip0_4773_442207">
<rect width="16" height="16" fill="white" transform="translate(0 0.470581)"/>
</clipPath>
</defs>
</svg>
