<svg width="28" height="25" viewBox="0 0 28 25" fill="none" xmlns="http://www.w3.org/2000/svg">
<path d="M20.1875 0.65625C18.9206 0.675954 17.6815 1.02958 16.5951 1.68143C15.5087 2.33328 14.6135 3.26025 14 4.36875C13.3864 3.26025 12.4913 2.33328 11.4048 1.68143C10.3184 1.02958 9.07926 0.675954 7.81245 0.65625C5.79301 0.74399 3.89037 1.62741 2.52021 3.11351C1.15005 4.59961 0.423734 6.56759 0.499953 8.5875C0.499953 13.7029 5.8842 19.2896 10.4 23.0775C11.4082 23.9248 12.683 24.3893 14 24.3893C15.3169 24.3893 16.5917 23.9248 17.6 23.0775C22.1157 19.2896 27.5 13.7029 27.5 8.5875C27.5762 6.56759 26.8499 4.59961 25.4797 3.11351C24.1095 1.62741 22.2069 0.74399 20.1875 0.65625ZM16.1543 21.3562C15.5513 21.864 14.7883 22.1425 14 22.1425C13.2116 22.1425 12.4486 21.864 11.8456 21.3562C6.06533 16.5064 2.74995 11.8534 2.74995 8.5875C2.67305 7.16406 3.16212 5.76795 4.11049 4.70366C5.05886 3.63938 6.38959 2.99327 7.81245 2.90625C9.23532 2.99327 10.566 3.63938 11.5144 4.70366C12.4628 5.76795 12.9519 7.16406 12.875 8.5875C12.875 8.88587 12.9935 9.17202 13.2045 9.383C13.4154 9.59397 13.7016 9.7125 14 9.7125C14.2983 9.7125 14.5845 9.59397 14.7954 9.383C15.0064 9.17202 15.125 8.88587 15.125 8.5875C15.048 7.16406 15.5371 5.76795 16.4855 4.70366C17.4339 3.63938 18.7646 2.99327 20.1875 2.90625C21.6103 2.99327 22.941 3.63938 23.8894 4.70366C24.8378 5.76795 25.3269 7.16406 25.25 8.5875C25.25 11.8534 21.9346 16.5064 16.1543 21.3517V21.3562Z" fill="white"/>
</svg>
