<svg width="220" height="110" viewBox="0 0 220 110" fill="none" xmlns="http://www.w3.org/2000/svg">
<g id="Vector">
<path d="M32.4627 42.388C43.0079 52.6448 50.4861 60.3549 54.8971 65.5182C57.1716 68.0998 58.3088 70.2977 58.3088 72.1119C58.3088 73.8562 56.9304 75.9494 54.1734 78.3915C51.4165 80.7639 49.1421 81.95 47.3501 81.95C45.627 81.95 43.5248 80.4848 41.0436 77.5543L18.299 51.2842V71.6932C18.299 73.3678 18.2301 74.5888 18.0923 75.3564C18.0234 76.1239 17.7132 77.031 17.1618 78.0776C16.1969 79.9615 13.5089 80.9034 9.09783 80.9034C4.27322 80.9034 1.44738 79.5777 0.620307 76.9263C0.206769 75.8099 0 74.0306 0 71.5885V13.3967C0 11.7919 0.0344614 10.6057 0.103384 9.83819C0.24123 9.0009 0.585845 8.05895 1.13723 7.01233C2.10215 5.12842 4.79015 4.18647 9.20121 4.18647C14.0258 4.18647 16.8861 5.47729 17.7821 8.05895C18.1267 9.24511 18.299 11.0592 18.299 13.5013V33.4917C27.6726 22.8162 35.2541 14.0595 41.0436 7.22165C43.4559 4.3609 45.5581 2.93052 47.3501 2.93052C49.1421 2.93052 51.4165 4.15158 54.1734 6.59368C56.9304 8.96601 58.3088 11.0592 58.3088 12.8734C58.3088 14.6177 57.275 16.711 55.2073 19.1531C51.2097 23.828 45.0067 30.2472 36.5981 38.4108L32.4627 42.388Z" fill="white"/>
<path d="M61.4366 34.957C61.4366 33.3522 61.471 32.166 61.54 31.3985C61.6778 30.5612 61.988 29.6192 62.4704 28.5726C63.4353 26.7585 66.1233 25.8514 70.5344 25.8514C73.8427 25.8514 76.1861 26.4445 77.5645 27.6307C78.7362 28.6075 79.3565 30.1077 79.4255 32.1311C79.4944 32.8289 79.5288 33.8406 79.5288 35.1663V71.7979C79.5288 73.4027 79.4599 74.6237 79.3221 75.461C79.2532 76.2285 78.943 77.1356 78.3916 78.1822C77.4956 79.9964 74.8421 80.9034 70.431 80.9034C66.0889 80.9034 63.4353 79.9615 62.4704 78.0776C61.988 77.031 61.6778 76.1239 61.54 75.3564C61.471 74.5888 61.4366 73.3678 61.4366 71.6932V34.957ZM78.3916 15.5946C77.9092 16.5714 77.0132 17.2692 75.7036 17.6878C74.3941 18.1065 72.6366 18.3158 70.431 18.3158C68.2944 18.3158 66.5713 18.1065 65.2618 17.6878C63.9523 17.2692 63.0218 16.5365 62.4704 15.4899C61.988 14.4433 61.6778 13.5362 61.54 12.7687C61.471 11.9314 61.4366 10.7104 61.4366 9.10556C61.4366 7.50075 61.471 6.31458 61.54 5.54707C61.6778 4.70977 61.988 3.80271 62.4704 2.82586C63.4353 0.941955 66.1233 0 70.5344 0C74.8765 0 77.4956 0.941955 78.3916 2.82586C78.943 3.87248 79.2532 4.81444 79.3221 5.65173C79.4599 6.41925 79.5288 7.60541 79.5288 9.21022C79.5288 10.815 79.4599 12.0361 79.3221 12.8734C79.2532 13.6409 78.943 14.548 78.3916 15.5946Z" fill="white"/>
<path d="M115.988 25.7468C122.88 25.7468 128.601 28.4331 133.15 33.8057C137.768 39.1086 140.076 45.5976 140.076 53.2728V71.6932C140.076 73.298 140.008 74.5191 139.87 75.3564C139.801 76.1239 139.525 76.9961 139.043 77.9729C138.078 79.8568 135.39 80.7988 130.979 80.7988C126.085 80.7988 123.259 79.5079 122.501 76.9263C122.088 75.7401 121.881 73.9609 121.881 71.5885V53.1681C121.881 50.3073 121.054 48.0746 119.4 46.4698C117.814 44.8649 115.643 44.0625 112.886 44.0625C110.198 44.0625 107.993 44.8998 106.27 46.5744C104.616 48.249 103.789 50.4469 103.789 53.1681V71.6932C103.789 73.298 103.72 74.5191 103.582 75.3564C103.513 76.1239 103.203 76.9961 102.651 77.9729C101.755 79.8568 99.1018 80.7988 94.6907 80.7988C90.3485 80.7988 87.695 79.8568 86.7301 77.9729C86.2476 76.9263 85.9375 76.0192 85.7996 75.2517C85.7307 74.4144 85.6963 73.1934 85.6963 71.5885V34.5383C85.6963 33.0033 85.7307 31.852 85.7996 31.0845C85.9375 30.2472 86.2821 29.3401 86.8335 28.3633C87.7984 26.6189 90.4519 25.7468 94.7941 25.7468C98.9984 25.7468 101.583 26.5492 102.548 28.154C103.237 29.3401 103.582 30.7705 103.582 32.4451C103.857 31.9567 104.478 31.2589 105.443 30.3519C106.408 29.4448 107.338 28.7122 108.234 28.154C110.577 26.5492 113.162 25.7468 115.988 25.7468Z" fill="white"/>
<path d="M180.702 2.82586C181.253 1.77925 182.184 1.04662 183.493 0.627974C184.803 0.209325 186.526 0 188.663 0C190.868 0 192.626 0.209325 193.935 0.627974C195.245 1.04662 196.141 1.77925 196.623 2.82586C197.174 3.87248 197.485 4.81444 197.554 5.65173C197.691 6.41925 197.76 7.60541 197.76 9.21022V71.6932C197.76 73.298 197.691 74.5191 197.554 75.3564C197.485 76.1239 197.174 76.9961 196.623 77.9729C195.589 79.8568 192.66 80.7988 187.835 80.7988C183.08 80.7988 180.426 79.0893 179.875 75.6703C176.98 79.0195 172.948 80.6941 167.779 80.6941C161.576 80.6941 155.924 77.9729 150.824 72.5305C145.724 67.0183 143.173 60.634 143.173 53.3774C143.173 46.0511 145.724 39.6319 150.824 34.1197C155.993 28.6075 161.645 25.8514 167.779 25.8514C172.879 25.8514 176.842 27.5958 179.668 31.0845V9.10556C179.668 7.50075 179.703 6.31458 179.771 5.54707C179.909 4.70977 180.219 3.80271 180.702 2.82586ZM163.954 59.6571C165.746 61.541 167.917 62.483 170.467 62.483C173.017 62.483 175.119 61.541 176.773 59.6571C178.496 57.7732 179.358 55.7149 179.358 53.4821C179.358 51.1795 178.531 49.0514 176.877 47.0977C175.291 45.144 173.12 44.1672 170.363 44.1672C167.607 44.1672 165.401 45.144 163.747 47.0977C162.093 48.9816 161.266 51.0749 161.266 53.3774C161.266 55.68 162.162 57.7732 163.954 59.6571Z" fill="white"/>
<path d="M201.908 34.957C201.908 33.3522 201.942 32.166 202.011 31.3985C202.149 30.5612 202.459 29.6192 202.942 28.5726C203.906 26.7585 206.594 25.8514 211.006 25.8514C214.314 25.8514 216.657 26.4445 218.036 27.6307C219.207 28.6075 219.828 30.1077 219.897 32.1311C219.966 32.8289 220 33.8406 220 35.1663V71.7979C220 73.4027 219.931 74.6237 219.793 75.461C219.724 76.2285 219.414 77.1356 218.863 78.1822C217.967 79.9964 215.313 80.9034 210.902 80.9034C206.56 80.9034 203.906 79.9615 202.942 78.0776C202.459 77.031 202.149 76.1239 202.011 75.3564C201.942 74.5888 201.908 73.3678 201.908 71.6932V34.957ZM218.863 15.5946C218.38 16.5714 217.484 17.2692 216.175 17.6878C214.865 18.1065 213.108 18.3158 210.902 18.3158C208.766 18.3158 207.042 18.1065 205.733 17.6878C204.423 17.2692 203.493 16.5365 202.942 15.4899C202.459 14.4433 202.149 13.5362 202.011 12.7687C201.942 11.9314 201.908 10.7104 201.908 9.10556C201.908 7.50075 201.942 6.31458 202.011 5.54707C202.149 4.70977 202.459 3.80271 202.942 2.82586C203.906 0.941955 206.594 0 211.006 0C215.348 0 217.967 0.941955 218.863 2.82586C219.414 3.87248 219.724 4.81444 219.793 5.65173C219.931 6.41925 220 7.60541 220 9.21022C220 10.815 219.931 12.0361 219.793 12.8734C219.724 13.6409 219.414 14.548 218.863 15.5946Z" fill="white"/>
<path d="M10.0523 94.6625C10.3722 95.3226 10.5321 96.0574 10.5321 96.867C10.5321 97.6765 10.3722 98.4113 10.0523 99.0714C9.73244 99.719 9.32031 100.236 8.81592 100.622C7.79482 101.419 6.73683 101.818 5.64192 101.818H3.33524V103.929C3.33524 104.215 3.32293 104.433 3.29833 104.582C3.28603 104.719 3.23067 104.881 3.13225 105.068C2.96002 105.404 2.48023 105.573 1.69288 105.573C0.831717 105.573 0.327322 105.342 0.179694 104.881C0.10588 104.67 0.0689735 104.346 0.0689735 103.91V93.5417C0.0689735 93.2552 0.0751247 93.0435 0.0874269 92.9065C0.112032 92.757 0.173543 92.5889 0.271962 92.4021C0.444194 92.0658 0.923984 91.8977 1.71133 91.8977H5.66037C6.74298 91.8977 7.79482 92.2962 8.81592 93.0933C9.32031 93.4794 9.73244 94.0025 10.0523 94.6625ZM5.66037 98.5109C6.02944 98.5109 6.39236 98.3739 6.74913 98.0999C7.1059 97.8259 7.28428 97.4149 7.28428 96.867C7.28428 96.319 7.1059 95.908 6.74913 95.634C6.39236 95.3475 6.02329 95.2043 5.64192 95.2043H3.33524V98.5109H5.66037Z" fill="white"/>
<path d="M11.7285 92.757C11.7285 92.4706 11.7347 92.2589 11.747 92.1219C11.7716 91.9724 11.827 91.8043 11.9131 91.6175C12.0853 91.2812 12.5651 91.1131 13.3524 91.1131C14.1029 91.1131 14.5704 91.2812 14.7549 91.6175C14.8533 91.8043 14.9087 91.9724 14.921 92.1219C14.9456 92.2713 14.9579 92.4893 14.9579 92.7757V101.425C14.9579 101.874 14.9948 102.16 15.0686 102.285C15.1424 102.397 15.3024 102.453 15.5484 102.453C15.8068 102.453 15.979 102.465 16.0651 102.49C16.1512 102.503 16.2558 102.552 16.3788 102.64C16.6249 102.801 16.7479 103.244 16.7479 103.966C16.7479 104.751 16.6249 105.23 16.3788 105.404C16.059 105.629 15.2962 105.666 14.0906 105.516C13.1433 105.392 12.5282 105.074 12.2452 104.564C11.9008 103.953 11.7285 102.982 11.7285 101.649V92.757Z" fill="white"/>
<path d="M24.0766 96.7922C24.1505 96.0948 24.6364 95.7461 25.5345 95.7461C26.0143 95.7461 26.371 95.7834 26.6048 95.8582C26.8385 95.9329 26.9984 96.0637 27.0846 96.2505C27.183 96.4373 27.2383 96.6054 27.2506 96.7549C27.2752 96.8919 27.2875 97.1036 27.2875 97.39V103.929C27.2875 104.215 27.2752 104.433 27.2506 104.582C27.2383 104.719 27.1891 104.881 27.103 105.068C26.9308 105.392 26.5064 105.554 25.8297 105.554C25.1654 105.554 24.7164 105.473 24.4826 105.311C24.2612 105.137 24.132 104.888 24.0951 104.564C23.6399 105.224 22.8772 105.554 21.8069 105.554C20.7489 105.554 19.7647 105.062 18.8543 104.078C17.9439 103.094 17.4888 101.955 17.4888 100.659C17.4888 99.3516 17.9439 98.212 18.8543 97.2406C19.777 96.2567 20.7858 95.7647 21.8807 95.7647C22.299 95.7647 22.6803 95.8395 23.0248 95.9889C23.3693 96.1384 23.6092 96.2816 23.7445 96.4186C23.8798 96.5431 23.9905 96.6677 24.0766 96.7922ZM20.7181 100.678C20.7181 101.089 20.878 101.463 21.1979 101.799C21.5178 102.123 21.9053 102.285 22.3605 102.285C22.8157 102.285 23.1909 102.116 23.4861 101.78C23.7937 101.444 23.9475 101.077 23.9475 100.678C23.9475 100.267 23.7998 99.8871 23.5046 99.5384C23.2216 99.1897 22.8341 99.0153 22.342 99.0153C21.8622 99.0153 21.4686 99.1897 21.161 99.5384C20.8657 99.8871 20.7181 100.267 20.7181 100.678Z" fill="white"/>
<path d="M37.4401 95.8582C38.166 96.182 38.5289 96.5743 38.5289 97.0351C38.5289 97.2593 38.4797 97.471 38.3813 97.6703C38.2828 97.8695 38.2336 97.9754 38.2336 97.9878L33.3988 108.935C33.3004 109.172 33.2143 109.352 33.1405 109.477C33.079 109.601 32.9744 109.72 32.8268 109.832C32.6791 109.944 32.4946 110 32.2732 110C32.0517 110 31.7257 109.907 31.2951 109.72C30.5693 109.396 30.2064 109.01 30.2064 108.562C30.2064 108.263 30.7969 106.837 31.9779 104.283L28.3057 98.0252C28.0596 97.6142 27.9366 97.3091 27.9366 97.1098C27.9366 96.7113 28.2688 96.3127 28.9331 95.9142C29.3514 95.6651 29.6774 95.5406 29.9111 95.5406C30.1449 95.5406 30.3355 95.5904 30.4832 95.69C30.6308 95.7897 30.7354 95.8955 30.7969 96.0076C30.8707 96.1072 31.209 96.6864 31.8118 97.745C32.4269 98.7911 33.0113 99.7688 33.5649 100.678C33.6264 100.479 33.9586 99.7128 34.5614 98.3801C35.1642 97.0351 35.4841 96.319 35.521 96.2318C35.5702 96.1446 35.644 96.0387 35.7424 95.9142C35.9023 95.7025 36.1238 95.5966 36.4067 95.5966C36.702 95.5966 37.0465 95.6838 37.4401 95.8582Z" fill="white"/>
<path d="M50.819 102.826H55.8384C56.2444 102.826 56.5396 102.876 56.7242 102.976C56.9087 103.063 57.0317 103.206 57.0932 103.405C57.1547 103.605 57.1855 103.872 57.1855 104.209C57.1855 104.533 57.1547 104.794 57.0932 104.993C57.0317 105.193 56.9271 105.33 56.7795 105.404C56.5458 105.529 56.2259 105.591 55.8199 105.591H49.1767C48.3155 105.591 47.8111 105.355 47.6635 104.881C47.5897 104.682 47.5528 104.364 47.5528 103.929V93.5417C47.5528 93.2552 47.5589 93.0435 47.5712 92.9065C47.5958 92.757 47.6574 92.5889 47.7558 92.4021C47.928 92.0658 48.4078 91.8977 49.1951 91.8977C50.0563 91.8977 50.5668 92.1281 50.7268 92.5889C50.7883 92.8006 50.819 93.1244 50.819 93.5603V102.826Z" fill="white"/>
<path d="M67.0189 99.501C67.0189 100.261 66.8282 100.827 66.4468 101.201C66.0778 101.562 65.6656 101.743 65.2104 101.743H60.837C60.837 102.092 61.04 102.384 61.4459 102.621C61.8519 102.857 62.2579 102.976 62.6639 102.976C63.3774 102.976 63.9372 102.901 64.3431 102.752L64.5461 102.677C64.8414 102.54 65.0874 102.471 65.2843 102.471C65.6779 102.471 66.0163 102.752 66.2992 103.312C66.4591 103.648 66.5391 103.935 66.5391 104.171C66.5391 105.28 65.2289 105.834 62.6085 105.834C61.6981 105.834 60.8862 105.678 60.1726 105.367C59.4714 105.043 58.924 104.62 58.5303 104.097C57.7552 103.088 57.3677 101.961 57.3677 100.715C57.3677 99.1461 57.866 97.8944 58.8624 96.9604C59.8712 96.0138 61.1261 95.5406 62.627 95.5406C64.337 95.5406 65.5918 96.1508 66.3915 97.3713C66.8098 98.019 67.0189 98.7289 67.0189 99.501ZM63.1252 100.043C63.5927 100.043 63.8264 99.8435 63.8264 99.445C63.8264 99.1585 63.7157 98.9281 63.4943 98.7538C63.2851 98.5794 62.9776 98.4922 62.5716 98.4922C62.1779 98.4922 61.7842 98.6604 61.3906 98.9966C60.9969 99.3204 60.8001 99.6692 60.8001 100.043H63.1252Z" fill="white"/>
<path d="M74.5339 96.7922C74.6077 96.0948 75.0937 95.7461 75.9917 95.7461C76.4715 95.7461 76.8283 95.7834 77.062 95.8582C77.2958 95.9329 77.4557 96.0637 77.5418 96.2505C77.6402 96.4373 77.6956 96.6054 77.7079 96.7549C77.7325 96.8919 77.7448 97.1036 77.7448 97.39V103.929C77.7448 104.215 77.7325 104.433 77.7079 104.582C77.6956 104.719 77.6464 104.881 77.5603 105.068C77.3881 105.392 76.9636 105.554 76.287 105.554C75.6227 105.554 75.1736 105.473 74.9399 105.311C74.7184 105.137 74.5893 104.888 74.5524 104.564C74.0972 105.224 73.3344 105.554 72.2641 105.554C71.2061 105.554 70.222 105.062 69.3116 104.078C68.4012 103.094 67.946 101.955 67.946 100.659C67.946 99.3516 68.4012 98.212 69.3116 97.2406C70.2343 96.2567 71.243 95.7647 72.338 95.7647C72.7562 95.7647 73.1376 95.8395 73.4821 95.9889C73.8265 96.1384 74.0664 96.2816 74.2018 96.4186C74.3371 96.5431 74.4478 96.6677 74.5339 96.7922ZM71.1754 100.678C71.1754 101.089 71.3353 101.463 71.6552 101.799C71.975 102.123 72.3626 102.285 72.8177 102.285C73.2729 102.285 73.6481 102.116 73.9434 101.78C74.251 101.444 74.4047 101.077 74.4047 100.678C74.4047 100.267 74.2571 99.8871 73.9619 99.5384C73.6789 99.1897 73.2914 99.0153 72.7993 99.0153C72.3195 99.0153 71.9258 99.1897 71.6183 99.5384C71.323 99.8871 71.1754 100.267 71.1754 100.678Z" fill="white"/>
<path d="M85.822 95.8582C86.0557 95.9329 86.2464 96.0637 86.394 96.2505C86.554 96.4248 86.6339 96.7113 86.6339 97.1098C86.6339 97.5083 86.517 97.9442 86.2833 98.4175C86.0496 98.8908 85.7112 99.1274 85.2684 99.1274C85.0469 99.1274 84.8316 99.0776 84.6225 98.978C84.4257 98.8783 84.1611 98.8285 83.829 98.8285C83.4968 98.8285 83.1831 98.9468 82.8879 99.1834C82.6049 99.4201 82.4634 99.7065 82.4634 100.043V103.966C82.4634 104.252 82.4511 104.47 82.4265 104.62C82.4142 104.757 82.3589 104.919 82.2604 105.105C82.0759 105.429 81.5961 105.591 80.8211 105.591C80.2306 105.591 79.8061 105.485 79.5478 105.274C79.351 105.099 79.2402 104.831 79.2156 104.47C79.2156 104.346 79.2156 104.165 79.2156 103.929V97.3713C79.2156 97.0849 79.2218 96.8732 79.2341 96.7362C79.2587 96.5867 79.314 96.4248 79.4002 96.2505C79.5724 95.9142 80.0522 95.7461 80.8395 95.7461C81.5777 95.7461 82.039 95.8893 82.2235 96.1757C82.3589 96.375 82.4265 96.5805 82.4265 96.7922C82.488 96.705 82.5742 96.5992 82.6849 96.4746C82.8079 96.3501 83.0601 96.182 83.4415 95.9702C83.8228 95.7585 84.155 95.6527 84.438 95.6527C84.7332 95.6527 84.9792 95.6713 85.1761 95.7087C85.3729 95.7336 85.5882 95.7834 85.822 95.8582Z" fill="white"/>
<path d="M93.0563 95.7461C94.2865 95.7461 95.3076 96.2256 96.1196 97.1845C96.9438 98.1311 97.356 99.2893 97.356 100.659V103.947C97.356 104.234 97.3437 104.452 97.319 104.601C97.3067 104.738 97.2575 104.894 97.1714 105.068C96.9992 105.404 96.5194 105.573 95.732 105.573C94.8586 105.573 94.3542 105.342 94.2189 104.881C94.1451 104.67 94.1081 104.352 94.1081 103.929V100.641C94.1081 100.13 93.9605 99.7314 93.6653 99.445C93.3823 99.1585 92.9948 99.0153 92.5027 99.0153C92.0229 99.0153 91.6292 99.1648 91.3217 99.4637C91.0264 99.7626 90.8788 100.155 90.8788 100.641V103.947C90.8788 104.234 90.8665 104.452 90.8419 104.601C90.8296 104.738 90.7742 104.894 90.6758 105.068C90.5159 105.404 90.0422 105.573 89.2549 105.573C88.4798 105.573 88.0062 105.404 87.834 105.068C87.7478 104.881 87.6925 104.719 87.6679 104.582C87.6556 104.433 87.6494 104.215 87.6494 103.929V97.3153C87.6494 97.0413 87.6556 96.8358 87.6679 96.6988C87.6925 96.5494 87.754 96.3875 87.8524 96.2131C88.0247 95.9017 88.4983 95.7461 89.2733 95.7461C90.0238 95.7461 90.4851 95.8893 90.6573 96.1757C90.7804 96.3875 90.8419 96.6428 90.8419 96.9417C90.8911 96.8545 91.0018 96.7299 91.174 96.568C91.3463 96.4061 91.5124 96.2754 91.6723 96.1757C92.0906 95.8893 92.5519 95.7461 93.0563 95.7461Z" fill="white"/>
<path d="M113.833 97.334H117.081C117.745 97.3589 118.151 97.5333 118.299 97.8571C118.422 98.0937 118.483 98.4424 118.483 98.9032V103.013C118.483 103.412 118.311 103.792 117.967 104.153C116.933 105.236 115.383 105.778 113.316 105.778C111.483 105.778 109.89 105.081 108.537 103.686C107.184 102.278 106.507 100.585 106.507 98.6043C106.507 96.6241 107.196 94.9739 108.574 93.6537C109.952 92.3211 111.576 91.6548 113.445 91.6548C114.897 91.6548 116.269 92.1405 117.561 93.112C117.893 93.3611 118.059 93.6413 118.059 93.9526C118.059 94.2515 117.917 94.6003 117.634 94.9988C117.155 95.6589 116.718 95.9889 116.324 95.9889C116.09 95.9889 115.715 95.8208 115.199 95.4845C114.682 95.1358 114.067 94.9614 113.353 94.9614C112.418 94.9614 111.588 95.2977 110.862 95.9702C110.136 96.6303 109.773 97.5021 109.773 98.5856C109.773 99.6567 110.142 100.572 110.88 101.332C111.619 102.079 112.455 102.453 113.39 102.453C114.067 102.453 114.676 102.341 115.217 102.116V100.08H113.759C113.378 100.08 113.107 100.03 112.947 99.9307C112.787 99.8311 112.683 99.6879 112.634 99.501C112.584 99.3018 112.56 99.0402 112.56 98.7164C112.56 98.3801 112.584 98.1124 112.634 97.9131C112.695 97.7138 112.8 97.5768 112.947 97.5021C113.169 97.39 113.464 97.334 113.833 97.334Z" fill="white"/>
<path d="M126.563 95.8582C126.797 95.9329 126.988 96.0637 127.135 96.2505C127.295 96.4248 127.375 96.7113 127.375 97.1098C127.375 97.5083 127.259 97.9442 127.025 98.4175C126.791 98.8908 126.453 99.1274 126.01 99.1274C125.788 99.1274 125.573 99.0776 125.364 98.978C125.167 98.8783 124.903 98.8285 124.57 98.8285C124.238 98.8285 123.925 98.9468 123.629 99.1834C123.346 99.4201 123.205 99.7065 123.205 100.043V103.966C123.205 104.252 123.193 104.47 123.168 104.62C123.156 104.757 123.1 104.919 123.002 105.105C122.817 105.429 122.338 105.591 121.563 105.591C120.972 105.591 120.548 105.485 120.289 105.274C120.092 105.099 119.982 104.831 119.957 104.47C119.957 104.346 119.957 104.165 119.957 103.929V97.3713C119.957 97.0849 119.963 96.8732 119.976 96.7362C120 96.5867 120.056 96.4248 120.142 96.2505C120.314 95.9142 120.794 95.7461 121.581 95.7461C122.319 95.7461 122.78 95.8893 122.965 96.1757C123.1 96.375 123.168 96.5805 123.168 96.7922C123.229 96.705 123.316 96.5992 123.426 96.4746C123.549 96.3501 123.802 96.182 124.183 95.9702C124.564 95.7585 124.896 95.6527 125.179 95.6527C125.475 95.6527 125.721 95.6713 125.918 95.7087C126.114 95.7336 126.33 95.7834 126.563 95.8582Z" fill="white"/>
<path d="M127.555 100.678C127.555 99.1835 128.072 97.9505 129.106 96.979C130.139 96.0076 131.32 95.5219 132.649 95.5219C133.977 95.5219 135.152 96.0076 136.173 96.979C137.194 97.938 137.705 99.1648 137.705 100.659C137.705 101.693 137.44 102.615 136.911 103.424C136.382 104.221 135.736 104.813 134.974 105.199C134.223 105.572 133.442 105.759 132.63 105.759C131.818 105.759 131.031 105.56 130.268 105.162C129.505 104.751 128.859 104.153 128.33 103.368C127.814 102.571 127.555 101.674 127.555 100.678ZM131.412 102.023C131.806 102.322 132.206 102.471 132.612 102.471C133.018 102.471 133.424 102.316 133.83 102.004C134.236 101.693 134.439 101.232 134.439 100.622C134.439 100.012 134.248 99.5571 133.867 99.2582C133.485 98.9593 133.073 98.8098 132.63 98.8098C132.187 98.8098 131.775 98.9655 131.394 99.2769C131.012 99.5882 130.822 100.049 130.822 100.659C130.822 101.257 131.019 101.712 131.412 102.023Z" fill="white"/>
<path d="M150.974 95.8208C151.762 96.1695 152.155 96.5992 152.155 97.1098C152.155 97.3215 152.057 97.664 151.86 98.1373C151.663 98.5981 151.497 99.0029 151.362 99.3516L149.332 104.358C149.147 104.906 148.84 105.292 148.409 105.516C148.225 105.604 147.991 105.647 147.708 105.647C147.425 105.647 147.148 105.541 146.878 105.33C146.619 105.105 146.447 104.881 146.361 104.657L146.213 104.34C146.115 104.09 145.752 103.119 145.125 101.425C145.002 101.724 144.817 102.216 144.571 102.901C144.337 103.574 144.183 103.997 144.11 104.171C144.048 104.333 144.005 104.445 143.98 104.508C143.968 104.557 143.919 104.657 143.833 104.807C143.747 104.956 143.648 105.087 143.538 105.199C143.242 105.498 142.904 105.647 142.523 105.647C142.141 105.647 141.821 105.541 141.563 105.33C141.305 105.105 141.132 104.881 141.046 104.657L138.26 97.7823C138.137 97.4087 138.075 97.1659 138.075 97.0538C138.075 96.5556 138.426 96.1633 139.127 95.8768C139.521 95.7149 139.841 95.634 140.087 95.634C140.333 95.634 140.53 95.69 140.677 95.8021C140.837 95.9017 140.948 96.0076 141.009 96.1197C141.071 96.2193 141.12 96.3252 141.157 96.4373C141.366 96.9355 141.803 98.1062 142.467 99.9494L143.556 96.923C143.63 96.6739 143.765 96.456 143.962 96.2691C144.319 95.908 144.682 95.7274 145.051 95.7274C145.42 95.7274 145.734 95.827 145.992 96.0263C146.263 96.2256 146.447 96.4248 146.546 96.6241L146.693 96.9417C147.308 98.6853 147.671 99.6816 147.782 99.9307L148.908 96.8296C149.203 96.0325 149.646 95.634 150.236 95.634C150.47 95.634 150.716 95.6962 150.974 95.8208Z" fill="white"/>
<path d="M162.039 91.879H172.299C172.693 91.879 172.982 91.9288 173.167 92.0285C173.351 92.1156 173.474 92.2589 173.536 92.4581C173.597 92.6574 173.628 92.9189 173.628 93.2428C173.628 93.5666 173.597 93.8281 173.536 94.0274C173.474 94.2142 173.37 94.345 173.222 94.4197C173.001 94.5318 172.687 94.5878 172.281 94.5878H168.756V103.985C168.756 104.271 168.744 104.483 168.719 104.62C168.707 104.757 168.652 104.919 168.553 105.105C168.467 105.28 168.307 105.404 168.074 105.479C167.84 105.554 167.532 105.591 167.151 105.591C166.77 105.591 166.462 105.554 166.228 105.479C166.007 105.404 165.847 105.28 165.748 105.105C165.662 104.919 165.607 104.757 165.582 104.62C165.57 104.47 165.564 104.252 165.564 103.966V94.5878H162.021C161.627 94.5878 161.338 94.5442 161.154 94.4571C160.969 94.3574 160.846 94.208 160.784 94.0087C160.723 93.8094 160.692 93.5479 160.692 93.2241C160.692 92.9003 160.723 92.645 160.784 92.4581C160.846 92.2589 160.951 92.1219 161.098 92.0471C161.32 91.9351 161.633 91.879 162.039 91.879Z" fill="white"/>
<path d="M180.04 95.7834C181.27 95.7834 182.291 96.2567 183.103 97.2032C183.927 98.1497 184.339 99.308 184.339 100.678V103.966C184.339 104.252 184.327 104.47 184.302 104.62C184.29 104.757 184.235 104.919 184.136 105.105C183.976 105.429 183.503 105.591 182.715 105.591C181.965 105.591 181.497 105.429 181.313 105.105C181.214 104.919 181.153 104.751 181.128 104.601C181.116 104.452 181.11 104.227 181.11 103.929V100.659C181.11 100.149 180.968 99.7501 180.685 99.4637C180.403 99.1772 180.04 99.034 179.597 99.034C179.166 99.034 178.785 99.171 178.453 99.445C178.12 99.7065 177.93 100.005 177.881 100.342V103.966C177.881 104.252 177.868 104.47 177.844 104.62C177.831 104.757 177.776 104.919 177.678 105.105C177.518 105.429 177.044 105.591 176.257 105.591C175.482 105.591 175.008 105.423 174.836 105.087C174.75 104.9 174.694 104.738 174.67 104.601C174.657 104.464 174.651 104.246 174.651 103.947V92.7757C174.651 92.4893 174.657 92.2775 174.67 92.1405C174.694 91.9911 174.75 91.8292 174.836 91.6548C175.008 91.3186 175.488 91.1504 176.275 91.1504C177.05 91.1504 177.518 91.3186 177.678 91.6548C177.776 91.8417 177.831 92.0098 177.844 92.1592C177.868 92.2962 177.881 92.5079 177.881 92.7944V96.923C178.496 96.1633 179.215 95.7834 180.04 95.7834Z" fill="white"/>
<path d="M192.431 95.8582C192.664 95.9329 192.855 96.0637 193.003 96.2505C193.163 96.4248 193.242 96.7113 193.242 97.1098C193.242 97.5083 193.126 97.9442 192.892 98.4175C192.658 98.8908 192.32 99.1274 191.877 99.1274C191.656 99.1274 191.44 99.0776 191.231 98.978C191.034 98.8783 190.77 98.8285 190.438 98.8285C190.105 98.8285 189.792 98.9468 189.496 99.1834C189.213 99.4201 189.072 99.7065 189.072 100.043V103.966C189.072 104.252 189.06 104.47 189.035 104.62C189.023 104.757 188.967 104.919 188.869 105.105C188.684 105.429 188.205 105.591 187.43 105.591C186.839 105.591 186.415 105.485 186.156 105.274C185.96 105.099 185.849 104.831 185.824 104.47C185.824 104.346 185.824 104.165 185.824 103.929V97.3713C185.824 97.0849 185.83 96.8732 185.843 96.7362C185.867 96.5867 185.923 96.4248 186.009 96.2505C186.181 95.9142 186.661 95.7461 187.448 95.7461C188.186 95.7461 188.648 95.8893 188.832 96.1757C188.967 96.375 189.035 96.5805 189.035 96.7922C189.097 96.705 189.183 96.5992 189.293 96.4746C189.416 96.3501 189.669 96.182 190.05 95.9702C190.431 95.7585 190.764 95.6527 191.047 95.6527C191.342 95.6527 191.588 95.6713 191.785 95.7087C191.982 95.7336 192.197 95.7834 192.431 95.8582Z" fill="white"/>
<path d="M194.258 97.39C194.258 97.1036 194.264 96.8919 194.276 96.7549C194.301 96.6054 194.356 96.4373 194.443 96.2505C194.615 95.9267 195.095 95.7647 195.882 95.7647C196.472 95.7647 196.891 95.8706 197.137 96.0823C197.346 96.2567 197.457 96.5245 197.469 96.8856C197.481 97.0102 197.487 97.1908 197.487 97.4274V103.966C197.487 104.252 197.475 104.47 197.45 104.62C197.438 104.757 197.383 104.919 197.284 105.105C197.124 105.429 196.651 105.591 195.863 105.591C195.088 105.591 194.615 105.423 194.443 105.087C194.356 104.9 194.301 104.738 194.276 104.601C194.264 104.464 194.258 104.246 194.258 103.947V97.39ZM197.284 93.934C197.198 94.1083 197.038 94.2329 196.805 94.3076C196.571 94.3823 196.257 94.4197 195.863 94.4197C195.482 94.4197 195.175 94.3823 194.941 94.3076C194.707 94.2329 194.541 94.1021 194.443 93.9153C194.356 93.7285 194.301 93.5666 194.276 93.4296C194.264 93.2801 194.258 93.0622 194.258 92.7757C194.258 92.4893 194.264 92.2775 194.276 92.1405C194.301 91.9911 194.356 91.8292 194.443 91.6548C194.615 91.3186 195.095 91.1504 195.882 91.1504C196.657 91.1504 197.124 91.3186 197.284 91.6548C197.383 91.8417 197.438 92.0098 197.45 92.1592C197.475 92.2962 197.487 92.5079 197.487 92.7944C197.487 93.0808 197.475 93.2988 197.45 93.4482C197.438 93.5853 197.383 93.7472 197.284 93.934Z" fill="white"/>
<path d="M208.76 95.9702C209.4 96.3563 209.72 96.7673 209.72 97.2032C209.72 97.4523 209.597 97.7948 209.351 98.2307L205.531 104.863C205.408 105.074 205.211 105.267 204.94 105.442C204.67 105.604 204.399 105.685 204.128 105.685C203.87 105.685 203.618 105.622 203.372 105.498C203.138 105.361 202.972 105.224 202.874 105.087L202.708 104.881L198.869 98.2307C198.623 97.8197 198.5 97.4834 198.5 97.2219C198.5 96.7735 198.82 96.3563 199.46 95.9702C199.927 95.6962 200.296 95.5592 200.567 95.5592C200.838 95.5592 201.047 95.6464 201.194 95.8208C201.354 95.9827 201.52 96.2318 201.693 96.568L204.11 101.276L206.527 96.568C206.663 96.3314 206.761 96.1633 206.823 96.0637C206.896 95.9516 207.007 95.8457 207.155 95.7461C207.302 95.634 207.499 95.5779 207.745 95.5779C207.991 95.5779 208.33 95.7087 208.76 95.9702Z" fill="white"/>
<path d="M219.545 99.501C219.545 100.261 219.354 100.827 218.973 101.201C218.604 101.562 218.192 101.743 217.736 101.743H213.363C213.363 102.092 213.566 102.384 213.972 102.621C214.378 102.857 214.784 102.976 215.19 102.976C215.903 102.976 216.463 102.901 216.869 102.752L217.072 102.677C217.367 102.54 217.613 102.471 217.81 102.471C218.204 102.471 218.542 102.752 218.825 103.312C218.985 103.648 219.065 103.935 219.065 104.171C219.065 105.28 217.755 105.834 215.135 105.834C214.224 105.834 213.412 105.678 212.699 105.367C211.997 105.043 211.45 104.62 211.056 104.097C210.281 103.088 209.894 101.961 209.894 100.715C209.894 99.1461 210.392 97.8944 211.388 96.9604C212.397 96.0138 213.652 95.5406 215.153 95.5406C216.863 95.5406 218.118 96.1508 218.917 97.3713C219.336 98.019 219.545 98.7289 219.545 99.501ZM215.651 100.043C216.119 100.043 216.352 99.8435 216.352 99.445C216.352 99.1585 216.242 98.9281 216.02 98.7538C215.811 98.5794 215.504 98.4922 215.098 98.4922C214.704 98.4922 214.31 98.6604 213.917 98.9966C213.523 99.3204 213.326 99.6692 213.326 100.043H215.651Z" fill="white"/>
<path d="M44.8787 100.495C44.8787 100.313 44.8787 99.9941 44.8787 99.584C44.8787 99.1739 44.8787 98.9006 44.8787 98.6727C44.8787 98.4905 44.7887 98.2626 44.6537 97.9893C44.4287 97.5336 43.7535 97.2602 42.6733 97.2602C41.5931 97.2602 40.918 97.4881 40.6479 97.9893C40.5129 98.2171 40.4679 98.4449 40.4229 98.6727C40.4229 98.855 40.4229 99.1739 40.4229 99.584C40.4229 99.9941 40.4229 100.267 40.4229 100.495C40.4229 100.678 40.5129 100.905 40.6479 101.179C40.783 101.452 41.008 101.634 41.3231 101.726C41.6381 101.817 42.0882 101.862 42.6283 101.862C43.1684 101.862 43.6185 101.817 43.9336 101.726C44.2486 101.634 44.4737 101.452 44.6087 101.179C44.7437 100.905 44.8337 100.678 44.8337 100.495" fill="white"/>
<path d="M104.605 100.495C104.605 100.313 104.605 99.9941 104.605 99.584C104.605 99.1739 104.605 98.9006 104.605 98.6727C104.605 98.4905 104.515 98.2626 104.38 97.9893C104.155 97.5336 103.48 97.2602 102.4 97.2602C101.319 97.2602 100.644 97.4881 100.374 97.9893C100.239 98.2171 100.194 98.4449 100.149 98.6727C100.149 98.855 100.149 99.1739 100.149 99.584C100.149 99.9941 100.149 100.267 100.149 100.495C100.149 100.678 100.239 100.905 100.374 101.179C100.509 101.452 100.734 101.634 101.049 101.726C101.364 101.817 101.814 101.862 102.355 101.862C102.895 101.862 103.345 101.817 103.66 101.726C103.975 101.634 104.2 101.452 104.335 101.179C104.47 100.905 104.56 100.678 104.56 100.495" fill="white"/>
<path d="M160.551 100.495C160.551 100.313 160.551 99.9941 160.551 99.584C160.551 99.1739 160.551 98.9006 160.551 98.6727C160.551 98.4905 160.461 98.2626 160.325 97.9893C160.1 97.5336 159.425 97.2602 158.345 97.2602C157.265 97.2602 156.59 97.4881 156.32 97.9893C156.185 98.2171 156.14 98.4449 156.095 98.6727C156.095 98.855 156.095 99.1739 156.095 99.584C156.095 99.9941 156.095 100.267 156.095 100.495C156.095 100.678 156.185 100.905 156.32 101.179C156.455 101.452 156.68 101.634 156.995 101.726C157.31 101.817 157.76 101.862 158.3 101.862C158.84 101.862 159.29 101.817 159.605 101.726C159.92 101.634 160.145 101.452 160.28 101.179C160.416 100.905 160.506 100.678 160.506 100.495" fill="white"/>
</g>
</svg>
