<svg width="24" height="16" viewBox="0 0 24 16" fill="none" xmlns="http://www.w3.org/2000/svg">
<path d="M19 0H5C2.239 0 0 2.238 0 5V11C0 13.761 2.239 16 5 16H19C21.757 16 24 13.757 24 11V5C24 2.243 21.757 0 19 0ZM8.12 12C7.794 12 7.511 11.775 7.438 11.457L7.173 10.3H4.764L4.49 11.461C4.415 11.777 4.134 12 3.809 12C3.358 12 3.025 11.579 3.128 11.14L4.541 5.147C4.742 4.281 5.678 3.741 6.597 4.126C7.036 4.31 7.331 4.732 7.439 5.196L8.802 11.144C8.902 11.582 8.57 12 8.12 12ZM22 11C22 12.654 20.654 14 19 14H12V2H19C20.654 2 22 3.346 22 5V11ZM20.5 5.616V5.637C20.5 5.977 20.224 6.253 19.884 6.253H19.568C19.447 7.528 18.951 8.984 17.961 10.119C18.503 10.448 19.153 10.683 19.945 10.758C20.26 10.788 20.5 11.054 20.5 11.371V11.392C20.5 11.758 20.184 12.04 19.82 12.005C18.683 11.896 17.761 11.516 17.012 10.983C16.259 11.521 15.326 11.898 14.18 12.005C13.816 12.039 13.501 11.757 13.501 11.391V11.37C13.501 11.049 13.749 10.786 14.069 10.756C14.857 10.681 15.507 10.449 16.046 10.121C15.715 9.742 15.439 9.327 15.213 8.894C15 8.486 15.302 7.998 15.762 7.998H15.772C15.998 7.998 16.209 8.12 16.313 8.32C16.498 8.672 16.729 9.011 17.006 9.322C17.824 8.402 18.198 7.214 18.309 6.251H14.118C13.778 6.251 13.502 5.975 13.502 5.635V5.614C13.502 5.274 13.778 4.998 14.118 4.998H16.375V4.614C16.375 4.274 16.651 3.998 16.991 3.998H17.012C17.352 3.998 17.628 4.274 17.628 4.614V4.998H19.885C20.225 4.998 20.501 5.274 20.501 5.614L20.5 5.616ZM6.065 5.463L6.852 8.9H5.095L5.906 5.463C5.915 5.426 5.947 5.4 5.985 5.4C6.023 5.4 6.057 5.426 6.065 5.463Z" fill="#F05C5C"/>
</svg>
