<svg width="37" height="34" viewBox="0 0 37 34" fill="none" xmlns="http://www.w3.org/2000/svg">
<g id="Frame 1000013796">
<g id="Group 1000013958">
<path id="Vector" d="M18.3705 2.05078C27.5092 2.05078 34.9182 8.74411 34.9182 17.0002C34.9182 19.9382 33.9673 22.669 32.3467 24.9801L34.9182 31.9495L27.2037 29.6264C24.6454 31.0904 21.6227 31.9495 18.3705 31.9495C9.23172 31.9495 1.82275 25.2562 1.82275 17.0002C1.82275 8.74411 9.23172 2.05078 18.3705 2.05078Z" stroke="white" stroke-width="2.59989" stroke-linecap="round" stroke-linejoin="round"/>
<path id="Vector_2" d="M18.371 31.9495C14.0002 31.9495 10.4569 25.2565 10.4569 17.0002C10.4569 8.74384 14.0002 2.05078 18.371 2.05078C22.7419 2.05078 26.2852 8.74384 26.2852 17.0002C26.2852 25.2565 22.7419 31.9495 18.371 31.9495Z" stroke="white" stroke-width="2.59989" stroke-linecap="round" stroke-linejoin="round"/>
<path id="Vector_3" d="M32.0403 8.54883C29.1312 10.8963 24.0946 12.4487 18.3688 12.4487C12.643 12.4487 7.60965 10.8976 4.70055 8.55128" stroke="white" stroke-width="2.59989" stroke-linecap="round" stroke-linejoin="round"/>
<path id="Vector_4" d="M32.0403 25.4487C29.1926 23.1085 24.0869 21.5488 18.261 21.5488C12.5817 21.5488 7.5871 23.0313 4.70055 25.2732" stroke="white" stroke-width="2.59989" stroke-linecap="round" stroke-linejoin="round"/>
</g>
</g>
</svg>
