<svg width="32" height="33" viewBox="0 0 32 33" fill="none" xmlns="http://www.w3.org/2000/svg">
<mask id="mask0_4222_46812" style="mask-type:luminance" maskUnits="userSpaceOnUse" x="0" y="0" width="32" height="33">
<path d="M32 0.5H0V32.5H32V0.5Z" fill="white"/>
</mask>
<g mask="url(#mask0_4222_46812)">
<path d="M15.9995 32.5C24.8358 32.5 31.999 25.3358 31.999 16.5005C31.999 7.66321 24.8358 0.5 15.9995 0.5C7.16321 0.5 0 7.66321 0 16.5005C0 25.3358 7.16321 32.5 15.9995 32.5Z" fill="#CED6E9"/>
</g>
<mask id="mask1_4222_46812" style="mask-type:luminance" maskUnits="userSpaceOnUse" x="0" y="0" width="32" height="33">
<path d="M32 0.5H0V32.5H32V0.5Z" fill="white"/>
</mask>
<g mask="url(#mask1_4222_46812)">
<path d="M1.29013 13.9066L21.1105 2.46436C23.0443 3.16959 24.7923 4.26294 26.2602 5.64908L1.46912 19.9609C1.20551 18.851 1.06641 17.6915 1.06641 16.4999C1.06641 15.6147 1.14325 14.749 1.29013 13.9066Z" fill="#E4E9F5"/>
</g>
<mask id="mask2_4222_46812" style="mask-type:luminance" maskUnits="userSpaceOnUse" x="0" y="0" width="32" height="33">
<path d="M32 0.5H0V32.5H32V0.5Z" fill="white"/>
</mask>
<g mask="url(#mask2_4222_46812)">
<path d="M30.7077 19.0955C30.8556 18.2541 30.9314 17.3874 30.9314 16.5032C30.9314 13.3992 29.9859 10.517 28.3654 8.12891L10.9817 18.1656C10.9817 18.1656 2.55779 23.0292 3.40114 24.7626C4.2445 26.4951 7.23177 29.21 9.05856 29.8763C9.05856 29.8763 10.8844 30.5417 19.3082 25.678L30.7077 19.0955Z" fill="#E4E9F5"/>
</g>
<mask id="mask3_4222_46812" style="mask-type:luminance" maskUnits="userSpaceOnUse" x="0" y="0" width="32" height="33">
<path d="M32 0.5H0V32.5H32V0.5Z" fill="white"/>
</mask>
<g mask="url(#mask3_4222_46812)">
<path d="M15.9997 28.2333C22.4801 28.2333 27.7328 22.9815 27.7328 16.4992C27.7328 10.0208 22.4801 4.76611 15.9997 4.76611C9.51936 4.76611 4.2666 10.0198 4.2666 16.4992C4.2666 22.9805 9.51936 28.2333 15.9997 28.2333Z" fill="#A7B8CD"/>
</g>
<mask id="mask4_4222_46812" style="mask-type:luminance" maskUnits="userSpaceOnUse" x="0" y="0" width="32" height="33">
<path d="M32 0.5H0V32.5H32V0.5Z" fill="white"/>
</mask>
<g mask="url(#mask4_4222_46812)">
<path d="M16 27.168C21.8909 27.168 26.667 22.3919 26.667 16.501C26.667 10.6091 21.8909 5.83496 16 5.83496C10.1091 5.83496 5.33398 10.6091 5.33398 16.501C5.33398 22.3919 10.1091 27.168 16 27.168Z" fill="#CED6E9"/>
</g>
<path d="M10.572 20.0103C10.284 20.0103 10.076 19.9703 9.948 19.8903C9.82 19.8023 9.74 19.6863 9.708 19.5423C9.676 19.3983 9.66 19.2503 9.66 19.0983V12.5343C9.66 12.3743 9.672 12.2263 9.696 12.0903C9.728 11.9543 9.808 11.8423 9.936 11.7543C10.064 11.6663 10.276 11.6223 10.572 11.6223C10.876 11.6223 11.088 11.6663 11.208 11.7543C11.336 11.8423 11.412 11.9543 11.436 12.0903C11.468 12.2263 11.484 12.3743 11.484 12.5343V18.4263H14.772C14.908 18.4263 15.036 18.4383 15.156 18.4623C15.276 18.4863 15.372 18.5543 15.444 18.6663C15.524 18.7783 15.564 18.9623 15.564 19.2183C15.564 19.4663 15.524 19.6503 15.444 19.7703C15.364 19.8823 15.264 19.9503 15.144 19.9743C15.032 19.9983 14.908 20.0103 14.772 20.0103H10.572ZM16.9852 19.9983C16.7452 19.9983 16.5332 19.9063 16.3492 19.7223C16.1732 19.5303 16.0852 19.3143 16.0852 19.0743C16.0852 18.9303 16.0972 18.7943 16.1212 18.6663C16.1452 18.5383 16.1852 18.4143 16.2412 18.2943C16.3052 18.1743 16.3892 18.0663 16.4932 17.9703C16.7732 17.6823 17.0852 17.4223 17.4292 17.1903C17.7732 16.9503 18.1132 16.7263 18.4492 16.5183C18.7932 16.3023 19.1052 16.0903 19.3852 15.8823C19.6732 15.6663 19.9012 15.4383 20.0692 15.1983C20.2452 14.9503 20.3332 14.6823 20.3332 14.3943C20.3332 14.2343 20.2972 14.0743 20.2252 13.9143C20.1612 13.7463 20.0412 13.6103 19.8652 13.5063C19.6892 13.3943 19.4452 13.3383 19.1332 13.3383C18.9252 13.3383 18.7412 13.3663 18.5812 13.4223C18.4292 13.4783 18.3012 13.5623 18.1972 13.6743C18.1012 13.7783 18.0292 13.9103 17.9812 14.0703C17.9332 14.2303 17.9092 14.4143 17.9092 14.6223C17.9092 14.7743 17.8932 14.9183 17.8612 15.0543C17.8372 15.1823 17.7612 15.2863 17.6332 15.3663C17.5052 15.4463 17.2892 15.4863 16.9852 15.4863C16.6892 15.4863 16.4772 15.4423 16.3492 15.3543C16.2212 15.2583 16.1452 15.1383 16.1212 14.9943C16.0972 14.8423 16.0852 14.6903 16.0852 14.5383C16.0852 14.1543 16.1532 13.7823 16.2892 13.4223C16.4252 13.0543 16.6252 12.7303 16.8892 12.4503C17.1532 12.1623 17.4692 11.9343 17.8372 11.7663C18.2132 11.5983 18.6412 11.5143 19.1212 11.5143C19.7052 11.5143 20.2252 11.6463 20.6812 11.9103C21.1372 12.1663 21.4972 12.5223 21.7612 12.9783C22.0332 13.4343 22.1692 13.9583 22.1692 14.5503C22.1692 14.9023 22.1132 15.2263 22.0012 15.5223C21.8892 15.8183 21.7372 16.0903 21.5452 16.3383C21.3612 16.5783 21.1532 16.7943 20.9212 16.9863C20.6972 17.1783 20.4692 17.3463 20.2372 17.4903C20.0052 17.6343 19.7892 17.7623 19.5892 17.8743C19.3892 17.9783 19.2212 18.0663 19.0852 18.1383L18.9172 18.1623H21.5692C21.7292 18.1623 21.8772 18.1783 22.0132 18.2103C22.1572 18.2423 22.2692 18.3223 22.3492 18.4503C22.4372 18.5783 22.4812 18.7943 22.4812 19.0983C22.4812 19.3783 22.4372 19.5863 22.3492 19.7223C22.2612 19.8503 22.1452 19.9263 22.0012 19.9503C21.8572 19.9823 21.7052 19.9983 21.5452 19.9983H16.9852Z" fill="white"/>
</svg>
