<svg width="32" height="32" viewBox="0 0 32 32" fill="none" xmlns="http://www.w3.org/2000/svg">
<mask id="mask0_4222_46785" style="mask-type:luminance" maskUnits="userSpaceOnUse" x="0" y="0" width="32" height="32">
<path d="M32 0H0V32H32V0Z" fill="white"/>
</mask>
<g mask="url(#mask0_4222_46785)">
<path d="M16.001 32C24.8375 32 32.001 24.836 32.001 16C32.001 7.16299 24.8385 0 16.001 0C7.16342 0 0 7.16299 0 16C0 24.836 7.16342 32 16.001 32Z" fill="#DD8854"/>
</g>
<mask id="mask1_4222_46785" style="mask-type:luminance" maskUnits="userSpaceOnUse" x="0" y="0" width="32" height="32">
<path d="M32 0H0V32H32V0Z" fill="white"/>
</mask>
<g mask="url(#mask1_4222_46785)">
<path d="M1.29014 13.4063L21.1112 1.96436C23.045 2.66957 24.7931 3.76288 26.261 5.14899L1.46913 19.4604C1.20551 18.3505 1.06641 17.1901 1.06641 15.9995C1.06641 15.1143 1.14325 14.2486 1.29014 13.4063Z" fill="#F2A573"/>
</g>
<mask id="mask2_4222_46785" style="mask-type:luminance" maskUnits="userSpaceOnUse" x="0" y="0" width="32" height="32">
<path d="M32 0H0V32H32V0Z" fill="white"/>
</mask>
<g mask="url(#mask2_4222_46785)">
<path d="M30.7095 18.5952C30.8564 17.7538 30.9323 16.8871 30.9323 16.0029C30.9323 12.899 29.9867 10.0169 28.3661 7.62891L10.9819 17.6662C10.9819 17.6662 2.55776 22.5298 3.40115 24.2621C4.24453 25.9945 7.23189 28.7093 9.05873 29.3766C9.05873 29.3766 10.8846 30.0419 19.3087 25.1784L30.7095 18.5952Z" fill="#F2A573"/>
</g>
<mask id="mask3_4222_46785" style="mask-type:luminance" maskUnits="userSpaceOnUse" x="0" y="0" width="32" height="32">
<path d="M32 0H0V32H32V0Z" fill="white"/>
</mask>
<g mask="url(#mask3_4222_46785)">
<path d="M16.001 27.7326C22.4816 27.7326 27.7345 22.48 27.7345 15.9989C27.7345 9.52066 22.4816 4.26611 16.001 4.26611C9.5205 4.26611 4.26758 9.51969 4.26758 15.9989C4.26758 22.48 9.5205 27.7326 16.001 27.7326Z" fill="#D4753D"/>
</g>
<mask id="mask4_4222_46785" style="mask-type:luminance" maskUnits="userSpaceOnUse" x="0" y="0" width="32" height="32">
<path d="M32 0H0V32H32V0Z" fill="white"/>
</mask>
<g mask="url(#mask4_4222_46785)">
<path d="M16.0013 26.6678C21.8914 26.6678 26.6676 21.8918 26.6676 16.0011C26.6676 10.1095 21.8914 5.33545 16.0013 5.33545C10.1103 5.33545 5.33496 10.1095 5.33496 16.0011C5.33399 21.8909 10.1103 26.6678 16.0013 26.6678Z" fill="#DD8854"/>
</g>
<path d="M11.239 20.337C10.951 20.337 10.743 20.297 10.615 20.217C10.487 20.129 10.407 20.013 10.375 19.869C10.343 19.725 10.327 19.577 10.327 19.425V12.861C10.327 12.701 10.339 12.553 10.363 12.417C10.395 12.281 10.475 12.169 10.603 12.081C10.731 11.993 10.943 11.949 11.239 11.949C11.543 11.949 11.755 11.993 11.875 12.081C12.003 12.169 12.079 12.281 12.103 12.417C12.135 12.553 12.151 12.701 12.151 12.861V18.753H15.439C15.575 18.753 15.703 18.765 15.823 18.789C15.943 18.813 16.039 18.881 16.111 18.993C16.191 19.105 16.231 19.289 16.231 19.545C16.231 19.793 16.191 19.977 16.111 20.097C16.031 20.209 15.931 20.277 15.811 20.301C15.699 20.325 15.575 20.337 15.439 20.337H11.239ZM19.7161 20.361C19.3881 20.361 19.1561 20.293 19.0201 20.157C18.8921 20.021 18.8281 19.785 18.8281 19.449V12.849C18.8281 12.513 18.8921 12.281 19.0201 12.153C19.1561 12.017 19.3921 11.949 19.7281 11.949C20.0641 11.949 20.2961 12.017 20.4241 12.153C20.5601 12.289 20.6281 12.529 20.6281 12.873V19.461C20.6281 19.797 20.5601 20.033 20.4241 20.169C20.2961 20.297 20.0601 20.361 19.7161 20.361ZM18.2041 15.213C17.9721 15.413 17.7641 15.509 17.5801 15.501C17.3961 15.493 17.2001 15.377 16.9921 15.153C16.7681 14.913 16.6641 14.693 16.6801 14.493C16.6961 14.285 16.8361 14.065 17.1001 13.833L18.8881 12.249C19.1121 12.049 19.3161 11.957 19.5001 11.973C19.6921 11.989 19.8921 12.113 20.1001 12.345C20.3161 12.569 20.4161 12.781 20.4001 12.981C20.3841 13.181 20.2401 13.401 19.9681 13.641L18.2041 15.213Z" fill="white"/>
</svg>
