<svg width="32" height="32" viewBox="0 0 32 32" fill="none" xmlns="http://www.w3.org/2000/svg">
<mask id="mask0_4222_46847" style="mask-type:luminance" maskUnits="userSpaceOnUse" x="0" y="0" width="32" height="32">
<path d="M32 0H0V32H32V0Z" fill="white"/>
</mask>
<g mask="url(#mask0_4222_46847)">
<path d="M15.9995 32C24.8358 32 31.999 24.8358 31.999 16.0005C31.999 7.16321 24.8358 0 15.9995 0C7.16321 0 0 7.16321 0 16.0005C0 24.8358 7.16321 32 15.9995 32Z" fill="#FDCC5A"/>
</g>
<mask id="mask1_4222_46847" style="mask-type:luminance" maskUnits="userSpaceOnUse" x="0" y="0" width="32" height="32">
<path d="M32 0H0V32H32V0Z" fill="white"/>
</mask>
<g mask="url(#mask1_4222_46847)">
<path d="M1.29014 13.4066L21.1105 1.96436C23.0443 2.66959 24.7923 3.76294 26.2602 5.14908L1.46912 19.4609C1.20551 18.351 1.06641 17.1915 1.06641 15.9999C1.06641 15.1147 1.14326 14.249 1.29014 13.4066Z" fill="#FFDC91"/>
</g>
<mask id="mask2_4222_46847" style="mask-type:luminance" maskUnits="userSpaceOnUse" x="0" y="0" width="32" height="32">
<path d="M32 0H0V32H32V0Z" fill="white"/>
</mask>
<g mask="url(#mask2_4222_46847)">
<path d="M30.7085 18.5945C30.8564 17.7531 30.9322 16.8864 30.9322 16.0022C30.9322 12.8982 29.9867 10.017 28.3662 7.62891L2.55957 22.5283C4.24629 25.9941 7.23355 28.709 10.8862 30.0407L30.7085 18.5945Z" fill="#FFDC91"/>
</g>
<mask id="mask3_4222_46847" style="mask-type:luminance" maskUnits="userSpaceOnUse" x="0" y="0" width="32" height="32">
<path d="M32 0H0V32H32V0Z" fill="white"/>
</mask>
<g mask="url(#mask3_4222_46847)">
<path d="M15.9997 27.7333C22.4801 27.7333 27.7328 22.4815 27.7328 15.9992C27.7328 9.52082 22.4801 4.26611 15.9997 4.26611C9.51936 4.26611 4.2666 9.51985 4.2666 15.9992C4.2666 22.4805 9.51936 27.7333 15.9997 27.7333Z" fill="#F1AF4B"/>
</g>
<mask id="mask4_4222_46847" style="mask-type:luminance" maskUnits="userSpaceOnUse" x="0" y="0" width="32" height="32">
<path d="M32 0H0V32H32V0Z" fill="white"/>
</mask>
<g mask="url(#mask4_4222_46847)">
<path d="M16 26.668C21.8909 26.668 26.667 21.8919 26.667 16.001C26.667 10.1091 21.8909 5.33496 16 5.33496C10.1091 5.33496 5.33398 10.1091 5.33398 16.001C5.33398 21.8919 10.1091 26.668 16 26.668Z" fill="#FDCC5A"/>
</g>
<path d="M10.572 20.108C10.284 20.108 10.076 20.068 9.948 19.988C9.82 19.9 9.74 19.784 9.708 19.64C9.676 19.496 9.66 19.348 9.66 19.196V12.632C9.66 12.472 9.672 12.324 9.696 12.188C9.728 12.052 9.808 11.94 9.936 11.852C10.064 11.764 10.276 11.72 10.572 11.72C10.876 11.72 11.088 11.764 11.208 11.852C11.336 11.94 11.412 12.052 11.436 12.188C11.468 12.324 11.484 12.472 11.484 12.632V18.524H14.772C14.908 18.524 15.036 18.536 15.156 18.56C15.276 18.584 15.372 18.652 15.444 18.764C15.524 18.876 15.564 19.06 15.564 19.316C15.564 19.564 15.524 19.748 15.444 19.868C15.364 19.98 15.264 20.048 15.144 20.072C15.032 20.096 14.908 20.108 14.772 20.108H10.572ZM19.2052 20.228C18.7812 20.228 18.3812 20.156 18.0052 20.012C17.6292 19.876 17.2972 19.688 17.0092 19.448C16.7212 19.208 16.4932 18.936 16.3252 18.632C16.1652 18.32 16.0812 17.996 16.0732 17.66C16.0732 17.228 16.4052 17.012 17.0692 17.012C17.2612 17.012 17.4052 17.032 17.5012 17.072C17.6052 17.104 17.6852 17.168 17.7412 17.264C17.7972 17.352 17.8572 17.48 17.9212 17.648C17.9452 17.728 18.0052 17.832 18.1012 17.96C18.1972 18.088 18.3332 18.204 18.5092 18.308C18.6932 18.404 18.9292 18.452 19.2172 18.452C19.4892 18.452 19.7212 18.412 19.9132 18.332C20.1132 18.244 20.2652 18.128 20.3692 17.984C20.4812 17.832 20.5372 17.664 20.5372 17.48C20.5372 17.272 20.4852 17.096 20.3812 16.952C20.2772 16.808 20.1332 16.7 19.9492 16.628C19.7732 16.556 19.5652 16.52 19.3252 16.52C19.1652 16.52 19.0132 16.508 18.8692 16.484C18.7252 16.46 18.6092 16.388 18.5212 16.268C18.4332 16.148 18.3892 15.94 18.3892 15.644C18.3892 15.348 18.4332 15.144 18.5212 15.032C18.6092 14.912 18.7252 14.844 18.8692 14.828C19.0132 14.804 19.1692 14.792 19.3372 14.792C19.5532 14.792 19.7332 14.768 19.8772 14.72C20.0212 14.672 20.1292 14.604 20.2012 14.516C20.2812 14.42 20.3212 14.304 20.3212 14.168C20.3212 14 20.2772 13.856 20.1892 13.736C20.1092 13.608 19.9932 13.512 19.8412 13.448C19.6972 13.384 19.5252 13.352 19.3252 13.352C19.1092 13.352 18.9292 13.38 18.7852 13.436C18.6492 13.484 18.5332 13.556 18.4372 13.652C18.3492 13.748 18.2692 13.852 18.1972 13.964C18.0612 14.244 17.8892 14.412 17.6812 14.468C17.4812 14.524 17.2332 14.468 16.9372 14.3C16.6652 14.132 16.5052 13.956 16.4572 13.772C16.4172 13.588 16.4572 13.368 16.5772 13.112C16.5932 13.096 16.6292 13.036 16.6852 12.932C16.7412 12.82 16.8292 12.692 16.9492 12.548C17.0772 12.396 17.2412 12.248 17.4412 12.104C17.6412 11.96 17.8852 11.84 18.1732 11.744C18.4692 11.648 18.8212 11.6 19.2292 11.6C19.7012 11.6 20.1172 11.676 20.4772 11.828C20.8452 11.972 21.1532 12.168 21.4012 12.416C21.6492 12.656 21.8372 12.924 21.9652 13.22C22.0932 13.516 22.1572 13.816 22.1572 14.12C22.1572 14.408 22.1052 14.656 22.0012 14.864C21.9052 15.072 21.7852 15.244 21.6412 15.38C21.4972 15.508 21.3652 15.6 21.2452 15.656C21.3652 15.712 21.4892 15.796 21.6172 15.908C21.7532 16.02 21.8732 16.156 21.9772 16.316C22.0892 16.468 22.1812 16.64 22.2532 16.832C22.3252 17.024 22.3612 17.232 22.3612 17.456C22.3612 17.984 22.2252 18.456 21.9532 18.872C21.6812 19.288 21.3092 19.62 20.8372 19.868C20.3652 20.108 19.8212 20.228 19.2052 20.228Z" fill="white"/>
</svg>
