<svg width="63" height="51" viewBox="0 0 63 51" fill="none" xmlns="http://www.w3.org/2000/svg">
<mask id="path-1-inside-1_7471_55688" fill="white">
<path d="M0.659218 48.3716C0.922966 48.0024 1.21292 47.6334 1.47667 47.3169C2.34704 46.2619 3.58677 45.1276 7.20011 45.1276H7.91229C9.52115 45.1276 11.8157 45.075 13.0816 44.653C13.8465 44.3629 14.2157 44.046 14.3476 43.5976C14.4795 43.1229 14.3477 42.5163 14.1631 41.6987C13.9521 40.7492 13.7146 39.7737 14.0311 38.7979C14.2157 38.2176 14.5849 37.7163 14.9277 37.2943L15.4026 36.5821L15.3234 36.1076L14.8225 35.738C14.0312 35.2896 13.3718 35.237 13.108 35.237H12.7916C12.3696 35.2634 12.0004 34.9732 11.8949 34.5248C11.763 34.0501 12.0532 33.5491 12.5543 33.3645C13.0818 33.1799 14.2157 32.5993 14.7169 31.7025L14.8225 31.492L14.6905 31.0168L14.3212 30.7534C13.6354 30.2523 12.6859 29.593 12.2639 28.1423C12.132 27.7995 12.0265 27.2981 12.2639 26.6124C12.5804 25.6102 13.4507 24.6081 14.9013 23.5004C15.93 22.7355 16.1412 22.2607 16.1676 22.1024V21.8384C16.0357 21.5483 15.5345 21.1528 14.6905 20.6781C13.53 20.0187 9.60021 17.6717 7.5166 14.4012C6.59348 12.9242 6.54072 11.684 6.51434 11.2093V11.1307C6.46159 10.7351 6.43512 10.3389 6.40874 9.86415V9.52158C6.03949 4.61587 4.93191 2.87496 3.92967 1.42434C4.40441 0.949595 4.87897 0.448371 5.38009 0C5.85483 0.580245 6.3032 1.29247 6.69883 2.08371C7.67469 4.11457 8.22855 6.59388 8.33405 9.41598C8.33405 9.9171 8.38693 10.4184 8.46605 10.8667V11.1307C8.49243 11.5 8.51885 12.3436 9.17822 13.3722C10.6288 15.6668 13.4772 17.7771 15.6663 18.9904C16.8532 19.6497 18.0666 20.4933 18.1457 21.8384C18.2248 22.8934 17.539 23.9483 16.0884 25.0561C14.6114 26.1638 14.2158 26.9025 14.1103 27.2454V27.483V27.5358C14.3213 28.3798 14.8488 28.7487 15.4554 29.1707C16.4313 29.8564 17.4072 30.7533 16.4577 32.5995C16.2731 32.916 16.0621 33.2328 15.8247 33.4965L15.7191 33.8391L15.9036 34.1295C16.8003 34.657 17.2753 35.2371 17.4335 35.9492C17.6445 36.9514 17.0116 37.7689 16.5105 38.4547C16.2731 38.7711 16.0091 39.1143 15.9036 39.4044C15.7717 39.8792 15.9038 40.5384 16.0884 41.2505C16.3258 42.2264 16.4839 43.281 16.2465 44.1778C15.9564 45.2064 15.1653 45.9716 13.7938 46.4727C12.3696 46.9474 10.3122 47.0529 7.67468 47.0529H7.411C4.21965 47.0529 3.34942 48.0814 2.61093 48.9782C2.4263 49.1892 2.18888 49.5587 1.89876 49.9543C1.66138 50.2972 1.39756 50.6398 1.16018 50.9827C0.764562 50.4552 0.369095 49.9017 -0.000151969 49.3742C0.237221 49.0577 0.500724 48.7145 0.738097 48.3716H0.659218Z"/>
</mask>
<path d="M0.659218 48.3716C0.922966 48.0024 1.21292 47.6334 1.47667 47.3169C2.34704 46.2619 3.58677 45.1276 7.20011 45.1276H7.91229C9.52115 45.1276 11.8157 45.075 13.0816 44.653C13.8465 44.3629 14.2157 44.046 14.3476 43.5976C14.4795 43.1229 14.3477 42.5163 14.1631 41.6987C13.9521 40.7492 13.7146 39.7737 14.0311 38.7979C14.2157 38.2176 14.5849 37.7163 14.9277 37.2943L15.4026 36.5821L15.3234 36.1076L14.8225 35.738C14.0312 35.2896 13.3718 35.237 13.108 35.237H12.7916C12.3696 35.2634 12.0004 34.9732 11.8949 34.5248C11.763 34.0501 12.0532 33.5491 12.5543 33.3645C13.0818 33.1799 14.2157 32.5993 14.7169 31.7025L14.8225 31.492L14.6905 31.0168L14.3212 30.7534C13.6354 30.2523 12.6859 29.593 12.2639 28.1423C12.132 27.7995 12.0265 27.2981 12.2639 26.6124C12.5804 25.6102 13.4507 24.6081 14.9013 23.5004C15.93 22.7355 16.1412 22.2607 16.1676 22.1024V21.8384C16.0357 21.5483 15.5345 21.1528 14.6905 20.6781C13.53 20.0187 9.60021 17.6717 7.5166 14.4012C6.59348 12.9242 6.54072 11.684 6.51434 11.2093V11.1307C6.46159 10.7351 6.43512 10.3389 6.40874 9.86415V9.52158C6.03949 4.61587 4.93191 2.87496 3.92967 1.42434C4.40441 0.949595 4.87897 0.448371 5.38009 0C5.85483 0.580245 6.3032 1.29247 6.69883 2.08371C7.67469 4.11457 8.22855 6.59388 8.33405 9.41598C8.33405 9.9171 8.38693 10.4184 8.46605 10.8667V11.1307C8.49243 11.5 8.51885 12.3436 9.17822 13.3722C10.6288 15.6668 13.4772 17.7771 15.6663 18.9904C16.8532 19.6497 18.0666 20.4933 18.1457 21.8384C18.2248 22.8934 17.539 23.9483 16.0884 25.0561C14.6114 26.1638 14.2158 26.9025 14.1103 27.2454V27.483V27.5358C14.3213 28.3798 14.8488 28.7487 15.4554 29.1707C16.4313 29.8564 17.4072 30.7533 16.4577 32.5995C16.2731 32.916 16.0621 33.2328 15.8247 33.4965L15.7191 33.8391L15.9036 34.1295C16.8003 34.657 17.2753 35.2371 17.4335 35.9492C17.6445 36.9514 17.0116 37.7689 16.5105 38.4547C16.2731 38.7711 16.0091 39.1143 15.9036 39.4044C15.7717 39.8792 15.9038 40.5384 16.0884 41.2505C16.3258 42.2264 16.4839 43.281 16.2465 44.1778C15.9564 45.2064 15.1653 45.9716 13.7938 46.4727C12.3696 46.9474 10.3122 47.0529 7.67468 47.0529H7.411C4.21965 47.0529 3.34942 48.0814 2.61093 48.9782C2.4263 49.1892 2.18888 49.5587 1.89876 49.9543C1.66138 50.2972 1.39756 50.6398 1.16018 50.9827C0.764562 50.4552 0.369095 49.9017 -0.000151969 49.3742C0.237221 49.0577 0.500724 48.7145 0.738097 48.3716H0.659218Z" fill="white"/>
<path d="M0.659218 48.3716V53.3716C-1.21372 53.3716 -2.9296 52.3249 -3.78662 50.6595C-4.64364 48.9942 -4.49807 46.9895 -3.40945 45.4654L0.659218 48.3716ZM1.47667 47.3169L5.33354 50.4988C5.3283 50.5051 5.32304 50.5115 5.31778 50.5178L1.47667 47.3169ZM13.0816 44.653L14.8549 49.328C14.7913 49.3521 14.7273 49.3749 14.6628 49.3964L13.0816 44.653ZM14.3476 43.5976L19.1652 44.9358C19.1584 44.9601 19.1515 44.9843 19.1444 45.0084L14.3476 43.5976ZM14.1631 41.6987L9.28589 42.8C9.28464 42.7945 9.2834 42.7889 9.28216 42.7834L14.1631 41.6987ZM14.0311 38.7979L18.7957 40.3139C18.7929 40.3227 18.7901 40.3316 18.7872 40.3404L14.0311 38.7979ZM14.9277 37.2943L19.0877 40.0682C19.0006 40.1989 18.9073 40.3254 18.8083 40.4473L14.9277 37.2943ZM15.4026 36.5821L20.3344 35.7591C20.5436 37.0126 20.2677 38.2987 19.5626 39.3561L15.4026 36.5821ZM15.3234 36.1076L18.2919 32.0841C19.3372 32.8554 20.0414 34.0032 20.2552 35.2845L15.3234 36.1076ZM14.8225 35.738L17.2875 31.3879C17.4617 31.4866 17.6298 31.5956 17.7909 31.7145L14.8225 35.738ZM12.7916 35.237L12.4797 30.2467C12.5835 30.2403 12.6875 30.237 12.7916 30.237L12.7916 35.237ZM11.8949 34.5248L16.7125 33.1866C16.7303 33.2506 16.7468 33.315 16.762 33.3796L11.8949 34.5248ZM12.5543 33.3645L10.8257 28.6728C10.8513 28.6634 10.8769 28.6542 10.9025 28.6452L12.5543 33.3645ZM14.7169 31.7025L19.1863 33.9441C19.1528 34.0107 19.1179 34.0766 19.0816 34.1417L14.7169 31.7025ZM14.8225 31.492L19.6401 30.1538C19.972 31.3489 19.8479 32.6248 19.2919 33.7335L14.8225 31.492ZM14.6905 31.0168L17.5936 26.946C18.5258 27.6108 19.2016 28.5754 19.5081 29.6786L14.6905 31.0168ZM14.3212 30.7534L11.418 34.8242C11.4023 34.813 11.3867 34.8018 11.3711 34.7904L14.3212 30.7534ZM12.2639 28.1423L16.9306 26.3474C16.9809 26.4783 17.0257 26.6111 17.0648 26.7457L12.2639 28.1423ZM12.2639 26.6124L17.0318 28.1181C17.018 28.1615 17.0037 28.2048 16.9888 28.2479L12.2639 26.6124ZM14.9013 23.5004L11.8668 19.5265C11.8837 19.5136 11.9007 19.5008 11.9178 19.488L14.9013 23.5004ZM16.1676 22.1024H21.1676C21.1676 22.3778 21.1449 22.6527 21.0996 22.9244L16.1676 22.1024ZM16.1676 21.8384L20.7194 19.7694C21.0148 20.4192 21.1676 21.1246 21.1676 21.8384H16.1676ZM14.6905 20.6781L12.2392 25.0359C12.2329 25.0324 12.2267 25.0289 12.2204 25.0254L14.6905 20.6781ZM7.5166 14.4012L3.29969 17.0878C3.29194 17.0756 3.28425 17.0634 3.27661 17.0512L7.5166 14.4012ZM6.51434 11.2093L1.52204 11.4866C1.51691 11.3943 1.51434 11.3018 1.51434 11.2093L6.51434 11.2093ZM6.51434 11.1307L11.4705 10.4699C11.4997 10.689 11.5143 10.9097 11.5143 11.1307L6.51434 11.1307ZM6.40874 9.86415L1.41644 10.1415C1.41131 10.0491 1.40874 9.95665 1.40874 9.86415L6.40874 9.86415ZM6.40874 9.52158L11.3946 9.1463C11.404 9.27117 11.4087 9.39636 11.4087 9.52158L6.40874 9.52158ZM3.92967 1.42434L-0.183986 4.2665C-1.55655 2.2799 -1.31328 -0.403779 0.394132 -2.11119L3.92967 1.42434ZM5.38009 0L2.04611 -3.72621C3.06291 -4.63597 4.40733 -5.09071 5.76762 -4.98496C7.1279 -4.87921 8.38589 -4.22217 9.24987 -3.16619L5.38009 0ZM6.69883 2.08371L11.171 -0.152356C11.1827 -0.128944 11.1942 -0.10544 11.2055 -0.0818465L6.69883 2.08371ZM8.33405 9.41598L13.3306 9.2292C13.3329 9.29143 13.3341 9.3537 13.3341 9.41598L8.33405 9.41598ZM8.46605 10.8667L13.39 9.9978C13.4406 10.2847 13.4661 10.5754 13.4661 10.8667L8.46605 10.8667ZM8.46605 11.1307L3.47876 11.487C3.47029 11.3684 3.46605 11.2496 3.46605 11.1307L8.46605 11.1307ZM9.17822 13.3722L13.3876 10.6739C13.3933 10.6827 13.3989 10.6915 13.4045 10.7004L9.17822 13.3722ZM15.6663 18.9904L18.0901 14.6171L18.0945 14.6196L15.6663 18.9904ZM18.1457 21.8384L13.1597 22.2124C13.1577 22.1856 13.1559 22.1588 13.1543 22.132L18.1457 21.8384ZM16.0884 25.0561L19.123 29.0299C19.1115 29.0387 19.1 29.0474 19.0884 29.0561L16.0884 25.0561ZM14.1103 27.2454H9.1103C9.1103 26.7469 9.18482 26.2513 9.3314 25.7749L14.1103 27.2454ZM14.1103 27.5358L9.25958 28.7484C9.16043 28.3518 9.1103 27.9446 9.1103 27.5358L14.1103 27.5358ZM15.4554 29.1707L18.3108 25.0661C18.3172 25.0707 18.3237 25.0752 18.3302 25.0797L15.4554 29.1707ZM16.4577 32.5995L20.9041 34.8863C20.8637 34.9649 20.8212 35.0425 20.7766 35.1189L16.4577 32.5995ZM15.8247 33.4965L11.0466 32.0235C11.2604 31.3299 11.6227 30.6912 12.1083 30.1517L15.8247 33.4965ZM15.7191 33.8391L11.4987 36.5201C10.7134 35.2839 10.5096 33.7656 10.941 32.3661L15.7191 33.8391ZM15.9036 34.1295L13.3685 38.4391C12.6856 38.0375 12.108 37.4792 11.6832 36.8105L15.9036 34.1295ZM17.4335 35.9492L22.3145 34.8645C22.3185 34.8827 22.3225 34.9009 22.3263 34.9191L17.4335 35.9492ZM16.5105 38.4547L20.5474 41.4047C20.5352 41.4214 20.5229 41.4381 20.5105 41.4547L16.5105 38.4547ZM15.9036 39.4044L11.086 38.0662C11.1207 37.9412 11.1603 37.8176 11.2046 37.6957L15.9036 39.4044ZM16.0884 41.2505L20.9284 39.9957C20.9347 40.02 20.9408 40.0444 20.9467 40.0688L16.0884 41.2505ZM16.2465 44.1778L21.08 45.4572C21.0731 45.4832 21.066 45.5092 21.0587 45.5351L16.2465 44.1778ZM13.7938 46.4727L15.5098 51.169C15.4651 51.1854 15.4201 51.2011 15.375 51.2161L13.7938 46.4727ZM2.61093 48.9782L6.47058 52.1567C6.43889 52.1952 6.40663 52.2332 6.37381 52.2707L2.61093 48.9782ZM1.89876 49.9543L-2.21221 47.1083C-2.1864 47.071 -2.16008 47.0341 -2.13327 46.9975L1.89876 49.9543ZM1.16018 50.9827L5.27115 53.8287C4.3563 55.1502 2.862 55.9513 1.25507 55.9818C-0.351858 56.0123 -1.87549 55.2685 -2.83982 53.9827L1.16018 50.9827ZM-0.000151969 49.3742L-4.09631 52.2415C-5.33596 50.4706 -5.29717 48.1035 -4.00015 46.3742L-0.000151969 49.3742ZM0.738097 48.3716V43.3716C2.59782 43.3716 4.30388 44.4038 5.16699 46.0511C6.0301 47.6984 5.90763 49.6886 4.84906 51.2176L0.738097 48.3716ZM-3.40945 45.4654C-3.06033 44.9766 -2.69166 44.5086 -2.36444 44.1159L5.31778 50.5178C5.1175 50.7581 4.90626 51.0281 4.72789 51.2778L-3.40945 45.4654ZM-2.3802 44.1349C-1.71707 43.3312 -0.640333 42.1717 1.15597 41.3143C2.88484 40.489 4.88589 40.1276 7.20011 40.1276V50.1276C5.90099 50.1276 5.4755 50.3332 5.46358 50.3389C5.4595 50.3409 5.48061 50.3289 5.49709 50.3147C5.50072 50.3116 5.46191 50.3432 5.33354 50.4988L-2.3802 44.1349ZM7.20011 40.1276H7.91229V50.1276H7.20011V40.1276ZM7.91229 40.1276C8.6777 40.1276 9.51595 40.1144 10.2733 40.0609C10.6494 40.0344 10.9623 40.0007 11.2067 39.9632C11.4706 39.9226 11.5495 39.8932 11.5005 39.9096L14.6628 49.3964C13.4019 49.8167 11.9858 49.9649 10.9778 50.0361C9.86917 50.1144 8.75573 50.1276 7.91229 50.1276V40.1276ZM11.3084 39.978C11.4278 39.9327 11.1346 40.0216 10.7377 40.3547C10.2445 40.7686 9.78279 41.3979 9.55075 42.1868L19.1444 45.0084C18.3414 47.7386 16.1021 48.8549 14.8549 49.328L11.3084 39.978ZM9.52999 42.2594C9.4317 42.6132 9.40639 42.9061 9.40182 43.0943C9.39739 43.2768 9.41192 43.3913 9.41338 43.4028C9.41489 43.4148 9.41077 43.3794 9.38757 43.2647C9.36405 43.1484 9.33318 43.0094 9.28589 42.8L19.0403 40.5974C19.1202 40.9511 19.2592 41.5528 19.3347 42.1506C19.411 42.7556 19.486 43.7807 19.1652 44.9358L9.52999 42.2594ZM9.28216 42.7834C9.14621 42.1716 8.45967 39.7692 9.27498 37.2553L18.7872 40.3404C18.9012 39.9889 18.8734 39.7487 18.8767 39.7837C18.879 39.8073 18.8874 39.8761 18.9159 40.0222C18.9299 40.0937 18.947 40.1751 18.9689 40.2753C18.9923 40.3826 19.0139 40.4783 19.044 40.614L9.28216 42.7834ZM9.26647 37.2818C9.75543 35.7451 10.6527 34.6269 11.0472 34.1414L18.8083 40.4473C18.7499 40.5192 18.711 40.5692 18.683 40.6068C18.6554 40.644 18.646 40.6591 18.6479 40.6561C18.6499 40.653 18.6685 40.6233 18.6949 40.5692C18.7215 40.5146 18.7592 40.4288 18.7957 40.3139L9.26647 37.2818ZM10.7678 34.5204L11.2427 33.8082L19.5626 39.3561L19.0877 40.0682L10.7678 34.5204ZM10.4708 37.4052L10.3916 36.9307L20.2552 35.2845L20.3344 35.7591L10.4708 37.4052ZM12.355 40.131L11.854 39.7614L17.7909 31.7145L18.2919 32.0841L12.355 40.131ZM12.3574 40.0881C12.4805 40.1579 12.7162 40.237 13.108 40.237V30.237C14.0274 30.237 15.5819 30.4213 17.2875 31.3879L12.3574 40.0881ZM13.108 40.237H12.7916V30.237H13.108V40.237ZM13.1034 40.2273C9.98278 40.4223 7.6283 38.2221 7.02782 35.67L16.762 33.3796C16.3725 31.7243 14.7563 30.1044 12.4797 30.2467L13.1034 40.2273ZM7.07731 35.8631C6.14058 32.4908 8.28159 29.6101 10.8257 28.6728L14.2828 38.0562C15.8247 37.4881 17.3855 35.6093 16.7125 33.1866L7.07731 35.8631ZM10.9025 28.6452C10.8102 28.6775 10.7832 28.6934 10.8035 28.6832C10.8086 28.6807 10.8156 28.677 10.8229 28.6727C10.8302 28.6685 10.8338 28.666 10.8332 28.6664C10.8327 28.6668 10.8235 28.673 10.8067 28.6866C10.7901 28.7 10.7606 28.7251 10.7216 28.7637C10.6508 28.8339 10.5021 28.9952 10.3521 29.2634L19.0816 34.1417C18.3075 35.5268 17.2109 36.4223 16.4577 36.9347C15.6731 37.4685 14.8655 37.853 14.206 38.0838L10.9025 28.6452ZM10.2475 29.461L10.3531 29.2505L19.2919 33.7335L19.1863 33.9441L10.2475 29.461ZM10.0049 32.8302L9.87288 32.355L19.5081 29.6786L19.6401 30.1538L10.0049 32.8302ZM11.7873 35.0876L11.418 34.8242L17.2243 26.6826L17.5936 26.946L11.7873 35.0876ZM11.3711 34.7904C10.6876 34.2909 8.40208 32.7674 7.46289 29.539L17.0648 26.7457C17.0563 26.7163 17.0337 26.6548 16.9895 26.5788C16.9462 26.5044 16.9019 26.4498 16.8743 26.4198C16.8503 26.3936 16.8511 26.3996 16.9094 26.4467C16.9391 26.4707 16.9794 26.5019 17.0395 26.5466C17.0696 26.569 17.1024 26.5931 17.1413 26.6216C17.1608 26.6359 17.1806 26.6503 17.2026 26.6663C17.2237 26.6817 17.2476 26.6991 17.2713 26.7165L11.3711 34.7904ZM7.59714 29.9372C7.13509 28.7359 6.83856 27.0001 7.53894 24.9768L16.9888 28.2479C17.0754 27.9976 17.1397 27.6517 17.1187 27.2466C17.0981 26.8496 17.0028 26.5351 16.9306 26.3474L7.59714 29.9372ZM7.49595 25.1067C8.29032 22.5912 10.1956 20.8027 11.8668 19.5265L17.9359 27.4742C17.3867 27.8936 17.0977 28.1809 16.9621 28.34C16.8306 28.4942 16.9369 28.4186 17.0318 28.1181L7.49595 25.1067ZM11.9178 19.488C12.1831 19.2908 12.1425 19.2772 11.9849 19.4769C11.9031 19.5807 11.7713 19.7653 11.6363 20.0336C11.5127 20.2794 11.3317 20.7038 11.2356 21.2804L21.0996 22.9244C20.8974 24.1376 20.3115 25.0679 19.8357 25.6709C19.3088 26.3388 18.6482 26.945 17.8849 27.5127L11.9178 19.488ZM11.1676 22.1024V21.8384H21.1676V22.1024H11.1676ZM11.6158 23.9074C11.8795 24.4875 12.1944 24.8505 12.3258 24.9928C12.4771 25.1568 12.5882 25.2443 12.6053 25.2578C12.6344 25.2806 12.5388 25.2045 12.2392 25.0359L17.1418 16.3202C17.6861 16.6264 18.2632 16.9854 18.7868 17.3972C19.1621 17.6923 20.133 18.4793 20.7194 19.7694L11.6158 23.9074ZM12.2204 25.0254C11.0653 24.3691 6.11517 21.507 3.29969 17.0878L11.7335 11.7146C12.3421 12.6699 13.3514 13.6649 14.5167 14.5699C15.6416 15.4436 16.6873 16.0619 17.1605 16.3308L12.2204 25.0254ZM3.27661 17.0512C1.67753 14.4927 1.5632 12.2274 1.52204 11.4866L11.5066 10.9319C11.5142 11.0685 11.5161 11.0986 11.5212 11.1442C11.5255 11.1826 11.532 11.224 11.5433 11.2715C11.5637 11.3573 11.6135 11.5222 11.7566 11.7512L3.27661 17.0512ZM1.51434 11.2093V11.1307H11.5143V11.2093H1.51434ZM1.5582 11.7915C1.47796 11.1897 1.44343 10.6273 1.41644 10.1415L11.401 9.5868C11.4268 10.0504 11.4452 10.2805 11.4705 10.4699L1.5582 11.7915ZM1.40874 9.86415V9.52158H11.4087V9.86415H1.40874ZM1.42285 9.89687C1.26232 7.76415 0.959521 6.57701 0.709015 5.88987C0.478984 5.2589 0.235933 4.87428 -0.183986 4.2665L8.04332 -1.41782C8.62564 -0.574982 9.4375 0.636159 10.1041 2.46473C10.7503 4.23713 11.1859 6.3733 11.3946 9.1463L1.42285 9.89687ZM0.394132 -2.11119C0.736581 -2.45364 1.40709 -3.15445 2.04611 -3.72621L8.71406 3.72621C8.35084 4.05119 8.07224 4.35283 7.4652 4.95988L0.394132 -2.11119ZM9.24987 -3.16619C10.0039 -2.24465 10.6444 -1.20541 11.171 -0.152356L2.22669 4.31978C1.96198 3.79035 1.70581 3.40514 1.5103 3.16619L9.24987 -3.16619ZM11.2055 -0.0818465C12.5433 2.70208 13.2056 5.88704 13.3306 9.2292L3.33754 9.60277C3.25148 7.30071 2.80613 5.52706 2.19212 4.24927L11.2055 -0.0818465ZM13.3341 9.41598C13.3341 9.58023 13.3529 9.78764 13.39 9.9978L3.54214 11.7356C3.42097 11.0491 3.33405 10.254 3.33405 9.41598H13.3341ZM13.4661 10.8667V11.1307H3.46605V10.8667H13.4661ZM13.4533 10.7745C13.4548 10.795 13.4561 10.8139 13.4571 10.8289C13.4578 10.8397 13.4594 10.8622 13.4598 10.8687C13.4614 10.8918 13.4623 10.9054 13.4632 10.9166C13.4647 10.9371 13.4652 10.9402 13.4646 10.935C13.4631 10.9212 13.4583 10.8857 13.4474 10.8401C13.4364 10.7944 13.4226 10.7523 13.408 10.7171C13.3933 10.6819 13.3835 10.6675 13.3876 10.6739L4.96883 16.0705C3.59429 13.9262 3.51566 12.0035 3.47876 11.487L13.4533 10.7745ZM13.4045 10.7004C14.1978 11.9553 16.1936 13.5661 18.0901 14.6171L13.2426 23.3636C10.7608 21.9882 7.05987 19.3784 4.95193 16.044L13.4045 10.7004ZM18.0945 14.6196C18.7769 14.9987 19.8827 15.6478 20.8564 16.6211C21.8963 17.6607 23.0048 19.2964 23.1371 21.5448L13.1543 22.132C13.1783 22.5393 13.2934 22.9102 13.4466 23.2076C13.5898 23.4859 13.7366 23.6435 13.7865 23.6933C13.8338 23.7407 13.8277 23.7247 13.7204 23.6513C13.6148 23.5791 13.4633 23.4862 13.2381 23.3612L18.0945 14.6196ZM23.1317 21.4645C23.4098 25.1727 20.9004 27.6726 19.123 29.0299L13.0538 21.0822C13.2674 20.9191 13.3985 20.7991 13.4706 20.7259C13.5435 20.6518 13.5322 20.6499 13.4832 20.7261C13.4322 20.8057 13.3327 20.9823 13.2552 21.2527C13.1749 21.5329 13.1334 21.8619 13.1597 22.2124L23.1317 21.4645ZM19.0884 29.0561C18.5942 29.4267 18.4483 29.6118 18.469 29.5863C18.4949 29.5543 18.7196 29.267 18.8892 28.7158L9.3314 25.7749C9.87364 24.0127 11.1892 22.4804 13.0884 21.0561L19.0884 29.0561ZM19.1103 27.2454V27.483H9.1103V27.2454H19.1103ZM19.1103 27.483V27.5358H9.1103V27.483H19.1103ZM18.961 26.3231C18.9134 26.1328 18.8305 25.9043 18.6974 25.6641C18.5645 25.4243 18.416 25.2349 18.2876 25.0975C18.2264 25.032 18.1746 24.9835 18.1393 24.9522C18.1216 24.9365 18.1077 24.9247 18.0984 24.9171C18.0892 24.9095 18.0841 24.9055 18.084 24.9055C18.084 24.9054 18.085 24.9063 18.0873 24.908C18.0897 24.9098 18.0931 24.9123 18.0978 24.9158C18.1074 24.9229 18.1211 24.9329 18.1404 24.9467C18.1828 24.977 18.2312 25.0108 18.3108 25.0661L12.6001 33.2752C12.0294 32.8782 9.96792 31.5818 9.25958 28.7484L18.961 26.3231ZM18.3302 25.0797C18.8565 25.4496 20.3711 26.5017 21.2257 28.3705C22.263 30.6389 21.8928 32.9638 20.9041 34.8863L12.0113 30.3128C12.0189 30.2979 11.8878 30.5451 11.8531 31.0045C11.8151 31.507 11.9097 32.0443 12.1315 32.5293C12.3338 32.9718 12.5758 33.2271 12.6597 33.3092C12.7339 33.3818 12.748 33.3792 12.5807 33.2616L18.3302 25.0797ZM20.7766 35.1189C20.5056 35.5834 20.0981 36.2226 19.5412 36.8413L12.1083 30.1517C12.0816 30.1812 12.065 30.202 12.0579 30.2111C12.0506 30.2205 12.05 30.2217 12.0559 30.2133C12.0616 30.205 12.0719 30.1898 12.0864 30.1668C12.101 30.1438 12.1184 30.1151 12.1388 30.0802L20.7766 35.1189ZM20.6028 34.9695L20.4972 35.312L10.941 32.3661L11.0466 32.0235L20.6028 34.9695ZM19.9395 31.158L20.124 31.4484L11.6832 36.8105L11.4987 36.5201L19.9395 31.158ZM18.4387 29.8198C20.0782 30.7842 21.7578 32.3594 22.3145 34.8645L12.5526 37.0338C12.6519 37.4807 12.8616 37.8804 13.1084 38.1758C13.3233 38.433 13.4744 38.5014 13.3685 38.4391L18.4387 29.8198ZM22.3263 34.9191C23.0808 38.5028 20.6739 41.2317 20.5474 41.4047L12.4735 35.5046C12.6326 35.2869 12.6876 35.2127 12.7426 35.1308C12.7868 35.0649 12.7589 35.0977 12.7109 35.2003C12.6603 35.3084 12.5679 35.5343 12.5149 35.8567C12.4593 36.1955 12.4572 36.5824 12.5408 36.9792L22.3263 34.9191ZM20.5105 41.4547C20.4378 41.5516 20.3993 41.6025 20.357 41.6599C20.339 41.6844 20.326 41.7024 20.3167 41.7154C20.3074 41.7285 20.3038 41.7338 20.3045 41.7328C20.3052 41.7319 20.3124 41.7211 20.3244 41.7019C20.3362 41.6829 20.3557 41.6507 20.3801 41.6068C20.4043 41.5633 20.4371 41.5014 20.474 41.423C20.5107 41.345 20.5561 41.2409 20.6026 41.1131L11.2046 37.6957C11.6282 36.531 12.4952 35.475 12.5105 35.4547L20.5105 41.4547ZM20.7212 40.7426C20.8235 40.3743 20.8455 40.0796 20.8495 39.9104C20.8535 39.7395 20.8404 39.6315 20.8378 39.6111C20.8349 39.5878 20.8361 39.606 20.8522 39.681C20.868 39.7549 20.8918 39.8547 20.9284 39.9957L11.2484 42.5053C11.1442 42.1035 10.9981 41.5082 10.9168 40.8658C10.841 40.266 10.7641 39.2251 11.086 38.0662L20.7212 40.7426ZM20.9467 40.0688C21.2105 41.1533 21.66 43.2662 21.08 45.4572L11.413 42.8983C11.3756 43.0393 11.367 43.1359 11.3648 43.1708C11.3627 43.2052 11.3658 43.1979 11.3612 43.1396C11.3566 43.082 11.346 42.9935 11.3239 42.8692C11.3019 42.7454 11.2712 42.6013 11.2301 42.4323L20.9467 40.0688ZM21.0587 45.5351C20.2058 48.5592 17.8894 50.2996 15.5098 51.169L12.0778 41.7764C12.2996 41.6953 12.2018 41.6906 11.9946 41.8861C11.8875 41.9871 11.769 42.1254 11.662 42.3013C11.5547 42.4776 11.4805 42.6564 11.4342 42.8205L21.0587 45.5351ZM15.375 51.2161C13.0643 51.9863 10.2045 52.0529 7.67468 52.0529V42.0529C10.4198 42.0529 11.6749 41.9085 12.2127 41.7293L15.375 51.2161ZM7.67468 52.0529H7.411V42.0529H7.67468V52.0529ZM7.411 52.0529C6.33003 52.0529 6.17779 52.23 6.40118 52.1136C6.51297 52.0554 6.60724 51.981 6.65931 51.9317C6.6781 51.914 6.6648 51.9209 6.47058 52.1567L-1.24872 45.7996C-0.84494 45.3093 0.102408 44.1194 1.7811 43.2449C3.42206 42.39 5.30062 42.0529 7.411 42.0529V52.0529ZM6.37381 52.2707C6.44444 52.19 6.47961 52.1413 6.46583 52.1597C6.45534 52.1737 6.43108 52.207 6.37972 52.2798C6.30109 52.3912 6.11173 52.6644 5.93078 52.9112L-2.13327 46.9975C-2.0241 46.8487 -1.94968 46.7393 -1.79091 46.5143C-1.72358 46.4189 -1.63573 46.2954 -1.54071 46.1684C-1.44898 46.0459 -1.3149 45.8719 -1.15196 45.6856L6.37381 52.2707ZM6.00972 52.8004C5.84802 53.034 5.68407 53.2577 5.56563 53.4197C5.43347 53.6004 5.34682 53.7194 5.27115 53.8287L-2.95078 48.1366C-2.78908 47.9031 -2.62513 47.6793 -2.50669 47.5173C-2.37453 47.3366 -2.28788 47.2176 -2.21221 47.1083L6.00972 52.8004ZM-2.83982 53.9827C-3.28024 53.3954 -3.70985 52.7936 -4.09631 52.2415L4.09601 46.5069C4.44804 47.0098 4.80936 47.5149 5.16018 47.9827L-2.83982 53.9827ZM-4.00015 46.3742C-3.71442 45.9932 -3.53952 45.7663 -3.37286 45.5255L4.84906 51.2176C4.54097 51.6627 4.18886 52.1222 3.99985 52.3742L-4.00015 46.3742ZM0.738097 53.3716H0.659218V43.3716H0.738097V53.3716Z" fill="white" mask="url(#path-1-inside-1_7471_55688)"/>
<mask id="path-3-inside-2_7471_55688" fill="white">
<path d="M21.7595 24.0068L22.1548 24.1124C23.4999 24.7191 24.6605 25.7215 25.5045 26.9611C26.3748 28.2799 26.8496 29.8358 26.8496 31.4183C26.8496 34.3459 25.2673 37.0359 22.7089 38.4602L22.2604 38.5658C21.9175 38.5658 21.6012 38.3813 21.443 38.0912C21.3111 37.8802 21.2846 37.6164 21.3638 37.379C21.4429 37.1417 21.5746 36.9571 21.8119 36.8253C23.7637 35.7439 24.9771 33.6602 24.9771 31.4183C24.9771 30.2051 24.6078 29.0181 23.9484 27.9895C23.3155 27.04 22.4188 26.2749 21.3902 25.8001L20.9153 25.2728V24.5606C21.0999 24.2177 21.443 24.0068 21.7859 24.0068H21.7595Z"/>
</mask>
<path d="M21.7595 24.0068L22.1548 24.1124C23.4999 24.7191 24.6605 25.7215 25.5045 26.9611C26.3748 28.2799 26.8496 29.8358 26.8496 31.4183C26.8496 34.3459 25.2673 37.0359 22.7089 38.4602L22.2604 38.5658C21.9175 38.5658 21.6012 38.3813 21.443 38.0912C21.3111 37.8802 21.2846 37.6164 21.3638 37.379C21.4429 37.1417 21.5746 36.9571 21.8119 36.8253C23.7637 35.7439 24.9771 33.6602 24.9771 31.4183C24.9771 30.2051 24.6078 29.0181 23.9484 27.9895C23.3155 27.04 22.4188 26.2749 21.3902 25.8001L20.9153 25.2728V24.5606C21.0999 24.2177 21.443 24.0068 21.7859 24.0068H21.7595Z" fill="white"/>
<path d="M21.7595 24.0068L20.4692 28.8375C18.0443 28.1898 16.4753 25.8447 16.802 23.3562C17.1286 20.8676 19.2495 19.0068 21.7595 19.0068V24.0068ZM22.1548 24.1124L23.4451 19.2818C23.7072 19.3518 23.9631 19.443 24.2104 19.5545L22.1548 24.1124ZM25.5045 26.9611L29.6375 24.1472C29.651 24.167 29.6643 24.1869 29.6775 24.2069L25.5045 26.9611ZM22.7089 38.4602L25.1409 42.8288C24.7373 43.0535 24.3045 43.2212 23.8549 43.3271L22.7089 38.4602ZM22.2604 38.5658L23.4064 43.4327C23.0308 43.5211 22.6463 43.5658 22.2604 43.5658V38.5658ZM21.443 38.0912L25.683 35.4412C25.7353 35.525 25.7852 35.6102 25.8324 35.6969L21.443 38.0912ZM21.8119 36.8253L19.3837 32.4545L19.3887 32.4517L21.8119 36.8253ZM23.9484 27.9895L28.1087 25.216C28.1253 25.2409 28.1417 25.2659 28.1578 25.2911L23.9484 27.9895ZM21.3902 25.8001L19.2949 30.3399C18.6794 30.0559 18.1282 29.6497 17.6746 29.146L21.3902 25.8001ZM20.9153 25.2728L17.1997 28.6186C16.3728 27.7004 15.9153 26.5084 15.9153 25.2728H20.9153ZM20.9153 24.5606H15.9153C15.9153 23.7332 16.1206 22.9186 16.5129 22.1901L20.9153 24.5606ZM21.7859 19.0068C24.5473 19.0068 26.7859 21.2454 26.7859 24.0068C26.7859 26.7683 24.5473 29.0068 21.7859 29.0068V19.0068ZM23.0497 19.1762L23.4451 19.2818L20.8645 28.9431L20.4692 28.8375L23.0497 19.1762ZM24.2104 19.5545C26.4476 20.5634 28.3081 22.1946 29.6375 24.1472L21.3715 29.7751C21.0129 29.2484 20.5523 28.8747 20.0993 28.6704L24.2104 19.5545ZM29.6775 24.2069C31.0788 26.3301 31.8496 28.8413 31.8496 31.4183H21.8496C21.8496 30.8304 21.6709 30.2296 21.3314 29.7153L29.6775 24.2069ZM31.8496 31.4183C31.8496 36.1617 29.2832 40.5228 25.1409 42.8288L20.2769 34.0915C21.2513 33.549 21.8496 32.5302 21.8496 31.4183H31.8496ZM23.8549 43.3271L23.4064 43.4327L21.1144 33.6989L21.5629 33.5933L23.8549 43.3271ZM22.2604 43.5658C20.1598 43.5658 18.1218 42.4441 17.0535 40.4855L25.8324 35.6969C25.0806 34.3186 23.6753 33.5658 22.2604 33.5658V43.5658ZM17.203 40.7412C16.2398 39.2001 16.0946 37.3753 16.6204 35.7979L26.1072 38.9602C26.4747 37.8575 26.3824 36.5604 25.683 35.4412L17.203 40.7412ZM16.6204 35.7979C17.032 34.5631 17.8901 33.2843 19.3837 32.4545L24.2401 41.1961C24.6664 40.9593 25.097 40.614 25.4607 40.1509C25.8142 39.7008 26.0053 39.2659 26.1072 38.9602L16.6204 35.7979ZM19.3887 32.4517C19.7271 32.2642 19.9771 31.869 19.9771 31.4183H29.9771C29.9771 35.4513 27.8003 39.2236 24.2351 41.1988L19.3887 32.4517ZM19.9771 31.4183C19.9771 31.2236 19.9167 30.9649 19.7391 30.6878L28.1578 25.2911C29.299 27.0713 29.9771 29.1866 29.9771 31.4183H19.9771ZM19.7882 30.763C19.6678 30.5824 19.4862 30.4282 19.2949 30.3399L23.4855 21.2603C25.3514 22.1215 26.9631 23.4975 28.1087 25.216L19.7882 30.763ZM17.6746 29.146L17.1997 28.6186L24.6309 21.9269L25.1057 22.4543L17.6746 29.146ZM15.9153 25.2728V24.5606H25.9153V25.2728H15.9153ZM16.5129 22.1901C17.4803 20.3936 19.4225 19.0068 21.7859 19.0068V29.0068C23.4635 29.0068 24.7195 28.0419 25.3176 26.9311L16.5129 22.1901ZM21.7859 29.0068H21.7595V19.0068H21.7859V29.0068Z" fill="white" mask="url(#path-3-inside-2_7471_55688)"/>
<mask id="path-5-inside-3_7471_55688" fill="white">
<path d="M26.6359 40.6968C29.3789 38.3758 30.9614 34.9998 30.9614 31.4128C30.9614 30.3578 30.8295 29.303 30.5658 28.3008C29.7745 25.294 27.9019 22.7615 25.2644 21.0998C24.8424 20.8361 24.7106 20.2559 24.9743 19.8075C25.1589 19.5438 25.4489 19.3857 25.7654 19.3857L26.2667 19.5177C29.2998 21.4167 31.4623 24.3704 32.3855 27.8255C32.702 28.986 32.8604 30.1996 32.8604 31.4128C32.8604 35.5536 31.0405 39.4573 27.8755 42.1211L27.2689 42.3581C27.0052 42.3581 26.7414 42.2265 26.5567 42.0155C26.3985 41.8309 26.3195 41.5935 26.3459 41.3297C26.3459 41.0924 26.4777 40.8814 26.6623 40.6968H26.6359Z"/>
</mask>
<path d="M26.6359 40.6968C29.3789 38.3758 30.9614 34.9998 30.9614 31.4128C30.9614 30.3578 30.8295 29.303 30.5658 28.3008C29.7745 25.294 27.9019 22.7615 25.2644 21.0998C24.8424 20.8361 24.7106 20.2559 24.9743 19.8075C25.1589 19.5438 25.4489 19.3857 25.7654 19.3857L26.2667 19.5177C29.2998 21.4167 31.4623 24.3704 32.3855 27.8255C32.702 28.986 32.8604 30.1996 32.8604 31.4128C32.8604 35.5536 31.0405 39.4573 27.8755 42.1211L27.2689 42.3581C27.0052 42.3581 26.7414 42.2265 26.5567 42.0155C26.3985 41.8309 26.3195 41.5935 26.3459 41.3297C26.3459 41.0924 26.4777 40.8814 26.6623 40.6968H26.6359Z" fill="white"/>
<path d="M26.6359 40.6968V45.6968C24.5377 45.6968 22.6627 44.3868 21.941 42.4166C21.2193 40.4464 21.8045 38.2352 23.4062 36.8798L26.6359 40.6968ZM30.5658 28.3008L35.4011 27.0283L30.5658 28.3008ZM25.2644 21.0998L27.9144 16.8599C27.9195 16.863 27.9245 16.8662 27.9296 16.8694L25.2644 21.0998ZM24.9743 19.8075L20.6646 17.2724C20.7314 17.1589 20.8026 17.0481 20.8782 16.9402L24.9743 19.8075ZM25.7654 19.3857V14.3857C26.1951 14.3857 26.623 14.4411 27.0386 14.5506L25.7654 19.3857ZM26.2667 19.5177L27.5399 14.6826C28.0274 14.8109 28.4927 15.0123 28.92 15.2798L26.2667 19.5177ZM32.3855 27.8255L27.5616 29.1411C27.5594 29.1328 27.5571 29.1245 27.5549 29.1162L32.3855 27.8255ZM27.8755 42.1211L31.0952 45.9465C30.677 46.2985 30.204 46.5795 29.6949 46.7784L27.8755 42.1211ZM27.2689 42.3581L29.0883 47.0153C28.5085 47.2418 27.8914 47.3581 27.2689 47.3581V42.3581ZM26.5567 42.0155L22.7939 45.308C22.7827 45.2952 22.7715 45.2824 22.7605 45.2695L26.5567 42.0155ZM26.3459 41.3297H31.3459C31.3459 41.4959 31.3376 41.6619 31.321 41.8273L26.3459 41.3297ZM26.6623 40.6968V35.6968C28.6847 35.6968 30.5078 36.915 31.2817 38.7834C32.0556 40.6517 31.6279 42.8023 30.1979 44.2323L26.6623 40.6968ZM23.4062 36.8798C25.0397 35.4977 25.9614 33.5117 25.9614 31.4128H35.9614C35.9614 36.4878 33.7181 41.2539 29.8657 44.5137L23.4062 36.8798ZM25.9614 31.4128C25.9614 30.7689 25.8803 30.1427 25.7304 29.5732L35.4011 27.0283C35.7788 28.4633 35.9614 29.9467 35.9614 31.4128H25.9614ZM25.7304 29.5732C25.2656 27.807 24.1779 26.3249 22.5992 25.3303L27.9296 16.8694C31.6258 19.198 34.2834 22.7811 35.4011 27.0283L25.7304 29.5732ZM22.6144 25.3398C19.7496 23.5493 19.116 19.9051 20.6646 17.2724L29.284 22.3426C30.3051 20.6067 29.9352 18.1229 27.9144 16.8599L22.6144 25.3398ZM20.8782 16.9402C21.9449 15.4162 23.7262 14.3857 25.7654 14.3857V24.3857C27.1715 24.3857 28.3729 23.6713 29.0705 22.6748L20.8782 16.9402ZM27.0386 14.5506L27.5399 14.6826L24.9934 24.3529L24.4921 24.2209L27.0386 14.5506ZM28.92 15.2798C33.0388 17.8586 35.9703 21.8724 37.216 26.5349L27.5549 29.1162C26.9544 26.8685 25.5607 24.9749 23.6133 23.7557L28.92 15.2798ZM37.2093 26.51C37.6462 28.1119 37.8604 29.7685 37.8604 31.4128H27.8604C27.8604 30.6306 27.7577 29.8602 27.5616 29.1411L37.2093 26.51ZM37.8604 31.4128C37.8604 37.0308 35.3875 42.3338 31.0952 45.9465L24.6558 38.2957C26.6934 36.5807 27.8604 34.0765 27.8604 31.4128H37.8604ZM29.6949 46.7784L29.0883 47.0153L25.4495 37.7008L26.0561 37.4639L29.6949 46.7784ZM27.2689 47.3581C25.3768 47.3581 23.7978 46.4554 22.7939 45.308L30.3196 38.723C29.685 37.9977 28.6335 37.3581 27.2689 37.3581V47.3581ZM22.7605 45.2695C21.7124 44.0467 21.2085 42.4535 21.3707 40.8322L31.321 41.8273C31.4304 40.7335 31.0846 39.6151 30.353 38.7616L22.7605 45.2695ZM21.3459 41.3297C21.3459 39.1568 22.548 37.74 23.1268 37.1612L30.1979 44.2323C30.4074 44.0228 31.3459 43.0279 31.3459 41.3297H21.3459ZM26.6623 45.6968H26.6359V35.6968H26.6623V45.6968Z" fill="white" mask="url(#path-5-inside-3_7471_55688)"/>
<mask id="path-7-inside-4_7471_55688" fill="white">
<path d="M37.1865 31.4084C37.1865 26.7401 35.4458 22.3092 32.2809 18.9068C31.3841 17.9309 30.3819 17.087 29.3269 16.3221C29.1159 16.1903 28.984 15.9793 28.9576 15.7156C28.9049 15.4782 28.9575 15.2408 29.1157 15.0298C29.3003 14.766 29.5642 14.6338 29.8807 14.6338L30.408 14.7922C31.5949 15.6362 32.6762 16.5859 33.6785 17.6409C37.16 21.3861 39.0854 26.2917 39.0854 31.4084C39.0854 36.8944 36.9229 42.0375 32.993 45.8882C32.8084 46.0464 32.5974 46.1515 32.3337 46.1515C32.0699 46.1515 31.8589 46.0464 31.6743 45.8618C31.4897 45.7035 31.4103 45.4662 31.4103 45.2024C31.4103 44.965 31.5158 44.7277 31.7004 44.543C35.261 41.0616 37.2393 36.3933 37.2393 31.4084H37.1865Z"/>
</mask>
<path d="M37.1865 31.4084C37.1865 26.7401 35.4458 22.3092 32.2809 18.9068C31.3841 17.9309 30.3819 17.087 29.3269 16.3221C29.1159 16.1903 28.984 15.9793 28.9576 15.7156C28.9049 15.4782 28.9575 15.2408 29.1157 15.0298C29.3003 14.766 29.5642 14.6338 29.8807 14.6338L30.408 14.7922C31.5949 15.6362 32.6762 16.5859 33.6785 17.6409C37.16 21.3861 39.0854 26.2917 39.0854 31.4084C39.0854 36.8944 36.9229 42.0375 32.993 45.8882C32.8084 46.0464 32.5974 46.1515 32.3337 46.1515C32.0699 46.1515 31.8589 46.0464 31.6743 45.8618C31.4897 45.7035 31.4103 45.4662 31.4103 45.2024C31.4103 44.965 31.5158 44.7277 31.7004 44.543C35.261 41.0616 37.2393 36.3933 37.2393 31.4084H37.1865Z" fill="white"/>
<path d="M37.1865 31.4084V36.4084C34.4251 36.4084 32.1865 34.1699 32.1865 31.4084H37.1865ZM32.2809 18.9068L28.6199 22.3123C28.613 22.3049 28.6061 22.2974 28.5992 22.2899L32.2809 18.9068ZM29.3269 16.3221L31.9769 12.0821C32.074 12.1428 32.169 12.2069 32.2617 12.2741L29.3269 16.3221ZM28.9576 15.7156L33.8386 14.6309C33.8816 14.8246 33.9131 15.0206 33.9328 15.218L28.9576 15.7156ZM29.1157 15.0298L33.2119 17.8971C33.1805 17.9419 33.1485 17.9861 33.1157 18.0298L29.1157 15.0298ZM29.8807 14.6338V9.63379C30.3679 9.63379 30.8524 9.70499 31.319 9.84514L29.8807 14.6338ZM30.408 14.7922L31.8464 10.0035C32.3685 10.1604 32.8614 10.4015 33.3057 10.7174L30.408 14.7922ZM33.6785 17.6409L37.3035 14.1971C37.3159 14.2102 37.3283 14.2234 37.3406 14.2366L33.6785 17.6409ZM32.993 45.8882L36.4924 49.4595C36.4131 49.5372 36.3313 49.6122 36.247 49.6845L32.993 45.8882ZM31.6743 45.8618L34.9283 42.0655C35.0254 42.1488 35.1193 42.2358 35.2098 42.3262L31.6743 45.8618ZM31.7004 44.543L28.1648 41.0075C28.1781 40.9943 28.1914 40.9811 28.2048 40.968L31.7004 44.543ZM37.2393 31.4084V26.4084C40.0008 26.4084 42.2393 28.647 42.2393 31.4084H37.2393ZM32.1865 31.4084C32.1865 27.9994 30.9214 24.7864 28.6199 22.3123L35.9418 15.5013C39.9703 19.8319 42.1865 25.4808 42.1865 31.4084H32.1865ZM28.5992 22.2899C27.9852 21.6218 27.254 20.9951 26.3921 20.3702L32.2617 12.2741C33.5098 13.1789 34.783 14.2401 35.9625 15.5237L28.5992 22.2899ZM26.6769 20.5621C25.1161 19.5866 24.1584 17.9727 23.9824 16.2131L33.9328 15.218C33.8096 13.9859 33.1157 12.7939 31.9769 12.0821L26.6769 20.5621ZM24.0767 16.8002C23.6885 15.0536 24.1349 13.3375 25.1157 12.0298L33.1157 18.0298C33.78 17.1441 34.1212 15.9028 33.8386 14.6309L24.0767 16.8002ZM25.0195 12.1625C26.1641 10.5274 27.9755 9.63379 29.8807 9.63379V19.6338C30.4322 19.6338 31.083 19.5143 31.7326 19.1808C32.3858 18.8454 32.8766 18.376 33.2119 17.8971L25.0195 12.1625ZM31.319 9.84514L31.8464 10.0035L28.9697 19.5808L28.4423 19.4224L31.319 9.84514ZM33.3057 10.7174C34.7709 11.7594 36.0938 12.9237 37.3035 14.1971L30.0535 21.0846C29.2587 20.248 28.4189 19.513 27.5104 18.867L33.3057 10.7174ZM37.3406 14.2366C41.6834 18.9084 44.0854 25.0308 44.0854 31.4084H34.0854C34.0854 27.5527 32.6365 23.8638 30.0164 21.0451L37.3406 14.2366ZM44.0854 31.4084C44.0854 38.2412 41.3798 44.6705 36.4924 49.4595L29.4936 42.3169C32.4659 39.4044 34.0854 35.5476 34.0854 31.4084H44.0854ZM36.247 49.6845C35.4207 50.3927 34.0985 51.1515 32.3337 51.1515V41.1515C31.7743 41.1515 31.2315 41.2683 30.7437 41.4748C30.2759 41.6729 29.9427 41.9174 29.7391 42.0919L36.247 49.6845ZM32.3337 51.1515C30.5136 51.1515 29.0847 50.3432 28.1388 49.3973L35.2098 42.3262C34.964 42.0804 34.5798 41.7675 34.0402 41.5226C33.4822 41.2695 32.8946 41.1515 32.3337 41.1515V51.1515ZM28.4203 49.6581C26.7894 48.2601 26.4103 46.4123 26.4103 45.2024H36.4103C36.4103 44.5201 36.19 43.147 34.9283 42.0655L28.4203 49.6581ZM26.4103 45.2024C26.4103 43.4795 27.1616 42.0107 28.1648 41.0075L35.2359 48.0786C35.8699 47.4446 36.4103 46.4506 36.4103 45.2024H26.4103ZM28.2048 40.968C30.8096 38.421 32.2393 35.0389 32.2393 31.4084H42.2393C42.2393 37.7477 39.7123 43.7021 35.196 48.1181L28.2048 40.968ZM37.2393 36.4084H37.1865V26.4084H37.2393V36.4084Z" fill="white" mask="url(#path-7-inside-4_7471_55688)"/>
<mask id="path-9-inside-5_7471_55688" fill="white">
<path d="M59.0955 11.9421C58.1196 10.9399 56.9858 10.1753 55.7198 9.62145C54.4538 9.09395 53.1087 8.83008 51.7372 8.83008C51.4998 8.83008 51.2624 8.83008 51.025 8.83008C45.3544 9.2257 41.0289 14.1576 41.4245 19.8546C41.5564 21.648 42.1367 23.4156 43.1654 24.8926C43.35 25.1563 43.6401 25.3143 43.9566 25.3143H44.0356L44.4841 25.1559C44.9061 24.8658 45.0379 24.2856 44.7214 23.8636C43.9038 22.624 43.4027 21.2002 43.2972 19.7232C43.139 17.455 43.8774 15.292 45.3544 13.5777C46.8313 11.8897 48.8887 10.8608 51.1306 10.7026H51.7108C54.0054 10.6762 56.1418 11.5728 57.7507 13.2081C59.7288 15.2917 60.8102 18.0086 61.0475 21.4637C60.942 28.3739 58.9902 30.9059 56.0099 34.7039C54.5329 36.6293 52.8449 38.7919 51.0778 41.9042C50.4184 42.9064 49.3371 43.5127 48.1238 43.5919H47.8601C45.8293 43.5919 44.1411 42.0361 44.0092 40.0053C43.9828 39.5305 43.5609 39.1347 43.0862 39.1347H43.007C42.7696 39.1611 42.5322 39.2669 42.374 39.4515C42.2157 39.6625 42.1367 39.8999 42.1367 40.1373C42.2422 41.6143 42.8752 42.9592 43.9566 43.9615C45.0379 44.9373 46.4095 45.4908 47.8601 45.4908H48.2555C50.049 45.3589 51.658 44.4095 52.6338 42.9061V42.8533C54.3482 39.8466 55.9833 37.7368 57.4339 35.8642C58.9636 33.8861 60.3089 32.1718 61.2584 30.0091C62.3134 27.6618 62.8145 24.9452 62.8672 21.4637V21.3845C62.6035 17.4283 61.364 14.3422 59.043 11.9157L59.0955 11.9421Z"/>
</mask>
<path d="M59.0955 11.9421C58.1196 10.9399 56.9858 10.1753 55.7198 9.62145C54.4538 9.09395 53.1087 8.83008 51.7372 8.83008C51.4998 8.83008 51.2624 8.83008 51.025 8.83008C45.3544 9.2257 41.0289 14.1576 41.4245 19.8546C41.5564 21.648 42.1367 23.4156 43.1654 24.8926C43.35 25.1563 43.6401 25.3143 43.9566 25.3143H44.0356L44.4841 25.1559C44.9061 24.8658 45.0379 24.2856 44.7214 23.8636C43.9038 22.624 43.4027 21.2002 43.2972 19.7232C43.139 17.455 43.8774 15.292 45.3544 13.5777C46.8313 11.8897 48.8887 10.8608 51.1306 10.7026H51.7108C54.0054 10.6762 56.1418 11.5728 57.7507 13.2081C59.7288 15.2917 60.8102 18.0086 61.0475 21.4637C60.942 28.3739 58.9902 30.9059 56.0099 34.7039C54.5329 36.6293 52.8449 38.7919 51.0778 41.9042C50.4184 42.9064 49.3371 43.5127 48.1238 43.5919H47.8601C45.8293 43.5919 44.1411 42.0361 44.0092 40.0053C43.9828 39.5305 43.5609 39.1347 43.0862 39.1347H43.007C42.7696 39.1611 42.5322 39.2669 42.374 39.4515C42.2157 39.6625 42.1367 39.8999 42.1367 40.1373C42.2422 41.6143 42.8752 42.9592 43.9566 43.9615C45.0379 44.9373 46.4095 45.4908 47.8601 45.4908H48.2555C50.049 45.3589 51.658 44.4095 52.6338 42.9061V42.8533C54.3482 39.8466 55.9833 37.7368 57.4339 35.8642C58.9636 33.8861 60.3089 32.1718 61.2584 30.0091C62.3134 27.6618 62.8145 24.9452 62.8672 21.4637V21.3845C62.6035 17.4283 61.364 14.3422 59.043 11.9157L59.0955 11.9421Z" fill="white"/>
<path d="M59.0955 11.9421L56.8485 16.4088C59.03 17.5062 61.6851 16.8673 63.1285 14.8976C64.572 12.9279 64.3814 10.2037 62.6779 8.45404L59.0955 11.9421ZM55.7198 9.62145L57.7239 5.04066C57.697 5.02889 57.67 5.01736 57.6429 5.00607L55.7198 9.62145ZM51.025 8.83008V3.83008C50.9089 3.83008 50.7928 3.83412 50.677 3.8422L51.025 8.83008ZM41.4245 19.8546L36.4365 20.2009C36.437 20.2077 36.4375 20.2145 36.438 20.2212L41.4245 19.8546ZM43.1654 24.8926L39.0623 27.75L39.0692 27.7599L43.1654 24.8926ZM44.0356 25.3143V30.3143C44.6028 30.3143 45.1659 30.2178 45.7008 30.0289L44.0356 25.3143ZM44.4841 25.1559L46.1493 29.8705C46.5628 29.7244 46.9553 29.5246 47.3167 29.2761L44.4841 25.1559ZM44.7214 23.8636L40.5475 26.6166C40.603 26.7006 40.661 26.783 40.7214 26.8636L44.7214 23.8636ZM43.2972 19.7232L38.3093 20.0712L38.3099 20.0794L43.2972 19.7232ZM45.3544 13.5777L41.5915 10.2851C41.583 10.2948 41.5747 10.3044 41.5663 10.3141L45.3544 13.5777ZM51.1306 10.7026V5.70259C51.0131 5.70259 50.8957 5.70672 50.7785 5.715L51.1306 10.7026ZM51.7108 10.7026V15.7026C51.7299 15.7026 51.7491 15.7025 51.7682 15.7023L51.7108 10.7026ZM57.7507 13.2081L61.3768 9.76552C61.3564 9.74396 61.3357 9.72258 61.3149 9.70139L57.7507 13.2081ZM61.0475 21.4637L66.047 21.54C66.0491 21.4003 66.0454 21.2605 66.0358 21.121L61.0475 21.4637ZM56.0099 34.7039L52.0764 31.6172C52.0651 31.6316 52.0539 31.6461 52.0427 31.6606L56.0099 34.7039ZM51.0778 41.9042L55.2549 44.6523C55.3149 44.561 55.3719 44.4679 55.4258 44.3729L51.0778 41.9042ZM48.1238 43.5919V48.5919C48.2324 48.5919 48.3409 48.5883 48.4492 48.5813L48.1238 43.5919ZM44.0092 40.0053L39.0169 40.2826C39.0178 40.2982 39.0187 40.3137 39.0197 40.3293L44.0092 40.0053ZM43.007 39.1347V34.1347C42.8225 34.1347 42.6381 34.1449 42.4548 34.1653L43.007 39.1347ZM42.374 39.4515L38.5777 36.1975C38.5071 36.28 38.4391 36.3647 38.374 36.4515L42.374 39.4515ZM42.1367 40.1373H37.1367C37.1367 40.2561 37.1409 40.3749 37.1494 40.4935L42.1367 40.1373ZM43.9566 43.9615L40.5577 47.6286C40.574 47.6437 40.5903 47.6586 40.6067 47.6734L43.9566 43.9615ZM48.2555 45.4908V50.4908C48.3779 50.4908 48.5002 50.4863 48.6222 50.4773L48.2555 45.4908ZM52.6338 42.9061L56.8277 45.6285C57.3538 44.818 57.6338 43.8724 57.6338 42.9061H52.6338ZM52.6338 42.8533L48.2903 40.3767C47.8601 41.1312 47.6338 41.9848 47.6338 42.8533H52.6338ZM57.4339 35.8642L61.3866 38.9262L61.3892 38.923L57.4339 35.8642ZM61.2584 30.0091L56.6979 27.9594C56.6919 27.9726 56.686 27.9859 56.6802 27.9992L61.2584 30.0091ZM62.8672 21.4637L67.8667 21.5395C67.8671 21.5142 67.8672 21.489 67.8672 21.4637H62.8672ZM62.8672 21.3845H67.8672C67.8672 21.2735 67.8636 21.1626 67.8562 21.0519L62.8672 21.3845ZM59.043 11.9157L61.2901 7.44908C59.1161 6.35541 56.4704 6.98583 55.0232 8.94236C53.576 10.8989 53.7477 13.6132 55.4298 15.3718L59.043 11.9157ZM62.6779 8.45404C61.2254 6.96236 59.5465 5.83805 57.7239 5.04066L53.7157 14.2022C54.4251 14.5126 55.0139 14.9174 55.5132 15.4302L62.6779 8.45404ZM57.6429 5.00607C55.7559 4.21983 53.7561 3.83008 51.7372 3.83008V13.8301C52.4612 13.8301 53.1517 13.9681 53.7967 14.2368L57.6429 5.00607ZM51.7372 3.83008C51.7367 3.83008 51.7362 3.83008 51.7358 3.83008C51.7353 3.83008 51.7348 3.83008 51.7344 3.83008C51.7339 3.83008 51.7335 3.83008 51.733 3.83008C51.7325 3.83008 51.7321 3.83008 51.7316 3.83008C51.7311 3.83008 51.7307 3.83008 51.7302 3.83008C51.7297 3.83008 51.7293 3.83008 51.7288 3.83008C51.7284 3.83008 51.7279 3.83008 51.7274 3.83008C51.727 3.83008 51.7265 3.83008 51.726 3.83008C51.7256 3.83008 51.7251 3.83008 51.7246 3.83008C51.7242 3.83008 51.7237 3.83008 51.7233 3.83008C51.7228 3.83008 51.7223 3.83008 51.7219 3.83008C51.7214 3.83008 51.7209 3.83008 51.7205 3.83008C51.72 3.83008 51.7195 3.83008 51.7191 3.83008C51.7186 3.83008 51.7182 3.83008 51.7177 3.83008C51.7172 3.83008 51.7168 3.83008 51.7163 3.83008C51.7158 3.83008 51.7154 3.83008 51.7149 3.83008C51.7144 3.83008 51.714 3.83008 51.7135 3.83008C51.7131 3.83008 51.7126 3.83008 51.7121 3.83008C51.7117 3.83008 51.7112 3.83008 51.7107 3.83008C51.7103 3.83008 51.7098 3.83008 51.7093 3.83008C51.7089 3.83008 51.7084 3.83008 51.708 3.83008C51.7075 3.83008 51.707 3.83008 51.7066 3.83008C51.7061 3.83008 51.7056 3.83008 51.7052 3.83008C51.7047 3.83008 51.7042 3.83008 51.7038 3.83008C51.7033 3.83008 51.7029 3.83008 51.7024 3.83008C51.7019 3.83008 51.7015 3.83008 51.701 3.83008C51.7005 3.83008 51.7001 3.83008 51.6996 3.83008C51.6991 3.83008 51.6987 3.83008 51.6982 3.83008C51.6978 3.83008 51.6973 3.83008 51.6968 3.83008C51.6964 3.83008 51.6959 3.83008 51.6954 3.83008C51.695 3.83008 51.6945 3.83008 51.694 3.83008C51.6936 3.83008 51.6931 3.83008 51.6927 3.83008C51.6922 3.83008 51.6917 3.83008 51.6913 3.83008C51.6908 3.83008 51.6903 3.83008 51.6899 3.83008C51.6894 3.83008 51.6889 3.83008 51.6885 3.83008C51.688 3.83008 51.6876 3.83008 51.6871 3.83008C51.6866 3.83008 51.6862 3.83008 51.6857 3.83008C51.6852 3.83008 51.6848 3.83008 51.6843 3.83008C51.6838 3.83008 51.6834 3.83008 51.6829 3.83008C51.6825 3.83008 51.682 3.83008 51.6815 3.83008C51.6811 3.83008 51.6806 3.83008 51.6801 3.83008C51.6797 3.83008 51.6792 3.83008 51.6787 3.83008C51.6783 3.83008 51.6778 3.83008 51.6774 3.83008C51.6769 3.83008 51.6764 3.83008 51.676 3.83008C51.6755 3.83008 51.675 3.83008 51.6746 3.83008C51.6741 3.83008 51.6736 3.83008 51.6732 3.83008C51.6727 3.83008 51.6723 3.83008 51.6718 3.83008C51.6713 3.83008 51.6709 3.83008 51.6704 3.83008C51.6699 3.83008 51.6695 3.83008 51.669 3.83008C51.6685 3.83008 51.6681 3.83008 51.6676 3.83008C51.6672 3.83008 51.6667 3.83008 51.6662 3.83008C51.6658 3.83008 51.6653 3.83008 51.6648 3.83008C51.6644 3.83008 51.6639 3.83008 51.6634 3.83008C51.663 3.83008 51.6625 3.83008 51.6621 3.83008C51.6616 3.83008 51.6611 3.83008 51.6607 3.83008C51.6602 3.83008 51.6597 3.83008 51.6593 3.83008C51.6588 3.83008 51.6583 3.83008 51.6579 3.83008C51.6574 3.83008 51.657 3.83008 51.6565 3.83008C51.656 3.83008 51.6556 3.83008 51.6551 3.83008C51.6546 3.83008 51.6542 3.83008 51.6537 3.83008C51.6532 3.83008 51.6528 3.83008 51.6523 3.83008C51.6519 3.83008 51.6514 3.83008 51.6509 3.83008C51.6505 3.83008 51.65 3.83008 51.6495 3.83008C51.6491 3.83008 51.6486 3.83008 51.6481 3.83008C51.6477 3.83008 51.6472 3.83008 51.6468 3.83008C51.6463 3.83008 51.6458 3.83008 51.6454 3.83008C51.6449 3.83008 51.6444 3.83008 51.644 3.83008C51.6435 3.83008 51.643 3.83008 51.6426 3.83008C51.6421 3.83008 51.6417 3.83008 51.6412 3.83008C51.6407 3.83008 51.6403 3.83008 51.6398 3.83008C51.6393 3.83008 51.6389 3.83008 51.6384 3.83008C51.6379 3.83008 51.6375 3.83008 51.637 3.83008C51.6366 3.83008 51.6361 3.83008 51.6356 3.83008C51.6352 3.83008 51.6347 3.83008 51.6342 3.83008C51.6338 3.83008 51.6333 3.83008 51.6328 3.83008C51.6324 3.83008 51.6319 3.83008 51.6315 3.83008C51.631 3.83008 51.6305 3.83008 51.6301 3.83008C51.6296 3.83008 51.6291 3.83008 51.6287 3.83008C51.6282 3.83008 51.6277 3.83008 51.6273 3.83008C51.6268 3.83008 51.6264 3.83008 51.6259 3.83008C51.6254 3.83008 51.625 3.83008 51.6245 3.83008C51.624 3.83008 51.6236 3.83008 51.6231 3.83008C51.6226 3.83008 51.6222 3.83008 51.6217 3.83008C51.6213 3.83008 51.6208 3.83008 51.6203 3.83008C51.6199 3.83008 51.6194 3.83008 51.6189 3.83008C51.6185 3.83008 51.618 3.83008 51.6175 3.83008C51.6171 3.83008 51.6166 3.83008 51.6162 3.83008C51.6157 3.83008 51.6152 3.83008 51.6148 3.83008C51.6143 3.83008 51.6138 3.83008 51.6134 3.83008C51.6129 3.83008 51.6124 3.83008 51.612 3.83008C51.6115 3.83008 51.6111 3.83008 51.6106 3.83008C51.6101 3.83008 51.6097 3.83008 51.6092 3.83008C51.6087 3.83008 51.6083 3.83008 51.6078 3.83008C51.6073 3.83008 51.6069 3.83008 51.6064 3.83008C51.606 3.83008 51.6055 3.83008 51.605 3.83008C51.6046 3.83008 51.6041 3.83008 51.6036 3.83008C51.6032 3.83008 51.6027 3.83008 51.6022 3.83008C51.6018 3.83008 51.6013 3.83008 51.6009 3.83008C51.6004 3.83008 51.5999 3.83008 51.5995 3.83008C51.599 3.83008 51.5985 3.83008 51.5981 3.83008C51.5976 3.83008 51.5971 3.83008 51.5967 3.83008C51.5962 3.83008 51.5958 3.83008 51.5953 3.83008C51.5948 3.83008 51.5944 3.83008 51.5939 3.83008C51.5934 3.83008 51.593 3.83008 51.5925 3.83008C51.592 3.83008 51.5916 3.83008 51.5911 3.83008C51.5907 3.83008 51.5902 3.83008 51.5897 3.83008C51.5893 3.83008 51.5888 3.83008 51.5883 3.83008C51.5879 3.83008 51.5874 3.83008 51.5869 3.83008C51.5865 3.83008 51.586 3.83008 51.5856 3.83008C51.5851 3.83008 51.5846 3.83008 51.5842 3.83008C51.5837 3.83008 51.5832 3.83008 51.5828 3.83008C51.5823 3.83008 51.5818 3.83008 51.5814 3.83008C51.5809 3.83008 51.5805 3.83008 51.58 3.83008C51.5795 3.83008 51.5791 3.83008 51.5786 3.83008C51.5781 3.83008 51.5777 3.83008 51.5772 3.83008C51.5767 3.83008 51.5763 3.83008 51.5758 3.83008C51.5754 3.83008 51.5749 3.83008 51.5744 3.83008C51.574 3.83008 51.5735 3.83008 51.573 3.83008C51.5726 3.83008 51.5721 3.83008 51.5716 3.83008C51.5712 3.83008 51.5707 3.83008 51.5703 3.83008C51.5698 3.83008 51.5693 3.83008 51.5689 3.83008C51.5684 3.83008 51.5679 3.83008 51.5675 3.83008C51.567 3.83008 51.5665 3.83008 51.5661 3.83008C51.5656 3.83008 51.5652 3.83008 51.5647 3.83008C51.5642 3.83008 51.5638 3.83008 51.5633 3.83008C51.5628 3.83008 51.5624 3.83008 51.5619 3.83008C51.5614 3.83008 51.561 3.83008 51.5605 3.83008C51.5601 3.83008 51.5596 3.83008 51.5591 3.83008C51.5587 3.83008 51.5582 3.83008 51.5577 3.83008C51.5573 3.83008 51.5568 3.83008 51.5563 3.83008C51.5559 3.83008 51.5554 3.83008 51.555 3.83008C51.5545 3.83008 51.554 3.83008 51.5536 3.83008C51.5531 3.83008 51.5526 3.83008 51.5522 3.83008C51.5517 3.83008 51.5512 3.83008 51.5508 3.83008C51.5503 3.83008 51.5499 3.83008 51.5494 3.83008C51.5489 3.83008 51.5485 3.83008 51.548 3.83008C51.5475 3.83008 51.5471 3.83008 51.5466 3.83008C51.5461 3.83008 51.5457 3.83008 51.5452 3.83008C51.5448 3.83008 51.5443 3.83008 51.5438 3.83008C51.5434 3.83008 51.5429 3.83008 51.5424 3.83008C51.542 3.83008 51.5415 3.83008 51.541 3.83008C51.5406 3.83008 51.5401 3.83008 51.5397 3.83008C51.5392 3.83008 51.5387 3.83008 51.5383 3.83008C51.5378 3.83008 51.5373 3.83008 51.5369 3.83008C51.5364 3.83008 51.5359 3.83008 51.5355 3.83008C51.535 3.83008 51.5346 3.83008 51.5341 3.83008C51.5336 3.83008 51.5332 3.83008 51.5327 3.83008C51.5322 3.83008 51.5318 3.83008 51.5313 3.83008C51.5308 3.83008 51.5304 3.83008 51.5299 3.83008C51.5295 3.83008 51.529 3.83008 51.5285 3.83008C51.5281 3.83008 51.5276 3.83008 51.5271 3.83008C51.5267 3.83008 51.5262 3.83008 51.5257 3.83008C51.5253 3.83008 51.5248 3.83008 51.5244 3.83008C51.5239 3.83008 51.5234 3.83008 51.523 3.83008C51.5225 3.83008 51.522 3.83008 51.5216 3.83008C51.5211 3.83008 51.5206 3.83008 51.5202 3.83008C51.5197 3.83008 51.5193 3.83008 51.5188 3.83008C51.5183 3.83008 51.5179 3.83008 51.5174 3.83008C51.5169 3.83008 51.5165 3.83008 51.516 3.83008C51.5155 3.83008 51.5151 3.83008 51.5146 3.83008C51.5142 3.83008 51.5137 3.83008 51.5132 3.83008C51.5128 3.83008 51.5123 3.83008 51.5118 3.83008C51.5114 3.83008 51.5109 3.83008 51.5104 3.83008C51.51 3.83008 51.5095 3.83008 51.5091 3.83008C51.5086 3.83008 51.5081 3.83008 51.5077 3.83008C51.5072 3.83008 51.5067 3.83008 51.5063 3.83008C51.5058 3.83008 51.5053 3.83008 51.5049 3.83008C51.5044 3.83008 51.504 3.83008 51.5035 3.83008C51.503 3.83008 51.5026 3.83008 51.5021 3.83008C51.5016 3.83008 51.5012 3.83008 51.5007 3.83008C51.5002 3.83008 51.4998 3.83008 51.4993 3.83008C51.4989 3.83008 51.4984 3.83008 51.4979 3.83008C51.4975 3.83008 51.497 3.83008 51.4965 3.83008C51.4961 3.83008 51.4956 3.83008 51.4951 3.83008C51.4947 3.83008 51.4942 3.83008 51.4938 3.83008C51.4933 3.83008 51.4928 3.83008 51.4924 3.83008C51.4919 3.83008 51.4914 3.83008 51.491 3.83008C51.4905 3.83008 51.49 3.83008 51.4896 3.83008C51.4891 3.83008 51.4887 3.83008 51.4882 3.83008C51.4877 3.83008 51.4873 3.83008 51.4868 3.83008C51.4863 3.83008 51.4859 3.83008 51.4854 3.83008C51.4849 3.83008 51.4845 3.83008 51.484 3.83008C51.4836 3.83008 51.4831 3.83008 51.4826 3.83008C51.4822 3.83008 51.4817 3.83008 51.4812 3.83008C51.4808 3.83008 51.4803 3.83008 51.4798 3.83008C51.4794 3.83008 51.4789 3.83008 51.4785 3.83008C51.478 3.83008 51.4775 3.83008 51.4771 3.83008C51.4766 3.83008 51.4761 3.83008 51.4757 3.83008C51.4752 3.83008 51.4747 3.83008 51.4743 3.83008C51.4738 3.83008 51.4734 3.83008 51.4729 3.83008C51.4724 3.83008 51.472 3.83008 51.4715 3.83008C51.471 3.83008 51.4706 3.83008 51.4701 3.83008C51.4696 3.83008 51.4692 3.83008 51.4687 3.83008C51.4683 3.83008 51.4678 3.83008 51.4673 3.83008C51.4669 3.83008 51.4664 3.83008 51.4659 3.83008C51.4655 3.83008 51.465 3.83008 51.4645 3.83008C51.4641 3.83008 51.4636 3.83008 51.4631 3.83008C51.4627 3.83008 51.4622 3.83008 51.4618 3.83008C51.4613 3.83008 51.4608 3.83008 51.4604 3.83008C51.4599 3.83008 51.4594 3.83008 51.459 3.83008C51.4585 3.83008 51.458 3.83008 51.4576 3.83008C51.4571 3.83008 51.4567 3.83008 51.4562 3.83008C51.4557 3.83008 51.4553 3.83008 51.4548 3.83008C51.4543 3.83008 51.4539 3.83008 51.4534 3.83008C51.4529 3.83008 51.4525 3.83008 51.452 3.83008C51.4516 3.83008 51.4511 3.83008 51.4506 3.83008C51.4502 3.83008 51.4497 3.83008 51.4492 3.83008C51.4488 3.83008 51.4483 3.83008 51.4478 3.83008C51.4474 3.83008 51.4469 3.83008 51.4465 3.83008C51.446 3.83008 51.4455 3.83008 51.4451 3.83008C51.4446 3.83008 51.4441 3.83008 51.4437 3.83008C51.4432 3.83008 51.4427 3.83008 51.4423 3.83008C51.4418 3.83008 51.4414 3.83008 51.4409 3.83008C51.4404 3.83008 51.44 3.83008 51.4395 3.83008C51.439 3.83008 51.4386 3.83008 51.4381 3.83008C51.4376 3.83008 51.4372 3.83008 51.4367 3.83008C51.4363 3.83008 51.4358 3.83008 51.4353 3.83008C51.4349 3.83008 51.4344 3.83008 51.4339 3.83008C51.4335 3.83008 51.433 3.83008 51.4325 3.83008C51.4321 3.83008 51.4316 3.83008 51.4312 3.83008C51.4307 3.83008 51.4302 3.83008 51.4298 3.83008C51.4293 3.83008 51.4288 3.83008 51.4284 3.83008C51.4279 3.83008 51.4274 3.83008 51.427 3.83008C51.4265 3.83008 51.4261 3.83008 51.4256 3.83008C51.4251 3.83008 51.4247 3.83008 51.4242 3.83008C51.4237 3.83008 51.4233 3.83008 51.4228 3.83008C51.4223 3.83008 51.4219 3.83008 51.4214 3.83008C51.421 3.83008 51.4205 3.83008 51.42 3.83008C51.4196 3.83008 51.4191 3.83008 51.4186 3.83008C51.4182 3.83008 51.4177 3.83008 51.4172 3.83008C51.4168 3.83008 51.4163 3.83008 51.4159 3.83008C51.4154 3.83008 51.4149 3.83008 51.4145 3.83008C51.414 3.83008 51.4135 3.83008 51.4131 3.83008C51.4126 3.83008 51.4121 3.83008 51.4117 3.83008C51.4112 3.83008 51.4108 3.83008 51.4103 3.83008C51.4098 3.83008 51.4094 3.83008 51.4089 3.83008C51.4084 3.83008 51.408 3.83008 51.4075 3.83008C51.407 3.83008 51.4066 3.83008 51.4061 3.83008C51.4057 3.83008 51.4052 3.83008 51.4047 3.83008C51.4043 3.83008 51.4038 3.83008 51.4033 3.83008C51.4029 3.83008 51.4024 3.83008 51.4019 3.83008C51.4015 3.83008 51.401 3.83008 51.4006 3.83008C51.4001 3.83008 51.3996 3.83008 51.3992 3.83008C51.3987 3.83008 51.3982 3.83008 51.3978 3.83008C51.3973 3.83008 51.3968 3.83008 51.3964 3.83008C51.3959 3.83008 51.3955 3.83008 51.395 3.83008C51.3945 3.83008 51.3941 3.83008 51.3936 3.83008C51.3931 3.83008 51.3927 3.83008 51.3922 3.83008C51.3917 3.83008 51.3913 3.83008 51.3908 3.83008C51.3904 3.83008 51.3899 3.83008 51.3894 3.83008C51.389 3.83008 51.3885 3.83008 51.388 3.83008C51.3876 3.83008 51.3871 3.83008 51.3866 3.83008C51.3862 3.83008 51.3857 3.83008 51.3853 3.83008C51.3848 3.83008 51.3843 3.83008 51.3839 3.83008C51.3834 3.83008 51.3829 3.83008 51.3825 3.83008C51.382 3.83008 51.3815 3.83008 51.3811 3.83008C51.3806 3.83008 51.3802 3.83008 51.3797 3.83008C51.3792 3.83008 51.3788 3.83008 51.3783 3.83008C51.3778 3.83008 51.3774 3.83008 51.3769 3.83008C51.3764 3.83008 51.376 3.83008 51.3755 3.83008C51.3751 3.83008 51.3746 3.83008 51.3741 3.83008C51.3737 3.83008 51.3732 3.83008 51.3727 3.83008C51.3723 3.83008 51.3718 3.83008 51.3713 3.83008C51.3709 3.83008 51.3704 3.83008 51.37 3.83008C51.3695 3.83008 51.369 3.83008 51.3686 3.83008C51.3681 3.83008 51.3676 3.83008 51.3672 3.83008C51.3667 3.83008 51.3662 3.83008 51.3658 3.83008C51.3653 3.83008 51.3649 3.83008 51.3644 3.83008C51.3639 3.83008 51.3635 3.83008 51.363 3.83008C51.3625 3.83008 51.3621 3.83008 51.3616 3.83008C51.3611 3.83008 51.3607 3.83008 51.3602 3.83008C51.3598 3.83008 51.3593 3.83008 51.3588 3.83008C51.3584 3.83008 51.3579 3.83008 51.3574 3.83008C51.357 3.83008 51.3565 3.83008 51.356 3.83008C51.3556 3.83008 51.3551 3.83008 51.3547 3.83008C51.3542 3.83008 51.3537 3.83008 51.3533 3.83008C51.3528 3.83008 51.3523 3.83008 51.3519 3.83008C51.3514 3.83008 51.3509 3.83008 51.3505 3.83008C51.35 3.83008 51.3496 3.83008 51.3491 3.83008C51.3486 3.83008 51.3482 3.83008 51.3477 3.83008C51.3472 3.83008 51.3468 3.83008 51.3463 3.83008C51.3458 3.83008 51.3454 3.83008 51.3449 3.83008C51.3445 3.83008 51.344 3.83008 51.3435 3.83008C51.3431 3.83008 51.3426 3.83008 51.3421 3.83008C51.3417 3.83008 51.3412 3.83008 51.3407 3.83008C51.3403 3.83008 51.3398 3.83008 51.3394 3.83008C51.3389 3.83008 51.3384 3.83008 51.338 3.83008C51.3375 3.83008 51.337 3.83008 51.3366 3.83008C51.3361 3.83008 51.3356 3.83008 51.3352 3.83008C51.3347 3.83008 51.3342 3.83008 51.3338 3.83008C51.3333 3.83008 51.3329 3.83008 51.3324 3.83008C51.3319 3.83008 51.3315 3.83008 51.331 3.83008C51.3305 3.83008 51.3301 3.83008 51.3296 3.83008C51.3291 3.83008 51.3287 3.83008 51.3282 3.83008C51.3278 3.83008 51.3273 3.83008 51.3268 3.83008C51.3264 3.83008 51.3259 3.83008 51.3254 3.83008C51.325 3.83008 51.3245 3.83008 51.324 3.83008C51.3236 3.83008 51.3231 3.83008 51.3227 3.83008C51.3222 3.83008 51.3217 3.83008 51.3213 3.83008C51.3208 3.83008 51.3203 3.83008 51.3199 3.83008C51.3194 3.83008 51.3189 3.83008 51.3185 3.83008C51.318 3.83008 51.3176 3.83008 51.3171 3.83008C51.3166 3.83008 51.3162 3.83008 51.3157 3.83008C51.3152 3.83008 51.3148 3.83008 51.3143 3.83008C51.3138 3.83008 51.3134 3.83008 51.3129 3.83008C51.3125 3.83008 51.312 3.83008 51.3115 3.83008C51.3111 3.83008 51.3106 3.83008 51.3101 3.83008C51.3097 3.83008 51.3092 3.83008 51.3087 3.83008C51.3083 3.83008 51.3078 3.83008 51.3074 3.83008C51.3069 3.83008 51.3064 3.83008 51.306 3.83008C51.3055 3.83008 51.305 3.83008 51.3046 3.83008C51.3041 3.83008 51.3036 3.83008 51.3032 3.83008C51.3027 3.83008 51.3023 3.83008 51.3018 3.83008C51.3013 3.83008 51.3009 3.83008 51.3004 3.83008C51.2999 3.83008 51.2995 3.83008 51.299 3.83008C51.2985 3.83008 51.2981 3.83008 51.2976 3.83008C51.2972 3.83008 51.2967 3.83008 51.2962 3.83008C51.2958 3.83008 51.2953 3.83008 51.2948 3.83008C51.2944 3.83008 51.2939 3.83008 51.2934 3.83008C51.293 3.83008 51.2925 3.83008 51.2921 3.83008C51.2916 3.83008 51.2911 3.83008 51.2907 3.83008C51.2902 3.83008 51.2897 3.83008 51.2893 3.83008C51.2888 3.83008 51.2883 3.83008 51.2879 3.83008C51.2874 3.83008 51.287 3.83008 51.2865 3.83008C51.286 3.83008 51.2856 3.83008 51.2851 3.83008C51.2846 3.83008 51.2842 3.83008 51.2837 3.83008C51.2832 3.83008 51.2828 3.83008 51.2823 3.83008C51.2819 3.83008 51.2814 3.83008 51.2809 3.83008C51.2805 3.83008 51.28 3.83008 51.2795 3.83008C51.2791 3.83008 51.2786 3.83008 51.2781 3.83008C51.2777 3.83008 51.2772 3.83008 51.2768 3.83008C51.2763 3.83008 51.2758 3.83008 51.2754 3.83008C51.2749 3.83008 51.2744 3.83008 51.274 3.83008C51.2735 3.83008 51.273 3.83008 51.2726 3.83008C51.2721 3.83008 51.2717 3.83008 51.2712 3.83008C51.2707 3.83008 51.2703 3.83008 51.2698 3.83008C51.2693 3.83008 51.2689 3.83008 51.2684 3.83008C51.2679 3.83008 51.2675 3.83008 51.267 3.83008C51.2666 3.83008 51.2661 3.83008 51.2656 3.83008C51.2652 3.83008 51.2647 3.83008 51.2642 3.83008C51.2638 3.83008 51.2633 3.83008 51.2628 3.83008C51.2624 3.83008 51.2619 3.83008 51.2615 3.83008C51.261 3.83008 51.2605 3.83008 51.2601 3.83008C51.2596 3.83008 51.2591 3.83008 51.2587 3.83008C51.2582 3.83008 51.2577 3.83008 51.2573 3.83008C51.2568 3.83008 51.2564 3.83008 51.2559 3.83008C51.2554 3.83008 51.255 3.83008 51.2545 3.83008C51.254 3.83008 51.2536 3.83008 51.2531 3.83008C51.2526 3.83008 51.2522 3.83008 51.2517 3.83008C51.2513 3.83008 51.2508 3.83008 51.2503 3.83008C51.2499 3.83008 51.2494 3.83008 51.2489 3.83008C51.2485 3.83008 51.248 3.83008 51.2475 3.83008C51.2471 3.83008 51.2466 3.83008 51.2462 3.83008C51.2457 3.83008 51.2452 3.83008 51.2448 3.83008C51.2443 3.83008 51.2438 3.83008 51.2434 3.83008C51.2429 3.83008 51.2424 3.83008 51.242 3.83008C51.2415 3.83008 51.2411 3.83008 51.2406 3.83008C51.2401 3.83008 51.2397 3.83008 51.2392 3.83008C51.2387 3.83008 51.2383 3.83008 51.2378 3.83008C51.2373 3.83008 51.2369 3.83008 51.2364 3.83008C51.236 3.83008 51.2355 3.83008 51.235 3.83008C51.2346 3.83008 51.2341 3.83008 51.2336 3.83008C51.2332 3.83008 51.2327 3.83008 51.2322 3.83008C51.2318 3.83008 51.2313 3.83008 51.2309 3.83008C51.2304 3.83008 51.2299 3.83008 51.2295 3.83008C51.229 3.83008 51.2285 3.83008 51.2281 3.83008C51.2276 3.83008 51.2271 3.83008 51.2267 3.83008C51.2262 3.83008 51.2258 3.83008 51.2253 3.83008C51.2248 3.83008 51.2244 3.83008 51.2239 3.83008C51.2234 3.83008 51.223 3.83008 51.2225 3.83008C51.222 3.83008 51.2216 3.83008 51.2211 3.83008C51.2207 3.83008 51.2202 3.83008 51.2197 3.83008C51.2193 3.83008 51.2188 3.83008 51.2183 3.83008C51.2179 3.83008 51.2174 3.83008 51.2169 3.83008C51.2165 3.83008 51.216 3.83008 51.2156 3.83008C51.2151 3.83008 51.2146 3.83008 51.2142 3.83008C51.2137 3.83008 51.2132 3.83008 51.2128 3.83008C51.2123 3.83008 51.2118 3.83008 51.2114 3.83008C51.2109 3.83008 51.2105 3.83008 51.21 3.83008C51.2095 3.83008 51.2091 3.83008 51.2086 3.83008C51.2081 3.83008 51.2077 3.83008 51.2072 3.83008C51.2067 3.83008 51.2063 3.83008 51.2058 3.83008C51.2054 3.83008 51.2049 3.83008 51.2044 3.83008C51.204 3.83008 51.2035 3.83008 51.203 3.83008C51.2026 3.83008 51.2021 3.83008 51.2016 3.83008C51.2012 3.83008 51.2007 3.83008 51.2003 3.83008C51.1998 3.83008 51.1993 3.83008 51.1989 3.83008C51.1984 3.83008 51.1979 3.83008 51.1975 3.83008C51.197 3.83008 51.1965 3.83008 51.1961 3.83008C51.1956 3.83008 51.1952 3.83008 51.1947 3.83008C51.1942 3.83008 51.1938 3.83008 51.1933 3.83008C51.1928 3.83008 51.1924 3.83008 51.1919 3.83008C51.1914 3.83008 51.191 3.83008 51.1905 3.83008C51.1901 3.83008 51.1896 3.83008 51.1891 3.83008C51.1887 3.83008 51.1882 3.83008 51.1877 3.83008C51.1873 3.83008 51.1868 3.83008 51.1863 3.83008C51.1859 3.83008 51.1854 3.83008 51.185 3.83008C51.1845 3.83008 51.184 3.83008 51.1836 3.83008C51.1831 3.83008 51.1826 3.83008 51.1822 3.83008C51.1817 3.83008 51.1812 3.83008 51.1808 3.83008C51.1803 3.83008 51.1798 3.83008 51.1794 3.83008C51.1789 3.83008 51.1785 3.83008 51.178 3.83008C51.1775 3.83008 51.1771 3.83008 51.1766 3.83008C51.1761 3.83008 51.1757 3.83008 51.1752 3.83008C51.1747 3.83008 51.1743 3.83008 51.1738 3.83008C51.1734 3.83008 51.1729 3.83008 51.1724 3.83008C51.172 3.83008 51.1715 3.83008 51.171 3.83008C51.1706 3.83008 51.1701 3.83008 51.1696 3.83008C51.1692 3.83008 51.1687 3.83008 51.1683 3.83008C51.1678 3.83008 51.1673 3.83008 51.1669 3.83008C51.1664 3.83008 51.1659 3.83008 51.1655 3.83008C51.165 3.83008 51.1645 3.83008 51.1641 3.83008C51.1636 3.83008 51.1632 3.83008 51.1627 3.83008C51.1622 3.83008 51.1618 3.83008 51.1613 3.83008C51.1608 3.83008 51.1604 3.83008 51.1599 3.83008C51.1594 3.83008 51.159 3.83008 51.1585 3.83008C51.1581 3.83008 51.1576 3.83008 51.1571 3.83008C51.1567 3.83008 51.1562 3.83008 51.1557 3.83008C51.1553 3.83008 51.1548 3.83008 51.1543 3.83008C51.1539 3.83008 51.1534 3.83008 51.153 3.83008C51.1525 3.83008 51.152 3.83008 51.1516 3.83008C51.1511 3.83008 51.1506 3.83008 51.1502 3.83008C51.1497 3.83008 51.1492 3.83008 51.1488 3.83008C51.1483 3.83008 51.1479 3.83008 51.1474 3.83008C51.1469 3.83008 51.1465 3.83008 51.146 3.83008C51.1455 3.83008 51.1451 3.83008 51.1446 3.83008C51.1441 3.83008 51.1437 3.83008 51.1432 3.83008C51.1428 3.83008 51.1423 3.83008 51.1418 3.83008C51.1414 3.83008 51.1409 3.83008 51.1404 3.83008C51.14 3.83008 51.1395 3.83008 51.139 3.83008C51.1386 3.83008 51.1381 3.83008 51.1377 3.83008C51.1372 3.83008 51.1367 3.83008 51.1363 3.83008C51.1358 3.83008 51.1353 3.83008 51.1349 3.83008C51.1344 3.83008 51.1339 3.83008 51.1335 3.83008C51.133 3.83008 51.1326 3.83008 51.1321 3.83008C51.1316 3.83008 51.1312 3.83008 51.1307 3.83008C51.1302 3.83008 51.1298 3.83008 51.1293 3.83008C51.1288 3.83008 51.1284 3.83008 51.1279 3.83008C51.1275 3.83008 51.127 3.83008 51.1265 3.83008C51.1261 3.83008 51.1256 3.83008 51.1251 3.83008C51.1247 3.83008 51.1242 3.83008 51.1237 3.83008C51.1233 3.83008 51.1228 3.83008 51.1224 3.83008C51.1219 3.83008 51.1214 3.83008 51.121 3.83008C51.1205 3.83008 51.12 3.83008 51.1196 3.83008C51.1191 3.83008 51.1186 3.83008 51.1182 3.83008C51.1177 3.83008 51.1173 3.83008 51.1168 3.83008C51.1163 3.83008 51.1159 3.83008 51.1154 3.83008C51.1149 3.83008 51.1145 3.83008 51.114 3.83008C51.1135 3.83008 51.1131 3.83008 51.1126 3.83008C51.1122 3.83008 51.1117 3.83008 51.1112 3.83008C51.1108 3.83008 51.1103 3.83008 51.1098 3.83008C51.1094 3.83008 51.1089 3.83008 51.1084 3.83008C51.108 3.83008 51.1075 3.83008 51.1071 3.83008C51.1066 3.83008 51.1061 3.83008 51.1057 3.83008C51.1052 3.83008 51.1047 3.83008 51.1043 3.83008C51.1038 3.83008 51.1033 3.83008 51.1029 3.83008C51.1024 3.83008 51.102 3.83008 51.1015 3.83008C51.101 3.83008 51.1006 3.83008 51.1001 3.83008C51.0996 3.83008 51.0992 3.83008 51.0987 3.83008C51.0982 3.83008 51.0978 3.83008 51.0973 3.83008C51.0969 3.83008 51.0964 3.83008 51.0959 3.83008C51.0955 3.83008 51.095 3.83008 51.0945 3.83008C51.0941 3.83008 51.0936 3.83008 51.0931 3.83008C51.0927 3.83008 51.0922 3.83008 51.0918 3.83008C51.0913 3.83008 51.0908 3.83008 51.0904 3.83008C51.0899 3.83008 51.0894 3.83008 51.089 3.83008C51.0885 3.83008 51.088 3.83008 51.0876 3.83008C51.0871 3.83008 51.0867 3.83008 51.0862 3.83008C51.0857 3.83008 51.0853 3.83008 51.0848 3.83008C51.0843 3.83008 51.0839 3.83008 51.0834 3.83008C51.0829 3.83008 51.0825 3.83008 51.082 3.83008C51.0816 3.83008 51.0811 3.83008 51.0806 3.83008C51.0802 3.83008 51.0797 3.83008 51.0792 3.83008C51.0788 3.83008 51.0783 3.83008 51.0778 3.83008C51.0774 3.83008 51.0769 3.83008 51.0765 3.83008C51.076 3.83008 51.0755 3.83008 51.0751 3.83008C51.0746 3.83008 51.0741 3.83008 51.0737 3.83008C51.0732 3.83008 51.0727 3.83008 51.0723 3.83008C51.0718 3.83008 51.0714 3.83008 51.0709 3.83008C51.0704 3.83008 51.07 3.83008 51.0695 3.83008C51.069 3.83008 51.0686 3.83008 51.0681 3.83008C51.0676 3.83008 51.0672 3.83008 51.0667 3.83008C51.0663 3.83008 51.0658 3.83008 51.0653 3.83008C51.0649 3.83008 51.0644 3.83008 51.0639 3.83008C51.0635 3.83008 51.063 3.83008 51.0625 3.83008C51.0621 3.83008 51.0616 3.83008 51.0612 3.83008C51.0607 3.83008 51.0602 3.83008 51.0598 3.83008C51.0593 3.83008 51.0588 3.83008 51.0584 3.83008C51.0579 3.83008 51.0574 3.83008 51.057 3.83008C51.0565 3.83008 51.0561 3.83008 51.0556 3.83008C51.0551 3.83008 51.0547 3.83008 51.0542 3.83008C51.0537 3.83008 51.0533 3.83008 51.0528 3.83008C51.0523 3.83008 51.0519 3.83008 51.0514 3.83008C51.051 3.83008 51.0505 3.83008 51.05 3.83008C51.0496 3.83008 51.0491 3.83008 51.0486 3.83008C51.0482 3.83008 51.0477 3.83008 51.0472 3.83008C51.0468 3.83008 51.0463 3.83008 51.0459 3.83008C51.0454 3.83008 51.0449 3.83008 51.0445 3.83008C51.044 3.83008 51.0435 3.83008 51.0431 3.83008C51.0426 3.83008 51.0421 3.83008 51.0417 3.83008C51.0412 3.83008 51.0408 3.83008 51.0403 3.83008C51.0398 3.83008 51.0394 3.83008 51.0389 3.83008C51.0384 3.83008 51.038 3.83008 51.0375 3.83008C51.037 3.83008 51.0366 3.83008 51.0361 3.83008C51.0357 3.83008 51.0352 3.83008 51.0347 3.83008C51.0343 3.83008 51.0338 3.83008 51.0333 3.83008C51.0329 3.83008 51.0324 3.83008 51.0319 3.83008C51.0315 3.83008 51.031 3.83008 51.0306 3.83008C51.0301 3.83008 51.0296 3.83008 51.0292 3.83008C51.0287 3.83008 51.0282 3.83008 51.0278 3.83008C51.0273 3.83008 51.0268 3.83008 51.0264 3.83008C51.0259 3.83008 51.0255 3.83008 51.025 3.83008V13.8301C51.0255 13.8301 51.0259 13.8301 51.0264 13.8301C51.0268 13.8301 51.0273 13.8301 51.0278 13.8301C51.0282 13.8301 51.0287 13.8301 51.0292 13.8301C51.0296 13.8301 51.0301 13.8301 51.0306 13.8301C51.031 13.8301 51.0315 13.8301 51.0319 13.8301C51.0324 13.8301 51.0329 13.8301 51.0333 13.8301C51.0338 13.8301 51.0343 13.8301 51.0347 13.8301C51.0352 13.8301 51.0357 13.8301 51.0361 13.8301C51.0366 13.8301 51.037 13.8301 51.0375 13.8301C51.038 13.8301 51.0384 13.8301 51.0389 13.8301C51.0394 13.8301 51.0398 13.8301 51.0403 13.8301C51.0408 13.8301 51.0412 13.8301 51.0417 13.8301C51.0421 13.8301 51.0426 13.8301 51.0431 13.8301C51.0435 13.8301 51.044 13.8301 51.0445 13.8301C51.0449 13.8301 51.0454 13.8301 51.0459 13.8301C51.0463 13.8301 51.0468 13.8301 51.0472 13.8301C51.0477 13.8301 51.0482 13.8301 51.0486 13.8301C51.0491 13.8301 51.0496 13.8301 51.05 13.8301C51.0505 13.8301 51.051 13.8301 51.0514 13.8301C51.0519 13.8301 51.0523 13.8301 51.0528 13.8301C51.0533 13.8301 51.0537 13.8301 51.0542 13.8301C51.0547 13.8301 51.0551 13.8301 51.0556 13.8301C51.0561 13.8301 51.0565 13.8301 51.057 13.8301C51.0574 13.8301 51.0579 13.8301 51.0584 13.8301C51.0588 13.8301 51.0593 13.8301 51.0598 13.8301C51.0602 13.8301 51.0607 13.8301 51.0612 13.8301C51.0616 13.8301 51.0621 13.8301 51.0625 13.8301C51.063 13.8301 51.0635 13.8301 51.0639 13.8301C51.0644 13.8301 51.0649 13.8301 51.0653 13.8301C51.0658 13.8301 51.0663 13.8301 51.0667 13.8301C51.0672 13.8301 51.0676 13.8301 51.0681 13.8301C51.0686 13.8301 51.069 13.8301 51.0695 13.8301C51.07 13.8301 51.0704 13.8301 51.0709 13.8301C51.0714 13.8301 51.0718 13.8301 51.0723 13.8301C51.0727 13.8301 51.0732 13.8301 51.0737 13.8301C51.0741 13.8301 51.0746 13.8301 51.0751 13.8301C51.0755 13.8301 51.076 13.8301 51.0765 13.8301C51.0769 13.8301 51.0774 13.8301 51.0778 13.8301C51.0783 13.8301 51.0788 13.8301 51.0792 13.8301C51.0797 13.8301 51.0802 13.8301 51.0806 13.8301C51.0811 13.8301 51.0816 13.8301 51.082 13.8301C51.0825 13.8301 51.0829 13.8301 51.0834 13.8301C51.0839 13.8301 51.0843 13.8301 51.0848 13.8301C51.0853 13.8301 51.0857 13.8301 51.0862 13.8301C51.0867 13.8301 51.0871 13.8301 51.0876 13.8301C51.088 13.8301 51.0885 13.8301 51.089 13.8301C51.0894 13.8301 51.0899 13.8301 51.0904 13.8301C51.0908 13.8301 51.0913 13.8301 51.0918 13.8301C51.0922 13.8301 51.0927 13.8301 51.0931 13.8301C51.0936 13.8301 51.0941 13.8301 51.0945 13.8301C51.095 13.8301 51.0955 13.8301 51.0959 13.8301C51.0964 13.8301 51.0969 13.8301 51.0973 13.8301C51.0978 13.8301 51.0982 13.8301 51.0987 13.8301C51.0992 13.8301 51.0996 13.8301 51.1001 13.8301C51.1006 13.8301 51.101 13.8301 51.1015 13.8301C51.102 13.8301 51.1024 13.8301 51.1029 13.8301C51.1033 13.8301 51.1038 13.8301 51.1043 13.8301C51.1047 13.8301 51.1052 13.8301 51.1057 13.8301C51.1061 13.8301 51.1066 13.8301 51.1071 13.8301C51.1075 13.8301 51.108 13.8301 51.1084 13.8301C51.1089 13.8301 51.1094 13.8301 51.1098 13.8301C51.1103 13.8301 51.1108 13.8301 51.1112 13.8301C51.1117 13.8301 51.1122 13.8301 51.1126 13.8301C51.1131 13.8301 51.1135 13.8301 51.114 13.8301C51.1145 13.8301 51.1149 13.8301 51.1154 13.8301C51.1159 13.8301 51.1163 13.8301 51.1168 13.8301C51.1173 13.8301 51.1177 13.8301 51.1182 13.8301C51.1186 13.8301 51.1191 13.8301 51.1196 13.8301C51.12 13.8301 51.1205 13.8301 51.121 13.8301C51.1214 13.8301 51.1219 13.8301 51.1224 13.8301C51.1228 13.8301 51.1233 13.8301 51.1237 13.8301C51.1242 13.8301 51.1247 13.8301 51.1251 13.8301C51.1256 13.8301 51.1261 13.8301 51.1265 13.8301C51.127 13.8301 51.1275 13.8301 51.1279 13.8301C51.1284 13.8301 51.1288 13.8301 51.1293 13.8301C51.1298 13.8301 51.1302 13.8301 51.1307 13.8301C51.1312 13.8301 51.1316 13.8301 51.1321 13.8301C51.1326 13.8301 51.133 13.8301 51.1335 13.8301C51.1339 13.8301 51.1344 13.8301 51.1349 13.8301C51.1353 13.8301 51.1358 13.8301 51.1363 13.8301C51.1367 13.8301 51.1372 13.8301 51.1377 13.8301C51.1381 13.8301 51.1386 13.8301 51.139 13.8301C51.1395 13.8301 51.14 13.8301 51.1404 13.8301C51.1409 13.8301 51.1414 13.8301 51.1418 13.8301C51.1423 13.8301 51.1428 13.8301 51.1432 13.8301C51.1437 13.8301 51.1441 13.8301 51.1446 13.8301C51.1451 13.8301 51.1455 13.8301 51.146 13.8301C51.1465 13.8301 51.1469 13.8301 51.1474 13.8301C51.1479 13.8301 51.1483 13.8301 51.1488 13.8301C51.1492 13.8301 51.1497 13.8301 51.1502 13.8301C51.1506 13.8301 51.1511 13.8301 51.1516 13.8301C51.152 13.8301 51.1525 13.8301 51.153 13.8301C51.1534 13.8301 51.1539 13.8301 51.1543 13.8301C51.1548 13.8301 51.1553 13.8301 51.1557 13.8301C51.1562 13.8301 51.1567 13.8301 51.1571 13.8301C51.1576 13.8301 51.1581 13.8301 51.1585 13.8301C51.159 13.8301 51.1594 13.8301 51.1599 13.8301C51.1604 13.8301 51.1608 13.8301 51.1613 13.8301C51.1618 13.8301 51.1622 13.8301 51.1627 13.8301C51.1632 13.8301 51.1636 13.8301 51.1641 13.8301C51.1645 13.8301 51.165 13.8301 51.1655 13.8301C51.1659 13.8301 51.1664 13.8301 51.1669 13.8301C51.1673 13.8301 51.1678 13.8301 51.1683 13.8301C51.1687 13.8301 51.1692 13.8301 51.1696 13.8301C51.1701 13.8301 51.1706 13.8301 51.171 13.8301C51.1715 13.8301 51.172 13.8301 51.1724 13.8301C51.1729 13.8301 51.1734 13.8301 51.1738 13.8301C51.1743 13.8301 51.1747 13.8301 51.1752 13.8301C51.1757 13.8301 51.1761 13.8301 51.1766 13.8301C51.1771 13.8301 51.1775 13.8301 51.178 13.8301C51.1785 13.8301 51.1789 13.8301 51.1794 13.8301C51.1798 13.8301 51.1803 13.8301 51.1808 13.8301C51.1812 13.8301 51.1817 13.8301 51.1822 13.8301C51.1826 13.8301 51.1831 13.8301 51.1836 13.8301C51.184 13.8301 51.1845 13.8301 51.185 13.8301C51.1854 13.8301 51.1859 13.8301 51.1863 13.8301C51.1868 13.8301 51.1873 13.8301 51.1877 13.8301C51.1882 13.8301 51.1887 13.8301 51.1891 13.8301C51.1896 13.8301 51.1901 13.8301 51.1905 13.8301C51.191 13.8301 51.1914 13.8301 51.1919 13.8301C51.1924 13.8301 51.1928 13.8301 51.1933 13.8301C51.1938 13.8301 51.1942 13.8301 51.1947 13.8301C51.1952 13.8301 51.1956 13.8301 51.1961 13.8301C51.1965 13.8301 51.197 13.8301 51.1975 13.8301C51.1979 13.8301 51.1984 13.8301 51.1989 13.8301C51.1993 13.8301 51.1998 13.8301 51.2003 13.8301C51.2007 13.8301 51.2012 13.8301 51.2016 13.8301C51.2021 13.8301 51.2026 13.8301 51.203 13.8301C51.2035 13.8301 51.204 13.8301 51.2044 13.8301C51.2049 13.8301 51.2054 13.8301 51.2058 13.8301C51.2063 13.8301 51.2067 13.8301 51.2072 13.8301C51.2077 13.8301 51.2081 13.8301 51.2086 13.8301C51.2091 13.8301 51.2095 13.8301 51.21 13.8301C51.2105 13.8301 51.2109 13.8301 51.2114 13.8301C51.2118 13.8301 51.2123 13.8301 51.2128 13.8301C51.2132 13.8301 51.2137 13.8301 51.2142 13.8301C51.2146 13.8301 51.2151 13.8301 51.2156 13.8301C51.216 13.8301 51.2165 13.8301 51.2169 13.8301C51.2174 13.8301 51.2179 13.8301 51.2183 13.8301C51.2188 13.8301 51.2193 13.8301 51.2197 13.8301C51.2202 13.8301 51.2207 13.8301 51.2211 13.8301C51.2216 13.8301 51.222 13.8301 51.2225 13.8301C51.223 13.8301 51.2234 13.8301 51.2239 13.8301C51.2244 13.8301 51.2248 13.8301 51.2253 13.8301C51.2258 13.8301 51.2262 13.8301 51.2267 13.8301C51.2271 13.8301 51.2276 13.8301 51.2281 13.8301C51.2285 13.8301 51.229 13.8301 51.2295 13.8301C51.2299 13.8301 51.2304 13.8301 51.2309 13.8301C51.2313 13.8301 51.2318 13.8301 51.2322 13.8301C51.2327 13.8301 51.2332 13.8301 51.2336 13.8301C51.2341 13.8301 51.2346 13.8301 51.235 13.8301C51.2355 13.8301 51.236 13.8301 51.2364 13.8301C51.2369 13.8301 51.2373 13.8301 51.2378 13.8301C51.2383 13.8301 51.2387 13.8301 51.2392 13.8301C51.2397 13.8301 51.2401 13.8301 51.2406 13.8301C51.2411 13.8301 51.2415 13.8301 51.242 13.8301C51.2424 13.8301 51.2429 13.8301 51.2434 13.8301C51.2438 13.8301 51.2443 13.8301 51.2448 13.8301C51.2452 13.8301 51.2457 13.8301 51.2462 13.8301C51.2466 13.8301 51.2471 13.8301 51.2475 13.8301C51.248 13.8301 51.2485 13.8301 51.2489 13.8301C51.2494 13.8301 51.2499 13.8301 51.2503 13.8301C51.2508 13.8301 51.2513 13.8301 51.2517 13.8301C51.2522 13.8301 51.2526 13.8301 51.2531 13.8301C51.2536 13.8301 51.254 13.8301 51.2545 13.8301C51.255 13.8301 51.2554 13.8301 51.2559 13.8301C51.2564 13.8301 51.2568 13.8301 51.2573 13.8301C51.2577 13.8301 51.2582 13.8301 51.2587 13.8301C51.2591 13.8301 51.2596 13.8301 51.2601 13.8301C51.2605 13.8301 51.261 13.8301 51.2615 13.8301C51.2619 13.8301 51.2624 13.8301 51.2628 13.8301C51.2633 13.8301 51.2638 13.8301 51.2642 13.8301C51.2647 13.8301 51.2652 13.8301 51.2656 13.8301C51.2661 13.8301 51.2666 13.8301 51.267 13.8301C51.2675 13.8301 51.2679 13.8301 51.2684 13.8301C51.2689 13.8301 51.2693 13.8301 51.2698 13.8301C51.2703 13.8301 51.2707 13.8301 51.2712 13.8301C51.2717 13.8301 51.2721 13.8301 51.2726 13.8301C51.273 13.8301 51.2735 13.8301 51.274 13.8301C51.2744 13.8301 51.2749 13.8301 51.2754 13.8301C51.2758 13.8301 51.2763 13.8301 51.2768 13.8301C51.2772 13.8301 51.2777 13.8301 51.2781 13.8301C51.2786 13.8301 51.2791 13.8301 51.2795 13.8301C51.28 13.8301 51.2805 13.8301 51.2809 13.8301C51.2814 13.8301 51.2819 13.8301 51.2823 13.8301C51.2828 13.8301 51.2832 13.8301 51.2837 13.8301C51.2842 13.8301 51.2846 13.8301 51.2851 13.8301C51.2856 13.8301 51.286 13.8301 51.2865 13.8301C51.287 13.8301 51.2874 13.8301 51.2879 13.8301C51.2883 13.8301 51.2888 13.8301 51.2893 13.8301C51.2897 13.8301 51.2902 13.8301 51.2907 13.8301C51.2911 13.8301 51.2916 13.8301 51.2921 13.8301C51.2925 13.8301 51.293 13.8301 51.2934 13.8301C51.2939 13.8301 51.2944 13.8301 51.2948 13.8301C51.2953 13.8301 51.2958 13.8301 51.2962 13.8301C51.2967 13.8301 51.2972 13.8301 51.2976 13.8301C51.2981 13.8301 51.2985 13.8301 51.299 13.8301C51.2995 13.8301 51.2999 13.8301 51.3004 13.8301C51.3009 13.8301 51.3013 13.8301 51.3018 13.8301C51.3023 13.8301 51.3027 13.8301 51.3032 13.8301C51.3036 13.8301 51.3041 13.8301 51.3046 13.8301C51.305 13.8301 51.3055 13.8301 51.306 13.8301C51.3064 13.8301 51.3069 13.8301 51.3074 13.8301C51.3078 13.8301 51.3083 13.8301 51.3087 13.8301C51.3092 13.8301 51.3097 13.8301 51.3101 13.8301C51.3106 13.8301 51.3111 13.8301 51.3115 13.8301C51.312 13.8301 51.3125 13.8301 51.3129 13.8301C51.3134 13.8301 51.3138 13.8301 51.3143 13.8301C51.3148 13.8301 51.3152 13.8301 51.3157 13.8301C51.3162 13.8301 51.3166 13.8301 51.3171 13.8301C51.3176 13.8301 51.318 13.8301 51.3185 13.8301C51.3189 13.8301 51.3194 13.8301 51.3199 13.8301C51.3203 13.8301 51.3208 13.8301 51.3213 13.8301C51.3217 13.8301 51.3222 13.8301 51.3227 13.8301C51.3231 13.8301 51.3236 13.8301 51.324 13.8301C51.3245 13.8301 51.325 13.8301 51.3254 13.8301C51.3259 13.8301 51.3264 13.8301 51.3268 13.8301C51.3273 13.8301 51.3278 13.8301 51.3282 13.8301C51.3287 13.8301 51.3291 13.8301 51.3296 13.8301C51.3301 13.8301 51.3305 13.8301 51.331 13.8301C51.3315 13.8301 51.3319 13.8301 51.3324 13.8301C51.3329 13.8301 51.3333 13.8301 51.3338 13.8301C51.3342 13.8301 51.3347 13.8301 51.3352 13.8301C51.3356 13.8301 51.3361 13.8301 51.3366 13.8301C51.337 13.8301 51.3375 13.8301 51.338 13.8301C51.3384 13.8301 51.3389 13.8301 51.3394 13.8301C51.3398 13.8301 51.3403 13.8301 51.3407 13.8301C51.3412 13.8301 51.3417 13.8301 51.3421 13.8301C51.3426 13.8301 51.3431 13.8301 51.3435 13.8301C51.344 13.8301 51.3445 13.8301 51.3449 13.8301C51.3454 13.8301 51.3458 13.8301 51.3463 13.8301C51.3468 13.8301 51.3472 13.8301 51.3477 13.8301C51.3482 13.8301 51.3486 13.8301 51.3491 13.8301C51.3496 13.8301 51.35 13.8301 51.3505 13.8301C51.3509 13.8301 51.3514 13.8301 51.3519 13.8301C51.3523 13.8301 51.3528 13.8301 51.3533 13.8301C51.3537 13.8301 51.3542 13.8301 51.3547 13.8301C51.3551 13.8301 51.3556 13.8301 51.356 13.8301C51.3565 13.8301 51.357 13.8301 51.3574 13.8301C51.3579 13.8301 51.3584 13.8301 51.3588 13.8301C51.3593 13.8301 51.3598 13.8301 51.3602 13.8301C51.3607 13.8301 51.3611 13.8301 51.3616 13.8301C51.3621 13.8301 51.3625 13.8301 51.363 13.8301C51.3635 13.8301 51.3639 13.8301 51.3644 13.8301C51.3649 13.8301 51.3653 13.8301 51.3658 13.8301C51.3662 13.8301 51.3667 13.8301 51.3672 13.8301C51.3676 13.8301 51.3681 13.8301 51.3686 13.8301C51.369 13.8301 51.3695 13.8301 51.37 13.8301C51.3704 13.8301 51.3709 13.8301 51.3713 13.8301C51.3718 13.8301 51.3723 13.8301 51.3727 13.8301C51.3732 13.8301 51.3737 13.8301 51.3741 13.8301C51.3746 13.8301 51.3751 13.8301 51.3755 13.8301C51.376 13.8301 51.3764 13.8301 51.3769 13.8301C51.3774 13.8301 51.3778 13.8301 51.3783 13.8301C51.3788 13.8301 51.3792 13.8301 51.3797 13.8301C51.3802 13.8301 51.3806 13.8301 51.3811 13.8301C51.3815 13.8301 51.382 13.8301 51.3825 13.8301C51.3829 13.8301 51.3834 13.8301 51.3839 13.8301C51.3843 13.8301 51.3848 13.8301 51.3853 13.8301C51.3857 13.8301 51.3862 13.8301 51.3866 13.8301C51.3871 13.8301 51.3876 13.8301 51.388 13.8301C51.3885 13.8301 51.389 13.8301 51.3894 13.8301C51.3899 13.8301 51.3904 13.8301 51.3908 13.8301C51.3913 13.8301 51.3917 13.8301 51.3922 13.8301C51.3927 13.8301 51.3931 13.8301 51.3936 13.8301C51.3941 13.8301 51.3945 13.8301 51.395 13.8301C51.3955 13.8301 51.3959 13.8301 51.3964 13.8301C51.3968 13.8301 51.3973 13.8301 51.3978 13.8301C51.3982 13.8301 51.3987 13.8301 51.3992 13.8301C51.3996 13.8301 51.4001 13.8301 51.4006 13.8301C51.401 13.8301 51.4015 13.8301 51.4019 13.8301C51.4024 13.8301 51.4029 13.8301 51.4033 13.8301C51.4038 13.8301 51.4043 13.8301 51.4047 13.8301C51.4052 13.8301 51.4057 13.8301 51.4061 13.8301C51.4066 13.8301 51.407 13.8301 51.4075 13.8301C51.408 13.8301 51.4084 13.8301 51.4089 13.8301C51.4094 13.8301 51.4098 13.8301 51.4103 13.8301C51.4108 13.8301 51.4112 13.8301 51.4117 13.8301C51.4121 13.8301 51.4126 13.8301 51.4131 13.8301C51.4135 13.8301 51.414 13.8301 51.4145 13.8301C51.4149 13.8301 51.4154 13.8301 51.4159 13.8301C51.4163 13.8301 51.4168 13.8301 51.4172 13.8301C51.4177 13.8301 51.4182 13.8301 51.4186 13.8301C51.4191 13.8301 51.4196 13.8301 51.42 13.8301C51.4205 13.8301 51.421 13.8301 51.4214 13.8301C51.4219 13.8301 51.4223 13.8301 51.4228 13.8301C51.4233 13.8301 51.4237 13.8301 51.4242 13.8301C51.4247 13.8301 51.4251 13.8301 51.4256 13.8301C51.4261 13.8301 51.4265 13.8301 51.427 13.8301C51.4274 13.8301 51.4279 13.8301 51.4284 13.8301C51.4288 13.8301 51.4293 13.8301 51.4298 13.8301C51.4302 13.8301 51.4307 13.8301 51.4312 13.8301C51.4316 13.8301 51.4321 13.8301 51.4325 13.8301C51.433 13.8301 51.4335 13.8301 51.4339 13.8301C51.4344 13.8301 51.4349 13.8301 51.4353 13.8301C51.4358 13.8301 51.4363 13.8301 51.4367 13.8301C51.4372 13.8301 51.4376 13.8301 51.4381 13.8301C51.4386 13.8301 51.439 13.8301 51.4395 13.8301C51.44 13.8301 51.4404 13.8301 51.4409 13.8301C51.4414 13.8301 51.4418 13.8301 51.4423 13.8301C51.4427 13.8301 51.4432 13.8301 51.4437 13.8301C51.4441 13.8301 51.4446 13.8301 51.4451 13.8301C51.4455 13.8301 51.446 13.8301 51.4465 13.8301C51.4469 13.8301 51.4474 13.8301 51.4478 13.8301C51.4483 13.8301 51.4488 13.8301 51.4492 13.8301C51.4497 13.8301 51.4502 13.8301 51.4506 13.8301C51.4511 13.8301 51.4516 13.8301 51.452 13.8301C51.4525 13.8301 51.4529 13.8301 51.4534 13.8301C51.4539 13.8301 51.4543 13.8301 51.4548 13.8301C51.4553 13.8301 51.4557 13.8301 51.4562 13.8301C51.4567 13.8301 51.4571 13.8301 51.4576 13.8301C51.458 13.8301 51.4585 13.8301 51.459 13.8301C51.4594 13.8301 51.4599 13.8301 51.4604 13.8301C51.4608 13.8301 51.4613 13.8301 51.4618 13.8301C51.4622 13.8301 51.4627 13.8301 51.4631 13.8301C51.4636 13.8301 51.4641 13.8301 51.4645 13.8301C51.465 13.8301 51.4655 13.8301 51.4659 13.8301C51.4664 13.8301 51.4669 13.8301 51.4673 13.8301C51.4678 13.8301 51.4683 13.8301 51.4687 13.8301C51.4692 13.8301 51.4696 13.8301 51.4701 13.8301C51.4706 13.8301 51.471 13.8301 51.4715 13.8301C51.472 13.8301 51.4724 13.8301 51.4729 13.8301C51.4734 13.8301 51.4738 13.8301 51.4743 13.8301C51.4747 13.8301 51.4752 13.8301 51.4757 13.8301C51.4761 13.8301 51.4766 13.8301 51.4771 13.8301C51.4775 13.8301 51.478 13.8301 51.4785 13.8301C51.4789 13.8301 51.4794 13.8301 51.4798 13.8301C51.4803 13.8301 51.4808 13.8301 51.4812 13.8301C51.4817 13.8301 51.4822 13.8301 51.4826 13.8301C51.4831 13.8301 51.4836 13.8301 51.484 13.8301C51.4845 13.8301 51.4849 13.8301 51.4854 13.8301C51.4859 13.8301 51.4863 13.8301 51.4868 13.8301C51.4873 13.8301 51.4877 13.8301 51.4882 13.8301C51.4887 13.8301 51.4891 13.8301 51.4896 13.8301C51.49 13.8301 51.4905 13.8301 51.491 13.8301C51.4914 13.8301 51.4919 13.8301 51.4924 13.8301C51.4928 13.8301 51.4933 13.8301 51.4938 13.8301C51.4942 13.8301 51.4947 13.8301 51.4951 13.8301C51.4956 13.8301 51.4961 13.8301 51.4965 13.8301C51.497 13.8301 51.4975 13.8301 51.4979 13.8301C51.4984 13.8301 51.4989 13.8301 51.4993 13.8301C51.4998 13.8301 51.5002 13.8301 51.5007 13.8301C51.5012 13.8301 51.5016 13.8301 51.5021 13.8301C51.5026 13.8301 51.503 13.8301 51.5035 13.8301C51.504 13.8301 51.5044 13.8301 51.5049 13.8301C51.5053 13.8301 51.5058 13.8301 51.5063 13.8301C51.5067 13.8301 51.5072 13.8301 51.5077 13.8301C51.5081 13.8301 51.5086 13.8301 51.5091 13.8301C51.5095 13.8301 51.51 13.8301 51.5104 13.8301C51.5109 13.8301 51.5114 13.8301 51.5118 13.8301C51.5123 13.8301 51.5128 13.8301 51.5132 13.8301C51.5137 13.8301 51.5142 13.8301 51.5146 13.8301C51.5151 13.8301 51.5155 13.8301 51.516 13.8301C51.5165 13.8301 51.5169 13.8301 51.5174 13.8301C51.5179 13.8301 51.5183 13.8301 51.5188 13.8301C51.5193 13.8301 51.5197 13.8301 51.5202 13.8301C51.5206 13.8301 51.5211 13.8301 51.5216 13.8301C51.522 13.8301 51.5225 13.8301 51.523 13.8301C51.5234 13.8301 51.5239 13.8301 51.5244 13.8301C51.5248 13.8301 51.5253 13.8301 51.5257 13.8301C51.5262 13.8301 51.5267 13.8301 51.5271 13.8301C51.5276 13.8301 51.5281 13.8301 51.5285 13.8301C51.529 13.8301 51.5295 13.8301 51.5299 13.8301C51.5304 13.8301 51.5308 13.8301 51.5313 13.8301C51.5318 13.8301 51.5322 13.8301 51.5327 13.8301C51.5332 13.8301 51.5336 13.8301 51.5341 13.8301C51.5346 13.8301 51.535 13.8301 51.5355 13.8301C51.5359 13.8301 51.5364 13.8301 51.5369 13.8301C51.5373 13.8301 51.5378 13.8301 51.5383 13.8301C51.5387 13.8301 51.5392 13.8301 51.5397 13.8301C51.5401 13.8301 51.5406 13.8301 51.541 13.8301C51.5415 13.8301 51.542 13.8301 51.5424 13.8301C51.5429 13.8301 51.5434 13.8301 51.5438 13.8301C51.5443 13.8301 51.5448 13.8301 51.5452 13.8301C51.5457 13.8301 51.5461 13.8301 51.5466 13.8301C51.5471 13.8301 51.5475 13.8301 51.548 13.8301C51.5485 13.8301 51.5489 13.8301 51.5494 13.8301C51.5499 13.8301 51.5503 13.8301 51.5508 13.8301C51.5512 13.8301 51.5517 13.8301 51.5522 13.8301C51.5526 13.8301 51.5531 13.8301 51.5536 13.8301C51.554 13.8301 51.5545 13.8301 51.555 13.8301C51.5554 13.8301 51.5559 13.8301 51.5563 13.8301C51.5568 13.8301 51.5573 13.8301 51.5577 13.8301C51.5582 13.8301 51.5587 13.8301 51.5591 13.8301C51.5596 13.8301 51.5601 13.8301 51.5605 13.8301C51.561 13.8301 51.5614 13.8301 51.5619 13.8301C51.5624 13.8301 51.5628 13.8301 51.5633 13.8301C51.5638 13.8301 51.5642 13.8301 51.5647 13.8301C51.5652 13.8301 51.5656 13.8301 51.5661 13.8301C51.5665 13.8301 51.567 13.8301 51.5675 13.8301C51.5679 13.8301 51.5684 13.8301 51.5689 13.8301C51.5693 13.8301 51.5698 13.8301 51.5703 13.8301C51.5707 13.8301 51.5712 13.8301 51.5716 13.8301C51.5721 13.8301 51.5726 13.8301 51.573 13.8301C51.5735 13.8301 51.574 13.8301 51.5744 13.8301C51.5749 13.8301 51.5754 13.8301 51.5758 13.8301C51.5763 13.8301 51.5767 13.8301 51.5772 13.8301C51.5777 13.8301 51.5781 13.8301 51.5786 13.8301C51.5791 13.8301 51.5795 13.8301 51.58 13.8301C51.5805 13.8301 51.5809 13.8301 51.5814 13.8301C51.5818 13.8301 51.5823 13.8301 51.5828 13.8301C51.5832 13.8301 51.5837 13.8301 51.5842 13.8301C51.5846 13.8301 51.5851 13.8301 51.5856 13.8301C51.586 13.8301 51.5865 13.8301 51.5869 13.8301C51.5874 13.8301 51.5879 13.8301 51.5883 13.8301C51.5888 13.8301 51.5893 13.8301 51.5897 13.8301C51.5902 13.8301 51.5907 13.8301 51.5911 13.8301C51.5916 13.8301 51.592 13.8301 51.5925 13.8301C51.593 13.8301 51.5934 13.8301 51.5939 13.8301C51.5944 13.8301 51.5948 13.8301 51.5953 13.8301C51.5958 13.8301 51.5962 13.8301 51.5967 13.8301C51.5971 13.8301 51.5976 13.8301 51.5981 13.8301C51.5985 13.8301 51.599 13.8301 51.5995 13.8301C51.5999 13.8301 51.6004 13.8301 51.6009 13.8301C51.6013 13.8301 51.6018 13.8301 51.6022 13.8301C51.6027 13.8301 51.6032 13.8301 51.6036 13.8301C51.6041 13.8301 51.6046 13.8301 51.605 13.8301C51.6055 13.8301 51.606 13.8301 51.6064 13.8301C51.6069 13.8301 51.6073 13.8301 51.6078 13.8301C51.6083 13.8301 51.6087 13.8301 51.6092 13.8301C51.6097 13.8301 51.6101 13.8301 51.6106 13.8301C51.6111 13.8301 51.6115 13.8301 51.612 13.8301C51.6124 13.8301 51.6129 13.8301 51.6134 13.8301C51.6138 13.8301 51.6143 13.8301 51.6148 13.8301C51.6152 13.8301 51.6157 13.8301 51.6162 13.8301C51.6166 13.8301 51.6171 13.8301 51.6175 13.8301C51.618 13.8301 51.6185 13.8301 51.6189 13.8301C51.6194 13.8301 51.6199 13.8301 51.6203 13.8301C51.6208 13.8301 51.6213 13.8301 51.6217 13.8301C51.6222 13.8301 51.6226 13.8301 51.6231 13.8301C51.6236 13.8301 51.624 13.8301 51.6245 13.8301C51.625 13.8301 51.6254 13.8301 51.6259 13.8301C51.6264 13.8301 51.6268 13.8301 51.6273 13.8301C51.6277 13.8301 51.6282 13.8301 51.6287 13.8301C51.6291 13.8301 51.6296 13.8301 51.6301 13.8301C51.6305 13.8301 51.631 13.8301 51.6315 13.8301C51.6319 13.8301 51.6324 13.8301 51.6328 13.8301C51.6333 13.8301 51.6338 13.8301 51.6342 13.8301C51.6347 13.8301 51.6352 13.8301 51.6356 13.8301C51.6361 13.8301 51.6366 13.8301 51.637 13.8301C51.6375 13.8301 51.6379 13.8301 51.6384 13.8301C51.6389 13.8301 51.6393 13.8301 51.6398 13.8301C51.6403 13.8301 51.6407 13.8301 51.6412 13.8301C51.6417 13.8301 51.6421 13.8301 51.6426 13.8301C51.643 13.8301 51.6435 13.8301 51.644 13.8301C51.6444 13.8301 51.6449 13.8301 51.6454 13.8301C51.6458 13.8301 51.6463 13.8301 51.6468 13.8301C51.6472 13.8301 51.6477 13.8301 51.6481 13.8301C51.6486 13.8301 51.6491 13.8301 51.6495 13.8301C51.65 13.8301 51.6505 13.8301 51.6509 13.8301C51.6514 13.8301 51.6519 13.8301 51.6523 13.8301C51.6528 13.8301 51.6532 13.8301 51.6537 13.8301C51.6542 13.8301 51.6546 13.8301 51.6551 13.8301C51.6556 13.8301 51.656 13.8301 51.6565 13.8301C51.657 13.8301 51.6574 13.8301 51.6579 13.8301C51.6583 13.8301 51.6588 13.8301 51.6593 13.8301C51.6597 13.8301 51.6602 13.8301 51.6607 13.8301C51.6611 13.8301 51.6616 13.8301 51.6621 13.8301C51.6625 13.8301 51.663 13.8301 51.6634 13.8301C51.6639 13.8301 51.6644 13.8301 51.6648 13.8301C51.6653 13.8301 51.6658 13.8301 51.6662 13.8301C51.6667 13.8301 51.6672 13.8301 51.6676 13.8301C51.6681 13.8301 51.6685 13.8301 51.669 13.8301C51.6695 13.8301 51.6699 13.8301 51.6704 13.8301C51.6709 13.8301 51.6713 13.8301 51.6718 13.8301C51.6723 13.8301 51.6727 13.8301 51.6732 13.8301C51.6736 13.8301 51.6741 13.8301 51.6746 13.8301C51.675 13.8301 51.6755 13.8301 51.676 13.8301C51.6764 13.8301 51.6769 13.8301 51.6774 13.8301C51.6778 13.8301 51.6783 13.8301 51.6787 13.8301C51.6792 13.8301 51.6797 13.8301 51.6801 13.8301C51.6806 13.8301 51.6811 13.8301 51.6815 13.8301C51.682 13.8301 51.6825 13.8301 51.6829 13.8301C51.6834 13.8301 51.6838 13.8301 51.6843 13.8301C51.6848 13.8301 51.6852 13.8301 51.6857 13.8301C51.6862 13.8301 51.6866 13.8301 51.6871 13.8301C51.6876 13.8301 51.688 13.8301 51.6885 13.8301C51.6889 13.8301 51.6894 13.8301 51.6899 13.8301C51.6903 13.8301 51.6908 13.8301 51.6913 13.8301C51.6917 13.8301 51.6922 13.8301 51.6927 13.8301C51.6931 13.8301 51.6936 13.8301 51.694 13.8301C51.6945 13.8301 51.695 13.8301 51.6954 13.8301C51.6959 13.8301 51.6964 13.8301 51.6968 13.8301C51.6973 13.8301 51.6978 13.8301 51.6982 13.8301C51.6987 13.8301 51.6991 13.8301 51.6996 13.8301C51.7001 13.8301 51.7005 13.8301 51.701 13.8301C51.7015 13.8301 51.7019 13.8301 51.7024 13.8301C51.7029 13.8301 51.7033 13.8301 51.7038 13.8301C51.7042 13.8301 51.7047 13.8301 51.7052 13.8301C51.7056 13.8301 51.7061 13.8301 51.7066 13.8301C51.707 13.8301 51.7075 13.8301 51.708 13.8301C51.7084 13.8301 51.7089 13.8301 51.7093 13.8301C51.7098 13.8301 51.7103 13.8301 51.7107 13.8301C51.7112 13.8301 51.7117 13.8301 51.7121 13.8301C51.7126 13.8301 51.7131 13.8301 51.7135 13.8301C51.714 13.8301 51.7144 13.8301 51.7149 13.8301C51.7154 13.8301 51.7158 13.8301 51.7163 13.8301C51.7168 13.8301 51.7172 13.8301 51.7177 13.8301C51.7182 13.8301 51.7186 13.8301 51.7191 13.8301C51.7195 13.8301 51.72 13.8301 51.7205 13.8301C51.7209 13.8301 51.7214 13.8301 51.7219 13.8301C51.7223 13.8301 51.7228 13.8301 51.7233 13.8301C51.7237 13.8301 51.7242 13.8301 51.7246 13.8301C51.7251 13.8301 51.7256 13.8301 51.726 13.8301C51.7265 13.8301 51.727 13.8301 51.7274 13.8301C51.7279 13.8301 51.7284 13.8301 51.7288 13.8301C51.7293 13.8301 51.7297 13.8301 51.7302 13.8301C51.7307 13.8301 51.7311 13.8301 51.7316 13.8301C51.7321 13.8301 51.7325 13.8301 51.733 13.8301C51.7335 13.8301 51.7339 13.8301 51.7344 13.8301C51.7348 13.8301 51.7353 13.8301 51.7358 13.8301C51.7362 13.8301 51.7367 13.8301 51.7372 13.8301V3.83008ZM50.677 3.8422C42.2679 4.42889 35.8486 11.7343 36.4365 20.2009L46.4125 19.5082C46.2092 16.5809 48.441 14.0225 51.373 13.818L50.677 3.8422ZM36.438 20.2212C36.6293 22.8235 37.4742 25.4696 39.0623 27.75L47.2684 22.0351C46.7993 21.3616 46.4835 20.4726 46.4111 19.4879L36.438 20.2212ZM39.0692 27.7599C40.1365 29.2846 41.9183 30.3143 43.9566 30.3143V20.3143C45.3618 20.3143 46.5634 21.028 47.2615 22.0252L39.0692 27.7599ZM43.9566 30.3143H44.0356V20.3143H43.9566V30.3143ZM45.7008 30.0289L46.1493 29.8705L42.8189 20.4413L42.3704 20.5997L45.7008 30.0289ZM47.3167 29.2761C49.8223 27.5535 50.9258 23.8027 48.7214 20.8636L40.7214 26.8636C39.15 24.7684 39.9898 22.1781 41.6515 21.0357L47.3167 29.2761ZM48.8952 21.1106C48.5271 20.5525 48.326 19.9483 48.2845 19.367L38.3099 20.0794C38.4794 22.4521 39.2804 24.6955 40.5475 26.6166L48.8952 21.1106ZM48.2851 19.3752C48.2205 18.4493 48.5077 17.5779 49.1424 16.8412L41.5663 10.3141C39.247 13.0061 38.0574 16.4607 38.3093 20.0712L48.2851 19.3752ZM49.1172 16.8702C49.7307 16.1691 50.5648 15.755 51.4827 15.6902L50.7785 5.715C47.2126 5.96671 43.932 7.61031 41.5915 10.2851L49.1172 16.8702ZM51.1306 15.7026H51.7108V5.70259H51.1306V15.7026ZM51.7682 15.7023C52.6791 15.6918 53.5148 16.032 54.1865 16.7147L61.3149 9.70139C58.7688 7.11362 55.3316 5.66064 51.6533 5.70292L51.7682 15.7023ZM54.1246 16.6506C55.1424 17.7227 55.8842 19.2572 56.0593 21.8064L66.0358 21.121C65.7362 16.7601 64.3152 12.8606 61.3768 9.76552L54.1246 16.6506ZM56.0481 21.3874C56.0028 24.3577 55.5701 26.0187 55.0355 27.2251C54.4541 28.5371 53.6216 29.6481 52.0764 31.6172L59.9434 37.7906C61.3785 35.9618 63.012 33.9077 64.178 31.2766C65.3908 28.54 65.9868 25.4799 66.047 21.54L56.0481 21.3874ZM52.0427 31.6606C50.5745 33.5745 48.6881 35.9865 46.7298 39.4354L55.4258 44.3729C57.0017 41.5974 58.4912 39.684 59.977 37.7472L52.0427 31.6606ZM46.9007 39.1561C47.1437 38.7867 47.5231 38.6204 47.7984 38.6025L48.4492 48.5813C51.1511 48.4051 53.6931 47.0261 55.2549 44.6523L46.9007 39.1561ZM48.1238 38.5919H47.8601V48.5919H48.1238V38.5919ZM47.8601 38.5919C48.4218 38.5919 48.957 39.0392 48.9987 39.6813L39.0197 40.3293C39.3252 45.033 43.2368 48.5919 47.8601 48.5919V38.5919ZM49.0015 39.7279C48.8268 36.5822 46.1931 34.1347 43.0862 34.1347V44.1347C40.9287 44.1347 39.1389 42.4788 39.0169 40.2826L49.0015 39.7279ZM43.0862 34.1347H43.007V44.1347H43.0862V34.1347ZM42.4548 34.1653C41.2131 34.3032 39.7141 34.8718 38.5777 36.1975L46.1703 42.7055C45.3504 43.662 44.3261 44.0189 43.5591 44.1041L42.4548 34.1653ZM38.374 36.4515C37.6023 37.4804 37.1367 38.7601 37.1367 40.1373H47.1367C47.1367 41.0397 46.8292 41.8446 46.374 42.4515L38.374 36.4515ZM37.1494 40.4935C37.3431 43.2049 38.5237 45.7435 40.5577 47.6286L47.3554 40.2943C47.2267 40.175 47.1413 40.0236 47.124 39.781L37.1494 40.4935ZM40.6067 47.6734C42.5588 49.4351 45.1088 50.4908 47.8601 50.4908V40.4908C47.7102 40.4908 47.517 40.4396 47.3064 40.2495L40.6067 47.6734ZM47.8601 50.4908H48.2555V40.4908H47.8601V50.4908ZM48.6222 50.4773C51.968 50.2313 54.9964 48.4497 56.8277 45.6285L48.4399 40.1837C48.3195 40.3693 48.13 40.4865 47.8889 40.5042L48.6222 50.4773ZM57.6338 42.9061V42.8533H47.6338V42.9061H57.6338ZM56.9774 45.3299C58.5033 42.6537 59.9486 40.7826 61.3866 38.9262L53.4811 32.8022C52.0179 34.6911 50.1931 37.0394 48.2903 40.3767L56.9774 45.3299ZM61.3892 38.923C62.8421 37.0442 64.5964 34.8442 65.8366 32.0191L56.6802 27.9992C56.0215 29.4995 55.0852 30.728 53.4786 32.8055L61.3892 38.923ZM65.819 32.0588C67.2392 28.8988 67.8074 25.4549 67.8667 21.5395L57.8678 21.388C57.8216 24.4354 57.3876 26.4247 56.6979 27.9594L65.819 32.0588ZM67.8672 21.4637V21.3845H57.8672V21.4637H67.8672ZM67.8562 21.0519C67.5299 16.158 65.9357 11.8881 62.6562 8.45961L55.4298 15.3718C56.7923 16.7963 57.6771 18.6986 57.8783 21.7171L67.8562 21.0519ZM56.796 16.3824L56.8485 16.4088L61.3425 7.47548L61.2901 7.44908L56.796 16.3824Z" fill="white" mask="url(#path-9-inside-5_7471_55688)"/>
<path d="M44.507 32.7065C44.507 32.7064 44.5092 32.7041 44.5134 32.7C44.5091 32.7046 44.507 32.7066 44.507 32.7065Z" fill="white" stroke="white" stroke-width="5" stroke-linejoin="round"/>
</svg>
