<svg width="64" height="51" viewBox="0 0 64 51" fill="none" xmlns="http://www.w3.org/2000/svg">
<mask id="path-1-inside-1_7287_19747" fill="white">
<path d="M1.47758 48.3716C1.74133 48.0024 2.03128 47.6334 2.29503 47.3169C3.1654 46.2619 4.40513 45.1276 8.01847 45.1276H8.73064C10.3395 45.1276 12.634 45.075 13.9 44.653C14.6649 44.3629 15.0341 44.046 15.1659 43.5976C15.2978 43.1229 15.1661 42.5163 14.9815 41.6987C14.7705 40.7492 14.533 39.7737 14.8495 38.7979C15.0341 38.2176 15.4032 37.7163 15.7461 37.2943L16.221 36.5821L16.1418 36.1076L15.6408 35.738C14.8496 35.2896 14.1901 35.237 13.9264 35.237H13.6099C13.1879 35.2634 12.8188 34.9732 12.7133 34.5248C12.5814 34.0501 12.8715 33.5491 13.3726 33.3645C13.9001 33.1799 15.0341 32.5993 15.5352 31.7025L15.6408 31.492L15.5088 31.0168L15.1395 30.7534C14.4538 30.2523 13.5042 29.593 13.0822 28.1423C12.9504 27.7995 12.8449 27.2981 13.0822 26.6124C13.3987 25.6102 14.2691 24.6081 15.7197 23.5004C16.7483 22.7355 16.9596 22.2607 16.986 22.1024V21.8384C16.8541 21.5483 16.3528 21.1528 15.5088 20.6781C14.3483 20.0187 10.4186 17.6717 8.33496 14.4012C7.41184 12.9242 7.35908 11.684 7.3327 11.2093V11.1307C7.27995 10.7351 7.25348 10.3389 7.2271 9.86415V9.52158C6.85785 4.61587 5.75027 2.87496 4.74803 1.42434C5.22277 0.949595 5.69732 0.448371 6.19845 0C6.67319 0.580245 7.12156 1.29247 7.51719 2.08371C8.49305 4.11457 9.04691 6.59388 9.15241 9.41598C9.15241 9.9171 9.20529 10.4184 9.28441 10.8667V11.1307C9.31079 11.5 9.33721 12.3436 9.99658 13.3722C11.4472 15.6668 14.2956 17.7771 16.4847 18.9904C17.6715 19.6497 18.885 20.4933 18.9641 21.8384C19.0432 22.8934 18.3574 23.9483 16.9068 25.0561C15.4298 26.1638 15.0342 26.9025 14.9287 27.2454V27.483V27.5358C15.1397 28.3798 15.6672 28.7487 16.2738 29.1707C17.2497 29.8564 18.2255 30.7533 17.2761 32.5995C17.0914 32.916 16.8805 33.2328 16.6431 33.4965L16.5375 33.8391L16.722 34.1295C17.6187 34.657 18.0937 35.2371 18.2519 35.9492C18.4629 36.9514 17.83 37.7689 17.3289 38.4547C17.0915 38.7711 16.8275 39.1143 16.722 39.4044C16.5901 39.8792 16.7221 40.5384 16.9068 41.2505C17.1441 42.2264 17.3022 43.281 17.0648 44.1778C16.7747 45.2064 15.9837 45.9716 14.6122 46.4727C13.1879 46.9474 11.1305 47.0529 8.49304 47.0529H8.22936C5.03801 47.0529 4.16778 48.0814 3.42929 48.9782C3.24466 49.1892 3.00724 49.5587 2.71712 49.9543C2.47974 50.2972 2.21592 50.6398 1.97854 50.9827C1.58292 50.4552 1.18745 49.9017 0.818207 49.3742C1.05558 49.0577 1.31908 48.7145 1.55646 48.3716H1.47758Z"/>
</mask>
<path d="M1.47758 48.3716C1.74133 48.0024 2.03128 47.6334 2.29503 47.3169C3.1654 46.2619 4.40513 45.1276 8.01847 45.1276H8.73064C10.3395 45.1276 12.634 45.075 13.9 44.653C14.6649 44.3629 15.0341 44.046 15.1659 43.5976C15.2978 43.1229 15.1661 42.5163 14.9815 41.6987C14.7705 40.7492 14.533 39.7737 14.8495 38.7979C15.0341 38.2176 15.4032 37.7163 15.7461 37.2943L16.221 36.5821L16.1418 36.1076L15.6408 35.738C14.8496 35.2896 14.1901 35.237 13.9264 35.237H13.6099C13.1879 35.2634 12.8188 34.9732 12.7133 34.5248C12.5814 34.0501 12.8715 33.5491 13.3726 33.3645C13.9001 33.1799 15.0341 32.5993 15.5352 31.7025L15.6408 31.492L15.5088 31.0168L15.1395 30.7534C14.4538 30.2523 13.5042 29.593 13.0822 28.1423C12.9504 27.7995 12.8449 27.2981 13.0822 26.6124C13.3987 25.6102 14.2691 24.6081 15.7197 23.5004C16.7483 22.7355 16.9596 22.2607 16.986 22.1024V21.8384C16.8541 21.5483 16.3528 21.1528 15.5088 20.6781C14.3483 20.0187 10.4186 17.6717 8.33496 14.4012C7.41184 12.9242 7.35908 11.684 7.3327 11.2093V11.1307C7.27995 10.7351 7.25348 10.3389 7.2271 9.86415V9.52158C6.85785 4.61587 5.75027 2.87496 4.74803 1.42434C5.22277 0.949595 5.69732 0.448371 6.19845 0C6.67319 0.580245 7.12156 1.29247 7.51719 2.08371C8.49305 4.11457 9.04691 6.59388 9.15241 9.41598C9.15241 9.9171 9.20529 10.4184 9.28441 10.8667V11.1307C9.31079 11.5 9.33721 12.3436 9.99658 13.3722C11.4472 15.6668 14.2956 17.7771 16.4847 18.9904C17.6715 19.6497 18.885 20.4933 18.9641 21.8384C19.0432 22.8934 18.3574 23.9483 16.9068 25.0561C15.4298 26.1638 15.0342 26.9025 14.9287 27.2454V27.483V27.5358C15.1397 28.3798 15.6672 28.7487 16.2738 29.1707C17.2497 29.8564 18.2255 30.7533 17.2761 32.5995C17.0914 32.916 16.8805 33.2328 16.6431 33.4965L16.5375 33.8391L16.722 34.1295C17.6187 34.657 18.0937 35.2371 18.2519 35.9492C18.4629 36.9514 17.83 37.7689 17.3289 38.4547C17.0915 38.7711 16.8275 39.1143 16.722 39.4044C16.5901 39.8792 16.7221 40.5384 16.9068 41.2505C17.1441 42.2264 17.3022 43.281 17.0648 44.1778C16.7747 45.2064 15.9837 45.9716 14.6122 46.4727C13.1879 46.9474 11.1305 47.0529 8.49304 47.0529H8.22936C5.03801 47.0529 4.16778 48.0814 3.42929 48.9782C3.24466 49.1892 3.00724 49.5587 2.71712 49.9543C2.47974 50.2972 2.21592 50.6398 1.97854 50.9827C1.58292 50.4552 1.18745 49.9017 0.818207 49.3742C1.05558 49.0577 1.31908 48.7145 1.55646 48.3716H1.47758Z" fill="white"/>
<path d="M1.47758 48.3716V53.3716C-0.39536 53.3716 -2.11124 52.3249 -2.96826 50.6595C-3.82528 48.9942 -3.67971 46.9895 -2.59109 45.4654L1.47758 48.3716ZM2.29503 47.3169L6.15189 50.4988C6.14666 50.5051 6.1414 50.5115 6.13613 50.5178L2.29503 47.3169ZM13.9 44.653L15.6733 49.328C15.6097 49.3521 15.5456 49.3749 15.4811 49.3964L13.9 44.653ZM15.1659 43.5976L19.9835 44.9358C19.9768 44.9601 19.9699 44.9843 19.9628 45.0084L15.1659 43.5976ZM14.9815 41.6987L10.1043 42.8C10.103 42.7945 10.1018 42.7889 10.1005 42.7834L14.9815 41.6987ZM14.8495 38.7979L19.6141 40.3139C19.6113 40.3227 19.6084 40.3316 19.6056 40.3404L14.8495 38.7979ZM15.7461 37.2943L19.9061 40.0682C19.8189 40.1989 19.7257 40.3254 19.6267 40.4473L15.7461 37.2943ZM16.221 36.5821L21.1528 35.7591C21.362 37.0126 21.086 38.2987 20.381 39.3561L16.221 36.5821ZM16.1418 36.1076L19.1103 32.0841C20.1556 32.8554 20.8597 34.0032 21.0736 35.2845L16.1418 36.1076ZM15.6408 35.738L18.1059 31.3879C18.2801 31.4866 18.4482 31.5956 18.6093 31.7145L15.6408 35.738ZM13.6099 35.237L13.298 30.2467C13.4019 30.2403 13.5059 30.237 13.6099 30.237L13.6099 35.237ZM12.7133 34.5248L17.5309 33.1866C17.5486 33.2506 17.5651 33.315 17.5803 33.3796L12.7133 34.5248ZM13.3726 33.3645L11.6441 28.6728C11.6696 28.6634 11.6952 28.6542 11.7209 28.6452L13.3726 33.3645ZM15.5352 31.7025L20.0046 33.9441C19.9712 34.0107 19.9363 34.0766 19.8999 34.1417L15.5352 31.7025ZM15.6408 31.492L20.4584 30.1538C20.7904 31.3489 20.6663 32.6248 20.1102 33.7335L15.6408 31.492ZM15.5088 31.0168L18.412 26.946C19.3442 27.6108 20.02 28.5754 20.3264 29.6786L15.5088 31.0168ZM15.1395 30.7534L12.2364 34.8242C12.2207 34.813 12.205 34.8018 12.1895 34.7904L15.1395 30.7534ZM13.0822 28.1423L17.749 26.3474C17.7993 26.4783 17.8441 26.6111 17.8832 26.7457L13.0822 28.1423ZM13.0822 26.6124L17.8501 28.1181C17.8364 28.1615 17.8221 28.2048 17.8072 28.2479L13.0822 26.6124ZM15.7197 23.5004L12.6851 19.5265C12.7021 19.5136 12.7191 19.5008 12.7362 19.488L15.7197 23.5004ZM16.986 22.1024H21.986C21.986 22.3778 21.9632 22.6527 21.9179 22.9244L16.986 22.1024ZM16.986 21.8384L21.5378 19.7694C21.8332 20.4192 21.986 21.1246 21.986 21.8384H16.986ZM15.5088 20.6781L13.0575 25.0359C13.0513 25.0324 13.045 25.0289 13.0388 25.0254L15.5088 20.6781ZM8.33496 14.4012L4.11805 17.0878C4.1103 17.0756 4.10261 17.0634 4.09497 17.0512L8.33496 14.4012ZM7.3327 11.2093L2.3404 11.4866C2.33527 11.3943 2.3327 11.3018 2.3327 11.2093L7.3327 11.2093ZM7.3327 11.1307L12.2888 10.4699C12.3181 10.689 12.3327 10.9097 12.3327 11.1307L7.3327 11.1307ZM7.2271 9.86415L2.2348 10.1415C2.22967 10.0491 2.2271 9.95665 2.2271 9.86415L7.2271 9.86415ZM7.2271 9.52158L12.213 9.1463C12.2224 9.27117 12.2271 9.39636 12.2271 9.52158L7.2271 9.52158ZM4.74803 1.42434L0.634374 4.2665C-0.738188 2.2799 -0.494922 -0.403779 1.21249 -2.11119L4.74803 1.42434ZM6.19845 0L2.86447 -3.72621C3.88127 -4.63597 5.22569 -5.09071 6.58597 -4.98496C7.94626 -4.87921 9.20425 -4.22217 10.0682 -3.16619L6.19845 0ZM7.51719 2.08371L11.9893 -0.152356C12.001 -0.128944 12.0125 -0.10544 12.0239 -0.0818465L7.51719 2.08371ZM9.15241 9.41598L14.1489 9.2292C14.1512 9.29143 14.1524 9.3537 14.1524 9.41598L9.15241 9.41598ZM9.28441 10.8667L14.2083 9.9978C14.259 10.2847 14.2844 10.5754 14.2844 10.8667L9.28441 10.8667ZM9.28441 11.1307L4.29712 11.487C4.28865 11.3684 4.28441 11.2496 4.28441 11.1307L9.28441 11.1307ZM9.99658 13.3722L14.206 10.6739C14.2116 10.6827 14.2173 10.6915 14.2229 10.7004L9.99658 13.3722ZM16.4847 18.9904L18.9084 14.6171L18.9129 14.6196L16.4847 18.9904ZM18.9641 21.8384L13.9781 22.2124C13.9761 22.1856 13.9743 22.1588 13.9727 22.132L18.9641 21.8384ZM16.9068 25.0561L19.9413 29.0299C19.9298 29.0387 19.9183 29.0474 19.9068 29.0561L16.9068 25.0561ZM14.9287 27.2454H9.92866C9.92866 26.7469 10.0032 26.2513 10.1498 25.7749L14.9287 27.2454ZM14.9287 27.5358L10.0779 28.7484C9.97879 28.3518 9.92866 27.9446 9.92866 27.5358L14.9287 27.5358ZM16.2738 29.1707L19.1291 25.0661C19.1356 25.0707 19.1421 25.0752 19.1485 25.0797L16.2738 29.1707ZM17.2761 32.5995L21.7225 34.8863C21.682 34.9649 21.6395 35.0425 21.5949 35.1189L17.2761 32.5995ZM16.6431 33.4965L11.865 32.0235C12.0788 31.3299 12.4411 30.6912 12.9266 30.1517L16.6431 33.4965ZM16.5375 33.8391L12.3171 36.5201C11.5318 35.2839 11.3279 33.7656 11.7594 32.3661L16.5375 33.8391ZM16.722 34.1295L14.1869 38.4391C13.504 38.0375 12.9263 37.4792 12.5015 36.8105L16.722 34.1295ZM18.2519 35.9492L23.1328 34.8645C23.1369 34.8827 23.1408 34.9009 23.1447 34.9191L18.2519 35.9492ZM17.3289 38.4547L21.3658 41.4047C21.3536 41.4214 21.3413 41.4381 21.3289 41.4547L17.3289 38.4547ZM16.722 39.4044L11.9044 38.0662C11.9391 37.9412 11.9787 37.8176 12.023 37.6957L16.722 39.4044ZM16.9068 41.2505L21.7467 39.9957C21.7531 40.02 21.7592 40.0444 21.7651 40.0688L16.9068 41.2505ZM17.0648 44.1778L21.8984 45.4572C21.8915 45.4832 21.8844 45.5092 21.8771 45.5351L17.0648 44.1778ZM14.6122 46.4727L16.3281 51.169C16.2834 51.1854 16.2385 51.2011 16.1933 51.2161L14.6122 46.4727ZM3.42929 48.9782L7.28894 52.1567C7.25725 52.1952 7.22499 52.2332 7.19217 52.2707L3.42929 48.9782ZM2.71712 49.9543L-1.39385 47.1083C-1.36804 47.071 -1.34172 47.0341 -1.31491 46.9975L2.71712 49.9543ZM1.97854 50.9827L6.0895 53.8287C5.17466 55.1502 3.68036 55.9513 2.07343 55.9818C0.466501 56.0123 -1.05713 55.2685 -2.02146 53.9827L1.97854 50.9827ZM0.818207 49.3742L-3.27795 52.2415C-4.5176 50.4706 -4.47881 48.1035 -3.18179 46.3742L0.818207 49.3742ZM1.55646 48.3716V43.3716C3.41618 43.3716 5.12224 44.4038 5.98535 46.0511C6.84846 47.6984 6.72599 49.6886 5.66742 51.2176L1.55646 48.3716ZM-2.59109 45.4654C-2.24197 44.9766 -1.8733 44.5086 -1.54608 44.1159L6.13613 50.5178C5.93586 50.7581 5.72462 51.0281 5.54624 51.2778L-2.59109 45.4654ZM-1.56184 44.1349C-0.898709 43.3312 0.178026 42.1717 1.97433 41.3143C3.7032 40.489 5.70425 40.1276 8.01847 40.1276V50.1276C6.71935 50.1276 6.29386 50.3332 6.28194 50.3389C6.27786 50.3409 6.29897 50.3289 6.31545 50.3147C6.31908 50.3116 6.28027 50.3432 6.15189 50.4988L-1.56184 44.1349ZM8.01847 40.1276H8.73064V50.1276H8.01847V40.1276ZM8.73064 40.1276C9.49606 40.1276 10.3343 40.1144 11.0917 40.0609C11.4677 40.0344 11.7807 40.0007 12.0251 39.9632C12.2889 39.9226 12.3679 39.8932 12.3189 39.9096L15.4811 49.3964C14.2202 49.8167 12.8042 49.9649 11.7961 50.0361C10.6875 50.1144 9.57409 50.1276 8.73064 50.1276V40.1276ZM12.1267 39.978C12.2462 39.9327 11.9529 40.0216 11.5561 40.3547C11.0629 40.7686 10.6011 41.3979 10.3691 42.1868L19.9628 45.0084C19.1598 47.7386 16.9204 48.8549 15.6733 49.328L12.1267 39.978ZM10.3483 42.2594C10.2501 42.6132 10.2247 42.9061 10.2202 43.0943C10.2158 43.2768 10.2303 43.3913 10.2317 43.4028C10.2332 43.4148 10.2291 43.3794 10.2059 43.2647C10.1824 43.1484 10.1515 43.0094 10.1043 42.8L19.8587 40.5974C19.9385 40.9511 20.0776 41.5528 20.153 42.1506C20.2294 42.7556 20.3044 43.7807 19.9835 44.9358L10.3483 42.2594ZM10.1005 42.7834C9.96457 42.1716 9.27803 39.7692 10.0933 37.2553L19.6056 40.3404C19.7196 39.9889 19.6917 39.7487 19.6951 39.7837C19.6973 39.8073 19.7057 39.8761 19.7343 40.0222C19.7483 40.0937 19.7654 40.1751 19.7872 40.2753C19.8107 40.3826 19.8322 40.4783 19.8624 40.614L10.1005 42.7834ZM10.0848 37.2818C10.5738 35.7451 11.471 34.6269 11.8655 34.1414L19.6267 40.4473C19.5682 40.5192 19.5293 40.5692 19.5014 40.6068C19.4738 40.644 19.4644 40.6591 19.4663 40.6561C19.4682 40.653 19.4869 40.6233 19.5133 40.5692C19.5399 40.5146 19.5775 40.4288 19.6141 40.3139L10.0848 37.2818ZM11.5861 34.5204L12.061 33.8082L20.381 39.3561L19.9061 40.0682L11.5861 34.5204ZM11.2892 37.4052L11.21 36.9307L21.0736 35.2845L21.1528 35.7591L11.2892 37.4052ZM13.1733 40.131L12.6724 39.7614L18.6093 31.7145L19.1103 32.0841L13.1733 40.131ZM13.1758 40.0881C13.2989 40.1579 13.5346 40.237 13.9264 40.237V30.237C14.8457 30.237 16.4003 30.4213 18.1059 31.3879L13.1758 40.0881ZM13.9264 40.237H13.6099V30.237H13.9264V40.237ZM13.9218 40.2273C10.8011 40.4223 8.44666 38.2221 7.84618 35.67L17.5803 33.3796C17.1909 31.7243 15.5747 30.1044 13.298 30.2467L13.9218 40.2273ZM7.89567 35.8631C6.95894 32.4908 9.09995 29.6101 11.6441 28.6728L15.1012 38.0562C16.6431 37.4881 18.2038 35.6093 17.5309 33.1866L7.89567 35.8631ZM11.7209 28.6452C11.6285 28.6775 11.6015 28.6934 11.6219 28.6832C11.627 28.6807 11.6339 28.677 11.6412 28.6727C11.6486 28.6685 11.6522 28.666 11.6515 28.6664C11.6511 28.6668 11.6419 28.673 11.6251 28.6866C11.6085 28.7 11.5789 28.7251 11.54 28.7637C11.4691 28.8339 11.3204 28.9952 11.1705 29.2634L19.8999 34.1417C19.1259 35.5268 18.0293 36.4223 17.2761 36.9347C16.4915 37.4685 15.6839 37.853 15.0244 38.0838L11.7209 28.6452ZM11.0658 29.461L11.1714 29.2505L20.1102 33.7335L20.0046 33.9441L11.0658 29.461ZM10.8232 32.8302L10.6912 32.355L20.3264 29.6786L20.4584 30.1538L10.8232 32.8302ZM12.6057 35.0876L12.2364 34.8242L18.0427 26.6826L18.412 26.946L12.6057 35.0876ZM12.1895 34.7904C11.506 34.2909 9.22044 32.7674 8.28125 29.539L17.8832 26.7457C17.8746 26.7163 17.852 26.6548 17.8079 26.5788C17.7646 26.5044 17.7203 26.4498 17.6927 26.4198C17.6686 26.3936 17.6694 26.3996 17.7278 26.4467C17.7575 26.4707 17.7978 26.5019 17.8579 26.5466C17.8879 26.569 17.9207 26.5931 17.9597 26.6216C17.9792 26.6359 17.999 26.6503 18.0209 26.6663C18.0421 26.6817 18.0659 26.6991 18.0896 26.7165L12.1895 34.7904ZM8.4155 29.9372C7.95345 28.7359 7.65692 27.0001 8.3573 24.9768L17.8072 28.2479C17.8938 27.9976 17.9581 27.6517 17.937 27.2466C17.9164 26.8496 17.8211 26.5351 17.749 26.3474L8.4155 29.9372ZM8.31431 25.1067C9.10868 22.5912 11.014 20.8027 12.6851 19.5265L18.7543 27.4742C18.205 27.8936 17.916 28.1809 17.7804 28.34C17.6489 28.4942 17.7552 28.4186 17.8501 28.1181L8.31431 25.1067ZM12.7362 19.488C13.0014 19.2908 12.9608 19.2772 12.8033 19.4769C12.7214 19.5807 12.5896 19.7653 12.4547 20.0336C12.3311 20.2794 12.1501 20.7038 12.054 21.2804L21.9179 22.9244C21.7157 24.1376 21.1298 25.0679 20.6541 25.6709C20.1271 26.3388 19.4666 26.945 18.7032 27.5127L12.7362 19.488ZM11.986 22.1024V21.8384H21.986V22.1024H11.986ZM12.4341 23.9074C12.6978 24.4875 13.0128 24.8505 13.1441 24.9928C13.2955 25.1568 13.4066 25.2443 13.4237 25.2578C13.4528 25.2806 13.3572 25.2045 13.0575 25.0359L17.9601 16.3202C18.5045 16.6264 19.0815 16.9854 19.6052 17.3972C19.9805 17.6923 20.9514 18.4793 21.5378 19.7694L12.4341 23.9074ZM13.0388 25.0254C11.8837 24.3691 6.93352 21.507 4.11805 17.0878L12.5519 11.7146C13.1605 12.6699 14.1698 13.6649 15.3351 14.5699C16.46 15.4436 17.5057 16.0619 17.9789 16.3308L13.0388 25.0254ZM4.09497 17.0512C2.49589 14.4927 2.38156 12.2274 2.3404 11.4866L12.325 10.9319C12.3326 11.0685 12.3345 11.0986 12.3396 11.1442C12.3439 11.1826 12.3503 11.224 12.3616 11.2715C12.3821 11.3573 12.4318 11.5222 12.5749 11.7512L4.09497 17.0512ZM2.3327 11.2093V11.1307H12.3327V11.2093H2.3327ZM2.37656 11.7915C2.29632 11.1897 2.26179 10.6273 2.2348 10.1415L12.2194 9.5868C12.2452 10.0504 12.2636 10.2805 12.2888 10.4699L2.37656 11.7915ZM2.2271 9.86415V9.52158H12.2271V9.86415H2.2271ZM2.2412 9.89687C2.08068 7.76415 1.77788 6.57701 1.52737 5.88987C1.29734 5.2589 1.05429 4.87428 0.634374 4.2665L8.86168 -1.41782C9.444 -0.574982 10.2559 0.636159 10.9225 2.46473C11.5687 4.23713 12.0043 6.3733 12.213 9.1463L2.2412 9.89687ZM1.21249 -2.11119C1.55494 -2.45364 2.22545 -3.15445 2.86447 -3.72621L9.53242 3.72621C9.1692 4.05119 8.8906 4.35283 8.28356 4.95988L1.21249 -2.11119ZM10.0682 -3.16619C10.8222 -2.24465 11.4628 -1.20541 11.9893 -0.152356L3.04505 4.31978C2.78033 3.79035 2.52417 3.40514 2.32866 3.16619L10.0682 -3.16619ZM12.0239 -0.0818465C13.3616 2.70208 14.024 5.88704 14.1489 9.2292L4.1559 9.60277C4.06984 7.30071 3.62449 5.52706 3.01048 4.24927L12.0239 -0.0818465ZM14.1524 9.41598C14.1524 9.58023 14.1712 9.78764 14.2083 9.9978L4.36049 11.7356C4.23933 11.0491 4.15241 10.254 4.15241 9.41598H14.1524ZM14.2844 10.8667V11.1307H4.28441V10.8667H14.2844ZM14.2717 10.7745C14.2732 10.795 14.2745 10.8139 14.2755 10.8289C14.2762 10.8397 14.2777 10.8622 14.2782 10.8687C14.2797 10.8918 14.2807 10.9054 14.2815 10.9166C14.2831 10.9371 14.2835 10.9402 14.283 10.935C14.2814 10.9212 14.2766 10.8857 14.2657 10.8401C14.2548 10.7944 14.241 10.7523 14.2263 10.7171C14.2116 10.6819 14.2019 10.6675 14.206 10.6739L5.78719 16.0705C4.41265 13.9262 4.33402 12.0035 4.29712 11.487L14.2717 10.7745ZM14.2229 10.7004C15.0162 11.9553 17.012 13.5661 18.9084 14.6171L14.0609 23.3636C11.5792 21.9882 7.87823 19.3784 5.77029 16.044L14.2229 10.7004ZM18.9129 14.6196C19.5953 14.9987 20.7011 15.6478 21.6747 16.6211C22.7147 17.6607 23.8232 19.2964 23.9554 21.5448L13.9727 22.132C13.9967 22.5393 14.1118 22.9102 14.2649 23.2076C14.4082 23.4859 14.555 23.6435 14.6048 23.6933C14.6522 23.7407 14.6461 23.7247 14.5388 23.6513C14.4332 23.5791 14.2816 23.4862 14.0565 23.3612L18.9129 14.6196ZM23.9501 21.4645C24.2282 25.1727 21.7188 27.6726 19.9413 29.0299L13.8722 21.0822C14.0858 20.9191 14.2168 20.7991 14.2889 20.7259C14.3619 20.6518 14.3505 20.6499 14.3016 20.7261C14.2505 20.8057 14.1511 20.9823 14.0736 21.2527C13.9932 21.5329 13.9518 21.8619 13.9781 22.2124L23.9501 21.4645ZM19.9068 29.0561C19.4125 29.4267 19.2667 29.6118 19.2874 29.5863C19.3133 29.5543 19.5379 29.267 19.7076 28.7158L10.1498 25.7749C10.692 24.0127 12.0076 22.4804 13.9068 21.0561L19.9068 29.0561ZM19.9287 27.2454V27.483H9.92866V27.2454H19.9287ZM19.9287 27.483V27.5358H9.92866V27.483H19.9287ZM19.7794 26.3231C19.7318 26.1328 19.6489 25.9043 19.5158 25.6641C19.3828 25.4243 19.2343 25.2349 19.1059 25.0975C19.0447 25.032 18.993 24.9835 18.9576 24.9522C18.94 24.9365 18.926 24.9247 18.9168 24.9171C18.9076 24.9095 18.9024 24.9055 18.9024 24.9055C18.9023 24.9054 18.9034 24.9063 18.9057 24.908C18.908 24.9098 18.9115 24.9123 18.9162 24.9158C18.9258 24.9229 18.9395 24.9329 18.9588 24.9467C19.0012 24.977 19.0496 25.0108 19.1291 25.0661L13.4185 33.2752C12.8477 32.8782 10.7863 31.5818 10.0779 28.7484L19.7794 26.3231ZM19.1485 25.0797C19.6749 25.4496 21.1894 26.5017 22.044 28.3705C23.0814 30.6389 22.7112 32.9638 21.7225 34.8863L12.8296 30.3128C12.8373 30.2979 12.7062 30.5451 12.6715 31.0045C12.6335 31.507 12.728 32.0443 12.9498 32.5293C13.1522 32.9718 13.3941 33.2271 13.4781 33.3092C13.5523 33.3818 13.5664 33.3792 13.3991 33.2616L19.1485 25.0797ZM21.5949 35.1189C21.324 35.5834 20.9164 36.2226 20.3596 36.8413L12.9266 30.1517C12.9 30.1812 12.8834 30.202 12.8762 30.2111C12.8689 30.2205 12.8684 30.2217 12.8742 30.2133C12.88 30.205 12.8902 30.1898 12.9048 30.1668C12.9193 30.1438 12.9368 30.1151 12.9572 30.0802L21.5949 35.1189ZM21.4212 34.9695L21.3156 35.312L11.7594 32.3661L11.865 32.0235L21.4212 34.9695ZM20.7579 31.158L20.9424 31.4484L12.5015 36.8105L12.3171 36.5201L20.7579 31.158ZM19.2571 29.8198C20.8965 30.7842 22.5761 32.3594 23.1328 34.8645L13.371 37.0338C13.4703 37.4807 13.68 37.8804 13.9267 38.1758C14.1416 38.433 14.2927 38.5014 14.1869 38.4391L19.2571 29.8198ZM23.1447 34.9191C23.8991 38.5028 21.4923 41.2317 21.3658 41.4047L13.2919 35.5046C13.451 35.2869 13.506 35.2127 13.5609 35.1308C13.6051 35.0649 13.5773 35.0977 13.5293 35.2003C13.4786 35.3084 13.3862 35.5343 13.3333 35.8567C13.2776 36.1955 13.2756 36.5824 13.3592 36.9792L23.1447 34.9191ZM21.3289 41.4547C21.2562 41.5516 21.2177 41.6025 21.1754 41.6599C21.1573 41.6844 21.1444 41.7024 21.1351 41.7154C21.1258 41.7285 21.1222 41.7338 21.1229 41.7328C21.1235 41.7319 21.1308 41.7211 21.1427 41.7019C21.1546 41.6829 21.1741 41.6507 21.1984 41.6068C21.2226 41.5633 21.2555 41.5014 21.2924 41.423C21.329 41.345 21.3745 41.2409 21.4209 41.1131L12.023 37.6957C12.4465 36.531 13.3136 35.475 13.3289 35.4547L21.3289 41.4547ZM21.5396 40.7426C21.6419 40.3743 21.6639 40.0796 21.6679 39.9104C21.6719 39.7395 21.6587 39.6315 21.6562 39.6111C21.6532 39.5878 21.6545 39.606 21.6705 39.681C21.6863 39.7549 21.7102 39.8547 21.7467 39.9957L12.0668 42.5053C11.9626 42.1035 11.8164 41.5082 11.7352 40.8658C11.6593 40.266 11.5825 39.2251 11.9044 38.0662L21.5396 40.7426ZM21.7651 40.0688C22.0289 41.1533 22.4783 43.2662 21.8984 45.4572L12.2313 42.8983C12.194 43.0393 12.1854 43.1359 12.1832 43.1708C12.1811 43.2052 12.1841 43.1979 12.1795 43.1396C12.1749 43.082 12.1644 42.9935 12.1423 42.8692C12.1202 42.7454 12.0895 42.6013 12.0484 42.4323L21.7651 40.0688ZM21.8771 45.5351C21.0241 48.5592 18.7077 50.2996 16.3281 51.169L12.8962 41.7764C13.118 41.6953 13.0201 41.6906 12.8129 41.8861C12.7059 41.9871 12.5873 42.1254 12.4803 42.3013C12.3731 42.4776 12.2989 42.6564 12.2526 42.8205L21.8771 45.5351ZM16.1933 51.2161C13.8826 51.9863 11.0229 52.0529 8.49304 52.0529V42.0529C11.2382 42.0529 12.4933 41.9085 13.031 41.7293L16.1933 51.2161ZM8.49304 52.0529H8.22936V42.0529H8.49304V52.0529ZM8.22936 52.0529C7.14839 52.0529 6.99615 52.23 7.21954 52.1136C7.33133 52.0554 7.4256 51.981 7.47767 51.9317C7.49646 51.914 7.48316 51.9209 7.28894 52.1567L-0.430365 45.7996C-0.0265808 45.3093 0.920767 44.1194 2.59946 43.2449C4.24042 42.39 6.11898 42.0529 8.22936 42.0529V52.0529ZM7.19217 52.2707C7.2628 52.19 7.29797 52.1413 7.28419 52.1597C7.2737 52.1737 7.24944 52.207 7.19808 52.2798C7.11945 52.3912 6.93009 52.6644 6.74914 52.9112L-1.31491 46.9975C-1.20574 46.8487 -1.13132 46.7393 -0.972553 46.5143C-0.905217 46.4189 -0.817374 46.2954 -0.722347 46.1684C-0.630619 46.0459 -0.496537 45.8719 -0.333598 45.6856L7.19217 52.2707ZM6.82808 52.8004C6.66638 53.034 6.50243 53.2577 6.38399 53.4197C6.25183 53.6004 6.16518 53.7194 6.0895 53.8287L-2.13242 48.1366C-1.97072 47.9031 -1.80677 47.6793 -1.68833 47.5173C-1.55617 47.3366 -1.46953 47.2176 -1.39385 47.1083L6.82808 52.8004ZM-2.02146 53.9827C-2.46188 53.3954 -2.89149 52.7936 -3.27795 52.2415L4.91437 46.5069C5.2664 47.0098 5.62772 47.5149 5.97854 47.9827L-2.02146 53.9827ZM-3.18179 46.3742C-2.89606 45.9932 -2.72116 45.7663 -2.5545 45.5255L5.66742 51.2176C5.35933 51.6627 5.00722 52.1222 4.81821 52.3742L-3.18179 46.3742ZM1.55646 53.3716H1.47758V43.3716H1.55646V53.3716Z" fill="white" mask="url(#path-1-inside-1_7287_19747)"/>
<mask id="path-3-inside-2_7287_19747" fill="white">
<path d="M22.5778 24.0066L22.9732 24.1122C24.3183 24.7188 25.4788 25.7213 26.3228 26.9609C27.1932 28.2796 27.668 29.8356 27.668 31.4181C27.668 34.3457 26.0856 37.0357 23.5273 38.4599L23.0788 38.5655C22.7359 38.5655 22.4196 38.3811 22.2613 38.091C22.1295 37.88 22.103 37.6162 22.1821 37.3788C22.2613 37.1414 22.3929 36.9569 22.6303 36.825C24.582 35.7437 25.7955 33.6599 25.7955 31.4181C25.7955 30.2048 25.4262 29.0178 24.7668 27.9892C24.1338 27.0397 23.2371 26.2746 22.2085 25.7999L21.7336 25.2725V24.5604C21.9183 24.2175 22.2613 24.0066 22.6042 24.0066H22.5778Z"/>
</mask>
<path d="M22.5778 24.0066L22.9732 24.1122C24.3183 24.7188 25.4788 25.7213 26.3228 26.9609C27.1932 28.2796 27.668 29.8356 27.668 31.4181C27.668 34.3457 26.0856 37.0357 23.5273 38.4599L23.0788 38.5655C22.7359 38.5655 22.4196 38.3811 22.2613 38.091C22.1295 37.88 22.103 37.6162 22.1821 37.3788C22.2613 37.1414 22.3929 36.9569 22.6303 36.825C24.582 35.7437 25.7955 33.6599 25.7955 31.4181C25.7955 30.2048 25.4262 29.0178 24.7668 27.9892C24.1338 27.0397 23.2371 26.2746 22.2085 25.7999L21.7336 25.2725V24.5604C21.9183 24.2175 22.2613 24.0066 22.6042 24.0066H22.5778Z" fill="white"/>
<path d="M22.5778 24.0066L21.2875 28.8372C18.8626 28.1896 17.2937 25.8445 17.6203 23.3559C17.947 20.8674 20.0679 19.0066 22.5778 19.0066V24.0066ZM22.9732 24.1122L24.2635 19.2815C24.5255 19.3515 24.7814 19.4427 25.0287 19.5543L22.9732 24.1122ZM26.3228 26.9609L30.4558 24.1469C30.4693 24.1667 30.4827 24.1867 30.4959 24.2067L26.3228 26.9609ZM23.5273 38.4599L25.9593 42.8286C25.5557 43.0533 25.1229 43.221 24.6732 43.3268L23.5273 38.4599ZM23.0788 38.5655L24.2248 43.4324C23.8492 43.5209 23.4646 43.5655 23.0788 43.5655V38.5655ZM22.2613 38.091L26.5013 35.441C26.5537 35.5247 26.6035 35.61 26.6508 35.6967L22.2613 38.091ZM22.6303 36.825L20.2021 32.4542L20.2071 32.4515L22.6303 36.825ZM24.7668 27.9892L28.9271 25.2157C28.9437 25.2406 28.96 25.2657 28.9762 25.2909L24.7668 27.9892ZM22.2085 25.7999L20.1132 30.3397C19.4978 30.0556 18.9465 29.6494 18.493 29.1457L22.2085 25.7999ZM21.7336 25.2725L18.0181 28.6184C17.1912 27.7001 16.7336 26.5082 16.7336 25.2725H21.7336ZM21.7336 24.5604H16.7336C16.7336 23.7329 16.939 22.9184 17.3313 22.1899L21.7336 24.5604ZM22.6042 19.0066C25.3656 19.0066 27.6042 21.2452 27.6042 24.0066C27.6042 26.768 25.3656 29.0066 22.6042 29.0066V19.0066ZM23.8681 19.1759L24.2635 19.2815L21.6829 28.9428L21.2875 28.8372L23.8681 19.1759ZM25.0287 19.5543C27.2659 20.5632 29.1264 22.1944 30.4558 24.1469L22.1898 29.7748C21.8312 29.2481 21.3707 28.8744 20.9176 28.6701L25.0287 19.5543ZM30.4959 24.2067C31.8972 26.3298 32.668 28.841 32.668 31.4181H22.668C22.668 30.8301 22.4892 30.2294 22.1498 29.7151L30.4959 24.2067ZM32.668 31.4181C32.668 36.1614 30.1016 40.5226 25.9593 42.8286L21.0952 34.0913C22.0697 33.5488 22.668 32.5299 22.668 31.4181H32.668ZM24.6732 43.3268L24.2248 43.4324L21.9328 33.6986L22.3813 33.593L24.6732 43.3268ZM23.0788 43.5655C20.9781 43.5655 18.9402 42.4438 17.8719 40.4852L26.6508 35.6967C25.899 34.3183 24.4937 33.5655 23.0788 33.5655V43.5655ZM18.0213 40.741C17.0581 39.1998 16.9129 37.375 17.4387 35.7977L26.9255 38.9599C27.2931 37.8573 27.2008 36.5601 26.5013 35.441L18.0213 40.741ZM17.4387 35.7977C17.8503 34.5628 18.7084 33.284 20.2021 32.4542L25.0585 41.1958C25.4847 40.959 25.9154 40.6138 26.2791 40.1506C26.6326 39.7005 26.8236 39.2657 26.9255 38.9599L17.4387 35.7977ZM20.2071 32.4515C20.5454 32.264 20.7955 31.8688 20.7955 31.4181H30.7955C30.7955 35.451 28.6186 39.2233 25.0535 41.1986L20.2071 32.4515ZM20.7955 31.4181C20.7955 31.2233 20.735 30.9646 20.5574 30.6875L28.9762 25.2909C30.1173 27.071 30.7955 29.1863 30.7955 31.4181H20.7955ZM20.6066 30.7627C20.4862 30.5821 20.3046 30.428 20.1132 30.3397L24.3038 21.2601C26.1697 22.1213 27.7814 23.4973 28.9271 25.2157L20.6066 30.7627ZM18.493 29.1457L18.0181 28.6184L25.4492 21.9267L25.9241 22.4541L18.493 29.1457ZM16.7336 25.2725V24.5604H26.7336V25.2725H16.7336ZM17.3313 22.1899C18.2986 20.3934 20.2408 19.0066 22.6042 19.0066V29.0066C24.2818 29.0066 25.5379 28.0416 26.136 26.9309L17.3313 22.1899ZM22.6042 29.0066H22.5778V19.0066H22.6042V29.0066Z" fill="white" mask="url(#path-3-inside-2_7287_19747)"/>
<mask id="path-5-inside-3_7287_19747" fill="white">
<path d="M27.4543 40.697C30.1973 38.376 31.7798 35 31.7798 31.413C31.7798 30.3581 31.6479 29.3032 31.3841 28.301C30.5929 25.2943 28.7202 22.7617 26.0828 21.1001C25.6608 20.8363 25.5289 20.2561 25.7927 19.8078C25.9773 19.544 26.2672 19.386 26.5837 19.386L27.085 19.518C30.1181 21.417 32.2807 24.3707 33.2038 27.8258C33.5203 28.9863 33.6787 30.1998 33.6787 31.413C33.6787 35.5539 31.8588 39.4575 28.6938 42.1214L28.0873 42.3583C27.8235 42.3583 27.5597 42.2268 27.3751 42.0158C27.2168 41.8311 27.1378 41.5937 27.1642 41.33C27.1642 41.0926 27.2961 40.8816 27.4807 40.697H27.4543Z"/>
</mask>
<path d="M27.4543 40.697C30.1973 38.376 31.7798 35 31.7798 31.413C31.7798 30.3581 31.6479 29.3032 31.3841 28.301C30.5929 25.2943 28.7202 22.7617 26.0828 21.1001C25.6608 20.8363 25.5289 20.2561 25.7927 19.8078C25.9773 19.544 26.2672 19.386 26.5837 19.386L27.085 19.518C30.1181 21.417 32.2807 24.3707 33.2038 27.8258C33.5203 28.9863 33.6787 30.1998 33.6787 31.413C33.6787 35.5539 31.8588 39.4575 28.6938 42.1214L28.0873 42.3583C27.8235 42.3583 27.5597 42.2268 27.3751 42.0158C27.2168 41.8311 27.1378 41.5937 27.1642 41.33C27.1642 41.0926 27.2961 40.8816 27.4807 40.697H27.4543Z" fill="white"/>
<path d="M27.4543 40.697V45.697C25.3561 45.697 23.4811 44.387 22.7594 42.4168C22.0377 40.4466 22.6228 38.2354 24.2246 36.8801L27.4543 40.697ZM31.3841 28.301L36.2195 27.0285L31.3841 28.301ZM26.0828 21.1001L28.7328 16.8601C28.7378 16.8633 28.7429 16.8664 28.7479 16.8696L26.0828 21.1001ZM25.7927 19.8078L21.483 17.2727C21.5498 17.1591 21.621 17.0483 21.6965 16.9404L25.7927 19.8078ZM26.5837 19.386V14.386C27.0135 14.386 27.4414 14.4414 27.857 14.5508L26.5837 19.386ZM27.085 19.518L28.3582 14.6828C28.8457 14.8112 29.311 15.0126 29.7383 15.2801L27.085 19.518ZM33.2038 27.8258L28.38 29.1414C28.3777 29.1331 28.3755 29.1247 28.3733 29.1164L33.2038 27.8258ZM28.6938 42.1214L31.9135 45.9467C31.4954 46.2987 31.0223 46.5797 30.5132 46.7786L28.6938 42.1214ZM28.0873 42.3583L29.9067 47.0156C29.3268 47.2421 28.7098 47.3583 28.0873 47.3583V42.3583ZM27.3751 42.0158L23.6122 45.3083C23.601 45.2955 23.5899 45.2826 23.5788 45.2697L27.3751 42.0158ZM27.1642 41.33H32.1642C32.1642 41.4961 32.1559 41.6622 32.1394 41.8275L27.1642 41.33ZM27.4807 40.697V35.697C29.503 35.697 31.3262 36.9152 32.1001 38.7836C32.874 40.652 32.4462 42.8026 31.0162 44.2326L27.4807 40.697ZM24.2246 36.8801C25.8581 35.4979 26.7798 33.512 26.7798 31.413H36.7798C36.7798 36.4881 34.5365 41.2542 30.684 44.514L24.2246 36.8801ZM26.7798 31.413C26.7798 30.7691 26.6986 30.143 26.5487 29.5735L36.2195 27.0285C36.5971 28.4635 36.7798 29.947 36.7798 31.413H26.7798ZM26.5487 29.5735C26.0839 27.8072 24.9963 26.3251 23.4176 25.3305L28.7479 16.8696C32.4442 19.1983 35.1018 22.7813 36.2195 27.0285L26.5487 29.5735ZM23.4328 25.3401C20.568 23.5496 19.9344 19.9053 21.483 17.2727L30.1023 22.3429C31.1235 20.6069 30.7536 18.1231 28.7328 16.8601L23.4328 25.3401ZM21.6965 16.9404C22.7633 15.4165 24.5446 14.386 26.5837 14.386V24.386C27.9899 24.386 29.1913 23.6715 29.8888 22.6751L21.6965 16.9404ZM27.857 14.5508L28.3582 14.6828L25.8118 24.3532L25.3105 24.2212L27.857 14.5508ZM29.7383 15.2801C33.8572 17.8588 36.7887 21.8726 38.0344 26.5352L28.3733 29.1164C27.7727 26.8688 26.3791 24.9751 24.4317 23.7559L29.7383 15.2801ZM38.0276 26.5102C38.4645 28.1121 38.6787 29.7688 38.6787 31.413H28.6787C28.6787 30.6309 28.5761 29.8604 28.38 29.1414L38.0276 26.5102ZM38.6787 31.413C38.6787 37.0311 36.2058 42.3341 31.9135 45.9467L25.4741 38.296C27.5118 36.581 28.6787 34.0767 28.6787 31.413H38.6787ZM30.5132 46.7786L29.9067 47.0156L26.2679 37.7011L26.8745 37.4641L30.5132 46.7786ZM28.0873 47.3583C26.1952 47.3583 24.6161 46.4556 23.6122 45.3083L31.138 38.7232C30.5033 37.9979 29.4519 37.3583 28.0873 37.3583V47.3583ZM23.5788 45.2697C22.5307 44.0469 22.0269 42.4537 22.189 40.8325L32.1394 41.8275C32.2488 40.7338 31.903 39.6153 31.1714 38.7618L23.5788 45.2697ZM22.1642 41.33C22.1642 39.1571 23.3664 37.7403 23.9452 37.1615L31.0162 44.2326C31.2258 44.023 32.1642 43.0281 32.1642 41.33H22.1642ZM27.4807 45.697H27.4543V35.697H27.4807V45.697Z" fill="white" mask="url(#path-5-inside-3_7287_19747)"/>
<mask id="path-7-inside-4_7287_19747" fill="white">
<path d="M38.0049 31.4082C38.0049 26.7399 36.2642 22.3089 33.0992 18.9066C32.2025 17.9307 31.2003 17.0868 30.1453 16.3219C29.9343 16.19 29.8024 15.9791 29.776 15.7153C29.7232 15.478 29.7758 15.2406 29.9341 15.0296C30.1187 14.7658 30.3825 14.6335 30.699 14.6335L31.2264 14.7919C32.4133 15.6359 33.4946 16.5856 34.4968 17.6406C37.9783 21.3859 39.9038 26.2915 39.9038 31.4082C39.9038 36.8942 37.7412 42.0372 33.8114 45.8879C33.6268 46.0462 33.4158 46.1513 33.152 46.1513C32.8883 46.1513 32.6773 46.0462 32.4927 45.8615C32.308 45.7033 32.2287 45.4659 32.2287 45.2022C32.2287 44.9648 32.3341 44.7274 32.5187 44.5428C36.0793 41.0613 38.0577 36.393 38.0577 31.4082H38.0049Z"/>
</mask>
<path d="M38.0049 31.4082C38.0049 26.7399 36.2642 22.3089 33.0992 18.9066C32.2025 17.9307 31.2003 17.0868 30.1453 16.3219C29.9343 16.19 29.8024 15.9791 29.776 15.7153C29.7232 15.478 29.7758 15.2406 29.9341 15.0296C30.1187 14.7658 30.3825 14.6335 30.699 14.6335L31.2264 14.7919C32.4133 15.6359 33.4946 16.5856 34.4968 17.6406C37.9783 21.3859 39.9038 26.2915 39.9038 31.4082C39.9038 36.8942 37.7412 42.0372 33.8114 45.8879C33.6268 46.0462 33.4158 46.1513 33.152 46.1513C32.8883 46.1513 32.6773 46.0462 32.4927 45.8615C32.308 45.7033 32.2287 45.4659 32.2287 45.2022C32.2287 44.9648 32.3341 44.7274 32.5187 44.5428C36.0793 41.0613 38.0577 36.393 38.0577 31.4082H38.0049Z" fill="white"/>
<path d="M38.0049 31.4082V36.4082C35.2435 36.4082 33.0049 34.1696 33.0049 31.4082H38.0049ZM33.0992 18.9066L29.4383 22.3121C29.4314 22.3046 29.4245 22.2972 29.4176 22.2897L33.0992 18.9066ZM30.1453 16.3219L32.7953 12.0819C32.8924 12.1426 32.9874 12.2066 33.0801 12.2738L30.1453 16.3219ZM29.776 15.7153L34.6569 14.6307C34.6999 14.8243 34.7314 15.0204 34.7512 15.2178L29.776 15.7153ZM29.9341 15.0296L34.0302 17.8969C33.9989 17.9416 33.9668 17.9859 33.9341 18.0296L29.9341 15.0296ZM30.699 14.6335V9.63354C31.1862 9.63354 31.6708 9.70475 32.1374 9.8449L30.699 14.6335ZM31.2264 14.7919L32.6647 10.0033C33.1868 10.1601 33.6798 10.4013 34.124 10.7172L31.2264 14.7919ZM34.4968 17.6406L38.1218 14.1969C38.1343 14.21 38.1467 14.2232 38.159 14.2364L34.4968 17.6406ZM33.8114 45.8879L37.3108 49.4592C37.2315 49.5369 37.1496 49.612 37.0654 49.6842L33.8114 45.8879ZM32.4927 45.8615L35.7466 42.0652C35.8438 42.1485 35.9377 42.2355 36.0282 42.326L32.4927 45.8615ZM32.5187 44.5428L28.9832 41.0073C28.9964 40.994 29.0098 40.9808 29.0231 40.9678L32.5187 44.5428ZM38.0577 31.4082V26.4082C40.8191 26.4082 43.0577 28.6468 43.0577 31.4082H38.0577ZM33.0049 31.4082C33.0049 27.9992 31.7397 24.7861 29.4383 22.3121L36.7602 15.501C40.7887 19.8317 43.0049 25.4805 43.0049 31.4082H33.0049ZM29.4176 22.2897C28.8036 21.6215 28.0724 20.9948 27.2104 20.3699L33.0801 12.2738C34.3282 13.1787 35.6014 14.2399 36.7809 15.5234L29.4176 22.2897ZM27.4953 20.5619C25.9344 19.5864 24.9768 17.9725 24.8008 16.2128L34.7512 15.2178C34.628 13.9857 33.9341 12.7937 32.7953 12.0819L27.4953 20.5619ZM24.895 16.8C24.5069 15.0533 24.9533 13.3373 25.9341 12.0296L33.9341 18.0296C34.5983 17.1438 34.9396 15.9026 34.6569 14.6307L24.895 16.8ZM25.8379 12.1622C26.9825 10.5271 28.7938 9.63354 30.699 9.63354V19.6335C31.2506 19.6335 31.9014 19.5141 32.551 19.1806C33.2042 18.8452 33.695 18.3758 34.0302 17.8969L25.8379 12.1622ZM32.1374 9.8449L32.6647 10.0033L29.788 19.5806L29.2607 19.4222L32.1374 9.8449ZM34.124 10.7172C35.5893 11.7591 36.9121 12.9235 38.1218 14.1969L30.8718 21.0844C30.0771 20.2478 29.2373 19.5128 28.3288 18.8667L34.124 10.7172ZM38.159 14.2364C42.5017 18.9082 44.9038 25.0305 44.9038 31.4082H34.9038C34.9038 27.5524 33.4549 23.8635 30.8347 21.0449L38.159 14.2364ZM44.9038 31.4082C44.9038 38.2409 42.1982 44.6702 37.3108 49.4592L30.312 42.3166C33.2843 39.4042 34.9038 35.5474 34.9038 31.4082H44.9038ZM37.0654 49.6842C36.2391 50.3924 34.9169 51.1513 33.152 51.1513V41.1513C32.5926 41.1513 32.0498 41.2681 31.5621 41.4746C31.0943 41.6726 30.761 41.9172 30.5574 42.0916L37.0654 49.6842ZM33.152 51.1513C31.332 51.1513 29.903 50.343 28.9571 49.3971L36.0282 42.326C35.7823 42.0801 35.3982 41.7672 34.8586 41.5224C34.3006 41.2692 33.7129 41.1513 33.152 41.1513V51.1513ZM29.2387 49.6578C27.6077 48.2598 27.2287 46.412 27.2287 45.2022H37.2287C37.2287 44.5198 37.0084 43.1467 35.7466 42.0652L29.2387 49.6578ZM27.2287 45.2022C27.2287 43.4793 27.98 42.0105 28.9832 41.0073L36.0543 48.0783C36.6882 47.4444 37.2287 46.4503 37.2287 45.2022H27.2287ZM29.0231 40.9678C31.628 38.4208 33.0577 35.0386 33.0577 31.4082H43.0577C43.0577 37.7474 40.5307 43.7019 36.0143 48.1178L29.0231 40.9678ZM38.0577 36.4082H38.0049V26.4082H38.0577V36.4082Z" fill="white" mask="url(#path-7-inside-4_7287_19747)"/>
<mask id="path-9-inside-5_7287_19747" fill="white">
<path d="M59.9139 11.9426C58.938 10.9404 57.8041 10.1758 56.5381 9.62194C55.2722 9.09444 53.927 8.83057 52.5555 8.83057C52.3182 8.83057 52.0807 8.83057 51.8434 8.83057C46.1728 9.22619 41.8473 14.1581 42.2429 19.855C42.3748 21.6485 42.9551 23.4161 43.9837 24.893C44.1683 25.1568 44.4584 25.3148 44.7749 25.3148H44.854L45.3025 25.1564C45.7245 24.8663 45.8562 24.2861 45.5397 23.8641C44.7221 22.6245 44.2211 21.2007 44.1156 19.7237C43.9573 17.4555 44.6957 15.2925 46.1727 13.5782C47.6497 11.8902 49.7071 10.8613 51.949 10.7031H52.5291C54.8237 10.6767 56.9602 11.5733 58.5691 13.2085C60.5472 15.2922 61.6285 18.0091 61.8659 21.4642C61.7604 28.3744 59.8086 30.9064 56.8282 34.7044C55.3512 36.6298 53.6633 38.7924 51.8962 41.9047C51.2368 42.9069 50.1554 43.5132 48.9422 43.5924H48.6785C46.6476 43.5924 44.9594 42.0366 44.8276 40.0057C44.8012 39.531 44.3793 39.1352 43.9045 39.1352H43.8253C43.5879 39.1615 43.3506 39.2674 43.1923 39.452C43.0341 39.663 42.9551 39.9004 42.9551 40.1378C43.0606 41.6147 43.6936 42.9597 44.7749 43.962C45.8563 44.9378 47.2279 45.4913 48.6785 45.4913H49.0739C50.8674 45.3594 52.4763 44.41 53.4522 42.9066V42.8538C55.1665 39.8471 56.8016 37.7373 58.2522 35.8647C59.782 33.8866 61.1273 32.1723 62.0768 30.0096C63.1318 27.6622 63.6329 24.9457 63.6856 21.4642V21.385C63.4219 17.4288 62.1824 14.3427 59.8614 11.9162L59.9139 11.9426Z"/>
</mask>
<path d="M59.9139 11.9426C58.938 10.9404 57.8041 10.1758 56.5381 9.62194C55.2722 9.09444 53.927 8.83057 52.5555 8.83057C52.3182 8.83057 52.0807 8.83057 51.8434 8.83057C46.1728 9.22619 41.8473 14.1581 42.2429 19.855C42.3748 21.6485 42.9551 23.4161 43.9837 24.893C44.1683 25.1568 44.4584 25.3148 44.7749 25.3148H44.854L45.3025 25.1564C45.7245 24.8663 45.8562 24.2861 45.5397 23.8641C44.7221 22.6245 44.2211 21.2007 44.1156 19.7237C43.9573 17.4555 44.6957 15.2925 46.1727 13.5782C47.6497 11.8902 49.7071 10.8613 51.949 10.7031H52.5291C54.8237 10.6767 56.9602 11.5733 58.5691 13.2085C60.5472 15.2922 61.6285 18.0091 61.8659 21.4642C61.7604 28.3744 59.8086 30.9064 56.8282 34.7044C55.3512 36.6298 53.6633 38.7924 51.8962 41.9047C51.2368 42.9069 50.1554 43.5132 48.9422 43.5924H48.6785C46.6476 43.5924 44.9594 42.0366 44.8276 40.0057C44.8012 39.531 44.3793 39.1352 43.9045 39.1352H43.8253C43.5879 39.1615 43.3506 39.2674 43.1923 39.452C43.0341 39.663 42.9551 39.9004 42.9551 40.1378C43.0606 41.6147 43.6936 42.9597 44.7749 43.962C45.8563 44.9378 47.2279 45.4913 48.6785 45.4913H49.0739C50.8674 45.3594 52.4763 44.41 53.4522 42.9066V42.8538C55.1665 39.8471 56.8016 37.7373 58.2522 35.8647C59.782 33.8866 61.1273 32.1723 62.0768 30.0096C63.1318 27.6622 63.6329 24.9457 63.6856 21.4642V21.385C63.4219 17.4288 62.1824 14.3427 59.8614 11.9162L59.9139 11.9426Z" fill="white"/>
<path d="M59.9139 11.9426L57.6669 16.4093C59.8483 17.5067 62.5034 16.8678 63.9469 14.8981C65.3903 12.9284 65.1998 10.2041 63.4962 8.45453L59.9139 11.9426ZM56.5381 9.62194L58.5422 5.04115C58.5153 5.02938 58.4883 5.01785 58.4612 5.00655L56.5381 9.62194ZM51.8434 8.83057V3.83057C51.7273 3.83057 51.6112 3.83461 51.4954 3.84269L51.8434 8.83057ZM42.2429 19.855L37.2549 20.2014C37.2554 20.2082 37.2559 20.215 37.2564 20.2217L42.2429 19.855ZM43.9837 24.893L39.8807 27.7505L39.8876 27.7604L43.9837 24.893ZM44.854 25.3148V30.3148C45.4212 30.3148 45.9843 30.2183 46.5191 30.0294L44.854 25.3148ZM45.3025 25.1564L46.9676 29.871C47.3812 29.7249 47.7737 29.5251 48.1351 29.2766L45.3025 25.1564ZM45.5397 23.8641L41.3659 26.617C41.4213 26.7011 41.4793 26.7835 41.5397 26.8641L45.5397 23.8641ZM44.1156 19.7237L39.1277 20.0717L39.1283 20.0799L44.1156 19.7237ZM46.1727 13.5782L42.4098 10.2856C42.4014 10.2953 42.393 10.3049 42.3847 10.3146L46.1727 13.5782ZM51.949 10.7031V5.70307C51.8315 5.70307 51.7141 5.70721 51.5969 5.71548L51.949 10.7031ZM52.5291 10.7031V15.7031C52.5483 15.7031 52.5674 15.703 52.5866 15.7027L52.5291 10.7031ZM58.5691 13.2085L62.1952 9.76601C62.1747 9.74445 62.1541 9.72307 62.1332 9.70188L58.5691 13.2085ZM61.8659 21.4642L66.8653 21.5405C66.8675 21.4007 66.8637 21.2609 66.8541 21.1215L61.8659 21.4642ZM56.8282 34.7044L52.8947 31.6177C52.8834 31.6321 52.8722 31.6466 52.8611 31.6611L56.8282 34.7044ZM51.8962 41.9047L56.0732 44.6527C56.1332 44.5615 56.1902 44.4684 56.2442 44.3734L51.8962 41.9047ZM48.9422 43.5924V48.5924C49.0507 48.5924 49.1593 48.5888 49.2676 48.5818L48.9422 43.5924ZM44.8276 40.0057L39.8353 40.2831C39.8361 40.2987 39.8371 40.3142 39.8381 40.3297L44.8276 40.0057ZM43.8253 39.1352V34.1352C43.6408 34.1352 43.4565 34.1454 43.2732 34.1658L43.8253 39.1352ZM43.1923 39.452L39.3961 36.198C39.3254 36.2804 39.2575 36.3651 39.1923 36.452L43.1923 39.452ZM42.9551 40.1378H37.9551C37.9551 40.2566 37.9593 40.3754 37.9678 40.494L42.9551 40.1378ZM44.7749 43.962L41.3761 47.6291C41.3923 47.6442 41.4087 47.6591 41.4251 47.6739L44.7749 43.962ZM49.0739 45.4913V50.4913C49.1962 50.4913 49.3185 50.4868 49.4405 50.4778L49.0739 45.4913ZM53.4522 42.9066L57.6461 45.6289C58.1722 44.8184 58.4522 43.8729 58.4522 42.9066H53.4522ZM53.4522 42.8538L49.1086 40.3772C48.6784 41.1317 48.4522 41.9853 48.4522 42.8538H53.4522ZM58.2522 35.8647L62.205 38.9267L62.2075 38.9235L58.2522 35.8647ZM62.0768 30.0096L57.5162 27.9599C57.5103 27.9731 57.5044 27.9864 57.4986 27.9997L62.0768 30.0096ZM63.6856 21.4642L68.685 21.5399C68.6854 21.5147 68.6856 21.4894 68.6856 21.4642H63.6856ZM63.6856 21.385H68.6856C68.6856 21.274 68.6819 21.1631 68.6745 21.0524L63.6856 21.385ZM59.8614 11.9162L62.1084 7.44957C59.9344 6.3559 57.2887 6.98632 55.8416 8.94285C54.3944 10.8994 54.566 13.6137 56.2482 15.3723L59.8614 11.9162ZM63.4962 8.45453C62.0438 6.96284 60.3648 5.83854 58.5422 5.04115L54.5341 14.2027C55.2434 14.5131 55.8322 14.9179 56.3315 15.4307L63.4962 8.45453ZM58.4612 5.00655C56.5743 4.22032 54.5744 3.83057 52.5555 3.83057V13.8306C53.2796 13.8306 53.97 13.9686 54.6151 14.2373L58.4612 5.00655ZM52.5555 3.83057C52.5551 3.83057 52.5546 3.83057 52.5541 3.83057C52.5537 3.83057 52.5532 3.83057 52.5527 3.83057C52.5523 3.83057 52.5518 3.83057 52.5514 3.83057C52.5509 3.83057 52.5504 3.83057 52.55 3.83057C52.5495 3.83057 52.549 3.83057 52.5486 3.83057C52.5481 3.83057 52.5476 3.83057 52.5472 3.83057C52.5467 3.83057 52.5463 3.83057 52.5458 3.83057C52.5453 3.83057 52.5449 3.83057 52.5444 3.83057C52.5439 3.83057 52.5435 3.83057 52.543 3.83057C52.5425 3.83057 52.5421 3.83057 52.5416 3.83057C52.5412 3.83057 52.5407 3.83057 52.5402 3.83057C52.5398 3.83057 52.5393 3.83057 52.5388 3.83057C52.5384 3.83057 52.5379 3.83057 52.5374 3.83057C52.537 3.83057 52.5365 3.83057 52.5361 3.83057C52.5356 3.83057 52.5351 3.83057 52.5347 3.83057C52.5342 3.83057 52.5337 3.83057 52.5333 3.83057C52.5328 3.83057 52.5323 3.83057 52.5319 3.83057C52.5314 3.83057 52.531 3.83057 52.5305 3.83057C52.53 3.83057 52.5296 3.83057 52.5291 3.83057C52.5286 3.83057 52.5282 3.83057 52.5277 3.83057C52.5272 3.83057 52.5268 3.83057 52.5263 3.83057C52.5259 3.83057 52.5254 3.83057 52.5249 3.83057C52.5245 3.83057 52.524 3.83057 52.5235 3.83057C52.5231 3.83057 52.5226 3.83057 52.5221 3.83057C52.5217 3.83057 52.5212 3.83057 52.5208 3.83057C52.5203 3.83057 52.5198 3.83057 52.5194 3.83057C52.5189 3.83057 52.5184 3.83057 52.518 3.83057C52.5175 3.83057 52.517 3.83057 52.5166 3.83057C52.5161 3.83057 52.5157 3.83057 52.5152 3.83057C52.5147 3.83057 52.5143 3.83057 52.5138 3.83057C52.5133 3.83057 52.5129 3.83057 52.5124 3.83057C52.5119 3.83057 52.5115 3.83057 52.511 3.83057C52.5106 3.83057 52.5101 3.83057 52.5096 3.83057C52.5092 3.83057 52.5087 3.83057 52.5082 3.83057C52.5078 3.83057 52.5073 3.83057 52.5068 3.83057C52.5064 3.83057 52.5059 3.83057 52.5055 3.83057C52.505 3.83057 52.5045 3.83057 52.5041 3.83057C52.5036 3.83057 52.5031 3.83057 52.5027 3.83057C52.5022 3.83057 52.5017 3.83057 52.5013 3.83057C52.5008 3.83057 52.5004 3.83057 52.4999 3.83057C52.4994 3.83057 52.499 3.83057 52.4985 3.83057C52.498 3.83057 52.4976 3.83057 52.4971 3.83057C52.4966 3.83057 52.4962 3.83057 52.4957 3.83057C52.4953 3.83057 52.4948 3.83057 52.4943 3.83057C52.4939 3.83057 52.4934 3.83057 52.4929 3.83057C52.4925 3.83057 52.492 3.83057 52.4915 3.83057C52.4911 3.83057 52.4906 3.83057 52.4902 3.83057C52.4897 3.83057 52.4892 3.83057 52.4888 3.83057C52.4883 3.83057 52.4878 3.83057 52.4874 3.83057C52.4869 3.83057 52.4864 3.83057 52.486 3.83057C52.4855 3.83057 52.4851 3.83057 52.4846 3.83057C52.4841 3.83057 52.4837 3.83057 52.4832 3.83057C52.4827 3.83057 52.4823 3.83057 52.4818 3.83057C52.4813 3.83057 52.4809 3.83057 52.4804 3.83057C52.48 3.83057 52.4795 3.83057 52.479 3.83057C52.4786 3.83057 52.4781 3.83057 52.4776 3.83057C52.4772 3.83057 52.4767 3.83057 52.4762 3.83057C52.4758 3.83057 52.4753 3.83057 52.4749 3.83057C52.4744 3.83057 52.4739 3.83057 52.4735 3.83057C52.473 3.83057 52.4725 3.83057 52.4721 3.83057C52.4716 3.83057 52.4711 3.83057 52.4707 3.83057C52.4702 3.83057 52.4698 3.83057 52.4693 3.83057C52.4688 3.83057 52.4684 3.83057 52.4679 3.83057C52.4674 3.83057 52.467 3.83057 52.4665 3.83057C52.466 3.83057 52.4656 3.83057 52.4651 3.83057C52.4647 3.83057 52.4642 3.83057 52.4637 3.83057C52.4633 3.83057 52.4628 3.83057 52.4623 3.83057C52.4619 3.83057 52.4614 3.83057 52.4609 3.83057C52.4605 3.83057 52.46 3.83057 52.4596 3.83057C52.4591 3.83057 52.4586 3.83057 52.4582 3.83057C52.4577 3.83057 52.4572 3.83057 52.4568 3.83057C52.4563 3.83057 52.4558 3.83057 52.4554 3.83057C52.4549 3.83057 52.4545 3.83057 52.454 3.83057C52.4535 3.83057 52.4531 3.83057 52.4526 3.83057C52.4521 3.83057 52.4517 3.83057 52.4512 3.83057C52.4507 3.83057 52.4503 3.83057 52.4498 3.83057C52.4494 3.83057 52.4489 3.83057 52.4484 3.83057C52.448 3.83057 52.4475 3.83057 52.447 3.83057C52.4466 3.83057 52.4461 3.83057 52.4456 3.83057C52.4452 3.83057 52.4447 3.83057 52.4443 3.83057C52.4438 3.83057 52.4433 3.83057 52.4429 3.83057C52.4424 3.83057 52.4419 3.83057 52.4415 3.83057C52.441 3.83057 52.4405 3.83057 52.4401 3.83057C52.4396 3.83057 52.4392 3.83057 52.4387 3.83057C52.4382 3.83057 52.4378 3.83057 52.4373 3.83057C52.4368 3.83057 52.4364 3.83057 52.4359 3.83057C52.4354 3.83057 52.435 3.83057 52.4345 3.83057C52.4341 3.83057 52.4336 3.83057 52.4331 3.83057C52.4327 3.83057 52.4322 3.83057 52.4317 3.83057C52.4313 3.83057 52.4308 3.83057 52.4303 3.83057C52.4299 3.83057 52.4294 3.83057 52.429 3.83057C52.4285 3.83057 52.428 3.83057 52.4276 3.83057C52.4271 3.83057 52.4266 3.83057 52.4262 3.83057C52.4257 3.83057 52.4252 3.83057 52.4248 3.83057C52.4243 3.83057 52.4239 3.83057 52.4234 3.83057C52.4229 3.83057 52.4225 3.83057 52.422 3.83057C52.4215 3.83057 52.4211 3.83057 52.4206 3.83057C52.4201 3.83057 52.4197 3.83057 52.4192 3.83057C52.4188 3.83057 52.4183 3.83057 52.4178 3.83057C52.4174 3.83057 52.4169 3.83057 52.4164 3.83057C52.416 3.83057 52.4155 3.83057 52.415 3.83057C52.4146 3.83057 52.4141 3.83057 52.4137 3.83057C52.4132 3.83057 52.4127 3.83057 52.4123 3.83057C52.4118 3.83057 52.4113 3.83057 52.4109 3.83057C52.4104 3.83057 52.4099 3.83057 52.4095 3.83057C52.409 3.83057 52.4086 3.83057 52.4081 3.83057C52.4076 3.83057 52.4072 3.83057 52.4067 3.83057C52.4062 3.83057 52.4058 3.83057 52.4053 3.83057C52.4048 3.83057 52.4044 3.83057 52.4039 3.83057C52.4035 3.83057 52.403 3.83057 52.4025 3.83057C52.4021 3.83057 52.4016 3.83057 52.4011 3.83057C52.4007 3.83057 52.4002 3.83057 52.3997 3.83057C52.3993 3.83057 52.3988 3.83057 52.3984 3.83057C52.3979 3.83057 52.3974 3.83057 52.397 3.83057C52.3965 3.83057 52.396 3.83057 52.3956 3.83057C52.3951 3.83057 52.3946 3.83057 52.3942 3.83057C52.3937 3.83057 52.3933 3.83057 52.3928 3.83057C52.3923 3.83057 52.3919 3.83057 52.3914 3.83057C52.3909 3.83057 52.3905 3.83057 52.39 3.83057C52.3895 3.83057 52.3891 3.83057 52.3886 3.83057C52.3882 3.83057 52.3877 3.83057 52.3872 3.83057C52.3868 3.83057 52.3863 3.83057 52.3858 3.83057C52.3854 3.83057 52.3849 3.83057 52.3844 3.83057C52.384 3.83057 52.3835 3.83057 52.3831 3.83057C52.3826 3.83057 52.3821 3.83057 52.3817 3.83057C52.3812 3.83057 52.3807 3.83057 52.3803 3.83057C52.3798 3.83057 52.3793 3.83057 52.3789 3.83057C52.3784 3.83057 52.378 3.83057 52.3775 3.83057C52.377 3.83057 52.3766 3.83057 52.3761 3.83057C52.3756 3.83057 52.3752 3.83057 52.3747 3.83057C52.3742 3.83057 52.3738 3.83057 52.3733 3.83057C52.3729 3.83057 52.3724 3.83057 52.3719 3.83057C52.3715 3.83057 52.371 3.83057 52.3705 3.83057C52.3701 3.83057 52.3696 3.83057 52.3691 3.83057C52.3687 3.83057 52.3682 3.83057 52.3678 3.83057C52.3673 3.83057 52.3668 3.83057 52.3664 3.83057C52.3659 3.83057 52.3654 3.83057 52.365 3.83057C52.3645 3.83057 52.364 3.83057 52.3636 3.83057C52.3631 3.83057 52.3627 3.83057 52.3622 3.83057C52.3617 3.83057 52.3613 3.83057 52.3608 3.83057C52.3603 3.83057 52.3599 3.83057 52.3594 3.83057C52.3589 3.83057 52.3585 3.83057 52.358 3.83057C52.3575 3.83057 52.3571 3.83057 52.3566 3.83057C52.3562 3.83057 52.3557 3.83057 52.3552 3.83057C52.3548 3.83057 52.3543 3.83057 52.3538 3.83057C52.3534 3.83057 52.3529 3.83057 52.3524 3.83057C52.352 3.83057 52.3515 3.83057 52.3511 3.83057C52.3506 3.83057 52.3501 3.83057 52.3497 3.83057C52.3492 3.83057 52.3487 3.83057 52.3483 3.83057C52.3478 3.83057 52.3473 3.83057 52.3469 3.83057C52.3464 3.83057 52.346 3.83057 52.3455 3.83057C52.345 3.83057 52.3446 3.83057 52.3441 3.83057C52.3436 3.83057 52.3432 3.83057 52.3427 3.83057C52.3422 3.83057 52.3418 3.83057 52.3413 3.83057C52.3409 3.83057 52.3404 3.83057 52.3399 3.83057C52.3395 3.83057 52.339 3.83057 52.3385 3.83057C52.3381 3.83057 52.3376 3.83057 52.3371 3.83057C52.3367 3.83057 52.3362 3.83057 52.3358 3.83057C52.3353 3.83057 52.3348 3.83057 52.3344 3.83057C52.3339 3.83057 52.3334 3.83057 52.333 3.83057C52.3325 3.83057 52.332 3.83057 52.3316 3.83057C52.3311 3.83057 52.3307 3.83057 52.3302 3.83057C52.3297 3.83057 52.3293 3.83057 52.3288 3.83057C52.3283 3.83057 52.3279 3.83057 52.3274 3.83057C52.3269 3.83057 52.3265 3.83057 52.326 3.83057C52.3256 3.83057 52.3251 3.83057 52.3246 3.83057C52.3242 3.83057 52.3237 3.83057 52.3232 3.83057C52.3228 3.83057 52.3223 3.83057 52.3218 3.83057C52.3214 3.83057 52.3209 3.83057 52.3205 3.83057C52.32 3.83057 52.3195 3.83057 52.3191 3.83057C52.3186 3.83057 52.3181 3.83057 52.3177 3.83057C52.3172 3.83057 52.3167 3.83057 52.3163 3.83057C52.3158 3.83057 52.3154 3.83057 52.3149 3.83057C52.3144 3.83057 52.314 3.83057 52.3135 3.83057C52.313 3.83057 52.3126 3.83057 52.3121 3.83057C52.3116 3.83057 52.3112 3.83057 52.3107 3.83057C52.3103 3.83057 52.3098 3.83057 52.3093 3.83057C52.3089 3.83057 52.3084 3.83057 52.3079 3.83057C52.3075 3.83057 52.307 3.83057 52.3065 3.83057C52.3061 3.83057 52.3056 3.83057 52.3052 3.83057C52.3047 3.83057 52.3042 3.83057 52.3038 3.83057C52.3033 3.83057 52.3028 3.83057 52.3024 3.83057C52.3019 3.83057 52.3014 3.83057 52.301 3.83057C52.3005 3.83057 52.3001 3.83057 52.2996 3.83057C52.2991 3.83057 52.2987 3.83057 52.2982 3.83057C52.2977 3.83057 52.2973 3.83057 52.2968 3.83057C52.2963 3.83057 52.2959 3.83057 52.2954 3.83057C52.295 3.83057 52.2945 3.83057 52.294 3.83057C52.2936 3.83057 52.2931 3.83057 52.2926 3.83057C52.2922 3.83057 52.2917 3.83057 52.2912 3.83057C52.2908 3.83057 52.2903 3.83057 52.2899 3.83057C52.2894 3.83057 52.2889 3.83057 52.2885 3.83057C52.288 3.83057 52.2875 3.83057 52.2871 3.83057C52.2866 3.83057 52.2861 3.83057 52.2857 3.83057C52.2852 3.83057 52.2848 3.83057 52.2843 3.83057C52.2838 3.83057 52.2834 3.83057 52.2829 3.83057C52.2824 3.83057 52.282 3.83057 52.2815 3.83057C52.281 3.83057 52.2806 3.83057 52.2801 3.83057C52.2797 3.83057 52.2792 3.83057 52.2787 3.83057C52.2783 3.83057 52.2778 3.83057 52.2773 3.83057C52.2769 3.83057 52.2764 3.83057 52.2759 3.83057C52.2755 3.83057 52.275 3.83057 52.2746 3.83057C52.2741 3.83057 52.2736 3.83057 52.2732 3.83057C52.2727 3.83057 52.2722 3.83057 52.2718 3.83057C52.2713 3.83057 52.2708 3.83057 52.2704 3.83057C52.2699 3.83057 52.2695 3.83057 52.269 3.83057C52.2685 3.83057 52.2681 3.83057 52.2676 3.83057C52.2671 3.83057 52.2667 3.83057 52.2662 3.83057C52.2657 3.83057 52.2653 3.83057 52.2648 3.83057C52.2644 3.83057 52.2639 3.83057 52.2634 3.83057C52.263 3.83057 52.2625 3.83057 52.262 3.83057C52.2616 3.83057 52.2611 3.83057 52.2606 3.83057C52.2602 3.83057 52.2597 3.83057 52.2593 3.83057C52.2588 3.83057 52.2583 3.83057 52.2579 3.83057C52.2574 3.83057 52.2569 3.83057 52.2565 3.83057C52.256 3.83057 52.2555 3.83057 52.2551 3.83057C52.2546 3.83057 52.2542 3.83057 52.2537 3.83057C52.2532 3.83057 52.2528 3.83057 52.2523 3.83057C52.2518 3.83057 52.2514 3.83057 52.2509 3.83057C52.2504 3.83057 52.25 3.83057 52.2495 3.83057C52.2491 3.83057 52.2486 3.83057 52.2481 3.83057C52.2477 3.83057 52.2472 3.83057 52.2467 3.83057C52.2463 3.83057 52.2458 3.83057 52.2453 3.83057C52.2449 3.83057 52.2444 3.83057 52.244 3.83057C52.2435 3.83057 52.243 3.83057 52.2426 3.83057C52.2421 3.83057 52.2416 3.83057 52.2412 3.83057C52.2407 3.83057 52.2402 3.83057 52.2398 3.83057C52.2393 3.83057 52.2389 3.83057 52.2384 3.83057C52.2379 3.83057 52.2375 3.83057 52.237 3.83057C52.2365 3.83057 52.2361 3.83057 52.2356 3.83057C52.2351 3.83057 52.2347 3.83057 52.2342 3.83057C52.2338 3.83057 52.2333 3.83057 52.2328 3.83057C52.2324 3.83057 52.2319 3.83057 52.2314 3.83057C52.231 3.83057 52.2305 3.83057 52.23 3.83057C52.2296 3.83057 52.2291 3.83057 52.2287 3.83057C52.2282 3.83057 52.2277 3.83057 52.2273 3.83057C52.2268 3.83057 52.2263 3.83057 52.2259 3.83057C52.2254 3.83057 52.2249 3.83057 52.2245 3.83057C52.224 3.83057 52.2236 3.83057 52.2231 3.83057C52.2226 3.83057 52.2222 3.83057 52.2217 3.83057C52.2212 3.83057 52.2208 3.83057 52.2203 3.83057C52.2198 3.83057 52.2194 3.83057 52.2189 3.83057C52.2185 3.83057 52.218 3.83057 52.2175 3.83057C52.2171 3.83057 52.2166 3.83057 52.2161 3.83057C52.2157 3.83057 52.2152 3.83057 52.2147 3.83057C52.2143 3.83057 52.2138 3.83057 52.2133 3.83057C52.2129 3.83057 52.2124 3.83057 52.212 3.83057C52.2115 3.83057 52.211 3.83057 52.2106 3.83057C52.2101 3.83057 52.2096 3.83057 52.2092 3.83057C52.2087 3.83057 52.2082 3.83057 52.2078 3.83057C52.2073 3.83057 52.2069 3.83057 52.2064 3.83057C52.2059 3.83057 52.2055 3.83057 52.205 3.83057C52.2045 3.83057 52.2041 3.83057 52.2036 3.83057C52.2031 3.83057 52.2027 3.83057 52.2022 3.83057C52.2018 3.83057 52.2013 3.83057 52.2008 3.83057C52.2004 3.83057 52.1999 3.83057 52.1994 3.83057C52.199 3.83057 52.1985 3.83057 52.198 3.83057C52.1976 3.83057 52.1971 3.83057 52.1967 3.83057C52.1962 3.83057 52.1957 3.83057 52.1953 3.83057C52.1948 3.83057 52.1943 3.83057 52.1939 3.83057C52.1934 3.83057 52.1929 3.83057 52.1925 3.83057C52.192 3.83057 52.1916 3.83057 52.1911 3.83057C52.1906 3.83057 52.1902 3.83057 52.1897 3.83057C52.1892 3.83057 52.1888 3.83057 52.1883 3.83057C52.1878 3.83057 52.1874 3.83057 52.1869 3.83057C52.1865 3.83057 52.186 3.83057 52.1855 3.83057C52.1851 3.83057 52.1846 3.83057 52.1841 3.83057C52.1837 3.83057 52.1832 3.83057 52.1827 3.83057C52.1823 3.83057 52.1818 3.83057 52.1814 3.83057C52.1809 3.83057 52.1804 3.83057 52.18 3.83057C52.1795 3.83057 52.179 3.83057 52.1786 3.83057C52.1781 3.83057 52.1776 3.83057 52.1772 3.83057C52.1767 3.83057 52.1763 3.83057 52.1758 3.83057C52.1753 3.83057 52.1749 3.83057 52.1744 3.83057C52.1739 3.83057 52.1735 3.83057 52.173 3.83057C52.1725 3.83057 52.1721 3.83057 52.1716 3.83057C52.1712 3.83057 52.1707 3.83057 52.1702 3.83057C52.1698 3.83057 52.1693 3.83057 52.1688 3.83057C52.1684 3.83057 52.1679 3.83057 52.1674 3.83057C52.167 3.83057 52.1665 3.83057 52.1661 3.83057C52.1656 3.83057 52.1651 3.83057 52.1647 3.83057C52.1642 3.83057 52.1637 3.83057 52.1633 3.83057C52.1628 3.83057 52.1623 3.83057 52.1619 3.83057C52.1614 3.83057 52.161 3.83057 52.1605 3.83057C52.16 3.83057 52.1596 3.83057 52.1591 3.83057C52.1586 3.83057 52.1582 3.83057 52.1577 3.83057C52.1572 3.83057 52.1568 3.83057 52.1563 3.83057C52.1559 3.83057 52.1554 3.83057 52.1549 3.83057C52.1545 3.83057 52.154 3.83057 52.1535 3.83057C52.1531 3.83057 52.1526 3.83057 52.1521 3.83057C52.1517 3.83057 52.1512 3.83057 52.1508 3.83057C52.1503 3.83057 52.1498 3.83057 52.1494 3.83057C52.1489 3.83057 52.1484 3.83057 52.148 3.83057C52.1475 3.83057 52.147 3.83057 52.1466 3.83057C52.1461 3.83057 52.1457 3.83057 52.1452 3.83057C52.1447 3.83057 52.1443 3.83057 52.1438 3.83057C52.1433 3.83057 52.1429 3.83057 52.1424 3.83057C52.1419 3.83057 52.1415 3.83057 52.141 3.83057C52.1406 3.83057 52.1401 3.83057 52.1396 3.83057C52.1392 3.83057 52.1387 3.83057 52.1382 3.83057C52.1378 3.83057 52.1373 3.83057 52.1368 3.83057C52.1364 3.83057 52.1359 3.83057 52.1355 3.83057C52.135 3.83057 52.1345 3.83057 52.1341 3.83057C52.1336 3.83057 52.1331 3.83057 52.1327 3.83057C52.1322 3.83057 52.1317 3.83057 52.1313 3.83057C52.1308 3.83057 52.1304 3.83057 52.1299 3.83057C52.1294 3.83057 52.129 3.83057 52.1285 3.83057C52.128 3.83057 52.1276 3.83057 52.1271 3.83057C52.1266 3.83057 52.1262 3.83057 52.1257 3.83057C52.1253 3.83057 52.1248 3.83057 52.1243 3.83057C52.1239 3.83057 52.1234 3.83057 52.1229 3.83057C52.1225 3.83057 52.122 3.83057 52.1215 3.83057C52.1211 3.83057 52.1206 3.83057 52.1202 3.83057C52.1197 3.83057 52.1192 3.83057 52.1188 3.83057C52.1183 3.83057 52.1178 3.83057 52.1174 3.83057C52.1169 3.83057 52.1164 3.83057 52.116 3.83057C52.1155 3.83057 52.1151 3.83057 52.1146 3.83057C52.1141 3.83057 52.1137 3.83057 52.1132 3.83057C52.1127 3.83057 52.1123 3.83057 52.1118 3.83057C52.1113 3.83057 52.1109 3.83057 52.1104 3.83057C52.11 3.83057 52.1095 3.83057 52.109 3.83057C52.1086 3.83057 52.1081 3.83057 52.1076 3.83057C52.1072 3.83057 52.1067 3.83057 52.1062 3.83057C52.1058 3.83057 52.1053 3.83057 52.1049 3.83057C52.1044 3.83057 52.1039 3.83057 52.1035 3.83057C52.103 3.83057 52.1025 3.83057 52.1021 3.83057C52.1016 3.83057 52.1011 3.83057 52.1007 3.83057C52.1002 3.83057 52.0998 3.83057 52.0993 3.83057C52.0988 3.83057 52.0984 3.83057 52.0979 3.83057C52.0974 3.83057 52.097 3.83057 52.0965 3.83057C52.096 3.83057 52.0956 3.83057 52.0951 3.83057C52.0947 3.83057 52.0942 3.83057 52.0937 3.83057C52.0933 3.83057 52.0928 3.83057 52.0923 3.83057C52.0919 3.83057 52.0914 3.83057 52.0909 3.83057C52.0905 3.83057 52.09 3.83057 52.0896 3.83057C52.0891 3.83057 52.0886 3.83057 52.0882 3.83057C52.0877 3.83057 52.0872 3.83057 52.0868 3.83057C52.0863 3.83057 52.0858 3.83057 52.0854 3.83057C52.0849 3.83057 52.0845 3.83057 52.084 3.83057C52.0835 3.83057 52.0831 3.83057 52.0826 3.83057C52.0821 3.83057 52.0817 3.83057 52.0812 3.83057C52.0807 3.83057 52.0803 3.83057 52.0798 3.83057C52.0793 3.83057 52.0789 3.83057 52.0784 3.83057C52.078 3.83057 52.0775 3.83057 52.077 3.83057C52.0766 3.83057 52.0761 3.83057 52.0756 3.83057C52.0752 3.83057 52.0747 3.83057 52.0742 3.83057C52.0738 3.83057 52.0733 3.83057 52.0729 3.83057C52.0724 3.83057 52.0719 3.83057 52.0715 3.83057C52.071 3.83057 52.0705 3.83057 52.0701 3.83057C52.0696 3.83057 52.0691 3.83057 52.0687 3.83057C52.0682 3.83057 52.0678 3.83057 52.0673 3.83057C52.0668 3.83057 52.0664 3.83057 52.0659 3.83057C52.0654 3.83057 52.065 3.83057 52.0645 3.83057C52.064 3.83057 52.0636 3.83057 52.0631 3.83057C52.0627 3.83057 52.0622 3.83057 52.0617 3.83057C52.0613 3.83057 52.0608 3.83057 52.0603 3.83057C52.0599 3.83057 52.0594 3.83057 52.0589 3.83057C52.0585 3.83057 52.058 3.83057 52.0576 3.83057C52.0571 3.83057 52.0566 3.83057 52.0562 3.83057C52.0557 3.83057 52.0552 3.83057 52.0548 3.83057C52.0543 3.83057 52.0538 3.83057 52.0534 3.83057C52.0529 3.83057 52.0525 3.83057 52.052 3.83057C52.0515 3.83057 52.0511 3.83057 52.0506 3.83057C52.0501 3.83057 52.0497 3.83057 52.0492 3.83057C52.0487 3.83057 52.0483 3.83057 52.0478 3.83057C52.0474 3.83057 52.0469 3.83057 52.0464 3.83057C52.046 3.83057 52.0455 3.83057 52.045 3.83057C52.0446 3.83057 52.0441 3.83057 52.0436 3.83057C52.0432 3.83057 52.0427 3.83057 52.0423 3.83057C52.0418 3.83057 52.0413 3.83057 52.0409 3.83057C52.0404 3.83057 52.0399 3.83057 52.0395 3.83057C52.039 3.83057 52.0385 3.83057 52.0381 3.83057C52.0376 3.83057 52.0372 3.83057 52.0367 3.83057C52.0362 3.83057 52.0358 3.83057 52.0353 3.83057C52.0348 3.83057 52.0344 3.83057 52.0339 3.83057C52.0334 3.83057 52.033 3.83057 52.0325 3.83057C52.0321 3.83057 52.0316 3.83057 52.0311 3.83057C52.0307 3.83057 52.0302 3.83057 52.0297 3.83057C52.0293 3.83057 52.0288 3.83057 52.0283 3.83057C52.0279 3.83057 52.0274 3.83057 52.027 3.83057C52.0265 3.83057 52.026 3.83057 52.0256 3.83057C52.0251 3.83057 52.0246 3.83057 52.0242 3.83057C52.0237 3.83057 52.0232 3.83057 52.0228 3.83057C52.0223 3.83057 52.0219 3.83057 52.0214 3.83057C52.0209 3.83057 52.0205 3.83057 52.02 3.83057C52.0195 3.83057 52.0191 3.83057 52.0186 3.83057C52.0181 3.83057 52.0177 3.83057 52.0172 3.83057C52.0168 3.83057 52.0163 3.83057 52.0158 3.83057C52.0154 3.83057 52.0149 3.83057 52.0144 3.83057C52.014 3.83057 52.0135 3.83057 52.013 3.83057C52.0126 3.83057 52.0121 3.83057 52.0117 3.83057C52.0112 3.83057 52.0107 3.83057 52.0103 3.83057C52.0098 3.83057 52.0093 3.83057 52.0089 3.83057C52.0084 3.83057 52.0079 3.83057 52.0075 3.83057C52.007 3.83057 52.0066 3.83057 52.0061 3.83057C52.0056 3.83057 52.0052 3.83057 52.0047 3.83057C52.0042 3.83057 52.0038 3.83057 52.0033 3.83057C52.0028 3.83057 52.0024 3.83057 52.0019 3.83057C52.0015 3.83057 52.001 3.83057 52.0005 3.83057C52.0001 3.83057 51.9996 3.83057 51.9991 3.83057C51.9987 3.83057 51.9982 3.83057 51.9977 3.83057C51.9973 3.83057 51.9968 3.83057 51.9964 3.83057C51.9959 3.83057 51.9954 3.83057 51.995 3.83057C51.9945 3.83057 51.994 3.83057 51.9936 3.83057C51.9931 3.83057 51.9926 3.83057 51.9922 3.83057C51.9917 3.83057 51.9913 3.83057 51.9908 3.83057C51.9903 3.83057 51.9899 3.83057 51.9894 3.83057C51.9889 3.83057 51.9885 3.83057 51.988 3.83057C51.9875 3.83057 51.9871 3.83057 51.9866 3.83057C51.9862 3.83057 51.9857 3.83057 51.9852 3.83057C51.9848 3.83057 51.9843 3.83057 51.9838 3.83057C51.9834 3.83057 51.9829 3.83057 51.9824 3.83057C51.982 3.83057 51.9815 3.83057 51.9811 3.83057C51.9806 3.83057 51.9801 3.83057 51.9797 3.83057C51.9792 3.83057 51.9787 3.83057 51.9783 3.83057C51.9778 3.83057 51.9773 3.83057 51.9769 3.83057C51.9764 3.83057 51.976 3.83057 51.9755 3.83057C51.975 3.83057 51.9746 3.83057 51.9741 3.83057C51.9736 3.83057 51.9732 3.83057 51.9727 3.83057C51.9722 3.83057 51.9718 3.83057 51.9713 3.83057C51.9709 3.83057 51.9704 3.83057 51.9699 3.83057C51.9695 3.83057 51.969 3.83057 51.9685 3.83057C51.9681 3.83057 51.9676 3.83057 51.9671 3.83057C51.9667 3.83057 51.9662 3.83057 51.9658 3.83057C51.9653 3.83057 51.9648 3.83057 51.9644 3.83057C51.9639 3.83057 51.9634 3.83057 51.963 3.83057C51.9625 3.83057 51.962 3.83057 51.9616 3.83057C51.9611 3.83057 51.9607 3.83057 51.9602 3.83057C51.9597 3.83057 51.9593 3.83057 51.9588 3.83057C51.9583 3.83057 51.9579 3.83057 51.9574 3.83057C51.9569 3.83057 51.9565 3.83057 51.956 3.83057C51.9556 3.83057 51.9551 3.83057 51.9546 3.83057C51.9542 3.83057 51.9537 3.83057 51.9532 3.83057C51.9528 3.83057 51.9523 3.83057 51.9518 3.83057C51.9514 3.83057 51.9509 3.83057 51.9505 3.83057C51.95 3.83057 51.9495 3.83057 51.9491 3.83057C51.9486 3.83057 51.9481 3.83057 51.9477 3.83057C51.9472 3.83057 51.9467 3.83057 51.9463 3.83057C51.9458 3.83057 51.9454 3.83057 51.9449 3.83057C51.9444 3.83057 51.944 3.83057 51.9435 3.83057C51.943 3.83057 51.9426 3.83057 51.9421 3.83057C51.9416 3.83057 51.9412 3.83057 51.9407 3.83057C51.9403 3.83057 51.9398 3.83057 51.9393 3.83057C51.9389 3.83057 51.9384 3.83057 51.9379 3.83057C51.9375 3.83057 51.937 3.83057 51.9365 3.83057C51.9361 3.83057 51.9356 3.83057 51.9352 3.83057C51.9347 3.83057 51.9342 3.83057 51.9338 3.83057C51.9333 3.83057 51.9328 3.83057 51.9324 3.83057C51.9319 3.83057 51.9314 3.83057 51.931 3.83057C51.9305 3.83057 51.9301 3.83057 51.9296 3.83057C51.9291 3.83057 51.9287 3.83057 51.9282 3.83057C51.9277 3.83057 51.9273 3.83057 51.9268 3.83057C51.9263 3.83057 51.9259 3.83057 51.9254 3.83057C51.925 3.83057 51.9245 3.83057 51.924 3.83057C51.9236 3.83057 51.9231 3.83057 51.9226 3.83057C51.9222 3.83057 51.9217 3.83057 51.9212 3.83057C51.9208 3.83057 51.9203 3.83057 51.9199 3.83057C51.9194 3.83057 51.9189 3.83057 51.9185 3.83057C51.918 3.83057 51.9175 3.83057 51.9171 3.83057C51.9166 3.83057 51.9161 3.83057 51.9157 3.83057C51.9152 3.83057 51.9148 3.83057 51.9143 3.83057C51.9138 3.83057 51.9134 3.83057 51.9129 3.83057C51.9124 3.83057 51.912 3.83057 51.9115 3.83057C51.911 3.83057 51.9106 3.83057 51.9101 3.83057C51.9097 3.83057 51.9092 3.83057 51.9087 3.83057C51.9083 3.83057 51.9078 3.83057 51.9073 3.83057C51.9069 3.83057 51.9064 3.83057 51.9059 3.83057C51.9055 3.83057 51.905 3.83057 51.9046 3.83057C51.9041 3.83057 51.9036 3.83057 51.9032 3.83057C51.9027 3.83057 51.9022 3.83057 51.9018 3.83057C51.9013 3.83057 51.9008 3.83057 51.9004 3.83057C51.8999 3.83057 51.8995 3.83057 51.899 3.83057C51.8985 3.83057 51.8981 3.83057 51.8976 3.83057C51.8971 3.83057 51.8967 3.83057 51.8962 3.83057C51.8957 3.83057 51.8953 3.83057 51.8948 3.83057C51.8944 3.83057 51.8939 3.83057 51.8934 3.83057C51.893 3.83057 51.8925 3.83057 51.892 3.83057C51.8916 3.83057 51.8911 3.83057 51.8906 3.83057C51.8902 3.83057 51.8897 3.83057 51.8893 3.83057C51.8888 3.83057 51.8883 3.83057 51.8879 3.83057C51.8874 3.83057 51.8869 3.83057 51.8865 3.83057C51.886 3.83057 51.8855 3.83057 51.8851 3.83057C51.8846 3.83057 51.8842 3.83057 51.8837 3.83057C51.8832 3.83057 51.8828 3.83057 51.8823 3.83057C51.8818 3.83057 51.8814 3.83057 51.8809 3.83057C51.8804 3.83057 51.88 3.83057 51.8795 3.83057C51.8791 3.83057 51.8786 3.83057 51.8781 3.83057C51.8777 3.83057 51.8772 3.83057 51.8767 3.83057C51.8763 3.83057 51.8758 3.83057 51.8753 3.83057C51.8749 3.83057 51.8744 3.83057 51.874 3.83057C51.8735 3.83057 51.873 3.83057 51.8726 3.83057C51.8721 3.83057 51.8716 3.83057 51.8712 3.83057C51.8707 3.83057 51.8702 3.83057 51.8698 3.83057C51.8693 3.83057 51.8689 3.83057 51.8684 3.83057C51.8679 3.83057 51.8675 3.83057 51.867 3.83057C51.8665 3.83057 51.8661 3.83057 51.8656 3.83057C51.8651 3.83057 51.8647 3.83057 51.8642 3.83057C51.8638 3.83057 51.8633 3.83057 51.8628 3.83057C51.8624 3.83057 51.8619 3.83057 51.8614 3.83057C51.861 3.83057 51.8605 3.83057 51.86 3.83057C51.8596 3.83057 51.8591 3.83057 51.8587 3.83057C51.8582 3.83057 51.8577 3.83057 51.8573 3.83057C51.8568 3.83057 51.8563 3.83057 51.8559 3.83057C51.8554 3.83057 51.8549 3.83057 51.8545 3.83057C51.854 3.83057 51.8536 3.83057 51.8531 3.83057C51.8526 3.83057 51.8522 3.83057 51.8517 3.83057C51.8512 3.83057 51.8508 3.83057 51.8503 3.83057C51.8498 3.83057 51.8494 3.83057 51.8489 3.83057C51.8485 3.83057 51.848 3.83057 51.8475 3.83057C51.8471 3.83057 51.8466 3.83057 51.8461 3.83057C51.8457 3.83057 51.8452 3.83057 51.8447 3.83057C51.8443 3.83057 51.8438 3.83057 51.8434 3.83057V13.8306C51.8438 13.8306 51.8443 13.8306 51.8447 13.8306C51.8452 13.8306 51.8457 13.8306 51.8461 13.8306C51.8466 13.8306 51.8471 13.8306 51.8475 13.8306C51.848 13.8306 51.8485 13.8306 51.8489 13.8306C51.8494 13.8306 51.8498 13.8306 51.8503 13.8306C51.8508 13.8306 51.8512 13.8306 51.8517 13.8306C51.8522 13.8306 51.8526 13.8306 51.8531 13.8306C51.8536 13.8306 51.854 13.8306 51.8545 13.8306C51.8549 13.8306 51.8554 13.8306 51.8559 13.8306C51.8563 13.8306 51.8568 13.8306 51.8573 13.8306C51.8577 13.8306 51.8582 13.8306 51.8587 13.8306C51.8591 13.8306 51.8596 13.8306 51.86 13.8306C51.8605 13.8306 51.861 13.8306 51.8614 13.8306C51.8619 13.8306 51.8624 13.8306 51.8628 13.8306C51.8633 13.8306 51.8638 13.8306 51.8642 13.8306C51.8647 13.8306 51.8651 13.8306 51.8656 13.8306C51.8661 13.8306 51.8665 13.8306 51.867 13.8306C51.8675 13.8306 51.8679 13.8306 51.8684 13.8306C51.8689 13.8306 51.8693 13.8306 51.8698 13.8306C51.8702 13.8306 51.8707 13.8306 51.8712 13.8306C51.8716 13.8306 51.8721 13.8306 51.8726 13.8306C51.873 13.8306 51.8735 13.8306 51.874 13.8306C51.8744 13.8306 51.8749 13.8306 51.8753 13.8306C51.8758 13.8306 51.8763 13.8306 51.8767 13.8306C51.8772 13.8306 51.8777 13.8306 51.8781 13.8306C51.8786 13.8306 51.8791 13.8306 51.8795 13.8306C51.88 13.8306 51.8804 13.8306 51.8809 13.8306C51.8814 13.8306 51.8818 13.8306 51.8823 13.8306C51.8828 13.8306 51.8832 13.8306 51.8837 13.8306C51.8842 13.8306 51.8846 13.8306 51.8851 13.8306C51.8855 13.8306 51.886 13.8306 51.8865 13.8306C51.8869 13.8306 51.8874 13.8306 51.8879 13.8306C51.8883 13.8306 51.8888 13.8306 51.8893 13.8306C51.8897 13.8306 51.8902 13.8306 51.8906 13.8306C51.8911 13.8306 51.8916 13.8306 51.892 13.8306C51.8925 13.8306 51.893 13.8306 51.8934 13.8306C51.8939 13.8306 51.8944 13.8306 51.8948 13.8306C51.8953 13.8306 51.8957 13.8306 51.8962 13.8306C51.8967 13.8306 51.8971 13.8306 51.8976 13.8306C51.8981 13.8306 51.8985 13.8306 51.899 13.8306C51.8995 13.8306 51.8999 13.8306 51.9004 13.8306C51.9008 13.8306 51.9013 13.8306 51.9018 13.8306C51.9022 13.8306 51.9027 13.8306 51.9032 13.8306C51.9036 13.8306 51.9041 13.8306 51.9046 13.8306C51.905 13.8306 51.9055 13.8306 51.9059 13.8306C51.9064 13.8306 51.9069 13.8306 51.9073 13.8306C51.9078 13.8306 51.9083 13.8306 51.9087 13.8306C51.9092 13.8306 51.9097 13.8306 51.9101 13.8306C51.9106 13.8306 51.911 13.8306 51.9115 13.8306C51.912 13.8306 51.9124 13.8306 51.9129 13.8306C51.9134 13.8306 51.9138 13.8306 51.9143 13.8306C51.9148 13.8306 51.9152 13.8306 51.9157 13.8306C51.9161 13.8306 51.9166 13.8306 51.9171 13.8306C51.9175 13.8306 51.918 13.8306 51.9185 13.8306C51.9189 13.8306 51.9194 13.8306 51.9199 13.8306C51.9203 13.8306 51.9208 13.8306 51.9212 13.8306C51.9217 13.8306 51.9222 13.8306 51.9226 13.8306C51.9231 13.8306 51.9236 13.8306 51.924 13.8306C51.9245 13.8306 51.925 13.8306 51.9254 13.8306C51.9259 13.8306 51.9263 13.8306 51.9268 13.8306C51.9273 13.8306 51.9277 13.8306 51.9282 13.8306C51.9287 13.8306 51.9291 13.8306 51.9296 13.8306C51.9301 13.8306 51.9305 13.8306 51.931 13.8306C51.9314 13.8306 51.9319 13.8306 51.9324 13.8306C51.9328 13.8306 51.9333 13.8306 51.9338 13.8306C51.9342 13.8306 51.9347 13.8306 51.9352 13.8306C51.9356 13.8306 51.9361 13.8306 51.9365 13.8306C51.937 13.8306 51.9375 13.8306 51.9379 13.8306C51.9384 13.8306 51.9389 13.8306 51.9393 13.8306C51.9398 13.8306 51.9403 13.8306 51.9407 13.8306C51.9412 13.8306 51.9416 13.8306 51.9421 13.8306C51.9426 13.8306 51.943 13.8306 51.9435 13.8306C51.944 13.8306 51.9444 13.8306 51.9449 13.8306C51.9454 13.8306 51.9458 13.8306 51.9463 13.8306C51.9467 13.8306 51.9472 13.8306 51.9477 13.8306C51.9481 13.8306 51.9486 13.8306 51.9491 13.8306C51.9495 13.8306 51.95 13.8306 51.9505 13.8306C51.9509 13.8306 51.9514 13.8306 51.9518 13.8306C51.9523 13.8306 51.9528 13.8306 51.9532 13.8306C51.9537 13.8306 51.9542 13.8306 51.9546 13.8306C51.9551 13.8306 51.9556 13.8306 51.956 13.8306C51.9565 13.8306 51.9569 13.8306 51.9574 13.8306C51.9579 13.8306 51.9583 13.8306 51.9588 13.8306C51.9593 13.8306 51.9597 13.8306 51.9602 13.8306C51.9607 13.8306 51.9611 13.8306 51.9616 13.8306C51.962 13.8306 51.9625 13.8306 51.963 13.8306C51.9634 13.8306 51.9639 13.8306 51.9644 13.8306C51.9648 13.8306 51.9653 13.8306 51.9658 13.8306C51.9662 13.8306 51.9667 13.8306 51.9671 13.8306C51.9676 13.8306 51.9681 13.8306 51.9685 13.8306C51.969 13.8306 51.9695 13.8306 51.9699 13.8306C51.9704 13.8306 51.9709 13.8306 51.9713 13.8306C51.9718 13.8306 51.9722 13.8306 51.9727 13.8306C51.9732 13.8306 51.9736 13.8306 51.9741 13.8306C51.9746 13.8306 51.975 13.8306 51.9755 13.8306C51.976 13.8306 51.9764 13.8306 51.9769 13.8306C51.9773 13.8306 51.9778 13.8306 51.9783 13.8306C51.9787 13.8306 51.9792 13.8306 51.9797 13.8306C51.9801 13.8306 51.9806 13.8306 51.9811 13.8306C51.9815 13.8306 51.982 13.8306 51.9824 13.8306C51.9829 13.8306 51.9834 13.8306 51.9838 13.8306C51.9843 13.8306 51.9848 13.8306 51.9852 13.8306C51.9857 13.8306 51.9862 13.8306 51.9866 13.8306C51.9871 13.8306 51.9875 13.8306 51.988 13.8306C51.9885 13.8306 51.9889 13.8306 51.9894 13.8306C51.9899 13.8306 51.9903 13.8306 51.9908 13.8306C51.9913 13.8306 51.9917 13.8306 51.9922 13.8306C51.9926 13.8306 51.9931 13.8306 51.9936 13.8306C51.994 13.8306 51.9945 13.8306 51.995 13.8306C51.9954 13.8306 51.9959 13.8306 51.9964 13.8306C51.9968 13.8306 51.9973 13.8306 51.9977 13.8306C51.9982 13.8306 51.9987 13.8306 51.9991 13.8306C51.9996 13.8306 52.0001 13.8306 52.0005 13.8306C52.001 13.8306 52.0015 13.8306 52.0019 13.8306C52.0024 13.8306 52.0028 13.8306 52.0033 13.8306C52.0038 13.8306 52.0042 13.8306 52.0047 13.8306C52.0052 13.8306 52.0056 13.8306 52.0061 13.8306C52.0066 13.8306 52.007 13.8306 52.0075 13.8306C52.0079 13.8306 52.0084 13.8306 52.0089 13.8306C52.0093 13.8306 52.0098 13.8306 52.0103 13.8306C52.0107 13.8306 52.0112 13.8306 52.0117 13.8306C52.0121 13.8306 52.0126 13.8306 52.013 13.8306C52.0135 13.8306 52.014 13.8306 52.0144 13.8306C52.0149 13.8306 52.0154 13.8306 52.0158 13.8306C52.0163 13.8306 52.0168 13.8306 52.0172 13.8306C52.0177 13.8306 52.0181 13.8306 52.0186 13.8306C52.0191 13.8306 52.0195 13.8306 52.02 13.8306C52.0205 13.8306 52.0209 13.8306 52.0214 13.8306C52.0219 13.8306 52.0223 13.8306 52.0228 13.8306C52.0232 13.8306 52.0237 13.8306 52.0242 13.8306C52.0246 13.8306 52.0251 13.8306 52.0256 13.8306C52.026 13.8306 52.0265 13.8306 52.027 13.8306C52.0274 13.8306 52.0279 13.8306 52.0283 13.8306C52.0288 13.8306 52.0293 13.8306 52.0297 13.8306C52.0302 13.8306 52.0307 13.8306 52.0311 13.8306C52.0316 13.8306 52.0321 13.8306 52.0325 13.8306C52.033 13.8306 52.0334 13.8306 52.0339 13.8306C52.0344 13.8306 52.0348 13.8306 52.0353 13.8306C52.0358 13.8306 52.0362 13.8306 52.0367 13.8306C52.0372 13.8306 52.0376 13.8306 52.0381 13.8306C52.0385 13.8306 52.039 13.8306 52.0395 13.8306C52.0399 13.8306 52.0404 13.8306 52.0409 13.8306C52.0413 13.8306 52.0418 13.8306 52.0423 13.8306C52.0427 13.8306 52.0432 13.8306 52.0436 13.8306C52.0441 13.8306 52.0446 13.8306 52.045 13.8306C52.0455 13.8306 52.046 13.8306 52.0464 13.8306C52.0469 13.8306 52.0474 13.8306 52.0478 13.8306C52.0483 13.8306 52.0487 13.8306 52.0492 13.8306C52.0497 13.8306 52.0501 13.8306 52.0506 13.8306C52.0511 13.8306 52.0515 13.8306 52.052 13.8306C52.0525 13.8306 52.0529 13.8306 52.0534 13.8306C52.0538 13.8306 52.0543 13.8306 52.0548 13.8306C52.0552 13.8306 52.0557 13.8306 52.0562 13.8306C52.0566 13.8306 52.0571 13.8306 52.0576 13.8306C52.058 13.8306 52.0585 13.8306 52.0589 13.8306C52.0594 13.8306 52.0599 13.8306 52.0603 13.8306C52.0608 13.8306 52.0613 13.8306 52.0617 13.8306C52.0622 13.8306 52.0627 13.8306 52.0631 13.8306C52.0636 13.8306 52.064 13.8306 52.0645 13.8306C52.065 13.8306 52.0654 13.8306 52.0659 13.8306C52.0664 13.8306 52.0668 13.8306 52.0673 13.8306C52.0678 13.8306 52.0682 13.8306 52.0687 13.8306C52.0691 13.8306 52.0696 13.8306 52.0701 13.8306C52.0705 13.8306 52.071 13.8306 52.0715 13.8306C52.0719 13.8306 52.0724 13.8306 52.0729 13.8306C52.0733 13.8306 52.0738 13.8306 52.0742 13.8306C52.0747 13.8306 52.0752 13.8306 52.0756 13.8306C52.0761 13.8306 52.0766 13.8306 52.077 13.8306C52.0775 13.8306 52.078 13.8306 52.0784 13.8306C52.0789 13.8306 52.0793 13.8306 52.0798 13.8306C52.0803 13.8306 52.0807 13.8306 52.0812 13.8306C52.0817 13.8306 52.0821 13.8306 52.0826 13.8306C52.0831 13.8306 52.0835 13.8306 52.084 13.8306C52.0845 13.8306 52.0849 13.8306 52.0854 13.8306C52.0858 13.8306 52.0863 13.8306 52.0868 13.8306C52.0872 13.8306 52.0877 13.8306 52.0882 13.8306C52.0886 13.8306 52.0891 13.8306 52.0896 13.8306C52.09 13.8306 52.0905 13.8306 52.0909 13.8306C52.0914 13.8306 52.0919 13.8306 52.0923 13.8306C52.0928 13.8306 52.0933 13.8306 52.0937 13.8306C52.0942 13.8306 52.0947 13.8306 52.0951 13.8306C52.0956 13.8306 52.096 13.8306 52.0965 13.8306C52.097 13.8306 52.0974 13.8306 52.0979 13.8306C52.0984 13.8306 52.0988 13.8306 52.0993 13.8306C52.0998 13.8306 52.1002 13.8306 52.1007 13.8306C52.1011 13.8306 52.1016 13.8306 52.1021 13.8306C52.1025 13.8306 52.103 13.8306 52.1035 13.8306C52.1039 13.8306 52.1044 13.8306 52.1049 13.8306C52.1053 13.8306 52.1058 13.8306 52.1062 13.8306C52.1067 13.8306 52.1072 13.8306 52.1076 13.8306C52.1081 13.8306 52.1086 13.8306 52.109 13.8306C52.1095 13.8306 52.11 13.8306 52.1104 13.8306C52.1109 13.8306 52.1113 13.8306 52.1118 13.8306C52.1123 13.8306 52.1127 13.8306 52.1132 13.8306C52.1137 13.8306 52.1141 13.8306 52.1146 13.8306C52.1151 13.8306 52.1155 13.8306 52.116 13.8306C52.1164 13.8306 52.1169 13.8306 52.1174 13.8306C52.1178 13.8306 52.1183 13.8306 52.1188 13.8306C52.1192 13.8306 52.1197 13.8306 52.1202 13.8306C52.1206 13.8306 52.1211 13.8306 52.1215 13.8306C52.122 13.8306 52.1225 13.8306 52.1229 13.8306C52.1234 13.8306 52.1239 13.8306 52.1243 13.8306C52.1248 13.8306 52.1253 13.8306 52.1257 13.8306C52.1262 13.8306 52.1266 13.8306 52.1271 13.8306C52.1276 13.8306 52.128 13.8306 52.1285 13.8306C52.129 13.8306 52.1294 13.8306 52.1299 13.8306C52.1304 13.8306 52.1308 13.8306 52.1313 13.8306C52.1317 13.8306 52.1322 13.8306 52.1327 13.8306C52.1331 13.8306 52.1336 13.8306 52.1341 13.8306C52.1345 13.8306 52.135 13.8306 52.1355 13.8306C52.1359 13.8306 52.1364 13.8306 52.1368 13.8306C52.1373 13.8306 52.1378 13.8306 52.1382 13.8306C52.1387 13.8306 52.1392 13.8306 52.1396 13.8306C52.1401 13.8306 52.1406 13.8306 52.141 13.8306C52.1415 13.8306 52.1419 13.8306 52.1424 13.8306C52.1429 13.8306 52.1433 13.8306 52.1438 13.8306C52.1443 13.8306 52.1447 13.8306 52.1452 13.8306C52.1457 13.8306 52.1461 13.8306 52.1466 13.8306C52.147 13.8306 52.1475 13.8306 52.148 13.8306C52.1484 13.8306 52.1489 13.8306 52.1494 13.8306C52.1498 13.8306 52.1503 13.8306 52.1508 13.8306C52.1512 13.8306 52.1517 13.8306 52.1521 13.8306C52.1526 13.8306 52.1531 13.8306 52.1535 13.8306C52.154 13.8306 52.1545 13.8306 52.1549 13.8306C52.1554 13.8306 52.1559 13.8306 52.1563 13.8306C52.1568 13.8306 52.1572 13.8306 52.1577 13.8306C52.1582 13.8306 52.1586 13.8306 52.1591 13.8306C52.1596 13.8306 52.16 13.8306 52.1605 13.8306C52.161 13.8306 52.1614 13.8306 52.1619 13.8306C52.1623 13.8306 52.1628 13.8306 52.1633 13.8306C52.1637 13.8306 52.1642 13.8306 52.1647 13.8306C52.1651 13.8306 52.1656 13.8306 52.1661 13.8306C52.1665 13.8306 52.167 13.8306 52.1674 13.8306C52.1679 13.8306 52.1684 13.8306 52.1688 13.8306C52.1693 13.8306 52.1698 13.8306 52.1702 13.8306C52.1707 13.8306 52.1712 13.8306 52.1716 13.8306C52.1721 13.8306 52.1725 13.8306 52.173 13.8306C52.1735 13.8306 52.1739 13.8306 52.1744 13.8306C52.1749 13.8306 52.1753 13.8306 52.1758 13.8306C52.1763 13.8306 52.1767 13.8306 52.1772 13.8306C52.1776 13.8306 52.1781 13.8306 52.1786 13.8306C52.179 13.8306 52.1795 13.8306 52.18 13.8306C52.1804 13.8306 52.1809 13.8306 52.1814 13.8306C52.1818 13.8306 52.1823 13.8306 52.1827 13.8306C52.1832 13.8306 52.1837 13.8306 52.1841 13.8306C52.1846 13.8306 52.1851 13.8306 52.1855 13.8306C52.186 13.8306 52.1865 13.8306 52.1869 13.8306C52.1874 13.8306 52.1878 13.8306 52.1883 13.8306C52.1888 13.8306 52.1892 13.8306 52.1897 13.8306C52.1902 13.8306 52.1906 13.8306 52.1911 13.8306C52.1916 13.8306 52.192 13.8306 52.1925 13.8306C52.1929 13.8306 52.1934 13.8306 52.1939 13.8306C52.1943 13.8306 52.1948 13.8306 52.1953 13.8306C52.1957 13.8306 52.1962 13.8306 52.1967 13.8306C52.1971 13.8306 52.1976 13.8306 52.198 13.8306C52.1985 13.8306 52.199 13.8306 52.1994 13.8306C52.1999 13.8306 52.2004 13.8306 52.2008 13.8306C52.2013 13.8306 52.2018 13.8306 52.2022 13.8306C52.2027 13.8306 52.2031 13.8306 52.2036 13.8306C52.2041 13.8306 52.2045 13.8306 52.205 13.8306C52.2055 13.8306 52.2059 13.8306 52.2064 13.8306C52.2069 13.8306 52.2073 13.8306 52.2078 13.8306C52.2082 13.8306 52.2087 13.8306 52.2092 13.8306C52.2096 13.8306 52.2101 13.8306 52.2106 13.8306C52.211 13.8306 52.2115 13.8306 52.212 13.8306C52.2124 13.8306 52.2129 13.8306 52.2133 13.8306C52.2138 13.8306 52.2143 13.8306 52.2147 13.8306C52.2152 13.8306 52.2157 13.8306 52.2161 13.8306C52.2166 13.8306 52.2171 13.8306 52.2175 13.8306C52.218 13.8306 52.2185 13.8306 52.2189 13.8306C52.2194 13.8306 52.2198 13.8306 52.2203 13.8306C52.2208 13.8306 52.2212 13.8306 52.2217 13.8306C52.2222 13.8306 52.2226 13.8306 52.2231 13.8306C52.2236 13.8306 52.224 13.8306 52.2245 13.8306C52.2249 13.8306 52.2254 13.8306 52.2259 13.8306C52.2263 13.8306 52.2268 13.8306 52.2273 13.8306C52.2277 13.8306 52.2282 13.8306 52.2287 13.8306C52.2291 13.8306 52.2296 13.8306 52.23 13.8306C52.2305 13.8306 52.231 13.8306 52.2314 13.8306C52.2319 13.8306 52.2324 13.8306 52.2328 13.8306C52.2333 13.8306 52.2338 13.8306 52.2342 13.8306C52.2347 13.8306 52.2351 13.8306 52.2356 13.8306C52.2361 13.8306 52.2365 13.8306 52.237 13.8306C52.2375 13.8306 52.2379 13.8306 52.2384 13.8306C52.2389 13.8306 52.2393 13.8306 52.2398 13.8306C52.2402 13.8306 52.2407 13.8306 52.2412 13.8306C52.2416 13.8306 52.2421 13.8306 52.2426 13.8306C52.243 13.8306 52.2435 13.8306 52.244 13.8306C52.2444 13.8306 52.2449 13.8306 52.2453 13.8306C52.2458 13.8306 52.2463 13.8306 52.2467 13.8306C52.2472 13.8306 52.2477 13.8306 52.2481 13.8306C52.2486 13.8306 52.2491 13.8306 52.2495 13.8306C52.25 13.8306 52.2504 13.8306 52.2509 13.8306C52.2514 13.8306 52.2518 13.8306 52.2523 13.8306C52.2528 13.8306 52.2532 13.8306 52.2537 13.8306C52.2542 13.8306 52.2546 13.8306 52.2551 13.8306C52.2555 13.8306 52.256 13.8306 52.2565 13.8306C52.2569 13.8306 52.2574 13.8306 52.2579 13.8306C52.2583 13.8306 52.2588 13.8306 52.2593 13.8306C52.2597 13.8306 52.2602 13.8306 52.2606 13.8306C52.2611 13.8306 52.2616 13.8306 52.262 13.8306C52.2625 13.8306 52.263 13.8306 52.2634 13.8306C52.2639 13.8306 52.2644 13.8306 52.2648 13.8306C52.2653 13.8306 52.2657 13.8306 52.2662 13.8306C52.2667 13.8306 52.2671 13.8306 52.2676 13.8306C52.2681 13.8306 52.2685 13.8306 52.269 13.8306C52.2695 13.8306 52.2699 13.8306 52.2704 13.8306C52.2708 13.8306 52.2713 13.8306 52.2718 13.8306C52.2722 13.8306 52.2727 13.8306 52.2732 13.8306C52.2736 13.8306 52.2741 13.8306 52.2746 13.8306C52.275 13.8306 52.2755 13.8306 52.2759 13.8306C52.2764 13.8306 52.2769 13.8306 52.2773 13.8306C52.2778 13.8306 52.2783 13.8306 52.2787 13.8306C52.2792 13.8306 52.2797 13.8306 52.2801 13.8306C52.2806 13.8306 52.281 13.8306 52.2815 13.8306C52.282 13.8306 52.2824 13.8306 52.2829 13.8306C52.2834 13.8306 52.2838 13.8306 52.2843 13.8306C52.2848 13.8306 52.2852 13.8306 52.2857 13.8306C52.2861 13.8306 52.2866 13.8306 52.2871 13.8306C52.2875 13.8306 52.288 13.8306 52.2885 13.8306C52.2889 13.8306 52.2894 13.8306 52.2899 13.8306C52.2903 13.8306 52.2908 13.8306 52.2912 13.8306C52.2917 13.8306 52.2922 13.8306 52.2926 13.8306C52.2931 13.8306 52.2936 13.8306 52.294 13.8306C52.2945 13.8306 52.295 13.8306 52.2954 13.8306C52.2959 13.8306 52.2963 13.8306 52.2968 13.8306C52.2973 13.8306 52.2977 13.8306 52.2982 13.8306C52.2987 13.8306 52.2991 13.8306 52.2996 13.8306C52.3001 13.8306 52.3005 13.8306 52.301 13.8306C52.3014 13.8306 52.3019 13.8306 52.3024 13.8306C52.3028 13.8306 52.3033 13.8306 52.3038 13.8306C52.3042 13.8306 52.3047 13.8306 52.3052 13.8306C52.3056 13.8306 52.3061 13.8306 52.3065 13.8306C52.307 13.8306 52.3075 13.8306 52.3079 13.8306C52.3084 13.8306 52.3089 13.8306 52.3093 13.8306C52.3098 13.8306 52.3103 13.8306 52.3107 13.8306C52.3112 13.8306 52.3116 13.8306 52.3121 13.8306C52.3126 13.8306 52.313 13.8306 52.3135 13.8306C52.314 13.8306 52.3144 13.8306 52.3149 13.8306C52.3154 13.8306 52.3158 13.8306 52.3163 13.8306C52.3167 13.8306 52.3172 13.8306 52.3177 13.8306C52.3181 13.8306 52.3186 13.8306 52.3191 13.8306C52.3195 13.8306 52.32 13.8306 52.3205 13.8306C52.3209 13.8306 52.3214 13.8306 52.3218 13.8306C52.3223 13.8306 52.3228 13.8306 52.3232 13.8306C52.3237 13.8306 52.3242 13.8306 52.3246 13.8306C52.3251 13.8306 52.3256 13.8306 52.326 13.8306C52.3265 13.8306 52.3269 13.8306 52.3274 13.8306C52.3279 13.8306 52.3283 13.8306 52.3288 13.8306C52.3293 13.8306 52.3297 13.8306 52.3302 13.8306C52.3307 13.8306 52.3311 13.8306 52.3316 13.8306C52.332 13.8306 52.3325 13.8306 52.333 13.8306C52.3334 13.8306 52.3339 13.8306 52.3344 13.8306C52.3348 13.8306 52.3353 13.8306 52.3358 13.8306C52.3362 13.8306 52.3367 13.8306 52.3371 13.8306C52.3376 13.8306 52.3381 13.8306 52.3385 13.8306C52.339 13.8306 52.3395 13.8306 52.3399 13.8306C52.3404 13.8306 52.3409 13.8306 52.3413 13.8306C52.3418 13.8306 52.3422 13.8306 52.3427 13.8306C52.3432 13.8306 52.3436 13.8306 52.3441 13.8306C52.3446 13.8306 52.345 13.8306 52.3455 13.8306C52.346 13.8306 52.3464 13.8306 52.3469 13.8306C52.3473 13.8306 52.3478 13.8306 52.3483 13.8306C52.3487 13.8306 52.3492 13.8306 52.3497 13.8306C52.3501 13.8306 52.3506 13.8306 52.3511 13.8306C52.3515 13.8306 52.352 13.8306 52.3524 13.8306C52.3529 13.8306 52.3534 13.8306 52.3538 13.8306C52.3543 13.8306 52.3548 13.8306 52.3552 13.8306C52.3557 13.8306 52.3562 13.8306 52.3566 13.8306C52.3571 13.8306 52.3575 13.8306 52.358 13.8306C52.3585 13.8306 52.3589 13.8306 52.3594 13.8306C52.3599 13.8306 52.3603 13.8306 52.3608 13.8306C52.3613 13.8306 52.3617 13.8306 52.3622 13.8306C52.3627 13.8306 52.3631 13.8306 52.3636 13.8306C52.364 13.8306 52.3645 13.8306 52.365 13.8306C52.3654 13.8306 52.3659 13.8306 52.3664 13.8306C52.3668 13.8306 52.3673 13.8306 52.3678 13.8306C52.3682 13.8306 52.3687 13.8306 52.3691 13.8306C52.3696 13.8306 52.3701 13.8306 52.3705 13.8306C52.371 13.8306 52.3715 13.8306 52.3719 13.8306C52.3724 13.8306 52.3729 13.8306 52.3733 13.8306C52.3738 13.8306 52.3742 13.8306 52.3747 13.8306C52.3752 13.8306 52.3756 13.8306 52.3761 13.8306C52.3766 13.8306 52.377 13.8306 52.3775 13.8306C52.378 13.8306 52.3784 13.8306 52.3789 13.8306C52.3793 13.8306 52.3798 13.8306 52.3803 13.8306C52.3807 13.8306 52.3812 13.8306 52.3817 13.8306C52.3821 13.8306 52.3826 13.8306 52.3831 13.8306C52.3835 13.8306 52.384 13.8306 52.3844 13.8306C52.3849 13.8306 52.3854 13.8306 52.3858 13.8306C52.3863 13.8306 52.3868 13.8306 52.3872 13.8306C52.3877 13.8306 52.3882 13.8306 52.3886 13.8306C52.3891 13.8306 52.3895 13.8306 52.39 13.8306C52.3905 13.8306 52.3909 13.8306 52.3914 13.8306C52.3919 13.8306 52.3923 13.8306 52.3928 13.8306C52.3933 13.8306 52.3937 13.8306 52.3942 13.8306C52.3946 13.8306 52.3951 13.8306 52.3956 13.8306C52.396 13.8306 52.3965 13.8306 52.397 13.8306C52.3974 13.8306 52.3979 13.8306 52.3984 13.8306C52.3988 13.8306 52.3993 13.8306 52.3997 13.8306C52.4002 13.8306 52.4007 13.8306 52.4011 13.8306C52.4016 13.8306 52.4021 13.8306 52.4025 13.8306C52.403 13.8306 52.4035 13.8306 52.4039 13.8306C52.4044 13.8306 52.4048 13.8306 52.4053 13.8306C52.4058 13.8306 52.4062 13.8306 52.4067 13.8306C52.4072 13.8306 52.4076 13.8306 52.4081 13.8306C52.4086 13.8306 52.409 13.8306 52.4095 13.8306C52.4099 13.8306 52.4104 13.8306 52.4109 13.8306C52.4113 13.8306 52.4118 13.8306 52.4123 13.8306C52.4127 13.8306 52.4132 13.8306 52.4137 13.8306C52.4141 13.8306 52.4146 13.8306 52.415 13.8306C52.4155 13.8306 52.416 13.8306 52.4164 13.8306C52.4169 13.8306 52.4174 13.8306 52.4178 13.8306C52.4183 13.8306 52.4188 13.8306 52.4192 13.8306C52.4197 13.8306 52.4201 13.8306 52.4206 13.8306C52.4211 13.8306 52.4215 13.8306 52.422 13.8306C52.4225 13.8306 52.4229 13.8306 52.4234 13.8306C52.4239 13.8306 52.4243 13.8306 52.4248 13.8306C52.4252 13.8306 52.4257 13.8306 52.4262 13.8306C52.4266 13.8306 52.4271 13.8306 52.4276 13.8306C52.428 13.8306 52.4285 13.8306 52.429 13.8306C52.4294 13.8306 52.4299 13.8306 52.4303 13.8306C52.4308 13.8306 52.4313 13.8306 52.4317 13.8306C52.4322 13.8306 52.4327 13.8306 52.4331 13.8306C52.4336 13.8306 52.4341 13.8306 52.4345 13.8306C52.435 13.8306 52.4354 13.8306 52.4359 13.8306C52.4364 13.8306 52.4368 13.8306 52.4373 13.8306C52.4378 13.8306 52.4382 13.8306 52.4387 13.8306C52.4392 13.8306 52.4396 13.8306 52.4401 13.8306C52.4405 13.8306 52.441 13.8306 52.4415 13.8306C52.4419 13.8306 52.4424 13.8306 52.4429 13.8306C52.4433 13.8306 52.4438 13.8306 52.4443 13.8306C52.4447 13.8306 52.4452 13.8306 52.4456 13.8306C52.4461 13.8306 52.4466 13.8306 52.447 13.8306C52.4475 13.8306 52.448 13.8306 52.4484 13.8306C52.4489 13.8306 52.4494 13.8306 52.4498 13.8306C52.4503 13.8306 52.4507 13.8306 52.4512 13.8306C52.4517 13.8306 52.4521 13.8306 52.4526 13.8306C52.4531 13.8306 52.4535 13.8306 52.454 13.8306C52.4545 13.8306 52.4549 13.8306 52.4554 13.8306C52.4558 13.8306 52.4563 13.8306 52.4568 13.8306C52.4572 13.8306 52.4577 13.8306 52.4582 13.8306C52.4586 13.8306 52.4591 13.8306 52.4596 13.8306C52.46 13.8306 52.4605 13.8306 52.4609 13.8306C52.4614 13.8306 52.4619 13.8306 52.4623 13.8306C52.4628 13.8306 52.4633 13.8306 52.4637 13.8306C52.4642 13.8306 52.4647 13.8306 52.4651 13.8306C52.4656 13.8306 52.466 13.8306 52.4665 13.8306C52.467 13.8306 52.4674 13.8306 52.4679 13.8306C52.4684 13.8306 52.4688 13.8306 52.4693 13.8306C52.4698 13.8306 52.4702 13.8306 52.4707 13.8306C52.4711 13.8306 52.4716 13.8306 52.4721 13.8306C52.4725 13.8306 52.473 13.8306 52.4735 13.8306C52.4739 13.8306 52.4744 13.8306 52.4749 13.8306C52.4753 13.8306 52.4758 13.8306 52.4762 13.8306C52.4767 13.8306 52.4772 13.8306 52.4776 13.8306C52.4781 13.8306 52.4786 13.8306 52.479 13.8306C52.4795 13.8306 52.48 13.8306 52.4804 13.8306C52.4809 13.8306 52.4813 13.8306 52.4818 13.8306C52.4823 13.8306 52.4827 13.8306 52.4832 13.8306C52.4837 13.8306 52.4841 13.8306 52.4846 13.8306C52.4851 13.8306 52.4855 13.8306 52.486 13.8306C52.4864 13.8306 52.4869 13.8306 52.4874 13.8306C52.4878 13.8306 52.4883 13.8306 52.4888 13.8306C52.4892 13.8306 52.4897 13.8306 52.4902 13.8306C52.4906 13.8306 52.4911 13.8306 52.4915 13.8306C52.492 13.8306 52.4925 13.8306 52.4929 13.8306C52.4934 13.8306 52.4939 13.8306 52.4943 13.8306C52.4948 13.8306 52.4953 13.8306 52.4957 13.8306C52.4962 13.8306 52.4966 13.8306 52.4971 13.8306C52.4976 13.8306 52.498 13.8306 52.4985 13.8306C52.499 13.8306 52.4994 13.8306 52.4999 13.8306C52.5004 13.8306 52.5008 13.8306 52.5013 13.8306C52.5017 13.8306 52.5022 13.8306 52.5027 13.8306C52.5031 13.8306 52.5036 13.8306 52.5041 13.8306C52.5045 13.8306 52.505 13.8306 52.5055 13.8306C52.5059 13.8306 52.5064 13.8306 52.5068 13.8306C52.5073 13.8306 52.5078 13.8306 52.5082 13.8306C52.5087 13.8306 52.5092 13.8306 52.5096 13.8306C52.5101 13.8306 52.5106 13.8306 52.511 13.8306C52.5115 13.8306 52.5119 13.8306 52.5124 13.8306C52.5129 13.8306 52.5133 13.8306 52.5138 13.8306C52.5143 13.8306 52.5147 13.8306 52.5152 13.8306C52.5157 13.8306 52.5161 13.8306 52.5166 13.8306C52.517 13.8306 52.5175 13.8306 52.518 13.8306C52.5184 13.8306 52.5189 13.8306 52.5194 13.8306C52.5198 13.8306 52.5203 13.8306 52.5208 13.8306C52.5212 13.8306 52.5217 13.8306 52.5221 13.8306C52.5226 13.8306 52.5231 13.8306 52.5235 13.8306C52.524 13.8306 52.5245 13.8306 52.5249 13.8306C52.5254 13.8306 52.5259 13.8306 52.5263 13.8306C52.5268 13.8306 52.5272 13.8306 52.5277 13.8306C52.5282 13.8306 52.5286 13.8306 52.5291 13.8306C52.5296 13.8306 52.53 13.8306 52.5305 13.8306C52.531 13.8306 52.5314 13.8306 52.5319 13.8306C52.5323 13.8306 52.5328 13.8306 52.5333 13.8306C52.5337 13.8306 52.5342 13.8306 52.5347 13.8306C52.5351 13.8306 52.5356 13.8306 52.5361 13.8306C52.5365 13.8306 52.537 13.8306 52.5374 13.8306C52.5379 13.8306 52.5384 13.8306 52.5388 13.8306C52.5393 13.8306 52.5398 13.8306 52.5402 13.8306C52.5407 13.8306 52.5412 13.8306 52.5416 13.8306C52.5421 13.8306 52.5425 13.8306 52.543 13.8306C52.5435 13.8306 52.5439 13.8306 52.5444 13.8306C52.5449 13.8306 52.5453 13.8306 52.5458 13.8306C52.5463 13.8306 52.5467 13.8306 52.5472 13.8306C52.5476 13.8306 52.5481 13.8306 52.5486 13.8306C52.549 13.8306 52.5495 13.8306 52.55 13.8306C52.5504 13.8306 52.5509 13.8306 52.5514 13.8306C52.5518 13.8306 52.5523 13.8306 52.5527 13.8306C52.5532 13.8306 52.5537 13.8306 52.5541 13.8306C52.5546 13.8306 52.5551 13.8306 52.5555 13.8306V3.83057ZM51.4954 3.84269C43.0862 4.42938 36.6669 11.7348 37.2549 20.2014L47.2309 19.5087C47.0276 16.5814 49.2593 14.023 52.1913 13.8184L51.4954 3.84269ZM37.2564 20.2217C37.4477 22.824 38.2925 25.4701 39.8807 27.7505L48.0868 22.0356C47.6177 21.3621 47.3018 20.4731 47.2294 19.4884L37.2564 20.2217ZM39.8876 27.7604C40.9549 29.2851 42.7367 30.3148 44.7749 30.3148V20.3148C46.1802 20.3148 47.3818 21.0285 48.0799 22.0257L39.8876 27.7604ZM44.7749 30.3148H44.854V20.3148H44.7749V30.3148ZM46.5191 30.0294L46.9676 29.871L43.6373 20.4418L43.1888 20.6002L46.5191 30.0294ZM48.1351 29.2766C50.6407 27.554 51.7441 23.8032 49.5397 20.8641L41.5397 26.8641C39.9684 24.7689 40.8082 22.1786 42.4698 21.0362L48.1351 29.2766ZM49.7136 21.1111C49.3455 20.553 49.1444 19.9487 49.1029 19.3675L39.1283 20.0799C39.2977 22.4526 40.0988 24.696 41.3659 26.617L49.7136 21.1111ZM49.1034 19.3757C49.0388 18.4498 49.3261 17.5784 49.9608 16.8417L42.3847 10.3146C40.0654 13.0066 38.8758 16.4612 39.1277 20.0717L49.1034 19.3757ZM49.9356 16.8707C50.5491 16.1695 51.3832 15.7555 52.301 15.6907L51.5969 5.71548C48.031 5.96719 44.7503 7.6108 42.4098 10.2856L49.9356 16.8707ZM51.949 15.7031H52.5291V5.70307H51.949V15.7031ZM52.5866 15.7027C53.4975 15.6923 54.3332 16.0325 55.0049 16.7152L62.1332 9.70188C59.5872 7.11411 56.15 5.66112 52.4717 5.7034L52.5866 15.7027ZM54.9429 16.6511C55.9607 17.7232 56.7025 19.2577 56.8777 21.8069L66.8541 21.1215C66.5545 16.7605 65.1336 12.8611 62.1952 9.76601L54.9429 16.6511ZM56.8665 21.3879C56.8211 24.3582 56.3885 26.0192 55.8539 27.2256C55.2725 28.5376 54.44 29.6486 52.8947 31.6177L60.7617 37.7911C62.1968 35.9623 63.8304 33.9082 64.9964 31.2771C66.2091 28.5405 66.8052 25.4804 66.8653 21.5405L56.8665 21.3879ZM52.8611 31.6611C51.3929 33.575 49.5064 35.987 47.5482 39.4359L56.2442 44.3734C57.8201 41.5979 59.3096 39.6845 60.7954 37.7477L52.8611 31.6611ZM47.7191 39.1566C47.9621 38.7872 48.3414 38.6209 48.6168 38.603L49.2676 48.5818C51.9694 48.4056 54.5115 47.0266 56.0732 44.6527L47.7191 39.1566ZM48.9422 38.5924H48.6785V48.5924H48.9422V38.5924ZM48.6785 38.5924C49.2402 38.5924 49.7754 39.0397 49.8171 39.6818L39.8381 40.3297C40.1435 45.0335 44.0551 48.5924 48.6785 48.5924V38.5924ZM49.8199 39.7284C49.6451 36.5827 47.0115 34.1352 43.9045 34.1352V44.1352C41.747 44.1352 39.9573 42.4793 39.8353 40.2831L49.8199 39.7284ZM43.9045 34.1352H43.8253V44.1352H43.9045V34.1352ZM43.2732 34.1658C42.0314 34.3037 40.5324 34.8723 39.3961 36.198L46.9886 42.7059C46.1688 43.6624 45.1444 44.0194 44.3775 44.1046L43.2732 34.1658ZM39.1923 36.452C38.4207 37.4809 37.9551 38.7606 37.9551 40.1378H47.9551C47.9551 41.0402 47.6475 41.8451 47.1923 42.452L39.1923 36.452ZM37.9678 40.494C38.1614 43.2054 39.3421 45.7439 41.3761 47.6291L48.1738 40.2948C48.045 40.1755 47.9597 40.0241 47.9424 39.7815L37.9678 40.494ZM41.4251 47.6739C43.3772 49.4356 45.9272 50.4913 48.6785 50.4913V40.4913C48.5286 40.4913 48.3354 40.4401 48.1248 40.25L41.4251 47.6739ZM48.6785 50.4913H49.0739V40.4913H48.6785V50.4913ZM49.4405 50.4778C52.7864 50.2318 55.8148 48.4501 57.6461 45.6289L49.2583 40.1842C49.1378 40.3698 48.9484 40.487 48.7072 40.5047L49.4405 50.4778ZM58.4522 42.9066V42.8538H48.4522V42.9066H58.4522ZM57.7957 45.3304C59.3216 42.6542 60.767 40.7831 62.205 38.9267L54.2995 32.8027C52.8363 34.6916 51.0115 37.0399 49.1086 40.3772L57.7957 45.3304ZM62.2075 38.9235C63.6604 37.0447 65.4147 34.8446 66.655 32.0196L57.4986 27.9997C56.8399 29.5 55.9036 30.7285 54.297 32.806L62.2075 38.9235ZM66.6374 32.0593C68.0576 28.8993 68.6257 25.4554 68.685 21.5399L58.6862 21.3884C58.64 24.4359 58.206 26.4252 57.5162 27.9599L66.6374 32.0593ZM68.6856 21.4642V21.385H58.6856V21.4642H68.6856ZM68.6745 21.0524C68.3483 16.1585 66.754 11.8886 63.4746 8.4601L56.2482 15.3723C57.6107 16.7968 58.4954 18.6991 58.6967 21.7176L68.6745 21.0524ZM57.6144 16.3829L57.6669 16.4093L62.1609 7.47597L62.1084 7.44957L57.6144 16.3829Z" fill="white" mask="url(#path-9-inside-5_7287_19747)"/>
<path d="M45.3254 32.7068C45.3254 32.7066 45.3275 32.7044 45.3318 32.7003C45.3275 32.7048 45.3254 32.7069 45.3254 32.7068Z" fill="white" stroke="white" stroke-width="5" stroke-linejoin="round"/>
</svg>
