<svg width="58" height="58" viewBox="0 0 58 58" fill="none" xmlns="http://www.w3.org/2000/svg">
<g id="Live Chat" clip-path="url(#clip0_5558_129953)">
<path id="Vector" d="M50.1696 30.2464V26.8317C50.1696 21.108 47.9044 15.6188 43.8724 11.5715C39.8404 7.52422 34.3719 5.25049 28.6698 5.25049C22.9677 5.25049 17.4991 7.52422 13.4671 11.5715C9.43512 15.6188 7.16997 21.108 7.16997 26.8317V30.2464C4.66443 31.3538 2.61392 33.2916 1.36173 35.7354C0.109536 38.1791 -0.268339 40.9805 0.291364 43.6705C0.851068 46.3605 2.31438 48.7759 4.43632 50.5122C6.55826 52.2486 9.21003 53.2006 11.9477 53.2088C13.2148 53.2088 14.4301 52.7035 15.3261 51.8042C16.2221 50.9048 16.7254 49.6849 16.7254 48.413V34.0255C16.7254 32.7536 16.2221 31.5337 15.3261 30.6343C14.4301 29.7349 13.2148 29.2297 11.9477 29.2297V26.8317C11.9477 22.38 13.7095 18.1105 16.8455 14.9627C19.9815 11.8148 24.2348 10.0463 28.6698 10.0463C33.1048 10.0463 37.3581 11.8148 40.4941 14.9627C43.6301 18.1105 45.3919 22.38 45.3919 26.8317V29.2297C44.1247 29.2297 42.9095 29.7349 42.0135 30.6343C41.1175 31.5337 40.6141 32.7536 40.6141 34.0255V48.413C40.6141 49.6849 41.1175 50.9048 42.0135 51.8042C42.9095 52.7035 44.1247 53.2088 45.3919 53.2088C48.1295 53.2006 50.7813 52.2486 52.9032 50.5122C55.0252 48.7759 56.4885 46.3605 57.0482 43.6705C57.6079 40.9805 57.23 38.1791 55.9778 35.7354C54.7256 33.2916 52.6751 31.3538 50.1696 30.2464ZM11.9477 48.413C10.047 48.413 8.22415 47.6551 6.88015 46.306C5.53615 44.9569 4.7811 43.1271 4.7811 41.2192C4.7811 39.3113 5.53615 37.4816 6.88015 36.1325C8.22415 34.7834 10.047 34.0255 11.9477 34.0255V48.413ZM45.3919 48.413V34.0255C47.2926 34.0255 49.1154 34.7834 50.4594 36.1325C51.8034 37.4816 52.5585 39.3113 52.5585 41.2192C52.5585 43.1271 51.8034 44.9569 50.4594 46.306C49.1154 47.6551 47.2926 48.413 45.3919 48.413Z" fill="#F05C5C"/>
</g>
<defs>
<clipPath id="clip0_5558_129953">
<rect width="57.3328" height="57.55" fill="white" transform="translate(0 0.45459)"/>
</clipPath>
</defs>
</svg>
