<svg width="25" height="24" viewBox="0 0 25 24" fill="none" xmlns="http://www.w3.org/2000/svg">
<g id="Location" clip-path="url(#clip0_5374_202249)">
<path id="Vector" d="M12.1405 6C11.3448 6 10.5669 6.2346 9.90527 6.67412C9.24364 7.11365 8.72796 7.73836 8.42345 8.46927C8.11893 9.20017 8.03926 10.0044 8.1945 10.7804C8.34974 11.5563 8.73292 12.269 9.29559 12.8284C9.85827 13.3878 10.5752 13.7688 11.3556 13.9231C12.136 14.0775 12.945 13.9983 13.6802 13.6955C14.4153 13.3928 15.0437 12.8801 15.4858 12.2223C15.9279 11.5645 16.1638 10.7911 16.1638 10C16.1638 8.93913 15.74 7.92172 14.9854 7.17157C14.2309 6.42143 13.2076 6 12.1405 6ZM12.1405 12C11.7426 12 11.3537 11.8827 11.0229 11.6629C10.6921 11.4432 10.4342 11.1308 10.282 10.7654C10.1297 10.3999 10.0899 9.99778 10.1675 9.60982C10.2451 9.22186 10.4367 8.86549 10.7181 8.58579C10.9994 8.30608 11.3578 8.1156 11.7481 8.03843C12.1383 7.96126 12.5428 8.00087 12.9103 8.15224C13.2779 8.30362 13.5921 8.55996 13.8131 8.88886C14.0342 9.21776 14.1522 9.60444 14.1522 10C14.1522 10.5304 13.9402 11.0391 13.563 11.4142C13.1857 11.7893 12.674 12 12.1405 12Z" fill="#F05C5C"/>
<path id="Vector_2" d="M12.141 24.0001C11.294 24.0044 10.4583 23.8069 9.70391 23.4241C8.94949 23.0413 8.29829 22.4844 7.80484 21.8C3.97161 16.543 2.02734 12.591 2.02734 10.053C2.02734 7.3863 3.09288 4.82877 4.98956 2.94309C6.88623 1.05741 9.45867 -0.00195312 12.141 -0.00195312C14.8233 -0.00195312 17.3957 1.05741 19.2924 2.94309C21.1891 4.82877 22.2546 7.3863 22.2546 10.053C22.2546 12.591 20.3103 16.543 16.4771 21.8C15.9837 22.4844 15.3325 23.0413 14.578 23.4241C13.8236 23.8069 12.9879 24.0044 12.141 24.0001ZM12.141 2.18105C10.0412 2.18343 8.02815 3.01377 6.5434 4.48992C5.05864 5.96606 4.22346 7.96746 4.22106 10.055C4.22106 12.065 6.1251 15.782 9.58113 20.521C9.87453 20.9228 10.2594 21.2498 10.7044 21.4753C11.1493 21.7008 11.6416 21.8183 12.141 21.8183C12.6404 21.8183 13.1327 21.7008 13.5776 21.4753C14.0225 21.2498 14.4074 20.9228 14.7008 20.521C18.1568 15.782 20.0609 12.065 20.0609 10.055C20.0585 7.96746 19.2233 5.96606 17.7386 4.48992C16.2538 3.01377 14.2407 2.18343 12.141 2.18105Z" fill="#F05C5C"/>
</g>
<defs>
<clipPath id="clip0_5374_202249">
<rect width="24.1399" height="24" fill="white" transform="translate(0.0703125)"/>
</clipPath>
</defs>
</svg>
