<svg width="108" height="53" viewBox="0 0 108 53" fill="none" xmlns="http://www.w3.org/2000/svg">
<path d="M15.9362 20.5545C21.1129 25.5282 24.784 29.267 26.9495 31.7708C28.066 33.0227 28.6243 34.0885 28.6243 34.9682C28.6243 35.814 27.9475 36.8291 26.5942 38.0133C25.2407 39.1637 24.1242 39.7389 23.2446 39.7389C22.3987 39.7389 21.3667 39.0284 20.1487 37.6073L8.9831 24.8685V34.7651C8.9831 35.5772 8.94928 36.1693 8.88164 36.5415C8.84782 36.9137 8.69554 37.3535 8.42489 37.861C7.95114 38.7746 6.63162 39.2314 4.46619 39.2314C2.09775 39.2314 0.710527 38.5885 0.304506 37.3028C0.101496 36.7614 0 35.8987 0 34.7144V6.49616C0 5.71794 0.0169096 5.14282 0.0507478 4.77062C0.118415 4.3646 0.287587 3.90785 0.558274 3.40027C1.03196 2.48677 2.35152 2.02993 4.51695 2.02993C6.88539 2.02993 8.28952 2.65596 8.72936 3.90785C8.89855 4.48296 8.9831 5.36274 8.9831 6.54689V16.2406C13.5847 11.0638 17.3065 6.81763 20.1487 3.50182C21.3328 2.11457 22.3648 1.4209 23.2446 1.4209C24.1242 1.4209 25.2407 2.01302 26.5942 3.19726C27.9475 4.34769 28.6243 5.36274 28.6243 6.24242C28.6243 7.08828 28.1167 8.10333 27.1017 9.28757C25.1393 11.5545 22.0941 14.6673 17.9663 18.626L15.9362 20.5545Z" fill="#00946C"/>
<path d="M30.1602 16.9512C30.1602 16.173 30.1771 15.5978 30.2109 15.2257C30.2786 14.8197 30.4308 14.3628 30.6676 13.8553C31.1414 12.9757 32.4609 12.5357 34.6264 12.5357C36.2505 12.5357 37.4008 12.8234 38.0775 13.3986C38.6527 13.8723 38.9572 14.5997 38.9911 15.5809C39.0249 15.9193 39.0418 16.4098 39.0418 17.0527V34.816C39.0418 35.5942 39.008 36.1863 38.9403 36.5923C38.9064 36.9645 38.7542 37.4044 38.4835 37.9119C38.0436 38.7916 36.741 39.2315 34.5756 39.2315C32.444 39.2315 31.1414 38.7747 30.6676 37.8611C30.4308 37.3536 30.2786 36.9138 30.2109 36.5416C30.1771 36.1694 30.1602 35.5773 30.1602 34.7652V16.9512ZM38.4835 7.56202C38.2467 8.03577 37.8068 8.37406 37.164 8.57707C36.5211 8.78008 35.6583 8.88163 34.5756 8.88163C33.5267 8.88163 32.6808 8.78008 32.038 8.57707C31.3951 8.37406 30.9384 8.01886 30.6676 7.51129C30.4308 7.00381 30.2786 6.56388 30.2109 6.19177C30.1771 5.78575 30.1602 5.19363 30.1602 4.41541C30.1602 3.63718 30.1771 3.06197 30.2109 2.68986C30.2786 2.28384 30.4308 1.844 30.6676 1.37025C31.1414 0.45675 32.4609 0 34.6264 0C36.7579 0 38.0436 0.45675 38.4835 1.37025C38.7542 1.87782 38.9064 2.33457 38.9403 2.74059C39.008 3.11279 39.0418 3.68801 39.0418 4.46613C39.0418 5.24436 39.008 5.83648 38.9403 6.2425C38.9064 6.6147 38.7542 7.05454 38.4835 7.56202Z" fill="#F68B1F"/>
<path d="M56.9397 12.4849C60.3232 12.4849 63.1315 13.7876 65.3646 16.3928C67.6315 18.9643 68.765 22.1109 68.765 25.8327V34.7651C68.765 35.5433 68.7311 36.1354 68.6635 36.5415C68.6296 36.9137 68.4943 37.3366 68.2575 37.8102C67.7837 38.7238 66.4642 39.1806 64.2987 39.1806C61.8965 39.1806 60.5093 38.5546 60.1371 37.3028C59.9341 36.7276 59.8326 35.8648 59.8326 34.7144V25.782C59.8326 24.3947 59.4266 23.3121 58.6145 22.5338C57.8363 21.7556 56.7705 21.3665 55.4171 21.3665C54.0976 21.3665 53.0149 21.7725 52.169 22.5846C51.357 23.3966 50.951 24.4624 50.951 25.782V34.7651C50.951 35.5433 50.9171 36.1354 50.8494 36.5415C50.8156 36.9137 50.6633 37.3366 50.3927 37.8102C49.9528 38.7238 48.6502 39.1806 46.4847 39.1806C44.3532 39.1806 43.0505 38.7238 42.5768 37.8102C42.34 37.3028 42.1877 36.8629 42.1201 36.4907C42.0862 36.0847 42.0693 35.4926 42.0693 34.7144V16.7481C42.0693 16.0037 42.0862 15.4455 42.1201 15.0733C42.1877 14.6672 42.3569 14.2274 42.6275 13.7537C43.1013 12.9078 44.4039 12.4849 46.5355 12.4849C48.5994 12.4849 49.8682 12.874 50.3419 13.6522C50.6802 14.2274 50.8494 14.921 50.8494 15.733C50.9848 15.4962 51.2893 15.1578 51.763 14.718C52.2367 14.2781 52.6934 13.9228 53.1333 13.6522C54.2837 12.874 55.5525 12.4849 56.9397 12.4849Z" fill="#F05455"/>
<path d="M88.7083 1.37025C88.9789 0.86277 89.4357 0.507479 90.0785 0.304469C90.7214 0.101459 91.5671 0 92.6162 0C93.699 0 94.5613 0.101459 95.205 0.304469C95.8477 0.507479 96.2868 0.86277 96.5241 1.37025C96.7951 1.87782 96.9473 2.33457 96.981 2.74059C97.0482 3.11279 97.0828 3.68801 97.0828 4.46613V34.7652C97.0828 35.5434 97.0482 36.1356 96.981 36.5416C96.9473 36.9138 96.7951 37.3367 96.5241 37.8104C96.0168 38.724 94.579 39.1807 92.2098 39.1807C89.8755 39.1807 88.5729 38.3518 88.3023 36.6939C86.8812 38.318 84.9018 39.13 82.3642 39.13C79.3191 39.13 76.5447 37.8104 74.0409 35.1712C71.537 32.4983 70.2852 29.4024 70.2852 25.8836C70.2852 22.331 71.537 19.2182 74.0409 16.5452C76.5785 13.8723 79.3529 12.5357 82.3642 12.5357C84.868 12.5357 86.8136 13.3817 88.2007 15.0734V4.41541C88.2007 3.63718 88.2176 3.06197 88.2514 2.68986C88.3192 2.28384 88.4714 1.844 88.7083 1.37025ZM80.4864 28.9287C81.3661 29.8422 82.4319 30.2991 83.6838 30.2991C84.9356 30.2991 85.9676 29.8422 86.7796 28.9287C87.6255 28.0152 88.0485 27.0171 88.0485 25.9343C88.0485 24.8178 87.6425 23.7858 86.8305 22.8384C86.0522 21.8911 84.9865 21.4175 83.633 21.4175C82.2797 21.4175 81.1969 21.8911 80.3849 22.8384C79.5728 23.752 79.1668 24.7671 79.1668 25.8836C79.1668 27.0002 79.6067 28.0152 80.4864 28.9287Z" fill="#0097CB"/>
<path d="M99.1182 16.9512C99.1182 16.173 99.135 15.5978 99.1686 15.2257C99.2368 14.8197 99.3891 14.3628 99.6255 13.8553C100.099 12.9757 101.419 12.5357 103.585 12.5357C105.208 12.5357 106.359 12.8234 107.036 13.3986C107.61 13.8723 107.915 14.5997 107.949 15.5809C107.983 15.9193 108 16.4098 108 17.0527V34.816C108 35.5942 107.966 36.1863 107.898 36.5923C107.865 36.9645 107.712 37.4044 107.441 37.9119C107.001 38.7916 105.699 39.2315 103.533 39.2315C101.402 39.2315 100.099 38.7747 99.6255 37.8611C99.3891 37.3536 99.2368 36.9138 99.1686 36.5416C99.135 36.1694 99.1182 35.5773 99.1182 34.7652V16.9512ZM107.441 7.56202C107.205 8.03577 106.765 8.37406 106.122 8.57707C105.479 8.78008 104.616 8.88163 103.533 8.88163C102.484 8.88163 101.639 8.78008 100.996 8.57707C100.353 8.37406 99.8964 8.01886 99.6255 7.51129C99.3891 7.00381 99.2368 6.56388 99.1686 6.19177C99.135 5.78575 99.1182 5.19363 99.1182 4.41541C99.1182 3.63718 99.135 3.06197 99.1686 2.68986C99.2368 2.28384 99.3891 1.844 99.6255 1.37025C100.099 0.45675 101.419 0 103.585 0C105.716 0 107.001 0.45675 107.441 1.37025C107.712 1.87782 107.865 2.33457 107.898 2.74059C107.966 3.11279 108 3.68801 108 4.46613C108 5.24436 107.966 5.83648 107.898 6.2425C107.865 6.6147 107.712 7.05454 107.441 7.56202Z" fill="#BE1A8D"/>
<path d="M4.91259 45.4641C5.06999 45.785 5.14869 46.1421 5.14869 46.5356C5.14869 46.9291 5.06999 47.2863 4.91259 47.6071C4.75519 47.9219 4.55239 48.1731 4.30419 48.3608C3.80174 48.7482 3.28112 48.942 2.74234 48.942H1.60726V49.9681C1.60726 50.1073 1.60121 50.2132 1.5891 50.2859C1.58304 50.3525 1.5558 50.4312 1.50738 50.522C1.42263 50.6854 1.18653 50.7672 0.799089 50.7672C0.375337 50.7672 0.127135 50.6552 0.0544836 50.4312C0.0181674 50.3282 0 50.1709 0 49.959V44.9193C0 44.78 0.00303399 44.6771 0.00908358 44.6105C0.0211921 44.5379 0.0514589 44.4562 0.0998931 44.3654C0.184644 44.2019 0.420737 44.1202 0.808173 44.1202H2.75141C3.28414 44.1202 3.80174 44.3139 4.30419 44.7014C4.55239 44.889 4.75519 45.1433 4.91259 45.4641ZM2.75141 47.3347C2.93303 47.3347 3.11162 47.2681 3.28717 47.135C3.46273 47.0018 3.55051 46.802 3.55051 46.5356C3.55051 46.2693 3.46273 46.0695 3.28717 45.9363C3.11162 45.797 2.93 45.7275 2.74234 45.7275H1.60726V47.3347H2.75141ZM5.73744 44.5379C5.73744 44.3987 5.74046 44.2958 5.74651 44.2292C5.75862 44.1565 5.78586 44.0748 5.82824 43.9839C5.91299 43.8205 6.14909 43.7388 6.53653 43.7388C6.9058 43.7388 7.13584 43.8205 7.22665 43.9839C7.27507 44.0748 7.30235 44.1565 7.30835 44.2292C7.32052 44.3018 7.32651 44.4078 7.32651 44.5469V48.7513C7.32651 48.9692 7.34468 49.1085 7.38102 49.169C7.41735 49.2235 7.49601 49.2507 7.6171 49.2507C7.74427 49.2507 7.82902 49.2567 7.87135 49.2689C7.91377 49.2749 7.96518 49.2991 8.02577 49.3415C8.14677 49.4202 8.20736 49.6351 8.20736 49.9862C8.20736 50.3677 8.14677 50.6007 8.02577 50.6854C7.86835 50.7944 7.49302 50.8126 6.89974 50.7399C6.43361 50.6794 6.13092 50.525 5.99169 50.2768C5.82219 49.9801 5.73744 49.508 5.73744 48.8602V44.5379ZM11.8137 46.4993C11.85 46.1603 12.0891 45.9908 12.531 45.9908C12.7671 45.9908 12.9427 46.009 13.0577 46.0453C13.1727 46.0816 13.2515 46.1451 13.2938 46.236C13.3422 46.3268 13.3695 46.4085 13.3755 46.4811C13.3876 46.5477 13.3937 46.6506 13.3937 46.7899V49.9681C13.3937 50.1073 13.3876 50.2132 13.3755 50.2859C13.3695 50.3525 13.3453 50.4312 13.3029 50.522C13.2181 50.6794 13.0093 50.7581 12.6764 50.7581C12.3495 50.7581 12.1284 50.7187 12.0134 50.6401C11.9044 50.5553 11.8409 50.4342 11.8228 50.2768C11.5988 50.5977 11.2234 50.7581 10.6968 50.7581C10.1762 50.7581 9.69185 50.519 9.24384 50.0407C8.79593 49.5625 8.57192 49.0086 8.57192 48.379C8.57192 47.7433 8.79593 47.1895 9.24384 46.7172C9.69793 46.239 10.1944 45.9999 10.7331 45.9999C10.9389 45.9999 11.1266 46.0362 11.2961 46.1089C11.4656 46.1815 11.5836 46.2511 11.6502 46.3177C11.7169 46.3782 11.7713 46.4388 11.8137 46.4993ZM10.161 48.3881C10.161 48.5878 10.2397 48.7695 10.3971 48.9329C10.5545 49.0903 10.7452 49.169 10.9692 49.169C11.1932 49.169 11.3778 49.0872 11.5231 48.9238C11.6744 48.7604 11.7501 48.5818 11.7501 48.3881C11.7501 48.1883 11.6774 48.0036 11.5322 47.8341C11.3929 47.6646 11.2023 47.5799 10.9601 47.5799C10.724 47.5799 10.5303 47.6646 10.3789 47.8341C10.2337 48.0036 10.161 48.1883 10.161 48.3881ZM18.3896 46.0453C18.7468 46.2027 18.9253 46.3934 18.9253 46.6174C18.9253 46.7263 18.9011 46.8292 18.8527 46.926C18.8043 47.023 18.78 47.0744 18.78 47.0805L16.4009 52.4017C16.3525 52.5167 16.3102 52.6045 16.2738 52.665C16.2436 52.7255 16.1921 52.7831 16.1194 52.8375C16.0468 52.892 15.956 52.9193 15.847 52.9193C15.7381 52.9193 15.5776 52.8738 15.3657 52.7831C15.0086 52.6257 14.83 52.438 14.83 52.2201C14.83 52.0748 15.1206 51.3816 15.7017 50.1406L13.8947 47.0986C13.7736 46.8989 13.713 46.7505 13.713 46.6537C13.713 46.46 13.8766 46.2662 14.2035 46.0725C14.4092 45.9515 14.5697 45.8909 14.6847 45.8909C14.7997 45.8909 14.8936 45.9151 14.9662 45.9635C15.0388 46.012 15.0903 46.0635 15.1206 46.118C15.1569 46.1664 15.3234 46.4479 15.62 46.9624C15.9226 47.4709 16.2102 47.9461 16.4827 48.3881C16.5129 48.2912 16.6764 47.9189 16.973 47.2711C17.2697 46.6174 17.4271 46.2693 17.4452 46.2269C17.4694 46.1845 17.5057 46.133 17.5542 46.0725C17.6328 45.9696 17.7418 45.9181 17.8811 45.9181C18.0263 45.9181 18.1958 45.9605 18.3896 46.0453Z" fill="#30308F"/>
<path d="M24.9735 49.4322H27.4434C27.6432 49.4322 27.7884 49.4565 27.8792 49.5049C27.9701 49.5472 28.0306 49.6169 28.0608 49.7137C28.0911 49.8106 28.1062 49.9407 28.1062 50.1043C28.1062 50.2616 28.0911 50.3887 28.0608 50.4856C28.0306 50.5824 27.9792 50.6491 27.9065 50.6853C27.7915 50.7459 27.6341 50.7762 27.4343 50.7762H24.1653C23.7415 50.7762 23.4933 50.6612 23.4207 50.4311C23.3844 50.3342 23.3662 50.1799 23.3662 49.968V44.9192C23.3662 44.78 23.3692 44.677 23.3753 44.6105C23.3874 44.5378 23.4176 44.4561 23.466 44.3653C23.5508 44.2019 23.787 44.1201 24.1744 44.1201C24.5981 44.1201 24.8494 44.2321 24.9281 44.4561C24.9583 44.559 24.9735 44.7164 24.9735 44.9283V49.4322ZM32.9451 47.8159C32.9451 48.1851 32.8512 48.4607 32.6636 48.6422C32.482 48.8178 32.2791 48.9056 32.0551 48.9056H29.903C29.903 49.0751 30.003 49.2173 30.2027 49.3323C30.4025 49.4474 30.6023 49.5049 30.8021 49.5049C31.1531 49.5049 31.4286 49.4686 31.6284 49.3959L31.7282 49.3596C31.8736 49.293 31.9946 49.2597 32.0915 49.2597C32.2852 49.2597 32.4516 49.3959 32.5909 49.6683C32.6697 49.8318 32.709 49.971 32.709 50.0861C32.709 50.6248 32.0642 50.8943 30.7748 50.8943C30.3268 50.8943 29.9273 50.8186 29.5761 50.6672C29.2311 50.5098 28.9617 50.304 28.768 50.0497C28.3866 49.5594 28.196 49.0115 28.196 48.4062C28.196 47.6434 28.4411 47.035 28.9315 46.581C29.4279 46.1209 30.0453 45.8908 30.7839 45.8908C31.6253 45.8908 32.2428 46.1875 32.6363 46.7807C32.8422 47.0956 32.9451 47.4406 32.9451 47.8159ZM31.0291 48.0792C31.2591 48.0792 31.3741 47.9824 31.3741 47.7886C31.3741 47.6494 31.3196 47.5375 31.2106 47.4527C31.1077 47.368 30.9564 47.3256 30.7566 47.3256C30.5629 47.3256 30.3692 47.4073 30.1755 47.5707C29.9818 47.7281 29.8849 47.8976 29.8849 48.0792H31.0291ZM36.6431 46.4992C36.6793 46.1602 36.9185 45.9907 37.3604 45.9907C37.5965 45.9907 37.7721 46.0089 37.8871 46.0452C38.0021 46.0816 38.0808 46.145 38.1232 46.2359C38.1716 46.3267 38.1989 46.4084 38.2049 46.481C38.217 46.5476 38.2231 46.6506 38.2231 46.7898V49.968C38.2231 50.1072 38.217 50.2132 38.2049 50.2858C38.1989 50.3524 38.1746 50.4311 38.1323 50.5219C38.0475 50.6793 37.8387 50.758 37.5057 50.758C37.1788 50.758 36.9578 50.7187 36.8428 50.64C36.7338 50.5553 36.6703 50.4342 36.6521 50.2767C36.4282 50.5976 36.0528 50.758 35.5262 50.758C35.0055 50.758 34.5212 50.5189 34.0732 50.0407C33.6252 49.5624 33.4013 49.0085 33.4013 48.3789C33.4013 47.7432 33.6252 47.1894 34.0732 46.7171C34.5272 46.2389 35.0237 45.9998 35.5625 45.9998C35.7682 45.9998 35.9559 46.0361 36.1254 46.1088C36.2949 46.1814 36.413 46.2511 36.4796 46.3176C36.5462 46.3781 36.6007 46.4387 36.6431 46.4992ZM34.9904 48.388C34.9904 48.5877 35.0691 48.7694 35.2265 48.9328C35.3839 49.0902 35.5746 49.1689 35.7986 49.1689C36.0226 49.1689 36.2072 49.0872 36.3525 48.9237C36.5038 48.7603 36.5795 48.5817 36.5795 48.388C36.5795 48.1882 36.5068 48.0036 36.3616 47.8341C36.2223 47.6646 36.0316 47.5798 35.7895 47.5798C35.5534 47.5798 35.3597 47.6646 35.2083 47.8341C35.063 48.0036 34.9904 48.1882 34.9904 48.388ZM42.1977 46.0452C42.3127 46.0816 42.4065 46.145 42.4792 46.2359C42.5578 46.3206 42.5972 46.4599 42.5972 46.6536C42.5972 46.8473 42.5397 47.0592 42.4247 47.2892C42.3097 47.5193 42.1432 47.6343 41.9252 47.6343C41.8162 47.6343 41.7103 47.6101 41.6074 47.5616C41.5106 47.5132 41.3804 47.489 41.217 47.489C41.0535 47.489 40.8992 47.5466 40.7538 47.6616C40.6147 47.7766 40.545 47.9158 40.545 48.0792V49.9862C40.545 50.1254 40.5389 50.2313 40.5268 50.304C40.5208 50.3706 40.4936 50.4492 40.4452 50.5401C40.3543 50.6975 40.1182 50.7762 39.7368 50.7762C39.4462 50.7762 39.2374 50.7248 39.1103 50.6218C39.0134 50.5371 38.9589 50.4069 38.9468 50.2313C38.9468 50.1708 38.9468 50.083 38.9468 49.968V46.7807C38.9468 46.6415 38.9498 46.5385 38.9559 46.472C38.968 46.3993 38.9952 46.3206 39.0376 46.2359C39.1224 46.0725 39.3585 45.9907 39.7459 45.9907C40.1092 45.9907 40.3362 46.0603 40.427 46.1995C40.4936 46.2965 40.5268 46.3963 40.5268 46.4992C40.5571 46.4569 40.5995 46.4054 40.654 46.3449C40.7145 46.2843 40.8386 46.2026 41.0262 46.0997C41.2139 45.9968 41.3774 45.9453 41.5167 45.9453C41.6619 45.9453 41.783 45.9544 41.8798 45.9725C41.9767 45.9846 42.0827 46.0089 42.1977 46.0452ZM45.7576 45.9907C46.3629 45.9907 46.8654 46.2238 47.2649 46.6899C47.6705 47.15 47.8733 47.713 47.8733 48.3789V49.9771C47.8733 50.1163 47.8672 50.2222 47.8552 50.2949C47.8491 50.3615 47.8249 50.4372 47.7825 50.5219C47.6977 50.6853 47.4617 50.7671 47.0742 50.7671C46.6444 50.7671 46.3962 50.6551 46.3297 50.4311C46.2933 50.3282 46.2751 50.1738 46.2751 49.968V48.3698C46.2751 48.1216 46.2025 47.9279 46.0572 47.7886C45.918 47.6494 45.7272 47.5798 45.4851 47.5798C45.2491 47.5798 45.0553 47.6525 44.904 47.7977C44.7586 47.9431 44.6861 48.1337 44.6861 48.3698V49.9771C44.6861 50.1163 44.68 50.2222 44.6679 50.2949C44.6618 50.3615 44.6345 50.4372 44.5861 50.5219C44.5075 50.6853 44.2744 50.7671 43.887 50.7671C43.5055 50.7671 43.2725 50.6853 43.1877 50.5219C43.1454 50.4311 43.1181 50.3524 43.106 50.2858C43.1 50.2132 43.097 50.1072 43.097 49.968V46.7535C43.097 46.6203 43.1 46.5204 43.106 46.4538C43.1181 46.3812 43.1484 46.3025 43.1968 46.2177C43.2815 46.0664 43.5146 45.9907 43.896 45.9907C44.2653 45.9907 44.4923 46.0603 44.577 46.1995C44.6376 46.3025 44.6679 46.4265 44.6679 46.5719C44.692 46.5295 44.7466 46.469 44.8313 46.3902C44.9161 46.3115 44.9978 46.248 45.0765 46.1995C45.2823 46.0603 45.5093 45.9907 45.7576 45.9907Z" fill="#30308F"/>
<path d="M55.981 46.7625H57.5792C57.906 46.7746 58.1059 46.8593 58.1784 47.0167C58.239 47.1317 58.2693 47.3012 58.2693 47.5252V49.523C58.2693 49.7167 58.1845 49.9013 58.015 50.0769C57.5065 50.6036 56.7438 50.8669 55.7268 50.8669C54.8247 50.8669 54.0407 50.5279 53.3748 49.8499C52.709 49.1658 52.376 48.3425 52.376 47.38C52.376 46.4174 52.715 45.6153 53.393 44.9736C54.071 44.3259 54.8701 44.002 55.7902 44.002C56.5046 44.002 57.1796 44.2381 57.8153 44.7103C57.9787 44.8314 58.0604 44.9675 58.0604 45.1189C58.0604 45.2642 57.9908 45.4337 57.8516 45.6274C57.6155 45.9482 57.4006 46.1087 57.2068 46.1087C57.0918 46.1087 56.9072 46.027 56.6529 45.8635C56.3987 45.694 56.096 45.6092 55.7449 45.6092C55.2848 45.6092 54.8762 45.7727 54.519 46.0996C54.1618 46.4205 53.9832 46.8442 53.9832 47.3709C53.9832 47.8915 54.1648 48.3365 54.5281 48.7057C54.8913 49.0689 55.303 49.2506 55.763 49.2506C56.096 49.2506 56.3957 49.1961 56.662 49.0871V48.0973H55.9447C55.757 48.0973 55.6238 48.0732 55.5451 48.0246C55.4664 47.9762 55.4149 47.9067 55.3908 47.8158C55.3665 47.719 55.3544 47.5918 55.3544 47.4345C55.3544 47.271 55.3665 47.1408 55.3908 47.044C55.421 46.9471 55.4725 46.8806 55.5451 46.8442C55.6541 46.7897 55.7993 46.7625 55.981 46.7625ZM62.2453 46.0451C62.3604 46.0815 62.4543 46.145 62.5268 46.2358C62.6056 46.3206 62.6449 46.4598 62.6449 46.6536C62.6449 46.8472 62.5874 47.0591 62.4723 47.2891C62.3573 47.5192 62.1909 47.6342 61.9729 47.6342C61.864 47.6342 61.758 47.61 61.6552 47.5616C61.5582 47.5131 61.4281 47.4889 61.2647 47.4889C61.1012 47.4889 60.9468 47.5465 60.8016 47.6615C60.6623 47.7765 60.5926 47.9157 60.5926 48.0792V49.9861C60.5926 50.1253 60.5867 50.2312 60.5746 50.3039C60.5685 50.3705 60.5412 50.4492 60.4928 50.54C60.402 50.6974 60.1659 50.7761 59.7846 50.7761C59.494 50.7761 59.2851 50.7247 59.158 50.6218C59.0611 50.537 59.0066 50.4068 58.9945 50.2312C58.9945 50.1708 58.9945 50.0829 58.9945 49.9679V46.7806C58.9945 46.6414 58.9976 46.5385 59.0036 46.4719C59.0157 46.3992 59.043 46.3206 59.0853 46.2358C59.1701 46.0724 59.4061 45.9906 59.7936 45.9906C60.1568 45.9906 60.3838 46.0602 60.4747 46.1995C60.5412 46.2964 60.5746 46.3962 60.5746 46.4991C60.6048 46.4568 60.6472 46.4053 60.7017 46.3448C60.7622 46.2842 60.8863 46.2026 61.074 46.0996C61.2617 45.9967 61.4251 45.9452 61.5643 45.9452C61.7096 45.9452 61.8307 45.9543 61.9276 45.9725C62.0244 45.9846 62.1303 46.0088 62.2453 46.0451ZM62.7335 48.3879C62.7335 47.6615 62.9878 47.0621 63.4963 46.59C64.0048 46.1178 64.5859 45.8816 65.2398 45.8816C65.8935 45.8816 66.4717 46.1178 66.9741 46.59C67.4766 47.0561 67.7278 47.6524 67.7278 48.3788C67.7278 48.8813 67.5976 49.3292 67.3374 49.7227C67.077 50.1102 66.7592 50.3978 66.3839 50.5854C66.0146 50.767 65.6302 50.8578 65.2307 50.8578C64.8311 50.8578 64.4437 50.7609 64.0684 50.5673C63.693 50.3675 63.3752 50.0769 63.1149 49.6955C62.8607 49.3081 62.7335 48.8722 62.7335 48.3879ZM64.6314 49.0417C64.8251 49.187 65.0218 49.2597 65.2216 49.2597C65.4214 49.2597 65.6211 49.184 65.8209 49.0327C66.0207 48.8813 66.1205 48.6573 66.1205 48.3607C66.1205 48.0641 66.0267 47.8431 65.839 47.6978C65.6514 47.5525 65.4486 47.4798 65.2307 47.4798C65.0127 47.4798 64.8099 47.5555 64.6223 47.7069C64.4346 47.8582 64.3408 48.0821 64.3408 48.3788C64.3408 48.6694 64.4376 48.8903 64.6314 49.0417ZM74.2574 46.027C74.6449 46.1965 74.8386 46.4053 74.8386 46.6536C74.8386 46.7564 74.7902 46.9229 74.6933 47.153C74.5965 47.3769 74.5148 47.5736 74.4482 47.7431L73.4493 50.1768C73.3585 50.4432 73.2072 50.6308 72.9952 50.7398C72.9045 50.7822 72.7894 50.8033 72.6502 50.8033C72.511 50.8033 72.3747 50.7519 72.2416 50.649C72.1144 50.54 72.0297 50.431 71.9873 50.3221L71.9147 50.1677C71.8662 50.0466 71.6877 49.5744 71.3789 48.7512C71.3184 48.8964 71.2276 49.1356 71.1065 49.4685C70.9915 49.7954 70.9158 50.0013 70.8795 50.086C70.8492 50.1647 70.8281 50.2192 70.8159 50.2494C70.8099 50.2737 70.7856 50.3221 70.7433 50.3948C70.7009 50.4673 70.6525 50.5309 70.598 50.5854C70.4527 50.7307 70.2862 50.8033 70.0986 50.8033C69.9109 50.8033 69.7535 50.7519 69.6264 50.649C69.4992 50.54 69.4145 50.431 69.3721 50.3221L68.001 46.9804C67.9404 46.7988 67.9101 46.6807 67.9101 46.6263C67.9101 46.3841 68.0827 46.1935 68.4277 46.0542C68.6215 45.9755 68.7789 45.9361 68.9 45.9361C69.021 45.9361 69.1179 45.9634 69.1905 46.0179C69.2692 46.0663 69.3237 46.1178 69.354 46.1722C69.3842 46.2206 69.4085 46.2721 69.4266 46.3266C69.5295 46.5687 69.7444 47.1378 70.0713 48.0337L70.6071 46.5627C70.6434 46.4416 70.71 46.3357 70.8068 46.2449C70.9824 46.0693 71.161 45.9816 71.3426 45.9816C71.5242 45.9816 71.6786 46.03 71.8057 46.1268C71.9389 46.2237 72.0297 46.3206 72.0782 46.4174L72.1507 46.5718C72.4535 47.4193 72.6321 47.9036 72.6865 48.0246L73.2404 46.5173C73.3857 46.1299 73.6037 45.9361 73.8943 45.9361C74.0093 45.9361 74.1303 45.9664 74.2574 46.027Z" fill="#30308F"/>
<path d="M79.7019 44.111H84.7507C84.9444 44.111 85.0867 44.1353 85.1775 44.1837C85.2684 44.226 85.3289 44.2957 85.3591 44.3925C85.3893 44.4893 85.4045 44.6165 85.4045 44.7739C85.4045 44.9313 85.3893 45.0584 85.3591 45.1553C85.3289 45.2461 85.2774 45.3097 85.2048 45.3459C85.0958 45.4004 84.9414 45.4277 84.7416 45.4277H83.0073V49.9952C83.0073 50.1345 83.0012 50.2374 82.9891 50.304C82.983 50.3706 82.9558 50.4492 82.9073 50.5401C82.865 50.6248 82.7863 50.6853 82.6713 50.7216C82.5563 50.758 82.4049 50.7761 82.2173 50.7761C82.0296 50.7761 81.8782 50.758 81.7632 50.7216C81.6542 50.6853 81.5756 50.6248 81.5272 50.5401C81.4847 50.4492 81.4575 50.3706 81.4454 50.304C81.4393 50.2313 81.4363 50.1254 81.4363 49.9861V45.4277H79.6928C79.4991 45.4277 79.3569 45.4065 79.2661 45.3641C79.1752 45.3157 79.1147 45.243 79.0845 45.1462C79.0541 45.0494 79.0391 44.9222 79.0391 44.7649C79.0391 44.6074 79.0541 44.4834 79.0845 44.3925C79.1147 44.2957 79.1661 44.2291 79.2388 44.1928C79.3478 44.1383 79.5021 44.111 79.7019 44.111ZM88.5595 46.0089C89.1649 46.0089 89.6673 46.2389 90.0669 46.6989C90.4725 47.159 90.6753 47.722 90.6753 48.388V49.9861C90.6753 50.1254 90.6693 50.2313 90.6572 50.304C90.6511 50.3706 90.6238 50.4492 90.5754 50.5401C90.4967 50.6975 90.2637 50.7761 89.8762 50.7761C89.5069 50.7761 89.2769 50.6975 89.1861 50.5401C89.1377 50.4492 89.1074 50.3676 89.0952 50.2949C89.0892 50.2222 89.0862 50.1133 89.0862 49.968V48.3789C89.0862 48.1307 89.0166 47.937 88.8773 47.7977C88.7381 47.6584 88.5595 47.5889 88.3416 47.5889C88.1297 47.5889 87.9421 47.6555 87.7786 47.7886C87.6152 47.9158 87.5213 48.061 87.4971 48.2245V49.9861C87.4971 50.1254 87.4911 50.2313 87.4789 50.304C87.4729 50.3706 87.4457 50.4492 87.3972 50.5401C87.3185 50.6975 87.0855 50.7761 86.698 50.7761C86.3166 50.7761 86.0836 50.6944 85.9988 50.531C85.9564 50.4401 85.9292 50.3615 85.9171 50.2949C85.9111 50.2283 85.908 50.1224 85.908 49.9771V44.5468C85.908 44.4077 85.9111 44.3048 85.9171 44.2382C85.9292 44.1655 85.9564 44.0868 85.9988 44.002C86.0836 43.8386 86.3196 43.7568 86.7071 43.7568C87.0885 43.7568 87.3185 43.8386 87.3972 44.002C87.4457 44.0928 87.4729 44.1746 87.4789 44.2473C87.4911 44.3138 87.4971 44.4168 87.4971 44.5559V46.5628C87.7998 46.1935 88.1539 46.0089 88.5595 46.0089ZM94.6567 46.0452C94.7719 46.0815 94.8656 46.145 94.9386 46.2359C95.0173 46.3206 95.0566 46.4599 95.0566 46.6536C95.0566 46.8473 94.9986 47.0592 94.8843 47.2892C94.7691 47.5193 94.6024 47.6343 94.3842 47.6343C94.2756 47.6343 94.1698 47.61 94.0668 47.5616C93.9694 47.5132 93.8392 47.4889 93.6763 47.4889C93.5124 47.4889 93.3579 47.5465 93.2127 47.6615C93.0741 47.7765 93.0039 47.9158 93.0039 48.0792V49.9861C93.0039 50.1254 92.9983 50.2313 92.9861 50.304C92.9795 50.3706 92.9524 50.4492 92.9046 50.5401C92.8138 50.6975 92.5778 50.7761 92.1957 50.7761C91.9054 50.7761 91.6966 50.7247 91.5695 50.6218C91.4726 50.5371 91.4182 50.4069 91.406 50.2313C91.406 50.1708 91.406 50.083 91.406 49.968V46.7807C91.406 46.6414 91.4091 46.5385 91.4151 46.4719C91.4271 46.3993 91.4544 46.3206 91.4968 46.2359C91.5814 46.0724 91.8174 45.9907 92.2051 45.9907C92.5684 45.9907 92.795 46.0603 92.8859 46.1995C92.9524 46.2964 92.9861 46.3963 92.9861 46.4992C93.016 46.4569 93.0591 46.4054 93.1134 46.3449C93.1734 46.2843 93.2979 46.2026 93.4852 46.0997C93.6735 45.9968 93.8364 45.9453 93.9759 45.9453C94.1211 45.9453 94.2419 45.9544 94.3393 45.9725C94.4357 45.9846 94.5416 46.0089 94.6567 46.0452ZM95.5558 46.7898C95.5558 46.6505 95.5595 46.5476 95.5651 46.481C95.5773 46.4084 95.6045 46.3267 95.6466 46.2359C95.7318 46.0784 95.9678 45.9998 96.3555 45.9998C96.6458 45.9998 96.8518 46.0512 96.9726 46.1541C97.0756 46.2389 97.13 46.369 97.1365 46.5446C97.1421 46.6051 97.1449 46.6929 97.1449 46.8079V49.9861C97.1449 50.1254 97.1393 50.2313 97.1272 50.304C97.1206 50.3706 97.0934 50.4492 97.0457 50.5401C96.967 50.6975 96.7338 50.7761 96.3461 50.7761C95.965 50.7761 95.7318 50.6944 95.6466 50.531C95.6045 50.4401 95.5773 50.3615 95.5651 50.2949C95.5595 50.2283 95.5558 50.1224 95.5558 49.9771V46.7898ZM97.0457 45.1098C97.0026 45.1946 96.9239 45.2552 96.8097 45.2915C96.6945 45.3278 96.54 45.3459 96.3461 45.3459C96.1588 45.3459 96.0071 45.3278 95.8919 45.2915C95.7768 45.2552 95.6953 45.1916 95.6466 45.1008C95.6045 45.01 95.5773 44.9313 95.5651 44.8647C95.5595 44.792 95.5558 44.6861 95.5558 44.5468C95.5558 44.4077 95.5595 44.3048 95.5651 44.2382C95.5773 44.1655 95.6045 44.0868 95.6466 44.002C95.7318 43.8386 95.9678 43.7568 96.3555 43.7568C96.7366 43.7568 96.967 43.8386 97.0457 44.002C97.0934 44.0928 97.1206 44.1746 97.1272 44.2473C97.1393 44.3138 97.1449 44.4168 97.1449 44.5559C97.1449 44.6952 97.1393 44.8011 97.1272 44.8738C97.1206 44.9403 97.0934 45.0191 97.0457 45.1098ZM102.693 46.0997C103.007 46.2874 103.165 46.4871 103.165 46.6989C103.165 46.82 103.104 46.9865 102.983 47.1984L101.103 50.422C101.043 50.5249 100.946 50.6187 100.813 50.7035C100.679 50.7822 100.546 50.8216 100.413 50.8216C100.286 50.8216 100.162 50.7913 100.041 50.7307C99.9263 50.6641 99.8438 50.5976 99.7961 50.531L99.7137 50.4311L97.8248 47.1984C97.704 46.9986 97.6431 46.8352 97.6431 46.708C97.6431 46.4901 97.8014 46.2874 98.1161 46.0997C98.3455 45.9664 98.5272 45.8999 98.6602 45.8999C98.7941 45.8999 98.8971 45.9423 98.9692 46.027C99.0478 46.1057 99.1293 46.2268 99.2145 46.3902L100.404 48.6785L101.593 46.3902C101.661 46.2752 101.708 46.1935 101.739 46.145C101.775 46.0906 101.83 46.0391 101.902 45.9907C101.975 45.9362 102.072 45.9089 102.193 45.9089C102.314 45.9089 102.481 45.9725 102.693 46.0997ZM108 47.8159C108 48.1851 107.905 48.4606 107.718 48.6422C107.536 48.8178 107.334 48.9055 107.109 48.9055H104.957C104.957 49.075 105.057 49.2173 105.257 49.3323C105.457 49.4474 105.657 49.5049 105.856 49.5049C106.207 49.5049 106.482 49.4686 106.683 49.3959L106.782 49.3595C106.927 49.293 107.049 49.2597 107.145 49.2597C107.339 49.2597 107.506 49.3959 107.646 49.6683C107.724 49.8318 107.764 49.971 107.764 50.0861C107.764 50.6248 107.118 50.8942 105.829 50.8942C105.381 50.8942 104.981 50.8186 104.63 50.6671C104.286 50.5098 104.016 50.304 103.822 50.0497C103.441 49.5594 103.25 49.0115 103.25 48.4061C103.25 47.6434 103.495 47.0349 103.986 46.5809C104.482 46.1209 105.099 45.8908 105.838 45.8908C106.679 45.8908 107.297 46.1874 107.691 46.7807C107.897 47.0955 108 47.4405 108 47.8159ZM106.084 48.0792C106.313 48.0792 106.428 47.9824 106.428 47.7886C106.428 47.6494 106.374 47.5375 106.265 47.4527C106.162 47.368 106.01 47.3255 105.811 47.3255C105.617 47.3255 105.423 47.4073 105.229 47.5707C105.036 47.7281 104.939 47.8976 104.939 48.0792H106.084Z" fill="#30308F"/>
<path d="M22.0501 48.2991C22.0501 48.2105 22.0501 48.0554 22.0501 47.8561C22.0501 47.6568 22.0501 47.5239 22.0501 47.4131C22.0501 47.3245 22.0058 47.2138 21.9393 47.0809C21.8286 46.8594 21.4963 46.7266 20.9648 46.7266C20.4333 46.7266 20.1011 46.8373 19.9682 47.0809C19.9017 47.1916 19.8796 47.3024 19.8574 47.4131C19.8574 47.5018 19.8574 47.6568 19.8574 47.8561C19.8574 48.0554 19.8574 48.1883 19.8574 48.2991C19.8574 48.3877 19.9017 48.4984 19.9682 48.6312C20.0346 48.7641 20.1454 48.8527 20.3004 48.897C20.4555 48.9413 20.6769 48.9635 20.9427 48.9635C21.2085 48.9635 21.4299 48.9413 21.5849 48.897C21.74 48.8527 21.8507 48.7641 21.9172 48.6312C21.9836 48.4984 22.0279 48.3877 22.0279 48.2991" fill="#F05455"/>
<path d="M51.4397 48.2991C51.4397 48.2105 51.4397 48.0554 51.4397 47.8561C51.4397 47.6568 51.4397 47.5239 51.4397 47.4131C51.4397 47.3245 51.3954 47.2138 51.3289 47.0809C51.2182 46.8594 50.886 46.7266 50.3544 46.7266C49.8229 46.7266 49.4907 46.8373 49.3579 47.0809C49.2914 47.1916 49.2693 47.3024 49.2471 47.4131C49.2471 47.5018 49.2471 47.6568 49.2471 47.8561C49.2471 48.0554 49.2471 48.1883 49.2471 48.2991C49.2471 48.3877 49.2914 48.4984 49.3579 48.6312C49.4243 48.7641 49.535 48.8527 49.69 48.897C49.8451 48.9413 50.0666 48.9635 50.3323 48.9635C50.5981 48.9635 50.8196 48.9413 50.9746 48.897C51.1297 48.8527 51.2403 48.7641 51.3068 48.6312C51.3732 48.4984 51.4175 48.3877 51.4175 48.2991" fill="#F05455"/>
<path d="M78.9699 48.2991C78.9699 48.2105 78.9699 48.0554 78.9699 47.8561C78.9699 47.6568 78.9699 47.5239 78.9699 47.4131C78.9699 47.3245 78.9256 47.2138 78.8592 47.0809C78.7484 46.8594 78.4163 46.7266 77.8847 46.7266C77.3532 46.7266 77.0209 46.8373 76.888 47.0809C76.8216 47.1916 76.7994 47.3024 76.7773 47.4131C76.7773 47.5018 76.7773 47.6568 76.7773 47.8561C76.7773 48.0554 76.7773 48.1883 76.7773 48.2991C76.7773 48.3877 76.8216 48.4984 76.888 48.6312C76.9545 48.7641 77.0652 48.8527 77.2203 48.897C77.3753 48.9413 77.5968 48.9635 77.8625 48.9635C78.1283 48.9635 78.3498 48.9413 78.5049 48.897C78.6598 48.8527 78.7706 48.7641 78.837 48.6312C78.9035 48.4984 78.9478 48.3877 78.9478 48.2991" fill="#F05455"/>
</svg>
