<svg width="77" height="55" viewBox="0 0 77 55" fill="none" xmlns="http://www.w3.org/2000/svg">
<path d="M45.2569 51.1008L45.515 41.4914L48.3138 41.5665C50.9267 41.6367 53.1018 39.5754 53.172 36.9624V36.9624C53.2422 34.3494 51.1808 32.1743 48.5679 32.1041L48.1283 32.0923L45.787 32.0295L46.0043 23.9374L41.7222 23.8224L41.2885 23.8126C39.4669 23.7714 38.0255 22.2579 38.0731 20.4365V20.4365C38.1212 18.597 39.6683 17.1543 41.5067 17.2347L41.8987 17.2518L46.1997 17.3674L46.3884 10.3414" stroke="white" stroke-width="2" stroke-linejoin="round"/>
<path d="M46.413 10.1429C51.5439 -1.14281 67.2378 -0.653933 73.0424 11.0616C81.9877 34.9639 45.3184 50.9102 45.3184 50.9102" stroke="white" stroke-width="2" stroke-linecap="round" stroke-linejoin="round"/>
<path d="M29.6771 11.2015L29.9166 17.3264L27.1189 17.4358C24.507 17.5379 22.4724 19.738 22.5745 22.3499V22.3499C22.6766 24.9618 24.8767 26.9964 27.4886 26.8943L27.928 26.8772L30.2684 26.7857L30.5845 34.8745L34.8649 34.7072L35.2984 34.6884C37.1187 34.6096 38.6566 36.0248 38.7291 37.8454V37.8454C38.8023 39.6841 37.3536 41.2255 35.5139 41.2664L35.1217 41.2751L30.8223 41.4431L31.2457 52.2747" stroke="white" stroke-width="2" stroke-linejoin="round"/>
<path d="M29.6338 11.4114C24.3655 0.18926 8.67867 0.869836 3.01767 12.6554C-5.63496 36.6652 31.2265 52.1623 31.2265 52.1623" stroke="white" stroke-width="2" stroke-linecap="round" stroke-linejoin="round"/>
</svg>
