<svg width="343" height="200" viewBox="0 0 343 200" fill="none" xmlns="http://www.w3.org/2000/svg">
<g clip-path="url(#clip0_5568_129990)">
<path d="M327 0H16C7.16344 0 0 7.16344 0 16V184C0 192.837 7.16344 200 16 200H327C335.837 200 343 192.837 343 184V16C343 7.16344 335.837 0 327 0Z" fill="white"/>
<mask id="mask0_5568_129990" style="mask-type:alpha" maskUnits="userSpaceOnUse" x="0" y="0" width="343" height="200">
<path d="M327 0H16C7.16344 0 0 7.16344 0 16V184C0 192.837 7.16344 200 16 200H327C335.837 200 343 192.837 343 184V16C343 7.16344 335.837 0 327 0Z" fill="#ED713C"/>
</mask>
<g mask="url(#mask0_5568_129990)">
<path opacity="0.05" d="M26.6772 354.348C123.198 354.348 201.444 299.357 201.444 231.522C201.444 163.687 123.198 108.696 26.6772 108.696C-69.844 108.696 -148.09 163.687 -148.09 231.522C-148.09 299.357 -69.844 354.348 26.6772 354.348Z" fill="#F05C5C"/>
<path opacity="0.05" d="M316.322 91.3043C412.843 91.3043 491.089 36.3133 491.089 -31.5217C491.089 -99.3566 412.843 -154.348 316.322 -154.348C219.801 -154.348 141.555 -99.3566 141.555 -31.5217C141.555 36.3133 219.801 91.3043 316.322 91.3043Z" fill="#F05C5C"/>
</g>
<path d="M284.11 169.21C283.615 169.21 283.172 169.131 282.78 168.972C282.397 168.813 282.066 168.589 281.786 168.3C281.506 168.001 281.277 167.647 281.1 167.236C280.923 166.816 280.792 166.354 280.708 165.85C280.624 165.346 280.582 164.805 280.582 164.226C280.582 163.666 280.624 163.139 280.708 162.644C280.792 162.14 280.923 161.683 281.1 161.272C281.277 160.861 281.501 160.507 281.772 160.208C282.052 159.9 282.383 159.667 282.766 159.508C283.158 159.34 283.597 159.256 284.082 159.256C284.567 159.256 284.997 159.34 285.37 159.508C285.753 159.667 286.079 159.9 286.35 160.208C286.621 160.507 286.845 160.861 287.022 161.272C287.199 161.683 287.33 162.14 287.414 162.644C287.498 163.148 287.54 163.68 287.54 164.24C287.54 164.809 287.498 165.346 287.414 165.85C287.33 166.354 287.199 166.811 287.022 167.222C286.845 167.633 286.621 167.987 286.35 168.286C286.079 168.585 285.757 168.813 285.384 168.972C285.02 169.131 284.595 169.21 284.11 169.21ZM284.054 167.936C284.493 167.936 284.852 167.843 285.132 167.656C285.412 167.46 285.631 167.213 285.79 166.914C285.949 166.615 286.061 166.303 286.126 165.976C286.201 165.64 286.243 165.323 286.252 165.024C286.271 164.725 286.28 164.487 286.28 164.31V164.226C286.28 163.442 286.196 162.775 286.028 162.224C285.869 161.664 285.627 161.239 285.3 160.95C284.973 160.661 284.563 160.516 284.068 160.516C283.573 160.516 283.158 160.661 282.822 160.95C282.495 161.239 282.248 161.659 282.08 162.21C281.921 162.761 281.842 163.437 281.842 164.24C281.842 165.024 281.921 165.691 282.08 166.242C282.248 166.793 282.495 167.213 282.822 167.502C283.158 167.791 283.569 167.936 284.054 167.936ZM294.469 169.14C294.282 169.14 294.142 169.112 294.049 169.056C293.965 169.009 293.909 168.939 293.881 168.846C293.853 168.743 293.839 168.631 293.839 168.51V166.046H289.401C289.224 166.046 289.088 166.018 288.995 165.962C288.902 165.906 288.841 165.831 288.813 165.738C288.785 165.635 288.771 165.523 288.771 165.402C288.771 165.346 288.771 165.295 288.771 165.248C288.78 165.192 288.794 165.141 288.813 165.094L290.339 159.83C290.414 159.55 290.502 159.387 290.605 159.34C290.717 159.284 290.88 159.279 291.095 159.326C291.3 159.363 291.45 159.438 291.543 159.55C291.636 159.653 291.655 159.788 291.599 159.956L290.185 164.87H293.839V159.914C293.839 159.802 293.853 159.709 293.881 159.634C293.918 159.55 293.984 159.485 294.077 159.438C294.17 159.391 294.31 159.368 294.497 159.368C294.674 159.368 294.805 159.396 294.889 159.452C294.982 159.499 295.043 159.569 295.071 159.662C295.099 159.755 295.113 159.867 295.113 159.998V168.524C295.113 168.655 295.094 168.767 295.057 168.86C295.029 168.953 294.968 169.023 294.875 169.07C294.791 169.117 294.656 169.14 294.469 169.14ZM296.484 169.686C296.279 169.574 296.162 169.453 296.134 169.322C296.115 169.191 296.167 169 296.288 168.748L301.09 159.466C301.183 159.298 301.267 159.177 301.342 159.102C301.426 159.018 301.519 158.976 301.622 158.976C301.725 158.976 301.841 159.009 301.972 159.074C302.112 159.149 302.205 159.228 302.252 159.312C302.308 159.387 302.322 159.48 302.294 159.592C302.275 159.704 302.224 159.849 302.14 160.026L297.338 169.294C297.217 169.546 297.095 169.695 296.974 169.742C296.853 169.798 296.689 169.779 296.484 169.686ZM304.277 169.042C304.118 169.042 303.973 168.977 303.843 168.846C303.721 168.706 303.661 168.552 303.661 168.384C303.661 168.253 303.661 168.123 303.661 167.992C303.67 167.861 303.703 167.731 303.759 167.6C303.815 167.469 303.922 167.348 304.081 167.236C304.594 166.863 305.093 166.517 305.579 166.2C306.073 165.873 306.531 165.561 306.951 165.262C307.38 164.963 307.753 164.665 308.071 164.366C308.388 164.067 308.635 163.759 308.813 163.442C308.999 163.115 309.093 162.761 309.093 162.378C309.093 161.995 309.013 161.669 308.855 161.398C308.705 161.118 308.477 160.903 308.169 160.754C307.861 160.595 307.478 160.516 307.021 160.516C306.685 160.516 306.386 160.567 306.125 160.67C305.863 160.763 305.644 160.903 305.467 161.09C305.289 161.277 305.154 161.505 305.061 161.776C304.967 162.047 304.921 162.355 304.921 162.7C304.921 162.84 304.907 162.957 304.879 163.05C304.86 163.143 304.804 163.213 304.711 163.26C304.627 163.307 304.482 163.33 304.277 163.33C304.071 163.33 303.922 163.297 303.829 163.232C303.745 163.167 303.693 163.078 303.675 162.966C303.665 162.854 303.661 162.728 303.661 162.588C303.661 162.103 303.735 161.659 303.885 161.258C304.034 160.847 304.253 160.493 304.543 160.194C304.832 159.895 305.182 159.667 305.593 159.508C306.003 159.34 306.475 159.256 307.007 159.256C307.688 159.256 308.276 159.382 308.771 159.634C309.275 159.886 309.667 160.255 309.947 160.74C310.227 161.216 310.367 161.804 310.367 162.504C310.367 162.821 310.32 163.125 310.227 163.414C310.133 163.703 309.993 163.983 309.807 164.254C309.629 164.515 309.415 164.772 309.163 165.024C308.92 165.267 308.64 165.509 308.323 165.752C308.015 165.995 307.679 166.242 307.315 166.494C306.951 166.737 306.568 166.984 306.167 167.236L305.285 167.768H310.157C310.287 167.768 310.399 167.782 310.493 167.81C310.586 167.838 310.656 167.899 310.703 167.992C310.759 168.085 310.787 168.225 310.787 168.412C310.787 168.589 310.759 168.725 310.703 168.818C310.647 168.911 310.572 168.972 310.479 169C310.385 169.028 310.269 169.042 310.129 169.042H304.277ZM317.684 169.14C317.497 169.14 317.357 169.112 317.264 169.056C317.18 169.009 317.124 168.939 317.096 168.846C317.068 168.743 317.054 168.631 317.054 168.51V166.046H312.616C312.438 166.046 312.303 166.018 312.21 165.962C312.116 165.906 312.056 165.831 312.028 165.738C312 165.635 311.986 165.523 311.986 165.402C311.986 165.346 311.986 165.295 311.986 165.248C311.995 165.192 312.009 165.141 312.028 165.094L313.554 159.83C313.628 159.55 313.717 159.387 313.82 159.34C313.932 159.284 314.095 159.279 314.31 159.326C314.515 159.363 314.664 159.438 314.758 159.55C314.851 159.653 314.87 159.788 314.814 159.956L313.4 164.87H317.054V159.914C317.054 159.802 317.068 159.709 317.096 159.634C317.133 159.55 317.198 159.485 317.292 159.438C317.385 159.391 317.525 159.368 317.712 159.368C317.889 159.368 318.02 159.396 318.104 159.452C318.197 159.499 318.258 159.569 318.286 159.662C318.314 159.755 318.328 159.867 318.328 159.998V168.524C318.328 168.655 318.309 168.767 318.272 168.86C318.244 168.953 318.183 169.023 318.09 169.07C318.006 169.117 317.87 169.14 317.684 169.14Z" fill="black"/>
<path opacity="0.9" d="M29.2095 169.21C28.8828 169.21 28.5888 169.182 28.3275 169.126C28.0755 169.079 27.8421 169.014 27.6275 168.93C27.4221 168.846 27.2308 168.753 27.0535 168.65C26.8855 168.547 26.7315 168.445 26.5915 168.342C26.4981 168.258 26.4188 168.183 26.3535 168.118C26.2975 168.053 26.2695 167.973 26.2695 167.88C26.2695 167.815 26.2835 167.745 26.3115 167.67C26.3488 167.595 26.4095 167.507 26.4935 167.404C26.5775 167.292 26.6568 167.217 26.7315 167.18C26.8155 167.133 26.8901 167.11 26.9555 167.11C27.0115 167.11 27.0768 167.124 27.1515 167.152C27.2261 167.18 27.3241 167.25 27.4455 167.362C27.5575 167.446 27.6788 167.535 27.8095 167.628C27.9495 167.721 28.1221 167.796 28.3275 167.852C28.5328 167.908 28.7941 167.936 29.1115 167.936C29.4848 167.936 29.8115 167.861 30.0915 167.712C30.3808 167.563 30.6048 167.348 30.7635 167.068C30.9221 166.788 31.0015 166.457 31.0015 166.074C31.0015 165.701 30.9175 165.374 30.7495 165.094C30.5908 164.814 30.3715 164.595 30.0915 164.436C29.8115 164.268 29.5035 164.184 29.1675 164.184C28.9995 164.184 28.8408 164.203 28.6915 164.24C28.5421 164.277 28.4021 164.333 28.2715 164.408C28.1501 164.473 28.0428 164.553 27.9495 164.646C27.8841 164.711 27.8235 164.763 27.7675 164.8C27.7208 164.828 27.6601 164.851 27.5855 164.87C27.5015 164.898 27.4175 164.907 27.3335 164.898C27.2495 164.879 27.1328 164.842 26.9835 164.786C26.8155 164.711 26.6941 164.641 26.6195 164.576C26.5448 164.511 26.5075 164.417 26.5075 164.296L27.1095 160.012C27.1281 159.909 27.1515 159.811 27.1795 159.718C27.2075 159.615 27.2635 159.531 27.3475 159.466C27.4408 159.391 27.5715 159.354 27.7395 159.354L31.3795 159.368C31.5008 159.368 31.6035 159.382 31.6875 159.41C31.7808 159.438 31.8508 159.499 31.8975 159.592C31.9441 159.685 31.9675 159.825 31.9675 160.012C31.9675 160.18 31.9441 160.306 31.8975 160.39C31.8508 160.474 31.7855 160.53 31.7015 160.558C31.6175 160.586 31.5148 160.6 31.3935 160.6H28.2995L27.9075 163.358C28.0195 163.265 28.1455 163.19 28.2855 163.134C28.4348 163.078 28.5841 163.031 28.7335 162.994C28.8828 162.957 29.0275 162.938 29.1675 162.938H29.2655C29.6668 162.938 30.0448 163.017 30.3995 163.176C30.7635 163.335 31.0808 163.554 31.3515 163.834C31.6315 164.114 31.8555 164.436 32.0235 164.8C32.1915 165.164 32.2755 165.551 32.2755 165.962C32.2755 166.597 32.1401 167.157 31.8695 167.642C31.5988 168.127 31.2301 168.51 30.7635 168.79C30.3061 169.07 29.7881 169.21 29.2095 169.21ZM34.1462 169.042C33.9876 169.042 33.8429 168.977 33.7122 168.846C33.5909 168.706 33.5302 168.552 33.5302 168.384C33.5302 168.253 33.5302 168.123 33.5302 167.992C33.5396 167.861 33.5722 167.731 33.6282 167.6C33.6842 167.469 33.7916 167.348 33.9502 167.236C34.4636 166.863 34.9629 166.517 35.4482 166.2C35.9429 165.873 36.4002 165.561 36.8202 165.262C37.2496 164.963 37.6229 164.665 37.9402 164.366C38.2576 164.067 38.5049 163.759 38.6822 163.442C38.8689 163.115 38.9622 162.761 38.9622 162.378C38.9622 161.995 38.8829 161.669 38.7242 161.398C38.5749 161.118 38.3462 160.903 38.0382 160.754C37.7302 160.595 37.3476 160.516 36.8902 160.516C36.5542 160.516 36.2556 160.567 35.9942 160.67C35.7329 160.763 35.5136 160.903 35.3362 161.09C35.1589 161.277 35.0236 161.505 34.9302 161.776C34.8369 162.047 34.7902 162.355 34.7902 162.7C34.7902 162.84 34.7762 162.957 34.7482 163.05C34.7296 163.143 34.6736 163.213 34.5802 163.26C34.4962 163.307 34.3516 163.33 34.1462 163.33C33.9409 163.33 33.7916 163.297 33.6982 163.232C33.6142 163.167 33.5629 163.078 33.5442 162.966C33.5349 162.854 33.5302 162.728 33.5302 162.588C33.5302 162.103 33.6049 161.659 33.7542 161.258C33.9036 160.847 34.1229 160.493 34.4122 160.194C34.7016 159.895 35.0516 159.667 35.4622 159.508C35.8729 159.34 36.3442 159.256 36.8762 159.256C37.5576 159.256 38.1456 159.382 38.6402 159.634C39.1442 159.886 39.5362 160.255 39.8162 160.74C40.0962 161.216 40.2362 161.804 40.2362 162.504C40.2362 162.821 40.1896 163.125 40.0962 163.414C40.0029 163.703 39.8629 163.983 39.6762 164.254C39.4989 164.515 39.2842 164.772 39.0322 165.024C38.7896 165.267 38.5096 165.509 38.1922 165.752C37.8842 165.995 37.5482 166.242 37.1842 166.494C36.8202 166.737 36.4376 166.984 36.0362 167.236L35.1542 167.768H40.0262C40.1569 167.768 40.2689 167.782 40.3622 167.81C40.4556 167.838 40.5256 167.899 40.5722 167.992C40.6282 168.085 40.6562 168.225 40.6562 168.412C40.6562 168.589 40.6282 168.725 40.5722 168.818C40.5162 168.911 40.4416 168.972 40.3482 169C40.2549 169.028 40.1382 169.042 39.9982 169.042H34.1462ZM45.2154 169.21C44.5621 169.21 43.9834 169.089 43.4794 168.846C42.9847 168.594 42.5927 168.249 42.3034 167.81C42.0234 167.362 41.8834 166.844 41.8834 166.256C41.8834 166.023 41.9161 165.794 41.9814 165.57C42.0467 165.346 42.1307 165.141 42.2334 164.954C42.3361 164.758 42.4527 164.585 42.5834 164.436C42.7141 164.287 42.8447 164.165 42.9754 164.072C43.1154 163.969 43.2414 163.895 43.3534 163.848C43.2414 163.801 43.1201 163.717 42.9894 163.596C42.8587 163.465 42.7327 163.311 42.6114 163.134C42.4901 162.957 42.3921 162.761 42.3174 162.546C42.2427 162.331 42.2054 162.103 42.2054 161.86C42.2054 161.337 42.3314 160.88 42.5834 160.488C42.8447 160.087 43.1994 159.774 43.6474 159.55C44.1047 159.317 44.6274 159.2 45.2154 159.2C45.7847 159.2 46.2887 159.317 46.7274 159.55C47.1661 159.774 47.5067 160.087 47.7494 160.488C48.0014 160.889 48.1274 161.351 48.1274 161.874C48.1274 162.061 48.1041 162.243 48.0574 162.42C48.0107 162.588 47.9501 162.751 47.8754 162.91C47.8007 163.059 47.7121 163.199 47.6094 163.33C47.5161 163.451 47.4181 163.559 47.3154 163.652C47.2221 163.745 47.1287 163.811 47.0354 163.848C47.1474 163.895 47.2687 163.969 47.3994 164.072C47.5301 164.175 47.6561 164.301 47.7774 164.45C47.8987 164.599 48.0107 164.772 48.1134 164.968C48.2254 165.155 48.3094 165.36 48.3654 165.584C48.4214 165.799 48.4494 166.023 48.4494 166.256C48.4494 166.704 48.3654 167.11 48.1974 167.474C48.0387 167.838 47.8101 168.151 47.5114 168.412C47.2221 168.664 46.8767 168.86 46.4754 169C46.0834 169.14 45.6634 169.21 45.2154 169.21ZM45.1874 168.09C45.5887 168.09 45.9387 168.015 46.2374 167.866C46.5454 167.707 46.7787 167.493 46.9374 167.222C47.1054 166.951 47.1894 166.634 47.1894 166.27C47.1894 165.897 47.1054 165.575 46.9374 165.304C46.7787 165.033 46.5454 164.823 46.2374 164.674C45.9294 164.515 45.5701 164.436 45.1594 164.436C44.7581 164.436 44.4034 164.515 44.0954 164.674C43.7967 164.823 43.5634 165.033 43.3954 165.304C43.2274 165.575 43.1434 165.897 43.1434 166.27C43.1434 166.634 43.2274 166.951 43.3954 167.222C43.5634 167.493 43.8014 167.707 44.1094 167.866C44.4174 168.015 44.7767 168.09 45.1874 168.09ZM45.1874 163.4C45.5327 163.4 45.8267 163.339 46.0694 163.218C46.3214 163.087 46.5174 162.905 46.6574 162.672C46.7974 162.439 46.8674 162.168 46.8674 161.86C46.8674 161.552 46.7974 161.286 46.6574 161.062C46.5174 160.838 46.3214 160.665 46.0694 160.544C45.8174 160.423 45.5187 160.362 45.1734 160.362C44.8374 160.362 44.5434 160.423 44.2914 160.544C44.0394 160.665 43.8434 160.838 43.7034 161.062C43.5634 161.286 43.4934 161.552 43.4934 161.86C43.4934 162.168 43.5634 162.439 43.7034 162.672C43.8434 162.905 44.0394 163.087 44.2914 163.218C44.5527 163.339 44.8514 163.4 45.1874 163.4ZM50.3337 169.042C50.1751 169.042 50.0304 168.977 49.8997 168.846C49.7784 168.706 49.7177 168.552 49.7177 168.384C49.7177 168.253 49.7177 168.123 49.7177 167.992C49.7271 167.861 49.7597 167.731 49.8157 167.6C49.8717 167.469 49.9791 167.348 50.1377 167.236C50.6511 166.863 51.1504 166.517 51.6357 166.2C52.1304 165.873 52.5877 165.561 53.0077 165.262C53.4371 164.963 53.8104 164.665 54.1277 164.366C54.4451 164.067 54.6924 163.759 54.8697 163.442C55.0564 163.115 55.1497 162.761 55.1497 162.378C55.1497 161.995 55.0704 161.669 54.9117 161.398C54.7624 161.118 54.5337 160.903 54.2257 160.754C53.9177 160.595 53.5351 160.516 53.0777 160.516C52.7417 160.516 52.4431 160.567 52.1817 160.67C51.9204 160.763 51.7011 160.903 51.5237 161.09C51.3464 161.277 51.2111 161.505 51.1177 161.776C51.0244 162.047 50.9777 162.355 50.9777 162.7C50.9777 162.84 50.9637 162.957 50.9357 163.05C50.9171 163.143 50.8611 163.213 50.7677 163.26C50.6837 163.307 50.5391 163.33 50.3337 163.33C50.1284 163.33 49.9791 163.297 49.8857 163.232C49.8017 163.167 49.7504 163.078 49.7317 162.966C49.7224 162.854 49.7177 162.728 49.7177 162.588C49.7177 162.103 49.7924 161.659 49.9417 161.258C50.0911 160.847 50.3104 160.493 50.5997 160.194C50.8891 159.895 51.2391 159.667 51.6497 159.508C52.0604 159.34 52.5317 159.256 53.0637 159.256C53.7451 159.256 54.3331 159.382 54.8277 159.634C55.3317 159.886 55.7237 160.255 56.0037 160.74C56.2837 161.216 56.4237 161.804 56.4237 162.504C56.4237 162.821 56.3771 163.125 56.2837 163.414C56.1904 163.703 56.0504 163.983 55.8637 164.254C55.6864 164.515 55.4717 164.772 55.2197 165.024C54.9771 165.267 54.6971 165.509 54.3797 165.752C54.0717 165.995 53.7357 166.242 53.3717 166.494C53.0077 166.737 52.6251 166.984 52.2237 167.236L51.3417 167.768H56.2137C56.3444 167.768 56.4564 167.782 56.5497 167.81C56.6431 167.838 56.7131 167.899 56.7597 167.992C56.8157 168.085 56.8437 168.225 56.8437 168.412C56.8437 168.589 56.8157 168.725 56.7597 168.818C56.7037 168.911 56.6291 168.972 56.5357 169C56.4424 169.028 56.3257 169.042 56.1857 169.042H50.3337ZM65.0976 169.196C64.6123 169.196 64.1643 169.126 63.7536 168.986C63.3429 168.837 62.9789 168.636 62.6616 168.384C62.3536 168.123 62.1109 167.829 61.9336 167.502C61.7563 167.175 61.6536 166.835 61.6256 166.48C61.6256 166.153 61.8449 165.99 62.2836 165.99C62.4423 165.99 62.5589 166.009 62.6336 166.046C62.7083 166.083 62.7643 166.149 62.8016 166.242C62.8389 166.326 62.8763 166.447 62.9136 166.606C63.0163 166.886 63.1703 167.133 63.3756 167.348C63.5809 167.553 63.8283 167.717 64.1176 167.838C64.4163 167.95 64.7476 168.006 65.1116 168.006C65.5503 168.006 65.9329 167.927 66.2596 167.768C66.5956 167.609 66.8569 167.395 67.0436 167.124C67.2303 166.844 67.3236 166.531 67.3236 166.186C67.3236 165.85 67.2303 165.551 67.0436 165.29C66.8663 165.029 66.6189 164.828 66.3016 164.688C65.9936 164.548 65.6389 164.478 65.2376 164.478C65.0789 164.478 64.9436 164.464 64.8316 164.436C64.7196 164.408 64.6356 164.352 64.5796 164.268C64.5329 164.175 64.5096 164.035 64.5096 163.848C64.5096 163.671 64.5329 163.54 64.5796 163.456C64.6356 163.372 64.7196 163.316 64.8316 163.288C64.9436 163.26 65.0836 163.246 65.2516 163.246C65.6249 163.246 65.9376 163.19 66.1896 163.078C66.4509 162.957 66.6469 162.803 66.7776 162.616C66.9083 162.42 66.9736 162.21 66.9736 161.986C66.9736 161.678 66.8989 161.407 66.7496 161.174C66.6096 160.931 66.4043 160.745 66.1336 160.614C65.8723 160.483 65.5689 160.418 65.2236 160.418C64.9249 160.418 64.6589 160.46 64.4256 160.544C64.2016 160.619 63.9963 160.731 63.8096 160.88C63.6323 161.029 63.4643 161.221 63.3056 161.454C63.1749 161.659 63.0489 161.781 62.9276 161.818C62.8063 161.846 62.6336 161.795 62.4096 161.664C62.2603 161.561 62.1623 161.459 62.1156 161.356C62.0783 161.253 62.0923 161.127 62.1576 160.978C62.2043 160.885 62.2743 160.768 62.3676 160.628C62.4609 160.479 62.5869 160.325 62.7456 160.166C62.9043 160.007 63.0956 159.858 63.3196 159.718C63.5436 159.578 63.8049 159.466 64.1036 159.382C64.4116 159.289 64.7663 159.242 65.1676 159.242C65.6436 159.242 66.0729 159.317 66.4556 159.466C66.8476 159.606 67.1743 159.802 67.4356 160.054C67.6969 160.306 67.8976 160.595 68.0376 160.922C68.1776 161.239 68.2476 161.575 68.2476 161.93C68.2476 162.229 68.1869 162.509 68.0656 162.77C67.9536 163.031 67.7996 163.255 67.6036 163.442C67.4076 163.619 67.2069 163.759 67.0016 163.862C67.2536 163.946 67.4776 164.077 67.6736 164.254C67.8696 164.422 68.0329 164.613 68.1636 164.828C68.3036 165.043 68.4063 165.267 68.4716 165.5C68.5463 165.733 68.5836 165.953 68.5836 166.158C68.5836 166.737 68.4343 167.255 68.1356 167.712C67.8463 168.169 67.4403 168.533 66.9176 168.804C66.3949 169.065 65.7883 169.196 65.0976 169.196ZM75.5124 169.14C75.3257 169.14 75.1857 169.112 75.0924 169.056C75.0084 169.009 74.9524 168.939 74.9244 168.846C74.8964 168.743 74.8824 168.631 74.8824 168.51V166.046H70.4444C70.2671 166.046 70.1317 166.018 70.0384 165.962C69.9451 165.906 69.8844 165.831 69.8564 165.738C69.8284 165.635 69.8144 165.523 69.8144 165.402C69.8144 165.346 69.8144 165.295 69.8144 165.248C69.8237 165.192 69.8377 165.141 69.8564 165.094L71.3824 159.83C71.4571 159.55 71.5457 159.387 71.6484 159.34C71.7604 159.284 71.9237 159.279 72.1384 159.326C72.3437 159.363 72.4931 159.438 72.5864 159.55C72.6797 159.653 72.6984 159.788 72.6424 159.956L71.2284 164.87H74.8824V159.914C74.8824 159.802 74.8964 159.709 74.9244 159.634C74.9617 159.55 75.0271 159.485 75.1204 159.438C75.2137 159.391 75.3537 159.368 75.5404 159.368C75.7177 159.368 75.8484 159.396 75.9324 159.452C76.0257 159.499 76.0864 159.569 76.1144 159.662C76.1424 159.755 76.1564 159.867 76.1564 159.998V168.524C76.1564 168.655 76.1377 168.767 76.1004 168.86C76.0724 168.953 76.0117 169.023 75.9184 169.07C75.8344 169.117 75.6991 169.14 75.5124 169.14ZM80.3696 169.21C80.043 169.21 79.749 169.182 79.4876 169.126C79.2356 169.079 79.0023 169.014 78.7876 168.93C78.5823 168.846 78.391 168.753 78.2136 168.65C78.0456 168.547 77.8916 168.445 77.7516 168.342C77.6583 168.258 77.579 168.183 77.5136 168.118C77.4576 168.053 77.4296 167.973 77.4296 167.88C77.4296 167.815 77.4436 167.745 77.4716 167.67C77.509 167.595 77.5696 167.507 77.6536 167.404C77.7376 167.292 77.817 167.217 77.8916 167.18C77.9756 167.133 78.0503 167.11 78.1156 167.11C78.1716 167.11 78.237 167.124 78.3116 167.152C78.3863 167.18 78.4843 167.25 78.6056 167.362C78.7176 167.446 78.839 167.535 78.9696 167.628C79.1096 167.721 79.2823 167.796 79.4876 167.852C79.693 167.908 79.9543 167.936 80.2716 167.936C80.645 167.936 80.9716 167.861 81.2516 167.712C81.541 167.563 81.765 167.348 81.9236 167.068C82.0823 166.788 82.1616 166.457 82.1616 166.074C82.1616 165.701 82.0776 165.374 81.9096 165.094C81.751 164.814 81.5316 164.595 81.2516 164.436C80.9716 164.268 80.6636 164.184 80.3276 164.184C80.1596 164.184 80.001 164.203 79.8516 164.24C79.7023 164.277 79.5623 164.333 79.4316 164.408C79.3103 164.473 79.203 164.553 79.1096 164.646C79.0443 164.711 78.9836 164.763 78.9276 164.8C78.881 164.828 78.8203 164.851 78.7456 164.87C78.6616 164.898 78.5776 164.907 78.4936 164.898C78.4096 164.879 78.293 164.842 78.1436 164.786C77.9756 164.711 77.8543 164.641 77.7796 164.576C77.705 164.511 77.6676 164.417 77.6676 164.296L78.2696 160.012C78.2883 159.909 78.3116 159.811 78.3396 159.718C78.3676 159.615 78.4236 159.531 78.5076 159.466C78.601 159.391 78.7316 159.354 78.8996 159.354L82.5396 159.368C82.661 159.368 82.7636 159.382 82.8476 159.41C82.941 159.438 83.011 159.499 83.0576 159.592C83.1043 159.685 83.1276 159.825 83.1276 160.012C83.1276 160.18 83.1043 160.306 83.0576 160.39C83.011 160.474 82.9456 160.53 82.8616 160.558C82.7776 160.586 82.675 160.6 82.5536 160.6H79.4596L79.0676 163.358C79.1796 163.265 79.3056 163.19 79.4456 163.134C79.595 163.078 79.7443 163.031 79.8936 162.994C80.043 162.957 80.1876 162.938 80.3276 162.938H80.4256C80.827 162.938 81.205 163.017 81.5596 163.176C81.9236 163.335 82.241 163.554 82.5116 163.834C82.7916 164.114 83.0156 164.436 83.1836 164.8C83.3516 165.164 83.4356 165.551 83.4356 165.962C83.4356 166.597 83.3003 167.157 83.0296 167.642C82.759 168.127 82.3903 168.51 81.9236 168.79C81.4663 169.07 80.9483 169.21 80.3696 169.21ZM87.8964 169.182C87.2244 169.182 86.6457 169.037 86.1604 168.748C85.6844 168.449 85.3157 168.015 85.0544 167.446C84.8024 166.867 84.6764 166.158 84.6764 165.318C84.6764 164.59 84.7557 163.918 84.9144 163.302C85.0824 162.686 85.3204 162.135 85.6284 161.65C85.9457 161.155 86.3237 160.735 86.7624 160.39C87.201 160.035 87.6957 159.769 88.2464 159.592C88.8064 159.405 89.4084 159.312 90.0524 159.312C90.1737 159.312 90.2717 159.331 90.3464 159.368C90.4304 159.396 90.4957 159.457 90.5424 159.55C90.589 159.634 90.6124 159.769 90.6124 159.956C90.6124 160.133 90.5844 160.269 90.5284 160.362C90.4817 160.446 90.4117 160.502 90.3184 160.53C90.225 160.558 90.113 160.572 89.9824 160.572C89.497 160.572 89.0537 160.633 88.6524 160.754C88.251 160.875 87.887 161.053 87.5604 161.286C87.243 161.51 86.9677 161.781 86.7344 162.098C86.5104 162.415 86.3377 162.765 86.2164 163.148C86.1044 163.531 86.0437 163.941 86.0344 164.38L85.8104 164.562C85.8944 164.338 86.039 164.128 86.2444 163.932C86.459 163.736 86.7157 163.582 87.0144 163.47C87.3224 163.358 87.6584 163.302 88.0224 163.302C88.6104 163.302 89.119 163.428 89.5484 163.68C89.987 163.923 90.323 164.259 90.5564 164.688C90.799 165.108 90.9204 165.593 90.9204 166.144C90.9204 166.741 90.799 167.269 90.5564 167.726C90.3137 168.183 89.9637 168.543 89.5064 168.804C89.0584 169.056 88.5217 169.182 87.8964 169.182ZM87.8404 168.02C88.2417 168.02 88.5777 167.945 88.8484 167.796C89.1284 167.647 89.3384 167.437 89.4784 167.166C89.6277 166.895 89.7024 166.583 89.7024 166.228C89.7024 165.883 89.6324 165.579 89.4924 165.318C89.3524 165.047 89.1517 164.837 88.8904 164.688C88.629 164.539 88.3117 164.464 87.9384 164.464C87.5464 164.464 87.201 164.539 86.9024 164.688C86.613 164.828 86.3937 165.029 86.2444 165.29C86.095 165.551 86.0204 165.85 86.0204 166.186C86.0204 166.559 86.0904 166.881 86.2304 167.152C86.3704 167.423 86.5757 167.637 86.8464 167.796C87.1264 167.945 87.4577 168.02 87.8404 168.02ZM97.8929 169.14C97.7156 169.14 97.5803 169.121 97.4869 169.084C97.3936 169.056 97.3329 169.009 97.3049 168.944C97.2769 168.879 97.2629 168.795 97.2629 168.692C97.2629 168.132 97.3469 167.577 97.5149 167.026C97.6923 166.475 97.9209 165.943 98.2009 165.43C98.4903 164.907 98.7889 164.408 99.0969 163.932C99.4049 163.456 99.6943 163.013 99.9649 162.602C100.245 162.191 100.465 161.818 100.623 161.482C100.791 161.146 100.861 160.857 100.833 160.614H96.3249C96.1943 160.614 96.0823 160.6 95.9889 160.572C95.8956 160.544 95.8256 160.483 95.7789 160.39C95.7323 160.297 95.7089 160.161 95.7089 159.984C95.7089 159.797 95.7276 159.662 95.7649 159.578C95.8116 159.494 95.8769 159.438 95.9609 159.41C96.0449 159.382 96.1383 159.368 96.2409 159.368H101.645C101.823 159.368 101.953 159.401 102.037 159.466C102.131 159.531 102.191 159.62 102.219 159.732C102.247 159.844 102.261 159.97 102.261 160.11C102.261 160.521 102.173 160.945 101.995 161.384C101.818 161.813 101.585 162.257 101.295 162.714C101.015 163.171 100.712 163.643 100.385 164.128C100.068 164.613 99.7689 165.108 99.4889 165.612C99.2089 166.107 98.9803 166.615 98.8029 167.138C98.6256 167.651 98.5369 168.179 98.5369 168.72C98.5369 168.813 98.5183 168.893 98.4809 168.958C98.4529 169.014 98.3923 169.056 98.2989 169.084C98.2056 169.121 98.0703 169.14 97.8929 169.14ZM106.821 169.21C106.168 169.21 105.589 169.089 105.085 168.846C104.591 168.594 104.199 168.249 103.909 167.81C103.629 167.362 103.489 166.844 103.489 166.256C103.489 166.023 103.522 165.794 103.587 165.57C103.653 165.346 103.737 165.141 103.839 164.954C103.942 164.758 104.059 164.585 104.189 164.436C104.32 164.287 104.451 164.165 104.581 164.072C104.721 163.969 104.847 163.895 104.959 163.848C104.847 163.801 104.726 163.717 104.595 163.596C104.465 163.465 104.339 163.311 104.217 163.134C104.096 162.957 103.998 162.761 103.923 162.546C103.849 162.331 103.811 162.103 103.811 161.86C103.811 161.337 103.937 160.88 104.189 160.488C104.451 160.087 104.805 159.774 105.253 159.55C105.711 159.317 106.233 159.2 106.821 159.2C107.391 159.2 107.895 159.317 108.333 159.55C108.772 159.774 109.113 160.087 109.355 160.488C109.607 160.889 109.733 161.351 109.733 161.874C109.733 162.061 109.71 162.243 109.663 162.42C109.617 162.588 109.556 162.751 109.481 162.91C109.407 163.059 109.318 163.199 109.215 163.33C109.122 163.451 109.024 163.559 108.921 163.652C108.828 163.745 108.735 163.811 108.641 163.848C108.753 163.895 108.875 163.969 109.005 164.072C109.136 164.175 109.262 164.301 109.383 164.45C109.505 164.599 109.617 164.772 109.719 164.968C109.831 165.155 109.915 165.36 109.971 165.584C110.027 165.799 110.055 166.023 110.055 166.256C110.055 166.704 109.971 167.11 109.803 167.474C109.645 167.838 109.416 168.151 109.117 168.412C108.828 168.664 108.483 168.86 108.081 169C107.689 169.14 107.269 169.21 106.821 169.21ZM106.793 168.09C107.195 168.09 107.545 168.015 107.843 167.866C108.151 167.707 108.385 167.493 108.543 167.222C108.711 166.951 108.795 166.634 108.795 166.27C108.795 165.897 108.711 165.575 108.543 165.304C108.385 165.033 108.151 164.823 107.843 164.674C107.535 164.515 107.176 164.436 106.765 164.436C106.364 164.436 106.009 164.515 105.701 164.674C105.403 164.823 105.169 165.033 105.001 165.304C104.833 165.575 104.749 165.897 104.749 166.27C104.749 166.634 104.833 166.951 105.001 167.222C105.169 167.493 105.407 167.707 105.715 167.866C106.023 168.015 106.383 168.09 106.793 168.09ZM106.793 163.4C107.139 163.4 107.433 163.339 107.675 163.218C107.927 163.087 108.123 162.905 108.263 162.672C108.403 162.439 108.473 162.168 108.473 161.86C108.473 161.552 108.403 161.286 108.263 161.062C108.123 160.838 107.927 160.665 107.675 160.544C107.423 160.423 107.125 160.362 106.779 160.362C106.443 160.362 106.149 160.423 105.897 160.544C105.645 160.665 105.449 160.838 105.309 161.062C105.169 161.286 105.099 161.552 105.099 161.86C105.099 162.168 105.169 162.439 105.309 162.672C105.449 162.905 105.645 163.087 105.897 163.218C106.159 163.339 106.457 163.4 106.793 163.4ZM112.178 169.126C112.066 169.126 111.968 169.107 111.884 169.07C111.8 169.042 111.734 168.986 111.688 168.902C111.641 168.809 111.618 168.673 111.618 168.496C111.618 168.309 111.641 168.174 111.688 168.09C111.744 167.997 111.818 167.936 111.912 167.908C112.005 167.88 112.117 167.866 112.248 167.866C112.733 167.866 113.176 167.805 113.578 167.684C113.979 167.563 114.338 167.39 114.656 167.166C114.982 166.933 115.258 166.662 115.482 166.354C115.715 166.037 115.888 165.687 116 165.304C116.121 164.912 116.186 164.501 116.196 164.072L116.42 163.876C116.336 164.1 116.191 164.31 115.986 164.506C115.78 164.693 115.524 164.842 115.216 164.954C114.917 165.066 114.581 165.122 114.208 165.122C113.629 165.122 113.12 165.001 112.682 164.758C112.243 164.515 111.902 164.179 111.66 163.75C111.426 163.321 111.31 162.835 111.31 162.294C111.31 161.697 111.431 161.169 111.674 160.712C111.926 160.255 112.276 159.9 112.724 159.648C113.181 159.387 113.718 159.256 114.334 159.256C115.006 159.256 115.58 159.405 116.056 159.704C116.541 160.003 116.91 160.437 117.162 161.006C117.423 161.575 117.554 162.28 117.554 163.12C117.554 163.848 117.47 164.52 117.302 165.136C117.143 165.752 116.905 166.307 116.588 166.802C116.28 167.287 115.906 167.707 115.468 168.062C115.029 168.407 114.53 168.673 113.97 168.86C113.419 169.037 112.822 169.126 112.178 169.126ZM114.292 163.974C114.702 163.974 115.048 163.904 115.328 163.764C115.617 163.615 115.836 163.409 115.986 163.148C116.144 162.887 116.224 162.588 116.224 162.252C116.224 161.879 116.149 161.557 116 161.286C115.86 161.015 115.654 160.805 115.384 160.656C115.113 160.497 114.782 160.418 114.39 160.418C113.988 160.418 113.648 160.493 113.368 160.642C113.097 160.791 112.887 161.001 112.738 161.272C112.598 161.533 112.528 161.846 112.528 162.21C112.528 162.555 112.598 162.863 112.738 163.134C112.878 163.395 113.078 163.601 113.34 163.75C113.61 163.899 113.928 163.974 114.292 163.974ZM122.344 169.21C121.849 169.21 121.406 169.131 121.014 168.972C120.631 168.813 120.3 168.589 120.02 168.3C119.74 168.001 119.511 167.647 119.334 167.236C119.156 166.816 119.026 166.354 118.942 165.85C118.858 165.346 118.816 164.805 118.816 164.226C118.816 163.666 118.858 163.139 118.942 162.644C119.026 162.14 119.156 161.683 119.334 161.272C119.511 160.861 119.735 160.507 120.006 160.208C120.286 159.9 120.617 159.667 121 159.508C121.392 159.34 121.83 159.256 122.316 159.256C122.801 159.256 123.23 159.34 123.604 159.508C123.986 159.667 124.313 159.9 124.584 160.208C124.854 160.507 125.078 160.861 125.256 161.272C125.433 161.683 125.564 162.14 125.648 162.644C125.732 163.148 125.774 163.68 125.774 164.24C125.774 164.809 125.732 165.346 125.648 165.85C125.564 166.354 125.433 166.811 125.256 167.222C125.078 167.633 124.854 167.987 124.584 168.286C124.313 168.585 123.991 168.813 123.618 168.972C123.254 169.131 122.829 169.21 122.344 169.21ZM122.288 167.936C122.726 167.936 123.086 167.843 123.366 167.656C123.646 167.46 123.865 167.213 124.024 166.914C124.182 166.615 124.294 166.303 124.36 165.976C124.434 165.64 124.476 165.323 124.486 165.024C124.504 164.725 124.514 164.487 124.514 164.31V164.226C124.514 163.442 124.43 162.775 124.262 162.224C124.103 161.664 123.86 161.239 123.534 160.95C123.207 160.661 122.796 160.516 122.302 160.516C121.807 160.516 121.392 160.661 121.056 160.95C120.729 161.239 120.482 161.659 120.314 162.21C120.155 162.761 120.076 163.437 120.076 164.24C120.076 165.024 120.155 165.691 120.314 166.242C120.482 166.793 120.729 167.213 121.056 167.502C121.392 167.791 121.802 167.936 122.288 167.936ZM134.059 169.196C133.574 169.196 133.126 169.126 132.715 168.986C132.304 168.837 131.94 168.636 131.623 168.384C131.315 168.123 131.072 167.829 130.895 167.502C130.718 167.175 130.615 166.835 130.587 166.48C130.587 166.153 130.806 165.99 131.245 165.99C131.404 165.99 131.52 166.009 131.595 166.046C131.67 166.083 131.726 166.149 131.763 166.242C131.8 166.326 131.838 166.447 131.875 166.606C131.978 166.886 132.132 167.133 132.337 167.348C132.542 167.553 132.79 167.717 133.079 167.838C133.378 167.95 133.709 168.006 134.073 168.006C134.512 168.006 134.894 167.927 135.221 167.768C135.557 167.609 135.818 167.395 136.005 167.124C136.192 166.844 136.285 166.531 136.285 166.186C136.285 165.85 136.192 165.551 136.005 165.29C135.828 165.029 135.58 164.828 135.263 164.688C134.955 164.548 134.6 164.478 134.199 164.478C134.04 164.478 133.905 164.464 133.793 164.436C133.681 164.408 133.597 164.352 133.541 164.268C133.494 164.175 133.471 164.035 133.471 163.848C133.471 163.671 133.494 163.54 133.541 163.456C133.597 163.372 133.681 163.316 133.793 163.288C133.905 163.26 134.045 163.246 134.213 163.246C134.586 163.246 134.899 163.19 135.151 163.078C135.412 162.957 135.608 162.803 135.739 162.616C135.87 162.42 135.935 162.21 135.935 161.986C135.935 161.678 135.86 161.407 135.711 161.174C135.571 160.931 135.366 160.745 135.095 160.614C134.834 160.483 134.53 160.418 134.185 160.418C133.886 160.418 133.62 160.46 133.387 160.544C133.163 160.619 132.958 160.731 132.771 160.88C132.594 161.029 132.426 161.221 132.267 161.454C132.136 161.659 132.01 161.781 131.889 161.818C131.768 161.846 131.595 161.795 131.371 161.664C131.222 161.561 131.124 161.459 131.077 161.356C131.04 161.253 131.054 161.127 131.119 160.978C131.166 160.885 131.236 160.768 131.329 160.628C131.422 160.479 131.548 160.325 131.707 160.166C131.866 160.007 132.057 159.858 132.281 159.718C132.505 159.578 132.766 159.466 133.065 159.382C133.373 159.289 133.728 159.242 134.129 159.242C134.605 159.242 135.034 159.317 135.417 159.466C135.809 159.606 136.136 159.802 136.397 160.054C136.658 160.306 136.859 160.595 136.999 160.922C137.139 161.239 137.209 161.575 137.209 161.93C137.209 162.229 137.148 162.509 137.027 162.77C136.915 163.031 136.761 163.255 136.565 163.442C136.369 163.619 136.168 163.759 135.963 163.862C136.215 163.946 136.439 164.077 136.635 164.254C136.831 164.422 136.994 164.613 137.125 164.828C137.265 165.043 137.368 165.267 137.433 165.5C137.508 165.733 137.545 165.953 137.545 166.158C137.545 166.737 137.396 167.255 137.097 167.712C136.808 168.169 136.402 168.533 135.879 168.804C135.356 169.065 134.75 169.196 134.059 169.196ZM142.136 169.21C141.482 169.21 140.904 169.089 140.4 168.846C139.905 168.594 139.513 168.249 139.224 167.81C138.944 167.362 138.804 166.844 138.804 166.256C138.804 166.023 138.836 165.794 138.902 165.57C138.967 165.346 139.051 165.141 139.154 164.954C139.256 164.758 139.373 164.585 139.504 164.436C139.634 164.287 139.765 164.165 139.896 164.072C140.036 163.969 140.162 163.895 140.274 163.848C140.162 163.801 140.04 163.717 139.91 163.596C139.779 163.465 139.653 163.311 139.532 163.134C139.41 162.957 139.312 162.761 139.238 162.546C139.163 162.331 139.126 162.103 139.126 161.86C139.126 161.337 139.252 160.88 139.504 160.488C139.765 160.087 140.12 159.774 140.568 159.55C141.025 159.317 141.548 159.2 142.136 159.2C142.705 159.2 143.209 159.317 143.648 159.55C144.086 159.774 144.427 160.087 144.67 160.488C144.922 160.889 145.048 161.351 145.048 161.874C145.048 162.061 145.024 162.243 144.978 162.42C144.931 162.588 144.87 162.751 144.796 162.91C144.721 163.059 144.632 163.199 144.53 163.33C144.436 163.451 144.338 163.559 144.236 163.652C144.142 163.745 144.049 163.811 143.956 163.848C144.068 163.895 144.189 163.969 144.32 164.072C144.45 164.175 144.576 164.301 144.698 164.45C144.819 164.599 144.931 164.772 145.034 164.968C145.146 165.155 145.23 165.36 145.286 165.584C145.342 165.799 145.37 166.023 145.37 166.256C145.37 166.704 145.286 167.11 145.118 167.474C144.959 167.838 144.73 168.151 144.432 168.412C144.142 168.664 143.797 168.86 143.396 169C143.004 169.14 142.584 169.21 142.136 169.21ZM142.108 168.09C142.509 168.09 142.859 168.015 143.158 167.866C143.466 167.707 143.699 167.493 143.858 167.222C144.026 166.951 144.11 166.634 144.11 166.27C144.11 165.897 144.026 165.575 143.858 165.304C143.699 165.033 143.466 164.823 143.158 164.674C142.85 164.515 142.49 164.436 142.08 164.436C141.678 164.436 141.324 164.515 141.016 164.674C140.717 164.823 140.484 165.033 140.316 165.304C140.148 165.575 140.064 165.897 140.064 166.27C140.064 166.634 140.148 166.951 140.316 167.222C140.484 167.493 140.722 167.707 141.03 167.866C141.338 168.015 141.697 168.09 142.108 168.09ZM142.108 163.4C142.453 163.4 142.747 163.339 142.99 163.218C143.242 163.087 143.438 162.905 143.578 162.672C143.718 162.439 143.788 162.168 143.788 161.86C143.788 161.552 143.718 161.286 143.578 161.062C143.438 160.838 143.242 160.665 142.99 160.544C142.738 160.423 142.439 160.362 142.094 160.362C141.758 160.362 141.464 160.423 141.212 160.544C140.96 160.665 140.764 160.838 140.624 161.062C140.484 161.286 140.414 161.552 140.414 161.86C140.414 162.168 140.484 162.439 140.624 162.672C140.764 162.905 140.96 163.087 141.212 163.218C141.473 163.339 141.772 163.4 142.108 163.4ZM147.492 169.126C147.38 169.126 147.282 169.107 147.198 169.07C147.114 169.042 147.049 168.986 147.002 168.902C146.955 168.809 146.932 168.673 146.932 168.496C146.932 168.309 146.955 168.174 147.002 168.09C147.058 167.997 147.133 167.936 147.226 167.908C147.319 167.88 147.431 167.866 147.562 167.866C148.047 167.866 148.491 167.805 148.892 167.684C149.293 167.563 149.653 167.39 149.97 167.166C150.297 166.933 150.572 166.662 150.796 166.354C151.029 166.037 151.202 165.687 151.314 165.304C151.435 164.912 151.501 164.501 151.51 164.072L151.734 163.876C151.65 164.1 151.505 164.31 151.3 164.506C151.095 164.693 150.838 164.842 150.53 164.954C150.231 165.066 149.895 165.122 149.522 165.122C148.943 165.122 148.435 165.001 147.996 164.758C147.557 164.515 147.217 164.179 146.974 163.75C146.741 163.321 146.624 162.835 146.624 162.294C146.624 161.697 146.745 161.169 146.988 160.712C147.24 160.255 147.59 159.9 148.038 159.648C148.495 159.387 149.032 159.256 149.648 159.256C150.32 159.256 150.894 159.405 151.37 159.704C151.855 160.003 152.224 160.437 152.476 161.006C152.737 161.575 152.868 162.28 152.868 163.12C152.868 163.848 152.784 164.52 152.616 165.136C152.457 165.752 152.219 166.307 151.902 166.802C151.594 167.287 151.221 167.707 150.782 168.062C150.343 168.407 149.844 168.673 149.284 168.86C148.733 169.037 148.136 169.126 147.492 169.126ZM149.606 163.974C150.017 163.974 150.362 163.904 150.642 163.764C150.931 163.615 151.151 163.409 151.3 163.148C151.459 162.887 151.538 162.588 151.538 162.252C151.538 161.879 151.463 161.557 151.314 161.286C151.174 161.015 150.969 160.805 150.698 160.656C150.427 160.497 150.096 160.418 149.704 160.418C149.303 160.418 148.962 160.493 148.682 160.642C148.411 160.791 148.201 161.001 148.052 161.272C147.912 161.533 147.842 161.846 147.842 162.21C147.842 162.555 147.912 162.863 148.052 163.134C148.192 163.395 148.393 163.601 148.654 163.75C148.925 163.899 149.242 163.974 149.606 163.974ZM157.602 169.196C157.117 169.196 156.669 169.126 156.258 168.986C155.847 168.837 155.483 168.636 155.166 168.384C154.858 168.123 154.615 167.829 154.438 167.502C154.261 167.175 154.158 166.835 154.13 166.48C154.13 166.153 154.349 165.99 154.788 165.99C154.947 165.99 155.063 166.009 155.138 166.046C155.213 166.083 155.269 166.149 155.306 166.242C155.343 166.326 155.381 166.447 155.418 166.606C155.521 166.886 155.675 167.133 155.88 167.348C156.085 167.553 156.333 167.717 156.622 167.838C156.921 167.95 157.252 168.006 157.616 168.006C158.055 168.006 158.437 167.927 158.764 167.768C159.1 167.609 159.361 167.395 159.548 167.124C159.735 166.844 159.828 166.531 159.828 166.186C159.828 165.85 159.735 165.551 159.548 165.29C159.371 165.029 159.123 164.828 158.806 164.688C158.498 164.548 158.143 164.478 157.742 164.478C157.583 164.478 157.448 164.464 157.336 164.436C157.224 164.408 157.14 164.352 157.084 164.268C157.037 164.175 157.014 164.035 157.014 163.848C157.014 163.671 157.037 163.54 157.084 163.456C157.14 163.372 157.224 163.316 157.336 163.288C157.448 163.26 157.588 163.246 157.756 163.246C158.129 163.246 158.442 163.19 158.694 163.078C158.955 162.957 159.151 162.803 159.282 162.616C159.413 162.42 159.478 162.21 159.478 161.986C159.478 161.678 159.403 161.407 159.254 161.174C159.114 160.931 158.909 160.745 158.638 160.614C158.377 160.483 158.073 160.418 157.728 160.418C157.429 160.418 157.163 160.46 156.93 160.544C156.706 160.619 156.501 160.731 156.314 160.88C156.137 161.029 155.969 161.221 155.81 161.454C155.679 161.659 155.553 161.781 155.432 161.818C155.311 161.846 155.138 161.795 154.914 161.664C154.765 161.561 154.667 161.459 154.62 161.356C154.583 161.253 154.597 161.127 154.662 160.978C154.709 160.885 154.779 160.768 154.872 160.628C154.965 160.479 155.091 160.325 155.25 160.166C155.409 160.007 155.6 159.858 155.824 159.718C156.048 159.578 156.309 159.466 156.608 159.382C156.916 159.289 157.271 159.242 157.672 159.242C158.148 159.242 158.577 159.317 158.96 159.466C159.352 159.606 159.679 159.802 159.94 160.054C160.201 160.306 160.402 160.595 160.542 160.922C160.682 161.239 160.752 161.575 160.752 161.93C160.752 162.229 160.691 162.509 160.57 162.77C160.458 163.031 160.304 163.255 160.108 163.442C159.912 163.619 159.711 163.759 159.506 163.862C159.758 163.946 159.982 164.077 160.178 164.254C160.374 164.422 160.537 164.613 160.668 164.828C160.808 165.043 160.911 165.267 160.976 165.5C161.051 165.733 161.088 165.953 161.088 166.158C161.088 166.737 160.939 167.255 160.64 167.712C160.351 168.169 159.945 168.533 159.422 168.804C158.899 169.065 158.293 169.196 157.602 169.196Z" fill="black"/>
<path d="M41.875 27.2383H55.1238V51.0441H41.875V27.2383Z" fill="#FF5F00"/>
<path d="M32.9197 63.0266V60.5031C32.9197 59.5355 32.3307 58.9048 31.3212 58.9048C30.8165 58.9048 30.2697 59.073 29.8911 59.6198C29.5968 59.1571 29.1763 58.9048 28.5454 58.9048C28.1246 58.9048 27.7043 59.0309 27.3676 59.4936V58.9889H26.4844V63.0266H27.3676V60.7974C27.3676 60.0825 27.7462 59.7459 28.3352 59.7459C28.9238 59.7459 29.2184 60.1245 29.2184 60.7974V63.0266H30.1017V60.7974C30.1017 60.0825 30.522 59.7459 31.0689 59.7459C31.6578 59.7459 31.9521 60.1245 31.9521 60.7974V63.0266H32.9197ZM46 58.9889H44.5702V57.7692H43.6869V58.9889H42.8878V59.7879H43.6867V61.6387C43.6867 62.5641 44.0653 63.1107 45.0748 63.1107C45.4534 63.1107 45.8738 62.9846 46.1684 62.8164L45.9159 62.0592C45.6636 62.2274 45.3693 62.2696 45.1589 62.2696C44.7384 62.2696 44.5702 62.0173 44.5702 61.5965V59.7879H46V58.9889ZM53.4868 58.9046C52.9821 58.9046 52.6457 59.1571 52.4353 59.4936V58.9889H51.5521V63.0266H52.4353V60.7554C52.4353 60.0825 52.7296 59.7039 53.2764 59.7039C53.4446 59.7039 53.655 59.7461 53.8232 59.7881L54.0756 58.9469C53.9073 58.9048 53.655 58.9046 53.4868 58.9046ZM42.1727 59.3253C41.752 59.0309 41.1632 58.9048 40.5323 58.9048C39.523 58.9048 38.8501 59.4095 38.8501 60.2086C38.8501 60.8817 39.3548 61.2601 40.238 61.3863L40.6586 61.4285C41.1213 61.5124 41.3736 61.6387 41.3736 61.849C41.3736 62.1433 41.0372 62.3537 40.4482 62.3537C39.8594 62.3537 39.3967 62.1433 39.1022 61.9331L38.6817 62.606C39.1444 62.9425 39.7753 63.1107 40.406 63.1107C41.5838 63.1107 42.2568 62.5641 42.2568 61.8069C42.2568 61.0919 41.71 60.7133 40.8687 60.5872L40.4482 60.545C40.0696 60.5029 39.7753 60.419 39.7753 60.1666C39.7753 59.8722 40.0696 59.7039 40.5323 59.7039C41.0372 59.7039 41.5418 59.9141 41.7941 60.0404L42.1727 59.3253ZM65.6421 58.9048C65.1373 58.9048 64.8008 59.1571 64.5905 59.4936V58.9889H63.7072V63.0266H64.5905V60.7554C64.5905 60.0825 64.885 59.7039 65.4316 59.7039C65.6 59.7039 65.8104 59.7461 65.9786 59.7881L66.2309 58.9469C66.0627 58.9048 65.8104 58.9048 65.6421 58.9048ZM54.37 61.0077C54.37 62.2274 55.2111 63.1107 56.5151 63.1107C57.1039 63.1107 57.5245 62.9846 57.945 62.6482L57.5245 61.9331C57.188 62.1855 56.8516 62.3115 56.473 62.3115C55.758 62.3115 55.2533 61.8069 55.2533 61.0077C55.2533 60.2508 55.758 59.7459 56.473 59.7039C56.8516 59.7039 57.188 59.83 57.5245 60.0825L57.945 59.3675C57.5245 59.0309 57.1039 58.9048 56.5151 58.9048C55.2111 58.9048 54.37 59.7881 54.37 61.0077ZM62.5297 61.0077V58.9889H61.6464V59.4936C61.352 59.1152 60.9314 58.9048 60.3846 58.9048C59.249 58.9048 58.3658 59.7881 58.3658 61.0077C58.3658 62.2274 59.249 63.1107 60.3846 63.1107C60.9734 63.1107 61.3941 62.9005 61.6464 62.5219V63.0266H62.5297V61.0077ZM59.291 61.0077C59.291 60.2927 59.7537 59.7039 60.5107 59.7039C61.2257 59.7039 61.7305 60.2508 61.7305 61.0077C61.7305 61.7228 61.2257 62.3115 60.5107 62.3115C59.7537 62.2694 59.291 61.7228 59.291 61.0077ZM48.7341 58.9048C47.5564 58.9048 46.7151 59.7459 46.7151 61.0077C46.7151 62.2696 47.5562 63.1107 48.776 63.1107C49.3648 63.1107 49.9538 62.9425 50.4165 62.5641L49.9957 61.9331C49.6593 62.1855 49.2388 62.3537 48.8182 62.3537C48.2714 62.3537 47.7246 62.1014 47.5983 61.3861H50.5847V61.0499C50.6269 59.7459 49.8699 58.9048 48.7341 58.9048ZM48.7341 59.6618C49.2807 59.6618 49.6595 59.9984 49.7434 60.6293H47.6405C47.7246 60.0825 48.1032 59.6618 48.7341 59.6618ZM70.6472 61.0077V57.3906H69.7639V59.4936C69.4694 59.1152 69.0489 58.9048 68.5021 58.9048C67.3665 58.9048 66.4832 59.7881 66.4832 61.0077C66.4832 62.2274 67.3665 63.1107 68.5021 63.1107C69.091 63.1107 69.5116 62.9005 69.7639 62.5219V63.0266H70.6472V61.0077ZM67.4086 61.0077C67.4086 60.2927 67.8712 59.7039 68.6283 59.7039C69.3434 59.7039 69.848 60.2508 69.848 61.0077C69.848 61.7228 69.3434 62.3115 68.6283 62.3115C67.8712 62.2694 67.4086 61.7228 67.4086 61.0077ZM37.8825 61.0077V58.9889H36.9993V59.4936C36.7048 59.1152 36.2843 58.9048 35.7374 58.9048C34.6019 58.9048 33.7186 59.7881 33.7186 61.0077C33.7186 62.2274 34.6019 63.1107 35.7374 63.1107C36.3264 63.1107 36.747 62.9005 36.9993 62.5219V63.0266H37.8825V61.0077ZM34.6019 61.0077C34.6019 60.2927 35.0646 59.7039 35.8216 59.7039C36.5366 59.7039 37.0414 60.2508 37.0414 61.0077C37.0414 61.7228 36.5366 62.3115 35.8216 62.3115C35.0646 62.2694 34.6019 61.7228 34.6019 61.0077Z" fill="black"/>
<path d="M42.7167 39.1415C42.7167 34.3047 44.9879 30.0145 48.4787 27.2385C45.9133 25.2197 42.6747 24 39.1417 24C30.7715 24 24 30.7715 24 39.1415C24 47.5114 30.7715 54.2831 39.1415 54.2831C42.6746 54.2831 45.9131 53.0634 48.4787 51.0444C44.9879 48.3105 42.7167 43.9784 42.7167 39.1415Z" fill="#EB001B"/>
<path d="M73.0022 39.1415C73.0022 47.5114 66.2306 54.2831 57.8606 54.2831C54.3276 54.2831 51.0891 53.0634 48.5234 51.0444C52.0564 48.2686 54.2857 43.9784 54.2857 39.1415C54.2857 34.3047 52.0143 30.0145 48.5234 27.2385C51.0889 25.2197 54.3276 24 57.8606 24C66.2306 24 73.0022 30.8137 73.0022 39.1415Z" fill="#F79E1B"/>
<path d="M37.0313 141.216C36.4393 141.216 36.0152 141.128 35.7592 140.952C35.5192 140.776 35.3673 140.544 35.3033 140.256C35.2393 139.968 35.2073 139.672 35.2073 139.368V126.264C35.2073 125.944 35.2393 125.648 35.3033 125.376C35.3673 125.104 35.5273 124.88 35.7833 124.704C36.0393 124.528 36.4633 124.44 37.0553 124.44C37.6473 124.44 38.0633 124.528 38.3033 124.704C38.5593 124.88 38.7112 125.104 38.7592 125.376C38.8232 125.648 38.8552 125.952 38.8552 126.288V139.392C38.8552 139.696 38.8232 139.992 38.7592 140.28C38.7112 140.552 38.5593 140.776 38.3033 140.952C38.0473 141.128 37.6233 141.216 37.0313 141.216ZM26.8553 141.216C26.2633 141.216 25.8393 141.128 25.5833 140.952C25.3273 140.776 25.1673 140.544 25.1033 140.256C25.0553 139.968 25.0312 139.672 25.0312 139.368V126.264C25.0312 125.944 25.0633 125.648 25.1273 125.376C25.1913 125.104 25.3433 124.88 25.5833 124.704C25.8393 124.528 26.2712 124.44 26.8792 124.44C27.4712 124.44 27.8873 124.528 28.1273 124.704C28.3833 124.88 28.5353 125.104 28.5833 125.376C28.6473 125.648 28.6793 125.952 28.6793 126.288V139.392C28.6793 139.696 28.6473 139.992 28.5833 140.28C28.5353 140.552 28.3833 140.776 28.1273 140.952C27.8713 141.128 27.4473 141.216 26.8553 141.216ZM28.1033 134.352V131.184H35.5912V134.352H28.1033ZM50.6658 141.192C50.0738 141.192 49.6338 141.088 49.3458 140.88C49.0738 140.672 48.9378 140.416 48.9378 140.112L49.1779 139.704C49.0819 139.864 48.8978 140.064 48.6258 140.304C48.3538 140.528 48.0018 140.736 47.5698 140.928C47.1378 141.104 46.6019 141.192 45.9619 141.192C45.2259 141.192 44.5219 141.032 43.8499 140.712C43.1939 140.392 42.6098 139.952 42.0978 139.392C41.5858 138.816 41.1778 138.168 40.8738 137.448C40.5858 136.728 40.4419 135.968 40.4419 135.168C40.4419 134.384 40.5858 133.64 40.8738 132.936C41.1778 132.216 41.5858 131.584 42.0978 131.04C42.6258 130.48 43.2178 130.04 43.8738 129.72C44.5298 129.4 45.2259 129.24 45.9619 129.24C46.5539 129.24 47.0579 129.328 47.4739 129.504C47.8899 129.664 48.2338 129.856 48.5058 130.08C48.7938 130.304 49.0098 130.52 49.1538 130.728L48.9619 130.392C48.9459 130.008 49.0738 129.72 49.3458 129.528C49.6338 129.32 50.0819 129.216 50.6899 129.216C51.2659 129.216 51.6739 129.304 51.9139 129.48C52.1699 129.656 52.3219 129.888 52.3699 130.176C52.4339 130.464 52.4658 130.768 52.4658 131.088V139.368C52.4658 139.672 52.4339 139.968 52.3699 140.256C52.3219 140.544 52.1699 140.776 51.9139 140.952C51.6739 141.112 51.2578 141.192 50.6658 141.192ZM46.4899 137.616C46.9059 137.616 47.2818 137.512 47.6178 137.304C47.9698 137.08 48.2419 136.784 48.4339 136.416C48.6419 136.048 48.7459 135.64 48.7459 135.192C48.7459 134.728 48.6419 134.32 48.4339 133.968C48.2259 133.6 47.9459 133.312 47.5939 133.104C47.2419 132.88 46.8579 132.768 46.4419 132.768C45.9779 132.768 45.5618 132.88 45.1938 133.104C44.8418 133.328 44.5539 133.624 44.3299 133.992C44.1219 134.36 44.0179 134.776 44.0179 135.24C44.0179 135.672 44.1219 136.072 44.3299 136.44C44.5539 136.792 44.8499 137.08 45.2179 137.304C45.6019 137.512 46.0259 137.616 46.4899 137.616ZM56.3174 141.216C55.7254 141.216 55.3014 141.136 55.0454 140.976C54.8054 140.8 54.6533 140.576 54.5893 140.304C54.5413 140.016 54.5174 139.72 54.5174 139.416V131.04C54.5174 130.72 54.5413 130.424 54.5893 130.152C54.6533 129.88 54.8133 129.664 55.0693 129.504C55.3253 129.328 55.7493 129.24 56.3413 129.24C56.9173 129.24 57.3254 129.328 57.5654 129.504C57.8214 129.68 57.9733 129.904 58.0213 130.176C58.0853 130.448 58.1173 130.752 58.1173 131.088V139.44C58.1173 139.744 58.0853 140.04 58.0213 140.328C57.9733 140.6 57.8214 140.816 57.5654 140.976C57.3254 141.136 56.9094 141.216 56.3174 141.216ZM56.3174 127.488C55.7094 127.488 55.2773 127.4 55.0213 127.224C54.7653 127.048 54.6053 126.816 54.5413 126.528C54.4933 126.24 54.4694 125.936 54.4694 125.616C54.4694 125.28 54.5014 124.976 54.5654 124.704C54.6294 124.416 54.7894 124.192 55.0454 124.032C55.3014 123.856 55.7333 123.768 56.3413 123.768C56.9333 123.768 57.3573 123.856 57.6133 124.032C57.8693 124.208 58.0214 124.44 58.0694 124.728C58.1334 125.016 58.1654 125.32 58.1654 125.64C58.1654 125.96 58.1334 126.264 58.0694 126.552C58.0214 126.84 57.8693 127.072 57.6133 127.248C57.3573 127.408 56.9254 127.488 56.3174 127.488ZM65.3459 141.192C64.6259 141.192 63.9299 141.04 63.2579 140.736C62.6019 140.416 62.0179 139.976 61.5059 139.416C60.9939 138.856 60.5859 138.216 60.2819 137.496C59.9939 136.76 59.8499 135.984 59.8499 135.168C59.8499 134.384 59.9939 133.64 60.2819 132.936C60.5859 132.216 60.9939 131.584 61.5059 131.04C62.0339 130.48 62.6259 130.04 63.2819 129.72C63.9379 129.4 64.6259 129.24 65.3459 129.24C66.1139 129.24 66.7859 129.4 67.3619 129.72C67.9539 130.024 68.4499 130.448 68.8499 130.992C69.2499 131.536 69.5459 132.168 69.7379 132.888C69.9459 133.608 70.0579 134.36 70.0739 135.144C70.0899 135.96 69.9939 136.728 69.7859 137.448C69.5939 138.168 69.2979 138.808 68.8979 139.368C68.4979 139.928 68.0019 140.376 67.4099 140.712C66.8339 141.032 66.1459 141.192 65.3459 141.192ZM65.8259 137.64C66.2579 137.64 66.6419 137.536 66.9779 137.328C67.3299 137.104 67.6099 136.808 67.8179 136.44C68.0419 136.072 68.1539 135.664 68.1539 135.216C68.1539 134.752 68.0499 134.344 67.8419 133.992C67.6339 133.624 67.3539 133.336 67.0019 133.128C66.6499 132.92 66.2498 132.816 65.8018 132.816C65.3698 132.816 64.9699 132.92 64.6019 133.128C64.2499 133.336 63.9698 133.624 63.7618 133.992C63.5698 134.344 63.4739 134.752 63.4739 135.216C63.4739 135.664 63.5779 136.072 63.7859 136.44C63.9939 136.808 64.2818 137.104 64.6498 137.328C65.0178 137.536 65.4099 137.64 65.8259 137.64ZM70.0259 141.216C69.4819 141.216 69.0738 141.128 68.8018 140.952C68.5298 140.776 68.3538 140.504 68.2738 140.136V125.592C68.2738 125.288 68.2899 125 68.3219 124.728C68.3699 124.44 68.5139 124.208 68.7539 124.032C68.9939 123.856 69.4099 123.768 70.0019 123.768C70.5939 123.768 71.0099 123.856 71.2499 124.032C71.5059 124.192 71.6578 124.408 71.7058 124.68C71.7698 124.952 71.8018 125.248 71.8018 125.568V139.392C71.8018 139.696 71.7698 139.992 71.7058 140.28C71.6578 140.552 71.5059 140.776 71.2499 140.952C71.0099 141.128 70.6019 141.216 70.0259 141.216ZM79.7322 141.432C78.6122 141.432 77.6442 141.248 76.8282 140.88C76.0282 140.512 75.3722 140.032 74.8602 139.44C74.3482 138.832 73.9642 138.16 73.7082 137.424C73.4682 136.688 73.3482 135.952 73.3482 135.216C73.3482 134.016 73.6202 132.952 74.1642 132.024C74.7082 131.096 75.4602 130.368 76.4202 129.84C77.3802 129.296 78.4842 129.024 79.7322 129.024C80.6602 129.024 81.4601 129.176 82.1321 129.48C82.8201 129.768 83.3801 130.152 83.8121 130.632C84.2601 131.096 84.5882 131.6 84.7962 132.144C85.0202 132.688 85.1321 133.208 85.1321 133.704C85.1321 134.584 84.9162 135.24 84.4842 135.672C84.0682 136.088 83.5322 136.296 82.8762 136.296H77.1642C77.1962 136.712 77.3402 137.064 77.5962 137.352C77.8682 137.64 78.2041 137.864 78.6041 138.024C79.0041 138.184 79.4282 138.264 79.8762 138.264C80.2602 138.264 80.5962 138.248 80.8842 138.216C81.1722 138.168 81.4202 138.112 81.6282 138.048C81.8362 137.968 82.0282 137.896 82.2042 137.832C82.3802 137.752 82.5321 137.688 82.6601 137.64C82.8041 137.592 82.9402 137.56 83.0682 137.544C83.3082 137.528 83.5242 137.6 83.7162 137.76C83.9242 137.904 84.1082 138.128 84.2682 138.432C84.3802 138.608 84.4522 138.776 84.4842 138.936C84.5322 139.096 84.5562 139.256 84.5562 139.416C84.5562 139.8 84.3562 140.144 83.9562 140.448C83.5722 140.752 83.0202 140.992 82.3002 141.168C81.5962 141.344 80.7402 141.432 79.7322 141.432ZM77.1642 134.328H80.9562C81.2122 134.328 81.3962 134.288 81.5082 134.208C81.6362 134.112 81.7001 133.936 81.7001 133.68C81.7001 133.392 81.6121 133.144 81.4361 132.936C81.2601 132.712 81.0202 132.544 80.7162 132.432C80.4282 132.304 80.0922 132.24 79.7082 132.24C79.2122 132.24 78.7722 132.336 78.3882 132.528C78.0042 132.72 77.7002 132.976 77.4762 133.296C77.2682 133.616 77.1642 133.96 77.1642 134.328ZM88.4707 141.216C87.8787 141.216 87.4548 141.136 87.1988 140.976C86.9588 140.8 86.8068 140.568 86.7428 140.28C86.6948 139.992 86.6708 139.696 86.6708 139.392V131.016C86.6708 130.696 86.7028 130.4 86.7668 130.128C86.8308 129.856 86.9828 129.64 87.2228 129.48C87.4788 129.304 87.9028 129.216 88.4948 129.216C89.0548 129.216 89.4548 129.296 89.6948 129.456C89.9508 129.6 90.1108 129.776 90.1748 129.984C90.2388 130.176 90.2708 130.344 90.2708 130.488L89.9827 130.632C90.0147 130.568 90.0948 130.456 90.2228 130.296C90.3668 130.12 90.5588 129.944 90.7988 129.768C91.0388 129.576 91.3268 129.416 91.6628 129.288C92.0148 129.16 92.4148 129.096 92.8628 129.096C93.0388 129.096 93.2308 129.112 93.4388 129.144C93.6628 129.16 93.8868 129.208 94.1108 129.288C94.3508 129.352 94.5668 129.448 94.7588 129.576C94.9508 129.688 95.1028 129.832 95.2148 130.008C95.3428 130.184 95.4068 130.4 95.4068 130.656C95.4068 131.312 95.2548 131.872 94.9508 132.336C94.6468 132.784 94.2628 133.008 93.7988 133.008C93.5268 133.008 93.3348 132.984 93.2228 132.936C93.1108 132.888 93.0148 132.84 92.9348 132.792C92.8708 132.744 92.7908 132.704 92.6948 132.672C92.5988 132.624 92.4228 132.6 92.1668 132.6C91.9268 132.6 91.6947 132.632 91.4707 132.696C91.2627 132.76 91.0628 132.864 90.8708 133.008C90.6948 133.136 90.5508 133.304 90.4388 133.512C90.3428 133.704 90.2948 133.92 90.2948 134.16V139.44C90.2948 139.744 90.2628 140.04 90.1988 140.328C90.1508 140.6 89.9988 140.816 89.7428 140.976C89.4868 141.136 89.0627 141.216 88.4707 141.216ZM117.597 138.672C117.789 139.072 117.893 139.416 117.909 139.704C117.925 139.976 117.837 140.224 117.645 140.448C117.469 140.656 117.173 140.864 116.757 141.072C116.117 141.376 115.621 141.464 115.269 141.336C114.917 141.224 114.589 140.848 114.285 140.208L109.581 130.368L104.901 140.208C104.581 140.832 104.245 141.2 103.893 141.312C103.557 141.44 103.069 141.352 102.429 141.048C102.013 140.856 101.709 140.656 101.517 140.448C101.341 140.224 101.261 139.968 101.277 139.68C101.293 139.376 101.405 139.024 101.613 138.624L107.925 125.496C108.085 125.176 108.317 124.92 108.621 124.728C108.941 124.536 109.269 124.44 109.605 124.44C109.845 124.44 110.069 124.488 110.277 124.584C110.485 124.664 110.669 124.784 110.829 124.944C111.005 125.104 111.149 125.296 111.261 125.52L117.597 138.672ZM105.549 137.304L107.037 134.208H112.149L113.637 137.304H105.549ZM123.224 141.216C122.568 141.216 121.984 141.176 121.472 141.096C120.976 141.032 120.544 140.904 120.176 140.712C119.824 140.52 119.536 140.256 119.312 139.92C119.088 139.584 118.92 139.152 118.808 138.624C118.712 138.08 118.664 137.416 118.664 136.632V125.544C118.664 125.224 118.688 124.928 118.736 124.656C118.8 124.384 118.96 124.16 119.216 123.984C119.472 123.808 119.888 123.72 120.464 123.72C121.04 123.72 121.448 123.808 121.688 123.984C121.944 124.16 122.104 124.384 122.168 124.656C122.232 124.928 122.264 125.224 122.264 125.544V136.464C122.264 136.72 122.272 136.936 122.288 137.112C122.32 137.272 122.368 137.4 122.432 137.496C122.512 137.592 122.616 137.656 122.744 137.688C122.872 137.72 123.04 137.736 123.248 137.736C123.44 137.736 123.632 137.76 123.824 137.808C124.032 137.856 124.208 138 124.352 138.24C124.496 138.48 124.568 138.88 124.568 139.44C124.568 140.016 124.496 140.432 124.352 140.688C124.208 140.944 124.032 141.096 123.824 141.144C123.632 141.192 123.432 141.216 123.224 141.216ZM127.755 141.216C127.163 141.216 126.739 141.136 126.483 140.976C126.243 140.8 126.091 140.576 126.027 140.304C125.979 140.016 125.955 139.72 125.955 139.416V131.04C125.955 130.72 125.979 130.424 126.027 130.152C126.091 129.88 126.251 129.664 126.507 129.504C126.763 129.328 127.187 129.24 127.779 129.24C128.355 129.24 128.763 129.328 129.003 129.504C129.259 129.68 129.411 129.904 129.459 130.176C129.523 130.448 129.555 130.752 129.555 131.088V139.44C129.555 139.744 129.523 140.04 129.459 140.328C129.411 140.6 129.259 140.816 129.003 140.976C128.763 141.136 128.347 141.216 127.755 141.216ZM127.755 127.488C127.147 127.488 126.715 127.4 126.459 127.224C126.203 127.048 126.043 126.816 125.979 126.528C125.931 126.24 125.907 125.936 125.907 125.616C125.907 125.28 125.939 124.976 126.003 124.704C126.067 124.416 126.227 124.192 126.483 124.032C126.739 123.856 127.171 123.768 127.779 123.768C128.371 123.768 128.795 123.856 129.051 124.032C129.307 124.208 129.459 124.44 129.507 124.728C129.571 125.016 129.603 125.32 129.603 125.64C129.603 125.96 129.571 126.264 129.507 126.552C129.459 126.84 129.307 127.072 129.051 127.248C128.795 127.408 128.363 127.488 127.755 127.488Z" fill="#F05C5C"/>
<mask id="mask1_5568_129990" style="mask-type:luminance" maskUnits="userSpaceOnUse" x="295" y="24" width="24" height="24">
<path d="M319 24H295V48H319V24Z" fill="white"/>
</mask>
<g mask="url(#mask1_5568_129990)">
<path d="M316 28H312.9C312.668 26.8714 312.054 25.8573 311.161 25.1287C310.269 24.4001 309.152 24.0015 308 24H306C304.848 24.0015 303.731 24.4001 302.839 25.1287C301.946 25.8573 301.332 26.8714 301.1 28H298C297.735 28 297.48 28.1054 297.293 28.2929C297.105 28.4804 297 28.7348 297 29C297 29.2652 297.105 29.5196 297.293 29.7071C297.48 29.8946 297.735 30 298 30H299V43C299.002 44.3256 299.529 45.5964 300.466 46.5338C301.404 47.4711 302.674 47.9984 304 48H310C311.326 47.9984 312.596 47.4711 313.534 46.5338C314.471 45.5964 314.998 44.3256 315 43V30H316C316.265 30 316.52 29.8946 316.707 29.7071C316.895 29.5196 317 29.2652 317 29C317 28.7348 316.895 28.4804 316.707 28.2929C316.52 28.1054 316.265 28 316 28ZM306 26H308C308.62 26.0008 309.225 26.1934 309.732 26.5514C310.238 26.9095 310.621 27.4155 310.829 28H303.171C303.379 27.4155 303.762 26.9095 304.268 26.5514C304.775 26.1934 305.38 26.0008 306 26ZM313 43C313 43.7956 312.684 44.5587 312.121 45.1213C311.559 45.6839 310.796 46 310 46H304C303.204 46 302.441 45.6839 301.879 45.1213C301.316 44.5587 301 43.7956 301 43V30H313V43Z" fill="#F05C5C"/>
<path d="M305 42C305.265 42 305.52 41.8946 305.707 41.7071C305.895 41.5196 306 41.2652 306 41V35C306 34.7348 305.895 34.4804 305.707 34.2929C305.52 34.1054 305.265 34 305 34C304.735 34 304.48 34.1054 304.293 34.2929C304.105 34.4804 304 34.7348 304 35V41C304 41.2652 304.105 41.5196 304.293 41.7071C304.48 41.8946 304.735 42 305 42Z" fill="#F05C5C"/>
<path d="M309 42C309.265 42 309.52 41.8946 309.707 41.7071C309.895 41.5196 310 41.2652 310 41V35C310 34.7348 309.895 34.4804 309.707 34.2929C309.52 34.1054 309.265 34 309 34C308.735 34 308.48 34.1054 308.293 34.2929C308.105 34.4804 308 34.7348 308 35V41C308 41.2652 308.105 41.5196 308.293 41.7071C308.48 41.8946 308.735 42 309 42Z" fill="#F05C5C"/>
</g>
</g>
<defs>
<clipPath id="clip0_5568_129990">
<rect width="343" height="200" fill="white"/>
</clipPath>
</defs>
</svg>
