<svg width="75" height="75" viewBox="0 0 75 75" fill="none" xmlns="http://www.w3.org/2000/svg">
<g id="Milestone" clip-path="url(#clip0_5374_207848)">
<path id="Vector" d="M37.5 21.875C28.8844 21.875 21.875 28.8844 21.875 37.5C21.875 46.1156 28.8844 53.125 37.5 53.125C46.1156 53.125 53.125 46.1156 53.125 37.5C53.125 28.8844 46.1156 21.875 37.5 21.875ZM37.5 46.875C32.3312 46.875 28.125 42.6688 28.125 37.5C28.125 32.3312 32.3312 28.125 37.5 28.125C42.6688 28.125 46.875 32.3312 46.875 37.5C46.875 42.6688 42.6688 46.875 37.5 46.875ZM71.875 34.375H68.5938C67.1219 19.6344 55.3656 7.875 40.625 6.40625V3.125C40.625 1.39688 39.225 0 37.5 0C35.775 0 34.375 1.39688 34.375 3.125V6.40625C19.6344 7.875 7.875 19.6344 6.40625 34.375H3.125C1.4 34.375 0 35.7719 0 37.5C0 39.2281 1.4 40.625 3.125 40.625H6.40625C7.87812 55.3656 19.6344 67.125 34.375 68.5938V71.875C34.375 73.6031 35.775 75 37.5 75C39.225 75 40.625 73.6031 40.625 71.875V68.5938C55.3656 67.1219 67.125 55.3656 68.5938 40.625H71.875C73.6 40.625 75 39.2281 75 37.5C75 35.7719 73.6 34.375 71.875 34.375ZM37.5 62.5C23.7156 62.5 12.5 51.2844 12.5 37.5C12.5 23.7156 23.7156 12.5 37.5 12.5C51.2844 12.5 62.5 23.7156 62.5 37.5C62.5 51.2844 51.2844 62.5 37.5 62.5Z" fill="white"/>
</g>
<defs>
<clipPath id="clip0_5374_207848">
<rect width="75" height="75" fill="white"/>
</clipPath>
</defs>
</svg>
