<svg width="47" height="53" viewBox="0 0 47 53" fill="none" xmlns="http://www.w3.org/2000/svg">
<path d="M34.4801 44.3803L35.1421 44.5234L35.4294 43.91C36.3057 42.039 38.1368 40.758 40.2794 40.7526C43.2303 40.76 45.6207 43.1772 45.6207 46.1075C45.6207 49.0422 43.2229 51.4624 40.2658 51.4624C37.3063 51.4624 34.911 49.067 34.911 46.1075V45.4218L34.2409 45.2767L21.0419 42.4191L20.4534 42.2917L20.138 42.8046L14.9674 51.2141L14.9673 51.214L14.9626 51.2219C14.8777 51.3634 14.7524 51.4351 14.5756 51.4351H14.4659C14.2763 51.3885 14.1567 51.2607 14.1186 51.1161L14.1187 51.116L14.1157 51.1054L7.44818 27.0484L7.44825 27.0484L7.44506 27.0374C7.1522 26.0334 6.2296 25.3092 5.15938 25.3092H1.83933C1.58516 25.3092 1.35586 25.0751 1.35586 24.8258C1.35586 24.599 1.56256 24.3695 1.83933 24.3695H5.15938C6.66087 24.3695 7.97998 25.3719 8.36715 26.7915L8.36738 26.7923L8.99326 29.0779L9.16454 29.7034H9.81307H39.5854C39.771 29.7034 39.9294 29.8091 39.9954 29.9411C40.0783 30.107 40.0669 30.2962 39.9702 30.4452L31.5666 42.5471L30.8399 43.5936L32.0852 43.8627L34.4801 44.3803ZM14.219 47.9394L14.739 49.8183L15.7618 48.1586L18.8642 43.1244L19.4911 42.1072L18.3246 41.8486L13.5348 40.7869L12.1546 40.4809L12.5317 41.8435L14.219 47.9394ZM36.9857 45.8746L35.7696 45.6169L35.9707 46.8436C36.3078 48.9 38.0869 50.4823 40.2658 50.4954V50.4954H40.293V50.4954C42.7011 50.4808 44.6808 48.5356 44.6808 46.1075C44.6808 43.6786 42.6947 41.6922 40.2658 41.6922C38.7372 41.6922 37.4233 42.4768 36.6256 43.6402L35.9114 44.6817L37.1452 44.9513L40.3837 45.6589L40.3941 45.6612L40.4046 45.6632C40.6391 45.7083 40.7988 45.9498 40.7438 46.1881L40.7437 46.1881L40.7414 46.1986C40.6986 46.3954 40.5325 46.5364 40.293 46.5364H40.1098L36.9857 45.8746Z" stroke="white" stroke-width="1.7"/>
<path d="M24.014 12.995C23.8847 14.2984 24.247 15.5769 25.0182 16.7236L25.1469 16.929L25.7598 17.9066L25.7798 17.8834C25.2393 18.6704 24.7288 19.5197 24.2706 20.4318C23.9422 19.9824 23.587 19.5183 23.214 19.0553L23.6333 18.2193L23.7275 18.0314C24.2118 17.2198 24.2732 16.4896 24.2109 15.7334C24.1091 14.2364 23.4082 13.174 22.4358 12.3518C21.5384 11.593 20.3725 11.0105 19.2439 10.4467C19.2016 10.4256 19.1593 10.4044 19.1171 10.3833L19.0923 10.3709C17.3895 9.51955 15.611 8.63032 14.2425 7.16223L14.2323 7.15133L14.2218 7.14079C13.8916 6.81058 13.4371 6.59284 12.9404 6.59284C11.9552 6.59284 11.2413 7.33471 11.143 8.21935L11.1415 8.2329L11.1404 8.2465C11.0004 10.0238 10.9992 12.5438 11.3802 14.8827C11.5708 16.0526 11.8614 17.2052 12.2946 18.2068C12.7248 19.2016 13.3216 20.1072 14.1595 20.7062C15.008 21.3166 16.0871 21.6275 17.2673 21.6275C18.0921 21.6275 18.9591 21.4684 19.7804 21.1885C20.9323 22.5864 21.9818 24.0712 22.5517 25.1212C22.386 25.958 22.2656 26.8107 22.1902 27.6403L22.106 28.5673H23.0367H25.3228H26.1009L26.1695 27.7922C26.4075 25.103 27.3967 22.5054 29.1036 20.058C30.4137 20.6415 31.7983 20.9472 33.1333 20.9472C34.4566 20.9472 35.7122 20.6322 36.757 19.9944H36.8235L37.0397 19.8477C38.1467 19.0962 38.9652 17.9266 39.5753 16.6017C40.1881 15.2706 40.6182 13.7231 40.9152 12.1369C41.509 8.9653 41.591 5.52768 41.4661 3.09913L41.4655 3.08835L41.4647 3.07759C41.3723 1.87632 40.3553 1.15 39.3925 1.15C38.8637 1.15 38.3221 1.37816 37.9478 1.75243L37.9441 1.75617C35.9311 3.79438 33.4656 4.95579 31.1173 6.06199C31.0702 6.08421 31.0231 6.10641 30.976 6.12858C30.9756 6.12877 30.9752 6.12895 30.9748 6.12913L30.9119 6.15851C29.3002 6.91146 27.6792 7.66873 26.433 8.6715C25.1296 9.72036 24.1899 11.0723 24.014 12.995Z" stroke="white" stroke-width="1.7"/>
</svg>
