<svg width="28" height="29" viewBox="0 0 28 29" fill="none" xmlns="http://www.w3.org/2000/svg">
<g clip-path="url(#clip0_5374_207887)">
<mask id="mask0_5374_207887" style="mask-type:luminance" maskUnits="userSpaceOnUse" x="0" y="0" width="28" height="29">
<path d="M27.6229 0.972168H0.414062V28.0028H27.6229V0.972168Z" fill="white"/>
</mask>
<g mask="url(#mask0_5374_207887)">
<path d="M14.28 13.2145H14.0194H13.765C11.0703 13.082 8.9186 10.8612 8.9186 8.15201C8.9186 5.35802 11.2084 3.08338 14.0194 3.08338C16.8304 3.08338 19.1217 5.35957 19.1217 8.15201C19.1217 10.8612 16.9747 13.0773 14.28 13.2145ZM19.9501 14.5352C19.4289 14.2871 18.8921 14.076 18.3522 13.8972C20.1099 12.5857 21.247 10.5022 21.247 8.15201C21.247 4.19296 18.0048 0.973633 14.0194 0.973633C10.034 0.973633 6.79172 4.19296 6.79172 8.15201C6.79172 10.5006 7.93505 12.5919 9.69426 13.9003C8.07778 14.4273 6.56368 15.2518 5.24039 16.3352C2.81255 18.3186 1.1216 21.091 0.484003 24.1315C0.28233 25.0886 0.521235 26.0641 1.14332 26.8192C1.7592 27.5682 2.66828 28.0028 3.64096 28.0028H16.7311C17.316 28.0028 17.7922 27.5266 17.7922 26.9456C17.7922 26.3646 17.316 25.8884 16.7311 25.8884H3.64096C3.18953 25.8884 2.91339 25.6356 2.79083 25.4877C2.5783 25.2288 2.49918 24.8913 2.56744 24.563C3.67354 19.2987 8.3446 15.4552 13.7386 15.3242C13.8332 15.3289 13.9232 15.3289 14.0194 15.3289C14.1156 15.3289 14.2102 15.3289 14.3064 15.3242C15.957 15.3612 17.5487 15.7372 19.0364 16.4384C19.5669 16.685 20.1999 16.4662 20.4497 15.936C20.7041 15.4167 20.476 14.7879 19.9501 14.5352Z" fill="white"/>
</g>
<mask id="mask1_5374_207887" style="mask-type:luminance" maskUnits="userSpaceOnUse" x="0" y="0" width="28" height="29">
<path d="M27.6229 0.972168H0.414062V28.0028H27.6229V0.972168Z" fill="white"/>
</mask>
<g mask="url(#mask1_5374_207887)">
<path d="M26.56 21.9309H23.6372V19.0259C23.6372 18.4449 23.1579 17.9688 22.573 17.9688C21.9882 17.9688 21.5088 18.4449 21.5088 19.0259V21.9309H18.5877C18.0028 21.9309 17.5234 22.404 17.5234 22.985C17.5234 23.5691 18.0028 24.0422 18.5877 24.0422H21.5088V26.9471C21.5088 27.5281 21.9882 28.0043 22.573 28.0043C23.1579 28.0043 23.6372 27.5281 23.6372 26.9471V24.0422H26.56C27.1448 24.0422 27.6226 23.5691 27.6226 22.985C27.6211 22.4025 27.1448 21.9309 26.56 21.9309Z" fill="white"/>
</g>
</g>
<defs>
<clipPath id="clip0_5374_207887">
<rect width="28" height="28" fill="white" transform="translate(0 0.472656)"/>
</clipPath>
</defs>
</svg>
