<svg width="25" height="24" viewBox="0 0 25 24" fill="none" xmlns="http://www.w3.org/2000/svg">
<g id="Payments" clip-path="url(#clip0_5374_202258)">
<path id="Vector" d="M5.6025 17C6.43575 17 7.11124 16.3284 7.11124 15.5C7.11124 14.6716 6.43575 14 5.6025 14C4.76924 14 4.09375 14.6716 4.09375 15.5C4.09375 16.3284 4.76924 17 5.6025 17Z" fill="#F05C5C"/>
<path id="Vector_2" d="M19.1811 3H5.09947C3.76614 3.00159 2.48789 3.52888 1.54508 4.46622C0.602278 5.40356 0.0719096 6.67441 0.0703125 8L0.0703125 16C0.0719096 17.3256 0.602278 18.5964 1.54508 19.5338C2.48789 20.4711 3.76614 20.9984 5.09947 21H19.1811C20.5144 20.9984 21.7927 20.4711 22.7355 19.5338C23.6783 18.5964 24.2087 17.3256 24.2103 16V8C24.2087 6.67441 23.6783 5.40356 22.7355 4.46622C21.7927 3.52888 20.5144 3.00159 19.1811 3ZM5.09947 5H19.1811C19.9814 5 20.7489 5.31607 21.3148 5.87868C21.8807 6.44129 22.1986 7.20435 22.1986 8H2.08197C2.08197 7.20435 2.39989 6.44129 2.96578 5.87868C3.53167 5.31607 4.29918 5 5.09947 5ZM19.1811 19H5.09947C4.29918 19 3.53167 18.6839 2.96578 18.1213C2.39989 17.5587 2.08197 16.7956 2.08197 16V10H22.1986V16C22.1986 16.7956 21.8807 17.5587 21.3148 18.1213C20.7489 18.6839 19.9814 19 19.1811 19Z" fill="#F05C5C"/>
</g>
<defs>
<clipPath id="clip0_5374_202258">
<rect width="24.1399" height="24" fill="white" transform="translate(0.0703125)"/>
</clipPath>
</defs>
</svg>
