<svg width="28" height="29" viewBox="0 0 28 29" fill="none" xmlns="http://www.w3.org/2000/svg">
<g clip-path="url(#clip0_5374_207895)">
<path d="M6.41797 20.7793C7.38447 20.7793 8.16797 19.9958 8.16797 19.0293C8.16797 18.0628 7.38447 17.2793 6.41797 17.2793C5.45147 17.2793 4.66797 18.0628 4.66797 19.0293C4.66797 19.9958 5.45147 20.7793 6.41797 20.7793Z" fill="white"/>
<path d="M22.1667 4.4458H5.83333C4.28681 4.44765 2.80415 5.06283 1.71059 6.15639C0.617029 7.24995 0.0018525 8.73261 0 10.2791L0 19.6125C0.0018525 21.159 0.617029 22.6417 1.71059 23.7352C2.80415 24.8288 4.28681 25.4439 5.83333 25.4458H22.1667C23.7132 25.4439 25.1958 24.8288 26.2894 23.7352C27.383 22.6417 27.9981 21.159 28 19.6125V10.2791C27.9981 8.73261 27.383 7.24995 26.2894 6.15639C25.1958 5.06283 23.7132 4.44765 22.1667 4.4458ZM5.83333 6.77913H22.1667C23.0949 6.77913 23.9852 7.14788 24.6415 7.80426C25.2979 8.46064 25.6667 9.35088 25.6667 10.2791H2.33333C2.33333 9.35088 2.70208 8.46064 3.35846 7.80426C4.01484 7.14788 4.90508 6.77913 5.83333 6.77913ZM22.1667 23.1125H5.83333C4.90508 23.1125 4.01484 22.7437 3.35846 22.0873C2.70208 21.431 2.33333 20.5407 2.33333 19.6125V12.6125H25.6667V19.6125C25.6667 20.5407 25.2979 21.431 24.6415 22.0873C23.9852 22.7437 23.0949 23.1125 22.1667 23.1125Z" fill="white"/>
</g>
<defs>
<clipPath id="clip0_5374_207895">
<rect width="28" height="28" fill="white" transform="translate(0 0.945801)"/>
</clipPath>
</defs>
</svg>
