<svg width="24" height="24" viewBox="0 0 24 24" fill="none" xmlns="http://www.w3.org/2000/svg">
<g clip-path="url(#clip0_5374_209021)">
<path d="M1.82615 1.81994L2.87615 0.909942C4.08615 -0.300059 6.04615 -0.300059 7.25615 0.909942C7.28615 0.939942 9.13615 3.34994 9.13615 3.34994C10.2761 4.54994 10.2761 6.43994 9.13615 7.62994L7.97615 9.08994C9.43615 12.3999 11.7061 14.6799 14.9061 16.0399L16.3661 14.8699C17.5561 13.7199 19.4562 13.7199 20.6462 14.8699C20.6462 14.8699 23.0562 16.7199 23.0862 16.7499C24.2962 17.9599 24.2962 19.9199 23.1362 21.0799L22.1362 22.2299C20.9862 23.3799 19.4362 24.0099 17.7562 24.0099C10.1161 24.0099 -0.00385284 13.8799 -0.00385284 6.24994C-0.00385284 4.57994 0.626148 3.01994 1.82615 1.82994V1.81994ZM17.7562 21.9999C18.8962 21.9999 19.9462 21.5799 20.6662 20.8499L21.6662 19.6999C22.0762 19.2899 22.0962 18.6199 21.7062 18.1899C21.7062 18.1899 19.3162 16.3499 19.2862 16.3199C18.8762 15.9099 18.1561 15.9099 17.7361 16.3199C17.7062 16.3499 15.6961 17.9599 15.6961 17.9599C15.4162 18.1799 15.0462 18.2399 14.7162 18.1099C10.5761 16.5299 7.60615 13.5699 5.89615 9.29994C5.76615 8.96994 5.81615 8.58994 6.04615 8.29994C6.04615 8.29994 7.65615 6.27994 7.67615 6.25994C8.10615 5.82994 8.10615 5.13994 7.67615 4.70994C7.64615 4.67994 5.80615 2.28994 5.80615 2.28994C5.37615 1.89994 4.70615 1.90994 4.24615 2.36994L3.19615 3.27994C2.42615 4.04994 1.99615 5.09994 1.99615 6.23994C1.99615 13.1999 11.7661 21.9999 17.7562 21.9999Z" fill="#F05C5C"/>
</g>
<defs>
<clipPath id="clip0_5374_209021">
<rect width="24" height="24" fill="white"/>
</clipPath>
</defs>
</svg>
