<svg width="48" height="48" viewBox="0 0 48 48" fill="none" xmlns="http://www.w3.org/2000/svg">
<path d="M47.5868 33.5993C47.8605 31.502 47.9983 28.3446 47.9983 24.136C47.9983 19.9326 47.8605 16.7787 47.5868 14.6744C47.3131 12.5736 46.4431 10.1485 44.9804 7.40607C42.6024 2.46869 35.6566 0 24.136 0C12.4324 0 5.30176 2.46869 2.74241 7.40607C1.46099 9.96891 0.685167 12.2999 0.411449 14.4007C0.137731 16.5033 0 19.6606 0 23.8623C0 28.0709 0.137731 31.2265 0.411449 33.3273C0.685167 35.4316 1.50806 37.8498 2.88014 40.5939C4.25047 43.3381 6.67209 45.2558 10.1485 46.3525C13.6196 47.4526 18.2397 48 23.9983 48C29.7585 48 34.3751 47.4526 37.8498 46.3525C41.3209 45.2558 43.7478 43.3834 45.1181 40.7299C46.4902 38.0799 47.3131 35.7036 47.5868 33.5993Z" fill="#019ACF"/>
<g clip-path="url(#clip0_7364_86368)">
<path d="M35 23.999C35 24.2642 34.8946 24.5186 34.7071 24.7061C34.5196 24.8937 34.2652 24.999 34 24.999H31.13C30.6133 24.9973 30.1056 24.8629 29.6558 24.6087C29.2059 24.3544 28.829 23.9889 28.561 23.547L27.193 21.276L25.706 24.899C25.6562 25.0206 25.583 25.1311 25.4905 25.2243C25.398 25.3176 25.2881 25.3917 25.1669 25.4424C25.0458 25.4932 24.9159 25.5196 24.7845 25.5201C24.6532 25.5206 24.523 25.4953 24.4015 25.4455C24.28 25.3958 24.1694 25.3225 24.0762 25.23C23.9829 25.1375 23.9088 25.0276 23.8581 24.9065C23.8073 24.7853 23.7809 24.6554 23.7804 24.524C23.7799 24.3927 23.8052 24.2626 23.855 24.141L25.555 19.999H23.616L21.552 25.031C21.4626 25.2485 21.4527 25.4905 21.5241 25.7145C21.5954 25.9385 21.7434 26.1303 21.942 26.256L26.534 29.156C26.6764 29.2459 26.7937 29.3704 26.8752 29.5177C26.9566 29.6651 26.9996 29.8306 27 29.999V34.999C27 35.2642 26.8946 35.5186 26.7071 35.7061C26.5196 35.8937 26.2652 35.999 26 35.999C25.7348 35.999 25.4804 35.8937 25.2929 35.7061C25.1054 35.5186 25 35.2642 25 34.999V30.55L20.874 27.95C20.2767 27.5732 19.8315 26.9978 19.6167 26.325C19.402 25.6522 19.4315 24.9252 19.7 24.272L21.454 19.999H19.236C19.0503 19.9983 18.8681 20.0497 18.7101 20.1473C18.5521 20.2448 18.4246 20.3847 18.342 20.551L16.895 23.446C16.8363 23.5636 16.755 23.6684 16.6558 23.7545C16.5566 23.8406 16.4414 23.9064 16.3168 23.948C16.1922 23.9896 16.0606 24.0062 15.9295 23.997C15.7985 23.9877 15.6705 23.9527 15.553 23.894C15.4355 23.8353 15.3306 23.754 15.2445 23.6548C15.1584 23.5556 15.0927 23.4404 15.0511 23.3158C15.0095 23.1912 14.9928 23.0596 15.0021 22.9286C15.0113 22.7975 15.0463 22.6696 15.105 22.552L16.553 19.652C16.8014 19.1536 17.1843 18.7346 17.6585 18.4425C18.1326 18.1503 18.6791 17.9967 19.236 17.999H25.859C26.3761 18.0006 26.8842 18.135 27.3344 18.3894C27.7847 18.6439 28.1619 19.0098 28.43 19.452L30.274 22.515C30.3633 22.6622 30.489 22.784 30.6388 22.8687C30.7887 22.9535 30.9578 22.9983 31.13 22.999H34C34.2652 22.999 34.5196 23.1044 34.7071 23.2919C34.8946 23.4795 35 23.7338 35 23.999ZM19.875 28.813C19.7531 28.7642 19.6227 28.7399 19.4914 28.7415C19.3601 28.7431 19.2303 28.7705 19.1096 28.8223C18.9889 28.874 18.8796 28.949 18.7878 29.043C18.6961 29.137 18.6238 29.2481 18.575 29.37C18.5015 29.5562 18.3735 29.7159 18.2077 29.8281C18.042 29.9404 17.8462 29.9999 17.646 29.999H15C14.7348 29.999 14.4804 30.1044 14.2929 30.2919C14.1054 30.4795 14 30.7338 14 30.999C14 31.2642 14.1054 31.5186 14.2929 31.7061C14.4804 31.8937 14.7348 31.999 15 31.999H17.646C18.2461 32.0009 18.8328 31.822 19.3298 31.4856C19.8267 31.1492 20.2108 30.6709 20.432 30.113C20.4808 29.9911 20.5051 29.8607 20.5035 29.7294C20.5019 29.5981 20.4745 29.4684 20.4228 29.3477C20.371 29.2269 20.296 29.1176 20.2021 29.0259C20.1081 28.9341 19.9969 28.8618 19.875 28.813ZM27 16.999C27.4945 16.999 27.9778 16.8524 28.3889 16.5777C28.8 16.303 29.1205 15.9125 29.3097 15.4557C29.4989 14.9989 29.5484 14.4963 29.452 14.0113C29.3555 13.5263 29.1174 13.0809 28.7678 12.7313C28.4181 12.3816 27.9727 12.1435 27.4877 12.0471C27.0028 11.9506 26.5001 12.0001 26.0433 12.1893C25.5865 12.3785 25.196 12.699 24.9213 13.1101C24.6466 13.5212 24.5 14.0046 24.5 14.499C24.5 15.1621 24.7634 15.798 25.2322 16.2668C25.7011 16.7356 26.337 16.999 27 16.999Z" fill="white"/>
</g>
<defs>
<clipPath id="clip0_7364_86368">
<rect width="24" height="24" fill="white" transform="translate(12 11.999)"/>
</clipPath>
</defs>
</svg>
