<svg width="54" height="54" viewBox="0 0 54 54" fill="none" xmlns="http://www.w3.org/2000/svg">
<path d="M27.0425 1.0376C12.7159 1.0376 1.09912 12.6542 1.09912 26.981C1.09912 41.3077 12.7159 52.9243 27.0425 52.9243C41.3701 52.9243 52.9858 41.3074 52.9858 26.981C52.9858 12.6545 41.3701 1.0376 27.0425 1.0376ZM50.8236 26.981L50.8233 26.999C48.04 26.7844 45.3367 26.1294 42.7634 25.0409C40.5438 24.103 38.4665 22.8589 36.592 21.3448C39.1886 17.6439 41.3965 13.6851 43.1806 9.53118C47.8776 13.8783 50.8236 20.0917 50.8236 26.981ZM41.5865 8.17963C41.5516 8.26395 41.5179 8.34851 41.4823 8.43258C39.7476 12.534 37.608 16.4097 35.0855 20.0306C34.8931 19.85 34.7034 19.6665 34.5164 19.4802C32.1332 17.097 30.2623 14.3222 28.9557 11.2332C27.8709 8.66844 27.2178 5.97432 27.0011 3.20063C27.0149 3.20063 27.0286 3.20013 27.0425 3.20013C32.516 3.2 37.5629 5.05994 41.5865 8.17963ZM25.0063 3.28818C25.559 10.5381 28.8783 17.0133 33.9107 21.6621C32.7225 23.2568 31.4606 24.7953 30.1291 26.2726C24.1978 20.0323 17.0558 14.9541 9.0792 11.4136C13.0251 6.8665 18.6649 3.82838 25.0063 3.28818ZM30.1216 29.2061C34.6404 34.2788 38.2888 39.9873 40.996 46.2256C37.8279 48.5289 34.0724 50.0708 29.9998 50.5783C29.7164 44.6143 27.565 39.1399 24.1152 34.729C26.2289 33.0131 28.2348 31.1687 30.1216 29.2061ZM27.7957 28.732C26.2201 30.3078 24.564 31.8011 22.8343 33.206C18.0027 27.857 11.131 24.387 3.44537 24.0217C3.95301 19.9498 5.4949 16.195 7.79787 13.0274C15.1811 16.2314 21.8229 20.7539 27.5463 26.4772C27.9598 26.8911 28.3678 27.3106 28.7701 27.7356C28.4488 28.0712 28.124 28.4033 27.7957 28.732ZM3.28285 26.0118C6.43073 26.1546 9.44889 26.8596 12.1946 28.0211C15.2838 29.3277 18.0585 31.1986 20.4416 33.5818C20.7218 33.8623 20.9956 34.149 21.2628 34.4418C17.3447 37.4247 13.1023 39.9359 8.57705 41.9482C5.2553 37.8578 3.2614 32.6482 3.2614 26.981C3.2614 26.6562 3.26988 26.3335 3.28285 26.0118ZM9.96314 43.5106C14.427 41.4714 18.6488 38.9395 22.5499 35.962C23.9547 37.7566 25.1156 39.7293 26.0024 41.8288C27.2015 44.6637 27.8749 47.6566 28.0122 50.7406C27.6904 50.7536 27.3674 50.762 27.0425 50.762C20.3467 50.762 14.2892 47.9792 9.96314 43.5106ZM42.6097 44.9444C39.8047 38.6243 36.0341 32.8283 31.4852 27.7433C32.871 26.2117 34.1844 24.6161 35.4211 22.9617C39.6831 26.372 44.9654 28.5601 50.7377 28.9939C50.2027 35.3449 47.1624 40.9937 42.6097 44.9444Z" fill="white" stroke="white"/>
</svg>
