<svg width="69" height="35" viewBox="0 0 69 35" fill="none" xmlns="http://www.w3.org/2000/svg">
<path d="M51.3634 1H17.5873C8.60375 1 1.33443 8.30775 1.3818 17.2912L1.3977 20.3075C1.43592 27.5558 7.32261 33.4115 14.571 33.4115C17.9272 33.4115 21.1567 32.1306 23.6005 29.8302L29.4795 24.2961C30.9617 22.9009 32.9205 22.1239 34.9561 22.1239C36.9917 22.1239 38.9505 22.9009 40.4327 24.2961L45.747 29.2987C48.1134 31.5262 51.2406 32.7665 54.4905 32.7665C61.5355 32.7665 67.2467 27.0554 67.2467 20.0103V16.8833C67.2467 8.11118 60.1355 1 51.3634 1Z" stroke="white" stroke-width="2" stroke-linecap="round"/>
<path d="M25.0307 11.231C19.9125 8.59775 15.6259 9.89745 13.3121 11.4305C12.5662 11.9247 12.2276 12.8326 12.4199 13.7065C13.3493 17.9296 16.635 19.8751 18.7157 20.4743C19.107 20.587 19.5225 20.5771 19.9126 20.4606C23.5133 19.3854 25.3945 16.3654 26.2056 14.0175C26.5822 12.9271 26.0565 11.7587 25.0307 11.231Z" stroke="white" stroke-width="2" stroke-linecap="round"/>
<path d="M55.6904 11.231C50.5722 8.59775 46.2856 9.89745 43.9718 11.4305C43.2259 11.9247 42.8873 12.8326 43.0796 13.7065C44.009 17.9296 47.2946 19.8751 49.3754 20.4743C49.7667 20.587 50.1821 20.5771 50.5723 20.4606C54.173 19.3854 56.0542 16.3654 56.8653 14.0175C57.2419 12.9271 56.7162 11.7587 55.6904 11.231Z" stroke="white" stroke-width="2" stroke-linecap="round"/>
</svg>
