<svg width="21" height="20" viewBox="0 0 21 20" fill="none" xmlns="http://www.w3.org/2000/svg">
<g clip-path="url(#clip0_7160_20929)">
<path d="M16.1014 5V3.33333C16.1014 2.44928 15.7502 1.60143 15.1251 0.976311C14.5 0.35119 13.6521 0 12.7681 0L7.76807 0C6.88401 0 6.03616 0.35119 5.41104 0.976311C4.78592 1.60143 4.43473 2.44928 4.43473 3.33333V5C3.33007 5.00132 2.27103 5.44073 1.48992 6.22185C0.708801 7.00296 0.26939 8.062 0.268066 9.16667L0.268066 13.3333C0.26939 14.438 0.708801 15.497 1.48992 16.2782C2.27103 17.0593 3.33007 17.4987 4.43473 17.5C4.43473 18.163 4.69813 18.7989 5.16697 19.2678C5.63581 19.7366 6.27169 20 6.93473 20H13.6014C14.2644 20 14.9003 19.7366 15.3692 19.2678C15.838 18.7989 16.1014 18.163 16.1014 17.5C17.2061 17.4987 18.2651 17.0593 19.0462 16.2782C19.8273 15.497 20.2667 14.438 20.2681 13.3333V9.16667C20.2667 8.062 19.8273 7.00296 19.0462 6.22185C18.2651 5.44073 17.2061 5.00132 16.1014 5ZM6.1014 3.33333C6.1014 2.89131 6.27699 2.46738 6.58955 2.15482C6.90212 1.84226 7.32604 1.66667 7.76807 1.66667H12.7681C13.2101 1.66667 13.634 1.84226 13.9466 2.15482C14.2591 2.46738 14.4347 2.89131 14.4347 3.33333V5H6.1014V3.33333ZM14.4347 17.5C14.4347 17.721 14.3469 17.933 14.1907 18.0893C14.0344 18.2455 13.8224 18.3333 13.6014 18.3333H6.93473C6.71372 18.3333 6.50176 18.2455 6.34548 18.0893C6.1892 17.933 6.1014 17.721 6.1014 17.5V14.1667C6.1014 13.9457 6.1892 13.7337 6.34548 13.5774C6.50176 13.4211 6.71372 13.3333 6.93473 13.3333H13.6014C13.8224 13.3333 14.0344 13.4211 14.1907 13.5774C14.3469 13.7337 14.4347 13.9457 14.4347 14.1667V17.5ZM18.6014 13.3333C18.6014 13.9964 18.338 14.6323 17.8692 15.1011C17.4003 15.5699 16.7644 15.8333 16.1014 15.8333V14.1667C16.1014 13.5036 15.838 12.8677 15.3692 12.3989C14.9003 11.9301 14.2644 11.6667 13.6014 11.6667H6.93473C6.27169 11.6667 5.63581 11.9301 5.16697 12.3989C4.69813 12.8677 4.43473 13.5036 4.43473 14.1667V15.8333C3.77169 15.8333 3.13581 15.5699 2.66697 15.1011C2.19813 14.6323 1.93473 13.9964 1.93473 13.3333V9.16667C1.93473 8.50363 2.19813 7.86774 2.66697 7.3989C3.13581 6.93006 3.77169 6.66667 4.43473 6.66667H16.1014C16.7644 6.66667 17.4003 6.93006 17.8692 7.3989C18.338 7.86774 18.6014 8.50363 18.6014 9.16667V13.3333Z" fill="white"/>
<path d="M15.2681 8.33325H13.6014C13.3804 8.33325 13.1684 8.42105 13.0121 8.57733C12.8559 8.73361 12.7681 8.94557 12.7681 9.16659C12.7681 9.3876 12.8559 9.59956 13.0121 9.75584C13.1684 9.91212 13.3804 9.99992 13.6014 9.99992H15.2681C15.4891 9.99992 15.701 9.91212 15.8573 9.75584C16.0136 9.59956 16.1014 9.3876 16.1014 9.16659C16.1014 8.94557 16.0136 8.73361 15.8573 8.57733C15.701 8.42105 15.4891 8.33325 15.2681 8.33325Z" fill="white"/>
</g>
<defs>
<clipPath id="clip0_7160_20929">
<rect width="20" height="20" fill="white" transform="translate(0.268066)"/>
</clipPath>
</defs>
</svg>
