<svg width="52" height="52" viewBox="0 0 52 52" fill="none" xmlns="http://www.w3.org/2000/svg">
<path d="M50.3555 21.6165C50.3555 28.5628 44.7117 34.2062 37.7364 34.2062C30.7612 34.2062 25.1172 28.5628 25.1172 21.6165C25.1172 14.6702 30.7612 8.99707 37.7364 8.99707C44.7117 8.99707 50.3555 14.6412 50.3555 21.6165Z" fill="#FF8E01"/>
<path d="M50.358 21.6203H49.2582C49.2582 24.7751 47.9558 27.6688 45.9009 29.7527C43.817 31.8366 40.9516 33.1105 37.7679 33.1105C34.5842 33.1105 31.7187 31.8366 29.6348 29.7527C27.5509 27.6688 26.2775 24.7751 26.2775 21.6203C26.2775 18.4655 27.5509 15.571 29.6348 13.4871C31.7187 11.4033 34.5842 10.1003 37.7679 10.1003C40.9516 10.1003 43.817 11.4033 45.9009 13.4871C47.9847 15.571 49.2582 18.4366 49.2582 21.6203H51.4868C51.4868 14.0372 45.351 7.90137 37.7679 7.90137C30.1849 7.90137 24.0488 14.0372 24.0488 21.6203C24.0488 29.2033 30.1849 35.3392 37.7679 35.3392C45.351 35.3392 51.4868 29.1744 51.4868 21.6203H50.387H50.358Z" fill="white"/>
<path d="M31.7461 13.8886C31.7461 20.8638 26.1023 26.508 19.1271 26.508C12.1518 26.508 6.50781 20.8638 6.50781 13.8886C6.50781 6.91333 12.1518 1.29883 19.1271 1.29883C26.1023 1.29883 31.7461 6.94227 31.7461 13.8886Z" fill="#FF8E01"/>
<path d="M31.7477 13.8947H30.6478C30.6478 17.0784 29.3742 19.9439 27.2903 22.0278C25.2064 24.1117 22.3411 25.4139 19.1574 25.4139C15.9737 25.4139 13.1083 24.1117 11.0244 22.0278C8.94055 19.9439 7.66714 17.0784 7.66714 13.8947C7.66714 10.711 8.94055 7.8744 11.0244 5.76156C13.1083 3.67767 15.9737 2.40444 19.1574 2.40444C22.3411 2.40444 25.2064 3.67767 27.2903 5.76156C29.3742 7.8744 30.6478 10.7399 30.6478 13.8947H32.8765C32.8765 6.34059 26.7404 0.175781 19.1574 0.175781C11.5743 0.175781 5.43848 6.34059 5.43848 13.8947C5.43848 21.4488 11.5743 27.6426 19.1574 27.6426C26.7404 27.6426 32.8765 21.4777 32.8765 13.8947H31.7766H31.7477Z" fill="white"/>
<path d="M7.92456 8.18555C7.02733 9.98001 6.50638 11.9772 6.50638 14.09V14.7846L6.30376 14.9295C3.0911 16.7818 1.12305 20.1677 1.12305 23.9013C1.12305 29.632 5.7829 34.2631 11.4847 34.2631C13.2502 34.2631 14.9577 33.8291 16.4917 32.9608C18.402 35.7104 21.5856 37.3602 24.943 37.3602C28.0688 37.3602 30.9921 35.9708 32.9602 33.5685C34.3206 34.0316 35.7967 34.3211 37.3306 34.3211C39.5303 34.3211 41.5852 33.7712 43.4086 32.8739" fill="#FF8E01"/>
<path d="M6.94637 7.69487C5.96231 9.6051 5.41231 11.7757 5.41231 14.0911V14.8147H6.51215L5.93344 13.8594L5.70184 14.0042L6.30953 14.9306L5.75961 13.9753C2.19963 16.0302 0 19.7636 0 23.9025C0 30.241 5.1519 35.3644 11.4615 35.3644C13.4006 35.3644 15.3108 34.8724 17.0184 33.9463L16.4685 32.962L15.5713 33.5986C17.7131 36.6376 21.1862 38.4898 24.9488 38.4898C28.393 38.4898 31.6635 36.927 33.8053 34.2932L32.937 33.5697L32.5897 34.6409C34.0658 35.1329 35.6577 35.4217 37.3364 35.4217C39.7097 35.4217 41.9384 34.8434 43.9065 33.8594C44.4564 33.5699 44.6879 32.9042 44.3985 32.3543C44.138 31.8044 43.4723 31.6013 42.9224 31.8618C41.2437 32.7011 39.3335 33.1937 37.3364 33.1937C35.9472 33.1937 34.5868 32.9615 33.3133 32.5274C32.8792 32.3827 32.3872 32.5277 32.0978 32.875C30.3612 35.0168 27.7273 36.2611 24.9488 36.2611C21.9387 36.2611 19.1023 34.7855 17.3947 32.3253C17.0763 31.8622 16.4396 31.7172 15.9476 32.0066C14.5872 32.7591 13.0533 33.1648 11.4904 33.1648C8.94345 33.1648 6.62799 32.1223 4.9493 30.4436C3.27061 28.7649 2.22866 26.4494 2.22866 23.9025C2.22866 20.5451 3.96516 17.5639 6.85945 15.9142H6.9174L7.14899 15.7121C7.46736 15.5095 7.66994 15.133 7.66994 14.7568V14.0622L6.54112 14.0911H7.64097C7.64097 12.152 8.10409 10.3282 8.94343 8.70745C9.23286 8.15753 9.00137 7.49179 8.45145 7.20236C7.90154 6.94187 7.2358 7.14495 6.94637 7.69487Z" fill="white"/>
<path d="M48.2986 28.5898C49.8036 26.4191 50.7009 23.7849 50.7009 20.9485C50.7009 16.636 48.675 12.8158 45.5202 10.3846C44.8256 5.29068 40.513 1.12305 35.3322 1.12305C32.6405 1.12305 30.0647 2.16502 28.1545 4.04631L27.9229 4.19116C25.6653 2.28093 22.742 1.12305 19.5293 1.12305C16.8377 1.12305 14.3485 1.93348 12.2646 3.32274" fill="#FF8E01"/>
<path d="M49.1973 29.2326C50.8471 26.8882 51.8023 24.0226 51.8023 20.9546C51.8023 16.2948 49.6026 12.1561 46.1584 9.49336L45.4927 10.3908L46.5926 10.2459C45.8401 4.63098 41.0934 0.0289429 35.3048 0C32.3237 0 29.4583 1.15806 27.3455 3.24194L28.127 4.05243L27.5191 3.12606L27.2875 3.27092L27.8954 4.19729L28.619 3.32886C26.1588 1.27391 22.975 0 19.5019 0C16.5787 0 13.8581 0.897456 11.6295 2.40249C11.1085 2.7498 10.9928 3.44454 11.3402 3.96552C11.6875 4.45755 12.382 4.60254 12.874 4.25523C14.7553 2.98174 17.0418 2.22866 19.5019 2.22866C22.4251 2.22866 25.1169 3.29946 27.1718 5.03604C27.5481 5.35441 28.0981 5.38344 28.5033 5.12295L28.7347 4.94983L28.9083 4.83395C30.616 3.15526 32.9026 2.22866 35.3338 2.22866C39.9067 2.19972 43.8141 5.96263 44.4219 10.5356C44.4508 10.825 44.6244 11.0855 44.8559 11.2592C47.7502 13.5167 49.6316 17.0184 49.6316 20.9546C49.6316 23.5595 48.8211 25.9622 47.4319 27.9593C47.0846 28.4513 47.2003 29.146 47.7212 29.4934C48.2133 29.8407 48.908 29.7246 49.2553 29.2326H49.1973Z" fill="white"/>
<path d="M37.0422 19.8528C37.0422 22.776 34.0321 25.1495 30.2984 25.1495C26.5648 25.1495 23.5547 22.776 23.5547 19.8528C23.5547 16.9295 26.5648 14.585 30.2984 14.585C34.0321 14.585 37.0422 16.9585 37.0422 19.8528Z" fill="#FF8E01"/>
<path d="M18.4068 42.1969C18.4068 44.5702 16.4675 46.5094 14.0942 46.5094C11.7209 46.5094 9.78174 44.5702 9.78174 42.1969C9.78174 39.8236 11.7209 37.8555 14.0942 37.8555C16.4675 37.8555 18.4068 39.7946 18.4068 42.1969Z" fill="#FF8E01"/>
<path d="M18.4063 42.2007H17.3064C17.3064 43.9662 15.8591 45.4137 14.0936 45.4137C12.3281 45.4137 10.881 43.9662 10.881 42.2007C10.881 40.4352 12.3281 38.9884 14.0936 38.9884C15.8591 38.9884 17.3064 40.4352 17.3064 42.2007H19.5349C19.5349 39.1906 17.1037 36.7598 14.0936 36.7598C11.0836 36.7598 8.65234 39.1906 8.65234 42.2007C8.65234 45.2108 11.0836 47.6423 14.0936 47.6423C17.1037 47.6423 19.5349 45.2108 19.5349 42.2007H18.4351H18.4063Z" fill="white"/>
<path d="M7.60623 47.6052C7.60623 49.3997 6.1591 50.8465 4.36464 50.8465C2.57018 50.8465 1.12305 49.3997 1.12305 47.6052C1.12305 45.8108 2.57018 44.3633 4.36464 44.3633C6.1591 44.3633 7.60623 45.8108 7.60623 47.6052Z" fill="#FF8E01"/>
<path d="M7.60825 47.6106H6.50841C6.50841 48.7684 5.55332 49.7234 4.36666 49.7234C3.18 49.7234 2.22492 48.7684 2.22492 47.6106C2.22492 46.424 3.18 45.4689 4.36666 45.4689C5.55332 45.4689 6.50841 46.424 6.50841 47.6106H8.73707C8.73707 45.2084 6.7979 43.2402 4.39563 43.2402C1.99337 43.2402 0.0541992 45.2084 0.0541992 47.6106C0.0541992 50.0129 1.99337 51.9521 4.39563 51.9521C6.7979 51.9521 8.73707 50.0129 8.73707 47.6106H7.63723H7.60825Z" fill="white"/>
<path d="M33.3126 14.5883V11.4919C33.3126 10.3921 34.2099 9.49429 35.3097 9.49429C35.9175 9.49429 36.4096 8.97362 36.4096 8.36582C36.4096 7.75802 35.9175 7.26562 35.3097 7.26562C32.9943 7.26562 31.084 9.14751 31.084 11.4919V14.5883C31.084 15.1961 31.576 15.6885 32.1838 15.6885C32.7916 15.6885 33.2837 15.1961 33.2837 14.5883H33.3126Z" fill="white"/>
<path d="M7.26562 23.91C7.26562 26.2255 9.14698 28.1363 11.4914 28.1363H19.769C20.3768 28.1363 20.8688 27.6439 20.8688 27.0071C20.8688 26.3704 20.3768 25.9076 19.769 25.9076H11.4914C10.3915 25.9076 9.49428 25.0099 9.49428 23.91C9.49428 23.3022 9.00224 22.8105 8.39444 22.8105C7.78664 22.8105 7.2946 23.3022 7.2946 23.91H7.26562Z" fill="white"/>
<path d="M20.8638 8.36489V1.12917C20.8638 0.521368 20.3717 0 19.7639 0C19.1561 0 18.6641 0.521368 18.6641 1.12917V8.36489C18.6641 8.9727 19.1561 9.49336 19.7639 9.49336C20.3717 9.49336 20.8638 8.9727 20.8638 8.36489Z" fill="white"/>
<path d="M43.5891 21.9142H50.6801C51.2879 21.9142 51.78 21.4225 51.78 20.8147C51.78 20.2069 51.2879 19.6855 50.6801 19.6855H43.5891C42.9813 19.6855 42.4893 20.2069 42.4893 20.8147C42.4893 21.4225 42.9813 21.9142 43.5891 21.9142Z" fill="white"/>
<path d="M18.6299 20.8147V27.0082C18.6299 27.6449 19.1219 28.1374 19.7297 28.1374C20.3375 28.1374 20.8296 27.6449 20.8296 27.0082V20.8147C20.8296 20.2069 20.3375 19.6855 19.7297 19.6855C19.1219 19.6855 18.6299 20.2069 18.6299 20.8147Z" fill="white"/>
<path d="M37.3596 14.585C40.7748 14.585 43.5822 17.3639 43.5822 20.8081C43.5822 24.2523 40.8038 27.0016 37.3596 27.0016H25.9561" fill="#FF8E01"/>
<path d="M37.3637 15.6889C40.1712 15.6889 42.4577 17.9755 42.4577 20.8119C42.4577 23.6194 40.1712 25.9059 37.3637 25.9059H25.9602C25.3524 25.9059 24.8604 26.3976 24.8604 27.0054C24.8604 27.6421 25.3524 28.1345 25.9602 28.1345H37.3637C41.4157 28.1345 44.6862 24.835 44.6862 20.8119C44.6862 16.7599 41.4157 13.4893 37.3637 13.4893C36.7559 13.4893 36.2639 13.9809 36.2639 14.5887C36.2639 15.1965 36.7559 15.6889 37.3637 15.6889Z" fill="white"/>
<path d="M25.9886 14.5838C25.9886 11.1396 23.21 8.36133 19.7658 8.36133C16.3216 8.36133 13.543 11.1396 13.543 14.5838V20.8069" fill="#FF8E01"/>
<path d="M27.0855 14.5883C27.0855 10.5363 23.8149 7.26562 19.7629 7.26562C15.7109 7.26562 12.4404 10.5363 12.4404 14.5883V20.8114C12.4404 21.4192 12.9323 21.9109 13.5401 21.9109C14.1479 21.9109 14.6399 21.4192 14.6399 20.8114V14.5883C14.6399 11.7808 16.9265 9.49429 19.7339 9.49429C22.5414 9.49429 24.8279 11.7808 24.8279 14.5883C24.8279 15.1961 25.3199 15.6885 25.9277 15.6885C26.5355 15.6885 27.0276 15.1961 27.0276 14.5883H27.0855Z" fill="white"/>
<path d="M19.7598 14.585V20.8081H36.344" fill="#FF8E01"/>
<path d="M18.6299 14.5887V20.8119C18.6299 21.1013 18.7458 21.3908 18.9484 21.5934C19.151 21.796 19.4403 21.9114 19.7297 21.9114H36.3141C36.9219 21.9114 37.4138 21.4197 37.4138 20.8119C37.4138 20.2041 36.9219 19.6827 36.3141 19.6827H20.8585V14.5887C20.8585 13.9809 20.3665 13.4893 19.7587 13.4893C19.1509 13.4893 18.6589 13.9809 18.6589 14.5887H18.6299Z" fill="white"/>
<path d="M31.084 14.5887V20.8119C31.084 21.4197 31.576 21.9114 32.1838 21.9114C32.7916 21.9114 33.2837 21.4197 33.2837 20.8119V14.5887C33.2837 13.9809 32.7916 13.4893 32.1838 13.4893C31.576 13.4893 31.084 13.9809 31.084 14.5887Z" fill="white"/>
</svg>
