<svg width="53" height="52" viewBox="0 0 53 52" fill="none" xmlns="http://www.w3.org/2000/svg">
<path d="M51.0436 21.62H49.9437C49.9437 24.7748 48.6414 27.6686 46.5864 29.7525C44.5025 31.8363 41.6372 33.1103 38.4535 33.1103C35.2697 33.1103 32.4042 31.8363 30.3203 29.7525C28.2364 27.6686 26.963 24.7748 26.963 21.62C26.963 18.4653 28.2364 15.5708 30.3203 13.4869C32.4042 11.403 35.2697 10.1001 38.4535 10.1001C41.6372 10.1001 44.5025 11.403 46.5864 13.4869C48.6703 15.5708 49.9437 18.4363 49.9437 21.62H52.1724C52.1724 14.037 46.0365 7.90112 38.4535 7.90112C30.8704 7.90112 24.7344 14.037 24.7344 21.62C24.7344 29.2031 30.8704 35.3389 38.4535 35.3389C46.0365 35.3389 52.1724 29.1741 52.1724 21.62H51.0725H51.0436Z" fill="white"/>
<path d="M32.4332 13.8947H31.3334C31.3334 17.0784 30.0598 19.9439 27.9759 22.0278C25.892 24.1117 23.0267 25.4139 19.8429 25.4139C16.6592 25.4139 13.7939 24.1117 11.71 22.0278C9.62609 19.9439 8.35268 17.0784 8.35268 13.8947C8.35268 10.711 9.62609 7.8744 11.71 5.76156C13.7939 3.67767 16.6592 2.40444 19.8429 2.40444C23.0267 2.40444 25.892 3.67767 27.9759 5.76156C30.0598 7.8744 31.3334 10.7399 31.3334 13.8947H33.562C33.562 6.34059 27.426 0.175781 19.8429 0.175781C12.2599 0.175781 6.12402 6.34059 6.12402 13.8947C6.12402 21.4488 12.2599 27.6426 19.8429 27.6426C27.426 27.6426 33.562 21.4777 33.562 13.8947H32.4622H32.4332Z" fill="white"/>
<path d="M7.63191 7.69438C6.64785 9.60461 6.09785 11.7752 6.09785 14.0906V14.8142H7.1977L6.61898 13.8589L6.38739 14.0037L6.99508 14.9301L6.44516 13.9748C2.88518 16.0297 0.685547 19.7631 0.685547 23.902C0.685547 30.2405 5.83745 35.364 12.147 35.364C14.0862 35.364 15.9964 34.872 17.704 33.9458L17.1541 32.9615L16.2568 33.5981C18.3986 36.6371 21.8717 38.4893 25.6343 38.4893C29.0785 38.4893 32.3491 36.9265 34.4908 34.2927L33.6226 33.5692L33.2753 34.6404C34.7514 35.1324 36.3433 35.4212 38.022 35.4212C40.3953 35.4212 42.6239 34.8429 44.5921 33.8589C45.142 33.5694 45.3735 32.9037 45.084 32.3538C44.8235 31.8039 44.1578 31.6008 43.6079 31.8613C41.9292 32.7006 40.019 33.1932 38.022 33.1932C36.6327 33.1932 35.2723 32.9611 33.9989 32.5269C33.5647 32.3822 33.0727 32.5272 32.7833 32.8746C31.0467 35.0163 28.4128 36.2607 25.6343 36.2607C22.6243 36.2607 19.7879 34.785 18.0803 32.3248C17.7619 31.8617 17.1251 31.7167 16.6331 32.0061C15.2728 32.7586 13.7389 33.1643 12.176 33.1643C9.62899 33.1643 7.31353 32.1218 5.63485 30.4431C3.95616 28.7644 2.91421 26.449 2.91421 23.902C2.91421 20.5446 4.65071 17.5635 7.545 15.9137H7.60294L7.83453 15.7116C8.15291 15.509 8.35549 15.1325 8.35549 14.7563V14.0617L7.22667 14.0906H8.32651C8.32651 12.1515 8.78964 10.3278 9.62898 8.70696C9.91841 8.15704 9.68692 7.4913 9.137 7.20187C8.58709 6.94138 7.92134 7.14447 7.63191 7.69438Z" fill="white"/>
<path d="M49.8829 29.2326C51.5326 26.8882 52.4878 24.0226 52.4878 20.9546C52.4878 16.2948 50.2881 12.1561 46.8439 9.49336L46.1783 10.3908L47.2781 10.2459C46.5256 4.63098 41.7789 0.0289429 35.9903 0C33.0092 0 30.1439 1.15806 28.031 3.24194L28.8125 4.05243L28.2047 3.12606L27.9731 3.27092L28.581 4.19729L29.3045 3.32886C26.8444 1.27391 23.6606 0 20.1874 0C17.2642 0 14.5437 0.897456 12.3151 2.40249C11.7941 2.7498 11.6784 3.44454 12.0257 3.96552C12.373 4.45755 13.0676 4.60254 13.5596 4.25523C15.4409 2.98174 17.7273 2.22866 20.1874 2.22866C23.1107 2.22866 25.8024 3.29946 27.8574 5.03604C28.2336 5.35441 28.7836 5.38344 29.1888 5.12295L29.4202 4.94983L29.5939 4.83395C31.3015 3.15526 33.5881 2.22866 36.0193 2.22866C40.5923 2.19972 44.4996 5.96263 45.1074 10.5356C45.1364 10.825 45.3099 11.0855 45.5415 11.2592C48.4357 13.5167 50.3171 17.0184 50.3171 20.9546C50.3171 23.5595 49.5067 25.9622 48.1174 27.9593C47.7701 28.4513 47.8858 29.146 48.4068 29.4934C48.8988 29.8407 49.5935 29.7246 49.9408 29.2326H49.8829Z" fill="white"/>
<path d="M19.0918 42.2004H17.992C17.992 43.966 16.5447 45.4134 14.7792 45.4134C13.0137 45.4134 11.5666 43.966 11.5666 42.2004C11.5666 40.4349 13.0137 38.9882 14.7792 38.9882C16.5447 38.9882 17.992 40.4349 17.992 42.2004H20.2204C20.2204 39.1904 17.7892 36.7595 14.7792 36.7595C11.7691 36.7595 9.33789 39.1904 9.33789 42.2004C9.33789 45.2105 11.7691 47.6421 14.7792 47.6421C17.7892 47.6421 20.2204 45.2105 20.2204 42.2004H19.1206H19.0918Z" fill="white"/>
<path d="M8.2938 47.6104H7.19396C7.19396 48.7681 6.23887 49.7232 5.05221 49.7232C3.86555 49.7232 2.91046 48.7681 2.91046 47.6104C2.91046 46.4237 3.86555 45.4687 5.05221 45.4687C6.23887 45.4687 7.19396 46.4237 7.19396 47.6104H9.42262C9.42262 45.2081 7.48344 43.24 5.08118 43.24C2.67892 43.24 0.739746 45.2081 0.739746 47.6104C0.739746 50.0127 2.67892 51.9518 5.08118 51.9518C7.48344 51.9518 9.42262 50.0127 9.42262 47.6104H8.32277H8.2938Z" fill="white"/>
<path d="M33.9982 14.588V11.4916C33.9982 10.3918 34.8954 9.49404 35.9953 9.49404C36.6031 9.49404 37.0951 8.97338 37.0951 8.36558C37.0951 7.75778 36.6031 7.26538 35.9953 7.26538C33.6798 7.26538 31.7695 9.14726 31.7695 11.4916V14.588C31.7695 15.1958 32.2616 15.6882 32.8694 15.6882C33.4772 15.6882 33.9692 15.1958 33.9692 14.588H33.9982Z" fill="white"/>
<path d="M7.95117 23.91C7.95117 26.2255 9.83252 28.1363 12.1769 28.1363H20.4545C21.0623 28.1363 21.5544 27.6439 21.5544 27.0071C21.5544 26.3704 21.0623 25.9076 20.4545 25.9076H12.1769C11.0771 25.9076 10.1798 25.0099 10.1798 23.91C10.1798 23.3022 9.68779 22.8105 9.07999 22.8105C8.47219 22.8105 7.98014 23.3022 7.98014 23.91H7.95117Z" fill="white"/>
<path d="M21.5493 8.36489V1.12917C21.5493 0.521368 21.0573 0 20.4495 0C19.8417 0 19.3496 0.521368 19.3496 1.12917V8.36489C19.3496 8.9727 19.8417 9.49336 20.4495 9.49336C21.0573 9.49336 21.5493 8.9727 21.5493 8.36489Z" fill="white"/>
<path d="M44.2746 21.914H51.3657C51.9735 21.914 52.4655 21.4223 52.4655 20.8145C52.4655 20.2067 51.9735 19.6853 51.3657 19.6853H44.2746C43.6668 19.6853 43.1748 20.2067 43.1748 20.8145C43.1748 21.4223 43.6668 21.914 44.2746 21.914Z" fill="white"/>
<path d="M19.3154 20.8145V27.0079C19.3154 27.6447 19.8075 28.1371 20.4153 28.1371C21.0231 28.1371 21.5151 27.6447 21.5151 27.0079V20.8145C21.5151 20.2067 21.0231 19.6853 20.4153 19.6853C19.8075 19.6853 19.3154 20.2067 19.3154 20.8145Z" fill="white"/>
<path d="M38.0493 15.6885C40.8567 15.6885 43.1432 17.975 43.1432 20.8114C43.1432 23.6189 40.8567 25.9054 38.0493 25.9054H26.6457C26.0379 25.9054 25.5459 26.3971 25.5459 27.0049C25.5459 27.6416 26.0379 28.134 26.6457 28.134H38.0493C42.1013 28.134 45.3717 24.8345 45.3717 20.8114C45.3717 16.7594 42.1013 13.4888 38.0493 13.4888C37.4415 13.4888 36.9494 13.9805 36.9494 14.5883C36.9494 15.1961 37.4415 15.6885 38.0493 15.6885Z" fill="white"/>
<path d="M27.7711 14.588C27.7711 10.536 24.5004 7.26538 20.4484 7.26538C16.3964 7.26538 13.126 10.536 13.126 14.588V20.8112C13.126 21.419 13.6178 21.9107 14.2256 21.9107C14.8334 21.9107 15.3255 21.419 15.3255 20.8112V14.588C15.3255 11.7806 17.612 9.49404 20.4195 9.49404C23.2269 9.49404 25.5134 11.7806 25.5134 14.588C25.5134 15.1958 26.0055 15.6882 26.6133 15.6882C27.2211 15.6882 27.7131 15.1958 27.7131 14.588H27.7711Z" fill="white"/>
<path d="M19.3154 14.5883V20.8114C19.3154 21.1008 19.4313 21.3903 19.6339 21.5929C19.8365 21.7955 20.1258 21.9109 20.4153 21.9109H36.9997C37.6075 21.9109 38.0993 21.4192 38.0993 20.8114C38.0993 20.2036 37.6075 19.6822 36.9997 19.6822H21.5441V14.5883C21.5441 13.9805 21.052 13.4888 20.4442 13.4888C19.8364 13.4888 19.3444 13.9805 19.3444 14.5883H19.3154Z" fill="white"/>
<path d="M31.7695 14.5883V20.8114C31.7695 21.4192 32.2616 21.9109 32.8694 21.9109C33.4772 21.9109 33.9692 21.4192 33.9692 20.8114V14.5883C33.9692 13.9805 33.4772 13.4888 32.8694 13.4888C32.2616 13.4888 31.7695 13.9805 31.7695 14.5883Z" fill="white"/>
</svg>
