<svg width="80" height="81" viewBox="0 0 80 81" fill="none" xmlns="http://www.w3.org/2000/svg">
<path d="M40 0.5C17.9084 0.5 0 18.4091 0 40.5016C0 62.594 17.9084 80.5 40 80.5C62.0916 80.5 80 62.5909 80 40.5016C80 18.4123 62.0916 0.5 40 0.5Z" fill="#C42797"/>
<mask id="mask0_5374_205005" style="mask-type:luminance" maskUnits="userSpaceOnUse" x="0" y="0" width="80" height="81">
<path d="M0 40.5016C0 62.5909 17.9084 80.5 40 80.5C62.0915 80.5 80 62.5909 80 40.5016C80 18.4123 62.0915 0.5 40 0.5C17.9084 0.5 0 18.4091 0 40.5016Z" fill="white"/>
</mask>
<g mask="url(#mask0_5374_205005)">
<path d="M54.0954 52.2867C51.8439 49.4362 46.2842 46.9526 40.3764 46.8867C34.4686 46.9526 28.9057 49.4362 26.6542 52.2867C22.653 57.3575 14.4592 77.628 16.3814 92.0437H63.7975C64.801 70.8262 58.0935 57.3575 54.0923 52.2867" fill="#CFCFCC"/>
<path d="M35.3113 55.5826C39.0805 55.8272 43.0347 55.9495 46.7601 55.2345C49.4286 54.7202 51.7867 53.5725 54.173 52.3871C54.148 52.3557 54.1229 52.3212 54.0978 52.2867C51.8463 49.4362 46.2866 46.9526 40.3787 46.8867C34.4709 46.9526 28.9081 49.4362 26.6566 52.2867C26.412 52.5972 26.1517 52.9641 25.8789 53.3843C28.7826 54.8237 32.1097 55.3787 35.3145 55.5826" fill="#B8B5B2"/>
<path d="M40.376 57.0347C31.4327 57.0347 27.1179 87.7195 26.9141 92.047H53.8348C53.6309 87.7226 49.3161 57.0347 40.376 57.0347Z" fill="#FFEBD9"/>
<path d="M54.9332 78.3113C55.3941 81.1931 55.7391 84.097 55.9899 87.004C56.1342 88.6911 56.1686 90.3657 56.1749 92.0434H57.1689C57.1627 90.3657 57.1282 88.6911 56.9902 87.004C56.7519 84.1346 56.3913 81.2747 55.9554 78.4273C55.0774 72.7105 53.8043 67.0596 52.2615 61.4871C52.089 60.8694 51.1294 61.1328 51.3019 61.7537C52.8102 67.2039 54.0457 72.7262 54.9363 78.3113" fill="#B8B5B2"/>
<path d="M53.8141 63.4599C53.2841 64.4351 52.8545 65.3884 52.5974 66.4703C52.45 67.0944 53.4096 67.3609 53.5569 66.7337C53.7953 65.7303 54.1841 64.8616 54.6733 63.9616C54.9806 63.3971 54.1214 62.8954 53.8141 63.4599Z" fill="#B8B5B2"/>
<path d="M24.4901 92.0466C24.4964 90.3689 24.5309 88.6943 24.6689 87.0072C24.9103 84.0971 25.2741 81.1995 25.7256 78.3145C26.6005 72.7294 27.8517 67.204 29.36 61.7569C29.5325 61.136 28.5698 60.8726 28.4004 61.4935C26.8576 67.0691 25.6002 72.7169 24.7065 78.4336C24.2832 81.1525 23.9508 83.8838 23.7062 86.6246C23.5431 88.4403 23.5024 90.2434 23.4961 92.0497H24.4901V92.0466Z" fill="#B8B5B2"/>
<path d="M25.9872 63.9614C26.4796 64.8645 26.8652 65.7332 27.1036 66.7367C27.2509 67.3607 28.2136 67.0973 28.0631 66.4732C27.806 65.3882 27.3764 64.4349 26.8464 63.4628C26.5391 62.8983 25.6799 63.4001 25.9872 63.9645" fill="#B8B5B2"/>
<path d="M28.6232 22.7872C28.5981 21.5015 28.4601 20.037 27.8518 18.8579C27.695 16.6126 24.3805 13.69 24.3805 13.7966C24.3774 14.1949 24.3805 14.5868 24.4087 14.982C23.4805 14.2011 22.5022 13.4893 21.3827 13.0001C20.1096 12.445 17.579 12.053 16.0833 12.0562C15.8418 12.0562 18.1466 13.6868 18.617 14.2325C15.5439 14.245 10.0406 17.5346 10.0469 19.0806C10.0469 19.2217 11.7245 19.0461 11.8593 19.0336C10.9907 20.5137 10.5987 22.2541 10.6834 23.9695C10.6897 24.0761 11.5709 23.9601 11.8907 23.8252C11.1726 25.9137 10.696 28.4381 12.0663 30.3134C12.2294 30.536 12.5712 28.9242 12.9914 28.5134C13.0792 30.6583 15.1237 33.9009 17.1557 34.5155C17.1557 34.5155 16.9926 32.8598 17.0052 32.703C17.9867 33.4054 19.0779 33.9009 20.304 33.9981C21.4768 34.089 22.6401 33.6908 23.6279 33.0855C25.6913 31.8186 27.2999 29.473 28.0995 27.2151C28.5887 25.8322 28.6515 24.2423 28.6232 22.7904" fill="#CFCFCC"/>
<path d="M22.1983 26.3308C22.7972 24.3552 23.7222 22.298 25.4344 21.1346C24.9765 20.2785 24.3149 19.5259 23.5341 19.0492C22.2202 17.9422 20.3701 17.6726 18.636 18.5318C16.3626 19.6576 15.472 23.151 16.5162 25.3743C17.5385 27.5506 19.5579 28.3409 21.7624 27.9301C21.891 27.3907 22.0352 26.8545 22.1951 26.3276" fill="#B8B5B2"/>
<path d="M51.3729 22.7872C51.3979 21.5015 51.5328 20.037 52.1443 18.8579C52.3011 16.6126 55.6156 13.69 55.6156 13.7966C55.6187 14.1949 55.6156 14.5868 55.5874 14.982C56.5124 14.2011 57.4908 13.4893 58.6103 13.0001C59.8865 12.445 62.4171 12.053 63.9097 12.0562C64.1511 12.0562 61.8464 13.6868 61.376 14.2325C64.4491 14.245 69.9523 17.5346 69.9492 19.0806C69.9492 19.2217 68.2685 19.0461 68.1368 19.0336C69.0085 20.5137 69.3973 22.2541 69.3127 23.9695C69.3095 24.0761 68.4252 23.9601 68.1054 23.8252C68.8235 25.9137 69.3001 28.4381 67.9298 30.3134C67.7667 30.536 67.4218 28.9242 67.0047 28.5134C66.9169 30.6583 64.8724 33.9009 62.8404 34.5155C62.8404 34.5155 63.0035 32.8598 62.9909 32.703C62.0094 33.4054 60.9182 33.9009 59.6921 33.9981C58.5193 34.089 57.3559 33.6908 56.3682 33.0855C54.3048 31.8186 52.6962 29.473 51.8965 27.2151C51.4074 25.8322 51.3446 24.2423 51.3729 22.7904" fill="#CFCFCC"/>
<path d="M57.7986 26.3308C57.1997 24.3552 56.2746 22.298 54.5625 21.1346C55.0172 20.2785 55.6788 19.5259 56.4628 19.0492C57.7767 17.9422 59.6268 17.6726 61.3577 18.5318C63.6312 19.6576 64.5186 23.151 63.4775 25.3743C62.4553 27.5506 60.4358 28.3409 58.2313 27.9301C58.0996 27.3907 57.9585 26.8545 57.7986 26.3276" fill="#B8B5B2"/>
<path d="M60.4496 31.3793C59.5967 26.9577 57.7434 22.6114 54.824 19.1054C53.4317 17.434 51.8011 16.0166 49.8569 14.9911C47.8783 13.95 45.6769 13.3542 43.4537 13.0751C39.2799 12.5545 34.8836 13.2695 31.174 15.2263C24.6202 18.6852 20.8196 25.788 20.5029 32.9128C20.481 33.4302 20.4778 33.9508 20.4935 34.4713C20.3869 35.6943 20.3618 36.9236 20.4245 38.1435C20.6033 41.7905 21.4875 45.7292 23.8488 48.6519C25.9842 51.2955 29.2078 52.5435 32.5067 53.1582C34.3693 53.5063 36.2633 53.685 38.1511 53.8355C53.576 55.0868 63.6418 47.9212 60.4433 31.3793" fill="#CFCFCC"/>
<path d="M44.6548 37.0839C44.3726 36.002 43.7767 34.9139 43.297 34.4153C41.6444 32.6968 38.8348 32.7689 37.5804 33.5717C36.784 34.0766 35.8056 35.3121 35.3572 37.1372C34.8649 39.163 35.1879 41.3676 35.8025 42.7662C36.2854 43.8637 36.9094 44.5819 37.5365 45.1118C38.8442 46.2157 40.2208 46.2941 41.6382 45.7359C42.927 45.2279 44.313 43.9672 44.7582 40.7529C44.937 39.4735 44.9464 38.1909 44.6548 37.0839Z" fill="#332B21"/>
<path d="M30.3364 33.8633C29.9225 33.6595 29.4804 33.7222 29.1668 33.9888C28.9441 34.1236 28.7591 34.3557 28.6525 34.6128C28.3891 35.2463 28.7591 35.8546 29.3675 36.0553C29.9758 36.256 30.5622 36.093 30.8413 35.5034C31.089 34.9735 30.8758 34.1393 30.3364 33.8696" fill="#332B21"/>
<path d="M49.9791 33.8633C50.393 33.6595 50.8352 33.7222 51.1488 33.9888C51.3745 34.1236 51.5564 34.3557 51.663 34.6128C51.9264 35.2463 51.5564 35.8546 50.9481 36.0553C50.3397 36.256 49.7533 36.093 49.4743 35.5034C49.2265 34.9735 49.4366 34.1393 49.9791 33.8696" fill="#332B21"/>
<path d="M38.395 47.9374C39.6085 49.3611 41.7565 49.0537 42.5154 47.3447C42.6691 46.9966 42.1548 46.6924 41.998 47.0436C41.3897 48.414 39.7967 48.6649 38.8152 47.514C38.5643 47.2192 38.1442 47.6457 38.3919 47.9374" fill="#332B21"/>
<path d="M56.0449 38.4639C56.0449 37.451 54.6432 36.6294 52.9154 36.6294C51.1876 36.6294 49.7891 37.451 49.7891 38.4639C49.7891 39.4768 51.1907 40.2984 52.9154 40.2984C54.6401 40.2984 56.0449 39.4768 56.0449 38.4639Z" fill="#FF8F66"/>
<path d="M23.9531 38.4639C23.9531 37.451 25.3548 36.6294 27.0826 36.6294C28.8104 36.6294 30.209 37.451 30.209 38.4639C30.209 39.4768 28.8073 40.2984 27.0826 40.2984C25.3579 40.2984 23.9531 39.4768 23.9531 38.4639Z" fill="#FF8F66"/>
<path d="M32.7084 29.1281C30.8144 28.457 28.9799 28.4821 27.5406 30.0281C27.1894 30.4044 27.7538 30.9688 28.1019 30.5925C29.3562 29.2472 30.8739 29.3256 32.4951 29.8995C32.9812 30.072 33.1882 29.3005 32.7084 29.1312" fill="#FFEBD9"/>
<path d="M47.5089 29.8962C49.1301 29.3223 50.6478 29.2439 51.9021 30.5892C52.2533 30.9655 52.8146 30.4011 52.4665 30.0247C51.0272 28.4787 49.1928 28.4568 47.2956 29.1247C46.8159 29.2941 47.0228 30.0655 47.5089 29.893" fill="#FFEBD9"/>
<path d="M44.4577 16.3714C41.5571 15.7725 38.412 15.5937 35.527 16.3714C34.4044 16.6756 34.881 18.416 36.0068 18.1119C38.5719 17.4188 41.3972 17.5788 43.978 18.1119C45.1131 18.3471 45.5992 16.6066 44.4577 16.3714Z" fill="#B8B5B2"/>
<path d="M42.4561 20.4446C40.976 20.4352 39.5022 20.3379 38.0253 20.4446C36.8713 20.5261 36.8619 22.3324 38.0253 22.2477C39.5022 22.1411 40.9792 22.2383 42.4561 22.2477C43.6195 22.254 43.6195 20.4508 42.4561 20.4446Z" fill="#B8B5B2"/>
<path d="M41.1828 24.5494C40.4929 24.4679 39.803 24.4585 39.1069 24.4585C37.9435 24.4585 37.9435 26.2648 39.1069 26.2648C39.7999 26.2648 40.4929 26.2742 41.1828 26.3557C41.672 26.4122 42.0859 25.901 42.0859 25.4526C42.0859 24.9163 41.672 24.6059 41.1828 24.5494Z" fill="#B8B5B2"/>
</g>
</svg>
