<svg width="81" height="81" viewBox="0 0 81 81" fill="none" xmlns="http://www.w3.org/2000/svg">
<path d="M40.7425 0.5C18.6918 0.5 0.816406 18.4091 0.816406 40.5016C0.816406 62.594 18.6918 80.5 40.7425 80.5C62.7933 80.5 80.6686 62.5909 80.6686 40.5016C80.6686 18.4123 62.7933 0.5 40.7425 0.5Z" fill="#F05C5C"/>
<mask id="mask0_5374_204777" style="mask-type:luminance" maskUnits="userSpaceOnUse" x="0" y="0" width="81" height="81">
<path d="M40.5941 0.5C18.5433 0.5 0.667969 18.4091 0.667969 40.5016C0.667969 62.594 18.5433 80.5 40.5941 80.5C62.6448 80.5 80.5202 62.5909 80.5202 40.5016C80.5202 18.4123 62.6448 0.5 40.5941 0.5Z" fill="white"/>
</mask>
<g mask="url(#mask0_5374_204777)">
<path d="M54.9802 49.1344C52.6828 46.2212 47.0081 43.6811 40.9797 43.6152C34.9514 43.6842 29.2767 46.2212 26.9793 49.1344C22.8946 54.3181 14.5345 75.0432 16.497 89.7789H64.8835C65.907 68.0878 59.0648 54.3149 54.9802 49.1344Z" fill="#BDC254"/>
<path d="M44.7975 54.1456C47.7365 53.5059 50.6193 52.4898 53.2578 51.0285C53.9464 50.6459 54.6945 50.2163 55.4332 49.7302C55.2798 49.5201 55.1264 49.3226 54.9793 49.1344C52.6819 46.2212 47.0073 43.6811 40.9789 43.6152C34.9505 43.6811 29.2758 46.2212 26.9784 49.1344C26.6185 49.5923 26.2241 50.1755 25.8047 50.8623C31.4261 53.9951 38.478 55.5191 44.7975 54.1456Z" fill="#A1A136"/>
<path d="M40.9797 65.8018C29.2047 65.8018 27.4519 85.3604 27.2422 89.782H54.7141C54.5075 85.3604 52.7516 65.8018 40.9766 65.8018" fill="#FFEBD9"/>
<path d="M57.9301 84.6267C57.686 81.6915 57.3198 78.7689 56.8753 75.8619C56.2524 71.7978 55.4324 67.7681 54.4621 63.7761C54.7062 62.804 55.0881 61.951 55.5701 61.0699C55.8831 60.4928 55.0067 59.9786 54.6937 60.5556C54.4402 61.0197 54.2117 61.4807 54.0114 61.951C53.7203 60.8127 53.423 59.6744 53.11 58.5423C52.9347 57.9089 51.955 58.1786 52.1303 58.812C53.6671 64.3845 54.9285 70.0291 55.8362 75.7396C56.3057 78.6874 56.6593 81.6539 56.916 84.6267C57.0631 86.3515 57.0975 88.0637 57.1038 89.779H58.1179C58.1117 88.0637 58.0772 86.3515 57.9332 84.6267" fill="#A1A136"/>
<path d="M28.758 58.5426C28.445 59.6778 28.1476 60.8161 27.8565 61.9545C27.6562 61.4809 27.4246 61.02 27.1711 60.5558C26.8581 59.9788 25.9817 60.4931 26.2947 61.0701C26.7767 61.9545 27.1586 62.8074 27.4027 63.7827C26.4387 67.7747 25.6217 71.8012 24.9863 75.8622C24.5513 78.6406 24.2164 81.4347 23.966 84.235C23.8001 86.0915 23.7563 87.9354 23.75 89.7825H24.7641C24.7672 88.0671 24.8048 86.3549 24.9456 84.6302C25.1929 81.6542 25.5654 78.6908 26.0255 75.743C26.9176 70.0325 28.1977 64.3848 29.7345 58.8154C29.9098 58.182 28.927 57.9123 28.7548 58.5457" fill="#A1A136"/>
<path d="M29.2252 49.4735C38.3429 53.1456 52.168 51.653 56.7065 47.6484C62.594 42.4554 62.7067 35.9797 61.63 29.7016C61.2294 27.3654 59.2606 22.9155 57.6799 20.9274C58.3185 19.9929 58.6909 18.8608 58.6909 17.6441C58.6909 14.4235 56.0868 11.8145 52.8723 11.8145C50.6187 11.8145 48.6656 13.304 47.6984 15.1793C45.2664 14.2103 37.2348 13.9061 33.1627 15.4427C32.2957 13.3134 30.2112 11.8145 27.776 11.8145C24.5647 11.8145 21.9605 14.4235 21.9605 17.6441C21.9605 19.3061 22.6585 20.8082 23.7728 21.8682C19.7038 25.857 19.0716 32.3703 19.034 34.5717C18.9964 36.7825 19.3407 39.0153 20.2171 41.1006C21.6569 44.5251 25.5318 47.9902 29.2221 49.4766" fill="#BDC254"/>
<path d="M26.5808 15.0256C27.5636 14.5396 28.6122 14.6932 29.3571 15.3204C29.8892 15.6434 30.3243 16.1953 30.5778 16.8037C31.2007 18.3089 30.3274 19.7577 28.8751 20.2344C27.429 20.7079 26.0393 20.3222 25.3789 18.9141C24.7873 17.6504 25.2913 15.6653 26.5808 15.0256Z" fill="#332B21"/>
<path d="M26.0355 16.8692C26.2546 16.7782 26.4862 16.8064 26.6521 16.9256C26.771 16.9852 26.8681 17.0918 26.9244 17.2047C27.0621 17.4901 26.8681 17.7629 26.5457 17.8507C26.2233 17.9416 25.9165 17.8664 25.7694 17.603C25.638 17.3646 25.7507 16.9915 26.0355 16.8692Z" fill="white"/>
<path d="M52.0152 15.0256C52.998 14.5396 54.0465 14.6932 54.7915 15.3204C55.3236 15.6434 55.7586 16.1953 56.0121 16.8037C56.635 18.3089 55.7618 19.7577 54.3126 20.2344C52.8665 20.7079 51.4768 20.3222 50.8164 18.9141C50.2248 17.6504 50.7287 15.6653 52.0183 15.0256" fill="#332B21"/>
<path d="M51.473 16.8692C51.6921 16.7782 51.9237 16.8064 52.0896 16.9256C52.2085 16.9852 52.3056 17.0918 52.3619 17.2047C52.4996 17.4901 52.3055 17.7629 51.9832 17.8507C51.6608 17.9416 51.354 17.8664 51.2069 17.603C51.0755 17.3646 51.1881 16.9915 51.473 16.8692Z" fill="white"/>
<path d="M39.9827 17.5245C39.8825 17.5371 39.751 17.5935 39.6196 17.6876C39.4193 17.8068 39.197 18.0325 39.0374 18.2834C38.8277 18.6158 38.8841 18.873 39.1032 18.8322C39.3473 18.7883 39.6603 18.5061 39.9138 18.1486C40.1673 17.7911 40.2299 17.4932 39.9827 17.5214" fill="#332B21"/>
<path d="M42.1552 18.2865C41.9956 18.0325 41.7734 17.8099 41.573 17.6907C41.4385 17.5966 41.307 17.5402 41.21 17.5276C40.9658 17.4963 41.0253 17.7973 41.2788 18.1548C41.5323 18.5123 41.8453 18.7914 42.0895 18.8384C42.3086 18.8792 42.3649 18.6221 42.1584 18.2897" fill="#332B21"/>
<path d="M38.9563 22.9784C40.1958 24.4334 42.3868 24.1198 43.163 22.3731C43.3227 22.0156 42.7968 21.7052 42.6372 22.0658C42.0143 23.4676 40.3898 23.7216 39.3882 22.5487C39.1316 22.2477 38.7028 22.6836 38.9563 22.9815" fill="#332B21"/>
<path d="M56.9672 22.865C56.9672 21.8302 55.5368 20.9897 53.7746 20.9897C52.0125 20.9897 50.582 21.8302 50.582 22.865C50.582 23.8999 52.0125 24.7403 53.7746 24.7403C55.5368 24.7403 56.9672 23.8999 56.9672 22.865Z" fill="#FF8F66"/>
<path d="M24.2188 22.865C24.2188 21.8302 25.646 20.9897 27.4113 20.9897C29.1766 20.9897 30.6039 21.8302 30.6039 22.865C30.6039 23.8999 29.1735 24.7403 27.4113 24.7403C25.6491 24.7403 24.2188 23.8999 24.2188 22.865Z" fill="#FF8F66"/>
</g>
</svg>
