<svg width="381" height="283" viewBox="0 0 381 283" fill="none" xmlns="http://www.w3.org/2000/svg">
<path d="M0 30C0 13.4315 13.4315 0 30 0H350.173C366.742 0 380.173 13.4315 380.173 30V282H0V30Z" fill="#C42797"/>
<mask id="mask0_5432_53686" style="mask-type:luminance" maskUnits="userSpaceOnUse" x="43" y="28" width="301" height="255">
<path d="M343.561 28.7686H43.9424V282.137H343.561V28.7686Z" fill="white"/>
</mask>
<g mask="url(#mask0_5432_53686)">
<path d="M261.058 267.284C276.599 264.362 353.821 240.82 342.414 190.622C340.966 184.249 338.732 178.162 334.832 172.224C330.89 166.224 326.561 160.373 323.753 154.098C312.816 129.667 318.802 103.794 307.834 79.3497C302.993 68.5577 294.699 58.4625 281.911 50.7261C270.076 43.5674 255.413 38.847 240.284 35.5393C219.521 30.9999 195.288 31.2903 179.351 33.4093C73.1303 47.5195 44.9006 84.8849 44.0019 119.127C42.3777 180.915 74.428 221.268 85.5629 231.942C104.143 249.753 132.334 262.129 163.486 268.343C194.553 274.539 230.256 273.075 261.058 267.284Z" fill="#CE83B6"/>
</g>
<mask id="mask1_5432_53686" style="mask-type:luminance" maskUnits="userSpaceOnUse" x="76" y="28" width="232" height="255">
<path d="M307.688 28.7773H76.1631V282.141H307.688V28.7773Z" fill="white"/>
</mask>
<g mask="url(#mask1_5432_53686)">
<path d="M157.316 180.564C157.358 180.416 157.348 180.258 157.295 180.11C156.879 170.385 155.624 160.965 153.05 151.578C151.007 144.131 148.433 136.876 145.389 129.836C145.252 129.507 145.103 129.167 144.954 128.838C144.337 127.41 143.688 125.981 143.018 124.565C143.155 124.225 143.008 123.737 142.561 123.748C134.337 124.008 126.103 124.191 117.89 124.542C115.389 124.643 112.836 124.894 110.825 126.628C108.4 128.724 107.006 132.261 105.698 135.175C99.5697 148.777 97.5266 163.922 95.9415 178.772C95.9204 179.011 96.122 179.26 96.336 179.316C106.41 181.868 116.666 183.522 127.006 184.179C131.687 184.474 136.4 184.725 141.018 183.692C146.124 182.548 150.976 180.36 156.262 180.812C156.262 181.006 156.285 181.199 156.285 181.391C156.317 182.116 157.379 182.127 157.348 181.391C157.337 181.118 157.327 180.836 157.316 180.564" fill="#B9B4D3"/>
<path d="M145.39 129.837C142.188 130.166 139.092 131.13 135.751 130.721C131.166 130.155 126.784 128.589 122.123 129.283C121.443 129.384 121.283 128.263 121.953 128.16C126.4 127.502 130.591 128.795 134.953 129.464C137.336 129.815 139.667 129.86 142.028 129.395C143.017 129.203 143.985 128.999 144.953 128.84C145.102 129.169 145.251 129.509 145.39 129.837Z" fill="#837EAC"/>
<path d="M94.4386 162.167C94.3154 160.995 94.2684 160.449 93.9237 159.356C93.6978 158.632 93.3458 158.246 93.0704 157.54C93.0465 157.501 93.0193 157.466 92.9949 157.426C92.9075 157.28 92.7872 157.204 92.6622 157.177C89.0703 153.958 88.0892 155.99 88.0892 155.99C88.0892 155.99 82.5357 161.316 79.4785 165.473C78.8898 166.274 76.6092 167.733 76.5086 168.779C76.2827 171.123 82.8206 168.697 83.8698 168.537C84.04 168.51 84.1485 168.42 84.2054 168.303C84.2161 168.298 84.2264 168.3 84.2371 168.293C86.4814 167.062 91.1769 165.113 91.1769 165.113C91.1769 165.113 91.7355 168.813 93.3462 169.246C94.6377 169.593 95.2969 169.06 96.1837 168.821C95.8584 168.907 94.5021 167.336 94.4061 166.938C94.2482 166.286 94.5095 162.844 94.4386 162.167Z" fill="#F49E7C"/>
<path d="M86.7614 163.046C84.327 164.773 82.0073 166.658 79.7977 168.696C79.2782 169.174 80.0339 169.975 80.5504 169.498C82.6908 167.522 84.9401 165.699 87.299 164.026C87.865 163.622 87.3336 162.64 86.7614 163.046Z" fill="#E26C48"/>
<path d="M83.2865 162.244C81.9377 163.271 80.637 164.361 79.3817 165.518C78.8639 165.996 79.6196 166.795 80.1357 166.318C81.3205 165.226 82.5486 164.193 83.8237 163.224C84.3761 162.802 83.8451 161.819 83.2865 162.244Z" fill="#E26C48"/>
<path d="M101.397 125.607C101.132 120.643 97.8003 120.528 97.8003 120.528L92.1191 119.645C92.1191 119.645 91.2158 123.725 90.5129 128.181C89.9395 131.738 89.1504 141.148 88.3107 150.183C88.1301 151.984 87.9599 153.776 87.7793 155.511C87.7372 155.952 87.6936 156.382 87.6515 156.814C87.6198 157.154 87.7793 157.357 87.9813 157.449C88.013 157.607 88.1198 157.755 88.3004 157.811C89.1418 158.062 89.9819 158.299 90.8114 158.547C91.492 158.753 92.1421 158.968 92.8438 158.899C92.9295 158.887 93.2049 158.185 93.6205 156.995C93.9923 155.861 94.492 154.275 95.046 152.427C97.6519 143.731 101.578 128.973 101.397 125.606" fill="#F49E7C"/>
<path d="M134.073 32.7565C133.733 32.4951 133.381 32.2351 133.009 31.9979C127.956 28.7772 122.03 29.162 117.541 32.7789C117.254 33.0051 116.977 33.2441 116.71 33.4945H116.679C114.615 33.6855 112.614 34.9331 111.19 36.7472C108.392 40.3066 107.976 45.4988 108.242 49.9529C108.434 53.0023 108.402 56.0513 107.753 59.0893C107.252 61.4134 105.572 63.4762 105.721 65.9032C105.88 68.7022 105.869 71.2991 105.636 74.143C105.422 76.7961 105.816 79.1651 106.294 81.8407C106.317 81.9435 106.359 82.0221 106.401 82.0893C106.508 83.1673 106.827 84.1539 107.306 85.2635C107.764 86.319 108.87 86.431 108.956 87.6566C108.998 88.3366 109.922 88.8114 110.189 89.458C111.316 92.2588 116.252 91.5898 118.423 91.4084C122.616 91.0794 126.71 89.809 130.477 87.8156C133.168 86.3977 137.606 84.2321 138.563 80.9121C138.818 80.0155 138.711 79.0628 138.732 78.1451C138.776 76.3086 139.009 75.1423 139.849 73.5319C140.594 72.103 141.244 70.9816 141.297 69.2926C141.381 66.8208 140.466 64.4404 140.541 61.9463C140.594 59.8387 141.085 57.7631 141.488 55.6779C141.627 54.9417 141.754 54.2037 141.839 53.4565C141.85 53.4227 141.86 53.3762 141.86 53.3428C141.956 52.549 142.03 51.7324 142.074 50.8952C142.106 50.2358 142.116 49.5558 142.106 48.8759C142.052 42.3251 140.042 35.2401 134.073 32.7574" fill="#A75032"/>
<path d="M135.998 53.3721C135.623 53.0708 135.263 53.4393 135.245 53.8421C133.627 56.0446 133.189 58.9429 130.892 60.5871C128.882 62.0274 127.244 63.0716 126.034 65.4181C124.762 67.8851 122.36 75.0245 126.662 75.7141C128.759 76.0511 131.187 74.5417 132.777 73.2441C134.633 71.7282 134.822 70.3041 135.14 67.9751C135.773 63.3558 140.883 57.3071 135.998 53.3721Z" fill="#752D12"/>
<path d="M115.053 54.4711C115.02 54.298 114.934 54.1873 114.824 54.1245C114.862 53.9704 114.907 53.8214 114.937 53.6576C115.068 52.9455 114.043 52.6389 113.91 53.3558C113.519 55.4876 112.285 57.26 111.949 59.4111C111.766 60.598 111.783 61.846 111.779 63.0443C111.771 65.072 111.707 65.9316 111.116 67.9751C110.673 69.5068 109.679 73.9228 111.518 74.8544C113.988 76.1103 116.007 69.8402 116.316 68.2588C117.216 63.6457 115.914 58.9683 115.052 54.4707" fill="#752D12"/>
<path d="M138.078 72.9507C138.535 72.3894 143.709 73.4177 146.28 76.345C148.851 79.274 165.783 96.6562 165.783 96.6562C165.783 96.6562 163.834 106.574 163.745 107.047C163.657 107.519 160.11 105.724 156.032 103.836C151.954 101.945 140.96 94.8618 140.96 94.8618L138.078 72.9507Z" fill="#F49E7C"/>
<path d="M144.232 112.483C144.104 112.948 143.999 113.424 143.892 113.901C144.19 115.329 144.465 116.825 144.625 118.288C144.796 119.818 144.86 121.324 144.711 122.731C144.465 125.009 143.168 126.143 141.072 126.347C138.137 126.631 135.221 125.814 132.305 125.213C131.221 124.998 130.125 124.805 129.04 124.715C125.167 124.398 121.274 124.885 117.434 125.429C117.583 125.724 117.529 126.121 117.136 126.199C114.763 126.631 112.135 127.062 110.019 125.53C107.891 123.977 106.242 120.826 105.051 118.468C104.241 116.859 103.592 115.17 103.221 113.412C103.071 112.711 102.977 111.984 102.933 111.248C102.891 110.805 102.88 110.364 102.891 109.921C102.944 107.982 103.146 106.226 102.604 104.331C102.125 102.7 101.413 101.215 101.072 99.5141C100.849 98.3914 100.668 97.2589 100.508 96.1247C100.402 95.4223 100.305 94.7195 100.231 94.0171C99.944 91.7154 99.721 89.4022 99.4229 87.1246L98.9336 83.3038C99.0931 72.3085 113.561 72.1495 120.796 71.2881C122.901 71.0377 124.997 70.8119 127.105 70.6415C130.882 70.3353 134.667 70.9367 138.434 71.6263C141.264 72.1363 142.722 74.6529 143.531 77.0799C144.136 78.8602 144.328 80.4692 144.457 82.1244C144.562 83.393 144.616 84.6972 144.774 86.1375C144.956 86.7152 145.126 87.2941 145.307 87.8713C145.935 89.9451 146.562 91.9759 146.968 94.0501C147.338 95.9315 147.52 97.8357 147.35 99.8423C146.977 104.014 145.541 107.925 144.382 111.893C144.329 112.084 144.275 112.278 144.233 112.482" fill="#FCE4E3"/>
<path d="M115.408 102.81C114.269 100.589 114.513 97.7654 113.142 95.714C112.12 94.195 110.407 93.3784 108.715 93.1188C106.854 92.846 103.8 92.9712 101.557 94.0365C101.11 94.0141 100.663 94.0141 100.226 94.0141C100.302 94.7164 100.396 95.4193 100.503 96.1217C100.854 95.7254 101.312 95.3854 101.845 95.1254C104.194 95.204 106.599 95.714 107.769 97.3455C108.515 98.3896 108.536 99.862 109.088 100.985C110.174 103.161 111.769 104.817 109.855 107.367C108.322 109.396 105.387 110.461 102.928 111.244C102.97 111.982 103.067 112.707 103.216 113.409C106.993 113.828 110.875 113.942 114.173 112.128C115.673 111.301 117.589 109.792 117.94 107.888C118.322 105.803 116.216 104.398 115.408 102.81Z" fill="white"/>
<path d="M143.889 113.898C143.995 113.422 144.103 112.946 144.229 112.48C143.528 112.379 142.815 112.391 142.123 112.493C139.9 112.833 138.687 114.397 136.73 115.27C134.815 116.131 132.516 115.202 130.921 116.948C129.708 118.285 129.432 120.326 129.229 122.093C129.145 122.831 129.059 123.75 129.038 124.713C130.123 124.804 131.219 124.996 132.304 125.212C132.995 121.72 136.113 119.737 139.283 118.84C140.826 118.41 142.783 117.775 144.337 118.183C144.431 118.207 144.528 118.24 144.624 118.286C144.464 116.823 144.187 115.326 143.889 113.898Z" fill="white"/>
<path d="M127.804 76.8809C127.804 76.8809 127.771 76.9498 127.717 77.0781C127.148 78.2088 124.044 84.0203 119.748 83.7541C114.982 83.462 112.99 74.7315 112.99 74.7315L114.935 59.8145L116.949 61.7037L117.88 62.2397L124.568 66.0828L126.897 67.4107C126.897 67.4107 126.132 74.0849 126.153 74.5163C126.188 74.9591 127.805 76.8804 127.805 76.8804" fill="#F49E7C"/>
<path d="M126.154 74.5147C126.133 74.0833 126.897 67.4104 126.897 67.4104L124.569 66.0807C122.316 65.301 120.01 64.5666 118.174 62.9835C118.086 62.9017 117.999 62.8793 117.912 62.8552C117.901 62.6465 117.889 62.448 117.879 62.2393V62.122C117.879 61.551 117.245 61.4113 116.95 61.7017C116.853 61.7948 116.786 61.934 116.786 62.122C116.786 66.5235 118.338 70.9263 121.596 73.7688C123.192 75.1564 125.094 75.9247 126.973 76.7505C127.214 76.8564 127.465 76.9719 127.717 77.076C127.771 76.9478 127.805 76.8788 127.805 76.8788C127.805 76.8788 126.187 74.957 126.154 74.5147Z" fill="#E26C48"/>
<path d="M124.014 34.31C124.014 34.31 116.46 37.7908 115.236 40.8349C113.804 44.3956 114.369 49.5688 114.462 53.3299C114.519 55.6589 114.446 58.2527 114.98 60.5224C115.928 64.5483 120.596 69.035 124.271 70.4881C127.316 71.6926 129.294 69.3315 131.275 67.0201C132.659 65.4049 133.701 64.0541 134.314 62.2435C136.047 57.1396 137.288 51.5609 137.288 46.0543C137.288 41.1604 134.22 34.9632 124.014 34.31Z" fill="#F49E7C"/>
<path d="M120.935 53.9034C120.93 53.8695 120.926 53.8344 120.924 53.8006C120.868 53.0788 121.107 52.1726 121.627 51.7136C121.905 51.4667 122.295 51.3846 122.571 51.5902C122.777 51.7408 122.896 52.0294 122.927 52.3281C122.959 52.6282 122.912 52.9378 122.842 53.2361C122.741 53.6596 122.586 54.0861 122.312 54.3861C122.038 54.6861 121.627 54.8258 121.323 54.6299C121.106 54.4902 120.977 54.2064 120.935 53.9034Z" fill="#16142C"/>
<path d="M131.051 54.919C131.046 54.8852 131.042 54.85 131.04 54.8162C130.984 54.0945 131.224 53.1883 131.743 52.7292C132.022 52.4824 132.411 52.4002 132.687 52.6058C132.893 52.7565 133.012 53.0451 133.044 53.3438C133.075 53.6438 133.028 53.9535 132.958 54.2517C132.857 54.6752 132.702 55.1017 132.428 55.4017C132.154 55.7017 131.743 55.8414 131.439 55.6455C131.222 55.5058 131.093 55.2221 131.051 54.919Z" fill="#16142C"/>
<path d="M128.763 63.0462C128.348 63.9076 127.465 65.0304 125.784 64.8828C124.136 64.7242 123.242 63.4442 122.795 62.4686C122.582 62.0034 122.954 61.471 123.433 61.572C123.443 61.572 123.466 61.572 123.475 61.5835C124.06 61.6862 124.635 61.7983 125.221 61.9125C125.731 62.0153 126.21 62.0842 126.689 62.1176C127.178 62.1624 127.678 62.1738 128.211 62.1514C128.316 62.1514 128.423 62.1738 128.507 62.2186C128.784 62.3662 128.923 62.7286 128.763 63.0462Z" fill="white"/>
<path d="M125.103 49.1498C124.612 48.1408 122.869 48.1311 121.981 48.1987C121.281 48.2532 120.579 48.4715 120.013 48.9143C119.869 49.0281 119.73 49.1599 119.652 49.3312C119.572 49.5029 119.564 49.7226 119.667 49.8767C119.776 50.0388 119.973 50.0964 120.157 50.1284C121.188 50.3099 122.267 50.0292 123.282 50.2967C123.71 50.4105 124.151 50.6209 124.574 50.486C125.061 50.3287 125.332 49.6615 125.103 49.1498Z" fill="#A75032"/>
<path d="M130.883 49.6801C131.572 48.8495 133.051 49.3177 133.783 49.6274C134.359 49.8694 134.892 50.2723 135.249 50.8495C135.341 50.997 135.422 51.1622 135.441 51.3485C135.461 51.5347 135.41 51.7464 135.279 51.8664C135.143 51.9916 134.962 51.9916 134.797 51.9722C133.876 51.8633 133.042 51.2971 132.11 51.2777C131.718 51.2681 131.287 51.3498 130.966 51.1029C130.597 50.8191 130.55 50.1067 130.883 49.6801Z" fill="#A75032"/>
<path d="M138.132 53.9601C138.082 53.7997 138.051 53.6376 137.985 53.4791C138.134 53.3894 138.241 53.2419 138.251 53.0156C138.357 48.2421 138.667 41.9847 135.207 38.3806C132.091 35.126 127.761 33.5622 123.463 33.4256C123.41 33.1194 123.176 32.848 122.814 32.9622C121.442 33.3922 120.229 33.9936 119.165 34.7522C118.867 34.9446 118.569 35.1726 118.292 35.4212C115.092 38.0854 113.431 42.1886 113.017 46.8593C112.676 46.7455 112.314 46.6331 111.964 46.4855C111.325 46.2351 111.048 47.3355 111.676 47.5858C112.176 47.7782 112.697 47.9693 113.23 48.1182C113.282 48.1406 113.345 48.163 113.4 48.163C114.888 48.5707 116.442 48.6282 117.687 47.4589C118.548 46.6665 118.708 45.5885 119.218 44.5588C120.144 42.6757 121.868 41.6557 123.74 41.6557C124.124 41.6557 124.528 41.7023 124.922 41.7919C124.931 41.8033 124.943 41.7919 124.954 41.7919C125.017 41.9619 125.09 42.1209 125.176 42.2685C125.336 42.5975 125.518 42.8795 125.729 43.1299C126.772 44.2975 128.399 44.1051 129.709 44.7627C131.996 45.9065 132.123 48.3106 133.57 50.181C135.097 52.1538 137.082 54.4555 137.082 54.4555C137.082 54.4555 137.827 54.4397 138.132 53.9601Z" fill="#A75032"/>
<path d="M117.352 49.5453C117.346 49.4811 117.323 49.4297 117.302 49.3783C117.302 49.3608 117.309 49.348 117.308 49.33C117.194 47.7293 115.667 45.6986 113.999 46.5727C112.059 47.5914 112.246 50.4915 112.618 52.3487C112.935 53.9349 114.21 56.3956 116.095 55.4091C117.858 54.4853 117.514 51.2 117.352 49.5448" fill="#F49E7C"/>
<path d="M115.707 49.1247C115.425 48.4605 114.508 49.0364 114.789 49.6975C115.141 50.5317 115.304 51.122 114.893 51.9461C114.64 52.4561 114.506 52.9309 114.533 53.5147C114.564 54.2413 115.628 54.2461 115.595 53.5147C115.558 52.6709 116.204 52.0902 116.243 51.2499C116.277 50.4974 115.991 49.795 115.707 49.1247Z" fill="#E26C48"/>
<path d="M128.404 54.7668C128.31 54.0481 127.285 54.353 127.377 55.0685C127.58 56.6227 128.431 59.0031 126.867 60.081C126.293 60.4755 126.826 61.4572 127.403 61.061C129.507 59.611 128.687 56.9306 128.404 54.7668Z" fill="#E26C48"/>
<path d="M128.763 63.0462C128.348 63.9076 127.465 65.0304 125.784 64.8828C124.136 64.7242 123.242 63.4442 122.795 62.4686C122.582 62.0034 122.954 61.471 123.433 61.572C123.443 61.572 123.466 61.572 123.475 61.5835C123.603 61.9476 123.848 62.4576 124.295 62.7642C125.051 63.2839 126.38 63.478 127.465 63.2276C127.741 63.1587 128.156 62.6728 128.507 62.2186C128.784 62.3662 128.923 62.7286 128.763 63.0462Z" fill="#E56539"/>
<path d="M132.543 77.6992C132.374 75.4633 131.385 72.4895 129.327 71.423C127.301 70.3722 126.03 73.3267 125.424 74.9164C124.864 76.3779 124.626 77.9048 124.007 79.3882C123.536 80.514 123.119 81.5121 122.891 82.6555C121.268 81.5793 119.665 80.4837 118.174 79.2485C116.172 77.5898 115.28 74.345 112.946 73.4388C112.823 73.2784 112.632 73.198 112.419 73.2802C112.052 73.2015 111.653 73.1726 111.209 73.2143C110.533 73.2784 110.526 74.4139 111.209 74.3485C111.266 74.3436 111.316 74.3467 111.371 74.3436C110.449 75.8191 110.372 78.0392 110.628 79.6399C111.156 82.9555 113.269 85.5586 115.686 87.5687C117.81 89.338 120.453 91.3284 123.256 91.4421C125.758 91.5414 127.455 90.0259 128.876 88.1169C129.16 88.1138 129.381 87.7848 129.35 87.4545C129.466 87.2862 129.583 87.1224 129.694 86.9524C131.475 84.2447 132.797 81.071 132.543 77.6992Z" fill="#FCE4E3"/>
<path d="M144.102 88.4256C143.805 91.9064 140.283 90.9888 138.145 90.7388C136.092 90.4884 133.783 90.3184 132.08 91.8392C131.782 92.0878 131.486 92.7116 131.188 92.9154C129.273 94.1954 128.602 91.316 129.017 89.7522C129.432 88.1884 130.22 86.817 131.251 85.6714C132.804 84.6159 134.57 83.0073 136.304 82.4296C138.762 81.613 138.975 83.1997 140.507 84.3914C141.996 85.5353 144.379 85.2062 144.102 88.4256ZM145.305 87.8708C145.124 87.2932 144.954 86.7142 144.772 86.137C144.612 84.6967 144.559 83.3925 144.453 82.1239C144.219 81.9987 143.974 81.9091 143.73 81.8177C142.911 81.5353 142.09 81.4777 141.251 81.3411C139.453 81.035 138.548 80.2201 137.176 79.1422C136.081 78.2922 135.017 78.1687 133.719 78.3721C133.644 78.3835 133.591 78.4059 133.549 78.4393C131.517 77.8393 129.325 78.0993 128.006 80.2087C127.038 81.7597 127.528 83.5625 127.123 85.2629C126.634 87.3723 124.943 88.7437 124.07 90.625C122.76 93.4592 124.112 96.1796 126.027 98.3004C128.496 101.032 130.4 100.374 133.187 98.5956C135.783 96.9404 138.452 96.5762 141.4 96.249C142.857 96.09 144.369 95.909 145.666 95.1148C146.144 94.8196 146.581 94.4572 146.964 94.0496C146.56 91.9758 145.933 89.9451 145.305 87.8708Z" fill="white"/>
<path d="M131.318 78.5797C130.377 76.3772 129.14 74.3754 127.698 72.5151C127.261 71.9507 126.512 72.7572 126.945 73.3155C127.978 74.6482 128.89 76.0504 129.66 77.5711C130.201 78.6376 131.426 80.6925 131.268 82.136C129.237 81.0598 126.839 81.4881 125.232 83.2877C124.76 83.8153 125.511 84.6192 125.984 84.0898C127.443 82.4536 129.566 82.2181 131.321 83.4564C131.547 83.6167 131.929 83.5188 132.048 83.2544C132.763 81.6791 131.953 80.0657 131.318 78.5801" fill="#F2C3C2"/>
<path d="M189.495 88.0832C189.253 87.3809 188.815 86.837 188.38 86.2594C187.841 85.5425 187.302 84.8256 186.763 84.1083C186.643 83.9497 186.497 83.9045 186.358 83.9269C186.209 83.7648 185.985 83.6928 185.748 83.8513C178.38 88.8203 161.664 97.2143 161.664 97.2143C161.664 97.2143 161.392 101.221 161.278 103.388C161.219 104.513 163.203 107.05 163.203 107.05C163.203 107.05 166.054 108.035 169.837 106.452C173.526 104.909 176.468 102.246 179.337 99.415C182.601 96.1943 189.695 88.6618 189.495 88.0828" fill="#F49E7C"/>
<path d="M205.827 81.443C205.817 81.3854 205.806 81.3178 205.785 81.273C205.679 80.8078 205.423 80.535 205.093 80.3554C204.891 80.2192 204.656 80.1388 204.413 80.0492C204.465 79.8344 204.434 79.6064 204.274 79.4702C204.253 79.4254 204.2 79.3916 204.146 79.3692C203.412 79.0178 202.093 79.3002 201.306 79.3002C200.264 79.3002 199.221 79.2888 198.178 79.2888C197.711 79.2888 193.136 79.5278 192.242 78.745C193.157 77.7584 194.636 76.9422 194.264 75.5032C193.966 74.3466 192.944 74.698 192.284 75.208C191.211 76.0246 190.21 76.9532 189.093 77.7022C188.316 78.2236 187.381 78.6308 186.678 79.266C185.167 80.6374 185.008 83.0305 184.988 85.0582C184.988 85.2409 185.051 85.3775 185.135 85.4671C185.167 87.0436 185.828 88.6751 187.05 89.5251C187.944 90.1488 188.763 89.9678 189.786 89.8541C191.508 89.6617 193.242 89.4337 194.965 89.1517C196.242 88.9479 201.53 88.7651 201.892 86.8838C201.976 86.4537 201.871 86.1585 201.648 85.9437C202.381 85.6933 203.093 85.4447 203.806 85.1609C205.009 84.6848 205.828 83.8682 205.807 82.452C205.807 82.3958 205.796 82.3268 205.796 82.2706C205.859 82.0105 205.882 81.7382 205.828 81.443" fill="#F49E7C"/>
<path d="M191.91 79.0813C191.741 79.4086 191.446 79.5865 191.324 79.9489C191.2 80.324 191.255 80.711 191.239 81.102C191.185 82.2827 190.665 83.3282 189.87 84.1334C189.372 84.6372 190.126 85.4375 190.623 84.9355C191.323 84.2247 191.846 83.3668 192.112 82.3706C192.235 81.9054 192.295 81.4226 192.303 80.9381C192.315 80.2981 192.562 80.1716 192.828 79.6533C193.158 79.0133 192.24 78.4405 191.91 79.0805" fill="#E26C48"/>
<path d="M205.095 80.3574C202.584 81.3326 199.989 81.8202 197.298 81.854C196.616 81.8654 196.616 80.7313 197.298 80.7198C199.702 80.686 202.022 80.2788 204.277 79.4736C204.436 79.6098 204.468 79.836 204.415 80.0513C204.659 80.1426 204.894 80.2213 205.096 80.3574" fill="#E26C48"/>
<path d="M205.798 82.271C205.798 82.3286 205.808 82.3962 205.808 82.4524C204.755 82.7924 203.701 83.1438 202.649 83.4724C201.244 83.9262 199.851 83.8801 198.447 84.2328C197.776 84.4028 197.49 83.3138 198.16 83.1438C199.565 82.7924 200.969 82.8263 202.361 82.3835C203.501 82.0097 204.649 81.649 205.787 81.2734C205.808 81.3182 205.819 81.3872 205.829 81.4434C205.883 81.7386 205.861 82.0096 205.798 82.271Z" fill="#E26C48"/>
<path d="M200.426 85.2541C199.451 85.3375 198.478 85.3569 197.501 85.3134C196.817 85.2831 196.818 86.4168 197.501 86.4476C198.478 86.4911 199.451 86.47 200.426 86.3883C201.104 86.3307 201.11 85.1965 200.426 85.2541Z" fill="#E26C48"/>
<path d="M141.868 78.6661C141.517 79.9141 140.677 80.7738 140.581 82.1807C140.518 83.1897 140.9 84.1407 141.156 85.0711C141.57 86.5563 141.826 87.9615 141.687 89.5143C141.57 90.8295 141.24 93.845 139.569 93.8112C139.336 93.7998 139.133 93.6074 139.07 93.3684C138.794 92.1332 139.229 90.7618 139.145 89.5042C139.038 87.9501 138.304 86.8848 137.942 85.4572C137.209 82.5317 138.878 79.3347 138.698 76.3639C138.57 74.4487 137.644 72.9412 136.773 71.3884C136.773 71.3769 136.762 71.3642 136.752 71.3545C136.283 70.5142 135.836 69.6541 135.559 68.7014C135.463 68.3952 135.389 68.0886 135.335 67.76C135.316 67.59 135.282 67.42 135.272 67.25C135.209 66.8072 135.176 66.3662 135.167 65.9124C135.57 65.3462 135.954 64.7449 136.292 64.1334C136.942 62.9768 137.474 61.753 137.9 60.4717C138.814 62.3083 140.092 63.941 140.846 65.8676C141.73 68.1119 141.133 69.937 141.028 72.2388C140.974 73.384 141.379 74.4044 141.677 75.4806C142.007 76.6706 142.209 77.4757 141.868 78.6661" fill="#A75032"/>
<path d="M137.349 93.4926C137.221 93.7878 136.975 93.9578 136.679 93.8665C135.36 93.4593 134.328 93.8906 133.243 94.0606C133.274 93.3903 133.253 92.734 133.158 92.0747C132.594 88.0405 130.169 86.8711 130.541 82.0655C130.742 79.5151 131.454 77.4172 131.095 74.721C131.084 74.6406 131.072 74.551 131.051 74.4706C130.807 72.7816 130.222 71.343 129.615 69.8464H129.668C130.934 69.6988 131.901 68.7575 132.796 67.8623C133.264 67.7261 133.637 67.6251 134.116 67.6584C134.286 67.2846 134.838 67.126 135.051 67.6136C135.084 67.6923 135.126 67.7709 135.157 67.8508C135.296 68.146 135.424 68.4298 135.562 68.7008C135.999 69.6294 136.413 70.5036 136.753 71.354C136.764 71.3654 136.774 71.3764 136.774 71.3878C137.859 74.0072 138.349 76.4548 137.061 79.7879C136.295 81.7594 135.976 83.4835 136.816 85.5349C137.135 86.34 137.572 87.0987 137.807 87.9491C138.349 89.8529 138.105 91.7136 137.349 93.4926Z" fill="#A75032"/>
<path d="M107.569 77.3383C109.17 79.8343 109.291 82.476 109.209 85.203C109.04 90.7593 107.667 97.9005 106.519 103.315C105.659 107.365 104.654 111.375 103.7 115.4C103.201 117.495 102.715 119.595 102.272 121.702C101.943 123.271 101.351 126.774 101.351 126.774C101.351 126.774 91.3601 125.855 91.7888 122.544C92.4406 117.525 92.7357 112.466 93.2684 107.433C94.2034 98.6204 94.7224 89.1059 97.2952 80.6847C97.8596 78.8384 99.1289 77.5439 100.586 76.466C102.132 75.3239 104.167 74.9839 105.876 75.8066C106.6 76.1563 107.151 76.6856 107.569 77.3383Z" fill="#F49E7C"/>
<path d="M125.176 42.2681C125.091 42.1205 125.017 41.9619 124.954 41.7919C124.943 41.7919 124.931 41.8034 124.921 41.7919C124.528 41.7006 124.123 41.6558 123.741 41.6558C123.251 40.7272 122.569 39.922 121.698 39.2995C120.996 38.8102 120.06 38.6644 119.422 38.1096C118.772 37.553 118.784 36.8506 118.549 36.0788C118.484 35.8526 118.399 35.6378 118.293 35.423C117.921 34.6517 117.358 33.9936 116.676 33.4951H116.709C116.974 33.2464 117.251 33.0075 117.538 32.7812C117.889 33.0523 118.218 33.3813 118.527 33.7213C118.803 34.0389 119.006 34.3903 119.165 34.7527C119.644 35.7727 119.868 36.8954 120.845 37.5759C122.835 38.9363 124.324 40.0011 125.176 42.269" fill="#752D12"/>
<path d="M134.114 67.658C133.636 67.6242 133.264 67.727 132.796 67.8619C131.903 68.7584 130.934 69.6984 129.668 69.8478H129.615C130.222 71.3426 130.805 72.783 131.051 74.472C131.689 74.0854 132.273 73.6554 132.775 73.2482C134.635 71.7292 134.817 70.2998 135.136 67.9756C135.147 67.9308 135.147 67.897 135.157 67.8522C135.126 67.7718 135.082 67.6919 135.051 67.6132C134.838 67.1256 134.284 67.2842 134.114 67.658ZM135.168 65.9128C135.179 66.3666 135.21 66.8081 135.274 67.2504C135.488 66.2528 135.87 65.21 136.296 64.1338C135.956 64.7448 135.573 65.3449 135.168 65.9128Z" fill="#752D12"/>
<path d="M141.837 53.4561C141.751 54.2037 141.623 54.9412 141.486 55.6774C141.125 54.1936 140.475 52.8095 139.37 51.7218C138.06 50.4291 136.221 50.1339 135.167 48.5363C134.304 47.2435 134.273 45.5545 133.54 44.1831C131.879 41.1004 128.497 40.3624 125.433 40.68C124.751 40.7472 124.751 39.6147 125.433 39.5475C127.859 39.2972 130.294 39.6147 132.326 41.1561C134.283 42.6527 134.657 44.4089 135.496 46.6307C136.571 49.4539 139.805 49.9525 141.358 52.5384C141.539 52.8336 141.699 53.1385 141.837 53.4561Z" fill="#752D12"/>
<path d="M142.104 48.8743C142.115 49.5543 142.104 50.2347 142.072 50.8923C140.956 48.7623 139.263 46.9819 137.115 46.5392C136.433 46.3916 136.721 45.3039 137.391 45.4406C139.328 45.8478 140.913 47.1634 142.104 48.8747" fill="#752D12"/>
<path d="M114.738 55.2427C114.657 54.8979 114.424 54.3396 114.01 54.3989C113.781 54.4327 113.601 54.6361 113.516 54.8658C113.432 55.0938 113.426 55.3455 113.421 55.5906C113.399 57.0521 113.406 58.5179 113.583 59.9679C113.641 60.4476 113.808 61.0266 114.255 61.1083C114.567 61.1676 114.874 60.9207 115.009 60.6128C115.145 60.3066 115.145 59.9552 115.136 59.6165C115.098 58.21 114.934 56.8109 114.77 55.4158C114.764 55.3644 114.754 55.3051 114.738 55.2427Z" fill="white"/>
<path d="M131.617 113.665C130.516 109.682 130.929 105.978 131.039 101.902C131.224 95.063 127.862 88.7095 124.211 83.2718C123.815 82.6832 122.892 83.2494 123.291 83.8446C125.212 86.7029 126.774 89.8243 128.209 92.9858C129.99 96.9124 130.055 100.579 129.826 104.838C129.641 108.301 129.997 111.053 130.715 114.386C131.444 117.763 129.477 121.001 130.681 124.272C130.928 124.944 131.956 124.65 131.706 123.97C130.847 121.638 131.881 119.482 132.071 117.132C132.17 115.892 131.946 114.849 131.617 113.664" fill="#F2C3C2"/>
<path d="M122.693 83.4221C120.609 82.2962 118.11 82.3634 116.226 83.9356C115.896 84.2 115.602 84.5049 115.347 84.8532C114.916 84.4539 114.674 83.9501 114.619 83.3439C114.344 82.529 114.279 81.6066 114.099 80.768C113.54 78.1566 112.393 76.1807 113.033 73.4265C113.197 72.7176 112.172 72.4162 112.008 73.1248C111.582 74.9583 111.574 76.2431 112.19 78.0041C112.983 80.2787 112.958 83.3856 114.154 85.4418C114.549 86.1157 114.928 86.3977 115.661 86.0884C116.292 85.8174 116.766 84.8471 117.383 84.4636C118.884 83.5284 120.641 83.5828 122.155 84.4012C122.765 84.7302 123.304 83.7533 122.693 83.4229" fill="#F2C3C2"/>
<path d="M95.0476 152.43C94.4952 154.278 93.9939 155.864 93.622 156.998C92.1964 156.964 90.7919 156.714 89.5259 156.318C88.898 156.114 88.3229 155.842 87.7812 155.515C87.9618 153.779 88.1321 151.988 88.3143 150.187C88.9421 150.957 89.6962 151.603 90.6534 151.943C91.7825 152.363 93.5375 152.589 95.0476 152.43" fill="#2C295A"/>
<path d="M92.2977 151.905C91.4472 150.708 89.6708 150.347 88.4905 151.226C87.9501 151.627 87.5902 152.322 87.434 153.06C87.1013 154.636 87.7605 156.467 88.9873 157.164C91.2316 158.44 93.8135 155.203 92.6514 152.532C92.5537 152.307 92.4345 152.097 92.2977 151.905" fill="white"/>
<path d="M286.628 239.74C283.322 237.44 281.704 242.164 281.93 246.347C282.1 249.486 282.815 252.614 283.384 255.678L285.597 267.607C285.692 268.122 290.569 267.238 290.569 267.238C290.569 267.238 290.86 256.491 290.921 252.799C291.014 247.164 291.011 242.79 286.628 239.741" fill="#E86C5C"/>
<path d="M291.273 265.011C290.536 264.002 289.461 264.682 288.683 265.552C288.484 265.765 288.305 265.997 288.156 266.211C288.046 266.179 287.936 266.147 287.828 266.137C286.941 265.945 285.885 266.03 285.248 266.721C284.519 267.484 284.719 268.79 284.948 269.735C284.948 269.755 284.959 269.755 284.959 269.777V269.873C284.938 270.287 284.868 270.689 284.829 271.093C284.818 271.273 284.64 271.496 284.441 271.719C284.201 271.974 283.942 272.208 283.824 272.367C283.794 272.409 283.753 272.452 283.703 272.493C283.315 272.939 282.508 273.491 282.26 273.98C282.029 274.445 281.87 275.773 282.219 276.231C283.214 277.525 286.193 277.089 287.329 276.92C289.192 276.644 292.918 271.528 293.345 269.65C293.754 267.813 292.637 266.9 291.273 265.011Z" fill="#F2C3C2"/>
<path d="M287.953 271.372C286.918 272.879 285.174 273.238 283.699 272.497C283.75 272.454 283.789 272.412 283.82 272.369C283.938 272.21 284.198 271.976 284.437 271.721C285.761 272.199 287.066 271.222 287.634 269.79C288.102 268.602 288.193 267.317 287.824 266.139C287.934 266.149 288.042 266.181 288.152 266.213C288.301 266.002 288.482 265.767 288.68 265.556C289.347 267.466 289.089 269.705 287.953 271.372Z" fill="#FCE4E3"/>
<path d="M279.622 203.522C279.622 203.522 281.698 241.997 282.277 249.781C282.86 257.564 282.86 262.96 283.191 263.226C283.524 263.491 289.372 263.491 292.571 262.076C295.771 260.661 297.635 248.808 297.136 240.406C296.638 232.003 297.307 211.483 295.062 206.706C292.821 201.931 279.622 203.522 279.622 203.522" fill="#DA638D"/>
<path d="M294.318 240.219C291.013 237.919 289.394 242.642 289.62 246.826C289.791 249.965 290.505 253.093 291.074 256.156L293.287 268.084C293.382 268.6 298.26 267.716 298.26 267.716C298.26 267.716 298.55 256.97 298.612 253.277C298.705 247.642 298.702 243.268 294.318 240.219Z" fill="#F5A89D"/>
<path d="M306.067 255.108C306.526 256.775 307.223 258.855 306.067 260.352C305.599 260.957 305.01 261.412 304.343 261.784C303.258 262.389 301.983 262.729 300.818 262.973C300.389 263.069 299.981 263.154 299.593 263.228C298.536 263.44 297.472 263.568 296.454 263.61C295.209 263.696 294.033 263.674 293.028 263.61C291.086 263.483 289.781 263.228 289.781 263.228C289.781 263.228 281.533 204.151 281.533 203.663C281.533 203.663 283.257 202.728 285.587 201.487C286.006 201.264 286.444 201.029 286.892 200.786C291.484 198.365 297.451 195.33 298.008 195.565C298.916 195.958 303.03 203.641 304.195 207.94C305.351 212.25 305.351 215.783 304.773 221.165C304.195 226.546 304.773 232.033 306.018 235.261C307.571 239.273 306.078 245.068 305.649 249.261C305.44 251.33 305.53 253.134 306.067 255.109" fill="#F39FC0"/>
<path d="M302.392 252.328C302.273 249.271 302.92 246.332 303.259 243.317C303.587 240.324 303.229 237.83 302.193 235.038C299.842 228.712 300.808 222.482 300.351 215.89C299.961 210.435 297.95 205.457 295.737 200.596C295.728 200.575 295.719 200.552 295.709 200.52C295.508 200.086 295.309 199.64 295.1 199.194C294.822 198.579 293.966 199.12 294.244 199.725C294.324 199.906 294.393 200.076 294.473 200.245C293.935 200.501 293.676 201.242 293.745 202.028C293.896 203.695 294.882 205.596 295.3 207.24C295.709 208.916 296.047 210.615 296.296 212.336C296.854 216.251 296.874 220.136 296.634 224.074C296.395 227.98 297.172 230.888 298.3 234.571C300.511 241.789 298.429 249.57 299.523 256.999C299.812 258.942 300.222 260.862 300.759 262.751C300.779 262.827 300.799 262.9 300.818 262.974C301.985 262.73 303.26 262.39 304.345 261.785C303.26 258.74 302.511 255.597 302.393 252.329" fill="white"/>
<path d="M293.575 246.194C293.028 243.36 292.37 240.59 292.41 237.67C292.44 235.038 292.37 232.587 291.841 230.008C291.306 227.355 290.527 224.765 290.089 222.089C289.572 218.916 289.472 215.689 289.243 212.484C288.954 208.45 288.437 204.448 286.892 200.788C286.553 199.993 286.165 199.195 285.716 198.432C285.377 197.848 284.501 198.358 284.84 198.941C285.138 199.462 285.408 199.982 285.656 200.513C285.557 200.628 285.487 200.778 285.516 200.98C285.537 201.15 285.567 201.32 285.587 201.49C286.284 206.722 287.101 212.135 287.589 217.474C287.859 220.361 287.928 223.237 288.057 226.124C288.187 228.768 288.884 231.292 289.313 233.892C290.15 238.988 288.675 243.892 290.059 248.965C291.435 253.921 292.879 258.422 293.028 263.613C294.035 263.677 295.209 263.698 296.456 263.613C295.638 257.774 294.691 251.969 293.576 246.195" fill="white"/>
<path d="M275.986 167.117C274.571 165.324 270.877 165.439 269.054 166.31C268.655 166.501 267.918 166.884 267.46 167.381C267.21 167.648 267.051 167.945 267.072 168.263C267.081 168.381 267.102 168.487 267.132 168.581C267.391 169.208 268.276 169.261 268.804 169.346C270.578 169.6 272.36 169.802 274.144 169.961C274.881 170.025 275.997 170.386 276.454 169.558C276.863 168.815 276.454 167.712 275.986 167.117Z" fill="#E86C5C"/>
<path d="M269.179 169.66C269.179 169.66 275.168 184.288 276.873 187.045C278.579 189.803 283.73 194.037 284.892 187.828C285.469 184.75 273.317 168.827 273.317 168.827L269.179 169.66Z" fill="#E86C5C"/>
<path d="M279.423 163.012L281.076 168.584C281.076 168.584 285.347 169.314 287.525 168.252C289.704 167.192 291.136 166.02 291.136 166.02L291.445 163.383L288.77 160.16L279.423 163.012V163.012Z" fill="#F5A89D"/>
<path d="M307.319 200.964C306.923 196.752 306.458 192.562 305.666 188.367C305.197 185.886 304.656 183.421 304.033 180.978C302.508 175.005 300.914 168.741 296.459 164.445C295.249 163.279 293.715 162.216 292.079 161.911C288.77 161.298 284.012 162.445 281.07 164.134C279.119 165.252 278.085 167.62 277.596 169.835C277.11 172.033 276.319 174.493 276.319 176.744C276.319 184.18 277.597 204.475 277.597 204.475C277.597 204.475 281.43 205.182 283.632 205.242C286.604 205.32 289.58 205.303 292.55 205.15C295.118 205.02 297.682 204.754 300.23 204.387C301.504 204.204 302.773 203.994 304.039 203.764C304.772 203.631 306.917 203.634 307.376 202.969C307.686 202.516 307.369 201.49 307.319 200.964Z" fill="#E56539"/>
<path d="M290.535 163.654C285.092 161.19 282.647 172.071 281.892 175.749C281.756 176.414 282.715 176.698 282.852 176.031C283.416 173.283 285.833 162.671 290.033 164.571C290.615 164.835 291.124 163.921 290.536 163.655" fill="#B73917"/>
<path d="M289.203 184.444C288.128 181.961 285.895 181.746 284.238 181.602C284.122 181.03 283.575 181.306 283.654 181.948C284.066 185.339 284.913 188.639 286.259 191.263C287.051 192.806 288.995 194.299 289.895 192.135C290.738 190.108 289.969 186.215 289.203 184.444Z" fill="#B73917"/>
<path d="M289.942 162.236C288.915 167.022 286.505 161.79 285.629 161.981C282.371 162.712 278.207 163.659 274.861 163.213C273.286 163.011 271.712 162.225 270.667 160.909C269.83 159.858 269.422 158.5 269.272 157.142C269.222 156.811 269.202 156.484 269.193 156.154C269.172 155.804 269.172 155.443 269.172 155.093C269.172 154.944 269.172 154.806 269.183 154.657C269.233 152.1 269.621 149.499 269.889 147.069C270.1 145.179 270.318 142.791 270.946 140.986C271.992 138.025 276.564 136.795 278.158 135.935C279.742 135.064 284.225 137.749 286.963 139.48C289.713 141.23 289.634 144.468 290.898 147.779C292.164 151.091 290.988 157.459 289.942 162.236" fill="#F5A89D"/>
<path d="M270.177 148.283C269.514 149.115 268.808 149.93 268.188 150.793C267.84 151.274 267.554 151.802 267.577 152.409C267.621 153.541 268.745 154.478 269.897 154.457C270.085 154.454 270.275 154.359 270.368 154.194C271.044 153.005 271.054 151.106 271.098 149.778C271.107 149.512 270.945 149.353 270.744 149.293C270.871 149.136 270.996 148.976 271.121 148.819C271.55 148.278 270.601 147.748 270.177 148.283" fill="#F5A89D"/>
<path d="M270.501 149.301C270.49 149.272 270.48 149.241 270.471 149.212C270.283 148.584 270.322 147.725 270.692 147.206C270.893 146.925 271.222 146.766 271.507 146.886C271.719 146.976 271.881 147.207 271.966 147.465C272.052 147.724 272.07 148.009 272.065 148.29C272.059 148.688 272.002 149.102 271.817 149.427C271.632 149.753 271.293 149.968 270.986 149.86C270.766 149.783 270.598 149.558 270.501 149.301Z" fill="#16142C"/>
<path d="M273.58 145.481C273.529 145.385 273.47 145.297 273.411 145.226C273.02 144.756 272.421 144.464 271.844 144.366C271.461 144.302 271.038 144.334 270.732 144.589C270.427 144.846 270.309 145.374 270.566 145.685C270.696 145.841 270.89 145.916 271.083 145.956C271.539 146.05 272.022 145.98 272.46 146.142C272.773 146.258 273.091 146.489 273.404 146.375C273.818 146.222 273.749 145.804 273.58 145.481Z" fill="#FBD7C9"/>
<path d="M302.282 161.155C302.153 161.664 301.705 162.355 301.256 162.778C301.137 162.906 301.018 163.002 300.897 163.076C300.688 163.214 300.459 163.32 300.22 163.384C299.085 163.755 297.739 163.564 296.714 164.371C296.395 164.615 296.177 165.051 295.817 165.252C295.26 165.571 294.921 165.581 294.274 165.507C292.231 165.263 291.056 164.615 288.954 165.284C287.69 165.697 286.643 165.996 285.757 164.583C285.398 164.021 285.279 163.436 285.318 162.865C285.208 162.715 285.12 162.557 285.049 162.387C284.412 160.911 285.637 159.531 285.308 158.044C285.01 156.686 283.564 156.017 282.839 154.977C284.103 153.768 285.009 151.56 284.233 149.543C283.575 147.865 281.603 146.942 280.307 148.088C279.789 148.079 279.301 148.003 278.833 147.835C278.017 147.548 277.15 146.836 276.652 146.082C276.084 145.224 275.965 144.109 275.386 143.238C274.779 142.316 273.763 142.114 272.807 141.806C272.059 141.571 270.794 141.052 271.034 139.98C271.103 139.65 271.222 139.323 271.372 139.015C271.8 138.07 272.488 137.284 273.245 136.627C274.708 135.363 276.084 134.578 277.877 134.047C282.499 132.666 288.665 133.188 292.36 136.785C292.919 134.323 296.823 134.004 298.217 136.436C299.014 137.825 298.785 140.512 297.531 141.434C297.201 141.679 296.854 141.815 296.504 141.901C297.022 142.57 297.45 143.291 297.739 144.151C298.277 145.7 298.068 147.346 299.065 148.695C300.489 150.605 301.904 151.56 301.654 154.341C301.555 155.38 301.037 156.028 300.977 156.824C300.947 157.185 301.007 157.578 301.256 158.055C301.754 159.042 302.571 159.935 302.282 161.155Z" fill="#FBD7C9"/>
<path d="M282.587 152.548C282.376 152.297 282.181 152.077 282.248 151.721C282.298 151.456 282.39 151.232 282.399 150.953C282.411 150.476 282.271 150.019 282.022 149.625C281.666 149.062 280.803 149.593 281.163 150.161C281.569 150.804 281.229 151.199 281.217 151.874C281.208 152.445 281.542 152.896 281.882 153.3C282.311 153.808 283.014 153.056 282.587 152.549" fill="#E86C5C"/>
<path d="M296.054 140.522C295.661 140.475 295.255 140.413 294.894 140.275C295.851 139.019 296.726 137.641 296.534 135.939C296.458 135.27 295.461 135.262 295.538 135.939C295.705 137.424 294.921 138.578 294.084 139.664C293.995 139.534 293.917 139.391 293.864 139.216C293.614 138.409 293.572 137.646 293.036 136.974C292.621 136.452 291.92 137.206 292.332 137.724C292.987 138.544 292.748 139.795 293.494 140.612C294.158 141.337 295.158 141.478 296.055 141.584C296.691 141.659 296.685 140.597 296.055 140.522" fill="#F0BEA7"/>
<path d="M292.713 140.345C288.869 143.435 284.576 145.528 279.784 146.224C279.152 146.317 279.421 147.34 280.049 147.247C284.924 146.54 289.302 144.407 293.216 141.263C293.722 140.855 293.225 139.935 292.713 140.345Z" fill="#F0BEA7"/>
<path d="M286.44 142.591C283.379 143.51 280.304 144.066 277.119 143.768C276.48 143.707 276.485 144.769 277.119 144.828C280.397 145.136 283.555 144.56 286.705 143.614C287.32 143.43 287.058 142.405 286.44 142.591Z" fill="#F0BEA7"/>
<path d="M301.256 162.78C301.137 162.907 301.017 163.003 300.898 163.077C300.689 163.215 300.46 163.321 300.221 163.385C300.031 162.483 299.573 161.603 298.846 160.689C298.417 160.169 297.959 159.766 297.729 159.086C297.321 157.801 297.91 156.635 298.118 155.394C298.478 153.291 298.029 151.349 296.843 149.64C296.454 149.088 297.263 148.461 297.64 149.015C298.557 150.33 299.144 151.73 299.254 153.376C299.433 156.167 297.819 157.654 299.951 160.329C300.609 161.146 301.038 161.952 301.256 162.78" fill="#F0BEA7"/>
<path d="M298.125 186.64C297.604 187.201 297.034 187.676 296.38 188.05C295.974 188.282 295.543 188.44 295.114 188.603C295.262 188.234 295.402 187.853 295.531 187.447C296.657 183.9 298.623 181.295 298.891 177.412C298.939 176.732 297.941 176.735 297.895 177.412C297.77 179.223 297.384 180.915 296.631 182.552C296.147 183.605 295.698 184.337 295.257 185.386C294.935 186.152 294.607 187.275 294.367 188.067C293.747 190.104 292.162 191.375 290.273 191.843C289.648 191.999 289.912 193.022 290.538 192.867C291.352 192.665 292.143 192.317 292.835 191.815C293.18 191.563 293.502 191.273 293.785 190.944C293.926 190.779 294.057 190.604 294.176 190.421C294.263 190.286 294.375 189.951 294.521 189.89C294.573 189.868 294.631 189.866 294.686 189.86C295.07 189.815 295.445 189.574 295.806 189.439C296.249 189.274 296.692 189.09 297.096 188.839C297.735 188.443 298.31 187.949 298.829 187.391C299.281 186.905 298.576 186.153 298.125 186.64" fill="#B73917"/>
<path d="M298.964 265.491C298.226 264.482 297.152 265.162 296.373 266.032C296.175 266.246 295.995 266.478 295.846 266.691C295.736 266.659 295.627 266.627 295.518 266.618C294.632 266.425 293.575 266.51 292.938 267.201C292.21 267.965 292.41 269.27 292.638 270.215C292.638 270.236 292.649 270.236 292.649 270.257V270.353C292.628 270.767 292.559 271.17 292.52 271.574C292.509 271.754 292.33 271.977 292.131 272.199C291.892 272.455 291.633 272.689 291.514 272.847C291.484 272.889 291.443 272.933 291.394 272.974C291.005 273.42 290.199 273.971 289.95 274.461C289.72 274.926 289.56 276.254 289.909 276.709C290.904 278.005 293.883 277.569 295.02 277.401C296.882 277.123 300.608 272.008 301.035 270.13C301.445 268.293 300.328 267.381 298.964 265.491Z" fill="#FCE4E3"/>
<path d="M295.648 271.847C294.612 273.355 292.869 273.714 291.394 272.973C291.445 272.93 291.484 272.888 291.514 272.845C291.633 272.686 291.892 272.452 292.131 272.197C293.456 272.675 294.761 271.698 295.33 270.266C295.797 269.077 295.887 267.792 295.518 266.615C295.628 266.625 295.736 266.657 295.846 266.689C295.995 266.477 296.176 266.243 296.375 266.031C297.042 267.942 296.783 270.181 295.648 271.847Z" fill="white"/>
<path d="M278.183 167.117C276.768 165.324 273.074 165.439 271.251 166.31C270.852 166.501 270.114 166.884 269.657 167.381C269.407 167.648 269.247 167.945 269.268 168.263C269.278 168.381 269.299 168.487 269.329 168.581C269.588 169.208 270.473 169.261 271.001 169.346C272.775 169.6 274.557 169.802 276.341 169.961C277.078 170.025 278.194 170.386 278.651 169.558C279.059 168.815 278.651 167.712 278.183 167.117Z" fill="#F5A89D"/>
<path d="M272.934 167.935C271.698 167.979 270.493 168.19 269.328 168.582C269.298 168.487 269.277 168.381 269.268 168.264C269.249 167.946 269.407 167.648 269.657 167.383C270.722 167.075 271.818 166.905 272.934 166.873C273.581 166.853 273.57 167.914 272.934 167.935Z" fill="#E86C5C"/>
<path d="M274.042 167.947C274.042 167.947 280.031 182.575 281.736 185.332C283.442 188.09 288.593 192.324 289.755 186.115C290.332 183.037 278.181 167.114 278.181 167.114L274.042 167.947Z" fill="#F5A89D"/>
<path d="M197.131 167.346C196.974 167.346 196.821 167.268 196.726 167.118L186.273 150.959L176.794 166.821C176.648 167.067 176.344 167.139 176.113 166.983C175.884 166.826 175.817 166.502 175.964 166.259L186.24 149.063L197.536 166.525C197.689 166.762 197.634 167.089 197.409 167.253C197.325 167.315 197.227 167.346 197.131 167.346" fill="#F39FC0"/>
<path d="M186.256 137.688C179.878 137.688 174.689 143.217 174.689 150.013C174.689 156.809 179.878 162.338 186.256 162.338C192.634 162.338 197.823 156.809 197.823 150.013C197.823 143.217 192.634 137.688 186.256 137.688ZM186.256 164.674C178.669 164.674 172.497 158.097 172.497 150.013C172.497 141.929 178.669 135.353 186.256 135.353C193.843 135.353 200.015 141.929 200.015 150.013C200.015 158.097 193.843 164.674 186.256 164.674Z" fill="#F39FC0"/>
<path d="M172.618 161.261C171.412 157.981 168.564 156.452 166.213 154.277C166.772 153.682 167.1 152.748 166.651 152.132C166.114 151.431 165.158 151.656 164.381 152.079C164.37 151.39 164.192 150.636 163.484 150.541C162.429 150.392 162.06 151.348 161.911 152.291C161.911 152.323 161.92 152.355 161.92 152.387C161.86 152.397 161.801 152.408 161.741 152.429C161.682 152.44 161.622 152.461 161.561 152.483C161.183 152.621 160.824 152.833 160.446 152.982C160.346 153.024 160.256 153.056 160.166 153.098C159.639 153.364 159.32 153.725 159.3 154.371C159.279 154.5 159.289 154.647 159.309 154.807C159.389 155.465 160.277 157.196 160.416 157.502C160.864 158.49 161.173 159.637 161.363 160.803C161.522 161.791 161.591 162.8 161.572 163.734C161.561 164.307 161.163 165.591 161.741 166.015C162.787 166.768 163.415 165.198 163.743 164.042C163.803 164.051 164.39 166.249 165.437 166.631C166.821 167.13 168.763 166.823 170.237 166.748C170.237 167.088 170.477 167.406 170.836 167.247C173.147 166.25 173.475 163.574 172.618 161.261Z" fill="#FCE4E3"/>
<path d="M166.304 162.533C166.064 161.911 165.098 162.184 165.344 162.816C165.755 163.879 165.926 164.999 165.78 166.144C165.695 166.811 166.655 167.1 166.741 166.425C166.911 165.088 166.789 163.786 166.304 162.533Z" fill="#F2C3C2"/>
<path d="M170.706 161.726C169.631 161.924 168.856 162.833 168.705 163.975C168.54 165.226 169.137 166.363 170.016 167.144C170.506 167.58 171.213 166.833 170.721 166.394C170.147 165.884 169.67 165.227 169.67 164.395C169.668 163.535 170.179 162.895 170.971 162.749C171.601 162.634 171.333 161.61 170.706 161.726" fill="#F2C3C2"/>
<path d="M188.269 150.014C188.269 148.83 187.369 147.871 186.258 147.871C185.147 147.871 184.247 148.83 184.247 150.014C184.247 151.197 185.147 152.157 186.258 152.157C187.369 152.157 188.269 151.197 188.269 150.014Z" fill="#F39FC0"/>
<path d="M162.412 153.494C162.307 153.67 162.266 153.904 162.326 154.105C162.4 154.35 162.65 154.538 162.888 154.483C162.993 154.459 163.087 154.392 163.162 154.307C163.291 154.159 163.364 153.949 163.34 153.747C163.316 153.543 163.191 153.354 163.016 153.274C162.759 153.156 162.539 153.282 162.413 153.494" fill="#16142C"/>
<path d="M160.347 154.086C160.176 154.605 159.68 154.553 159.3 154.373C159.32 153.725 159.639 153.364 160.167 153.1C160.336 153.417 160.435 153.789 160.347 154.086" fill="#D97A6B"/>
<path d="M164.381 152.08C164.381 152.08 163.045 152.112 161.921 152.388C161.921 152.356 161.91 152.324 161.91 152.292C162.059 151.347 162.428 150.393 163.483 150.541C164.191 150.637 164.37 151.391 164.38 152.08" fill="#F2C3C2"/>
<path d="M163.741 164.043C163.413 165.199 162.785 166.771 161.739 166.017C161.161 165.592 161.559 164.307 161.57 163.735C161.589 162.801 161.519 161.792 161.359 160.806C161.51 161.176 161.739 161.569 162.037 161.93C163.014 163.098 163.741 164.043 163.741 164.043Z" fill="#F2C3C2"/>
</g>
<path d="M145.07 165.84H201.977V131.351H145.07V165.84ZM202.987 169.024H144.06V130.289H202.987V169.024Z" fill="#2C295A"/>
<mask id="mask2_5432_53686" style="mask-type:luminance" maskUnits="userSpaceOnUse" x="83" y="36" width="218" height="239">
<path d="M300.665 36.583H83.4116V274.329H300.665V36.583Z" fill="white"/>
</mask>
<g mask="url(#mask2_5432_53686)">
<path d="M144.069 130.281L146.44 124.491C146.563 124.189 146.84 123.995 147.149 123.995H199.878C200.186 123.995 200.463 124.188 200.588 124.486L202.996 130.281L172.416 130.817L144.069 130.281Z" fill="#2C295A"/>
<path d="M193.537 168.392C193.262 168.392 193.039 168.155 193.039 167.861V131.63C193.039 131.336 193.262 131.099 193.537 131.099C193.813 131.099 194.036 131.336 194.036 131.63V167.861C194.036 168.154 193.813 168.392 193.537 168.392Z" fill="#2C295A"/>
<path d="M193.542 130.268C193.501 130.268 193.461 130.263 193.419 130.252C193.157 130.18 192.999 129.895 193.065 129.615L194.311 124.439C194.379 124.16 194.645 123.988 194.909 124.062C195.172 124.134 195.33 124.42 195.263 124.699L194.018 129.874C193.96 130.111 193.76 130.268 193.542 130.268Z" fill="#16142C"/>
<path d="M276.835 176.099H76.1636V169.021H276.835C276.953 169.021 277.048 169.124 277.048 169.248V175.872C277.048 175.997 276.953 176.099 276.835 176.099Z" fill="#A75032"/>
<path d="M275.19 275.944H76.1636V176.098H275.512V275.601C275.512 275.792 275.367 275.944 275.19 275.944Z" fill="#D97A6B"/>
<path d="M260.161 265.017H87.4075C87.2496 265.017 87.123 264.88 87.123 264.712V186.934C87.123 186.766 87.2496 186.629 87.4075 186.629H260.161C260.319 186.629 260.447 186.765 260.447 186.934V264.712C260.447 264.88 260.32 265.017 260.161 265.017Z" fill="#FCE4E3"/>
<path d="M258.282 189.84C258.249 188.398 256.135 188.492 256.483 189.963C256.608 190.496 257.174 190.861 257.675 190.731C257.829 190.693 257.976 190.611 258.083 190.485C258.226 190.316 258.288 190.079 258.282 189.84Z" fill="#B9B4D3"/>
<path d="M258.282 261.526C258.249 260.084 256.135 260.179 256.483 261.65C256.608 262.182 257.174 262.548 257.675 262.418C257.829 262.379 257.976 262.298 258.083 262.171C258.226 262.003 258.288 261.765 258.282 261.526Z" fill="#B9B4D3"/>
<path d="M91.2473 189.84C91.2143 188.398 89.1007 188.492 89.4483 189.963C89.5732 190.496 90.1392 190.861 90.6405 190.731C90.7938 190.693 90.9414 190.611 91.0486 190.485C91.1917 190.316 91.2535 190.079 91.2473 189.84Z" fill="#B9B4D3"/>
<path d="M226.853 218.188C220.02 207.543 209.462 200.187 197.956 196.515C175.045 189.212 146.567 194.446 131.325 215.375C126.913 221.436 123.675 228.356 120.886 235.393C117.729 243.365 115.009 251.548 113.725 260.114C113.714 260.188 113.725 260.252 113.734 260.316C113.626 260.624 113.764 261.059 114.172 261.079C115.548 261.132 116.932 261.176 118.306 261.217C124.961 261.419 134.034 261.493 140.677 261.461C140.796 261.461 140.887 261.408 140.966 261.355C141.146 261.335 141.314 261.229 141.395 260.994C145.51 247.801 151.099 235.287 162.326 227.434C172.717 220.156 192.798 223.109 200.51 231.466C205.538 236.917 210.864 255.207 211.343 259.77C211.343 259.94 223.786 260.304 231.106 260.367C234.782 260.399 237.552 260.348 237.552 260.134C237.462 245.848 234.534 230.161 226.854 218.188" fill="#F07F68"/>
<path d="M231.108 260.37C229.574 260.359 227.892 260.327 226.168 260.296C219.683 260.147 212.218 260.038 212.218 259.898C211.739 255.335 205.539 236.919 200.511 231.467C192.799 223.112 172.718 220.159 162.328 227.435C151.101 235.29 145.51 247.802 141.396 260.995C141.316 261.229 141.146 261.335 140.968 261.358C140.888 261.411 140.798 261.463 140.678 261.463C136.664 261.484 130.211 261.463 126.187 261.399C123.568 261.358 120.938 261.293 118.308 261.218C121.238 247.314 126.267 233.749 134.584 222.616C143.301 210.961 155.911 202.173 169.807 200.444C180.355 199.138 190.277 200.665 200.178 204.752C207.948 207.968 214.06 213.029 219.229 219.99C225.803 228.854 229.693 241.126 230.541 252.388C230.75 255.041 230.949 257.706 231.108 260.37Z" fill="#FEE3BA"/>
<path d="M226.17 260.295C224.298 260.252 220.732 260.18 220.732 260.18C220.732 260.18 212.22 259.993 212.22 259.899C211.742 255.335 205.543 236.918 200.515 231.467C192.802 223.111 172.72 220.158 162.329 227.434C151.103 235.289 145.512 247.803 141.398 260.996C141.318 261.229 141.15 261.336 140.971 261.357C140.889 261.411 140.8 261.463 140.682 261.463C138.49 261.473 133.87 261.473 131.669 261.454C129.846 261.442 128.012 261.422 126.189 261.399C128.172 253.374 133.313 230.771 144.897 220.412C152.876 213.29 161.041 207.718 171.46 206.083C181.929 204.449 196.715 207.226 205.621 213.913C211.676 218.455 216.565 224.643 219.543 231.733C223.198 240.436 224.796 250.774 226.17 260.296" fill="#A09852"/>
<path d="M220.729 260.177C218.876 260.113 217.036 260.128 215.701 260.065C213.919 259.98 212.217 259.949 212.217 259.897C211.739 255.333 205.538 236.916 200.51 231.465C192.798 223.108 172.717 220.156 162.326 227.431C151.1 235.286 145.51 247.801 141.395 260.994C141.315 261.228 141.147 261.333 140.966 261.355C140.888 261.408 140.798 261.46 140.679 261.46C139.931 261.46 139.184 261.472 138.437 261.472C136.993 261.472 133.121 261.46 131.665 261.451C133.151 255.75 138.379 237.399 146.508 228.155C157.465 215.673 175.026 208.774 190.965 213.549C206.902 218.326 214.498 229.078 217.984 244.999C219.648 252.587 219.991 257.269 220.729 260.178" fill="#C6DFF2"/>
<path d="M215.702 260.068C213.919 259.983 211.259 259.992 211.259 259.94C210.764 255.222 208.816 250.226 207.131 245.89C204.116 238.135 200.597 230.58 193.169 226.891C186.794 223.725 179.274 222.631 172.322 223.683C168.812 224.214 165.308 225.348 162.326 227.436C151.1 235.29 146.665 248.133 142.551 261.326C142.471 261.558 141.805 261.472 141.687 261.472C140.94 261.472 139.185 261.475 138.437 261.475C141.316 250.617 143.829 241.117 150.463 232.328C155.474 225.694 162.058 221.33 169.797 219.174C176.481 217.317 182.377 217.143 188.972 219.351C201.587 223.574 210.91 234.063 213.715 247.984C214.512 251.944 215.034 256.078 215.701 260.069" fill="#7C84C0"/>
<path d="M235.846 164.638C234.314 169.271 231.704 164.954 230.812 165.044C229.918 165.145 228.992 165.381 226.158 165.394C223.525 165.403 220.537 165.201 218.212 163.74C216.239 162.5 215.701 160.705 215.867 158.418C215.897 157.959 215.941 157.489 215.992 156.997C216.024 156.628 216.076 156.248 216.129 155.856C216.129 155.8 216.14 155.744 216.15 155.689C216.213 155.219 216.276 154.736 216.35 154.257C216.507 153.283 216.665 152.298 216.853 151.326C216.864 151.28 216.874 151.224 216.895 151.169C217.011 150.463 217.148 149.782 217.284 149.121C218.176 144.769 219.141 141.11 219.141 141.11C220.496 138.292 225.263 137.743 226.933 137.085C228.602 136.403 232.769 139.612 235.31 141.672C237.851 143.739 237.431 146.941 238.334 150.385C239.238 153.832 237.389 160.018 235.846 164.638" fill="#F5A89D"/>
</g>
<path d="M225.364 165.251L226.317 172.336L235.262 172.896L239.153 171.683L237.58 161.85L225.364 165.251Z" fill="#F5A89D"/>
<mask id="mask3_5432_53686" style="mask-type:luminance" maskUnits="userSpaceOnUse" x="83" y="36" width="218" height="239">
<path d="M300.665 36.583H83.4116V274.329H300.665V36.583Z" fill="white"/>
</mask>
<g mask="url(#mask3_5432_53686)">
<path d="M214.781 152.193C214.964 151.542 215.716 151.041 216.167 150.62C216.912 149.922 217.657 149.224 218.403 148.526C218.976 147.991 219.756 148.935 219.184 149.471C218.439 150.169 217.694 150.867 216.947 151.564C216.902 151.606 216.848 151.653 216.789 151.701C216.843 151.762 216.882 151.84 216.908 151.932C217.081 152.055 217.211 152.256 217.203 152.482L217.187 153.107C217.179 153.356 217.059 153.51 216.902 153.596C216.994 153.645 217.083 153.688 217.146 153.71C217.863 153.975 217.481 155.167 216.76 154.9C215.849 154.565 214.443 153.396 214.782 152.193" fill="#F5A89D"/>
<path d="M217.615 150.221C217.609 150.19 217.605 150.158 217.602 150.128C217.522 149.473 217.706 148.638 218.159 148.197C218.404 147.959 218.753 147.868 219.014 148.041C219.208 148.171 219.327 148.428 219.367 148.699C219.408 148.97 219.376 149.253 219.325 149.528C219.25 149.918 219.125 150.314 218.887 150.598C218.651 150.884 218.28 151.031 217.997 150.864C217.794 150.747 217.666 150.494 217.615 150.221" fill="#16142C"/>
<path d="M218.664 156.315C218.014 157.255 216.92 157.379 215.987 156.997C216.017 156.628 216.07 156.248 216.123 155.857C216.659 156.158 217.404 156.271 217.761 155.756C218.16 155.186 219.063 155.744 218.664 156.315" fill="#E86C5C"/>
<path d="M221.614 146.886C221.528 146.613 221.382 146.349 221.275 146.217C220.988 145.869 220.591 145.638 220.175 145.497C219.711 145.336 219.179 145.287 218.756 145.548C218.334 145.811 218.114 146.466 218.412 146.878C218.643 147.197 219.061 147.256 219.436 147.314C219.925 147.388 220.408 147.497 220.884 147.641C221.018 147.681 221.155 147.725 221.293 147.715C221.732 147.683 221.737 147.279 221.614 146.886" fill="#A75032"/>
<path d="M246.077 141.194C243.048 135.663 238.198 134.826 232.578 133.965C232.33 133.923 230.009 133.859 229.991 133.797C229.281 131.865 228.286 129.583 226.183 129.146C225.158 128.946 224.859 129.422 224.002 129.71C223.713 129.806 223.445 129.847 223.165 129.847C222.738 129.891 222.3 129.859 221.761 129.891H221.741C220.138 129.974 217.996 130.802 217.259 132.469C216.95 133.16 216.93 133.965 217.09 134.783C217.109 134.891 217.129 134.997 217.159 135.102C216.861 135.356 216.592 135.686 216.363 136.046V136.057C216.134 136.408 215.934 136.79 215.776 137.119C215.138 138.466 215.129 139.889 216.035 141.089C216.632 141.884 217.478 142.542 218.425 142.776C218.643 142.829 218.863 142.829 219.082 142.797C219.491 143.72 220.337 144.369 221.284 144.613C222.279 144.866 223.336 144.558 224.341 144.187C224.451 144.187 225.476 145.355 225.626 145.482C226.254 145.981 226.742 146.342 227.08 147.116C227.449 147.955 227.529 148.9 227.309 149.802C228.714 149.41 230.388 150.302 230.985 151.946C231.831 154.282 230.806 156.128 229.501 157.815C230.069 159.387 231.115 161.033 231.773 162.306C232.29 163.314 232.669 164.343 233.714 164.748C234.821 165.162 235.956 165.151 237.101 164.992C238.077 164.854 238.964 164.472 239.791 163.95C240.588 163.44 241.325 162.794 242.001 162.093C244.702 159.334 247.331 155.746 248.039 151.744C248.686 148.093 247.819 144.369 246.076 141.195" fill="#A75032"/>
<path d="M228.625 152.255C228.919 151.61 228.014 151.042 227.719 151.691C227.483 152.208 227.07 152.816 227.024 153.405C226.968 154.119 227.937 155.001 227.18 155.604C226.647 156.031 227.17 157.003 227.712 156.57C228.252 156.138 228.547 155.557 228.497 154.818C228.475 154.465 228.335 154.164 228.227 153.838C228.112 153.49 228.144 153.439 228.231 153.121C228.312 152.826 228.501 152.53 228.626 152.255" fill="#E86C5C"/>
<path d="M210.471 184.575C209.548 181.744 206.736 173.533 206.736 173.533C206.736 173.533 201.198 174.171 201.213 174.595L201.561 184.394C201.65 186.91 201.594 189.517 202.136 191.984C202.862 195.272 205.726 198.477 208.808 195.809C212.893 192.269 211.88 188.898 210.471 184.575" fill="#F5A89D"/>
<path d="M256.557 193.589C260.321 194.93 261.946 190.856 261.536 187.506C261.229 184.993 260.314 182.575 259.566 180.185L255.322 171.144L251.133 171.961C251.133 171.961 251.216 180.702 251.286 183.698C251.396 188.272 251.562 191.809 256.556 193.588" fill="#F5A89D"/>
<path d="M252.411 164.852C252.241 164.852 252.063 164.863 251.883 164.905C251.664 164.726 251.405 164.597 251.136 164.544C251.047 164.533 250.946 164.523 250.847 164.523C250.53 164.512 250.23 164.597 249.941 164.726C249.721 164.82 249.512 164.947 249.313 165.085C249.164 164.979 249.013 164.896 248.855 164.82C248.437 164.629 247.969 164.588 247.501 164.776C247.121 164.937 246.793 165.254 246.653 165.68C246.543 166.009 246.564 166.337 246.573 166.677C246.543 165.902 245.119 166.392 244.97 166.932C244.571 168.365 246.215 170.286 246.823 171.39C247.49 172.611 248.775 173.13 249.99 173.62C249.971 173.8 250.029 173.969 250.23 174.075C251.485 174.712 253.118 175.19 254.463 174.595C255.628 174.086 255.738 172.951 255.748 171.762C255.757 169.597 255.041 164.863 252.411 164.852Z" fill="#F5A89D"/>
<path d="M225.395 245.989C222.135 242.981 219.503 247.253 219.014 251.414C218.648 254.533 218.889 257.769 218.978 260.906L219.325 273.122C219.341 273.65 224.907 273.889 224.907 273.889C224.907 273.889 227.131 263.401 227.85 259.787C228.951 254.274 229.72 249.98 225.395 245.989" fill="#F5A89D"/>
<path d="M225.973 274.39C226.243 272.001 223.233 272.118 221.451 272.394C220.923 271.397 219.987 270.737 218.882 271.1C217.885 271.417 217.197 272.5 216.63 273.615C216.63 273.625 216.63 273.636 216.619 273.647C216.599 273.7 216.569 273.732 216.55 273.785C216.161 274.029 215.842 274.231 215.544 274.41C215.324 274.548 215.115 274.686 214.916 274.815C214.597 275.036 214.269 275.27 213.881 275.578C213.79 275.642 213.691 275.727 213.581 275.812C212.545 276.651 211.52 277.118 211.29 278.645C211.1 279.982 211.559 281.362 212.964 281.543C214.796 281.776 223.622 281.776 225.235 281.076C227.118 280.258 226.152 274.463 225.973 274.389" fill="#A75032"/>
<path d="M249.095 245.813C245.501 243.27 243.401 247.863 243.412 252.055C243.419 255.201 244.044 258.377 244.506 261.477L246.305 273.546C246.384 274.068 251.934 273.552 251.934 273.552C251.934 273.552 252.89 262.847 253.173 259.168C253.607 253.549 253.861 249.184 249.095 245.813Z" fill="#F5A89D"/>
<path d="M254.033 278.264C253.744 276.944 253.416 275.635 253.106 274.319C252.981 273.543 252.722 272.869 251.941 272.557C250.638 272.039 248.912 272.053 247.556 272.192C246.802 272.271 246.337 272.701 245.998 273.479C245.614 274.361 245.61 275.507 245.554 276.458C245.485 277.645 245.496 278.836 245.587 280.022C245.613 280.357 245.646 280.697 245.766 281.009C246.343 282.52 248.475 282.096 249.653 282.054C250.916 282.01 253.591 282.513 254.196 280.845C254.487 280.042 254.207 279.06 254.034 278.264" fill="#A75032"/>
<path d="M257.273 244.194C257.353 243.143 257.193 242.081 256.915 241.063C256.536 239.672 255.798 238.442 255.371 237.061C254.773 235.108 254.973 233.155 254.993 231.139C255.021 227.891 253.049 224.622 253.688 221.447C253.776 221.022 253.459 220.727 253.079 220.79C246.326 221.957 239.643 223.444 233.009 225.217C232.899 224.961 232.769 224.718 232.61 224.493C231.354 222.806 228.834 222.955 227.061 223.146C225.179 223.348 223.296 223.656 221.423 223.985C221.035 224.047 220.647 224.123 220.267 224.197C219.341 224.355 218.425 224.537 217.508 224.707V224.686C217.549 224.006 216.552 224.006 216.513 224.686C216.502 224.76 216.502 224.824 216.492 224.898C216.483 224.898 216.462 224.898 216.442 224.909C215.914 225.004 216.024 225.726 216.432 225.896C215.795 235.852 215.288 244.544 214.798 254.511C214.798 254.596 215.665 254.723 217.04 254.861C217.339 254.893 217.668 254.925 218.017 254.968C223.296 255.445 233.386 255.911 234.75 254.766C235.667 253.991 236.016 250.923 236.016 250.923C236.016 250.923 236.396 252.939 236.534 253.353C237.142 255.222 237.859 255.063 239.623 255.275C240.937 255.445 242.252 255.53 243.567 255.541C245.349 255.571 247.142 255.477 248.916 255.244C251.078 254.968 253.927 254.798 255.75 253.353C257.014 252.346 257.144 251.167 256.984 249.587C256.885 248.482 256.585 247.452 256.816 246.307C256.945 245.585 257.204 244.927 257.273 244.194" fill="#2C295A"/>
<path d="M243.563 255.54C242.248 255.529 240.934 255.446 239.619 255.275C237.855 255.062 237.139 255.221 236.53 253.353C236.392 252.94 236.013 250.923 236.013 250.923C236.013 250.923 237.029 247.209 237.447 243.227C237.855 239.246 237.527 241.073 238.772 238.165C240.017 235.267 242.836 233.464 242.927 238.165C243.005 242.878 239.768 245.266 242.338 250.308C243.364 252.324 243.643 254.096 243.563 255.54" fill="#16142C"/>
<path d="M221.691 223.378C221.602 223.581 221.512 223.781 221.421 223.983C218.912 229.97 220.416 236.02 219.54 242.282C218.951 246.496 218.474 250.73 218.015 254.965C217.667 254.923 217.338 254.891 217.04 254.859C217.508 250.571 218.005 246.284 218.583 241.996C219.072 238.376 218.474 234.705 218.763 231.052C218.951 228.675 219.41 226.393 220.267 224.196C220.436 223.74 220.625 223.284 220.835 222.839C221.113 222.232 221.97 222.763 221.691 223.379" fill="#16142C"/>
<path d="M254.665 197.365C254.296 192.802 253.968 189.034 253.819 187.388C253.36 182.494 253.479 177.591 251.608 173.07C251.468 172.741 251.319 172.433 251.138 172.157C250.542 171.18 249.734 170.47 248.798 169.917C248.789 169.906 248.778 169.906 248.758 169.897C248.34 169.651 247.891 169.451 247.434 169.26C245.322 168.421 242.843 168.113 240.74 167.582C240.502 166.796 240.362 166.393 239.475 166.138C238.3 165.798 236.337 166.256 235.152 166.362C233.987 166.458 232.831 166.585 231.676 166.755C229.454 167.063 226.566 167.168 224.544 168.198C223.459 168.75 223.418 169.706 223.209 170.713C221.705 171.159 220.26 171.775 218.946 172.561C216.864 173.283 214.702 174.725 213.307 175.575C211.943 176.403 210.379 177.4 208.924 178.527C207.779 179.417 206.692 180.393 205.807 181.435C205.428 181.858 205.099 182.304 204.811 182.75C203.007 185.542 202.659 190.499 203.266 193.629C203.844 196.611 205.827 200.264 208.934 201.229C209.92 201.526 212.182 201.282 213.158 201.016C213.248 200.995 213.328 200.963 213.397 200.942C213.637 200.848 213.885 200.761 214.174 200.698C214.185 201.377 214.185 202.057 214.185 202.735C214.215 206.026 214.254 209.316 214.344 212.595C214.404 214.995 214.513 217.393 214.742 219.781C214.912 221.597 214.144 226.543 214.733 227.349C215.32 228.166 221.108 228.431 223.548 228.73C228.926 229.376 239.187 228.845 246.826 228.008C248.381 227.838 249.825 227.656 251.1 227.466C254.198 227.022 256.289 226.532 256.439 226.139C256.807 225.153 255.592 208.765 254.666 197.365" fill="#FAC18A"/>
<path d="M259.203 182.665C256.882 178.982 254.63 174.164 251.143 171.371C250.418 170.788 249.64 170.289 248.794 169.918C248.785 169.907 248.774 169.907 248.755 169.898C248.366 169.728 247.957 169.578 247.538 169.461C246.921 169.282 246.662 170.311 247.279 170.481C247.629 170.587 247.957 170.703 248.287 170.842V170.873C248.526 172.392 248.684 173.909 248.764 175.417C248.924 178.165 248.824 180.914 248.475 183.684C248.067 186.943 247.609 190.148 248.186 193.417C248.863 197.144 251.773 198.077 254.66 197.366H254.671C255.01 197.281 255.348 197.175 255.687 197.047C256.464 196.761 257.211 196.357 257.888 195.87C258.697 195.286 259.463 194.543 260.11 193.716V193.704C260.868 192.739 261.465 191.635 261.784 190.466C262.632 187.357 260.738 185.107 259.204 182.666" fill="#FAC18A"/>
<path d="M208.762 166.798C208.721 166.628 208.572 166.469 208.414 166.427C207.01 166.076 207.069 167.637 206.492 168.508C205.923 167.297 205.176 165.981 204.17 165.396C203.741 165.152 203.243 165.12 202.825 165.28C202.736 165.301 202.645 165.345 202.555 165.396C202.167 165.248 201.748 165.164 201.331 165.142C200.943 165.12 200.555 165.152 200.205 165.258C199.847 165.364 199.517 165.545 199.258 165.811C199.12 165.959 199 166.129 198.9 166.331C198.79 166.373 198.691 166.427 198.591 166.511C198.412 166.639 198.242 166.83 198.104 167.074C198.054 167.159 198.013 167.244 197.974 167.339C197.405 168.676 198.184 170.237 198.889 171.341C199.627 172.477 200.524 174.196 201.629 174.982C202.865 175.863 204.876 175.957 206.291 175.757C206.311 175.746 206.322 175.736 206.331 175.736C206.322 175.831 206.302 175.916 206.291 176.012C206.242 176.691 207.238 176.691 207.287 176.012C207.427 174.346 208.533 173.125 208.732 171.479C208.902 170.079 209.051 168.19 208.762 166.799" fill="#F5A89D"/>
<path d="M202.776 166.881C202.329 166.265 201.85 165.692 201.331 165.141C201.749 165.161 202.17 165.246 202.558 165.396C202.647 165.341 202.736 165.3 202.826 165.279C203.055 165.554 203.274 165.84 203.484 166.127C203.872 166.658 203.175 167.412 202.776 166.881Z" fill="#E86C5C"/>
<path d="M200.653 167.189C200.224 166.669 199.756 166.212 199.259 165.81C199.518 165.543 199.846 165.364 200.205 165.258C200.613 165.607 201.001 166.012 201.361 166.435C201.779 166.945 201.082 167.698 200.653 167.189Z" fill="#E86C5C"/>
<path d="M198.918 168.082C198.601 167.827 198.281 167.583 197.971 167.339C198.012 167.243 198.051 167.158 198.101 167.073C198.241 166.829 198.411 166.638 198.59 166.51C198.869 166.734 199.137 166.946 199.417 167.169C199.924 167.573 199.426 168.484 198.918 168.082Z" fill="#E86C5C"/>
<path d="M248.228 168.17C248.065 167.608 247.803 167.127 247.427 166.699C246.987 166.199 246.284 166.951 246.722 167.45C246.983 167.747 247.154 168.066 247.267 168.452C247.455 169.104 248.416 168.824 248.228 168.17Z" fill="#E86C5C"/>
<path d="M249.739 166.626C249.47 166.012 249.181 165.406 248.853 164.822C249.012 164.898 249.161 164.981 249.31 165.087C249.51 164.949 249.719 164.822 249.938 164.728C250.178 165.173 250.397 165.618 250.596 166.086C250.866 166.701 250.009 167.243 249.739 166.627" fill="#E86C5C"/>
<path d="M251.715 165.874C251.575 165.398 251.387 164.962 251.137 164.548C251.407 164.601 251.666 164.728 251.885 164.909C252.063 164.865 252.244 164.856 252.412 164.856C252.512 165.089 252.591 165.334 252.671 165.588C252.872 166.245 251.905 166.521 251.715 165.875" fill="#E86C5C"/>
<path d="M260.111 193.703V193.714C259.463 194.542 258.696 195.285 257.889 195.869C257.211 196.356 256.465 196.76 255.688 197.048C255.349 197.174 255.01 197.28 254.671 197.365L253.55 185.297C253.341 183.308 255.258 184.098 255.578 184.564C256.942 186.602 259.205 190.297 260.111 193.703Z" fill="#EB9353"/>
<path d="M214.63 185.52C214.671 190.582 214.52 195.646 214.173 200.699C213.884 200.761 213.634 200.846 213.396 200.942C213.325 200.963 213.245 200.996 213.155 201.016C213.226 200.147 213.275 199.255 213.325 198.373C213.256 198.32 213.196 198.246 213.155 198.129C212.279 195.179 211.502 192.207 210.816 189.203C210.667 188.534 211.622 188.258 211.772 188.915C212.279 191.124 212.857 193.31 213.455 195.485C213.595 192.165 213.664 188.841 213.634 185.52C213.625 184.841 214.62 184.841 214.63 185.52Z" fill="#EB9353"/>
<path d="M240.27 167.983C234.965 167.772 229.749 168.402 224.625 169.868C224.005 170.045 224.269 171.07 224.889 170.892C229.932 169.45 235.056 168.837 240.27 169.045C240.912 169.071 240.91 168.009 240.27 167.984" fill="#EB9353"/>
<path d="M215.787 276.024C215.616 275.493 215.538 274.953 215.547 274.411C215.847 274.231 216.164 274.029 216.553 273.785C216.574 273.732 216.604 273.7 216.623 273.647C216.483 274.347 216.524 275.038 216.753 275.737C216.962 276.385 215.996 276.661 215.787 276.025" fill="#2C295A"/>
<path d="M221.38 137.045C220.295 135.719 218.073 135.443 216.36 136.048C216.589 135.687 216.858 135.358 217.156 135.103C217.126 134.997 217.107 134.891 217.087 134.784C218.929 134.455 220.942 134.902 222.077 136.291C222.496 136.813 221.799 137.554 221.38 137.045Z" fill="#752D12"/>
<path d="M223.774 133.172C223.435 132.101 222.757 130.635 221.763 129.892C222.299 129.86 222.738 129.892 223.167 129.851C223.893 130.752 224.421 131.92 224.73 132.896C224.939 133.543 223.972 133.819 223.774 133.172Z" fill="#752D12"/>
<path d="M228.488 186.655C228.198 186.264 227.776 186.013 227.347 185.837C226.995 185.691 226.215 185.696 225.91 185.481C224.905 184.778 225.446 183.891 225.952 183.203C226.558 182.376 227.201 181.411 226.603 180.379C225.621 178.678 223.305 179.505 222.608 181.11C222.203 182.045 222.361 183.179 222.319 184.174C222.257 185.681 221.982 190.724 224.496 190.275C225.267 190.135 225.938 189.537 226.781 189.465C227.312 189.418 227.756 189.638 228.253 189.288C229.093 188.697 229.066 187.436 228.488 186.655" fill="white"/>
<path d="M211.82 180.001C211.531 179.608 211.103 179.364 210.674 179.185C210.326 179.035 209.549 179.045 209.239 178.824C209.099 178.727 209 178.631 208.92 178.525C207.775 179.417 206.689 180.394 205.803 181.435C206.042 182.771 206.61 183.843 207.826 183.621C208.603 183.483 209.27 182.888 210.116 182.814C210.644 182.76 211.093 182.983 211.58 182.633C212.426 182.038 212.398 180.787 211.82 180.001" fill="white"/>
<path d="M251.137 172.158C251.088 171.934 251.057 171.744 251.088 171.594C251.097 171.511 251.118 171.436 251.148 171.371C250.421 170.787 249.644 170.29 248.796 169.918C248.786 169.907 248.777 169.907 248.755 169.896C248.338 169.652 247.89 169.452 247.432 169.259C246.416 170.003 245.748 170.948 246.386 172.04C246.804 172.741 247.581 173.176 247.969 173.973C248.209 174.482 248.187 175.001 248.686 175.364C248.716 175.384 248.736 175.394 248.766 175.415C249.583 175.925 250.608 175.415 251.057 174.576C251.286 174.143 251.336 173.633 251.327 173.144C251.316 172.89 251.206 172.507 251.137 172.157" fill="white"/>
<path d="M221.326 216.041C221.626 216.425 222.057 216.661 222.49 216.824C222.847 216.959 223.624 216.932 223.935 217.137C224.957 217.809 224.441 218.71 223.953 219.414C223.371 220.259 222.754 221.243 223.378 222.258C224.406 223.928 226.699 223.033 227.352 221.405C227.732 220.458 227.544 219.329 227.558 218.335C227.579 216.825 227.721 211.774 225.221 212.302C224.453 212.464 223.798 213.083 222.957 213.181C222.428 213.244 221.978 213.037 221.49 213.401C220.667 214.017 220.727 215.277 221.326 216.041" fill="white"/>
<path d="M243.565 205.894C243.907 205.552 244.106 205.082 244.235 204.612C244.341 204.225 244.271 203.399 244.446 203.056C245.019 201.931 245.892 202.43 246.58 202.91C247.404 203.484 248.36 204.086 249.275 203.364C250.783 202.175 249.817 199.789 248.256 199.184C247.346 198.832 246.3 199.094 245.367 199.135C243.951 199.196 239.21 199.328 239.844 201.959C240.038 202.767 240.655 203.429 240.796 204.318C240.883 204.876 240.714 205.367 241.083 205.866C241.706 206.708 242.883 206.572 243.565 205.893" fill="white"/>
<path d="M251.137 225.661C250.171 223.942 247.849 224.728 247.133 226.33C246.904 226.839 246.844 227.423 246.824 228.006C248.378 227.836 249.821 227.657 251.096 227.466C251.385 226.903 251.495 226.298 251.137 225.661Z" fill="white"/>
<path d="M269.267 157.136C269.217 156.807 269.198 156.479 269.187 156.15C269.168 155.798 269.167 155.438 269.167 155.088C269.167 154.939 269.167 154.801 269.178 154.653C269.984 154.515 271.278 154.345 271.528 154.525C271.877 154.769 271.07 156.522 269.267 157.136Z" fill="white"/>
<path d="M128.661 154.04C128.492 155.413 128.25 156.571 127.92 157.365C126.568 160.602 122.547 160.15 119.717 159.522C117.089 158.94 114.227 158.279 113.414 158.002C112.6 157.736 109.568 160.366 108.972 155.754C108.365 151.143 107.763 145.025 109.213 141.997C110.67 138.983 110.855 135.923 113.586 134.521C116.315 133.117 120.771 130.982 122.194 131.953C123.63 132.915 127.963 134.391 128.715 137.288C128.715 137.288 128.959 140.88 129.004 145.109C129.011 145.749 129.014 146.411 129.005 147.085C129.005 147.085 129.004 147.098 129.014 147.1C129.008 147.148 129.014 147.196 129.007 147.244C129.009 148.184 128.986 149.134 128.954 150.069C128.938 150.537 128.913 150.991 128.887 151.445C128.834 152.365 128.755 153.235 128.661 154.04Z" fill="#CB6754"/>
<path d="M121.378 146.907C121.229 146.213 120.188 146.349 120.338 147.052C120.477 147.703 120.422 148.292 120.15 148.893C119.857 149.543 120.822 149.984 121.115 149.337C121.459 148.574 121.556 147.735 121.379 146.907" fill="#953828"/>
<path d="M120.096 159.086L119.115 165.804L107.297 164.667L109.378 155.115C109.378 155.115 113.511 154.906 113.862 155.28C114.211 155.652 120.096 159.086 120.096 159.086Z" fill="#CB6754"/>
<path d="M130.87 148.442C130.816 147.799 130.208 147.182 129.863 146.699C129.295 145.899 128.728 145.098 128.16 144.298C127.724 143.685 126.83 144.404 127.265 145.017C127.834 145.817 128.602 148.006 128.565 148.22L128.471 148.803C128.433 149.036 128.517 149.205 128.648 149.315C128.553 149.342 128.463 149.364 128.4 149.371C127.686 149.472 127.829 150.656 128.547 150.557C129.453 150.43 130.97 149.629 130.87 148.442Z" fill="#CB6754"/>
<path d="M128.66 154.041C127.907 153.568 127.265 152.942 126.754 152.177C126.472 151.737 126.804 151.185 127.287 151.219C127.825 151.264 128.359 151.332 128.886 151.445C128.833 152.366 128.755 153.235 128.66 154.041Z" fill="white"/>
<path d="M128.022 146.199C128.04 146.177 128.057 146.151 128.071 146.127C128.401 145.609 128.583 144.818 128.376 144.238C128.264 143.925 128.006 143.688 127.715 143.716C127.5 143.736 127.295 143.899 127.152 144.109C127.009 144.321 126.92 144.576 126.854 144.831C126.759 145.197 126.706 145.588 126.793 145.938C126.879 146.288 127.132 146.58 127.441 146.57C127.659 146.564 127.868 146.408 128.022 146.199Z" fill="#16142C"/>
<path d="M128.635 142.147C128.637 142.102 128.635 142.058 128.632 142.015C128.616 141.747 128.501 141.479 128.291 141.331C128.138 141.223 127.953 141.186 127.771 141.173C127.157 141.125 126.482 141.353 126.158 141.908C126.058 142.08 125.995 142.28 126.005 142.481C126.016 142.683 126.105 142.883 126.262 142.995C126.438 143.124 126.671 143.127 126.882 143.09C127.092 143.051 127.3 142.979 127.514 142.976C127.683 142.971 127.851 143.011 128.02 143.006C128.44 142.994 128.629 142.539 128.635 142.147Z" fill="#2C295A"/>
<path d="M130.725 133.644C130.609 133.066 130.373 132.534 130.016 132.083C129.626 131.589 128.989 131.404 128.631 130.921C128.255 130.413 128.199 129.56 127.814 128.998C127.481 128.513 127.055 128.129 126.549 127.861C125.704 127.415 124.666 127.226 123.674 127.288C121.439 124.122 117.013 123.224 113.734 124.659C111.967 124.074 109.92 124.072 108.223 124.546C106.804 124.943 105.908 125.681 104.784 126.936C104.016 127.792 103.149 128.543 102.283 129.284C99.1148 131.992 97.6756 136.863 99.3192 140.701C98.1855 143.019 98.8509 146.426 100.149 148.49C100.643 149.276 101.269 149.716 101.907 150.346C102.724 151.156 103.053 151.998 103.581 152.905C105.532 156.257 108.794 157.191 113.173 157.428C113.512 157.445 115.62 157.457 115.946 156.826C116.258 156.222 116.578 155.623 116.943 155.049C117.748 153.781 118.714 152.642 119.541 151.384C118.249 150.043 117.439 148.245 118.058 146.246C118.631 144.389 121.011 142.921 122.247 144.296C122.52 143.836 122.678 143.309 122.721 142.758C123.063 142.603 123.393 142.406 123.691 142.116C124.031 141.784 124.21 141.391 124.469 141.001C124.954 140.27 125.091 140.483 125.841 140.427C127.55 140.297 129.108 139.057 129.692 137.405C130.502 136.339 131.007 135.045 130.726 133.643" fill="#2C295A"/>
<path d="M165.268 228.609C163.767 227.401 161.983 227.86 160.325 228.809C160.304 228.822 160.283 228.832 160.264 228.845C159.926 229.034 159.603 229.246 159.287 229.47C159.276 229.481 159.255 229.492 159.246 229.504C158.951 229.693 158.668 229.916 158.395 230.118C158.353 230.152 158.322 230.175 158.279 230.208C157.975 230.454 157.682 230.688 157.397 230.912C156.989 231.259 156.601 231.571 156.265 231.839C156.076 231.985 156.023 232.197 156.044 232.388C154.344 234.77 152.677 236.681 154.838 238.671C157.819 241.409 160.462 238.738 162.508 236.435C164.04 234.714 168.027 230.823 165.267 228.609" fill="#2C295A"/>
<path d="M153.151 228.131L157.765 232.265C158.375 232.81 158.727 233.616 158.727 234.464V234.683C158.727 236.18 157.649 237.426 156.249 237.548C155.766 237.59 155.283 237.492 154.848 237.266L149.873 234.677L153.151 228.131V228.131Z" fill="#CB6754"/>
<path d="M154.692 228.843C150.737 222.772 140.055 214.12 134.474 209.636C130.77 206.663 126.269 203.052 123.321 200.692C122.995 200.424 122.691 200.179 122.408 199.954C121.044 198.859 120.183 198.177 120.183 198.177C120.183 198.177 121.013 197.293 120.751 197.273C114.718 196.69 108.644 197.395 102.893 199.484C98.487 201.095 95.2339 200.089 92.9158 204.75C92.0443 206.494 91.4045 209.368 91.2479 212.32C91.2268 212.687 91.2161 213.058 91.2161 213.427C91.1844 217.395 92.0967 221.253 94.5941 222.358C96.3779 223.141 96.7559 223.856 98.5501 224.092C102.013 224.55 105.433 224.539 108.905 224.393C109.115 224.382 109.336 224.359 109.566 224.326C110.102 224.249 110.689 224.126 111.287 223.991H111.298C112.987 223.633 114.802 223.298 115.904 224.271C116.922 225.165 117.614 226.395 118.359 227.523C119.523 229.279 120.72 230.878 122.671 231.649C123.952 232.152 125.326 232.253 126.616 232.733C128.012 233.27 129.292 234.097 130.581 234.858C132.639 236.066 134.706 237.193 137.107 237.172C138.954 237.16 140.402 236.769 142.249 237.384C143.497 237.798 144.641 238.545 145.9 238.905C147.821 239.463 150.045 239.431 151.671 238.178C153.422 236.836 154.923 235.305 155.489 233.549C155.636 233.135 155.71 232.71 155.731 232.264C155.794 231.203 155.48 230.062 154.692 228.843" fill="#2C295A"/>
<path d="M155.73 232.264C155.709 232.712 155.635 233.137 155.489 233.549C152.677 230.822 149.771 228.206 146.55 226.038C145.049 225.032 143.339 224.259 141.943 223.064C140.349 221.689 139.259 219.743 137.893 218.133C134.747 214.365 130.791 212.599 127.055 209.738C123.961 207.378 122.849 204.405 122.23 200.492C122.188 200.258 122.271 200.079 122.408 199.955C122.68 199.699 123.164 199.721 123.236 200.191C123.269 200.358 123.288 200.526 123.32 200.695C123.75 203.287 124.359 205.669 126.216 207.579C127.675 209.078 129.522 210.085 131.262 211.135C134.599 213.148 137.359 215.584 139.772 218.77C141.199 220.639 142.436 222.214 144.431 223.433C146.277 224.562 148.071 225.702 149.792 227.055C151.859 228.665 153.82 230.442 155.73 232.264Z" fill="#16142C"/>
<path d="M114.796 225.401C110.673 224.04 105.942 221.552 103.803 217.335C101.832 213.447 100.658 206.296 103.78 202.777C104.244 202.254 103.505 201.463 103.038 201.986C99.7716 205.667 100.648 212.297 102.317 216.6C104.363 221.871 109.647 224.872 114.518 226.479C115.164 226.693 115.441 225.615 114.797 225.401" fill="#16142C"/>
<path d="M120.159 200.695C120.126 199.979 119.077 199.974 119.11 200.695C119.193 202.464 119.196 204.228 119.043 205.993C118.959 206.947 118.9 207.94 118.631 208.859C118.077 210.737 116.374 210.997 114.736 210.936C112.459 210.853 109.827 211.22 108.831 208.277C108.249 206.558 108.492 204.074 108.427 202.27C108.4 201.553 107.351 201.55 107.378 202.27C107.465 204.692 107.047 208.216 108.554 210.284C109.988 212.253 112.659 211.979 114.736 212.054C116.841 212.133 118.504 212.115 119.422 209.833C120.506 207.141 120.291 203.534 120.159 200.695Z" fill="#16142C"/>
<path d="M98.1443 204.327C98.0284 206.261 98.0495 208.273 97.798 210.196C97.6611 211.179 97.3779 211.962 96.5819 212.51C95.1126 213.527 93.1074 213.685 91.2197 213.426C91.2197 213.057 91.2304 212.688 91.2515 212.319C92.731 212.533 94.2832 212.465 95.5117 211.806C97.4839 210.767 96.969 206.406 97.0951 204.327C97.1372 203.611 98.1863 203.6 98.1443 204.327Z" fill="#16142C"/>
<path d="M95.5379 185.391C94.6091 184.288 93.1098 183.446 91.9283 182.679C90.7422 181.909 89.6114 181.485 88.2296 181.703C88.0008 181.549 87.6936 181.559 87.5494 181.896C86.6478 183.971 85.6361 187.723 87.0497 189.828C88.293 191.68 92.0474 191.549 93.6853 190.5C95.1772 189.544 97.0134 187.144 95.5379 185.391Z" fill="#CB6754"/>
<path d="M124.309 160.805C124.193 160.793 124.088 160.793 123.973 160.782C123.826 160.771 123.691 160.76 123.553 160.76C122.747 160.726 122.074 160.726 121.634 160.726C121.412 160.726 121.256 160.737 121.161 160.737C121.108 160.737 121.068 160.76 121.024 160.771C120.867 160.693 120.711 160.625 120.553 160.569C120.332 160.47 120.102 160.391 119.871 160.313C117.173 159.442 114.173 159.631 111.361 159.586C109.358 159.552 106.797 159.475 105.56 161.006C105.518 161.051 105.486 161.096 105.444 161.152C104.857 161.163 104.27 161.174 103.692 161.241C102.978 161.296 102.265 161.408 101.583 161.588C100.66 161.844 99.7883 162.236 98.9923 162.816C96.6635 164.505 95.8868 167.133 95.0891 169.872C93.4319 175.596 91.7952 181.365 90.5882 187.223C90.0432 189.817 89.5917 192.444 89.2665 195.092C88.6897 199.609 86.3807 208.697 93.1383 208.218C97.6075 207.905 102.024 205.993 106.19 203.757C107.984 204.34 110.418 204.07 111.877 204.003C114.049 203.903 115.759 203.087 117.837 202.538C118.508 202.36 119.169 202.36 119.819 202.426C120.427 202.493 121.016 202.617 121.612 202.729C122.536 202.907 123.44 203.019 124.362 202.785C127.436 201.989 128.538 197.922 128.621 195.013C128.673 193.427 128.528 191.85 128.39 190.262C128.243 188.764 128.065 187.535 128.255 186.204C128.316 185.736 128.432 185.255 128.611 184.74C128.685 184.528 128.757 184.304 128.831 184.092C129.481 182.247 130.1 180.392 130.657 178.525C131.873 174.411 132.797 170.184 133.007 165.869C133.184 162.069 127.898 161.062 124.309 160.805" fill="#415EA8"/>
<path d="M103.231 161.577C102.674 161.521 102.119 161.532 101.584 161.588C96.6423 162.203 92.3099 167.669 89.6229 171.572C88.0287 173.875 85.6261 177.195 85.4575 180.19C85.3734 181.767 86.2029 183.175 87.2731 184.362C87.9339 185.11 88.7003 185.77 89.3714 186.306C89.665 186.552 89.9902 186.787 90.3258 187.044C90.4099 187.112 90.4928 187.168 90.5876 187.222C92.4031 188.509 94.628 189.75 96.6208 190.164C98.6879 190.589 99.1393 188.799 99.6014 186.932C100.619 182.851 101.09 178.537 101.793 174.368C102.443 170.487 103.096 166.641 103.053 162.684C103.115 162.684 103.178 162.684 103.231 162.695C103.902 162.763 103.902 161.645 103.231 161.577" fill="#415EA8"/>
<path d="M140.502 162.229C140.763 162.229 151.104 163.846 151.104 163.846L152.635 166.547L152.33 169.016C152.33 169.016 134.58 171.345 132.918 170.787C131.257 170.227 140.502 162.229 140.502 162.229Z" fill="#CB6754"/>
<path d="M129.838 225.679C129.628 224.706 129.02 224.606 128.191 224.226C126.008 223.22 123.595 222.593 121.234 222.226C117.456 221.621 113.658 221.79 109.925 222.582C110.071 222.481 110.217 222.382 110.364 222.303C110.983 222.002 110.448 221.039 109.84 221.342C107.111 222.695 106.083 227.95 105.747 230.799C105.622 231.828 105.59 232.856 105.705 233.886C105.811 234.835 106.315 235.798 106.387 236.725C106.534 238.592 105.107 239.922 105.033 241.745V241.822C104.982 245.02 107.594 247.29 110.186 248.24C112.851 249.212 116.91 250.286 119.239 248.15C119.534 247.882 119.817 247.592 120.09 247.29C121.663 245.558 122.849 243.354 123.835 241.107C124.433 239.777 124.969 238.423 125.473 237.15C126.039 235.719 126.605 234.289 127.173 232.846C127.508 231.996 127.844 231.146 128.18 230.298C128.64 229.135 130.099 226.922 129.837 225.68" fill="#2C295A"/>
<path d="M127.171 232.845C126.605 234.287 126.038 235.72 125.472 237.149C124.967 238.424 124.433 239.776 123.834 241.107C121.526 239.351 118.682 237.194 116.164 235.339C110.835 231.415 108.464 228.128 108.464 228.128L121.578 228.81L127.171 232.845H127.171Z" fill="#16142C"/>
<path d="M116.735 244.606C116.547 244.483 116.357 244.371 116.169 244.271C114.06 243.041 111.71 242.303 109.338 241.968C109.202 241.934 109.065 241.923 108.93 241.901C107.733 241.756 106.327 241.554 105.037 241.745V241.824C105.005 244.003 106.211 245.758 107.807 246.955C108.541 247.502 109.369 247.938 110.188 248.24C111.08 248.565 112.129 248.899 113.21 249.123C115.371 249.571 117.69 249.571 119.243 248.15C119.536 247.882 119.82 247.592 120.093 247.29C119.116 246.139 117.689 245.21 116.735 244.607" fill="#16142C"/>
<path d="M142.741 167.11C142.72 166.865 142.689 166.606 142.657 166.361C142.437 164.773 141.937 163.036 140.5 162.231C140.247 162.098 130.203 161.174 124.306 160.805C124.191 160.794 124.087 160.794 123.971 160.783C123.825 160.771 123.688 160.76 123.551 160.76C122.901 160.715 122.303 160.672 121.809 160.638C121.275 160.616 120.844 160.582 120.55 160.569C120.257 160.549 120.1 160.537 120.1 160.537C120.1 160.537 120.047 160.996 119.889 161.509C119.753 161.945 119.554 162.427 119.239 162.706C119.008 166.249 118.861 169.828 119.134 173.371C119.313 175.562 119.721 177.91 121.19 179.453C121.505 179.788 121.862 180.056 122.239 180.291C122.942 182.214 124.118 183.98 125.974 184.337C126.939 184.517 127.905 184.36 128.828 184.092C128.944 184.058 129.07 184.026 129.185 183.991C129.406 183.914 129.626 183.846 129.835 183.768C130.066 183.678 130.255 183.6 130.423 183.511C131.125 183.141 131.336 182.796 132.835 182.672C133.706 182.616 134.566 182.94 135.448 182.862C140.316 182.393 142.1 177.049 142.604 172.588C142.803 170.777 142.909 168.932 142.74 167.11" fill="#415EA8"/>
<path d="M161.029 168.461C160.86 168.07 160.63 167.512 160.326 166.896C160.127 166.46 159.885 165.991 159.623 165.532C159.288 164.929 158.91 164.336 158.511 163.843C158.375 163.665 158.228 163.497 158.081 163.353C155.689 160.97 151.901 162.916 149.405 164.248C148.954 164.493 149.152 165.566 149.593 165.332C149.803 165.219 150.003 165.107 150.212 164.995C150.159 166.18 151.797 169.021 151.797 169.021H161.251C161.251 169.021 161.165 168.807 161.029 168.461" fill="#CB6754"/>
<path d="M161.031 168.463C160.37 168.06 159.657 167.736 158.933 167.646C158.272 167.568 158.261 166.451 158.933 166.528C159.406 166.584 159.878 166.719 160.328 166.897C160.632 167.513 160.863 168.071 161.031 168.463Z" fill="#953828"/>
<path d="M159.623 165.534C159.036 165.165 158.417 164.886 157.839 164.842C157.168 164.785 157.157 163.668 157.839 163.724C158.06 163.735 158.29 163.78 158.511 163.847C158.91 164.338 159.287 164.931 159.623 165.534" fill="#953828"/>
<path d="M122.292 229.298L131.081 275.942C131.684 279.083 130.458 281.152 127.937 281.257C125.871 281.34 124.887 279.326 124.596 276.709L117.747 229.874L122.291 229.298L122.292 229.298Z" fill="#7D7532"/>
<path d="M93.4424 229.298L84.6528 275.942C84.0505 279.083 85.2761 281.152 87.7974 281.257C89.8628 281.34 90.8472 279.326 91.1379 276.709L97.987 229.874L93.4424 229.298Z" fill="#7D7532"/>
<path d="M100.652 227.217L97.4706 274.62C97.2237 277.815 98.6703 279.714 101.186 279.499C103.245 279.323 103.998 277.196 103.996 274.561L105.228 227.214L100.652 227.217Z" fill="#4C4817"/>
<path d="M127.316 230.539H89.5019C89.0097 230.539 88.6123 230.114 88.6123 229.589V222.599C88.6123 222.075 89.0097 221.649 89.5019 221.649H127.316C127.809 221.649 128.208 222.075 128.208 222.599V229.589C128.208 230.114 127.809 230.539 127.316 230.539Z" fill="#7D7532"/>
<path d="M116.165 244.272L113.208 249.124L112.609 250.107C112.167 250.813 111.454 251.282 110.668 251.371L110.457 251.394C109.062 251.561 107.782 250.566 107.51 249.102C107.478 248.922 107.457 248.733 107.457 248.555C107.457 248.218 107.51 247.894 107.615 247.581L107.803 246.956L109.335 241.969C111.706 242.304 114.056 243.044 116.165 244.272Z" fill="#CB6754"/>
<path d="M113.157 249.918C113.084 249.672 112.632 247.414 110.65 246.15C108.667 244.888 107.912 246.15 107.912 246.15L106.223 249.918C106.149 250.075 106.096 250.242 106.054 250.421C105.986 250.749 105.989 251.097 106.03 251.456C106.513 251.271 107.155 251.416 107.398 252.066C107.724 252.929 108.348 253.62 108.782 254.419C109.161 255.116 109.467 255.814 109.939 256.451C110.836 257.659 112.02 258.241 113.125 259.171C113.474 259.465 113.516 259.835 113.391 260.159C115.029 260.159 115.756 258.382 115.655 257.543C115.403 255.485 113.232 250.163 113.158 249.918" fill="#2C295A"/>
<path d="M113.91 257.743C113.671 256.512 112.873 255.385 112.226 254.243C111.425 252.833 110.678 251.471 109.403 250.706C108.807 250.346 108.218 250.14 107.349 250.13C106.81 250.125 105.956 250.773 106.007 251.346C106.122 252.631 106.876 254.086 107.699 255.417C108.854 257.284 110.92 259.43 112.4 259.979C112.692 260.091 112.956 260.147 113.207 260.168C113.826 259.778 114.151 258.994 113.91 257.743" fill="#FCE4E3"/>
<path d="M159.688 233.001C159.236 231.951 158.408 231.19 157.4 230.911C157.684 230.687 157.978 230.453 158.282 230.205C158.324 230.173 158.356 230.151 158.398 230.117C159.352 230.585 160.14 231.392 160.59 232.441C160.874 233.091 159.971 233.649 159.688 233.001" fill="#FCE4E3"/>
<path d="M161.229 231.483C160.809 230.533 160.116 229.828 159.247 229.504C159.257 229.494 159.278 229.481 159.289 229.472C159.603 229.247 159.928 229.035 160.264 228.844L160.327 228.811C161.103 229.292 161.733 230.019 162.131 230.913C162.415 231.561 161.512 232.131 161.229 231.483" fill="#FCE4E3"/>
<path d="M126.292 134.155C125.815 133.547 125.621 133.544 125.582 132.732C125.564 132.341 125.704 131.924 125.692 131.521C125.655 130.312 125.178 129.263 124.439 128.371C123.994 127.833 123.154 128.504 123.601 129.043C124.316 129.904 124.724 130.874 124.631 132.049C124.591 132.538 124.334 133.067 124.417 133.564C124.467 133.858 124.588 134.071 124.74 134.301C125.11 134.577 125.461 134.877 125.794 135.204C126.515 136.282 126.379 137.215 125.388 138.006C124.837 138.423 125.469 139.315 126.021 138.899C127.716 137.616 127.495 135.685 126.292 134.155" fill="#16142C"/>
<path d="M121.136 131.002C120.599 129.629 119.96 128.532 118.576 128.033C117.266 127.56 115.727 127.307 114.403 127.804C113.766 128.045 114.165 129.079 114.802 128.838C115.805 128.462 117.046 128.71 118.046 129.031C119.24 129.414 119.708 130.255 120.165 131.427C120.426 132.091 121.397 131.668 121.136 131.002" fill="#16142C"/>
<path d="M118.539 135.39C117.745 135.162 117.098 135.401 116.443 134.682C116.095 134.301 115.981 133.632 115.585 133.212C114.86 132.442 113.959 132.102 112.951 132.079C112.284 132.063 112.132 133.17 112.806 133.186C114.318 133.22 114.843 134.169 115.579 135.39C115.817 135.785 115.845 135.995 116.305 136.221C116.767 136.446 117.388 136.293 117.866 136.377C119.672 136.688 120.791 138.363 120.732 140.257C120.713 140.967 121.75 141.131 121.772 140.411C121.842 138.114 120.721 136.017 118.539 135.39" fill="#16142C"/>
<path d="M106.495 145.932C105.664 145.754 105.146 145.062 104.786 144.29C104.46 143.589 104.092 142.742 104.187 141.952C104.273 141.236 103.234 141.081 103.148 141.796C103.01 142.953 103.511 144.189 104.045 145.174C104.566 146.132 105.319 146.817 106.349 147.038C107.012 147.181 107.154 146.073 106.495 145.931" fill="#16142C"/>
<path d="M92.0763 177.189C92.4197 176.676 93.1737 177.066 93.0079 177.67L90.4611 186.999L90.3242 187.042C89.9886 186.786 89.6634 186.552 89.3698 186.304C88.6983 185.768 87.9323 185.109 87.2715 184.36L92.0767 177.189L92.0763 177.189Z" fill="#223B82"/>
<path d="M133.175 173.17C132.304 176.636 131.391 180.078 130.426 183.511C130.259 183.6 130.069 183.679 129.839 183.767C129.628 183.846 129.408 183.913 129.188 183.992C130.238 180.302 131.234 176.591 132.167 172.879C132.334 172.175 133.353 172.476 133.175 173.17" fill="#223B82"/>
<path d="M121.615 202.727C121.017 202.615 120.429 202.492 119.821 202.426C117.576 200.123 115.362 197.776 113.19 195.383C112.718 194.868 113.462 194.074 113.935 194.589C116.453 197.349 119.003 200.066 121.615 202.727Z" fill="#223B82"/>
<path d="M121.811 160.636C121.748 160.67 121.696 160.703 121.634 160.724C121.066 161.016 120.49 161.273 119.892 161.509C114.708 163.621 108.393 164.136 103.691 161.239C104.269 161.173 104.856 161.161 105.443 161.151C105.486 161.095 105.517 161.05 105.559 161.005C109.902 162.962 115.389 162.236 119.871 160.312C120.101 160.391 120.331 160.47 120.552 160.569C120.846 160.58 121.276 160.614 121.811 160.636" fill="#223B82"/>
</g>
</svg>
