<svg width="80" height="80" viewBox="0 0 80 80" fill="none" xmlns="http://www.w3.org/2000/svg">
<circle cx="40" cy="40" r="40" fill="#019772"/>
<mask id="mask0_4216_25677" style="mask-type:luminance" maskUnits="userSpaceOnUse" x="0" y="0" width="80" height="80">
<path d="M40 0C17.9084 0 0 17.9091 0 40.0016C0 62.094 17.9084 80 40 80C62.0916 80 80 62.0909 80 40.0016C80 17.9123 62.0916 0 40 0Z" fill="white"/>
</mask>
<g mask="url(#mask0_4216_25677)">
<path d="M54.2674 53.2254C51.9908 50.3404 46.3621 47.8285 40.3822 47.7596C34.4022 47.8254 28.7735 50.3404 26.4969 53.2254C22.4455 58.3558 14.1545 78.874 16.0987 93.4653H64.0918C65.1078 71.9907 58.3188 58.3558 54.2674 53.2254Z" fill="#CCADE0"/>
<path d="M44.1667 58.1864C47.083 57.5561 49.9428 56.5464 52.5581 55.1007C53.2417 54.7213 53.9848 54.2948 54.7155 53.815C54.5618 53.608 54.4113 53.4104 54.2671 53.2254C51.9905 50.3404 46.3618 47.8285 40.3787 47.7596C34.3988 47.8254 28.77 50.3404 26.4935 53.2254C26.136 53.6801 25.744 54.2571 25.3301 54.9345C30.9055 58.0359 37.9014 59.5443 44.1698 58.1864" fill="#947DAB"/>
<path d="M40.3789 60.6482C28.7012 60.6482 26.9609 89.0846 26.7539 93.4623H54.0038C53.7969 89.0846 52.0565 60.6482 40.3789 60.6482Z" fill="#E3CCF7"/>
<path d="M57.1929 88.3633C56.9515 85.4595 56.5877 82.5651 56.1456 79.6832C55.5279 75.6629 54.7125 71.6709 53.7499 67.7197C53.9945 66.757 54.3707 65.9134 54.8474 65.0416C55.1578 64.4709 54.2861 63.9629 53.9756 64.5336C53.7248 64.9946 53.499 65.4493 53.2983 65.9166C53.0098 64.7876 52.7151 63.6618 52.4046 62.5423C52.2321 61.9151 51.2601 62.1817 51.4325 62.8089C52.9596 68.3249 54.2077 73.9131 55.1108 79.5671C55.578 82.4867 55.9292 85.4219 56.1801 88.3665C56.3275 90.0724 56.362 91.7689 56.3651 93.4686H57.3717C57.3654 91.7689 57.3309 90.0755 57.1898 88.3665" fill="#947DAB"/>
<path d="M28.2589 62.5361C27.9484 63.6587 27.6537 64.7845 27.3652 65.9135C27.1676 65.4462 26.9387 64.9884 26.6878 64.5274C26.3774 63.9567 25.5056 64.4647 25.8161 65.0354C26.2927 65.9103 26.6722 66.757 26.9167 67.7197C25.9603 71.671 25.1482 75.6598 24.521 79.6769C24.0914 82.4271 23.7559 85.193 23.5082 87.9683C23.3451 89.8059 23.3012 91.631 23.2949 93.4592H24.3015C24.3078 91.7596 24.3423 90.0662 24.4834 88.3571C24.728 85.4125 25.098 82.4773 25.5558 79.5578C26.4401 73.9037 27.7101 68.3124 29.2341 62.7995C29.4066 62.1723 28.4345 61.9058 28.262 62.533" fill="#947DAB"/>
<path d="M55.0072 19.5616C55.0731 19.3734 55.1577 19.1978 55.2644 19.0379C55.6469 18.1975 56.4842 17.6424 57.5221 17.6612C58.8862 17.6863 60.1217 19.179 60.1248 20.4992C60.1248 21.5717 59.5761 22.3369 58.7231 22.7414C58.7513 22.7696 58.7827 22.7979 58.8109 22.8261C59.0116 23.0268 59.2092 23.2337 59.4004 23.447C61.0467 22.8386 62.138 21.5059 62.1348 19.5647C62.1286 17.3821 60.0872 14.9142 57.8357 14.8734C56.1173 14.8421 54.7344 15.7609 54.101 17.1501C53.8156 17.5828 53.6118 18.0909 53.4895 18.624C54.0351 18.8811 54.5337 19.2072 55.0104 19.5679" fill="#CCADE0"/>
<path d="M56.2958 20.6121C57.1206 21.302 57.9547 21.9856 58.7198 22.7414C59.5727 22.3368 60.1246 21.5717 60.1215 20.4992C60.1184 19.179 58.8829 17.6863 57.5188 17.6612C56.4809 17.6424 55.6436 18.1974 55.261 19.0379C55.1544 19.1978 55.0698 19.3765 55.0039 19.5616C55.4461 19.894 55.8694 20.2546 56.2958 20.6121Z" fill="#947DAB"/>
<path d="M26.1582 19.5616C26.0892 19.3734 26.0077 19.1978 25.9011 19.0379C25.5185 18.1975 24.6812 17.6424 23.6433 17.6612C22.2792 17.6863 21.0469 19.179 21.0437 20.4992C21.0406 21.5717 21.5925 22.3369 22.4454 22.7414C22.4172 22.7696 22.3858 22.7979 22.3576 22.8261C22.1569 23.0268 21.9594 23.2337 21.7681 23.447C20.1218 22.8386 19.0306 21.5059 19.0337 19.5647C19.04 17.3821 21.0814 14.9142 23.3329 14.8734C25.0513 14.8421 26.4341 15.7609 27.0676 17.1501C27.3529 17.5828 27.5567 18.0909 27.679 18.624C27.1334 18.8811 26.6348 19.2072 26.1582 19.5679" fill="#CCADE0"/>
<path d="M24.8659 20.6121C24.0412 21.302 23.2071 21.9856 22.442 22.7414C21.5891 22.3368 21.0372 21.5717 21.0403 20.4992C21.0434 19.179 22.2789 17.6863 23.6399 17.6612C24.6778 17.6424 25.5151 18.1974 25.9008 19.0379C26.0074 19.1978 26.0889 19.3765 26.1579 19.5616C25.7157 19.894 25.2924 20.2546 24.8691 20.6121" fill="#947DAB"/>
<path d="M62.9626 38.606C62.2665 34.4666 61.8086 27.8059 59.5854 23.8861C56.5123 18.4704 53.2793 17.6926 49.5979 16.4257C46.9513 15.5163 43.7309 15.0271 40.3787 15.0271C37.0266 15.0271 33.8093 15.5132 31.1595 16.4257C27.4781 17.6926 24.2451 18.4704 21.1721 23.8861C18.9488 27.8059 18.491 34.4666 17.7948 38.606C17.1802 42.2499 17.2398 48.7569 23.596 52.3256C27.6569 54.6054 33.6901 56.3144 40.3756 56.1576C47.0611 56.3144 53.0943 54.6054 57.1583 52.3256C63.5145 48.7569 63.5741 42.2499 62.9595 38.606" fill="#CCADE0"/>
<path d="M51.7493 37.2387C49.0055 36.6366 44.8161 36.2132 40.3821 36.2352C35.9481 36.2132 31.7587 36.6366 29.0149 37.2387C22.7747 38.6059 17.8672 41.2275 20.0654 48.3586C21.787 53.9374 30.8431 56.8255 40.3821 57.0795C49.9212 56.8255 58.9773 53.9374 60.6989 48.3586C62.897 41.2275 57.9927 38.6059 51.7493 37.2387Z" fill="#E3CCF7"/>
<path d="M34.631 39.3084C34.1418 39.0669 33.6182 39.1422 33.2481 39.4558C32.9816 39.6157 32.7652 39.8916 32.6398 40.1927C32.3293 40.9422 32.7652 41.6634 33.4864 41.8986C34.2077 42.1338 34.9007 41.9425 35.2299 41.2432C35.5247 40.616 35.2738 39.6282 34.631 39.3084Z" fill="#947DAB"/>
<path d="M47.9611 39.3084C47.4719 39.0669 46.9482 39.1422 46.5782 39.4558C46.3117 39.6157 46.0953 39.8916 45.9699 40.1927C45.6594 40.9422 46.0953 41.6634 46.8165 41.8986C47.5378 42.1338 48.2308 41.9425 48.56 41.2432C48.8548 40.616 48.6008 39.6282 47.9611 39.3084Z" fill="#947DAB"/>
<path d="M30.8022 32.5818C30.382 32.3748 29.9367 32.4407 29.62 32.7072C29.3942 32.8452 29.2092 33.0804 29.0995 33.3375C28.8329 33.9772 29.2061 34.595 29.8238 34.7957C30.4416 34.9996 31.0342 34.8333 31.3133 34.2344C31.5642 33.6982 31.351 32.8546 30.8022 32.5818Z" fill="#332B21"/>
<path d="M50.6826 32.5816C51.0996 32.3746 51.548 32.4405 51.8648 32.707C52.0937 32.845 52.2787 33.0802 52.3853 33.3373C52.6518 33.9771 52.2787 34.5948 51.6609 34.7955C51.0463 34.9994 50.4505 34.8332 50.1714 34.2342C49.9174 33.698 50.1338 32.8544 50.6826 32.5816Z" fill="#332B21"/>
<path d="M38.958 49.4184C40.1872 50.8609 42.3603 50.5505 43.1286 48.8195C43.2854 48.4651 42.7648 48.1578 42.6049 48.5153C41.9872 49.9045 40.3754 50.1554 39.3813 48.9919C39.1273 48.694 38.704 49.1237 38.9549 49.4184" fill="#332B21"/>
<path d="M59.9898 35.3824C59.9898 34.357 58.5724 33.526 56.8227 33.526C55.0729 33.526 53.6555 34.357 53.6555 35.3824C53.6555 36.4079 55.0729 37.2389 56.8227 37.2389C58.5724 37.2389 59.9898 36.4079 59.9898 35.3824Z" fill="#FF8F66"/>
<path d="M21.175 35.3824C21.175 34.357 22.5924 33.526 24.3422 33.526C26.0919 33.526 27.5093 34.357 27.5093 35.3824C27.5093 36.4079 26.0919 37.2389 24.3422 37.2389C22.5924 37.2389 21.175 36.4079 21.175 35.3824Z" fill="#FF8F66"/>
<path d="M33.2008 27.7903C31.2817 27.1129 29.4254 27.138 27.9704 28.6997C27.616 29.0791 28.1867 29.653 28.5411 29.2704C29.8111 27.9094 31.3476 27.9878 32.9876 28.568C33.4799 28.7404 33.69 27.9627 33.2008 27.7903Z" fill="#FFEBD9"/>
<path d="M48.1809 28.568C49.821 27.9878 51.3575 27.9094 52.6275 29.2704C52.9818 29.653 53.5525 29.0791 53.1982 28.6997C51.7401 27.138 49.8837 27.1129 47.9677 27.7903C47.4817 27.9627 47.6918 28.7404 48.1809 28.568Z" fill="#FFEBD9"/>
<path d="M33.8345 17.4229C34.0352 18.0626 34.2359 18.6992 34.4397 19.3389C34.5965 19.8344 35.3741 19.6211 35.2174 19.1257C35.0167 18.4859 34.8128 17.8494 34.6122 17.2096C34.4554 16.7173 33.6777 16.9274 33.8345 17.4229Z" fill="#947DAB"/>
<path d="M36.8418 17.0152C36.8481 17.6957 36.961 18.3668 37.0582 19.0379C37.1335 19.5522 37.908 19.3326 37.8359 18.8246C37.7481 18.2225 37.6571 17.6236 37.6477 17.0152C37.6415 16.4946 36.8356 16.4946 36.8418 17.0152Z" fill="#947DAB"/>
<path d="M40.1692 16.7113C40.1755 17.4263 40.2696 18.1319 40.3856 18.8343C40.4703 19.3455 41.2479 19.1291 41.1633 18.6211C41.0598 17.9876 40.9814 17.3542 40.9751 16.7113C40.9688 16.1908 40.163 16.1908 40.1692 16.7113Z" fill="#947DAB"/>
<path d="M44.4179 16.9087C44.2266 17.5013 44.1012 18.116 43.9789 18.7244C43.8785 19.2324 44.6562 19.4487 44.7566 18.9376C44.8757 18.3292 45.0011 17.7146 45.1924 17.1219C45.3524 16.6264 44.5747 16.4163 44.4148 16.9087" fill="#947DAB"/>
<path d="M47.4441 17.6143C47.3469 18.2948 47.2497 18.9753 47.0396 19.6307C46.8828 20.1262 47.6604 20.3394 47.8172 19.8439C48.0242 19.1885 48.1245 18.508 48.2217 17.8276C48.2939 17.3195 47.5193 17.1 47.4441 17.6143Z" fill="#947DAB"/>
<path d="M37.7351 22.1519C37.7351 22.1519 37.732 22.13 37.7289 22.1206C37.6003 21.7035 36.8759 21.7599 36.9387 22.2272C37.017 22.8261 37.2428 23.422 37.4655 23.9802C37.6536 24.4568 38.4344 24.2498 38.2431 23.7669C38.102 23.4094 37.9766 23.0457 37.87 22.6725C37.8323 22.5471 37.801 22.4216 37.7696 22.293C37.7571 22.246 37.7195 22.0171 37.7477 22.2272C37.4843 22.2617 37.2209 22.2993 36.9543 22.3338C36.9575 22.3432 36.9606 22.3558 36.9606 22.3652C37.0641 22.8732 37.8418 22.6599 37.7383 22.1519" fill="#947DAB"/>
<path d="M40.1692 22.1581C40.1692 22.6347 40.1786 23.1114 40.2852 23.5755C40.4012 24.0835 41.1789 23.8672 41.0629 23.3623C40.9719 22.9672 40.9751 22.5626 40.9751 22.1581C40.9751 21.6375 40.1692 21.6375 40.1692 22.1581Z" fill="#947DAB"/>
<path d="M43.8128 21.948C43.5807 22.5846 43.5964 23.2996 43.5964 23.9706C43.5964 24.4912 44.4023 24.4912 44.4023 23.9706C44.4023 23.3685 44.3804 22.7351 44.5905 22.1644C44.7692 21.6752 43.9884 21.4651 43.8128 21.948Z" fill="#947DAB"/>
<path d="M38.5567 26.6926C38.563 27.279 38.6633 27.8654 38.8734 28.4142C39.0584 28.8971 39.8393 28.687 39.6511 28.2009C39.4661 27.7149 39.3689 27.2131 39.3626 26.6957C39.3563 26.1751 38.5473 26.1751 38.5567 26.6957" fill="#947DAB"/>
<path d="M42.0847 26.5264C42.0784 27.0187 41.9875 27.5142 41.8965 28.0002C41.8025 28.5083 42.5801 28.7246 42.6742 28.2135C42.7777 27.6616 42.8812 27.0908 42.8906 26.5264C42.8969 26.0058 42.091 26.0089 42.0847 26.5264Z" fill="#947DAB"/>
<path d="M40.1689 30.3961C40.1282 30.9605 40.0278 31.6316 40.1846 32.1835C40.3257 32.6822 41.1034 32.472 40.9623 31.9703C40.84 31.5407 40.9403 30.8821 40.9748 30.3961C41.0125 29.8787 40.2034 29.8818 40.1689 30.3961Z" fill="#947DAB"/>
</g>
</svg>
