<svg width="81" height="81" viewBox="0 0 81 81" fill="none" xmlns="http://www.w3.org/2000/svg">
<path d="M40.668 0.5C18.5764 0.5 0.667969 18.4091 0.667969 40.5016C0.667969 62.594 18.5764 80.5 40.668 80.5C62.7595 80.5 80.668 62.5909 80.668 40.5016C80.668 18.4123 62.7595 0.5 40.668 0.5Z" fill="#FF8E00"/>
<mask id="mask0_5374_204913" style="mask-type:luminance" maskUnits="userSpaceOnUse" x="0" y="0" width="81" height="81">
<path d="M0.667969 40.5016C0.667969 62.5909 18.5764 80.5 40.668 80.5C62.7595 80.5 80.668 62.5909 80.668 40.5016C80.668 18.4123 62.7595 0.5 40.668 0.5C18.5764 0.5 0.667969 18.4091 0.667969 40.5016Z" fill="white"/>
</mask>
<g mask="url(#mask0_5374_204913)">
<path d="M59.2177 45.4972C56.6245 54.0331 56.1384 63.4126 55.9565 65.1436C55.7998 66.6269 53.6235 79.5312 53.0434 81.7639C52.8207 82.6169 52.5793 83.4698 52.2469 84.2852C52.1246 84.5862 65.7903 79.5845 74.4733 72.2621C77.6718 69.5653 80.2965 66.1095 82.6452 62.6819C83.6267 61.252 84.4514 59.7091 85.2792 58.1913C86.2011 56.5042 93.8368 42.4993 92.5009 39.8024C92.5009 39.8024 68.9982 24.195 63.934 32.7874C63.3789 33.7282 60.1867 42.286 59.2146 45.4941" fill="#BF824D"/>
<path d="M62.7902 74.3065C61.3885 69.5462 59.4882 64.811 56.3305 60.9507C56.1204 63.0267 56.02 64.5413 55.9573 65.1402C55.8005 66.6235 53.6243 79.5278 53.0473 81.7605C52.8247 82.6135 52.5832 83.4665 52.2508 84.2849C52.1724 84.4793 57.7416 82.4975 64.0413 79.1295C63.6682 77.5114 63.2605 75.9027 62.7933 74.3065" fill="#A86B38"/>
<path d="M64.2996 40.5924C64.908 40.075 66.341 39.1123 67.1218 38.7956C67.1218 38.7956 67.2786 41.806 67.4323 42.405C68.4326 42.2168 71.4837 41.9785 72.0419 41.2478C72.0419 41.2478 72.368 45.2179 72.1547 46.9614C73.5188 46.7733 80.3172 43.0259 80.3172 43.0259C80.0663 44.6816 80.3454 46.3531 80.3862 48.0214C82.277 47.0555 86.3504 42.7437 86.3504 42.7437C86.6044 43.352 86.3567 45.29 86.4508 45.9266C86.526 46.4409 90.5806 45.3653 91.7408 44.6032C93.3056 40.8182 94.3937 37.4503 93.8637 36.384C93.8637 36.384 92.5091 38.0084 91.2203 38.3816C92.6596 35.5468 92.8352 30.2 92.5091 27.1112C92.4903 26.9387 90.9255 28.5631 90.452 28.4032C90.9318 25.446 89.7026 18.5784 89.5332 18.5972C83.3495 19.284 75.3219 25.377 72.8478 27.2648C72.7474 26.9795 72.3398 26.0167 72.1704 26.208C71.0635 27.4687 70.0412 28.7952 68.95 30.0683C68.7681 29.5039 68.1472 28.0645 67.9779 28.215C66.4163 29.5791 64.4658 31.5203 63.9359 32.7934C63.3808 35.39 63.3401 38.137 64.2965 40.5956" fill="#FFE8D6"/>
<path d="M58.264 54.4657C58.0131 55.1556 57.9065 55.88 57.7497 56.5919C57.6337 57.1124 58.4365 57.3163 58.5494 56.7957C58.7061 56.0807 58.8159 55.3563 59.0636 54.6664C59.2455 54.1647 58.4427 53.9671 58.264 54.4626" fill="#A86B38"/>
<path d="M59.3452 48.9939C59.1979 49.8092 59.0254 50.6183 58.8749 51.4305C58.7808 51.9542 59.5804 52.158 59.6776 51.6343C59.825 50.819 59.9975 50.0099 60.1449 49.1977C60.2389 48.6772 59.4393 48.4702 59.3452 48.9939Z" fill="#A86B38"/>
<path d="M60.4587 52.2644C60.3144 53.017 60.12 53.7791 60.0448 54.5411C60.0197 54.7857 60.2643 54.9237 60.465 54.9456C60.6468 54.9644 60.8099 54.7951 60.8569 54.6352C60.8569 54.6257 60.8632 54.6195 60.8632 54.6101C60.9855 54.0926 60.1859 53.8888 60.0636 54.4062C60.0636 54.4156 60.0604 54.4219 60.0573 54.4313C60.189 54.3278 60.3176 54.2244 60.4493 54.1209C60.5904 54.2557 60.7284 54.3906 60.8695 54.5254C60.8506 54.723 60.8726 54.5379 60.8789 54.494C60.8946 54.4062 60.9102 54.3184 60.9259 54.2306C60.9698 53.986 61.0168 53.7414 61.0639 53.4937C61.1297 53.1519 61.1924 52.8101 61.2583 52.4683C61.3586 51.9477 60.5559 51.7407 60.4587 52.2644Z" fill="#A86B38"/>
<path d="M61.873 45.936C61.5595 46.6573 61.4936 47.4852 61.3588 48.2535C61.2678 48.7772 62.0674 48.981 62.1584 48.4573C62.2775 47.7737 62.312 46.9834 62.5911 46.3374C62.8012 45.8514 62.0831 45.4468 61.8699 45.936" fill="#A86B38"/>
<path d="M58.8586 58.4986C58.6736 59.1163 58.5638 59.7498 58.3788 60.3676C58.2252 60.8819 59.0279 61.0794 59.1784 60.5714C59.3635 59.9568 59.4732 59.3202 59.6582 58.7024C59.8119 58.1913 59.0091 57.9906 58.8586 58.4986Z" fill="#A86B38"/>
<path d="M63.8545 50.6496C63.7698 51.1075 63.6695 51.5622 63.5723 52.02C63.4656 52.5406 64.2653 52.7444 64.375 52.2238C64.4691 51.766 64.5694 51.3113 64.6572 50.8534C64.7545 50.3297 63.9548 50.1259 63.8545 50.6496Z" fill="#A86B38"/>
<path d="M53.0064 53.475C50.9524 50.521 45.8787 47.9464 40.4852 47.8774C35.0948 47.9464 30.018 50.521 27.964 53.475C24.3109 58.7308 16.8352 79.7476 18.5912 94.6965H61.8618C62.7775 72.6981 56.6564 58.7308 53.0064 53.475Z" fill="#BF824D"/>
<path d="M33.5659 59.3358C36.5073 59.963 39.6682 60.5181 42.6785 60.1762C47.031 59.6808 50.5211 57.3445 53.7259 54.5818C53.4781 54.1804 53.2367 53.8104 53.0047 53.478C50.9507 50.5239 45.877 47.9494 40.4835 47.8804C35.0931 47.9494 30.0162 50.5239 27.9623 53.478C27.5013 54.1396 26.9808 55.0522 26.4258 56.1717C28.0595 58.1285 31.2486 58.8435 33.5628 59.3358" fill="#A86B38"/>
<path d="M51.8618 85.9471C50.2061 72.9112 46.5623 62.0798 40.4821 62.0547C34.4018 62.0798 30.758 72.9112 29.1055 85.9471C28.7448 88.782 28.3842 91.99 28.1992 94.6963H52.7681C52.583 91.99 52.2224 88.7789 51.8618 85.9471Z" fill="#FFEBD9"/>
<path d="M35.2283 18.9736C35.1938 18.9109 25.0402 9.49376 22.8514 9.63487C22.3246 9.66937 19.7783 23.16 22.5315 31.9562C22.5315 31.9562 33.1712 19.8893 35.2252 18.9736" fill="#BF824D"/>
<path d="M22.7852 9.69766C22.7852 9.69766 22.7977 9.67884 22.804 9.66943C22.7977 9.67571 22.7914 9.68825 22.7852 9.69766Z" fill="#BF824D"/>
<path d="M22.8008 9.67255C22.8008 9.67255 22.8196 9.65373 22.8259 9.64746C22.8165 9.65373 22.8102 9.66315 22.8008 9.67255Z" fill="#BF824D"/>
<path d="M22.8281 9.64418C22.8281 9.64418 22.8438 9.63477 22.8532 9.63477C22.8438 9.63477 22.8375 9.63791 22.8281 9.64418Z" fill="#A86B38"/>
<path d="M22.8513 9.6348C22.8513 9.6348 22.8356 9.63795 22.8262 9.64422C22.8168 9.65049 22.8105 9.65989 22.8011 9.6693C22.7948 9.67557 22.7885 9.68811 22.7823 9.69752C22.5063 10.124 21.9325 12.7299 21.5781 16.2327C21.5969 16.2171 21.6126 16.2014 21.6314 16.1888C23.5066 14.7275 25.639 13.8902 27.8842 13.4355C28.1538 13.3791 28.4235 13.3289 28.6963 13.285C26.2348 11.3 23.7983 9.57522 22.8513 9.6348Z" fill="#332B21"/>
<path d="M23.999 16.2767C23.8015 16.4272 22.2712 24.4551 24.2561 29.0147C25.0464 28.5255 29.8472 22.4262 30.6845 22.0342C31.4778 21.2408 24.2624 16.076 23.9959 16.2767" fill="#FFEBD9"/>
<path d="M46.2539 18.9736C46.2884 18.9109 56.4389 9.49376 58.6308 9.63487C59.1576 9.66937 61.7039 23.16 58.9507 31.9562C58.9507 31.9562 48.311 19.8893 46.257 18.9736" fill="#BF824D"/>
<path d="M58.7024 9.69766C58.7024 9.69766 58.6899 9.67884 58.6836 9.66943C58.6899 9.67571 58.6961 9.68825 58.7024 9.69766Z" fill="#BF824D"/>
<path d="M58.6806 9.67255C58.6806 9.67255 58.6618 9.65373 58.6523 9.64746C58.6618 9.65373 58.6712 9.66315 58.6806 9.67255Z" fill="#BF824D"/>
<path d="M58.654 9.64418C58.654 9.64418 58.6383 9.63477 58.6289 9.63477C58.6352 9.63477 58.6446 9.63791 58.654 9.64418Z" fill="#A86B38"/>
<path d="M58.6302 9.6348C58.6302 9.6348 58.6459 9.63795 58.6522 9.64422C58.6616 9.65049 58.671 9.65989 58.6804 9.6693C58.6867 9.67557 58.693 9.68811 58.6992 9.69752C58.9752 10.124 59.549 12.7299 59.9034 16.2327C59.8845 16.2171 59.8657 16.2014 59.8501 16.1888C57.9749 14.7275 55.8425 13.8902 53.5973 13.4355C53.3276 13.3791 53.058 13.3289 52.7852 13.285C55.2467 11.3 57.6832 9.57522 58.6302 9.6348Z" fill="#332B21"/>
<path d="M57.4846 16.2767C57.6822 16.4272 59.2125 24.4551 57.2275 29.0147C56.4373 28.5255 51.6364 22.4262 50.7992 22.0342C50.0058 21.2408 57.2244 16.076 57.4878 16.2767" fill="#FFEBD9"/>
<path d="M20.5217 45.6101C20.9199 48.4042 23.0585 51.5809 25.5891 53.3621C29.2831 55.9586 35.9842 57.2945 40.7412 57.2945C45.4982 57.2945 52.1993 55.9586 55.8933 53.3621C58.4239 51.5809 60.6722 47.2722 61.0705 44.4781C63.1777 29.6891 52.999 16.4619 40.7412 16.4619C28.4834 16.4619 18.4113 30.8243 20.5186 45.6133" fill="#BF824D"/>
<path d="M20.519 45.6098C20.9172 48.4039 23.0558 51.5806 25.5864 53.3618C29.2804 55.9583 35.9815 57.2942 40.7385 57.2942C45.4955 57.2942 52.1966 55.9583 55.8906 53.3618C58.4212 51.5806 60.6695 47.2719 61.0678 44.4778C61.5005 41.4516 61.4158 38.4882 60.9047 35.691C53.2816 37.5694 46.2575 41.091 41.1367 46.8266C40.6852 47.3283 33.3631 39.7833 29.5061 37.7011C27.0602 36.3809 24.1251 35.0418 21.1399 34.5244C20.2399 38.0335 19.9765 41.806 20.519 45.6098Z" fill="#FFEBD9"/>
<path d="M34.7395 20.6924C34.5795 20.1875 33.7831 20.4007 33.943 20.9119C34.1499 21.5673 34.3569 22.2195 34.5639 22.8749C34.7238 23.3798 35.5203 23.1634 35.3604 22.6554C35.1534 22 34.9464 21.3478 34.7395 20.6924Z" fill="#A86B38"/>
<path d="M38.0434 22.3449C37.9556 21.7303 37.8584 21.1157 37.8521 20.4916C37.8458 19.9585 37.0211 19.9585 37.0274 20.4916C37.0368 21.1878 37.1497 21.8777 37.25 22.5645C37.3253 23.0913 38.1218 22.8655 38.0465 22.3449" fill="#A86B38"/>
<path d="M41.2615 20.1811C41.2552 19.648 40.4305 19.648 40.4336 20.1811C40.4399 20.9117 40.5371 21.6361 40.6562 22.3574C40.7441 22.8811 41.5405 22.6584 41.4527 22.1379C41.3461 21.4888 41.2677 20.8396 41.2615 20.1811Z" fill="#A86B38"/>
<path d="M44.7897 20.3819C44.5952 20.9871 44.4635 21.6174 44.3413 22.2415C44.2378 22.762 45.0374 22.9847 45.1377 22.461C45.26 21.837 45.3886 21.2066 45.5861 20.6014C45.7492 20.0934 44.9527 19.877 44.7897 20.3819Z" fill="#A86B38"/>
<path d="M47.885 21.103C47.7846 21.7992 47.6843 22.4953 47.471 23.1695C47.308 23.6776 48.1076 23.8939 48.2675 23.3891C48.4807 22.718 48.5811 22.0187 48.6814 21.3225C48.7567 20.8019 47.9602 20.5762 47.885 21.103Z" fill="#A86B38"/>
<path d="M38.0731 26.2834C38.0355 26.1549 38.001 26.0263 37.9696 25.8946C37.9602 25.8601 37.9351 25.7221 37.9351 25.7409C37.9351 25.7347 37.9351 25.7253 37.9289 25.719C37.7972 25.2925 37.0571 25.3489 37.1167 25.8287C37.1198 25.8664 37.1292 25.9009 37.1324 25.9385C37.1324 25.9479 37.1355 25.9604 37.1386 25.9699C37.1386 25.9699 37.1386 25.973 37.1386 25.9761C37.2327 26.5406 37.446 27.0988 37.6529 27.6225C37.8442 28.1117 38.6438 27.8984 38.4494 27.403C38.3051 27.0361 38.1766 26.6629 38.0668 26.2834" fill="#A86B38"/>
<path d="M41.2614 25.7597C41.2614 25.2266 40.4336 25.2266 40.4336 25.7597C40.4336 26.2458 40.443 26.735 40.5528 27.2116C40.6719 27.729 41.4684 27.5095 41.3492 26.9921C41.2552 26.5876 41.2614 26.1705 41.2614 25.7597Z" fill="#A86B38"/>
<path d="M44.1682 25.5464C43.9298 26.1987 43.9455 26.9325 43.9455 27.6193C43.9455 28.1524 44.7702 28.1524 44.7702 27.6193C44.7702 27.0015 44.7483 26.3555 44.9615 25.7659C45.1434 25.2642 44.3438 25.051 44.165 25.5464" fill="#A86B38"/>
<path d="M39.6091 30.4072C39.6029 29.874 38.775 29.874 38.7813 30.4072C38.7907 31.0061 38.891 31.6082 39.1074 32.1695C39.2956 32.6619 40.0952 32.4486 39.9039 31.95C39.7126 31.4545 39.6154 30.9371 39.6091 30.4072Z" fill="#A86B38"/>
<path d="M42.3948 30.2348C42.3885 30.7397 42.2945 31.2477 42.2035 31.7432C42.1063 32.2637 42.9028 32.4864 43 31.9627C43.1066 31.3951 43.2132 30.8118 43.2195 30.2348C43.2289 29.7017 42.4011 29.7017 42.3948 30.2348Z" fill="#A86B38"/>
<path d="M41.2618 34.1985C41.2994 33.6686 40.4747 33.6717 40.434 34.1985C40.3932 34.7787 40.2897 35.4623 40.4496 36.0299C40.5939 36.5442 41.3904 36.3247 41.2461 35.8104C41.1238 35.3714 41.2242 34.6972 41.2618 34.1985Z" fill="#A86B38"/>
<path d="M30.8288 41.3012C30.3992 41.088 29.9414 41.157 29.6184 41.4298C29.3864 41.5709 29.1951 41.8124 29.0854 42.0758C28.8125 42.7312 29.1951 43.3646 29.8254 43.5716C30.4557 43.7786 31.064 43.6092 31.3525 42.9977C31.6096 42.4458 31.3902 41.5835 30.8288 41.3044" fill="#332B21"/>
<path d="M51.1936 41.3012C51.6232 41.088 52.081 41.157 52.404 41.4298C52.6361 41.5709 52.8274 41.8124 52.9371 42.0758C53.2099 42.7312 52.8274 43.3646 52.1939 43.5716C51.5636 43.7786 50.9553 43.6092 50.6668 42.9977C50.4065 42.4458 50.6292 41.5835 51.1905 41.3044" fill="#332B21"/>
<path d="M40.9198 47.8931C41.7225 47.4007 42.2337 46.0335 42.1772 45.5255C42.1553 45.3122 41.9295 45.215 41.7915 45.1993C41.1079 45.1241 40.3679 45.0958 39.7407 45.2087C39.6247 45.2307 39.5149 45.353 39.5118 45.5474C39.5055 46.0115 39.8442 47.3255 40.9198 47.8899" fill="#332B21"/>
<path d="M38.7385 50.2698C39.996 51.7468 42.2255 51.4269 43.0126 49.6583C43.1725 49.2976 42.6395 48.9809 42.4764 49.3447C41.843 50.7684 40.1935 51.0255 39.1776 49.8339C38.9173 49.5297 38.4814 49.9687 38.7385 50.2729" fill="#332B21"/>
<path d="M57.4848 46.0713C57.4848 45.0207 56.0329 44.1709 54.2424 44.1709C52.4519 44.1709 51 45.0207 51 46.0713C51 47.1218 52.4519 47.9716 54.2424 47.9716C56.0329 47.9716 57.4848 47.1218 57.4848 46.0713Z" fill="#FF8F66"/>
<path d="M24.2109 46.0713C24.2109 45.0207 25.6628 44.1709 27.4533 44.1709C29.2439 44.1709 30.6957 45.0207 30.6957 46.0713C30.6957 47.1218 29.2439 47.9716 27.4533 47.9716C25.6628 47.9716 24.2109 47.1218 24.2109 46.0713Z" fill="#FF8F66"/>
<path d="M33.2866 34.3272C31.3236 33.6342 29.4201 33.6593 27.9275 35.2617C27.5638 35.6506 28.147 36.237 28.5108 35.845C29.809 34.4495 31.3863 34.5311 33.0671 35.1237C33.5688 35.3025 33.7851 34.5028 33.2866 34.3272Z" fill="#FFEBD9"/>
<path d="M48.632 35.1237C50.3127 34.5279 51.8869 34.4495 53.1882 35.845C53.552 36.2339 54.1352 35.6506 53.7715 35.2617C52.2789 33.6593 50.3754 33.6342 48.4124 34.3272C47.9139 34.5028 48.1271 35.3025 48.632 35.1237Z" fill="#FFEBD9"/>
<path d="M56.0374 80.4563C56.5141 83.4479 56.8747 86.4553 57.1349 89.4689C57.2855 91.2187 57.32 92.9529 57.3231 94.6964H58.3548C58.3485 92.956 58.314 91.2187 58.1666 89.4689C57.922 86.4929 57.5457 83.5295 57.0973 80.5786C56.1879 74.6517 54.8646 68.7939 53.2654 63.0144C53.0898 62.3747 52.0926 62.6444 52.2714 63.2872C53.833 68.9381 55.1155 74.6643 56.0405 80.4532" fill="#A86B38"/>
<path d="M54.8775 65.0559C54.3256 66.0656 53.8803 67.0566 53.6137 68.1792C53.4601 68.8252 54.4541 69.1012 54.6109 68.4552C54.8587 67.4141 55.26 66.5141 55.768 65.5796C56.0879 64.9931 55.1942 64.4726 54.8775 65.059" fill="#A86B38"/>
<path d="M23.6489 94.6961C23.6551 92.9557 23.6896 91.2184 23.8339 89.4686C24.0847 86.4518 24.4642 83.4476 24.9314 80.456C25.8376 74.664 27.1359 68.9378 28.7006 63.29C28.8793 62.6472 27.8822 62.3744 27.7034 63.0172C26.1042 68.7967 24.7997 74.6545 23.8746 80.5814C23.4325 83.4006 23.0907 86.2323 22.8367 89.0734C22.6674 90.9581 22.6235 92.824 22.6172 94.6992H23.6489V94.6961Z" fill="#A86B38"/>
<path d="M25.2018 65.5797C25.713 66.5142 26.1143 67.4142 26.3621 68.4553C26.5157 69.1013 27.5129 68.8285 27.3592 68.1794C27.0927 67.0567 26.6474 66.0658 26.0955 65.056C25.7757 64.4727 24.8851 64.9933 25.205 65.5766" fill="#A86B38"/>
</g>
</svg>
