<svg width="80" height="81" viewBox="0 0 80 81" fill="none" xmlns="http://www.w3.org/2000/svg">
<path d="M40 0.5C17.9084 0.5 0 18.4091 0 40.5016C0 62.594 17.9084 80.5 40 80.5C62.0916 80.5 80 62.5909 80 40.5016C80 18.4123 62.0916 0.5 40 0.5Z" fill="#029871"/>
<mask id="mask0_5374_204845" style="mask-type:luminance" maskUnits="userSpaceOnUse" x="0" y="0" width="80" height="81">
<path d="M0 40.5016C0 62.5909 17.9084 80.5 40 80.5C62.0916 80.5 80 62.5909 80 40.5016C80 18.4123 62.0916 0.5 40 0.5C17.9084 0.5 0 18.4091 0 40.5016Z" fill="white"/>
</mask>
<g mask="url(#mask0_5374_204845)">
<path d="M74.1024 68.2165C77.7368 65.6137 78.4015 56.8175 72.3808 59.759C72.7979 56.5667 71.437 51.8879 68.4172 50.229C69.5963 59.6367 68.1789 72.9737 60.2266 79.6124C60.3112 79.8727 60.399 80.1361 60.4868 80.3995C60.7283 80.8197 60.9886 81.2305 61.252 81.6382C65.9368 82.2748 73.6822 81.4783 71.3899 74.8678C73.0958 74.6263 75.8239 74.2375 76.6047 72.3873C77.2413 70.7315 75.8553 68.3169 74.0992 68.2165" fill="#BF824D"/>
<path d="M64.4732 74.5322C63.3318 76.4639 61.9301 78.1918 60.2305 79.6124C60.3151 79.8727 60.4029 80.1361 60.4907 80.3995C60.7322 80.8197 60.9925 81.2305 61.2559 81.6382C62.4569 81.8012 63.8586 81.8702 65.2414 81.7699C65.1348 79.3396 64.9153 76.9186 64.4763 74.5322" fill="#A86B38"/>
<path d="M53.1848 50.2794C50.9741 47.3662 45.5116 44.8261 39.7073 44.7603C33.9029 44.8261 28.4404 47.3662 26.2297 50.2794C22.2974 55.4631 14.2479 76.1851 16.1387 90.9239H62.7239C63.7085 69.2328 57.1202 55.46 53.188 50.2794" fill="#BF824D"/>
<path d="M43.3824 55.3941C46.214 54.7575 48.9892 53.7384 51.526 52.277C52.1877 51.8945 52.9089 51.4648 53.6207 50.9788C53.4733 50.7687 53.3259 50.568 53.1848 50.3829C50.9741 47.4697 45.5116 44.9296 39.7073 44.8638C33.9029 44.9328 28.4404 47.4697 26.2297 50.3829C25.8816 50.8408 25.5022 51.4241 25.0977 52.1108C30.51 55.2436 37.299 56.7676 43.3824 55.3941Z" fill="#A86B38"/>
<path d="M39.7239 67.8403C27.9271 67.8403 26.1679 86.5021 25.9609 90.9237H53.4837C53.2767 86.5021 51.5175 67.8403 39.7239 67.8403Z" fill="#FFEBD9"/>
<path d="M56.7065 85.7716C56.4619 82.8395 56.0951 79.9137 55.6498 77.0036C55.0258 72.9395 54.2042 68.9098 53.2321 64.9178C53.4767 63.9457 53.8592 63.0927 54.3422 62.2116C54.6557 61.6346 53.7777 61.1203 53.4641 61.6973C53.2101 62.1614 52.9812 62.6224 52.7805 63.0927C52.4889 61.9544 52.191 60.8161 51.8774 59.684C51.7018 59.0537 50.7203 59.3203 50.8959 59.9537C52.4356 65.5262 53.6993 71.1708 54.6118 76.8813C55.0822 79.8291 55.4365 82.7956 55.6937 85.7685C55.8411 87.4932 55.8756 89.2054 55.8787 90.9207H56.8947C56.8884 89.2054 56.8539 87.4932 56.7097 85.7685" fill="#A86B38"/>
<path d="M27.4829 59.6839C27.1693 60.8191 26.8714 61.9574 26.5798 63.0958C26.3791 62.6254 26.147 62.1613 25.8962 61.6972C25.5826 61.1202 24.7046 61.6344 25.0181 62.2115C25.5011 63.0958 25.8836 63.9488 26.1282 64.924C25.1624 68.916 24.3439 72.9425 23.7074 77.0035C23.2746 79.7819 22.936 82.576 22.6851 85.3764C22.5189 87.2328 22.475 89.0736 22.4688 90.9206H23.4847C23.4879 89.2053 23.5255 87.4931 23.6697 85.7684C23.9143 82.7924 24.2906 79.829 24.7516 76.8812C25.6453 71.1707 26.9278 65.523 28.4675 59.9536C28.6431 59.3202 27.6616 59.0505 27.486 59.6839" fill="#A86B38"/>
<path d="M24.2454 17.4274C24.2705 17.4306 24.2925 17.4337 24.3176 17.4368C24.5088 17.4651 24.5841 17.0794 24.4054 17.0166C23.358 16.6686 22.364 16.4145 21.5863 15.5804C20.9278 14.8748 20.47 14.0062 19.7738 13.3257C18.6136 12.1936 16.4718 12.6671 15.2802 13.495C14.6844 13.909 14.2831 14.5424 13.9256 15.157C13.3486 16.148 12.781 17.1013 11.9657 17.9198C11.1818 18.7132 10.2097 19.2933 9.19997 19.748C8.62299 20.0051 7.26833 20.1055 6.89517 20.7139C6.01716 22.1501 8.04287 23.555 9.01496 24.2104C10.8713 25.4616 13.195 26.3365 15.412 26.6313C18.993 27.108 22.273 24.9411 23.681 21.7111C24.2423 20.4222 24.7284 18.8072 24.2454 17.4243" fill="#BF824D"/>
<path d="M22.6378 21.2659C20.8442 20.9178 19.0819 20.6356 17.2506 20.7861C15.413 20.9397 13.4469 21.1436 11.7128 21.7927C10.4679 22.2599 9.33586 22.9342 8.22266 23.646C8.51115 23.8687 8.79023 24.06 9.01601 24.2105C10.8724 25.4617 13.196 26.3366 15.413 26.6314C18.9941 27.1081 22.2741 24.9411 23.682 21.7112C23.7071 21.6547 23.7322 21.5951 23.7573 21.5356C23.3967 21.4227 23.0204 21.3411 22.6378 21.2659Z" fill="#FFEBD9"/>
<path d="M54.6324 17.4274C54.6074 17.4306 54.5854 17.4337 54.5603 17.4368C54.369 17.4651 54.2938 17.0794 54.4725 17.0166C55.5199 16.6686 56.5139 16.4145 57.2947 15.5804C57.9532 14.8748 58.4111 14.0062 59.1072 13.3257C60.2674 12.1936 62.4092 12.6671 63.6008 13.495C64.1966 13.909 64.5979 14.5424 64.9554 15.157C65.5324 16.148 66.1031 17.1013 66.9153 17.9198C67.6992 18.7132 68.6713 19.2933 69.681 19.748C70.2549 20.0051 71.6127 20.1055 71.9858 20.7139C72.8607 22.1501 70.8381 23.555 69.8661 24.2104C68.0097 25.4616 65.6861 26.3365 63.4691 26.6313C59.888 27.108 56.608 24.9411 55.2 21.7111C54.6387 20.4222 54.1527 18.8072 54.6356 17.4243" fill="#BF824D"/>
<path d="M56.2445 21.2659C58.0381 20.9178 59.8004 20.6356 61.6317 20.7861C63.4662 20.9397 65.4323 21.1436 67.1695 21.7927C68.4144 22.2599 69.5464 22.9342 70.6596 23.646C70.3712 23.8687 70.0889 24.06 69.8663 24.2105C68.0099 25.4617 65.6863 26.3366 63.4693 26.6314C59.8882 27.1081 56.6082 24.9411 55.2003 21.7112C55.1752 21.6547 55.1501 21.5951 55.125 21.5356C55.4888 21.4227 55.8619 21.3411 56.2445 21.2659Z" fill="#FFEBD9"/>
<path d="M60.1539 27.9642C58.9372 20.4631 53.7162 13.7084 44.9422 11.4474C40.8689 10.3969 34.6412 11.2028 30.6776 12.6171C21.5587 15.8753 18.1 24.5367 18.1094 33.59C18.1251 50.0566 40.2511 58.003 52.3615 48.1688C58.8463 42.9036 61.3142 35.0952 60.1571 27.9611" fill="#BF824D"/>
<path d="M51.0511 38.9962C50.4177 37.8453 49.2575 36.8199 47.4763 36.0955C43.0863 34.308 35.8802 34.4931 32.7319 35.3993C30.7376 35.9763 28.3324 37.3373 27.3509 39.3192C26.2628 41.5143 27.2882 43.8725 28.9909 45.3527C30.3236 46.513 31.9919 47.2656 33.6476 47.8112C37.8589 49.2004 43.1207 49.4168 47.169 47.5039C50.8379 45.7698 52.6849 41.9596 51.0543 38.9931" fill="#FFEBD9"/>
<path d="M32.6292 14.235C32.833 14.881 33.0368 15.527 33.2406 16.1698C33.3974 16.6685 34.1845 16.4552 34.0246 15.9535C33.8208 15.3075 33.6169 14.6646 33.4131 14.0186C33.2563 13.52 32.4692 13.7332 32.626 14.235" fill="#A86B38"/>
<path d="M35.6719 13.8212C35.6781 14.508 35.791 15.1853 35.8914 15.8658C35.9666 16.3832 36.7506 16.1637 36.6785 15.6494C36.5907 15.0411 36.4966 14.4358 36.4903 13.8212C36.484 13.2975 35.6687 13.2944 35.675 13.8212" fill="#A86B38"/>
<path d="M39.0312 13.517C39.0375 14.2383 39.1316 14.9501 39.2507 15.662C39.3354 16.1794 40.1194 15.9599 40.0378 15.4456C39.9312 14.8059 39.856 14.1661 39.8497 13.517C39.8434 12.9933 39.0281 12.9902 39.0344 13.517" fill="#A86B38"/>
<path d="M43.326 13.7115C43.1316 14.3073 43.003 14.9314 42.8839 15.546C42.7835 16.0603 43.5675 16.2767 43.6678 15.7624C43.787 15.1477 43.9155 14.5268 44.1099 13.9279C44.273 13.4261 43.4859 13.2129 43.326 13.7115Z" fill="#A86B38"/>
<path d="M46.3782 14.4263C46.281 15.1131 46.1806 15.7999 45.9705 16.4647C45.8106 16.9664 46.5977 17.1797 46.7545 16.681C46.9646 16.0194 47.0649 15.3295 47.1621 14.6427C47.2343 14.1284 46.4503 13.9089 46.375 14.4263" fill="#A86B38"/>
<path d="M36.5742 19.0079C36.5742 19.0079 36.5711 18.9859 36.5648 18.9765C36.4362 18.5563 35.7056 18.6128 35.7652 19.0863C35.8436 19.6915 36.0725 20.2936 36.2951 20.8549C36.4864 21.3379 37.2735 21.1278 37.0822 20.6386C36.938 20.2748 36.8125 19.9079 36.7059 19.5347C36.6683 19.4093 36.6369 19.2807 36.6056 19.1521C36.593 19.1051 36.5554 18.873 36.5836 19.0863C36.3171 19.1239 36.0505 19.1584 35.784 19.196C35.784 19.2054 35.7871 19.218 35.7902 19.2274C35.8969 19.7417 36.6808 19.5222 36.5773 19.011" fill="#A86B38"/>
<path d="M39.0312 19.0143C39.0312 19.4941 39.0407 19.977 39.1473 20.4474C39.2664 20.9585 40.0504 20.7421 39.9344 20.231C39.8434 19.8327 39.8466 19.4219 39.8466 19.0143C39.8466 18.4874 39.0312 18.4874 39.0312 19.0143Z" fill="#A86B38"/>
<path d="M42.7119 18.8041C42.4767 19.4501 42.4924 20.1713 42.4924 20.8487C42.4924 21.3724 43.3077 21.3724 43.3077 20.8487C43.3077 20.2403 43.2858 19.6006 43.4958 19.0236C43.6746 18.5281 42.8875 18.318 42.7119 18.8072" fill="#A86B38"/>
<path d="M37.4016 23.599C37.4079 24.1917 37.5114 24.7844 37.7215 25.3363C37.9065 25.8224 38.6935 25.6123 38.5054 25.1199C38.3173 24.6307 38.22 24.1227 38.2138 23.599C38.2075 23.0753 37.3922 23.0722 37.3985 23.599" fill="#A86B38"/>
<path d="M40.9694 23.4296C40.9631 23.9282 40.8722 24.4268 40.7813 24.916C40.6872 25.4303 41.4711 25.6498 41.5683 25.1324C41.6718 24.5742 41.7784 23.9972 41.7878 23.4296C41.7941 22.9028 40.982 22.9059 40.9725 23.4296" fill="#A86B38"/>
<path d="M39.0303 27.3403C38.9895 27.9111 38.8892 28.5884 39.0459 29.1466C39.1871 29.6515 39.9741 29.4382 39.833 28.9302C39.7107 28.4975 39.8111 27.8295 39.8487 27.3403C39.8863 26.8166 39.071 26.8198 39.0334 27.3403" fill="#A86B38"/>
<path d="M39.5111 37.2966C40.3013 36.8106 40.8062 35.4653 40.7529 34.9635C40.7309 34.7503 40.5083 34.6562 40.3734 34.6437C39.6993 34.5684 38.9717 34.5402 38.3509 34.6531C38.238 34.6719 38.1282 34.7942 38.1251 34.9855C38.1188 35.4433 38.4512 36.7385 39.5142 37.2966" fill="#332B21"/>
<path d="M29.5604 33.0381C29.1371 32.828 28.6855 32.8939 28.3657 33.1667C28.1368 33.3047 27.9486 33.543 27.842 33.8033C27.5723 34.4493 27.9518 35.0733 28.5726 35.2772C29.1967 35.481 29.7925 35.3148 30.0778 34.7096C30.3318 34.1671 30.1154 33.3141 29.5604 33.0381Z" fill="#332B21"/>
<path d="M49.6426 33.0381C50.0659 32.828 50.5174 32.8939 50.8373 33.1667C51.0662 33.3047 51.2543 33.543 51.361 33.8033C51.6306 34.4493 51.2512 35.0733 50.6303 35.2772C50.0063 35.481 49.4105 35.3148 49.1252 34.7096C48.8712 34.1671 49.0875 33.3141 49.6426 33.0381Z" fill="#332B21"/>
<path d="M37.7963 41.3167C39.0381 42.7718 41.2362 42.4582 42.0108 40.7115C42.1676 40.354 41.6439 40.0436 41.484 40.4042C40.8599 41.8059 39.2325 42.0599 38.229 40.884C37.9719 40.5829 37.5423 41.0188 37.7963 41.3167Z" fill="#332B21"/>
<path d="M57.8814 36.9263C57.8814 35.8915 56.4483 35.0542 54.6829 35.0542C52.9174 35.0542 51.4844 35.8946 51.4844 36.9263C51.4844 37.958 52.9174 38.8016 54.6829 38.8016C56.4483 38.8016 57.8814 37.9612 57.8814 36.9263Z" fill="#FF8F66"/>
<path d="M20.9961 36.9263C20.9961 35.8915 22.426 35.0542 24.1946 35.0542C25.9632 35.0542 27.3931 35.8946 27.3931 36.9263C27.3931 37.958 25.96 38.8016 24.1946 38.8016C22.4291 38.8016 20.9961 37.9612 20.9961 36.9263Z" fill="#FF8F66"/>
<path d="M31.9826 28.1997C30.0447 27.5129 28.1695 27.538 26.6988 29.1185C26.3414 29.5042 26.9152 30.0812 27.2758 29.6955C28.5584 28.3188 30.1106 28.4004 31.7694 28.9868C32.2649 29.1624 32.4781 28.3753 31.9858 28.2028" fill="#FFEBD9"/>
<path d="M47.1128 28.9834C48.7716 28.3969 50.3238 28.3185 51.6032 29.6921C51.9607 30.0778 52.5377 29.5008 52.1802 29.1151C50.7095 27.5346 48.8343 27.5095 46.8964 28.1962C46.4041 28.3687 46.6173 29.1558 47.1128 28.9802" fill="#FFEBD9"/>
</g>
</svg>
