<svg width="81" height="81" viewBox="0 0 81 81" fill="none" xmlns="http://www.w3.org/2000/svg">
<path d="M40.332 0.5C18.2405 0.5 0.332031 18.4091 0.332031 40.5016C0.332031 62.594 18.2405 80.5 40.332 80.5C62.4236 80.5 80.332 62.5909 80.332 40.5016C80.332 18.4123 62.4236 0.5 40.332 0.5Z" fill="#3F3D91"/>
<mask id="mask0_5374_204798" style="mask-type:luminance" maskUnits="userSpaceOnUse" x="0" y="0" width="81" height="81">
<path d="M0.332031 40.5016C0.332031 62.5909 18.2405 80.5 40.332 80.5C62.4236 80.5 80.332 62.5909 80.332 40.5016C80.332 18.4123 62.4236 0.5 40.332 0.5C18.2405 0.5 0.332031 18.4091 0.332031 40.5016Z" fill="white"/>
</mask>
<g mask="url(#mask0_5374_204798)">
<path d="M74.8936 47.5042C64.072 44.3871 67.2047 63.215 66.9695 68.5963C66.6998 72.9489 64.9124 78.0447 61.7578 81.4848L62.2627 86.1542C64.3793 85.1381 66.2733 83.8838 67.1263 83.1249C71.0617 79.5719 73.0842 75.7493 74.8497 70.8823C76.474 66.6395 81.8676 49.4202 74.8936 47.5042Z" fill="#9E917D"/>
<path d="M78.3044 52.9639C77.4953 53.0329 76.6863 53.0517 75.893 53.036C73.0864 52.9764 70.2705 52.5531 67.5957 51.6938C67.3448 52.5123 67.163 53.4029 67.0312 54.3405C70.7566 55.0869 74.5885 55.8677 78.3357 55.8081C78.389 54.8141 78.3859 53.8576 78.3044 52.9639Z" fill="#C4BDAB"/>
<path d="M66.7266 60.1484C67.7049 61.0013 69.6178 61.155 70.7623 61.3714C72.4023 61.6818 74.0549 61.9609 75.72 62.1052C76.275 62.1554 76.8363 62.193 77.3976 62.2181C77.7206 60.7473 77.9966 59.2202 78.1722 57.7306C74.4186 57.7588 70.593 57.0344 66.8332 56.2881C66.7422 57.5581 66.7172 58.8658 66.7297 60.1484" fill="#C4BDAB"/>
<path d="M69.1519 63.0396C68.3617 62.8765 67.537 62.6884 66.7812 62.3779C66.8126 63.256 66.8502 64.1027 66.8879 64.8898C67.7345 65.5013 68.9355 65.611 69.9264 65.7741C71.3281 66.0062 72.7047 66.3417 74.1127 66.5393C74.812 66.6365 75.5144 66.7149 76.2168 66.7776C76.4583 65.9591 76.706 65.0748 76.9412 64.1497C76.2262 64.1058 75.5144 64.04 74.812 63.9616C72.9117 63.7515 71.0271 63.4316 69.155 63.0427" fill="#C4BDAB"/>
<path d="M68.3855 67.4832C67.9057 67.3828 67.4291 67.2637 66.9713 67.1006C66.987 67.6713 66.987 68.1762 66.9713 68.5996C66.9587 68.8065 66.9399 69.0166 66.918 69.2299C67.4699 69.7097 68.2005 70.086 68.7399 70.4529C69.9597 71.2807 71.2704 71.9926 72.6502 72.5132C73.108 72.6888 73.5721 72.8424 74.0362 72.9929C74.3153 72.3125 74.585 71.61 74.8484 70.8856C75.0553 70.3431 75.325 69.5905 75.6198 68.6874C74.7072 68.5933 73.7947 68.4741 72.8885 68.3236C71.3865 68.0727 69.875 67.7968 68.3824 67.4863" fill="#C4BDAB"/>
<path d="M67.2623 71.8138C67.0522 71.6727 66.8296 71.5285 66.6038 71.3779C66.4376 72.234 66.215 73.0964 65.9453 73.9525C66.422 74.6769 67.3219 75.3605 67.7986 75.8435C68.7299 76.7842 69.6518 77.7062 70.7556 78.4494C70.8559 78.5184 70.9594 78.5811 71.0629 78.6469C71.897 77.4271 72.6088 76.1508 73.2485 74.7929C72.5994 74.5734 71.9566 74.3351 71.3232 74.0654C69.8838 73.4539 68.5605 72.6856 67.2655 71.8138" fill="#C4BDAB"/>
<path d="M61.7578 81.4847L62.2627 86.1541C63.3633 85.6272 64.3981 85.0345 65.2636 84.4826C64.6992 82.8206 64.0626 81.1931 63.1909 79.6753C62.7487 80.315 62.2721 80.9234 61.7578 81.4847Z" fill="#C4BDAB"/>
<path d="M65.4915 76.2948C65.3943 76.1913 65.2939 76.0846 65.1967 75.978C64.9365 76.5989 64.6448 77.2042 64.3281 77.7937C65.457 79.5153 66.2253 81.3969 66.8838 83.3286C66.9716 83.2596 67.05 83.1906 67.1221 83.1248C68.1695 82.1809 69.082 81.215 69.8879 80.2178C69.4426 79.9167 69.0067 79.6031 68.5865 79.2645C67.4733 78.3707 66.4699 77.3296 65.4884 76.2948" fill="#C4BDAB"/>
<path d="M77.973 51.0289C77.4901 49.2508 76.5337 47.9526 74.8937 47.5041C71.5258 46.532 69.5095 47.6923 68.3242 49.9062C70.745 50.6777 73.3509 51.0571 75.8564 51.0853C76.5431 51.0947 77.2549 51.0822 77.9761 51.032" fill="#C4BDAB"/>
<path d="M61.0838 78.7881C60.5633 79.3902 60.0083 79.9546 59.4219 80.4721V85.3703C60.6041 84.9533 61.7298 84.4641 62.6799 83.9937C62.5827 83.6989 62.4855 83.4041 62.3852 83.1125C61.9242 81.7672 61.642 80.1898 61.0838 78.7944" fill="#9E917D"/>
<path d="M53.5935 49.3605C51.5238 46.4472 46.4157 43.9072 40.9845 43.8413C35.5565 43.9072 30.4451 46.4472 28.3755 49.3605C24.6973 54.541 17.1682 75.2662 18.9368 90.0049H62.5116C63.4335 68.3139 57.2717 54.541 53.5935 49.3605Z" fill="#C4BDAB"/>
<path d="M44.426 54.4754C47.0726 53.8357 49.669 52.8196 52.0428 51.3583C52.6605 50.9757 53.3379 50.5461 54.0027 50.06C53.8647 49.8499 53.7267 49.6492 53.595 49.4642C51.5285 46.551 46.4172 44.0109 40.986 43.9419C35.5549 44.0109 30.4467 46.551 28.3771 49.4642C28.0509 49.9221 27.6966 50.5053 27.3203 51.1921C32.3815 54.3249 38.7346 55.8489 44.4229 54.4754" fill="#9E917D"/>
<path d="M41.0247 57.9126C29.2279 57.9126 27.4718 85.5869 27.2617 90.0085H54.7845C54.5775 85.5869 52.8183 57.9126 41.0215 57.9126" fill="#FFEBD9"/>
<path d="M57.3979 84.8529C57.1534 81.9209 56.7865 78.9951 56.3412 76.0881C55.7172 72.024 54.8956 67.9943 53.9235 64.0023C54.1681 63.0302 54.5507 62.1804 55.0336 61.296C55.3471 60.719 54.4691 60.2047 54.1556 60.7817C53.9016 61.2459 53.6726 61.7068 53.472 62.1772C53.1803 61.0389 52.8824 59.9006 52.5688 58.7685C52.3932 58.1382 51.4117 58.4047 51.5873 59.0382C53.127 64.6107 54.3907 70.2553 55.3032 75.9658C55.7736 78.9135 56.128 81.8801 56.3851 84.8529C56.5325 86.5777 56.567 88.2899 56.5732 90.0052H57.5892C57.5861 88.2899 57.5485 86.5777 57.4042 84.8529" fill="#9E917D"/>
<path d="M29.3969 58.7684C29.0833 59.9036 28.7854 61.0419 28.4938 62.1803C28.2931 61.7099 28.0611 61.2457 27.8102 60.7816C27.4966 60.2046 26.6155 60.7189 26.9322 61.2959C27.4151 62.1803 27.7977 63.0332 28.0423 64.0085C27.0764 68.0005 26.258 72.027 25.6214 76.088C25.1856 78.8664 24.85 81.6605 24.5992 84.4608C24.433 86.3173 24.3891 88.1581 24.3828 90.0051H25.3988C25.4051 88.2898 25.4396 86.5776 25.5838 84.8528C25.8284 81.8768 26.2047 78.9166 26.6657 75.9657C27.5594 70.2552 28.8388 64.6074 30.3816 59.0381C30.5572 58.4046 29.5757 58.1349 29.4001 58.7684" fill="#9E917D"/>
<path d="M24.4123 21.4387C25.9301 19.7672 27.8084 18.1616 30.0473 17.8136C29.9972 16.7536 29.693 15.6968 29.138 14.8627C28.3571 13.1505 26.6513 12.0184 24.5378 12.0592C21.7626 12.1093 19.2446 15.1512 19.2383 17.8386C19.232 20.4728 20.8595 22.1975 23.2333 22.8247C23.6158 22.3512 24.0078 21.8871 24.4092 21.4387" fill="#C4BDAB"/>
<path d="M24.668 20.0557C25.5993 19.0272 26.7533 18.0425 28.1299 17.8292C28.0985 17.177 27.9135 16.531 27.5717 16.0167C27.0919 14.9662 26.0446 14.27 24.7432 14.2951C23.0374 14.3264 21.4946 16.1954 21.4883 17.8449C21.4852 19.4631 22.4855 20.523 23.9436 20.9087C24.1788 20.6171 24.4171 20.3317 24.6648 20.0589" fill="#FFEBD9"/>
<path d="M56.5022 21.4387C54.9845 19.7672 53.1061 18.1616 50.8672 17.8136C50.9174 16.7536 51.2215 15.6968 51.7734 14.8627C52.5542 13.1505 54.2601 12.0184 56.3768 12.0592C59.1519 12.1093 61.6699 15.1512 61.6762 17.8386C61.6825 20.4728 60.055 22.1975 57.6812 22.8247C57.2987 22.3512 56.9067 21.8871 56.5053 21.4387" fill="#C4BDAB"/>
<path d="M56.2471 20.0557C55.3157 19.0272 54.1618 18.0425 52.7852 17.8292C52.8165 17.177 53.0015 16.531 53.3433 16.0167C53.8231 14.9662 54.8704 14.27 56.1687 14.2951C57.8745 14.3264 59.4205 16.1954 59.4236 17.8449C59.4267 19.4631 58.4264 20.523 56.9683 20.9087C56.7331 20.6171 56.4916 20.3317 56.2439 20.0589" fill="#FFEBD9"/>
<path d="M19.3492 35.199C20.6161 43.2206 27.2639 49.3732 35.0783 51.3865C45.0564 53.9579 59.0513 48.1847 61.6007 37.0366C63.0244 30.8087 61.6572 24.4365 57.8315 20.0839C46.2166 6.86923 19.089 13.3825 19.1329 32.4613C19.1329 33.3958 19.2081 34.3084 19.3492 35.199Z" fill="#C4BDAB"/>
<path d="M35.0367 31.4485C33.6601 29.9464 31.5904 29.6924 29.6463 29.7457C26.153 29.8429 22.111 30.8244 19.1445 32.9945C19.1696 33.744 19.2355 34.4778 19.3484 35.199C20.3393 41.4677 24.6133 46.5917 30.1605 49.4925C30.2609 49.3984 30.3612 49.3074 30.4616 49.2134C34.0332 45.8485 36.2188 41.4551 36.3161 36.4816C36.3506 34.8102 36.2345 32.7561 35.0367 31.4485Z" fill="#8A7A63"/>
<path d="M53.3822 30.8843C51.5917 30.4734 49.5033 30.5926 48.111 31.9316C46.6528 33.3334 46.0288 35.3811 45.9692 37.3662C45.8281 41.9916 47.4901 46.2659 50.7732 49.5272C55.9975 47.0342 60.2966 42.738 61.6011 37.0369C61.7328 36.4567 61.8394 35.8797 61.9241 35.2996C60.9018 34.4529 59.7698 33.7254 58.6158 33.0825C56.9758 32.17 55.2261 31.3076 53.3854 30.8843" fill="#8A7A63"/>
<path d="M33.6502 15.8849C33.8541 16.5309 34.0579 17.1737 34.2617 17.8197C34.4185 18.3183 35.2056 18.1051 35.0456 17.6034C34.8418 16.9574 34.638 16.3145 34.4342 15.6685C34.2774 15.1699 33.4903 15.3831 33.6502 15.8849Z" fill="#9E917D"/>
<path d="M36.6875 15.4711C36.6969 16.1579 36.8067 16.8352 36.907 17.5157C36.9823 18.0331 37.7662 17.8105 37.691 17.2993C37.6032 16.691 37.5091 16.0889 37.5028 15.4711C37.4966 14.9474 36.6813 14.9443 36.6875 15.4711Z" fill="#9E917D"/>
<path d="M40.0508 15.1669C40.0571 15.8882 40.1511 16.6 40.2672 17.3119C40.3518 17.8293 41.1389 17.6098 41.0542 17.0955C40.9476 16.4558 40.8724 15.816 40.8661 15.1669C40.8598 14.6432 40.0477 14.6401 40.0508 15.1669Z" fill="#9E917D"/>
<path d="M44.3416 15.3614C44.1503 15.9572 44.0186 16.5781 43.8995 17.1959C43.7991 17.7102 44.5831 17.9266 44.6834 17.4123C44.8026 16.7976 44.9311 16.1767 45.1256 15.5778C45.2886 15.076 44.5015 14.8628 44.3416 15.3614Z" fill="#9E917D"/>
<path d="M47.3977 16.0762C47.3005 16.763 47.2002 17.4498 46.9901 18.1146C46.8301 18.6163 47.6172 18.8296 47.774 18.331C47.9841 17.6693 48.0845 16.9794 48.1817 16.2926C48.2538 15.7783 47.4698 15.5588 47.3946 16.0762" fill="#9E917D"/>
<path d="M37.5909 20.6578C37.5909 20.6578 37.5878 20.6358 37.5847 20.6264C37.4561 20.2062 36.7223 20.2627 36.785 20.7362C36.8634 21.3414 37.0924 21.9435 37.315 22.5048C37.5063 22.9878 38.2934 22.7776 38.0989 22.2884C37.9578 21.9278 37.8293 21.5578 37.7195 21.1846C37.6819 21.0592 37.6505 20.9306 37.6192 20.802C37.6066 20.755 37.569 20.5229 37.5972 20.7362C37.3307 20.7707 37.0641 20.8083 36.7976 20.8459C36.7976 20.8553 36.8007 20.8679 36.8039 20.8773C36.9105 21.3916 37.6944 21.1721 37.5909 20.6609" fill="#9E917D"/>
<path d="M40.0508 20.6642C40.0508 21.144 40.0571 21.6269 40.1668 22.0973C40.286 22.6084 41.0699 22.3921 40.9539 21.8809C40.8629 21.4826 40.8661 21.0718 40.8661 20.6642C40.8661 20.1373 40.0508 20.1373 40.0508 20.6642Z" fill="#9E917D"/>
<path d="M43.7312 20.4542C43.496 21.097 43.5149 21.8214 43.5117 22.4988C43.5117 23.0256 44.327 23.0256 44.327 22.4988C44.327 21.8904 44.3051 21.2507 44.5152 20.6705C44.6939 20.1751 43.9068 19.965 43.7281 20.4542" fill="#9E917D"/>
<path d="M38.4172 25.2455C38.4235 25.8382 38.527 26.4309 38.7371 26.9828C38.9221 27.4689 39.7092 27.2588 39.521 26.7664C39.3329 26.2772 39.2388 25.7692 39.2294 25.2455C39.2231 24.7218 38.4078 24.7187 38.4141 25.2455" fill="#9E917D"/>
<path d="M41.985 25.0761C41.9788 25.5747 41.8878 26.0764 41.7969 26.5625C41.7028 27.0768 42.4868 27.2963 42.5808 26.7789C42.6843 26.2207 42.7909 25.6437 42.8003 25.0729C42.8066 24.5493 41.9944 24.5493 41.985 25.0729" fill="#9E917D"/>
<path d="M40.0479 28.9868C40.0071 29.5575 39.9037 30.2349 40.0605 30.7931C40.2016 31.298 40.9886 31.0847 40.8475 30.5767C40.7252 30.144 40.8256 29.476 40.8632 28.9868C40.9008 28.4631 40.0855 28.4663 40.0479 28.9868Z" fill="#9E917D"/>
<path d="M40.5299 36.6257C41.3201 36.1396 41.8249 34.7943 41.7716 34.2895C41.7497 34.0793 41.527 33.9821 41.3891 33.9696C40.7149 33.8943 39.9874 33.8692 39.3665 33.979C39.2536 34.0009 39.1438 34.1232 39.1407 34.3114C39.1344 34.7692 39.4668 36.0675 40.5299 36.6226" fill="#332B21"/>
<path d="M30.5799 32.3674C30.1566 32.1573 29.705 32.2232 29.3852 32.4929C29.1563 32.6309 28.9681 32.8692 28.8615 33.1295C28.5918 33.7755 28.9713 34.3995 29.5953 34.6033C30.2162 34.8072 30.8151 34.641 31.1004 34.0358C31.3544 33.4932 31.1381 32.6403 30.583 32.3643" fill="#332B21"/>
<path d="M38.8119 40.6429C40.0537 42.098 42.2519 41.7844 43.0264 40.0377C43.1863 39.6802 42.6595 39.3697 42.4996 39.7304C41.8756 41.1321 40.2481 41.3861 39.2447 40.2102C38.9875 39.9091 38.5579 40.345 38.8119 40.6429Z" fill="#332B21"/>
<path d="M24.5234 37.0867C24.5234 36.0518 25.9565 35.2114 27.7219 35.2114C29.4874 35.2114 30.9204 36.0518 30.9204 37.0867C30.9204 38.1215 29.4874 38.962 27.7219 38.962C25.9565 38.962 24.5234 38.1215 24.5234 37.0867Z" fill="#FF8F66"/>
<path d="M32.9983 26.7822C31.0604 26.0954 29.1852 26.1205 27.7145 27.701C27.357 28.0836 27.9309 28.6637 28.2884 28.278C29.5709 26.9013 31.1231 26.9829 32.7819 27.5693C33.2774 27.7449 33.4906 26.9578 32.9983 26.7822Z" fill="#FFEBD9"/>
<path d="M50.334 32.3674C50.7573 32.1573 51.2088 32.2232 51.5287 32.4929C51.7576 32.6309 51.9458 32.8692 52.0524 33.1295C52.322 33.7755 51.9458 34.3995 51.3217 34.6033C50.6977 34.8072 50.1019 34.641 49.8166 34.0358C49.5626 33.4932 49.7789 32.6403 50.334 32.3643" fill="#332B21"/>
<path d="M56.3892 37.0867C56.3892 36.0518 54.9561 35.2114 53.1907 35.2114C51.4252 35.2114 49.9922 36.0518 49.9922 37.0867C49.9922 38.1215 51.4252 38.962 53.1907 38.962C54.9561 38.962 56.3892 38.1215 56.3892 37.0867Z" fill="#FF8F66"/>
<path d="M47.9121 26.7822C49.85 26.0954 51.7252 26.1205 53.1958 27.701C53.5533 28.0836 52.9795 28.6637 52.6189 28.278C51.3395 26.9013 49.7841 26.9829 48.1284 27.5693C47.633 27.7449 47.4197 26.9578 47.9121 26.7822Z" fill="#FFEBD9"/>
</g>
</svg>
