<svg width="167" height="167" viewBox="0 0 167 167" fill="none" xmlns="http://www.w3.org/2000/svg">
<g filter="url(#filter0_d_5374_207836)">
<circle cx="83.4961" cy="83.1152" r="75" fill="#029871"/>
<circle cx="83.4961" cy="83.1152" r="74.5" stroke="#029871"/>
</g>
<mask id="mask0_5374_207836" style="mask-type:luminance" maskUnits="userSpaceOnUse" x="12" y="11" width="143" height="144">
<path d="M12.7461 83.118C12.7461 44.042 44.4217 12.3652 83.4961 12.3652C122.571 12.3652 154.246 44.0476 154.246 83.118C154.246 122.188 122.571 153.865 83.4961 153.865C44.4216 153.865 12.7461 122.194 12.7461 83.118Z" fill="white" stroke="white"/>
</mask>
<g mask="url(#mask0_5374_207836)">
<path d="M110.248 104.164C105.98 98.7541 95.4259 94.0444 84.2135 93.915C73.0012 94.0385 62.4473 98.7541 58.1787 104.164C50.5823 113.783 35.0367 152.255 38.682 179.613H128.669C130.574 139.348 117.845 113.783 110.248 104.164Z" fill="#CCADE0"/>
<path d="M91.3109 113.465C96.7789 112.284 102.141 110.39 107.045 107.68C108.326 106.968 109.72 106.169 111.09 105.269C110.802 104.881 110.519 104.51 110.249 104.164C105.98 98.7541 95.4266 94.0444 84.2083 93.915C72.996 94.0385 62.4421 98.7541 58.1735 104.164C57.5032 105.016 56.7683 106.098 55.9922 107.368C66.4461 113.183 79.5635 116.011 91.3167 113.465" fill="#947DAB"/>
<path d="M84.207 118.081C62.3114 118.081 59.0482 171.399 58.6602 179.607H109.754C109.366 171.399 106.103 118.081 84.207 118.081Z" fill="#E3CCF7"/>
<path d="M115.734 170.047C115.281 164.602 114.599 159.175 113.77 153.772C112.612 146.234 111.083 138.749 109.278 131.34C109.736 129.535 110.442 127.954 111.336 126.319C111.918 125.249 110.283 124.296 109.701 125.366C109.231 126.231 108.807 127.083 108.431 127.959C107.89 125.843 107.338 123.732 106.755 121.633C106.432 120.457 104.609 120.957 104.933 122.132C107.796 132.475 110.136 142.953 111.83 153.554C112.706 159.028 113.364 164.532 113.834 170.053C114.111 173.252 114.176 176.433 114.181 179.619H116.069C116.057 176.433 115.992 173.257 115.728 170.053" fill="#947DAB"/>
<path d="M61.4832 121.621C60.9011 123.726 60.3484 125.837 59.8075 127.954C59.4371 127.077 59.0079 126.219 58.5375 125.355C57.9554 124.285 56.3209 125.237 56.903 126.307C57.7967 127.948 58.5081 129.535 58.9667 131.34C57.1734 138.749 55.6506 146.228 54.4747 153.76C53.6692 158.917 53.0401 164.103 52.5756 169.306C52.2699 172.752 52.1875 176.174 52.1758 179.602H54.0631C54.0749 176.415 54.1396 173.24 54.4041 170.035C54.8628 164.514 55.5565 159.011 56.415 153.537C58.073 142.935 60.4542 132.452 63.3117 122.115C63.6351 120.939 61.8124 120.439 61.489 121.615" fill="#947DAB"/>
<path d="M111.635 41.0437C111.758 40.6909 111.917 40.3617 112.117 40.0618C112.834 38.486 114.404 37.4453 116.35 37.4806C118.908 37.5276 121.224 40.3264 121.23 42.8018C121.23 44.8127 120.201 46.2474 118.602 47.0059C118.655 47.0588 118.714 47.1117 118.767 47.1646C119.143 47.5409 119.513 47.929 119.872 48.3288C122.959 47.1881 125.005 44.6892 124.999 41.0496C124.987 36.9573 121.16 32.3299 116.938 32.2534C113.716 32.1946 111.123 33.9174 109.936 36.5222C109.401 37.3336 109.018 38.2861 108.789 39.2857C109.812 39.7678 110.747 40.3793 111.641 41.0555" fill="#CCADE0"/>
<path d="M114.051 43.0133C115.598 44.3068 117.162 45.5886 118.596 47.0057C120.195 46.2472 121.23 44.8125 121.224 42.8016C121.219 40.3262 118.902 37.5274 116.344 37.4804C114.398 37.4451 112.828 38.4858 112.111 40.0616C111.911 40.3615 111.752 40.6966 111.629 41.0435C112.458 41.6668 113.252 42.343 114.051 43.0133Z" fill="#947DAB"/>
<path d="M57.542 41.0437C57.4127 40.6909 57.2598 40.3617 57.0599 40.0618C56.3426 38.486 54.7727 37.4453 52.8266 37.4806C50.269 37.5276 47.9583 40.3264 47.9524 42.8018C47.9465 44.8127 48.9813 46.2474 50.5806 47.0059C50.5277 47.0588 50.4689 47.1117 50.416 47.1646C50.0397 47.5409 49.6693 47.929 49.3106 48.3288C46.2238 47.1881 44.1777 44.6892 44.1836 41.0496C44.1954 36.9573 48.023 32.3299 52.2445 32.2534C55.4665 32.1946 58.0594 33.9174 59.2471 36.5222C59.7821 37.3336 60.1643 38.2861 60.3936 39.2857C59.3706 39.7678 58.4357 40.3793 57.542 41.0555" fill="#CCADE0"/>
<path d="M55.1223 43.0133C53.576 44.3068 52.012 45.5886 50.5774 47.0057C48.9782 46.2472 47.9434 44.8125 47.9492 42.8016C47.9551 40.3262 50.2717 37.5274 52.8234 37.4804C54.7696 37.4451 56.3394 38.4858 57.0626 40.0616C57.2625 40.3615 57.4154 40.6966 57.5447 41.0435C56.7157 41.6668 55.922 42.343 55.1282 43.0133" fill="#947DAB"/>
<path d="M126.55 76.7518C125.245 68.9905 124.387 56.5018 120.218 49.152C114.456 38.9975 108.394 37.5393 101.492 35.1639C96.5292 33.4588 90.4909 32.5415 84.2056 32.5415C77.9203 32.5415 71.8879 33.4529 66.9196 35.1639C60.017 37.5393 53.9551 38.9975 48.1932 49.152C44.0245 56.5018 43.1661 68.9905 41.8608 76.7518C40.7084 83.5842 40.8202 95.7848 52.7381 102.476C60.3521 106.751 71.6645 109.955 84.1997 109.661C96.735 109.955 108.047 106.751 115.667 102.476C127.585 95.7848 127.697 83.5842 126.545 76.7518" fill="#CCADE0"/>
<path d="M105.525 74.1882C100.381 73.0593 92.5254 72.2655 84.2117 72.3067C75.898 72.2655 68.0428 73.0593 62.8982 74.1882C51.1978 76.7518 41.9963 81.6674 46.1179 95.0381C49.3457 105.498 66.326 110.914 84.2117 111.39C102.097 110.914 119.078 105.498 122.306 95.0381C126.427 81.6674 117.231 76.7518 105.525 74.1882Z" fill="#E3CCF7"/>
<path d="M73.4316 78.0689C72.5144 77.6162 71.5325 77.7573 70.8387 78.3453C70.3389 78.6451 69.9332 79.1626 69.698 79.727C69.116 81.1323 69.9332 82.4847 71.2855 82.9256C72.6378 83.3666 73.9372 83.008 74.5546 81.6968C75.1073 80.5208 74.6369 78.6687 73.4316 78.0689Z" fill="#947DAB"/>
<path d="M98.4238 78.0689C97.5065 77.6162 96.5247 77.7573 95.8309 78.3453C95.3311 78.6451 94.9254 79.1626 94.6902 79.727C94.1082 81.1323 94.9254 82.4847 96.2777 82.9256C97.63 83.3666 98.9294 83.008 99.5468 81.6968C100.099 80.5208 99.6232 78.6687 98.4238 78.0689Z" fill="#947DAB"/>
<path d="M66.2508 65.4568C65.4629 65.0688 64.628 65.1922 64.0342 65.692C63.6108 65.9507 63.2639 66.3917 63.0582 66.8739C62.5584 68.0733 63.2581 69.2317 64.4163 69.608C65.5746 69.9902 66.6859 69.6785 67.2091 68.5555C67.6795 67.55 67.2797 65.9684 66.2508 65.4568Z" fill="#332B21"/>
<path d="M103.528 65.4568C104.31 65.0688 105.151 65.1922 105.744 65.692C106.174 65.9507 106.52 66.3917 106.72 66.8739C107.22 68.0733 106.52 69.2317 105.362 69.608C104.21 69.9902 103.093 69.6785 102.569 68.5555C102.093 67.55 102.499 65.9684 103.528 65.4568Z" fill="#332B21"/>
<path d="M81.5442 97.0257C83.849 99.7304 87.9236 99.1483 89.3641 95.9026C89.658 95.2382 88.682 94.662 88.3822 95.3323C87.2239 97.937 84.2018 98.4074 82.338 96.226C81.8617 95.6674 81.068 96.473 81.5383 97.0257" fill="#332B21"/>
<path d="M120.978 70.7074C120.978 68.7847 118.321 67.2266 115.04 67.2266C111.759 67.2266 109.102 68.7847 109.102 70.7074C109.102 72.6301 111.759 74.1883 115.04 74.1883C118.321 74.1883 120.978 72.6301 120.978 70.7074Z" fill="#FF8F66"/>
<path d="M48.1992 70.7074C48.1992 68.7847 50.8568 67.2266 54.1376 67.2266C57.4184 67.2266 60.076 68.7847 60.076 70.7074C60.076 72.6301 57.4184 74.1883 54.1376 74.1883C50.8568 74.1883 48.1992 72.6301 48.1992 70.7074Z" fill="#FF8F66"/>
<path d="M70.751 56.4724C67.1527 55.2023 63.672 55.2494 60.9438 58.1775C60.2794 58.889 61.3495 59.965 62.0139 59.2476C64.3951 56.6958 67.2761 56.8428 70.3512 57.9306C71.2743 58.254 71.6682 56.7958 70.751 56.4724Z" fill="#FFEBD9"/>
<path d="M98.8349 57.9306C101.91 56.8428 104.791 56.6958 107.172 59.2476C107.837 59.965 108.907 58.889 108.242 58.1775C105.508 55.2494 102.028 55.2023 98.4351 56.4724C97.5238 56.7958 97.9177 58.254 98.8349 57.9306Z" fill="#FFEBD9"/>
<path d="M71.9374 37.0339C72.3137 38.2333 72.69 39.4269 73.0721 40.6264C73.3661 41.5554 74.8242 41.1556 74.5303 40.2266C74.154 39.0271 73.7718 37.8335 73.3955 36.634C73.1015 35.7109 71.6434 36.1048 71.9374 37.0339Z" fill="#947DAB"/>
<path d="M77.5743 36.2691C77.586 37.5451 77.7977 38.8033 77.98 40.0616C78.1211 41.0259 79.5734 40.6143 79.4381 39.6618C79.2735 38.5329 79.103 37.4098 79.0853 36.2691C79.0736 35.2931 77.5625 35.2931 77.5743 36.2691Z" fill="#947DAB"/>
<path d="M83.8126 35.6988C83.8243 37.0394 84.0007 38.3624 84.2183 39.6795C84.377 40.6379 85.8351 40.2322 85.6764 39.2796C85.4824 38.0919 85.3354 36.9042 85.3236 35.6988C85.3119 34.7228 83.8008 34.7228 83.8126 35.6988Z" fill="#947DAB"/>
<path d="M91.7813 36.0696C91.4226 37.1809 91.1874 38.3333 90.9581 39.474C90.77 40.4265 92.2281 40.8322 92.4163 39.8738C92.6397 38.7331 92.8749 37.5807 93.2335 36.4694C93.5334 35.5404 92.0752 35.1464 91.7754 36.0696" fill="#947DAB"/>
<path d="M97.4536 37.3925C97.2714 38.6684 97.0891 39.9443 96.6952 41.1732C96.4012 42.1022 97.8593 42.502 98.1533 41.573C98.5414 40.3441 98.7295 39.0682 98.9118 37.7923C99.047 36.8398 97.5948 36.4282 97.4536 37.3925Z" fill="#947DAB"/>
<path d="M79.2506 45.9004C79.2506 45.9004 79.2447 45.8592 79.2389 45.8416C78.9978 45.0595 77.6396 45.1654 77.7572 46.0415C77.9042 47.1645 78.3275 48.2817 78.745 49.3283C79.0977 50.222 80.5618 49.834 80.2031 48.9285C79.9385 48.2582 79.7033 47.5761 79.5034 46.8764C79.4329 46.6412 79.3741 46.406 79.3153 46.1649C79.2918 46.0768 79.2212 45.6475 79.2741 46.0415C78.7802 46.1062 78.2864 46.1767 77.7866 46.2414C77.7925 46.259 77.7984 46.2825 77.7984 46.3002C77.9924 47.2527 79.4505 46.8529 79.2565 45.9004" fill="#947DAB"/>
<path d="M83.8125 45.9122C83.8125 46.8059 83.8301 47.6997 84.03 48.5699C84.2476 49.5224 85.7057 49.1167 85.4882 48.1701C85.3177 47.4292 85.3235 46.6707 85.3235 45.9122C85.3235 44.9362 83.8125 44.9362 83.8125 45.9122Z" fill="#947DAB"/>
<path d="M90.6444 45.5185C90.2093 46.7121 90.2387 48.0527 90.2387 49.311C90.2387 50.287 91.7498 50.287 91.7498 49.311C91.7498 48.182 91.7086 46.9943 92.1025 45.9242C92.4377 45.0069 90.9736 44.613 90.6444 45.5185Z" fill="#947DAB"/>
<path d="M80.7892 54.4146C80.801 55.5142 80.9891 56.6137 81.3831 57.6427C81.73 58.5481 83.194 58.1542 82.8412 57.2428C82.4943 56.3315 82.312 55.3907 82.3003 54.4205C82.2885 53.4445 80.7716 53.4445 80.7892 54.4205" fill="#947DAB"/>
<path d="M87.4066 54.1029C87.3949 55.026 87.2243 55.955 87.0538 56.8664C86.8774 57.8189 88.3356 58.2246 88.512 57.2662C88.706 56.2314 88.9 55.1612 88.9177 54.1029C88.9294 53.1268 87.4184 53.1327 87.4066 54.1029Z" fill="#947DAB"/>
<path d="M83.8136 61.3587C83.7372 62.4171 83.549 63.6754 83.843 64.7102C84.1076 65.6451 85.5657 65.2512 85.3011 64.3104C85.0718 63.5049 85.26 62.2701 85.3246 61.3587C85.3952 60.3886 83.8783 60.3944 83.8136 61.3587Z" fill="#947DAB"/>
</g>
<defs>
<filter id="filter0_d_5374_207836" x="0.496094" y="0.115234" width="166" height="166" filterUnits="userSpaceOnUse" color-interpolation-filters="sRGB">
<feFlood flood-opacity="0" result="BackgroundImageFix"/>
<feColorMatrix in="SourceAlpha" type="matrix" values="0 0 0 0 0 0 0 0 0 0 0 0 0 0 0 0 0 0 127 0" result="hardAlpha"/>
<feOffset/>
<feGaussianBlur stdDeviation="4"/>
<feColorMatrix type="matrix" values="0 0 0 0 0.141667 0 0 0 0 0.141667 0 0 0 0 0.141667 0 0 0 0.05 0"/>
<feBlend mode="normal" in2="BackgroundImageFix" result="effect1_dropShadow_5374_207836"/>
<feBlend mode="normal" in="SourceGraphic" in2="effect1_dropShadow_5374_207836" result="shape"/>
</filter>
</defs>
</svg>
