<svg width="17" height="16" viewBox="0 0 17 16" fill="none" xmlns="http://www.w3.org/2000/svg">
<g clip-path="url(#clip0_7260_176521)">
<path d="M8.24663 5.33331C7.7146 5.33331 7.19452 5.48971 6.75215 5.78273C6.30979 6.07574 5.965 6.49222 5.76141 6.97949C5.55781 7.46676 5.50454 8.00294 5.60833 8.52022C5.71212 9.0375 5.96832 9.51266 6.34452 9.8856C6.72072 10.2585 7.20003 10.5125 7.72184 10.6154C8.24365 10.7183 8.78452 10.6655 9.27605 10.4637C9.76758 10.2618 10.1877 9.92003 10.4833 9.4815C10.7789 9.04297 10.9366 8.5274 10.9366 7.99998C10.9366 7.29274 10.6532 6.61446 10.1487 6.11436C9.64427 5.61426 8.96006 5.33331 8.24663 5.33331ZM8.24663 9.33331C7.98062 9.33331 7.72058 9.25511 7.49939 9.10861C7.27821 8.9621 7.10582 8.75386 7.00402 8.51022C6.90222 8.26659 6.87558 7.9985 6.92748 7.73986C6.97938 7.48122 7.10748 7.24364 7.29558 7.05717C7.48368 6.8707 7.72333 6.74371 7.98424 6.69227C8.24514 6.64082 8.51557 6.66722 8.76134 6.76814C9.00711 6.86906 9.21717 7.03995 9.36496 7.25922C9.51275 7.47848 9.59163 7.73627 9.59163 7.99998C9.59163 8.3536 9.44992 8.69274 9.19769 8.94279C8.94545 9.19284 8.60335 9.33331 8.24663 9.33331Z" fill="white"/>
<path d="M14.4953 9.26667L14.1967 9.096C14.3311 8.37096 14.3311 7.62771 14.1967 6.90267L14.4953 6.732C14.7249 6.60068 14.9262 6.42581 15.0876 6.21737C15.2491 6.00894 15.3675 5.77103 15.4362 5.51721C15.5049 5.2634 15.5225 4.99866 15.488 4.73811C15.4535 4.47755 15.3675 4.22629 15.2351 3.99867C15.1026 3.77104 14.9262 3.57151 14.7159 3.41147C14.5057 3.25143 14.2657 3.134 14.0096 3.06591C13.7536 2.99781 13.4866 2.98037 13.2237 3.01459C12.9609 3.04881 12.7074 3.13401 12.4778 3.26533L12.1786 3.43667C11.6133 2.95795 10.9638 2.58683 10.2626 2.342V2C10.2626 1.46957 10.05 0.960859 9.6717 0.585786C9.29334 0.210714 8.78019 0 8.24511 0C7.71004 0 7.19688 0.210714 6.81853 0.585786C6.44018 0.960859 6.22762 1.46957 6.22762 2V2.342C5.52647 2.58771 4.87714 2.95973 4.31235 3.43933L4.01174 3.26667C3.54801 3.00145 2.997 2.92971 2.47991 3.06724C1.96283 3.20477 1.52204 3.54029 1.2545 4C0.986964 4.45971 0.914601 5.00595 1.05333 5.51855C1.19206 6.03114 1.53052 6.46812 1.99425 6.73333L2.29284 6.904C2.15841 7.62904 2.15841 8.37229 2.29284 9.09733L1.99425 9.268C1.53052 9.53322 1.19206 9.97019 1.05333 10.4828C0.914601 10.9954 0.986964 11.5416 1.2545 12.0013C1.52204 12.461 1.96283 12.7966 2.47991 12.9341C2.997 13.0716 3.54801 12.9999 4.01174 12.7347L4.311 12.5633C4.87641 13.0421 5.52619 13.4132 6.22762 13.658V14C6.22762 14.5304 6.44018 15.0391 6.81853 15.4142C7.19688 15.7893 7.71004 16 8.24511 16C8.78019 16 9.29334 15.7893 9.6717 15.4142C10.05 15.0391 10.2626 14.5304 10.2626 14V13.658C10.9638 13.4123 11.6131 13.0403 12.1779 12.5607L12.4785 12.7327C12.9422 12.9979 13.4932 13.0696 14.0103 12.9321C14.5274 12.7946 14.9682 12.459 15.2357 11.9993C15.5033 11.5396 15.5756 10.9934 15.4369 10.4808C15.2982 9.96819 14.9597 9.53122 14.496 9.266L14.4953 9.26667ZM12.7818 6.74933C13.0095 7.56738 13.0095 8.43129 12.7818 9.24933C12.742 9.39171 12.7511 9.54316 12.8076 9.67987C12.864 9.81659 12.9647 9.93084 13.0938 10.0047L13.8228 10.422C13.9774 10.5104 14.0901 10.6561 14.1364 10.8269C14.1826 10.9977 14.1585 11.1798 14.0693 11.333C13.9801 11.4862 13.8332 11.598 13.6608 11.6438C13.4885 11.6897 13.3049 11.6657 13.1503 11.5773L12.42 11.1587C12.2908 11.0845 12.1404 11.055 11.9924 11.075C11.8445 11.0949 11.7075 11.163 11.6029 11.2687C11.0043 11.8744 10.2502 12.3067 9.42198 12.5187C9.27742 12.5555 9.14933 12.639 9.05789 12.7559C8.96645 12.8729 8.91686 13.0167 8.91694 13.1647V14C8.91694 14.1768 8.84609 14.3464 8.71997 14.4714C8.59385 14.5964 8.4228 14.6667 8.24444 14.6667C8.06608 14.6667 7.89503 14.5964 7.76891 14.4714C7.6428 14.3464 7.57194 14.1768 7.57194 14V13.1653C7.57202 13.0174 7.52243 12.8736 7.43099 12.7566C7.33955 12.6397 7.21146 12.5562 7.0669 12.5193C6.23861 12.3065 5.48473 11.8733 4.88666 11.2667C4.7821 11.161 4.64506 11.0929 4.49712 11.073C4.34918 11.053 4.19877 11.0825 4.06957 11.1567L3.34059 11.5747C3.26408 11.6191 3.17945 11.6482 3.09158 11.6601C3.00371 11.672 2.91433 11.6665 2.82858 11.6441C2.74284 11.6216 2.66243 11.5825 2.59198 11.5291C2.52153 11.4757 2.46243 11.409 2.41808 11.3329C2.37373 11.2567 2.34502 11.1727 2.33359 11.0855C2.32216 10.9983 2.32823 10.9097 2.35147 10.8249C2.37471 10.74 2.41465 10.6606 2.46899 10.5911C2.52332 10.5216 2.59099 10.4635 2.66809 10.42L3.39708 10.0027C3.52616 9.92884 3.62685 9.81459 3.68333 9.67787C3.73981 9.54116 3.74888 9.38971 3.70912 9.24733C3.48138 8.42929 3.48138 7.56538 3.70912 6.74733C3.74817 6.60525 3.73866 6.45436 3.68209 6.31819C3.62552 6.18203 3.52506 6.06827 3.3964 5.99467L2.66742 5.57733C2.51287 5.48893 2.40008 5.34328 2.35386 5.17244C2.30764 5.00159 2.33177 4.81954 2.42095 4.66633C2.51013 4.51313 2.65705 4.40131 2.82939 4.35549C3.00173 4.30967 3.18537 4.33359 3.33991 4.422L4.07025 4.84067C4.19908 4.91501 4.34919 4.94481 4.49697 4.92538C4.64474 4.90595 4.78182 4.8384 4.88666 4.73333C5.48524 4.12756 6.23934 3.69535 7.06757 3.48333C7.21258 3.44638 7.34101 3.3625 7.43249 3.245C7.52397 3.1275 7.57329 2.98309 7.57262 2.83467V2C7.57262 1.82319 7.64347 1.65362 7.76959 1.5286C7.8957 1.40357 8.06676 1.33333 8.24511 1.33333C8.42347 1.33333 8.59452 1.40357 8.72064 1.5286C8.84676 1.65362 8.91761 1.82319 8.91761 2V2.83467C8.91754 2.98264 8.96712 3.12643 9.05856 3.24339C9.15 3.36035 9.27809 3.44382 9.42266 3.48067C10.2512 3.69343 11.0053 4.12659 11.6036 4.73333C11.7081 4.83898 11.8452 4.90713 11.9931 4.92704C12.141 4.94696 12.2915 4.91751 12.4207 4.84333L13.1496 4.42533C13.2261 4.38087 13.3108 4.35185 13.3986 4.33993C13.4865 4.32802 13.5759 4.33346 13.6616 4.35593C13.7474 4.37841 13.8278 4.41747 13.8983 4.47088C13.9687 4.52428 14.0278 4.59097 14.0721 4.66712C14.1165 4.74326 14.1452 4.82734 14.1566 4.91453C14.1681 5.00171 14.162 5.09028 14.1388 5.17513C14.1155 5.25998 14.0756 5.33943 14.0212 5.40892C13.9669 5.4784 13.8992 5.53655 13.8221 5.58L13.0931 5.99733C12.9647 6.07114 12.8646 6.18498 12.8082 6.32113C12.7519 6.45727 12.7426 6.60807 12.7818 6.75V6.74933Z" fill="white"/>
</g>
<defs>
<clipPath id="clip0_7260_176521">
<rect width="16.1399" height="16" fill="white" transform="translate(0.175781)"/>
</clipPath>
</defs>
</svg>
