<svg width="81" height="81" viewBox="0 0 81 81" fill="none" xmlns="http://www.w3.org/2000/svg">
<path d="M40.668 0.5C18.5764 0.5 0.667969 18.4091 0.667969 40.5016C0.667969 62.594 18.5764 80.5 40.668 80.5C62.7595 80.5 80.668 62.5909 80.668 40.5016C80.668 18.4123 62.7595 0.5 40.668 0.5Z" fill="#3F3D91"/>
<mask id="mask0_5374_204732" style="mask-type:luminance" maskUnits="userSpaceOnUse" x="0" y="0" width="81" height="81">
<path d="M40.668 0.5C18.5764 0.5 0.667969 18.4091 0.667969 40.5016C0.667969 62.594 18.5764 80.5 40.668 80.5C62.7596 80.5 80.668 62.5909 80.668 40.5016C80.668 18.4123 62.7596 0.5 40.668 0.5Z" fill="white"/>
</mask>
<g mask="url(#mask0_5374_204732)">
<path d="M65.1518 58.7212C65.9984 65.8334 64.2299 72.5882 59.6328 76.6648C59.6704 76.9471 59.6955 77.2293 59.7112 77.5147C62.5083 76.1192 64.4556 72.6728 65.4277 70.1014C66.2556 67.7087 67.2872 61.3679 65.1518 58.7212Z" fill="#BFD1DB"/>
<path d="M67.2955 56.1027C66.8502 56.4414 66.4081 56.7832 65.8656 57.1094C65.7276 55.8926 65.5645 54.8735 65.1192 53.7163C64.6928 54.6571 64.6614 55.6512 64.5297 56.6296C63.8806 56.2438 63.2754 55.5634 62.504 55.3627C62.9869 56.225 63.5702 57.0999 64.0531 57.9623C63.451 57.9843 62.7643 57.8902 62.25 58.0219C63.0402 58.8247 65.668 60.0728 65.668 60.0728C65.8812 59.1101 66.9568 57.1501 67.2955 56.0996" fill="#A6C2CF"/>
<path d="M53.8498 48.5577C51.614 45.7291 46.0919 43.2612 40.2249 43.1953C34.3578 43.2612 28.8357 45.7291 26.5999 48.5577C22.6237 53.5908 14.4895 73.7202 16.3992 88.0356H63.4861C64.4832 66.9655 57.8229 53.5908 53.8467 48.5577" fill="#BFD1DB"/>
<path d="M52.6033 74.1564C50.8034 53.4782 40.2233 36.2559 40.2233 36.2559C40.2233 36.2559 29.6432 53.4782 27.8401 74.1564C27.4481 78.6501 27.0562 83.7397 26.8555 88.0359H53.588C53.3873 83.7397 52.9922 78.6501 52.6033 74.1564Z" fill="#FFEBD9"/>
<path d="M54.6809 74.3978C55.1387 77.2608 55.4836 80.1427 55.7314 83.0309C55.8756 84.7055 55.9101 86.3675 55.9133 88.0358H56.901C56.8979 86.3706 56.8634 84.7055 56.7223 83.0309C56.4871 80.1804 56.1296 77.3424 55.6969 74.5169C54.8251 68.8409 53.5583 63.2277 52.028 57.6959C51.8587 57.0813 50.9054 57.3416 51.0748 57.9594C52.5737 63.3719 53.7997 68.8566 54.684 74.4009" fill="#91B0BF"/>
<path d="M53.5657 59.6493C53.0389 60.6183 52.6124 61.5653 52.3553 62.6409C52.2079 63.2618 53.1612 63.5252 53.3086 62.9043C53.5437 61.9071 53.9295 61.0448 54.4186 60.151C54.7228 59.5897 53.8699 59.0911 53.5657 59.6524" fill="#91B0BF"/>
<path d="M24.4487 88.0356C24.4549 86.3704 24.4895 84.7053 24.6274 83.0307C24.8689 80.1425 25.2295 77.2638 25.6779 74.3976C26.5465 68.8501 27.7914 63.3654 29.2872 57.956C29.4565 57.3414 28.5032 57.078 28.3339 57.6926C26.8037 63.2275 25.5525 68.8376 24.6651 74.5136C24.2449 77.2136 23.9156 79.9261 23.671 82.6481C23.5079 84.4513 23.4672 86.2387 23.4609 88.0356H24.4487Z" fill="#91B0BF"/>
<path d="M25.9366 60.1482C26.4258 61.045 26.8084 61.9074 27.0467 62.9015C27.1941 63.5224 28.1474 63.259 28 62.6381C27.746 61.5625 27.3164 60.6154 26.7896 59.6464C26.4854 59.0851 25.6293 59.5868 25.9366 60.145" fill="#91B0BF"/>
<path d="M75.9094 22.7681C76.0411 16.4148 74.3917 9.53777 71.6824 6.59629C67.8097 2.39104 62.7235 5.97852 57.7031 8.81337C43.7301 16.7064 54.8966 29.5542 61.8517 35.2616C63.0308 36.2306 64.4356 36.7762 65.9314 36.8107C67.8254 36.8546 69.6598 36.0612 71.2716 35.0828C74.3948 33.1825 75.7934 28.165 75.9063 22.765" fill="#A6C2CF"/>
<path d="M63.9884 29.3286C65.133 26.5659 65.4309 23.1415 64.3804 20.3004C63.3048 17.384 60.2537 15.2923 57.3029 16.5718C54.9103 17.6098 53.3236 20.0464 51.6836 22.1725C53.1543 26.5345 56.8043 30.7398 60.0969 33.7408C60.6331 33.5182 61.138 33.214 61.5801 32.822C62.6463 31.8781 63.4334 30.6739 63.9884 29.3318" fill="#91B0BF"/>
<path d="M5.42922 22.7681C5.29751 16.4148 6.94693 9.53777 9.65624 6.59629C13.5289 2.39104 18.6151 5.97852 23.6355 8.81337C37.6086 16.7064 26.4421 29.5542 19.4869 35.2616C18.3078 36.2306 16.903 36.7762 15.4072 36.8107C13.5132 36.8546 11.6788 36.0612 10.067 35.0828C6.94064 33.1825 5.5452 28.165 5.43232 22.765" fill="#A6C2CF"/>
<path d="M17.3507 29.3286C16.2093 26.5659 15.9083 23.1415 16.9588 20.3004C18.0343 17.384 21.0855 15.2923 24.0363 16.5718C26.4289 17.6098 28.0155 20.0464 29.6555 22.1725C28.1849 26.5345 24.5348 30.7398 21.2423 33.7408C20.706 33.5182 20.2043 33.214 19.759 32.822C18.696 31.8781 17.9058 30.6739 17.3507 29.3318" fill="#91B0BF"/>
<path d="M61.5552 27.7321C60.8308 23.5426 58.8552 19.4063 55.9986 15.5052C54.1108 12.9244 48.4821 9.76968 43.4962 9.52508C39.1124 9.31184 34.5436 9.71951 30.6678 11.6732C22.0005 16.0384 18.6013 25.4367 19.0183 34.6154C19.8713 53.3085 49.2034 56.7894 58.7361 43.8287C62.4457 38.7862 62.4583 32.9565 61.5552 27.7353" fill="#BFD1DB"/>
<path d="M31.0769 35.0515C30.6661 34.8477 30.2271 34.9104 29.9167 35.1738C29.694 35.3087 29.5122 35.5376 29.4055 35.7916C29.1453 36.4188 29.509 37.024 30.1174 37.2216C30.7226 37.4191 31.3027 37.2592 31.5786 36.6728C31.8263 36.146 31.6163 35.3181 31.0769 35.0515Z" fill="#332B21"/>
<path d="M50.5815 35.0515C50.9923 34.8477 51.4313 34.9104 51.7418 35.1738C51.9644 35.3087 52.1463 35.5376 52.2529 35.7916C52.5132 36.4188 52.1463 37.024 51.5411 37.2216C50.9359 37.4191 50.3557 37.2592 50.0798 36.6728C49.8321 36.146 50.0422 35.3181 50.5815 35.0515Z" fill="#332B21"/>
<path d="M44.6238 48.765C46.4645 49.0252 47.8599 47.382 47.2986 45.6134C47.1857 45.2527 46.6025 45.3656 46.7154 45.7294C47.1638 47.15 46.1415 48.3855 44.6583 48.1754C44.2789 48.1221 44.2444 48.7148 44.6207 48.7681" fill="#332B21"/>
<path d="M56.6057 39.6206C56.6057 38.6171 55.2134 37.8018 53.4982 37.8018C51.7829 37.8018 50.3906 38.6171 50.3906 39.6206C50.3906 40.6241 51.7829 41.4425 53.4982 41.4425C55.2134 41.4425 56.6057 40.6272 56.6057 39.6206Z" fill="#FF8F66"/>
<path d="M24.7344 39.6206C24.7344 38.6171 26.1267 37.8018 27.8388 37.8018C29.5509 37.8018 30.9464 38.6171 30.9464 39.6206C30.9464 40.6241 29.5572 41.4425 27.8388 41.4425C26.1204 41.4425 24.7344 40.6272 24.7344 39.6206Z" fill="#FF8F66"/>
<path d="M33.4269 30.351C31.5454 29.6862 29.7235 29.7113 28.2936 31.2447C27.9456 31.6179 28.5037 32.1792 28.8518 31.8029C30.0967 30.467 31.605 30.5423 33.2137 31.113C33.6966 31.2855 33.9004 30.5203 33.4238 30.351" fill="#FFEBD9"/>
<path d="M48.127 31.1127C49.7357 30.5451 51.244 30.4668 52.4889 31.8026C52.837 32.1758 53.3951 31.6145 53.0471 31.2413C51.6203 29.7079 49.7984 29.6828 47.9169 30.3476C47.4372 30.5169 47.6441 31.2821 48.127 31.1096" fill="#FFEBD9"/>
<path d="M35.6248 34.5434C33.7465 38.4507 36.9921 47.6389 33.6807 50.0253C31.6173 51.5117 27.384 51.0225 25.2266 49.7055C21.4762 47.4194 19.0993 41.4016 18.3154 38.4821C18.0551 37.5099 14.5305 38.943 14.543 40.0312C14.5555 41.1037 16.3774 45.5849 17.6725 48.0905C19.3627 51.3675 22.3135 53.8072 24.5367 55.0961C26.9544 56.501 30.2501 56.8208 32.9532 56.7456C36.0199 56.6578 39.9585 55.2497 41.9058 52.5403C45.0698 48.1375 47.1488 37.5037 44.4771 34.0918C41.8055 30.6799 36.8697 31.95 35.6248 34.5371" fill="#A6C2CF"/>
<path d="M35.1729 39.2066C36.3269 37.9146 38.3495 37.7014 39.9801 37.6951C41.965 37.6888 44.182 38.1874 45.7029 39.5359C45.7186 38.6516 45.6747 37.8143 45.5649 37.0522C43.95 36.1679 42.0748 35.7853 40.231 35.7195C38.569 35.6599 36.5997 35.9014 35.0757 36.7731C34.9942 37.5697 34.9879 38.4446 35.013 39.354C35.0695 39.3101 35.1228 39.2631 35.1761 39.2035" fill="#91B0BF"/>
<path d="M35.1328 41.8815C35.1736 42.5463 35.2112 43.208 35.2331 43.854C38.6135 43.6031 41.8277 44.0672 44.8286 45.607C44.9948 44.9484 45.1422 44.2774 45.2645 43.6094C42.0974 42.0916 38.67 41.6056 35.1328 41.8815Z" fill="#91B0BF"/>
<path d="M35.1254 47.0933C35.0219 47.8145 34.84 48.4542 34.5547 48.9873C37.286 49.671 39.6628 50.9222 41.4659 53.0985C41.6227 52.9198 41.7701 52.7379 41.9049 52.5466C42.1464 52.2079 42.3847 51.8285 42.6136 51.4239C40.613 49.2131 38.0573 47.8333 35.1222 47.0933" fill="#91B0BF"/>
<path d="M31.2461 50.8718C32.1806 52.7722 32.9896 54.6443 33.2624 56.736C33.8895 56.7015 34.5512 56.6105 35.2191 56.4694C34.9275 54.29 34.1279 52.3112 33.1746 50.3262C32.6164 50.6084 31.9548 50.7872 31.2461 50.8718Z" fill="#91B0BF"/>
<path d="M28.9178 50.8628C28.2468 50.7844 27.5883 50.6464 26.9799 50.4614C26.8733 52.252 25.873 53.9736 24.4023 55.0148C24.4494 55.043 24.4964 55.0743 24.5434 55.0994C25.1267 55.4381 25.7601 55.7109 26.4218 55.9336C27.8172 54.6134 28.7234 52.7663 28.9178 50.8628Z" fill="#91B0BF"/>
<path d="M22.644 47.3599C21.4241 48.401 20.0319 49.163 18.4922 49.4735C18.8967 50.085 19.342 50.6557 19.8092 51.1919C21.3489 50.7184 22.7726 49.8749 24.0081 48.7992C23.5251 48.3728 23.0704 47.8867 22.6408 47.363" fill="#91B0BF"/>
<path d="M19.3246 41.4614C18.9076 41.7374 18.4654 41.982 18.0201 42.2046C17.3021 42.5621 16.1763 43.0356 15.3359 42.7597C15.5805 43.412 15.8628 44.1207 16.1638 44.8263C17.509 44.7604 18.9546 44.1426 20.1588 43.3461C19.8483 42.7064 19.5692 42.0698 19.3278 41.4614" fill="#91B0BF"/>
<path d="M34.2118 12.5735C34.4093 13.2006 34.6069 13.8278 34.8044 14.4519C34.9581 14.9379 35.7201 14.731 35.5664 14.2418C35.3689 13.6146 35.1713 12.9905 34.9738 12.3633C34.8201 11.8773 34.0581 12.0843 34.2118 12.5735Z" fill="#FFEBD9"/>
<path d="M37.168 12.1719C37.1743 12.8399 37.284 13.4984 37.3812 14.157C37.4533 14.6618 38.2154 14.4455 38.1432 13.9469C38.0586 13.3573 37.9676 12.7678 37.9582 12.1719C37.952 11.6608 37.1617 11.6608 37.168 12.1719Z" fill="#FFEBD9"/>
<path d="M40.4297 11.877C40.436 12.5763 40.5269 13.2694 40.6429 13.9593C40.7244 14.461 41.4896 14.2478 41.4049 13.7492C41.3014 13.1282 41.2293 12.5073 41.223 11.877C41.2167 11.3659 40.4266 11.3659 40.4328 11.877" fill="#FFEBD9"/>
<path d="M44.5983 12.0686C44.4102 12.6488 44.2847 13.2509 44.1687 13.8498C44.0715 14.3484 44.8335 14.5617 44.9307 14.0599C45.0467 13.461 45.1722 12.8589 45.3603 12.2787C45.5171 11.7927 44.752 11.5857 44.5983 12.0686Z" fill="#FFEBD9"/>
<path d="M47.5678 12.7615C47.4706 13.4294 47.3765 14.0974 47.1727 14.7403C47.019 15.2263 47.781 15.4333 47.9347 14.9504C48.1385 14.3075 48.2357 13.6395 48.3298 12.9716C48.4019 12.473 47.6368 12.2598 47.5678 12.7615Z" fill="#FFEBD9"/>
<path d="M38.0414 17.2113C38.0414 17.2113 38.0382 17.1894 38.0351 17.18C37.9097 16.7723 37.1979 16.8256 37.2574 17.2866C37.3327 17.873 37.5584 18.4594 37.7717 19.0051C37.9567 19.4723 38.7218 19.2685 38.5337 18.795C38.3957 18.4437 38.2734 18.0862 38.1668 17.7225C38.1323 17.6002 38.101 17.4747 38.0696 17.3524C38.0571 17.3054 38.0194 17.0828 38.0476 17.2897C37.7905 17.3242 37.5302 17.3587 37.27 17.3964C37.2731 17.4058 37.2762 17.4183 37.2762 17.4277C37.3797 17.9295 38.1417 17.7162 38.0382 17.2176" fill="#FFEBD9"/>
<path d="M40.4297 17.2173C40.4297 17.6846 40.4391 18.1518 40.5426 18.6097C40.6586 19.1083 41.4206 18.8951 41.3077 18.3996C41.2167 18.0139 41.223 17.6125 41.223 17.2173C41.223 16.7062 40.4328 16.7062 40.4328 17.2173" fill="#FFEBD9"/>
<path d="M44.0064 17.0138C43.7775 17.6379 43.7932 18.3403 43.7932 18.9988C43.7932 19.51 44.5834 19.51 44.5834 18.9988C44.5834 18.4093 44.5615 17.7884 44.7684 17.2239C44.944 16.7441 44.1789 16.5372 44.0064 17.0138Z" fill="#FFEBD9"/>
<path d="M38.8477 21.6675C38.854 22.2414 38.9512 22.8184 39.1581 23.3547C39.3369 23.8282 40.1052 23.6212 39.9201 23.1446C39.7383 22.6679 39.6442 22.1756 39.6379 21.6675C39.6316 21.1564 38.8414 21.1564 38.8477 21.6675Z" fill="#FFEBD9"/>
<path d="M42.3102 21.5043C42.304 21.9872 42.2161 22.4733 42.1252 22.9499C42.0311 23.4485 42.7963 23.6618 42.8872 23.16C42.9875 22.6175 43.091 22.0593 43.1004 21.5043C43.1067 20.9931 42.3165 20.9962 42.3102 21.5043Z" fill="#FFEBD9"/>
<path d="M40.4319 25.3017C40.3912 25.8568 40.2939 26.5122 40.4445 27.0547C40.5824 27.5439 41.3444 27.3369 41.2065 26.8446C41.0873 26.4244 41.1876 25.7784 41.2221 25.3017C41.2598 24.7937 40.4664 24.7968 40.4319 25.3017Z" fill="#FFEBD9"/>
</g>
</svg>
