<svg width="62" height="62" viewBox="0 0 62 62" fill="none" xmlns="http://www.w3.org/2000/svg">
<g clip-path="url(#clip0_7405_6914)">
<path d="M57.8467 10.3025H49.9564C49.4508 10.3026 48.9565 10.4526 48.5362 10.7336C48.1158 11.0145 47.7882 11.4138 47.5947 11.8809C47.4012 12.3481 47.3506 12.8621 47.4492 13.358C47.5478 13.8539 47.7912 14.3094 48.1487 14.667L50.9254 17.4437L41.7567 26.6099C41.2695 27.0755 40.6216 27.3353 39.9477 27.3353C39.2738 27.3353 38.6259 27.0755 38.1388 26.6099L37.7041 26.1727C36.2432 24.7768 34.3004 23.9979 32.2798 23.9979C30.2592 23.9979 28.3165 24.7768 26.8555 26.1727L13.8157 39.2124C13.3353 39.6942 13.0659 40.3472 13.0669 41.0276C13.0679 41.708 13.3391 42.3601 13.8209 42.8406C14.3027 43.321 14.9556 43.5904 15.636 43.5894C16.3164 43.5885 16.9685 43.3172 17.449 42.8355L30.4888 29.7957C30.9756 29.3295 31.6237 29.0693 32.2977 29.0693C32.9718 29.0693 33.6198 29.3295 34.1067 29.7957L34.5413 30.2329C36.0028 31.6276 37.9454 32.4057 39.9656 32.4057C41.9858 32.4057 43.9284 31.6276 45.3899 30.2329L54.5587 21.0641L57.3354 23.8408C57.6941 24.1925 58.1486 24.4307 58.6419 24.5257C59.1353 24.6206 59.6457 24.5681 60.1093 24.3748C60.573 24.1814 60.9695 23.8557 61.2492 23.4383C61.5288 23.021 61.6794 22.5305 61.6819 22.0281V14.1377C61.6819 13.1206 61.2779 12.145 60.5586 11.4258C59.8394 10.7066 58.8639 10.3025 57.8467 10.3025Z" fill="white"/>
<path d="M59.1252 56.3251H13.1025C11.0681 56.3251 9.11711 55.517 7.67862 54.0785C6.24013 52.64 5.432 50.689 5.432 48.6547V2.69329C5.432 2.01518 5.16262 1.36485 4.68312 0.885349C4.20362 0.405853 3.55329 0.136475 2.87518 0.136475C2.19707 0.136475 1.54673 0.405853 1.06723 0.885349C0.587738 1.36485 0.318359 2.01518 0.318359 2.69329L0.318359 48.6547C0.322419 52.044 1.67061 55.2933 4.06722 57.6899C6.46382 60.0865 9.71315 61.4347 13.1025 61.4387H59.1252C59.8033 61.4387 60.4536 61.1694 60.9331 60.6899C61.4126 60.2104 61.682 59.56 61.682 58.8819C61.682 58.2038 61.4126 57.5535 60.9331 57.074C60.4536 56.5945 59.8033 56.3251 59.1252 56.3251Z" fill="white"/>
</g>
<defs>
<clipPath id="clip0_7405_6914">
<rect width="61.3636" height="61.3636" fill="white" transform="translate(0.318359 0.136475)"/>
</clipPath>
</defs>
</svg>
