<svg width="80" height="81" viewBox="0 0 80 81" fill="none" xmlns="http://www.w3.org/2000/svg">
<path d="M40 0.5C17.9084 0.5 0 18.4091 0 40.5016C0 62.594 17.9084 80.5 40 80.5C62.0916 80.5 80 62.5909 80 40.5016C80 18.4123 62.0916 0.5 40 0.5Z" fill="#C42797"/>
<mask id="mask0_5374_204657" style="mask-type:luminance" maskUnits="userSpaceOnUse" x="0" y="0" width="80" height="81">
<path d="M40 0.5C17.9084 0.5 0 18.4091 0 40.5016C0 62.594 17.9084 80.5 40 80.5C62.0916 80.5 80 62.5909 80 40.5016C80 18.4123 62.0916 0.5 40 0.5Z" fill="white"/>
</mask>
<g mask="url(#mask0_5374_204657)">
<path d="M52.4877 56.275C50.4933 53.3618 45.567 47.206 40.3302 47.1401C35.0966 47.206 30.1672 53.3618 28.176 56.275C24.6294 61.4555 17.3701 82.1838 19.0759 96.9194H61.0891C61.9797 75.2284 56.0374 61.4555 52.4908 56.275" fill="#DEAB59"/>
<path d="M52.0423 55.6416C49.8253 52.5558 45.2126 47.2029 40.3302 47.1401C35.429 47.2029 30.7974 52.6029 28.5898 55.6823C35.3788 60.2482 44.8112 59.5364 52.0392 55.6447" fill="#C98F3D"/>
<path d="M40.3828 62.9858C30.0536 62.9858 28.5139 92.4978 28.332 96.9194H52.4336C52.2518 92.4978 50.7121 62.9858 40.3828 62.9858Z" fill="#FFEBD9"/>
<path d="M56.9597 91.7671C56.7182 88.8319 56.3482 85.9092 55.9029 82.9991C55.2789 78.9381 54.4573 74.9085 53.4852 70.9133C53.7298 69.9443 54.1124 69.0882 54.5922 68.2071C54.9057 67.6301 54.0277 67.1158 53.7141 67.6928C53.4601 68.1569 53.2312 68.6179 53.0305 69.0882C52.7389 67.9499 52.441 66.8116 52.1274 65.6795C51.9518 65.0461 50.9703 65.3158 51.1459 65.9492C52.6887 71.5217 53.9493 77.1663 54.8619 82.8768C55.3322 85.8246 55.6865 88.7911 55.9437 91.764C56.0911 93.4887 56.1287 95.2009 56.1318 96.9162H57.1478C57.1416 95.2009 57.1071 93.4887 56.9628 91.764" fill="#C98F3D"/>
<path d="M28.5493 65.6795C28.2357 66.8147 27.9378 67.953 27.6462 69.0914C27.4455 68.6179 27.2134 68.1569 26.9626 67.6928C26.649 67.1158 25.7678 67.6301 26.0845 68.2071C26.5675 69.0914 26.95 69.9443 27.1946 70.9196C26.2256 74.9116 25.4104 78.9381 24.7738 82.9991C24.3379 85.7775 24.0024 88.5716 23.7515 91.372C23.5853 93.2284 23.5414 95.0692 23.5352 96.9162H24.5511C24.5543 95.2009 24.5919 93.4887 24.7362 91.764C24.9839 88.788 25.3571 85.8246 25.818 82.8768C26.7117 77.1663 27.9942 71.5186 29.5339 65.9492C29.7095 65.3158 28.728 65.0461 28.5524 65.6795" fill="#C98F3D"/>
<path d="M53.6828 4.72399C53.5699 4.66441 51.4658 7.75955 51.102 8.70032C50.3244 10.7136 50.0045 12.9275 50.2648 15.085C50.3777 16.0289 50.5094 19.6509 50.7446 19.9676C50.9672 20.0366 51.8013 20.2593 52.0177 20.3408C53.341 19.7042 54.4197 17.1955 54.9371 15.8094C56.0409 12.8397 56.7527 6.3233 53.6859 4.72399" fill="#DEAB59"/>
<path d="M52.2124 16.5684C52.2939 16.8256 52.4507 17.158 52.7705 17.1266C53.0496 17.0984 53.2723 16.813 53.4228 16.6029C53.6736 16.2548 53.8493 15.8378 54.0123 15.4426C54.1221 15.1792 54.2193 14.9095 54.3039 14.6336C54.3228 14.5834 54.3384 14.5332 54.3572 14.4799C54.674 13.5078 54.9029 12.4823 54.9123 11.46C54.9217 10.466 54.9405 9.41543 54.5297 8.4872C54.4419 8.28651 54.3071 8.02623 54.0876 7.95097C53.9214 7.89452 53.7677 8.01368 53.6674 8.13285C53.3413 8.5217 53.1939 9.07675 53.0559 9.55655C52.8395 10.2935 52.6639 11.0461 52.5009 11.7987C52.2688 12.8712 52.0901 13.9688 52.0556 15.0663C52.0399 15.5618 52.0556 16.0949 52.2092 16.5684" fill="#FFEBD9"/>
<path d="M27.4373 4.72399C27.5502 4.66441 29.6512 7.75955 30.0181 8.70032C30.7989 10.7136 31.1156 12.9275 30.8553 15.085C30.7424 16.0289 30.6107 19.6509 30.3755 19.9676C30.156 20.0366 29.3188 20.2593 29.1024 20.3408C27.7791 19.7042 26.7004 17.1955 26.183 15.8094C25.0792 12.8397 24.3674 6.3233 27.4373 4.72399Z" fill="#DEAB59"/>
<path d="M28.9067 16.5684C28.8252 16.8256 28.6684 17.158 28.3485 17.1266C28.0695 17.0984 27.8468 16.813 27.6963 16.6029C27.4454 16.2548 27.2698 15.8378 27.1068 15.4426C26.997 15.1792 26.903 14.9095 26.8152 14.6336C26.7963 14.5834 26.7806 14.5332 26.7618 14.4799C26.4451 13.5078 26.2162 12.4823 26.2068 11.46C26.1974 10.466 26.1754 9.41543 26.5894 8.4872C26.6772 8.28651 26.8089 8.02623 27.0315 7.95097C27.1977 7.89452 27.3514 8.01368 27.4517 8.13285C27.7778 8.5217 27.9252 9.07675 28.0632 9.55655C28.2796 10.2935 28.452 11.0461 28.6151 11.7987C28.8471 12.8712 29.0259 13.9688 29.0604 15.0663C29.076 15.5618 29.0604 16.0949 28.9067 16.5684Z" fill="#FFEBD9"/>
<path d="M33.0753 9.59092C33.0659 9.31497 33.0628 9.03273 33.0534 8.7505C33.5332 8.42123 33.853 7.85991 33.853 7.22332C33.853 6.46757 33.4046 5.81843 32.7649 5.5362C32.5454 5.42958 32.3008 5.37314 32.0562 5.38882H32.05C31.0559 5.38882 30.25 6.21042 30.25 7.22332C30.25 8.10137 30.8521 8.83204 31.658 9.01392C31.6674 9.35887 31.6956 9.70382 31.7144 10.0456C31.7458 10.6226 31.7771 11.1965 31.8116 11.7735C31.8681 12.6955 31.9308 13.6206 32.0374 14.5394C32.0907 14.9972 32.1691 15.4519 32.26 15.9035C32.3447 16.3268 32.4325 16.7815 32.6301 17.1673C32.7461 17.3993 32.9593 17.5655 33.1443 17.2896C33.3607 16.9603 33.3952 16.4742 33.3952 16.0917C33.3952 14.7275 33.251 13.3634 33.182 12.0024C33.1412 11.1965 33.0973 10.3937 33.0753 9.58779" fill="#332B21"/>
<path d="M47.9027 9.59092C47.9121 9.31497 47.9152 9.03273 47.9246 8.7505C47.4417 8.42123 47.125 7.85991 47.125 7.22332C47.125 6.46757 47.5734 5.81843 48.2131 5.5362C48.4326 5.42958 48.6772 5.37314 48.9218 5.38882H48.925C49.919 5.38882 50.728 6.21042 50.728 7.22332C50.728 8.10137 50.1259 8.83204 49.32 9.01392C49.3106 9.35887 49.2824 9.70382 49.2636 10.0456C49.2322 10.6226 49.2009 11.1965 49.1664 11.7735C49.11 12.6955 49.0472 13.6206 48.9406 14.5394C48.8873 14.9972 48.8089 15.4519 48.718 15.9035C48.6333 16.3268 48.5424 16.7815 48.348 17.1673C48.2319 17.3993 48.0156 17.5655 47.8337 17.2896C47.6173 16.9603 47.5828 16.4742 47.5828 16.0917C47.5828 14.7275 47.7271 13.3634 47.7961 12.0024C47.8368 11.1965 47.8807 10.3937 47.9027 9.58779" fill="#332B21"/>
<path d="M42.8568 15.135C42.0353 15.0629 41.2356 15.0252 40.4548 15.0127C39.6772 15.0221 38.8775 15.0629 38.056 15.135C27.8741 16.0319 22.3081 22.0183 22.4398 30.3128C22.5746 38.8048 22.4523 47.6794 29.5298 53.5341C32.236 55.7732 36.3187 56.877 40.4548 56.83C44.5909 56.8739 48.6737 55.7732 51.3799 53.5341C58.4573 47.6794 58.3319 38.8048 58.4699 30.3128C58.6047 22.0183 53.0387 16.0319 42.8568 15.135Z" fill="#DEAB59"/>
<path d="M36.6858 38.9712C31.0978 41.2949 31.7156 48.705 35.3531 52.4242C40.339 57.5201 48.144 53.4402 48.144 45.9799C48.144 42.6935 46.4318 38.8708 41.9978 38.5416C40.2669 38.413 38.1533 38.3597 36.6827 38.9712" fill="#FFEBD9"/>
<path d="M39.438 43.7627C39.438 44.0418 39.1495 44.2676 38.7952 44.2676C38.4408 44.2676 38.1523 44.0418 38.1523 43.7627C38.1523 43.4836 38.4408 43.2578 38.7952 43.2578C39.1495 43.2578 39.438 43.4836 39.438 43.7627Z" fill="#332B21"/>
<path d="M42.8208 43.7627C42.8208 44.0418 42.5323 44.2676 42.178 44.2676C41.8236 44.2676 41.5352 44.0418 41.5352 43.7627C41.5352 43.4836 41.8236 43.2578 42.178 43.2578C42.5323 43.2578 42.8208 43.4836 42.8208 43.7627Z" fill="#332B21"/>
<path d="M31.1889 37.7732C30.7655 37.5631 30.314 37.629 29.9941 37.8986C29.7652 38.0366 29.5771 38.275 29.4673 38.5352C29.1977 39.1812 29.574 39.8053 30.2011 40.0091C30.822 40.2129 31.4209 40.0467 31.7031 39.4415C31.9603 38.899 31.7408 38.046 31.1858 37.7701" fill="#332B21"/>
<path d="M50.0496 37.7732C50.4729 37.5631 50.9245 37.629 51.2443 37.8986C51.4732 38.0366 51.6614 38.275 51.7711 38.5352C52.0408 39.1812 51.6645 39.8053 51.0405 40.0091C50.4196 40.2129 49.8175 40.0467 49.5353 39.4415C49.2813 38.899 49.4977 38.046 50.0527 37.7701" fill="#332B21"/>
<path d="M38.6635 46.8328C39.9052 48.291 42.1003 47.9743 42.878 46.2276C43.0379 45.8701 42.5111 45.5597 42.3512 45.9203C41.7271 47.322 40.0997 47.5761 39.0962 46.4001C38.8391 46.099 38.4095 46.5349 38.6635 46.8328Z" fill="#332B21"/>
<path d="M56.2486 42.4773C56.2486 41.4425 54.8155 40.6021 53.0501 40.6021C51.2846 40.6021 49.8516 41.4425 49.8516 42.4773C49.8516 43.5122 51.2846 44.3526 53.0501 44.3526C54.8155 44.3526 56.2486 43.5122 56.2486 42.4773Z" fill="#FF8F66"/>
<path d="M24.6641 42.4773C24.6641 41.4425 26.094 40.6021 27.8626 40.6021C29.6311 40.6021 31.0611 41.4425 31.0611 42.4773C31.0611 43.5122 29.628 44.3526 27.8626 44.3526C26.0971 44.3526 24.6641 43.5122 24.6641 42.4773Z" fill="#FF8F66"/>
<path d="M33.6115 32.9346C31.6736 32.2479 29.7984 32.2761 28.3278 33.8534C27.9703 34.236 28.5441 34.8162 28.9047 34.4304C30.1873 33.0538 31.7395 33.1353 33.3952 33.7217C33.8906 33.8973 34.1038 33.1102 33.6115 32.9346Z" fill="#FFEBD9"/>
<path d="M47.519 33.7187C49.1779 33.1323 50.7301 33.0539 52.0095 34.4274C52.367 34.8131 52.944 34.2361 52.5865 33.8504C51.1158 32.2699 49.2374 32.2448 47.3027 32.9316C46.8104 33.1041 47.0236 33.8943 47.519 33.7156" fill="#FFEBD9"/>
<path d="M45.016 17.895C42.0496 17.2835 38.8354 17.0985 35.8846 17.895C34.7369 18.2055 35.2261 19.9835 36.3738 19.6731C38.9953 18.9644 41.8865 19.1306 44.5237 19.6731C45.6839 19.9114 46.1794 18.1333 45.0129 17.895" fill="#BF824D"/>
<path d="M42.9659 22.0592C41.4545 22.0498 39.9461 21.9495 38.4347 22.0592C37.2556 22.1439 37.2462 23.9878 38.4347 23.9031C39.9461 23.7934 41.4513 23.8937 42.9659 23.9031C44.1575 23.9094 44.1544 22.0655 42.9659 22.0592Z" fill="#BF824D"/>
<path d="M41.6666 26.2584C40.9611 26.1769 40.2555 26.1675 39.5437 26.1675C38.3552 26.1675 38.3552 28.0114 39.5437 28.0114C40.2524 28.0114 40.9611 28.0208 41.6666 28.1023C42.1683 28.1619 42.5885 27.6382 42.5885 27.1804C42.5885 26.6347 42.1652 26.318 41.6666 26.2584Z" fill="#BF824D"/>
<path d="M55.5682 73.4696C54.4205 73.78 54.9097 75.5581 56.0574 75.2476C57.1612 74.9497 58.312 74.8086 59.4723 74.7804C59.3468 74.1595 59.2151 73.548 59.0803 72.9521C57.8887 72.9992 56.7096 73.1591 55.5682 73.4664" fill="#BF824D"/>
<path d="M58.1222 77.6338C56.9431 77.7184 56.9337 79.5623 58.1222 79.4777C58.8403 79.4275 59.5584 79.4212 60.2765 79.4338C60.1855 78.8066 60.0915 78.1919 59.9911 77.5867C59.3702 77.5804 58.7462 77.5898 58.1222 77.6338Z" fill="#BF824D"/>
<path d="M24.6823 73.4692C23.6945 73.2654 22.6785 73.1117 21.6563 73.0239C21.4964 73.6166 21.3427 74.2187 21.1953 74.8271C22.2113 74.8992 23.221 75.0466 24.1931 75.2504C25.3534 75.4887 25.8488 73.7107 24.6854 73.4724" fill="#BF824D"/>
<path d="M22.6303 77.6335C21.9373 77.6273 21.2412 77.6053 20.5482 77.5928C20.4165 78.2011 20.291 78.8158 20.1719 79.4304C20.9903 79.443 21.8087 79.4712 22.6303 79.4775C23.8188 79.4837 23.8188 77.6398 22.6303 77.6335Z" fill="#BF824D"/>
</g>
</svg>
