<svg width="81" height="81" viewBox="0 0 81 81" fill="none" xmlns="http://www.w3.org/2000/svg">
<circle cx="40.332" cy="40.5" r="40" fill="#019772"/>
<mask id="mask0_5374_204578" style="mask-type:luminance" maskUnits="userSpaceOnUse" x="0" y="0" width="81" height="81">
<path d="M40.332 0.5C18.2405 0.5 0.332031 18.4091 0.332031 40.5016C0.332031 62.594 18.2405 80.5 40.332 80.5C62.4236 80.5 80.332 62.5909 80.332 40.5016C80.332 18.4123 62.4236 0.5 40.332 0.5Z" fill="white"/>
</mask>
<g mask="url(#mask0_5374_204578)">
<path d="M54.6002 53.7252C52.3236 50.8401 46.6949 48.3283 40.7149 48.2593C34.735 48.3251 29.1063 50.8401 26.8297 53.7252C22.7783 58.8555 14.4873 79.3737 16.4314 93.965H64.4246C65.4405 72.4904 58.6516 58.8555 54.6002 53.7252Z" fill="#CCADE0"/>
<path d="M44.5007 58.6862C47.417 58.0558 50.2768 57.0461 52.892 55.6004C53.5756 55.221 54.3188 54.7945 55.0495 54.3147C54.8958 54.1077 54.7453 53.9102 54.601 53.7252C52.3245 50.8401 46.6957 48.3283 40.7127 48.2593C34.7327 48.3251 29.104 50.8401 26.8274 53.7252C26.47 54.1799 26.078 54.7569 25.6641 55.4342C31.2395 58.5356 38.2354 60.044 44.5038 58.6862" fill="#947DAB"/>
<path d="M40.7109 61.1479C29.0333 61.1479 27.2929 89.5843 27.0859 93.962H54.3359C54.1289 89.5843 52.3885 61.1479 40.7109 61.1479Z" fill="#E3CCF7"/>
<path d="M57.5269 88.8633C57.2855 85.9595 56.9217 83.0651 56.4796 80.1832C55.8618 76.1629 55.0465 72.1709 54.0838 68.2197C54.3284 67.257 54.7047 66.4134 55.1814 65.5416C55.4918 64.9709 54.6201 64.4629 54.3096 65.0336C54.0588 65.4946 53.833 65.9493 53.6323 66.4166C53.3438 65.2876 53.049 64.1618 52.7386 63.0423C52.5661 62.4151 51.594 62.6817 51.7665 63.3089C53.2936 68.8249 54.5417 74.4131 55.4448 80.0671C55.912 82.9867 56.2632 85.9219 56.5141 88.8665C56.6615 90.5724 56.696 92.2689 56.6991 93.9686H57.7057C57.6994 92.2689 57.6649 90.5755 57.5238 88.8665" fill="#947DAB"/>
<path d="M28.5928 63.0362C28.2824 64.1588 27.9876 65.2846 27.6991 66.4135C27.5016 65.9463 27.2727 65.4885 27.0218 65.0275C26.7114 64.4567 25.8396 64.9648 26.1501 65.5355C26.6267 66.4104 27.0061 67.2571 27.2507 68.2198C26.2943 72.1711 25.4822 76.1599 24.855 80.177C24.4254 82.9272 24.0899 85.6931 23.8421 88.4683C23.6791 90.306 23.6352 92.1311 23.6289 93.9593H24.6355C24.6418 92.2597 24.6763 90.5663 24.8174 88.8572C25.062 85.9126 25.432 82.9774 25.8898 80.0579C26.7741 74.4038 28.0441 68.8125 29.5681 63.2996C29.7405 62.6724 28.7684 62.4059 28.596 63.033" fill="#947DAB"/>
<path d="M55.338 20.0615C55.4039 19.8734 55.4885 19.6977 55.5952 19.5378C55.9777 18.6974 56.815 18.1423 57.8529 18.1612C59.217 18.1862 60.4525 19.6789 60.4556 20.9991C60.4556 22.0716 59.9069 22.8368 59.0539 23.2413C59.0822 23.2695 59.1135 23.2978 59.1417 23.326C59.3424 23.5267 59.54 23.7337 59.7313 23.9469C61.3775 23.3385 62.4688 22.0058 62.4657 20.0646C62.4594 17.8821 60.418 15.4141 58.1665 15.3733C56.4481 15.342 55.0652 16.2608 54.4318 17.65C54.1464 18.0828 53.9426 18.5908 53.8203 19.1239C54.3659 19.381 54.8645 19.7072 55.3412 20.0678" fill="#CCADE0"/>
<path d="M56.6279 21.112C57.4526 21.8019 58.2867 22.4855 59.0518 23.2413C59.9048 22.8367 60.4567 22.0716 60.4535 20.9991C60.4504 19.6789 59.2149 18.1862 57.8508 18.1611C56.8129 18.1423 55.9756 18.6973 55.5931 19.5378C55.4865 19.6977 55.4018 19.8764 55.3359 20.0615C55.7781 20.3939 56.2014 20.7545 56.6279 21.112Z" fill="#947DAB"/>
<path d="M26.4917 20.0615C26.4227 19.8734 26.3412 19.6977 26.2346 19.5378C25.852 18.6974 25.0147 18.1423 23.9768 18.1612C22.6127 18.1862 21.3804 19.6789 21.3772 20.9991C21.3741 22.0716 21.926 22.8368 22.7789 23.2413C22.7507 23.2695 22.7193 23.2978 22.6911 23.326C22.4904 23.5267 22.2929 23.7337 22.1016 23.9469C20.4553 23.3385 19.3641 22.0058 19.3672 20.0646C19.3735 17.8821 21.4149 15.4141 23.6663 15.3733C25.3848 15.342 26.7676 16.2608 27.4011 17.65C27.6864 18.0828 27.8902 18.5908 28.0125 19.1239C27.4669 19.381 26.9683 19.7072 26.4917 20.0678" fill="#CCADE0"/>
<path d="M25.2007 21.112C24.376 21.8019 23.5418 22.4855 22.7767 23.2413C21.9238 22.8367 21.3719 22.0716 21.375 20.9991C21.3781 19.6789 22.6136 18.1862 23.9746 18.1611C25.0125 18.1423 25.8498 18.6973 26.2355 19.5378C26.3421 19.6977 26.4236 19.8764 26.4926 20.0615C26.0505 20.3939 25.6271 20.7545 25.2038 21.112" fill="#947DAB"/>
<path d="M63.2954 39.1057C62.5992 34.9663 62.1414 28.3057 59.9181 24.3858C56.8451 18.9701 53.6121 18.1924 49.9307 16.9255C47.2841 16.0161 44.0636 15.5269 40.7115 15.5269C37.3593 15.5269 34.142 16.0129 31.4923 16.9255C27.8109 18.1924 24.5779 18.9701 21.5048 24.3858C19.2816 28.3057 18.8237 34.9663 18.1276 39.1057C17.513 42.7496 17.5726 49.2566 23.9288 52.8253C27.9896 55.1051 34.0229 56.8141 40.7083 56.6574C47.3938 56.8141 53.4271 55.1051 57.491 52.8253C63.8473 49.2566 63.9068 42.7496 63.2922 39.1057" fill="#CCADE0"/>
<path d="M52.0809 37.7387C49.3371 37.1366 45.1477 36.7132 40.7137 36.7352C36.2797 36.7132 32.0903 37.1366 29.3465 37.7387C23.1063 39.1059 18.1988 41.7275 20.397 48.8586C22.1185 54.4374 31.1746 57.3255 40.7137 57.5795C50.2527 57.3255 59.3089 54.4374 61.0304 48.8586C63.2286 41.7275 58.3242 39.1059 52.0809 37.7387Z" fill="#E3CCF7"/>
<path d="M34.9638 39.8083C34.4746 39.5668 33.9509 39.6421 33.5809 39.9557C33.3144 40.1156 33.098 40.3916 32.9726 40.6926C32.6621 41.4421 33.098 42.1633 33.8192 42.3985C34.5404 42.6337 35.2334 42.4424 35.5627 41.7431C35.8575 41.1159 35.6066 40.1281 34.9638 39.8083Z" fill="#947DAB"/>
<path d="M48.2958 39.8083C47.8066 39.5668 47.2829 39.6421 46.9129 39.9557C46.6464 40.1156 46.43 40.3916 46.3046 40.6926C45.9941 41.4421 46.43 42.1633 47.1512 42.3985C47.8725 42.6337 48.5655 42.4424 48.8947 41.7431C49.1895 41.1159 48.9355 40.1281 48.2958 39.8083Z" fill="#947DAB"/>
<path d="M31.1337 33.0815C30.7135 32.8745 30.2683 32.9404 29.9516 33.2069C29.7258 33.3449 29.5408 33.5801 29.431 33.8372C29.1645 34.477 29.5376 35.0947 30.1554 35.2954C30.7731 35.4993 31.3658 35.3331 31.6449 34.7341C31.8957 34.1979 31.6825 33.3543 31.1337 33.0815Z" fill="#332B21"/>
<path d="M51.0153 33.0815C51.4324 32.8745 51.8808 32.9404 52.1975 33.2069C52.4264 33.3449 52.6114 33.5801 52.7181 33.8372C52.9846 34.477 52.6114 35.0947 51.9937 35.2954C51.3791 35.4993 50.7833 35.3331 50.5042 34.7341C50.2502 34.1979 50.4666 33.3543 51.0153 33.0815Z" fill="#332B21"/>
<path d="M39.2908 49.9183C40.52 51.3609 42.6931 51.0504 43.4614 49.3194C43.6181 48.965 43.0976 48.6577 42.9377 49.0152C42.3199 50.4044 40.7081 50.6553 39.7141 49.4919C39.4601 49.1939 39.0368 49.6236 39.2876 49.9183" fill="#332B21"/>
<path d="M60.3226 35.8823C60.3226 34.8569 58.9052 34.0259 57.1554 34.0259C55.4057 34.0259 53.9883 34.8569 53.9883 35.8823C53.9883 36.9078 55.4057 37.7388 57.1554 37.7388C58.9052 37.7388 60.3226 36.9078 60.3226 35.8823Z" fill="#FF8F66"/>
<path d="M21.5078 35.8823C21.5078 34.8569 22.9252 34.0259 24.6749 34.0259C26.4247 34.0259 27.8421 34.8569 27.8421 35.8823C27.8421 36.9078 26.4247 37.7388 24.6749 37.7388C22.9252 37.7388 21.5078 36.9078 21.5078 35.8823Z" fill="#FF8F66"/>
<path d="M33.5336 28.2902C31.6145 27.6128 29.7581 27.6379 28.3031 29.1996C27.9488 29.579 28.5195 30.1529 28.8738 29.7703C30.1438 28.4093 31.6804 28.4877 33.3204 29.0679C33.8127 29.2404 34.0228 28.4627 33.5336 28.2902Z" fill="#FFEBD9"/>
<path d="M48.5125 29.0679C50.1525 28.4877 51.689 28.4093 52.959 29.7703C53.3134 30.1529 53.8841 29.579 53.5297 29.1996C52.0716 27.6379 50.2152 27.6128 48.2993 28.2902C47.8132 28.4627 48.0233 29.2404 48.5125 29.0679Z" fill="#FFEBD9"/>
<path d="M34.1692 17.9228C34.3699 18.5625 34.5706 19.1991 34.7744 19.8388C34.9312 20.3343 35.7089 20.121 35.5521 19.6256C35.3514 18.9858 35.1476 18.3493 34.9469 17.7095C34.7901 17.2172 34.0124 17.4273 34.1692 17.9228Z" fill="#947DAB"/>
<path d="M37.1758 17.5149C37.1821 18.1954 37.295 18.8665 37.3922 19.5376C37.4674 20.0519 38.242 19.8324 38.1699 19.3243C38.0821 18.7223 37.9911 18.1233 37.9817 17.5149C37.9754 16.9944 37.1695 16.9944 37.1758 17.5149Z" fill="#947DAB"/>
<path d="M40.5 17.2112C40.5063 17.9262 40.6004 18.6318 40.7164 19.3342C40.8011 19.8454 41.5787 19.629 41.4941 19.121C41.3906 18.4875 41.3122 17.8541 41.3059 17.2112C41.2997 16.6907 40.4938 16.6907 40.5 17.2112Z" fill="#947DAB"/>
<path d="M44.7526 17.4088C44.5613 18.0014 44.4359 18.6161 44.3136 19.2244C44.2133 19.7325 44.9909 19.9488 45.0913 19.4377C45.2104 18.8293 45.3359 18.2147 45.5271 17.622C45.6871 17.1265 44.9094 16.9164 44.7495 17.4088" fill="#947DAB"/>
<path d="M47.7768 18.1142C47.6796 18.7947 47.5824 19.4752 47.3723 20.1306C47.2155 20.6261 47.9932 20.8393 48.15 20.3439C48.357 19.6884 48.4573 19.008 48.5545 18.3275C48.6266 17.8194 47.8521 17.5999 47.7768 18.1142Z" fill="#947DAB"/>
<path d="M38.066 22.6518C38.066 22.6518 38.0628 22.6299 38.0597 22.6205C37.9311 22.2034 37.2067 22.2599 37.2695 22.7271C37.3479 23.3261 37.5736 23.9219 37.7963 24.4801C37.9844 24.9567 38.7652 24.7498 38.5739 24.2668C38.4328 23.9093 38.3074 23.5456 38.2008 23.1724C38.1632 23.047 38.1318 22.9215 38.1004 22.793C38.0879 22.7459 38.0503 22.517 38.0785 22.7271C37.8151 22.7616 37.5517 22.7992 37.2851 22.8337C37.2883 22.8431 37.2914 22.8557 37.2914 22.8651C37.3949 23.3731 38.1726 23.1599 38.0691 22.6518" fill="#947DAB"/>
<path d="M40.5 22.658C40.5 23.1347 40.5094 23.6113 40.616 24.0754C40.732 24.5834 41.5097 24.3671 41.3937 23.8622C41.3028 23.4671 41.3059 23.0625 41.3059 22.658C41.3059 22.1374 40.5 22.1374 40.5 22.658Z" fill="#947DAB"/>
<path d="M44.1463 22.4477C43.9142 23.0843 43.9299 23.7993 43.9299 24.4704C43.9299 24.9909 44.7358 24.9909 44.7358 24.4704C44.7358 23.8683 44.7139 23.2348 44.924 22.6641C45.1027 22.1749 44.3219 21.9648 44.1463 22.4477Z" fill="#947DAB"/>
<path d="M38.8907 27.1925C38.897 27.7789 38.9973 28.3653 39.2074 28.9141C39.3924 29.397 40.1732 29.1869 39.9851 28.7008C39.8001 28.2148 39.7029 27.713 39.6966 27.1956C39.6903 26.675 38.8813 26.675 38.8907 27.1956" fill="#947DAB"/>
<path d="M42.4187 27.0265C42.4124 27.5188 42.3215 28.0143 42.2305 28.5003C42.1365 29.0083 42.9141 29.2247 43.0082 28.7136C43.1117 28.1616 43.2152 27.5909 43.2246 27.0265C43.2308 26.5059 42.425 26.509 42.4187 27.0265Z" fill="#947DAB"/>
<path d="M40.5029 30.8962C40.4622 31.4606 40.3618 32.1317 40.5186 32.6836C40.6597 33.1822 41.4374 32.9721 41.2963 32.4704C41.174 32.0408 41.2743 31.3822 41.3088 30.8962C41.3464 30.3787 40.5374 30.3819 40.5029 30.8962Z" fill="#947DAB"/>
</g>
</svg>
