<svg width="80" height="81" viewBox="0 0 80 81" fill="none" xmlns="http://www.w3.org/2000/svg">
<path d="M40 0.5C17.9084 0.5 0 18.4091 0 40.5016C0 62.594 17.9084 80.5 40 80.5C62.0916 80.5 80 62.5909 80 40.5016C80 18.4123 62.0916 0.5 40 0.5Z" fill="#019ACF"/>
<mask id="mask0_5374_204692" style="mask-type:luminance" maskUnits="userSpaceOnUse" x="0" y="0" width="80" height="81">
<path d="M40 0.5C17.9084 0.5 0 18.4091 0 40.5016C0 62.594 17.9084 80.5 40 80.5C62.0916 80.5 80 62.5909 80 40.5016C80 18.4123 62.0916 0.5 40 0.5Z" fill="white"/>
</mask>
<g mask="url(#mask0_5374_204692)">
<path d="M62.9821 62.6816C63.8193 69.7249 62.0695 76.4075 57.5195 80.4434C57.5572 80.7225 57.5822 81.0016 57.5979 81.2838C60.3637 79.9009 62.2953 76.489 63.258 73.9458C64.0764 71.5782 65.0987 65.3001 62.9821 62.6816Z" fill="#BF824D"/>
<path d="M65.1054 60.0913C64.6633 60.4269 64.2243 60.7655 63.6881 61.0885C63.5532 59.8843 63.3902 58.8746 62.9512 57.73C62.531 58.6613 62.4996 59.646 62.371 60.615C61.7313 60.2324 61.1293 59.5613 60.3641 59.3606C60.8439 60.2136 61.4178 61.0823 61.8975 61.9352C61.3017 61.954 60.6244 61.8631 60.1133 61.9948C60.8941 62.7913 63.4968 64.0269 63.4968 64.0269C63.7069 63.0767 64.773 61.1356 65.1086 60.0913" fill="#A86B38"/>
<path d="M51.1398 53.2205C49.1924 50.4201 44.3822 47.9773 39.2708 47.9146C34.1595 47.9804 29.3492 50.4201 27.4019 53.2205C23.9369 58.2034 16.85 78.129 18.5151 92.3001H59.5405C60.4091 71.4432 54.6079 58.2034 51.1429 53.2205" fill="#BF824D"/>
<path d="M50.0584 84.0058C48.4905 71.6472 45.0349 61.3771 39.2713 61.3521C33.5077 61.3771 30.0521 71.6472 28.4842 84.0058C28.1424 86.6901 27.8006 89.7351 27.625 92.3003H50.9176C50.742 89.732 50.4002 86.6901 50.0584 84.0058Z" fill="#FFEBD9"/>
<path d="M54.02 78.7999C54.4715 81.6348 54.8133 84.4853 55.0579 87.3452C55.2022 89.0041 55.2335 90.6505 55.2367 92.3H56.2119C56.2056 90.6505 56.1711 89.0041 56.0332 87.3452C55.8011 84.5229 55.4468 81.7132 55.0172 78.9159C54.1548 73.2964 52.9005 67.7427 51.3859 62.2643C51.2197 61.6559 50.2727 61.9131 50.4421 62.5246C51.9253 67.8838 53.1388 73.309 54.0137 78.7999" fill="#A86B38"/>
<path d="M52.9165 64.199C52.3928 65.1586 51.9695 66.0931 51.7186 67.1593C51.5713 67.7739 52.5183 68.0342 52.6625 67.4196C52.8977 66.4317 53.2771 65.5788 53.76 64.6945C54.0611 64.1394 53.2176 63.6471 52.9165 64.199Z" fill="#A86B38"/>
<path d="M23.3065 92.3001C23.3128 90.6506 23.3473 89.0042 23.4821 87.3453C23.7204 84.4854 24.0779 81.6349 24.5232 78.8C25.3824 73.309 26.6147 67.8776 28.0948 62.5247C28.2641 61.9163 27.3203 61.656 27.1509 62.2644C25.6364 67.7459 24.3977 73.2965 23.5197 78.916C23.1027 81.5878 22.7765 84.2753 22.5351 86.969C22.3752 88.7533 22.3344 90.5251 22.3281 92.3001H23.3065Z" fill="#A86B38"/>
<path d="M24.7817 64.6949C25.2646 65.5823 25.6472 66.4353 25.8792 67.42C26.0235 68.0346 26.9673 67.7743 26.8231 67.1597C26.5691 66.0935 26.1489 65.1558 25.6252 64.1994C25.3242 63.6443 24.4775 64.1398 24.7786 64.6949" fill="#A86B38"/>
<path d="M60.7017 14.0122C58.5349 13.3568 56.4025 13.8899 55.0291 15.2227C54.4709 15.6178 53.9974 16.1321 53.6211 16.7091C54.311 17.0196 54.9068 17.5495 55.3897 18.0387C56.2144 18.8729 57.0297 19.7729 57.7258 20.6949C58.5599 21.8018 59.1934 22.9747 59.6481 24.2008C61.7804 23.9907 63.5145 22.8931 64.2483 20.8485C65.1325 18.39 63.5458 14.8715 60.7017 14.0091" fill="#BF824D"/>
<path d="M59.1723 17.0448C57.8616 16.6465 56.5696 16.9695 55.7418 17.7786C55.6226 17.8632 55.5129 17.9573 55.4062 18.0577C56.2247 18.8887 57.0368 19.7824 57.7299 20.6981C58.31 21.4664 58.7929 22.266 59.1849 23.0939C60.1695 22.8336 60.9534 22.2033 61.3172 21.181C61.8503 19.6946 60.8907 17.5653 59.1723 17.0448Z" fill="#FFEBD9"/>
<path d="M18.6859 14.0122C20.8559 13.3568 22.9851 13.8899 24.3585 15.2227C24.9167 15.6178 25.3902 16.1321 25.7665 16.7091C25.0798 17.0196 24.4808 17.5495 23.9979 18.0387C23.1763 18.8729 22.3579 19.7729 21.6618 20.6949C20.8277 21.8018 20.1942 22.9747 19.7395 24.2008C17.6072 23.9907 15.8731 22.8931 15.1393 20.8485C14.255 18.39 15.8417 14.8715 18.6859 14.0091" fill="#BF824D"/>
<path d="M20.2171 17.0448C21.5279 16.6465 22.8167 16.9695 23.6477 17.7786C23.7668 17.8632 23.8766 17.9573 23.9832 18.0577C23.1648 18.8887 22.3526 19.7824 21.6596 20.6981C21.0795 21.4664 20.5966 22.266 20.2046 23.0939C19.2168 22.8336 18.436 22.2033 18.0691 21.181C17.536 19.6946 18.4956 17.5653 20.2171 17.0448Z" fill="#FFEBD9"/>
<path d="M62.4266 27.6252C61.8088 26.3897 60.9528 25.314 59.9556 24.3764C60.9967 24.298 62.1161 24.8374 62.1161 24.8374C60.3005 18.9168 53.9412 14.4105 53.9412 14.4105C54.2955 13.7269 56.34 13.8241 56.34 13.8241C52.7182 10.9861 47.3498 11.2997 45.669 11.6697C45.9073 11.2872 47.1679 9.38993 46.9891 9.39307C45.2707 9.39307 39.2657 10.6474 38.3093 11.5568C37.2964 10.7196 31.1754 9.87286 28.7295 10.5439C28.7295 10.5439 30.6799 11.8548 31.351 12.6513C29.3253 12.7422 21.8339 16.4583 20.4353 18.1391C20.3381 18.2583 22.0095 18.8415 22.8029 18.7443C21.2914 19.7227 17.193 25.267 16.8104 27.0984C16.7853 27.2144 17.7982 26.835 18.2434 26.7127C16.9735 29.3437 16.0484 36.8354 16.3745 38.9395C16.3745 38.9395 17.2933 38.811 17.3905 38.7012C17.2055 41.6678 17.472 44.5528 18.7734 47.2999C18.833 47.4284 19.4601 46.0016 19.8364 45.4371C19.9775 47.51 22.6461 51.8124 22.6586 51.6713C22.6743 51.5176 22.875 50.602 22.9189 50.4577C23.292 51.3922 27.541 55.6445 27.5692 55.5316C27.6539 55.1804 27.7072 54.8292 27.7166 54.4779C28.4661 55.4218 33.3297 57.4821 34.8474 58.5734C34.9728 58.6612 34.5213 57.6797 34.7 57.2501C35.5216 57.6264 41.674 57.8459 43.5617 57.5449C43.938 57.4853 42.7339 58.68 43.1258 58.5797C47.3497 57.4821 53.753 52.9257 54.2924 52.2075C54.33 52.2922 54.537 54.4748 54.6248 54.4591C55.393 54.3117 59.78 46.1584 60.1061 44.0197C60.1814 44.2424 60.5451 44.9072 60.6831 44.8068C61.3886 44.2894 62.9785 34.3235 62.7746 33.3388C62.9628 33.5082 63.1509 33.6775 63.3328 33.8594C63.5554 34.082 63.3328 29.4472 62.4266 27.6283" fill="#A86B38"/>
<path d="M56.9295 33.1568C55.9418 26.8442 51.0374 21.6041 44.0603 19.8073C40.7426 18.9512 35.669 19.6066 32.4422 20.7606C29.711 21.7358 26.4592 23.4324 24.1795 27.6094C22.53 30.6324 22.2039 34.8753 22.2071 37.8418C22.2071 40.6924 23.0725 43.5209 24.7251 45.8729C26.547 48.4631 29.2657 50.1346 32.1663 51.3732C38.187 53.9415 46.5219 53.0729 50.4228 49.9056C52.9063 47.8893 54.8035 45.2927 56.039 42.3889C57.3341 39.3439 57.3717 35.9854 56.9295 33.1568Z" fill="#BF824D"/>
<path d="M50.1289 42.8879C49.3982 41.9001 47.9558 40.9122 46.8269 40.4701C42.9323 38.9366 36.5384 39.0934 33.7444 39.8743C31.9758 40.3666 29.8404 41.5363 28.9686 43.2391C28.0028 45.1269 28.9122 47.1496 30.4236 48.4196C31.609 49.4168 33.0859 50.0597 34.5534 50.5301C37.614 51.5053 40.7623 51.5336 43.9388 50.9754C46.8363 50.4673 49.8843 49.2569 50.6494 46.2746C50.9536 45.0861 50.872 43.9039 50.1257 42.891" fill="#FFEBD9"/>
<path d="M33.1486 21.3345C33.343 21.9554 33.5406 22.5763 33.735 23.1941C33.8855 23.6739 34.6444 23.47 34.4907 22.9871C34.2963 22.3662 34.0988 21.7453 33.9043 21.1275C33.7538 20.6477 32.9981 20.8516 33.1486 21.3345Z" fill="#A86B38"/>
<path d="M36.0703 20.9363C36.0766 21.598 36.1864 22.2502 36.2805 22.8994C36.3494 23.398 37.1052 23.1847 37.0362 22.6924C36.9515 22.1091 36.8606 21.5258 36.8543 20.9363C36.848 20.4314 36.0641 20.4314 36.0703 20.9363Z" fill="#A86B38"/>
<path d="M39.3047 20.6418C39.311 21.3349 39.4019 22.0216 39.5148 22.7021C39.5964 23.2007 40.3521 22.9875 40.2706 22.4952C40.1702 21.8805 40.0949 21.2659 40.0887 20.6418C40.0824 20.137 39.2985 20.137 39.3047 20.6418Z" fill="#A86B38"/>
<path d="M43.4319 20.8328C43.2469 21.4067 43.1215 22.0025 43.0086 22.5952C42.9114 23.0875 43.6671 23.3007 43.7643 22.8021C43.8804 22.2126 44.0026 21.6136 44.1876 21.0398C44.3444 20.5568 43.5856 20.353 43.4319 20.8297" fill="#A86B38"/>
<path d="M46.3656 21.5162C46.2715 22.1747 46.1774 22.8364 45.9736 23.473C45.82 23.9559 46.5757 24.1629 46.7294 23.6831C46.9332 23.0465 47.0273 22.3848 47.1213 21.7232C47.1903 21.2277 46.4377 21.0176 46.3656 21.5162Z" fill="#A86B38"/>
<path d="M36.9383 25.9226C36.9383 25.9226 36.9351 25.9006 36.932 25.8912C36.8066 25.4867 36.1042 25.5431 36.1637 25.9947C36.239 26.578 36.4616 27.155 36.6749 27.6975C36.8567 28.1616 37.6156 27.9609 37.4306 27.4905C37.2926 27.1425 37.1703 26.7881 37.0668 26.4275C37.0323 26.3052 37.001 26.1829 36.9696 26.0606C36.9602 26.0135 36.9226 25.794 36.9477 25.9978C36.6905 26.0323 36.4334 26.0668 36.1763 26.1013C36.1794 26.1107 36.1825 26.1202 36.1825 26.1327C36.286 26.6282 37.0386 26.4181 36.9383 25.9257" fill="#A86B38"/>
<path d="M39.3047 25.929C39.3047 26.3899 39.3141 26.854 39.4176 27.3056C39.5305 27.798 40.2862 27.5878 40.1733 27.0986C40.0855 26.7161 40.0918 26.3209 40.0918 25.929C40.0918 25.4241 39.3078 25.4241 39.3078 25.929" fill="#A86B38"/>
<path d="M42.8431 25.7282C42.6174 26.3491 42.633 27.0421 42.633 27.6913C42.633 28.1961 43.417 28.1961 43.417 27.6913C43.417 27.1048 43.395 26.4933 43.5989 25.9351C43.7713 25.4616 43.0156 25.2578 42.8431 25.7282Z" fill="#A86B38"/>
<path d="M37.7344 30.3347C37.7407 30.9054 37.8379 31.473 38.0417 32.0062C38.2205 32.4734 38.9762 32.2696 38.7974 31.7992C38.6187 31.3288 38.5246 30.8396 38.5184 30.3347C38.5121 29.8298 37.7281 29.8298 37.7344 30.3347Z" fill="#A86B38"/>
<path d="M41.1626 30.1716C41.1564 30.6514 41.0685 31.1312 40.9807 31.6016C40.8867 32.0939 41.6424 32.3072 41.7365 31.8086C41.8368 31.2723 41.9372 30.7173 41.9466 30.1716C41.9528 29.6667 41.172 29.6667 41.1626 30.1716Z" fill="#A86B38"/>
<path d="M39.303 33.9315C39.2622 34.4803 39.165 35.1294 39.3156 35.6688C39.4504 36.1548 40.2061 35.9479 40.0713 35.4587C39.9553 35.0416 40.0525 34.4019 40.087 33.9315C40.1214 33.4266 39.3406 33.4329 39.303 33.9315Z" fill="#A86B38"/>
<path d="M39.7656 41.6585C40.5276 41.1913 41.0105 39.8962 40.9572 39.4132C40.9353 39.2094 40.722 39.1185 40.5903 39.1059C39.9412 39.0338 39.2419 39.0087 38.6461 39.1153C38.5364 39.1341 38.4298 39.2502 38.4298 39.4352C38.4235 39.8773 38.7434 41.1223 39.7656 41.6585Z" fill="#332B21"/>
<path d="M30.1976 36.5844C29.7899 36.3837 29.3572 36.4465 29.0499 36.7067C28.8304 36.8416 28.6485 37.0674 28.545 37.3182C28.2879 37.9391 28.6485 38.5381 29.2474 38.7357C29.8464 38.9301 30.4202 38.7733 30.693 38.1932C30.9376 37.6695 30.7275 36.851 30.1976 36.5876" fill="#332B21"/>
<path d="M49.5031 36.5844C49.9108 36.3837 50.3435 36.4465 50.6508 36.7067C50.8703 36.8416 51.0522 37.0674 51.1557 37.3182C51.4128 37.9391 51.0522 38.5381 50.4533 38.7357C49.8543 38.9301 49.2805 38.7733 49.0077 38.1932C48.7631 37.6695 48.9732 36.851 49.5063 36.5876" fill="#332B21"/>
<path d="M38.1137 45.3277C39.3085 46.7294 41.4188 46.4252 42.1652 44.7475C42.3157 44.4026 41.8108 44.1047 41.6572 44.4496C41.0582 45.7981 39.4935 46.0427 38.5277 44.9137C38.2831 44.6252 37.8691 45.0423 38.1137 45.3277Z" fill="#332B21"/>
<path d="M55.4696 41.1064C55.4696 40.1123 54.093 39.3032 52.3934 39.3032C50.6938 39.3032 49.3203 40.1092 49.3203 41.1064C49.3203 42.1036 50.6969 42.9095 52.3934 42.9095C54.0898 42.9095 55.4696 42.1036 55.4696 41.1064Z" fill="#FF8F66"/>
<path d="M23.9219 41.1064C23.9219 40.1123 25.2985 39.3032 26.9981 39.3032C28.6977 39.3032 30.0743 40.1092 30.0743 41.1064C30.0743 42.1036 28.6977 42.9095 26.9981 42.9095C25.2985 42.9095 23.9219 42.1036 23.9219 41.1064Z" fill="#FF8F66"/>
<path d="M32.5247 31.9306C30.662 31.272 28.859 31.2971 27.4447 32.8149C27.0998 33.1849 27.6548 33.74 27.9998 33.37C29.2321 32.0466 30.7248 32.1219 32.3177 32.6863C32.7944 32.8557 32.9982 32.0968 32.5278 31.9306" fill="#FFEBD9"/>
<path d="M47.0744 32.6863C48.6705 32.1219 50.1631 32.0466 51.3955 33.37C51.7404 33.74 52.2923 33.1849 51.9505 32.8149C50.5363 31.2971 48.7301 31.272 46.8706 31.9306C46.397 32.0968 46.6009 32.8557 47.0775 32.6863" fill="#FFEBD9"/>
</g>
</svg>
