<svg width="81" height="81" viewBox="0 0 81 81" fill="none" xmlns="http://www.w3.org/2000/svg">
<path d="M40.332 0.5C18.2405 0.5 0.332031 18.4091 0.332031 40.5016C0.332031 62.594 18.2405 80.5 40.332 80.5C62.4236 80.5 80.332 62.5909 80.332 40.5016C80.332 18.4123 62.4236 0.5 40.332 0.5Z" fill="#019ACF"/>
<mask id="mask0_5374_204968" style="mask-type:luminance" maskUnits="userSpaceOnUse" x="0" y="0" width="81" height="81">
<path d="M0.332031 40.5016C0.332031 62.5909 18.2405 80.5 40.3321 80.5C62.4236 80.5 80.332 62.5909 80.332 40.5016C80.332 18.4123 62.4236 0.5 40.3321 0.5C18.2405 0.5 0.332031 18.4091 0.332031 40.5016Z" fill="white"/>
</mask>
<g mask="url(#mask0_5374_204968)">
<path d="M68.4375 81.4753C71.1311 81.1397 69.0207 78.7063 66.1421 79.5404C67.9326 77.6683 65.355 76.4829 63.4516 77.8031C61.9182 78.816 61.313 80.7822 61.1719 82.1934L62.1189 86.7122C63.1851 87.6405 66.2017 88.8509 66.5529 86.3579C68.1741 88.5499 70.2437 85.9282 68.8545 84.1502C71.3851 84.4261 70.9712 81.0582 68.4406 81.4753" fill="#FFEBD9"/>
<path d="M53.925 51.3644C51.7551 48.4512 46.3929 45.9111 40.6952 45.8452C34.9974 45.9111 29.6353 48.4512 27.4653 51.3644C23.6052 56.5449 15.703 77.2732 17.5594 92.0088H63.2885C64.2574 70.3178 57.7883 56.5449 53.9282 51.3644" fill="#CFCFCC"/>
<path d="M44.3054 56.4791C47.0837 55.8425 49.8087 54.8233 52.3017 53.362C52.9508 52.9794 53.6595 52.5498 54.3588 52.0637C54.2114 51.8536 54.0703 51.6561 53.9292 51.4679C51.7592 48.5547 46.397 46.0146 40.6993 45.9487C35.0016 46.0177 29.6394 48.5547 27.4695 51.4679C27.1277 51.9258 26.7545 52.509 26.3594 53.1958C31.6714 56.3286 38.338 57.8526 44.3086 56.4791" fill="#B8B5B2"/>
<path d="M40.7161 59.9126C28.9193 59.9126 27.1632 87.5869 26.9531 92.0085H54.4759C54.2689 87.5869 52.5097 59.9126 40.7129 59.9126" fill="#FFEBD9"/>
<path d="M57.0886 86.8564C56.844 83.9212 56.4771 80.9986 56.0318 78.0885C55.4078 74.0243 54.5863 69.9947 53.6142 66.0027C53.8588 65.0306 54.2413 64.1807 54.7211 63.2964C55.0346 62.7194 54.1566 62.2051 53.8431 62.7821C53.5891 63.2462 53.3601 63.7072 53.1595 64.1776C52.8678 63.0393 52.5699 61.9009 52.2563 60.7689C52.0807 60.1354 51.0992 60.4051 51.2748 61.0386C52.8177 66.6111 54.0783 72.2557 54.9908 77.9662C55.4611 80.9139 55.8155 83.8805 56.0726 86.8533C56.22 88.578 56.2576 90.2903 56.2607 92.0056H57.2767C57.2736 90.2903 57.236 88.578 57.0949 86.8533" fill="#B8B5B2"/>
<path d="M29.0844 60.7721C28.7708 61.9073 28.4729 63.0456 28.1813 64.184C27.9806 63.7136 27.7486 63.2495 27.4977 62.7853C27.1842 62.2083 26.303 62.7226 26.6197 63.2996C27.1026 64.1839 27.4852 65.0369 27.7298 66.0122C26.764 70.0042 25.9455 74.0307 25.309 78.0917C24.8731 80.8701 24.5376 83.6642 24.2867 86.4645C24.1205 88.321 24.0766 90.1649 24.0703 92.0119H25.0863C25.0926 90.2966 25.1271 88.5844 25.2713 86.8597C25.5191 83.8837 25.8922 80.9203 26.3532 77.9725C27.2469 72.262 28.5294 66.6143 30.0691 61.0449C30.2447 60.4115 29.2632 60.1418 29.0876 60.7752" fill="#B8B5B2"/>
<path d="M21.6321 1.74802C18.073 -3.21298 13.2815 -11.9182 11.4534 -10.9304C9.37434 -9.80778 8.39913 -4.10044 10.2994 1.82641C12.0053 7.1449 15.0627 12.0275 19.2991 15.7906C22.1401 18.3118 30.1708 22.884 33.3191 19.331C33.3191 19.331 27.496 9.92018 21.6352 1.75116" fill="#CFCFCC"/>
<path d="M21.4209 6.63985C20.8564 5.67713 16.366 -1.15913 15.4754 1.036C13.7319 5.33846 16.6043 11.419 22.8288 16.0507C26.5573 18.826 31.5024 18.9357 30.9913 19.2242C30.6432 19.4218 22.0198 7.66529 21.4177 6.63671" fill="#B8B5B2"/>
<path d="M59.0316 1.74802C62.5875 -3.21298 67.379 -11.9182 69.2103 -10.9304C71.2894 -9.80778 72.2646 -4.10044 70.3643 1.82641C68.6584 7.1449 65.6011 12.0275 61.3678 15.7906C58.5267 18.3118 50.496 22.884 47.3477 19.331C47.3477 19.331 53.1739 9.92018 59.0316 1.75116" fill="#CFCFCC"/>
<path d="M59.2469 6.63985C59.8113 5.67713 64.3018 -1.15913 65.1892 1.036C66.9327 5.33846 64.0603 11.419 57.8358 16.0507C54.1073 18.826 49.1622 18.9357 49.6733 19.2242C50.0214 19.4218 58.6448 7.66529 59.2469 6.63671" fill="#B8B5B2"/>
<path d="M59.6822 31.5798C59.5066 29.507 58.9829 27.4781 58.224 25.5997C57.4244 23.6178 56.3018 21.9056 55.0161 20.3408C52.2127 16.9289 48.6536 14.3073 44.7559 13.0874C40.9584 11.902 35.1541 12.8114 31.457 14.4108C28.3306 15.7655 23.5047 19.1397 21.6295 23.8906C14.7559 41.3137 24.4141 53.4778 39.9268 53.4778C55.4395 53.4778 60.6543 43.0635 59.679 31.5798" fill="#CFCFCC"/>
<path d="M50.317 42.985C49.5581 41.7965 48.0874 40.6268 46.9429 40.1094C42.9981 38.3282 36.5979 38.6606 33.8196 39.6735C32.0605 40.3132 29.9532 41.7839 29.1254 43.8756C28.2097 46.193 29.1756 48.639 30.7215 50.1536C31.935 51.3422 33.4339 52.0948 34.9172 52.631C38.009 53.7505 41.1636 53.716 44.3307 52.9666C47.2188 52.2798 50.2417 50.7432 50.9284 47.093C51.2012 45.6411 51.0884 44.1986 50.3138 42.9818" fill="#FFEBD9"/>
<path d="M33.1158 16.0729C33.3197 16.7189 33.5235 17.3617 33.7273 18.0077C33.8872 18.5063 34.6712 18.2931 34.5144 17.7913C34.3106 17.1454 34.1067 16.5025 33.9029 15.8565C33.7461 15.3579 32.9591 15.5711 33.119 16.0729" fill="#FFEBD9"/>
<path d="M36.1563 15.6589C36.1626 16.3456 36.2754 17.023 36.3726 17.7035C36.4479 18.2209 37.2318 18.0014 37.1597 17.4871C37.0719 16.8819 36.9779 16.2767 36.9716 15.662C36.9653 15.1383 36.15 15.1352 36.1563 15.662" fill="#FFEBD9"/>
<path d="M39.5157 15.3518C39.5219 16.073 39.616 16.788 39.732 17.4967C39.8167 18.0141 40.6038 17.7946 40.5191 17.2803C40.4157 16.6406 40.3373 16.0009 40.331 15.3518C40.3247 14.8281 39.5094 14.8281 39.5157 15.3518Z" fill="#FFEBD9"/>
<path d="M43.8104 15.5491C43.616 16.1449 43.4874 16.7658 43.3682 17.3805C43.2679 17.8947 44.0518 18.1111 44.1553 17.5968C44.2745 16.9822 44.403 16.3613 44.5943 15.7623C44.7574 15.2606 43.9703 15.0473 43.8104 15.546" fill="#FFEBD9"/>
<path d="M46.8626 16.2642C46.7654 16.951 46.665 17.6378 46.4549 18.2994C46.295 18.8012 47.0821 19.0144 47.242 18.5158C47.4521 17.8541 47.5525 17.1674 47.6497 16.4806C47.7249 15.9663 46.9378 15.7468 46.8626 16.2642Z" fill="#FFEBD9"/>
<path d="M37.0554 20.8458C37.0554 20.8458 37.0523 20.8238 37.0491 20.8144C36.9206 20.3942 36.19 20.4506 36.2495 20.9242C36.3279 21.5294 36.56 22.1315 36.7795 22.6928C36.9676 23.1757 37.7578 22.9656 37.5634 22.4764C37.4223 22.1127 37.2938 21.7458 37.1871 21.3726C37.1495 21.2472 37.1181 21.1186 37.0868 20.99C37.0742 20.943 37.0366 20.7109 37.0648 20.9242C36.7983 20.9618 36.5317 20.9963 36.2652 21.0339C36.2652 21.0433 36.2715 21.0559 36.2715 21.0653C36.3781 21.5796 37.162 21.3601 37.0586 20.8489" fill="#FFEBD9"/>
<path d="M39.5149 20.8522C39.5149 21.3319 39.5243 21.8149 39.6309 22.2853C39.75 22.7964 40.534 22.58 40.4148 22.0689C40.3239 21.6706 40.3271 21.2598 40.3271 20.8522C40.3271 20.3253 39.5117 20.3253 39.5117 20.8522" fill="#FFEBD9"/>
<path d="M43.1972 20.6419C42.962 21.2848 42.9808 22.0092 42.9808 22.6834C42.9808 23.2103 43.7961 23.2103 43.7961 22.6834C43.7961 22.0751 43.7742 21.4385 43.9843 20.8552C44.1661 20.3629 43.3759 20.1496 43.1972 20.6388" fill="#FFEBD9"/>
<path d="M37.8868 25.4333C37.893 26.026 37.9965 26.6187 38.2066 27.1706C38.3916 27.6567 39.1787 27.4466 38.9906 26.9542C38.8055 26.465 38.7083 25.957 38.702 25.4333C38.6958 24.9096 37.8805 24.9096 37.8868 25.4333Z" fill="#FFEBD9"/>
<path d="M41.4503 25.2641C41.4441 25.7627 41.3531 26.2613 41.2622 26.7505C41.165 27.2648 41.9521 27.4843 42.0493 26.9669C42.1528 26.4087 42.2594 25.8317 42.2688 25.2641C42.275 24.7372 41.4598 24.7404 41.4535 25.2641" fill="#FFEBD9"/>
<path d="M39.5146 29.1748C39.4739 29.7455 39.3735 30.4229 39.5303 30.9811C39.6714 31.486 40.4585 31.2727 40.3143 30.7647C40.192 30.3319 40.2923 29.664 40.33 29.1748C40.3676 28.6511 39.5523 28.6542 39.5146 29.1748Z" fill="#FFEBD9"/>
<path d="M39.9955 41.3108C40.7857 40.8247 41.2906 39.4794 41.2372 38.9776C41.2153 38.7644 40.9927 38.6703 40.8578 38.6546C40.1836 38.5794 39.4562 38.5543 38.8353 38.6641C38.7224 38.686 38.6126 38.8052 38.6095 38.9996C38.6032 39.4574 38.9356 40.7557 39.9986 41.3108" fill="#332B21"/>
<path d="M30.0451 36.2364C29.6218 36.0263 29.1702 36.0921 28.8504 36.365C28.6215 36.5029 28.4334 36.7413 28.3267 37.0015C28.0571 37.6475 28.4333 38.2716 29.0574 38.4754C29.6783 38.6792 30.2772 38.513 30.5626 37.9078C30.8197 37.3653 30.6002 36.5123 30.0451 36.2364Z" fill="#332B21"/>
<path d="M50.1269 36.2364C50.5503 36.0263 51.0018 36.0921 51.3216 36.365C51.5506 36.5029 51.7387 36.7413 51.8453 37.0015C52.115 37.6475 51.7387 38.2716 51.1147 38.4754C50.4938 38.6792 49.8949 38.513 49.6095 37.9078C49.3555 37.3653 49.5719 36.5123 50.1269 36.2364Z" fill="#332B21"/>
<path d="M38.2846 44.5125C39.5263 45.9676 41.7214 45.654 42.499 43.9073C42.6558 43.5498 42.1322 43.2394 41.9722 43.6C41.3482 45.0017 39.7208 45.2557 38.7173 44.0798C38.4602 43.7787 38.0306 44.2146 38.2846 44.5125Z" fill="#332B21"/>
<path d="M56.3306 40.533C56.3306 39.4981 54.8975 38.6577 53.1321 38.6577C51.3666 38.6577 49.9336 39.4981 49.9336 40.533C49.9336 41.5678 51.3666 42.4083 53.1321 42.4083C54.8975 42.4083 56.3306 41.5678 56.3306 40.533Z" fill="#FF8F66"/>
<path d="M23.5195 40.533C23.5195 39.4981 24.9526 38.6577 26.718 38.6577C28.4835 38.6577 29.9165 39.4981 29.9165 40.533C29.9165 41.5678 28.4835 42.4083 26.718 42.4083C24.9526 42.4083 23.5195 41.5678 23.5195 40.533Z" fill="#FF8F66"/>
<path d="M32.4709 31.3947C30.533 30.7111 28.6578 30.7361 27.1871 32.3135C26.8296 32.6961 27.4035 33.2762 27.7641 32.8905C29.0435 31.5138 30.5989 31.5954 32.2546 32.1818C32.75 32.3574 32.9632 31.5703 32.4709 31.3947Z" fill="#FFEBD9"/>
<path d="M47.598 32.1819C49.2569 31.5955 50.8091 31.5171 52.0916 32.8937C52.4491 33.2794 53.0261 32.7024 52.6655 32.3167C51.1948 30.7362 49.3196 30.7111 47.3817 31.3979C46.8894 31.5735 47.0995 32.3606 47.598 32.185" fill="#FFEBD9"/>
</g>
</svg>
