<svg width="80" height="81" viewBox="0 0 80 81" fill="none" xmlns="http://www.w3.org/2000/svg">
<path d="M40 0.60791C17.9084 0.60791 0 18.4929 0 40.5555C0 62.6182 17.9084 80.5001 40 80.5001C62.0916 80.5001 80 62.6151 80 40.5555C80 18.496 62.0916 0.60791 40 0.60791Z" fill="#F05C5C"/>
<mask id="mask0_5374_204883" style="mask-type:luminance" maskUnits="userSpaceOnUse" x="0" y="0" width="80" height="81">
<path d="M0 40.4476C0 62.5072 17.9084 80.3922 40 80.3922C62.0916 80.3922 80 62.5072 80 40.4476C80 18.3881 62.0916 0.5 40 0.5C17.9084 0.5 0 18.385 0 40.4476Z" fill="white"/>
</mask>
<g mask="url(#mask0_5374_204883)">
<path d="M66.787 82.4368C67.0755 81.8168 68.0507 82.8721 68.1636 83.1603C68.3141 83.5548 68.311 83.9901 68.242 84.4098C67.9347 84.3346 67.643 84.1718 67.4016 83.9557C67.0567 83.6519 66.5612 82.9254 66.7901 82.4368M71.2178 81.8105C71.1677 80.5422 70.528 79.3991 69.1514 79.5338C68.634 79.5839 68.6277 80.3981 69.1514 80.348C71.0861 80.1632 70.4997 83.4515 69.4398 84.2031C69.3207 84.2877 69.1953 84.3472 69.0698 84.391C69.1796 83.5016 68.9852 82.5402 68.2765 81.9452C67.6462 81.4159 66.602 81.3157 66.0877 82.0297C65.5703 82.75 66.2319 83.8555 66.696 84.4004C67.0378 84.8044 67.5239 85.0894 68.0444 85.2115C67.3546 87.1281 65.2442 86.8306 63.8048 85.7063C63.3972 85.3869 62.8139 85.96 63.2279 86.2825C64.4508 87.2377 65.9591 87.8609 67.4737 87.1845C68.1949 86.8619 68.6402 86.0414 68.8786 85.2616C69.142 85.2303 69.4022 85.152 69.6437 85.0205C70.8196 84.3753 71.268 83.1039 71.2178 81.8168" fill="#FFB5A6"/>
<path d="M54.4074 52.9898C52.1057 50.0805 46.4206 47.5438 40.381 47.478C34.3415 47.5438 28.6564 50.0805 26.3547 52.9898C22.2625 58.1633 13.8868 78.8605 15.853 93.5794H64.329C65.3575 71.9176 58.4996 58.1633 54.4074 52.9898Z" fill="#FFB5A6"/>
<path d="M44.2076 57.9942C47.1521 57.3585 50.0402 56.3407 52.6836 54.8813C53.3735 54.4992 54.1229 54.0702 54.863 53.5848C54.7093 53.375 54.5557 53.1745 54.4083 52.9898C52.1066 50.0805 46.4215 47.5438 40.382 47.478C34.3424 47.5469 28.6573 50.0805 26.3556 52.9898C25.995 53.447 25.5967 54.0295 25.1797 54.7153C30.8115 57.8439 37.8765 59.3659 44.2076 57.9942Z" fill="#F29685"/>
<path d="M40.3801 60.4775C28.5833 60.4775 26.8273 89.1637 26.6172 93.5793H54.1399C53.933 89.1637 52.1738 60.4775 40.377 60.4775" fill="#FFEBD9"/>
<path d="M57.3659 88.4341C57.1213 85.5028 56.7544 82.5841 56.3092 79.6779C55.6851 75.6193 54.8636 71.5951 53.8915 67.6084C54.1361 66.6376 54.5186 65.7889 54.9984 64.9058C55.312 64.3296 54.434 63.816 54.1204 64.3922C53.8664 64.8557 53.6375 65.3161 53.4368 65.7858C53.1452 64.649 52.8473 63.5122 52.5337 62.3817C52.3581 61.7491 51.3766 62.0184 51.5522 62.651C53.0919 68.216 54.3556 73.853 55.2681 79.5558C55.7384 82.4995 56.0928 85.4621 56.3499 88.4309C56.5004 90.1534 56.5349 91.8633 56.5381 93.5763H57.5541C57.5478 91.8601 57.5133 90.1534 57.3691 88.4309" fill="#D96E5C"/>
<path d="M28.1391 62.3815C27.8255 63.5151 27.5276 64.6519 27.236 65.7887C27.0353 65.3158 26.8064 64.8555 26.5524 64.392C26.2388 63.8158 25.3577 64.3294 25.6744 64.9056C26.1573 65.7887 26.5399 66.6406 26.7844 67.6145C25.8186 71.6011 25.0002 75.6222 24.3636 79.6777C23.9278 82.4524 23.5922 85.2427 23.3414 88.0393C23.1752 89.8932 23.1313 91.7347 23.125 93.5792H24.141C24.1473 91.8662 24.1818 90.1563 24.326 88.4339C24.5737 85.4619 24.9469 82.5025 25.4079 79.5587C26.3016 73.8559 27.5841 68.2158 29.1237 62.6539C29.2994 62.0213 28.3179 61.752 28.1422 62.3846" fill="#D96E5C"/>
<path d="M31.2021 19.3399C31.108 18.8545 27.3827 13.3145 22.8421 9.35294C21.9892 8.60761 20.3617 7.76518 19.7094 8.64518C18.8722 9.77572 19.33 13.8438 20.023 16.2614C20.901 19.3211 22.2149 22.2962 23.7954 24.6261L31.2021 19.343V19.3399Z" fill="#FFB5A6"/>
<path d="M25.4368 23.6301L27.381 22.0893C27.2963 21.8826 27.2085 21.6853 27.127 21.4943C26.6942 20.4953 26.2207 19.5339 25.7378 18.5912C25.048 17.2446 24.2922 15.9481 23.4236 14.8426C23.0316 14.3447 22.5832 13.8499 22.0721 13.5931C21.7993 13.4553 21.3979 13.3425 21.169 13.8029C20.9683 14.2069 21.0248 14.78 21.0749 15.1808C21.1596 15.851 21.3603 16.4899 21.5516 17.088C21.6801 17.492 21.8244 17.8803 21.978 18.2593C22.0063 18.3313 22.0345 18.4065 22.0627 18.4785C22.602 19.8408 23.2574 21.1342 24.0853 22.1363C24.5149 22.6561 24.957 23.1917 25.4368 23.6332" fill="#FFEBD9"/>
<path d="M48.6172 19.3399C48.7113 18.8545 52.4366 13.3145 56.9772 9.35294C57.8301 8.60761 59.4576 7.76518 60.1098 8.64518C60.9471 9.77572 60.4924 13.8438 59.7962 16.2614C58.9182 19.3211 57.6075 22.2962 56.0239 24.6261L48.6172 19.343V19.3399Z" fill="#FFB5A6"/>
<path d="M54.3778 23.6301L52.4336 22.0893C52.5183 21.8826 52.6029 21.6853 52.6876 21.4943C53.1203 20.4953 53.5938 19.5339 54.0767 18.5912C54.7666 17.2446 55.5223 15.9481 56.3909 14.8426C56.7829 14.3447 57.2313 13.8499 57.7425 13.5931C58.0153 13.4553 58.4167 13.3425 58.6456 13.8029C58.8463 14.2069 58.7929 14.78 58.7396 15.1808C58.655 15.851 58.4543 16.4899 58.263 17.088C58.1344 17.492 57.9902 17.8803 57.8365 18.2593C57.8083 18.3313 57.7832 18.4065 57.7519 18.4785C57.2125 19.8408 56.5571 21.1342 55.7293 22.1363C55.2997 22.6561 54.8575 23.1917 54.3778 23.6332" fill="#FFEBD9"/>
<path d="M61.3214 31.4878C58.7752 18.3253 43.8551 12.0088 30.8479 16.5152C13.9022 22.3871 14.429 46.8267 30.503 53.4815C34.1468 54.991 38.6905 55.3793 42.6792 55.182C55.0561 54.5745 63.6137 43.338 61.3183 31.4846" fill="#FFB5A6"/>
<path d="M45.5254 37.8983C45.1303 37.2124 44.3526 36.5297 43.7443 36.2228C41.6402 35.158 38.1908 35.2677 36.6825 35.8094C35.7261 36.1508 34.5753 36.9619 34.1049 38.1425C33.5844 39.4516 34.0767 40.8546 34.8889 41.7346C35.5286 42.4267 36.325 42.8714 37.1184 43.1971C38.771 43.8735 40.4706 43.8954 42.1858 43.504C43.7506 43.1501 45.3969 42.3139 45.8108 40.247C45.9739 39.4234 45.9299 38.6029 45.5286 37.9014" fill="#F29685"/>
<path d="M37.7999 38.5934C37.4173 38.4055 37.0128 38.465 36.7243 38.7061C36.5174 38.8314 36.348 39.0443 36.2508 39.2792C36.0094 39.8617 36.348 40.4223 36.9094 40.6039C37.4707 40.7855 38.01 40.6383 38.264 40.0934C38.4929 39.6049 38.2985 38.8376 37.7999 38.5902" fill="#D96E5C"/>
<path d="M42.9913 38.5934C42.6119 38.4055 42.2042 38.465 41.9157 38.7061C41.7088 38.8314 41.5394 39.0443 41.4422 39.2792C41.2008 39.8617 41.5394 40.4223 42.1007 40.6039C42.662 40.7855 43.2014 40.6383 43.4554 40.0934C43.6843 39.6049 43.4899 38.8376 42.9913 38.5902" fill="#D96E5C"/>
<path d="M41.5369 45.3483C40.7781 46.6824 39.1318 46.7764 38.2506 45.508C38.0248 45.1855 37.5545 45.5738 37.7771 45.8963C38.8715 47.4653 41.0854 47.3651 42.0292 45.7084C42.2205 45.3702 41.7282 45.007 41.5338 45.3514" fill="#332B21"/>
<path d="M56.3032 42.3264C56.3032 41.2929 54.8702 40.4536 53.1047 40.4536C51.3393 40.4536 49.9062 41.2929 49.9062 42.3264C49.9062 43.3598 51.3393 44.1991 53.1047 44.1991C54.8702 44.1991 56.3032 43.3598 56.3032 42.3264Z" fill="#FF8F66"/>
<path d="M23.4961 42.3264C23.4961 41.2929 24.9291 40.4536 26.6946 40.4536C28.46 40.4536 29.8931 41.2929 29.8931 42.3264C29.8931 43.3598 28.46 44.1991 26.6946 44.1991C24.9291 44.1991 23.4961 43.3598 23.4961 42.3264Z" fill="#FF8F66"/>
<path d="M30.0256 37.6319C29.6023 37.4221 29.1507 37.4879 28.8309 37.7572C28.602 37.895 28.4138 38.133 28.3072 38.3929C28.0375 39.0381 28.4138 39.6613 29.0379 39.8648C29.6587 40.0684 30.2577 39.9024 30.543 39.298C30.797 38.7562 30.5806 37.9044 30.0256 37.6319Z" fill="#332B21"/>
<path d="M50.1074 37.6319C50.5307 37.4221 50.9823 37.4879 51.3021 37.7572C51.531 37.895 51.7192 38.133 51.8258 38.3929C52.0955 39.0381 51.7192 39.6613 51.0952 39.8648C50.4743 40.0684 49.8754 39.9024 49.59 39.298C49.336 38.7562 49.5524 37.9044 50.1074 37.6319Z" fill="#332B21"/>
<path d="M32.4436 32.7967C30.5057 32.1109 28.6305 32.136 27.1598 33.7143C26.8023 34.0964 27.3762 34.6757 27.7368 34.2906C29.0193 32.9157 30.5715 32.9972 32.2303 33.5828C32.7258 33.7582 32.939 32.9721 32.4467 32.7967" fill="#FFEBD9"/>
<path d="M47.5737 33.5828C49.2326 32.9972 50.7848 32.9189 52.0642 34.2906C52.4216 34.6757 52.9986 34.0995 52.6411 33.7143C51.1705 32.136 49.2953 32.1109 47.3574 32.7967C46.865 32.9721 47.0783 33.7582 47.5737 33.5828Z" fill="#FFEBD9"/>
<path d="M35.6041 19.2837C38.2256 18.576 41.1168 18.7419 43.754 19.2837C44.9142 19.5217 45.4097 17.7461 44.2463 17.5081C41.2798 16.8974 38.0625 16.7126 35.1149 17.5081C33.9672 17.8181 34.4564 19.5938 35.6072 19.2837" fill="#F29685"/>
<path d="M37.6652 23.508C39.1766 23.4015 40.6818 23.4986 42.1964 23.508C43.3848 23.5174 43.3848 21.6729 42.1964 21.6666C40.6849 21.6572 39.1766 21.557 37.6652 21.6666C36.4861 21.7511 36.4767 23.5926 37.6652 23.508Z" fill="#F29685"/>
<path d="M38.7726 27.6077C39.4813 27.6077 40.1868 27.6171 40.8924 27.6986C41.3941 27.7581 41.8143 27.2351 41.8143 26.7779C41.8143 26.2298 41.391 25.9135 40.8924 25.854C40.1868 25.7726 39.4813 25.7632 38.7726 25.7632C37.581 25.7632 37.581 27.6046 38.7726 27.6077Z" fill="#F29685"/>
</g>
</svg>
