<svg width="80" height="81" viewBox="0 0 80 81" fill="none" xmlns="http://www.w3.org/2000/svg">
<circle cx="40" cy="40.5" r="40" fill="#FF8E01"/>
<mask id="mask0_5374_204615" style="mask-type:luminance" maskUnits="userSpaceOnUse" x="0" y="0" width="80" height="81">
<path d="M40 0.5C17.9084 0.5 0 18.4091 0 40.5016C0 62.594 17.9084 80.5 40 80.5C62.0916 80.5 80 62.5909 80 40.5016C80 18.4123 62.0916 0.5 40 0.5Z" fill="white"/>
</mask>
<g mask="url(#mask0_5374_204615)">
<path d="M64.5278 79.4119C66.8859 77.7624 64.8006 73.8488 62.5992 75.075C62.8721 72.1962 61.8655 70.6471 58.6137 69.8882C60.3603 75.6112 55.5469 89.2273 55.5469 89.2273C57.8046 89.8388 61.0251 87.6248 62.6557 86.3203C64.5873 84.7712 67.4378 80.8983 64.5278 79.4151" fill="#FFEBD9"/>
<path d="M56.6248 88.6817C57.321 87.8915 58.014 87.1169 58.616 86.2483C59.8108 84.5204 60.8362 82.6326 61.3504 80.5848C62.2755 76.9158 61.1153 73.6764 58.8512 70.9639C59.8139 77.151 55.543 89.2274 55.543 89.2274C55.7123 89.2713 55.8848 89.2995 56.0635 89.3152C56.2517 89.1082 56.4367 88.8981 56.6248 88.6848" fill="#BF824D"/>
<path d="M50.0681 60.8441C48.218 58.1001 43.646 55.7043 38.7887 55.6416C33.9314 55.7043 29.3594 58.097 27.5093 60.8441C24.2199 65.7267 17.4842 85.2571 19.0647 99.146H58.0455C58.8702 78.7062 53.3575 65.7267 50.0681 60.8441Z" fill="#BF824D"/>
<path d="M35.2053 63.5127C38.1247 63.7636 41.3953 63.7165 44.5625 63.2305C46.7638 62.8918 49.1156 61.9604 50.1034 60.8974C50.0908 60.8786 50.0783 60.8629 50.0658 60.8441C48.2157 58.1001 43.6437 55.7043 38.7864 55.6416C33.929 55.7043 29.3571 58.097 27.507 60.8441C27.438 60.9444 27.369 61.0573 27.2969 61.1702C29.633 62.3211 32.6026 63.2901 35.2022 63.5127" fill="#A86B38"/>
<path d="M48.3497 91.0176C46.9543 78.9068 43.8875 68.8405 38.7668 68.8154C33.6461 68.8374 30.5762 78.9036 29.1839 91.0176C28.8797 93.6486 28.5755 96.634 28.4219 99.149H49.1117C48.955 96.634 48.6508 93.6518 48.3497 91.0176Z" fill="#FFEBD9"/>
<path d="M50.9483 85.916C51.3905 88.6945 51.726 91.4885 51.9675 94.292C52.1086 95.9164 52.1399 97.5314 52.1431 99.1496H53.0995C53.0932 97.5314 53.0618 95.9196 52.927 94.292C52.6981 91.5262 52.35 88.7729 51.9298 86.0289C51.0863 80.5223 49.8571 75.0784 48.3707 69.7097C48.2045 69.1139 47.2795 69.3679 47.4457 69.9637C48.8975 75.2164 50.0891 80.5348 50.9452 85.916" fill="#A86B38"/>
<path d="M49.8702 71.6067C49.3591 72.5444 48.9451 73.4632 48.6943 74.5074C48.5532 75.1095 49.4782 75.3635 49.6193 74.7615C49.8483 73.7956 50.2214 72.9583 50.6949 72.0897C50.9928 71.5472 50.1618 71.0611 49.8671 71.6067" fill="#A86B38"/>
<path d="M25.4556 99.1493C25.4588 97.5311 25.4933 95.9193 25.6281 94.2949C25.8602 91.4914 26.2114 88.6973 26.6472 85.9189C27.4908 80.5377 28.698 75.2161 30.1468 69.9666C30.313 69.3676 29.3879 69.1167 29.2217 69.7126C27.7354 75.0844 26.5249 80.5251 25.6626 86.0318C25.2518 88.6503 24.9351 91.2844 24.6999 93.9249C24.5431 95.6747 24.5024 97.412 24.4961 99.1524H25.4556V99.1493Z" fill="#A86B38"/>
<path d="M26.9033 72.0897C27.3768 72.9584 27.75 73.7957 27.9789 74.7615C28.12 75.3636 29.0451 75.1096 28.904 74.5075C28.6562 73.4633 28.2423 72.5445 27.7312 71.6068C27.4364 71.0643 26.6054 71.5472 26.9033 72.0897Z" fill="#A86B38"/>
<path d="M21.5094 19.5948C18.4583 18.5569 14.225 18.3405 14.2344 18.9457C14.2438 19.7391 16.3542 21.9781 18.3046 23.4583C20.7035 25.2771 26.3667 29.1437 28.9224 26.036C29.6687 25.1297 26.0594 21.1408 21.5094 19.5948Z" fill="#BF824D"/>
<path d="M20.5145 22.6143C20.4204 24.0348 22.7284 25.4428 23.8228 25.9038C24.5753 26.2237 25.3467 26.4808 26.0931 26.8101C26.9491 26.6815 27.6954 26.324 28.2411 25.6404C27.7895 25.3676 27.3286 25.1073 26.9021 24.7968C26.0429 24.1759 25.1868 23.5394 24.2837 22.978C23.7036 22.6174 20.6274 20.8832 20.5145 22.6143Z" fill="#A86B38"/>
<path d="M55.4511 19.5948C58.5022 18.5569 62.7324 18.3405 62.7261 18.9457C62.7167 19.7391 60.6063 21.9781 58.6527 23.4583C56.2539 25.2771 50.5906 29.1437 48.035 26.036C47.2918 25.1297 50.898 21.1408 55.4511 19.5948Z" fill="#BF824D"/>
<path d="M56.4453 22.6143C56.5394 24.0348 54.2314 25.4428 53.1371 25.9038C52.3845 26.2237 51.6131 26.4808 50.8668 26.8101C50.0107 26.6815 49.2644 26.324 48.7188 25.6404C49.1703 25.3676 49.6313 25.1073 50.0577 24.7968C50.9169 24.1759 51.773 23.5394 52.6761 22.978C53.2562 22.6174 56.3324 20.8832 56.4453 22.6143Z" fill="#A86B38"/>
<path d="M24.5469 10.5285C25.1521 10.5536 25.7416 11.2843 26.1963 11.6198C26.6729 11.971 27.3722 12.2783 27.5666 11.5132C27.7516 10.7794 27.6137 9.93896 27.5478 9.19888C27.4757 8.36473 27.3816 7.52745 27.4098 6.69016C27.4286 6.17587 27.4945 5.51733 27.9429 5.18493C28.7112 4.61106 29.1377 6.95044 29.2066 7.27657C29.5578 8.89156 29.746 10.541 30.1536 12.1435C30.2791 12.6327 30.4076 13.3257 30.8498 13.6393C31.4863 14.094 32.6623 13.1219 33.1954 12.8303C33.6689 12.5731 34.2772 12.4445 34.3305 13.1627C34.3901 13.9655 33.4368 14.4766 32.9727 15.0818C32.333 15.9128 31.7058 16.6686 31.2386 17.6313C30.8027 18.5251 30.9313 19.6038 31.1884 20.5289C31.5741 21.915 35.7165 26.4495 31.9536 26.4997C28.5607 26.5436 28.3067 19.861 28.0872 17.832C28.0339 17.3554 28.0558 16.7407 27.8269 16.3268C27.6576 16.0195 27.4161 15.7466 27.1903 15.4801C26.6039 14.7902 25.9705 14.1379 25.3747 13.4543C24.9012 12.9118 24.3964 12.3379 24.1267 11.6668C23.9793 11.3062 23.9918 10.5097 24.55 10.5348" fill="#FFEBD9"/>
<path d="M52.4128 10.5285C51.8076 10.5536 51.2181 11.2843 50.7634 11.6198C50.2868 11.971 49.5875 12.2783 49.3931 11.5132C49.2081 10.7794 49.3461 9.93896 49.4119 9.19888C49.484 8.36473 49.5812 7.52745 49.5499 6.69016C49.5342 6.17587 49.4652 5.51733 49.0199 5.18493C48.2517 4.61106 47.8252 6.95044 47.7562 7.27657C47.405 8.89156 47.2169 10.541 46.8092 12.1435C46.6838 12.6327 46.5552 13.3257 46.1131 13.6393C45.4765 14.094 44.3037 13.1219 43.7706 12.8303C43.2971 12.5731 42.6888 12.4445 42.6355 13.1627C42.5759 13.9655 43.5292 14.4766 43.9933 15.0818C44.633 15.9128 45.2601 16.6686 45.7274 17.6313C46.1601 18.5251 46.0347 19.6038 45.7775 20.5289C45.3918 21.915 41.2495 26.4495 45.0124 26.4997C48.4053 26.5436 48.6593 19.861 48.8788 17.832C48.929 17.3554 48.9102 16.7407 49.1391 16.3268C49.3084 16.0195 49.5499 15.7466 49.7757 15.4801C50.362 14.7902 50.9955 14.1379 51.5913 13.4543C52.0648 12.9118 52.5696 12.3379 52.8393 11.6668C52.9836 11.3062 52.9741 10.5097 52.416 10.5348" fill="#FFEBD9"/>
<path d="M57.1785 38.8334C57.0123 35.2083 56.2001 31.2947 54.0333 28.394C48.1976 20.5825 32.2961 20.1372 25.0775 26.2083C22.8386 28.093 21.4243 30.8149 20.6717 33.6937C18.8216 40.7714 19.4425 52.4182 25.573 57.7492C33.2556 64.4287 44.811 62.2085 47.8339 60.8036C54.1431 57.8746 56.8179 51.1074 57.1064 44.0296C57.1283 43.5153 57.1283 42.9979 57.1126 42.4805C57.2098 41.2669 57.2318 40.047 57.1785 38.8334Z" fill="#BF824D"/>
<path d="M46.6537 50.7214C46.0799 49.6678 44.951 48.6172 44.0667 48.1437C41.0156 46.5099 36.0078 46.6761 33.8221 47.5071C32.4361 48.034 30.7648 49.2789 30.0812 51.0915C29.3254 53.1016 30.0373 55.2591 31.2194 56.6138C32.1476 57.6737 33.3047 58.3636 34.4556 58.8622C36.8513 59.9034 39.3192 59.9316 41.8058 59.3358C44.073 58.7932 46.4625 57.5075 47.0614 54.3277C47.2997 53.064 47.237 51.8002 46.6506 50.7214" fill="#FFEBD9"/>
<path d="M29.1694 45.8641C28.7711 45.6666 28.3446 45.7293 28.0436 45.9833C27.8272 46.115 27.6516 46.3376 27.5482 46.5822C27.2942 47.1906 27.6485 47.777 28.238 47.9714C28.8244 48.1627 29.3889 48.0059 29.6554 47.4383C29.8969 46.9272 29.6899 46.1244 29.1694 45.8641Z" fill="#332B21"/>
<path d="M48.0927 45.8641C48.491 45.6666 48.9174 45.7293 49.2185 45.9833C49.4348 46.115 49.6105 46.3376 49.7139 46.5822C49.9679 47.1906 49.6136 47.777 49.0241 47.9714C48.4377 48.1627 47.8732 48.0059 47.6067 47.4383C47.3684 46.9272 47.5722 46.1244 48.0959 45.8641" fill="#332B21"/>
<path d="M38.546 49.878C39.2923 49.4201 39.7689 48.1501 39.7156 47.6766C39.6937 47.4759 39.4867 47.3881 39.3582 47.3755C38.7216 47.3065 38.0349 47.2815 37.4516 47.3849C37.345 47.4038 37.2415 47.5198 37.2384 47.7017C37.2321 48.1344 37.5457 49.3543 38.546 49.878Z" fill="#332B21"/>
<path d="M36.9351 53.6662C38.1047 55.0397 40.1743 54.7418 40.905 53.0955C41.0555 52.7599 40.5569 52.4651 40.4064 52.8038C39.82 54.1272 38.2835 54.3655 37.3396 53.2585C37.0981 52.9763 36.6936 53.384 36.932 53.6662" fill="#332B21"/>
<path d="M53.941 50.2948C53.941 49.3195 52.5926 48.5293 50.9275 48.5293C49.2624 48.5293 47.9141 49.3195 47.9141 50.2948C47.9141 51.2701 49.2624 52.0603 50.9275 52.0603C52.5926 52.0603 53.941 51.2701 53.941 50.2948Z" fill="#FF8F66"/>
<path d="M23.0195 50.2948C23.0195 49.3195 24.3679 48.5293 26.033 48.5293C27.6981 48.5293 29.0465 49.3195 29.0465 50.2948C29.0465 51.2701 27.6981 52.0603 26.033 52.0603C24.3679 52.0603 23.0195 51.2701 23.0195 50.2948Z" fill="#FF8F66"/>
<path d="M32.803 25.1765C32.6556 24.7061 31.9125 24.9068 32.063 25.3804C32.2543 25.9887 32.4455 26.5971 32.64 27.2055C32.7873 27.6758 33.5305 27.4752 33.38 27.0016C33.1887 26.3933 32.9974 25.7849 32.803 25.1797" fill="#A86B38"/>
<path d="M35.8728 26.7133C35.7913 26.1395 35.7004 25.5719 35.6941 24.9917C35.6878 24.4962 34.9195 24.4962 34.9258 24.9917C34.9321 25.6377 35.0387 26.2774 35.1296 26.9172C35.1986 27.4064 35.9387 27.1963 35.8697 26.7133" fill="#A86B38"/>
<path d="M38.862 24.7031C38.8557 24.2077 38.0906 24.2077 38.0938 24.7031C38.1 25.3836 38.191 26.0547 38.3007 26.7258C38.3823 27.215 39.1223 27.0049 39.0408 26.522C38.9404 25.9199 38.8683 25.3146 38.862 24.7031Z" fill="#A86B38"/>
<path d="M42.1401 24.888C41.9583 25.4493 41.836 26.0357 41.7231 26.6158C41.629 27.0988 42.3691 27.3057 42.4631 26.8197C42.576 26.2395 42.6983 25.6563 42.8802 25.0918C43.0338 24.6183 42.2907 24.4176 42.1401 24.888Z" fill="#A86B38"/>
<path d="M45.0191 25.5589C44.9281 26.2081 44.8341 26.8541 44.6334 27.4781C44.4828 27.9516 45.2229 28.1523 45.3734 27.682C45.571 27.0579 45.665 26.4088 45.756 25.7628C45.825 25.2799 45.0849 25.0697 45.0159 25.5589" fill="#A86B38"/>
<path d="M35.9035 30.3729C35.8691 30.2537 35.8377 30.1345 35.8095 30.0122C35.8001 29.9777 35.7781 29.8523 35.7781 29.8711C35.7781 29.8648 35.775 29.8554 35.7718 29.8492C35.6496 29.454 34.9597 29.5073 35.0193 29.9526C35.0224 29.9871 35.0287 30.0216 35.0349 30.053C35.0349 30.0624 35.0412 30.0718 35.0412 30.0844C35.0412 30.0844 35.0412 30.0844 35.0412 30.0875C35.129 30.6112 35.3297 31.1317 35.521 31.6178C35.6997 32.0725 36.4429 31.875 36.261 31.414C36.1262 31.0722 36.007 30.7241 35.9035 30.3729Z" fill="#A86B38"/>
<path d="M38.862 29.8867C38.862 29.3913 38.0938 29.3913 38.0938 29.8867C38.0938 30.3383 38.1032 30.793 38.2035 31.2352C38.3133 31.7181 39.0564 31.5143 38.9435 31.0313C38.8557 30.655 38.862 30.2693 38.862 29.8867Z" fill="#A86B38"/>
<path d="M41.5666 29.6892C41.3439 30.2945 41.3596 30.9781 41.3596 31.6147C41.3596 32.1101 42.1279 32.1101 42.1279 31.6147C42.1279 31.0408 42.1059 30.4387 42.3066 29.8931C42.4759 29.4258 41.7328 29.2282 41.5666 29.6892Z" fill="#A86B38"/>
<path d="M37.3308 34.2046C37.3245 33.7091 36.5563 33.7091 36.5625 34.2046C36.5688 34.7628 36.666 35.321 36.8636 35.8416C37.036 36.2994 37.7824 36.1018 37.6036 35.6377C37.4249 35.1767 37.3339 34.6969 37.3277 34.2046" fill="#A86B38"/>
<path d="M39.9208 34.0449C39.9146 34.5153 39.8299 34.9857 39.7421 35.4467C39.6512 35.9296 40.3912 36.1366 40.4821 35.6505C40.5793 35.1237 40.6797 34.5812 40.6891 34.0449C40.6954 33.5495 39.9271 33.5495 39.9208 34.0449Z" fill="#A86B38"/>
<path d="M38.862 37.7294C38.8965 37.2371 38.1282 37.2402 38.0937 37.7294C38.0561 38.2688 37.9589 38.9054 38.1063 39.4322C38.2411 39.9089 38.9811 39.705 38.8463 39.2284C38.7334 38.8207 38.8275 38.1935 38.8589 37.7294" fill="#A86B38"/>
<path d="M31.4539 41.3046C29.6289 40.6586 27.8603 40.6837 26.4743 42.1701C26.1357 42.5307 26.6781 43.0764 27.0168 42.7126C28.2241 41.4143 29.6885 41.4896 31.2501 42.0447C31.7173 42.2109 31.918 41.4676 31.4539 41.3046Z" fill="#FFEBD9"/>
<path d="M45.7132 42.0446C47.2749 41.4926 48.7393 41.4174 49.9465 42.7125C50.2852 43.0763 50.8246 42.5306 50.489 42.17C49.103 40.6804 47.3344 40.6585 45.5094 41.3045C45.0453 41.4675 45.246 42.2108 45.7132 42.0446Z" fill="#FFEBD9"/>
</g>
</svg>
