<svg width="75" height="75" viewBox="0 0 75 75" fill="none" xmlns="http://www.w3.org/2000/svg">
<g id="Progress" clip-path="url(#clip0_5374_207851)">
<path id="Vector" d="M70.3129 12.4248H60.6692C60.0512 12.4249 59.4471 12.6083 58.9334 12.9517C58.4196 13.2951 58.0191 13.7831 57.7827 14.354C57.5462 14.9249 57.4843 15.5532 57.6049 16.1593C57.7254 16.7654 58.0229 17.3221 58.4598 17.7592L61.8535 21.1529L50.6473 32.3561C50.0519 32.9251 49.26 33.2427 48.4364 33.2427C47.6127 33.2427 46.8208 32.9251 46.2254 32.3561L45.6942 31.8217C43.9086 30.1157 41.5341 29.1636 39.0645 29.1636C36.5949 29.1636 34.2204 30.1157 32.4348 31.8217L16.4973 47.7592C15.9101 48.348 15.5809 49.1461 15.582 49.9777C15.5832 50.8093 15.9147 51.6063 16.5035 52.1936C17.0924 52.7808 17.8904 53.11 18.722 53.1088C19.5536 53.1077 20.3507 52.7762 20.9379 52.1873L36.8754 36.2498C37.4705 35.68 38.2625 35.362 39.0864 35.362C39.9102 35.362 40.7022 35.68 41.2973 36.2498L41.8285 36.7842C43.6149 38.4888 45.9891 39.4398 48.4582 39.4398C50.9274 39.4398 53.3016 38.4888 55.0879 36.7842L66.2942 25.5779L69.6879 28.9717C70.1264 29.4015 70.6819 29.6926 71.2848 29.8087C71.8878 29.9248 72.5116 29.8606 73.0784 29.6242C73.6451 29.3879 74.1296 28.9898 74.4715 28.4797C74.8133 27.9696 74.9973 27.3701 75.0004 26.7561V17.1123C75.0004 15.8691 74.5066 14.6768 73.6275 13.7977C72.7484 12.9187 71.5561 12.4248 70.3129 12.4248Z" fill="white"/>
<path id="Vector_2" d="M71.875 68.675H15.625C13.1386 68.675 10.754 67.6873 8.99587 65.9291C7.23772 64.171 6.25 61.7864 6.25 59.3V3.125C6.25 2.2962 5.92076 1.50134 5.33471 0.915291C4.74866 0.32924 3.9538 0 3.125 0C2.2962 0 1.50134 0.32924 0.915291 0.915291C0.32924 1.50134 0 2.2962 0 3.125L0 59.3C0.00496206 63.4425 1.65276 67.4139 4.58194 70.3431C7.51112 73.2723 11.4825 74.92 15.625 74.925H71.875C72.7038 74.925 73.4987 74.5958 74.0847 74.0097C74.6708 73.4237 75 72.6288 75 71.8C75 70.9712 74.6708 70.1763 74.0847 69.5903C73.4987 69.0042 72.7038 68.675 71.875 68.675Z" fill="white"/>
</g>
<defs>
<clipPath id="clip0_5374_207851">
<rect width="75" height="75" fill="white"/>
</clipPath>
</defs>
</svg>
