<svg width="564" height="505" viewBox="0 0 564 505" fill="none" xmlns="http://www.w3.org/2000/svg">
<mask id="mask0_5328_49568" style="mask-type:luminance" maskUnits="userSpaceOnUse" x="0" y="0" width="564" height="505">
<path d="M564 0H0V504.867H564V0Z" fill="white"/>
</mask>
<g mask="url(#mask0_5328_49568)">
<path d="M1.50746 204.055C5.19264 231.341 16.9182 257.287 34.004 279.049C42.547 289.93 52.5975 299.806 63.653 308.343C69.1808 312.528 74.876 316.378 80.9063 319.894C87.2716 323.576 93.8045 326.589 100.17 330.105C106.87 333.788 113.235 338.307 117.423 344.836C121.611 351.197 123.453 358.562 123.956 365.928C125.128 381.83 120.438 397.231 118.596 412.799C116.753 427.529 118.093 442.26 126.469 454.982C133.504 465.528 144.057 473.229 155.28 479.255C167.676 485.783 181.076 489.968 194.644 493.484C210.39 497.501 226.303 500.514 242.384 502.356C274.713 506.206 307.545 505.536 339.874 501.184C372.538 496.664 404.7 488.294 435.521 476.242C463.83 465.194 492.139 451.3 514.752 430.877C536.193 411.459 550.599 398.068 551.939 368.941C553.279 345.505 520.783 326.422 513.412 314.202C522.123 296.96 555.457 277.208 559.142 257.957C565.172 226.152 565.675 192.84 562.325 160.7C559.142 130.066 550.432 100.604 530.833 75.9972C513.245 53.9009 489.459 36.9939 463.662 25.2761C433.343 11.5496 400.177 5.18857 367.01 2.34283C332.504 -0.670299 297.662 -0.502903 263.155 1.50585C228.984 3.51461 194.812 8.0343 161.813 16.9063C130.154 25.2761 98.8297 36.9939 71.5259 54.9053C46.3996 71.3101 26.1312 93.5738 14.0706 120.692C2.00999 146.638 -2.51274 175.765 1.50746 204.055Z" fill="#42BC94"/>
</g>
<mask id="mask1_5328_49568" style="mask-type:luminance" maskUnits="userSpaceOnUse" x="0" y="0" width="564" height="505">
<path d="M564 0H0V504.867H564V0Z" fill="white"/>
</mask>
<g mask="url(#mask1_5328_49568)">
<path d="M137.859 121.362C139.031 122.199 142.046 125.212 145.229 131.741C148.914 139.273 153.27 153.167 153.772 176.938C154.107 198.029 151.092 210.752 148.412 217.615C146.067 223.474 143.889 226.319 142.884 227.156L120.438 229.333C117.758 225.985 105.865 209.58 105.195 172.92C104.86 156.85 108.21 143.626 111.225 135.256C113.738 128.393 116.25 123.705 117.255 121.864L137.859 121.362ZM119.935 233.183L144.057 230.839C144.392 230.839 144.727 230.672 145.062 230.504C145.564 230.002 158.295 219.624 157.625 176.938C156.787 129.397 140.204 118.516 139.534 118.014C139.199 117.847 138.864 117.679 138.529 117.679L116.083 118.516C115.413 118.516 114.91 118.851 114.575 119.353C114.408 119.521 111.057 124.877 107.707 134.251C104.692 142.789 101.175 156.515 101.51 173.255C102.012 195.519 106.535 210.417 110.22 218.954C114.24 228.496 118.26 232.513 118.428 232.68C118.763 233.015 119.265 233.183 119.768 233.183H119.935Z" fill="#4A003D"/>
</g>
<mask id="mask2_5328_49568" style="mask-type:luminance" maskUnits="userSpaceOnUse" x="0" y="0" width="564" height="505">
<path d="M564 0H0V504.867H564V0Z" fill="white"/>
</mask>
<g mask="url(#mask2_5328_49568)">
<path d="M138.529 119.521C138.529 119.521 129.651 140.613 132.331 177.608C135.011 214.603 143.722 228.999 143.722 228.999L119.601 231.342C119.601 231.342 104.19 213.766 103.352 176.269C102.682 138.772 116.083 120.358 116.083 120.358L138.529 119.521Z" fill="#4A003D"/>
</g>
<mask id="mask3_5328_49568" style="mask-type:luminance" maskUnits="userSpaceOnUse" x="0" y="0" width="564" height="505">
<path d="M564 0H0V504.867H564V0Z" fill="white"/>
</mask>
<g mask="url(#mask3_5328_49568)">
<path d="M149.249 207.571C149.082 207.571 149.082 207.571 149.082 207.571C145.732 207.404 142.717 203.554 140.371 196.523C138.696 191.669 136.854 182.964 136.519 169.572C136.351 161.035 136.854 154.172 138.026 149.15C139.199 143.626 141.209 140.78 143.889 140.111C147.742 139.274 151.594 143.291 155.615 152.33C156.117 153.335 155.615 154.339 154.61 154.841C153.605 155.176 152.6 154.841 152.097 153.837C148.412 145.467 145.732 143.626 144.727 143.793C143.387 144.128 140.036 149.317 140.371 169.405C140.539 179.449 141.879 188.655 144.057 195.184C146.067 201.378 148.412 203.554 149.417 203.721C150.087 203.721 152.6 201.712 153.605 192.171C153.772 191.166 154.61 190.329 155.782 190.497C156.787 190.664 157.625 191.501 157.457 192.673C155.782 204.893 152.097 207.571 149.249 207.571Z" fill="#4A003D"/>
</g>
<mask id="mask4_5328_49568" style="mask-type:luminance" maskUnits="userSpaceOnUse" x="0" y="0" width="564" height="505">
<path d="M564 0H0V504.867H564V0Z" fill="white"/>
</mask>
<g mask="url(#mask4_5328_49568)">
<path d="M93.9705 180.453C92.9654 180.453 92.1279 179.783 92.1279 178.779C91.9604 177.774 92.7979 176.77 93.803 176.602L111.559 174.594C112.564 174.426 113.569 175.263 113.736 176.268C113.904 177.272 113.066 178.276 112.061 178.444L94.3055 180.453C94.138 180.453 93.9705 180.453 93.9705 180.453Z" fill="#4A003D"/>
</g>
<mask id="mask5_5328_49568" style="mask-type:luminance" maskUnits="userSpaceOnUse" x="0" y="0" width="564" height="505">
<path d="M564 0H0V504.867H564V0Z" fill="white"/>
</mask>
<g mask="url(#mask5_5328_49568)">
<path d="M298.499 424.183C237.358 424.183 187.943 431.883 187.943 441.592C187.943 451.133 237.358 459.001 298.499 459.001C359.639 459.001 409.054 451.301 409.054 441.592C409.054 431.883 359.639 424.183 298.499 424.183Z" fill="#019772"/>
</g>
<mask id="mask6_5328_49568" style="mask-type:luminance" maskUnits="userSpaceOnUse" x="0" y="0" width="564" height="505">
<path d="M564 0H0V504.867H564V0Z" fill="white"/>
</mask>
<g mask="url(#mask6_5328_49568)">
<path d="M332 240.883L349.253 173.758C349.253 173.758 339.705 174.595 340.878 166.727C342.05 158.859 344.731 157.018 353.944 156.851C363.324 156.516 368.182 159.696 366.172 166.56C363.994 173.423 356.959 174.929 356.959 174.929L339.37 241.051H332V240.883Z" fill="#4A003D"/>
</g>
<mask id="mask7_5328_49568" style="mask-type:luminance" maskUnits="userSpaceOnUse" x="0" y="0" width="564" height="505">
<path d="M564 0H0V504.867H564V0Z" fill="white"/>
</mask>
<g mask="url(#mask7_5328_49568)">
<path d="M187.943 247.746L200.339 179.448C200.339 179.448 190.959 180.955 191.461 173.087C191.964 165.22 194.476 163.211 203.857 162.207C213.237 161.202 218.43 164.048 216.755 171.079C215.08 178.109 208.044 180.118 208.044 180.118L195.314 247.244L187.943 247.746Z" fill="#4A003D"/>
</g>
<mask id="mask8_5328_49568" style="mask-type:luminance" maskUnits="userSpaceOnUse" x="0" y="0" width="564" height="505">
<path d="M564 0H0V504.867H564V0Z" fill="white"/>
</mask>
<g mask="url(#mask8_5328_49568)">
<path d="M146.4 174.761C145.395 174.761 144.558 173.924 144.558 172.92C144.558 171.915 145.228 171.079 146.233 171.079L408.886 160.198C409.891 160.198 410.728 160.867 410.728 161.872C410.728 162.876 410.058 163.713 409.053 163.713L146.4 174.761Z" fill="#4A003D"/>
</g>
<mask id="mask9_5328_49568" style="mask-type:luminance" maskUnits="userSpaceOnUse" x="0" y="0" width="564" height="505">
<path d="M564 0H0V504.867H564V0Z" fill="white"/>
</mask>
<g mask="url(#mask9_5328_49568)">
<path d="M287.442 363.584L317.929 429.706C311.396 429.873 304.863 433.556 300.676 438.076C300.005 438.745 299.838 439.75 300.173 440.587C300.508 441.424 301.178 442.093 302.016 442.428C310.056 444.437 318.599 445.106 328.984 442.428C329.654 442.261 330.324 441.759 330.659 441.089C330.995 440.419 330.995 439.582 330.659 438.913C324.294 424.517 295.148 358.73 295.148 358.73L287.442 363.584Z" fill="#4A003D"/>
</g>
<mask id="mask10_5328_49568" style="mask-type:luminance" maskUnits="userSpaceOnUse" x="0" y="0" width="564" height="505">
<path d="M564 0H0V504.867H564V0Z" fill="white"/>
</mask>
<g mask="url(#mask10_5328_49568)">
<path d="M234.846 358.227L265.332 428.701C258.632 428.868 251.932 433.053 247.911 437.908C247.409 438.577 247.241 439.582 247.409 440.419C247.744 441.256 248.414 441.925 249.251 442.093C257.292 444.269 266.17 444.939 276.555 442.093C277.225 441.925 277.895 441.423 278.23 440.754C278.565 440.084 278.565 439.247 278.23 438.577C272.033 423.679 242.551 352.703 242.551 352.703L234.846 358.227Z" fill="#4A003D"/>
</g>
<mask id="mask11_5328_49568" style="mask-type:luminance" maskUnits="userSpaceOnUse" x="0" y="0" width="564" height="505">
<path d="M564 0H0V504.867H564V0Z" fill="white"/>
</mask>
<g mask="url(#mask11_5328_49568)">
<path d="M184.091 244.9C182.583 228.496 194.309 214.099 211.729 216.443C215.415 216.945 218.095 219.121 221.445 220.126C221.612 220.126 222.785 218.452 222.952 218.117C224.46 216.108 226.135 214.267 228.145 212.593C233.338 208.575 241.043 206.064 247.576 207.236C251.094 207.906 254.444 209.078 257.292 211.254C258.464 212.091 259.469 213.263 260.474 214.267C260.642 214.434 260.809 214.936 260.977 214.769C262.149 213.597 262.819 211.589 263.992 210.417C269.52 205.06 278.398 203.051 285.768 204.391C290.291 205.06 294.478 208.073 297.326 211.589C298.499 213.095 299.504 214.769 300.174 216.443C300.341 216.945 300.174 217.95 300.676 217.95C302.184 217.615 304.194 215.773 305.701 214.936C310.894 212.426 316.757 210.417 322.62 211.254C328.818 212.091 334.513 215.439 337.695 220.795C338.868 222.637 339.538 224.813 340.041 226.822C340.376 227.826 339.706 230.504 340.711 230.002C341.883 229.5 343.223 227.324 344.396 226.487C349.924 222.972 358.299 222.302 363.994 225.65C369.69 228.998 373.542 235.526 374.715 242.055C375.05 244.231 375.217 246.574 374.715 248.751C374.547 249.922 372.705 251.429 373.71 252.098C376.892 253.94 381.583 253.772 385.1 255.781C394.313 261.138 399.003 275.199 396.826 285.41C394.816 294.282 388.618 301.48 380.243 304.661C378.232 305.33 375.887 305.33 374.045 306.167C373.71 306.335 374.38 306.837 374.547 307.172C375.217 308.344 375.72 309.683 376.222 310.855C377.395 314.202 378.232 317.718 378.4 321.233C378.735 330.775 373.542 339.145 365.669 344.166C361.482 346.845 356.624 347.849 351.599 347.012C350.426 346.845 345.736 344.501 344.898 344.836C343.893 345.338 342.051 351.197 341.381 352.369C338.533 356.721 334.345 359.902 329.488 361.743C323.29 364.087 316.757 364.087 310.727 361.241C308.382 360.069 306.204 358.563 304.529 356.554C304.194 356.219 304.194 355.549 303.859 355.549C301.346 355.884 298.331 360.236 296.153 361.743C291.296 365.091 285.265 366.598 279.57 367.267C272.535 367.937 265.667 366.095 259.637 362.245C256.957 360.404 254.611 358.228 252.769 355.549L252.434 355.047C248.916 355.047 244.226 359.065 241.211 360.739C235.851 363.584 229.653 364.756 223.622 364.589C215.247 364.254 205.532 358.395 203.019 350.025C202.181 347.347 202.516 344.501 201.679 341.823C201.679 341.823 195.816 342.492 192.801 342.158C187.441 341.655 182.415 339.479 178.395 336.131C170.355 329.436 167.005 318.053 168.847 307.841C169.35 305.498 173.035 300.811 172.867 299.974C172.867 299.639 170.187 298.467 169.852 298.3C166 295.956 162.817 293.278 160.472 289.428C142.548 258.962 184.091 244.9 184.091 244.9Z" fill="#FFB0BA"/>
</g>
<mask id="mask12_5328_49568" style="mask-type:luminance" maskUnits="userSpaceOnUse" x="0" y="0" width="564" height="505">
<path d="M564 0H0V504.867H564V0Z" fill="white"/>
</mask>
<g mask="url(#mask12_5328_49568)">
<path d="M209.55 249.253C209.215 249.253 209.048 249.253 208.713 249.086C207.875 248.583 207.373 247.579 207.875 246.575C210.388 241.218 213.236 237.87 217.088 235.526C221.946 232.513 227.474 231.676 231.996 233.35C236.184 234.857 239.534 238.205 241.377 242.892C241.712 243.896 241.209 244.901 240.372 245.235C239.367 245.57 238.362 245.068 238.027 244.231C236.687 240.548 234.174 237.87 230.824 236.866C227.306 235.694 222.951 236.363 218.931 238.707C215.748 240.716 213.403 243.561 211.058 248.249C210.89 248.918 210.22 249.253 209.55 249.253Z" fill="#4A003D"/>
</g>
<mask id="mask13_5328_49568" style="mask-type:luminance" maskUnits="userSpaceOnUse" x="0" y="0" width="564" height="505">
<path d="M564 0H0V504.867H564V0Z" fill="white"/>
</mask>
<g mask="url(#mask13_5328_49568)">
<path d="M303.858 253.103C303.021 253.103 302.351 252.601 302.016 251.764C301.346 249.42 300.341 246.742 298.665 244.398C296.488 241.385 293.64 239.879 290.123 239.711C285.6 239.544 280.407 242.055 276.722 246.072C276.052 246.742 274.879 246.909 274.209 246.24C273.539 245.57 273.372 244.398 274.042 243.729C278.565 238.707 284.762 235.861 290.29 236.028C294.813 236.196 298.665 238.372 301.513 242.222C303.523 244.9 304.696 248.248 305.366 250.759C305.701 251.764 305.031 252.768 304.193 253.103C304.193 253.103 304.026 253.103 303.858 253.103Z" fill="#4A003D"/>
</g>
<mask id="mask14_5328_49568" style="mask-type:luminance" maskUnits="userSpaceOnUse" x="0" y="0" width="564" height="505">
<path d="M564 0H0V504.867H564V0Z" fill="white"/>
</mask>
<g mask="url(#mask14_5328_49568)">
<path d="M224.628 262.812C216.42 317.718 269.687 331.277 279.068 269.843C268.347 262.31 229.486 258.795 224.628 262.812Z" fill="#4A003D"/>
</g>
<mask id="mask15_5328_49568" style="mask-type:luminance" maskUnits="userSpaceOnUse" x="223" y="261" width="57" height="50">
<path d="M224.628 262.811C216.42 317.717 269.687 331.276 279.068 269.842C271.363 264.485 249.419 261.137 235.851 261.137C230.323 261.137 226.135 261.639 224.628 262.811Z" fill="white"/>
</mask>
<g mask="url(#mask15_5328_49568)">
<path d="M304.865 302.651C265.501 245.737 193.807 294.784 237.527 358.729C256.288 353.038 303.022 311.523 304.865 302.651Z" fill="#A13838"/>
</g>
<mask id="mask16_5328_49568" style="mask-type:luminance" maskUnits="userSpaceOnUse" x="0" y="0" width="564" height="505">
<path d="M564 0H0V504.867H564V0Z" fill="white"/>
</mask>
<g mask="url(#mask16_5328_49568)">
<path d="M317.93 258.459C328.316 258.459 332.001 261.975 332.001 266.327C332.001 270.679 326.64 274.195 317.93 274.195C310.225 274.195 303.859 270.679 303.859 266.327C303.859 261.975 306.037 258.459 317.93 258.459Z" fill="#FF7A7A"/>
</g>
<mask id="mask17_5328_49568" style="mask-type:luminance" maskUnits="userSpaceOnUse" x="0" y="0" width="564" height="505">
<path d="M564 0H0V504.867H564V0Z" fill="white"/>
</mask>
<g mask="url(#mask17_5328_49568)">
<path d="M188.448 258.459C198.833 258.459 202.519 261.975 202.519 266.327C202.519 270.679 197.158 274.195 188.448 274.195C180.743 274.195 174.377 270.679 174.377 266.327C174.21 261.975 176.555 258.459 188.448 258.459Z" fill="#FF7A7A"/>
</g>
<mask id="mask18_5328_49568" style="mask-type:luminance" maskUnits="userSpaceOnUse" x="0" y="0" width="564" height="505">
<path d="M564 0H0V504.867H564V0Z" fill="white"/>
</mask>
<g mask="url(#mask18_5328_49568)">
<path d="M447.08 110.984C449.593 112.993 463.161 125.548 462.826 167.564C462.659 188.991 459.141 201.546 456.126 208.409C453.613 214.435 450.933 217.114 450.095 217.951L425.807 219.457C424.634 217.951 421.619 213.933 418.604 206.735C415.086 198.198 410.731 183.634 410.731 162.04C410.731 145.803 414.584 132.579 417.934 124.376C420.782 117.346 423.462 112.826 424.634 110.984H447.08ZM425.304 223.14L451.1 221.633C451.436 221.633 451.771 221.466 452.106 221.299C452.608 220.964 466.511 210.753 466.679 167.564C467.014 119.522 449.593 107.971 448.755 107.637C448.42 107.469 448.085 107.302 447.75 107.302H423.964C423.462 107.302 422.792 107.637 422.457 108.139C422.289 108.306 418.604 113.663 414.919 122.87C411.569 131.407 407.381 145.133 407.381 162.04C407.381 184.471 411.904 199.705 415.589 208.409C419.776 218.118 423.797 222.303 423.964 222.47C424.299 222.973 424.634 223.14 425.304 223.14Z" fill="#4A003D"/>
</g>
<mask id="mask19_5328_49568" style="mask-type:luminance" maskUnits="userSpaceOnUse" x="0" y="0" width="564" height="505">
<path d="M564 0H0V504.867H564V0Z" fill="white"/>
</mask>
<g mask="url(#mask19_5328_49568)">
<path d="M447.749 108.974C447.749 108.974 437.866 130.066 439.876 167.395C441.886 204.725 450.932 219.623 450.932 219.623L425.135 221.13C425.135 221.13 409.055 202.883 409.055 165.052C409.055 127.22 423.795 108.974 423.795 108.974H447.749Z" fill="#4A003D"/>
</g>
<mask id="mask20_5328_49568" style="mask-type:luminance" maskUnits="userSpaceOnUse" x="0" y="0" width="564" height="505">
<path d="M564 0H0V504.867H564V0Z" fill="white"/>
</mask>
<g mask="url(#mask20_5328_49568)">
<path d="M457.295 198.029C457.128 198.029 456.96 198.029 456.96 198.029C453.442 197.694 450.427 193.677 448.082 186.646C446.407 181.624 444.564 172.752 444.564 159.36C444.564 150.656 445.234 143.793 446.575 138.938C447.915 133.581 450.092 130.568 452.772 130.066C456.793 129.229 460.813 133.414 464.833 142.621C465.168 143.625 464.833 144.63 463.828 144.964C462.823 145.299 461.818 144.964 461.483 143.96C457.63 135.255 454.782 133.247 453.61 133.581C451.767 133.916 448.417 139.775 448.25 159.36C448.25 169.404 449.422 178.778 451.6 185.474C453.777 192.337 456.123 194.179 457.295 194.346C458.468 194.514 460.813 192.17 462.32 182.796C462.488 181.792 463.325 181.122 464.33 181.289C465.335 181.457 466.005 182.294 465.838 183.298C465.168 187.985 464.163 191.5 462.655 194.011C460.813 197.359 458.803 198.029 457.295 198.029Z" fill="#4A003D"/>
</g>
<mask id="mask21_5328_49568" style="mask-type:luminance" maskUnits="userSpaceOnUse" x="0" y="0" width="564" height="505">
<path d="M564 0H0V504.867H564V0Z" fill="white"/>
</mask>
<g mask="url(#mask21_5328_49568)">
<path d="M474.213 163.88H455.117C454.112 163.88 453.274 163.043 453.274 162.039C453.274 161.035 454.112 160.198 455.117 160.198H474.213C475.218 160.198 476.056 161.035 476.056 162.039C476.056 163.043 475.218 163.88 474.213 163.88Z" fill="#4A003D"/>
</g>
<mask id="mask22_5328_49568" style="mask-type:luminance" maskUnits="userSpaceOnUse" x="0" y="0" width="564" height="505">
<path d="M564 0H0V504.867H564V0Z" fill="white"/>
</mask>
<g mask="url(#mask22_5328_49568)">
<path d="M383.594 226.487C388.954 224.143 395.989 223.641 400.512 227.491C403.192 229.835 405.872 237.033 400.01 238.037C396.324 238.707 394.147 234.857 392.304 232.178C390.629 229.667 387.781 227.491 384.766 226.822L383.594 226.487Z" fill="#F2E3E3"/>
</g>
<mask id="mask23_5328_49568" style="mask-type:luminance" maskUnits="userSpaceOnUse" x="0" y="0" width="564" height="505">
<path d="M564 0H0V504.867H564V0Z" fill="white"/>
</mask>
<g mask="url(#mask23_5328_49568)">
<path d="M369.021 217.615C371.533 209.747 378.736 202.381 387.111 201.545C391.299 201.21 397.162 204.725 395.319 209.58C394.984 210.417 394.482 211.086 393.979 211.756C391.802 213.932 388.451 214.434 385.604 214.267C380.411 214.099 374.213 212.76 369.858 216.443L369.021 217.615Z" fill="#F2E3E3"/>
</g>
<mask id="mask24_5328_49568" style="mask-type:luminance" maskUnits="userSpaceOnUse" x="0" y="0" width="564" height="505">
<path d="M564 0H0V504.867H564V0Z" fill="white"/>
</mask>
<g mask="url(#mask24_5328_49568)">
<path d="M381.248 313.532C380.411 313.532 379.573 313.03 379.406 312.026C379.238 311.021 379.741 310.017 380.746 309.85C389.289 308.008 396.827 301.647 400.177 293.445C400.512 292.44 401.684 292.106 402.522 292.44C403.527 292.775 403.862 293.947 403.527 294.784C399.674 303.991 391.299 311.189 381.583 313.365C381.416 313.532 381.248 313.532 381.248 313.532Z" fill="#FFB0BA"/>
</g>
<mask id="mask25_5328_49568" style="mask-type:luminance" maskUnits="userSpaceOnUse" x="0" y="0" width="564" height="505">
<path d="M564 0H0V504.867H564V0Z" fill="white"/>
</mask>
<g mask="url(#mask25_5328_49568)">
<path d="M404.365 287.586C403.36 287.586 402.522 286.749 402.522 285.745V282.397C402.522 281.393 403.36 280.556 404.365 280.556C405.37 280.556 406.208 281.393 406.208 282.397V285.745C406.208 286.749 405.37 287.586 404.365 287.586Z" fill="#FFB0BA"/>
</g>
<mask id="mask26_5328_49568" style="mask-type:luminance" maskUnits="userSpaceOnUse" x="0" y="0" width="564" height="505">
<path d="M564 0H0V504.867H564V0Z" fill="white"/>
</mask>
<g mask="url(#mask26_5328_49568)">
<path d="M213.571 371.954H213.403C202.515 370.615 193.302 361.074 192.465 350.193C192.297 349.188 193.135 348.351 194.14 348.184C195.145 348.017 195.982 348.854 196.15 349.858C196.988 359.065 204.693 367.267 213.906 368.439C214.911 368.606 215.581 369.443 215.581 370.448C215.246 371.285 214.576 371.954 213.571 371.954Z" fill="#FFB0BA"/>
</g>
<mask id="mask27_5328_49568" style="mask-type:luminance" maskUnits="userSpaceOnUse" x="0" y="0" width="564" height="505">
<path d="M564 0H0V504.867H564V0Z" fill="white"/>
</mask>
<g mask="url(#mask27_5328_49568)">
<path d="M191.294 369.611C190.959 369.611 190.457 369.444 190.122 369.276C189.619 368.774 189.116 368.439 188.446 367.937C187.944 367.602 187.441 367.1 186.939 366.598C186.101 365.928 185.934 364.756 186.604 364.087C187.274 363.25 188.446 363.082 189.116 363.752C189.619 364.087 190.122 364.589 190.792 365.091C191.294 365.593 191.797 365.928 192.467 366.43C193.304 367.1 193.472 368.272 192.802 368.941C192.299 369.444 191.797 369.611 191.294 369.611Z" fill="#FFB0BA"/>
</g>
<path d="M543.058 197.527L550.596 201.043L525.973 223.306L536.693 202.382H528.15L540.043 181.959L555.119 184.638L543.058 197.527Z" fill="#FFEB00"/>
<mask id="mask28_5328_49568" style="mask-type:luminance" maskUnits="userSpaceOnUse" x="0" y="0" width="564" height="505">
<path d="M564 0H0V504.867H564V0Z" fill="white"/>
</mask>
<g mask="url(#mask28_5328_49568)">
<path d="M223.79 396.729C221.278 396.729 219.268 398.738 219.268 401.249C219.268 403.76 221.278 405.768 223.79 405.768C226.303 405.768 228.313 403.76 228.313 401.249C228.313 398.738 226.303 396.729 223.79 396.729Z" fill="#019772"/>
</g>
<mask id="mask29_5328_49568" style="mask-type:luminance" maskUnits="userSpaceOnUse" x="0" y="0" width="564" height="505">
<path d="M564 0H0V504.867H564V0Z" fill="white"/>
</mask>
<g mask="url(#mask29_5328_49568)">
<path d="M209.551 132.913C206.368 132.913 203.855 135.424 203.855 138.604C203.855 141.785 206.368 144.296 209.551 144.296C212.733 144.296 215.246 141.785 215.246 138.604C215.246 135.424 212.733 132.913 209.551 132.913Z" fill="#019772"/>
</g>
<mask id="mask30_5328_49568" style="mask-type:luminance" maskUnits="userSpaceOnUse" x="0" y="0" width="564" height="505">
<path d="M564 0H0V504.867H564V0Z" fill="white"/>
</mask>
<g mask="url(#mask30_5328_49568)">
<path d="M138.362 302.987C135.347 302.987 133.002 305.498 133.002 308.343C133.002 311.189 135.515 313.7 138.362 313.7C141.377 313.7 143.722 311.189 143.722 308.343C143.722 305.498 141.377 302.987 138.362 302.987Z" fill="white"/>
</g>
<mask id="mask31_5328_49568" style="mask-type:luminance" maskUnits="userSpaceOnUse" x="0" y="0" width="564" height="505">
<path d="M564 0H0V504.867H564V0Z" fill="white"/>
</mask>
<g mask="url(#mask31_5328_49568)">
<path d="M42.3795 299.137C40.3694 299.137 38.6943 300.811 38.6943 302.82C38.6943 304.829 40.3694 306.503 42.3795 306.503C44.3896 306.503 46.0647 304.829 46.0647 302.82C46.0647 300.811 44.3896 299.137 42.3795 299.137Z" fill="white"/>
</g>
<mask id="mask32_5328_49568" style="mask-type:luminance" maskUnits="userSpaceOnUse" x="0" y="0" width="564" height="505">
<path d="M564 0H0V504.867H564V0Z" fill="white"/>
</mask>
<g mask="url(#mask32_5328_49568)">
<path d="M385.099 72.8164C384.262 70.9751 382.084 69.9707 380.241 70.8077C378.399 71.6446 377.394 73.8208 378.231 75.6622C379.069 77.5035 381.246 78.5079 383.089 77.6709C384.932 76.8339 385.769 74.6578 385.099 72.8164Z" fill="#019772"/>
</g>
<mask id="mask33_5328_49568" style="mask-type:luminance" maskUnits="userSpaceOnUse" x="0" y="0" width="564" height="505">
<path d="M564 0H0V504.867H564V0Z" fill="white"/>
</mask>
<g mask="url(#mask33_5328_49568)">
<path d="M516.093 247.245C515.256 245.403 513.078 244.399 511.235 245.236C509.393 246.073 508.388 248.249 509.225 250.09C510.063 251.932 512.24 252.936 514.083 252.099C515.926 251.43 516.763 249.086 516.093 247.245Z" fill="#019772"/>
</g>
<mask id="mask34_5328_49568" style="mask-type:luminance" maskUnits="userSpaceOnUse" x="0" y="0" width="564" height="505">
<path d="M564 0H0V504.867H564V0Z" fill="white"/>
</mask>
<g mask="url(#mask34_5328_49568)">
<path d="M37.0185 231.844C34.0033 231.844 31.6582 234.187 31.6582 237.2C31.6582 240.214 34.0033 242.557 37.0185 242.557C40.0336 242.557 42.3787 240.214 42.3787 237.2C42.3787 234.187 40.0336 231.844 37.0185 231.844Z" fill="#4A003D"/>
</g>
<mask id="mask35_5328_49568" style="mask-type:luminance" maskUnits="userSpaceOnUse" x="0" y="0" width="564" height="505">
<path d="M564 0H0V504.867H564V0Z" fill="white"/>
</mask>
<g mask="url(#mask35_5328_49568)">
<path d="M315.586 190.329C314.916 188.656 313.073 187.819 311.398 188.656C309.723 189.325 308.886 191.166 309.723 192.84C310.393 194.514 312.236 195.351 313.911 194.514C315.418 193.845 316.256 192.003 315.586 190.329Z" fill="#019772"/>
</g>
<mask id="mask36_5328_49568" style="mask-type:luminance" maskUnits="userSpaceOnUse" x="0" y="0" width="564" height="505">
<path d="M564 0H0V504.867H564V0Z" fill="white"/>
</mask>
<g mask="url(#mask36_5328_49568)">
<path d="M547.75 260.636C544.568 259.966 541.385 261.808 540.715 264.988C540.045 268.169 541.888 271.349 545.07 272.019C548.253 272.688 551.436 270.847 552.106 267.666C552.943 264.486 550.933 261.305 547.75 260.636Z" fill="#4A003D"/>
</g>
<mask id="mask37_5328_49568" style="mask-type:luminance" maskUnits="userSpaceOnUse" x="0" y="0" width="564" height="505">
<path d="M564 0H0V504.867H564V0Z" fill="white"/>
</mask>
<g mask="url(#mask37_5328_49568)">
<path d="M437.197 312.697L434.852 322.406L443.06 326.591C444.065 327.093 443.73 328.767 442.557 328.767L434.182 328.6L432.339 338.309C432.172 339.48 430.329 339.48 430.161 338.309L428.151 329.102L417.598 331.613C416.426 331.948 415.756 330.274 416.761 329.604L424.634 324.08L419.106 315.543C418.436 314.538 419.608 313.367 420.613 314.036L428.151 318.891L435.354 311.525C436.024 310.856 437.532 311.525 437.197 312.697Z" fill="#FFEB00"/>
</g>
<mask id="mask38_5328_49568" style="mask-type:luminance" maskUnits="userSpaceOnUse" x="0" y="0" width="564" height="505">
<path d="M564 0H0V504.867H564V0Z" fill="white"/>
</mask>
<g mask="url(#mask38_5328_49568)">
<path d="M518.103 283.402L515.59 301.313L531.336 307.674C533.011 308.344 532.676 310.855 530.833 311.022L515.255 312.194L513.412 330.44C513.245 332.281 510.565 332.616 510.062 330.775L504.869 314.203L485.941 320.564C484.098 321.233 482.926 318.89 484.266 317.551L497.834 306.168L486.444 291.604C485.271 290.098 486.946 288.256 488.621 289.093L503.362 296.793L515.087 282.397C516.26 280.723 518.438 281.728 518.103 283.402Z" fill="white"/>
</g>
<mask id="mask39_5328_49568" style="mask-type:luminance" maskUnits="userSpaceOnUse" x="0" y="0" width="564" height="505">
<path d="M564 0H0V504.867H564V0Z" fill="white"/>
</mask>
<g mask="url(#mask39_5328_49568)">
<path d="M92.6326 278.883L97.3229 282.566L101.176 279.552C102.181 278.715 103.688 279.887 103.186 281.059L101.343 285.076L105.531 288.257C106.703 289.094 105.866 290.935 104.526 290.601L99.8355 289.596L98.6629 295.288C98.3279 296.627 96.3178 296.627 96.1503 295.288L95.3128 290.601L89.785 291.438C88.4449 291.605 87.7749 289.764 88.9474 289.094L92.9676 286.583L90.79 280.892C90.2875 279.05 91.6276 278.046 92.6326 278.883Z" fill="#019772"/>
</g>
<mask id="mask40_5328_49568" style="mask-type:luminance" maskUnits="userSpaceOnUse" x="0" y="0" width="564" height="505">
<path d="M564 0H0V504.867H564V0Z" fill="white"/>
</mask>
<g mask="url(#mask40_5328_49568)">
<path d="M427.647 281.561C427.48 281.561 427.312 281.561 426.977 281.393C425.972 281.059 425.47 280.054 425.805 279.05L428.82 270.345C429.657 267.667 431.835 265.826 434.682 265.323C437.363 264.821 440.21 265.826 441.885 268.002L443.728 270.345C444.565 271.35 445.738 271.852 447.078 271.852C448.418 271.852 449.423 271.015 450.093 270.01L450.931 268.671C452.271 266.495 454.448 265.156 456.961 265.156C459.474 264.989 461.819 266.16 463.326 268.002C464.164 269.006 465.504 269.676 466.844 269.508C468.184 269.341 469.357 268.504 469.859 267.332L473.879 259.297C474.382 258.46 475.387 257.958 476.392 258.46C477.23 258.962 477.732 259.967 477.23 260.971L473.209 269.006C472.037 271.35 469.859 272.856 467.179 273.191C464.499 273.526 461.986 272.354 460.479 270.345C459.641 269.341 458.469 268.839 457.129 268.839C455.789 268.839 454.783 269.508 454.113 270.68L453.276 272.019C451.936 274.028 449.758 275.367 447.246 275.535C444.733 275.702 442.388 274.698 440.88 272.689L439.038 270.345C438.2 269.174 436.693 268.671 435.353 269.006C434.012 269.341 432.84 270.178 432.337 271.517L429.322 280.222C429.155 281.059 428.317 281.561 427.647 281.561Z" fill="#4A003D"/>
</g>
<mask id="mask41_5328_49568" style="mask-type:luminance" maskUnits="userSpaceOnUse" x="0" y="0" width="564" height="505">
<path d="M564 0H0V504.867H564V0Z" fill="white"/>
</mask>
<g mask="url(#mask41_5328_49568)">
<path d="M39.3625 191.668C42.2102 192.672 45.5603 195.183 46.3979 198.866C46.7329 200.54 46.3979 202.381 45.3928 203.888C44.5553 205.06 43.5502 205.897 42.2102 206.064C39.3625 206.566 36.6824 204.223 35.8449 201.544C35.0073 198.866 35.5098 195.518 37.3524 192.338C37.5199 192.003 37.855 191.501 38.0225 191.166C38.525 191.333 39.0275 191.501 39.3625 191.668ZM16.9164 211.253C17.9215 211.086 18.424 210.249 18.2565 209.245C17.2515 203.888 19.4291 197.862 23.6168 194.346C26.4644 192.003 30.3171 190.664 34.1698 190.664C31.8247 194.681 31.1546 199.034 32.3272 202.549C32.9972 204.725 34.3373 206.566 36.1799 207.906C38.19 209.245 40.3676 209.914 42.5452 209.412C44.7228 209.077 46.5654 207.738 48.073 205.729C49.5805 203.386 50.2506 200.54 49.5805 198.029C48.5755 193.844 45.0578 190.162 40.3676 188.32C40.3676 188.32 40.3676 188.32 40.2001 188.32C44.7228 183.968 51.5906 181.792 57.9559 183.131C58.961 183.298 59.7985 182.796 59.966 181.792C60.1335 180.787 59.631 179.95 58.626 179.783C54.1032 178.779 49.078 179.281 44.5553 181.29C41.3726 182.796 38.525 184.805 36.3474 187.483C30.9871 186.814 25.2918 188.32 21.2716 191.835C16.0789 196.188 13.3988 203.386 14.7388 210.082C14.9063 210.919 15.5764 211.588 16.4139 211.588C16.7489 211.421 16.7489 211.421 16.9164 211.253Z" fill="#4A003D"/>
</g>
<mask id="mask42_5328_49568" style="mask-type:luminance" maskUnits="userSpaceOnUse" x="0" y="0" width="564" height="505">
<path d="M564 0H0V504.867H564V0Z" fill="white"/>
</mask>
<g mask="url(#mask42_5328_49568)">
<path d="M167.173 401.081C151.929 401.081 136.686 395.557 125.463 385.178C109.885 370.615 103.185 347.514 108.042 326.757L98.4943 333.62C97.4893 334.29 96.1492 334.122 95.4792 333.118C94.8091 332.114 94.9766 330.774 95.9817 330.105L110.722 319.559C111.56 319.057 112.565 319.057 113.235 319.559C114.073 320.061 114.24 321.065 113.905 322.07C106.535 342.492 112.397 367.267 128.478 381.998C144.392 396.896 169.518 401.081 189.451 392.209C190.624 391.707 191.796 392.209 192.299 393.213C192.801 394.218 192.299 395.557 191.126 396.059C183.756 399.407 175.381 401.081 167.173 401.081Z" fill="#4A003D"/>
</g>
<mask id="mask43_5328_49568" style="mask-type:luminance" maskUnits="userSpaceOnUse" x="0" y="0" width="564" height="505">
<path d="M564 0H0V504.867H564V0Z" fill="white"/>
</mask>
<g mask="url(#mask43_5328_49568)">
<path d="M119.267 339.479C118.43 339.479 117.592 338.977 117.257 338.14L109.887 322.07C109.384 321.065 109.887 319.726 110.892 319.224C111.897 318.722 113.237 319.224 113.739 320.228L121.11 336.298C121.612 337.303 121.11 338.642 120.105 339.144C119.937 339.479 119.602 339.479 119.267 339.479Z" fill="#4A003D"/>
</g>
<mask id="mask44_5328_49568" style="mask-type:luminance" maskUnits="userSpaceOnUse" x="0" y="0" width="564" height="505">
<path d="M564 0H0V504.867H564V0Z" fill="white"/>
</mask>
<g mask="url(#mask44_5328_49568)">
<path d="M508.218 105.292H483.762C482.924 105.292 482.087 104.623 482.087 103.618C482.087 102.781 482.757 101.944 483.762 101.944H508.218C509.056 101.944 509.893 102.614 509.893 103.618C509.726 104.455 509.056 105.292 508.218 105.292Z" fill="#4A003D"/>
</g>
<mask id="mask45_5328_49568" style="mask-type:luminance" maskUnits="userSpaceOnUse" x="0" y="0" width="564" height="505">
<path d="M564 0H0V504.867H564V0Z" fill="white"/>
</mask>
<g mask="url(#mask45_5328_49568)">
<path d="M508.218 116.005H483.762C482.924 116.005 482.087 115.336 482.087 114.331C482.087 113.494 482.757 112.657 483.762 112.657H508.218C509.056 112.657 509.893 113.327 509.893 114.331C509.726 115.168 509.056 116.005 508.218 116.005Z" fill="#4A003D"/>
</g>
<mask id="mask46_5328_49568" style="mask-type:luminance" maskUnits="userSpaceOnUse" x="0" y="0" width="564" height="505">
<path d="M564 0H0V504.867H564V0Z" fill="white"/>
</mask>
<g mask="url(#mask46_5328_49568)">
<path d="M495.99 126.719H483.762C482.924 126.719 482.087 126.049 482.087 125.045C482.087 124.208 482.757 123.371 483.762 123.371H495.99C496.828 123.371 497.665 124.041 497.665 125.045C497.498 126.049 496.828 126.719 495.99 126.719Z" fill="#4A003D"/>
</g>
<mask id="mask47_5328_49568" style="mask-type:luminance" maskUnits="userSpaceOnUse" x="0" y="0" width="564" height="505">
<path d="M564 0H0V504.867H564V0Z" fill="white"/>
</mask>
<g mask="url(#mask47_5328_49568)">
<path d="M184.09 143.794C183.923 143.794 183.923 143.794 183.755 143.794C182.75 143.627 182.08 142.622 182.248 141.618L184.425 129.398H173.537C173.035 129.398 172.532 129.231 172.197 128.896C171.862 128.561 171.695 128.059 171.695 127.557L172.197 117.513H162.147C161.644 117.513 160.974 117.178 160.639 116.843C160.304 116.341 160.136 115.839 160.304 115.169L163.319 105.795C163.654 104.791 164.659 104.289 165.664 104.623C166.669 104.958 167.172 105.962 166.837 106.967L164.659 113.997H174.207C174.71 113.997 175.212 114.165 175.547 114.5C175.882 114.834 176.05 115.337 176.05 115.839L175.547 125.883H186.77C187.273 125.883 187.775 126.05 188.11 126.552C188.445 126.887 188.613 127.557 188.445 128.059L185.933 142.455C185.765 143.292 184.928 143.794 184.09 143.794Z" fill="#4A003D"/>
</g>
<mask id="mask48_5328_49568" style="mask-type:luminance" maskUnits="userSpaceOnUse" x="0" y="0" width="564" height="505">
<path d="M564 0H0V504.867H564V0Z" fill="white"/>
</mask>
<g mask="url(#mask48_5328_49568)">
<path d="M86.5996 387.522C78.2242 387.522 69.8488 386.517 62.3109 384.509C49.4128 381.161 38.6923 375.134 30.3168 366.765C22.444 358.897 16.7487 348.853 13.901 337.47C11.0534 326.422 10.8859 314.704 13.3985 303.824C18.4238 282.564 33.667 263.314 54.2705 252.433C55.108 251.931 56.2806 252.265 56.7831 253.27C57.2857 254.107 56.9506 255.279 55.9456 255.781C36.1796 266.159 21.6064 284.573 16.9162 304.828C11.891 326.255 18.0888 349.523 32.997 364.421C45.7276 377.143 65.1585 384.174 86.7671 384.174C90.7873 384.174 94.975 383.839 98.9952 383.504C123.116 380.658 145.562 370.447 167.339 360.738C168.344 360.403 169.349 360.738 169.684 361.575C170.019 362.58 169.684 363.584 168.846 363.919C146.903 373.795 124.121 384.006 99.4977 387.019C94.975 387.187 90.7873 387.522 86.5996 387.522Z" fill="white"/>
</g>
<mask id="mask49_5328_49568" style="mask-type:luminance" maskUnits="userSpaceOnUse" x="0" y="0" width="564" height="505">
<path d="M564 0H0V504.867H564V0Z" fill="white"/>
</mask>
<g mask="url(#mask49_5328_49568)">
<path d="M163.991 375.973C163.823 375.973 163.656 375.973 163.488 375.805C162.483 375.471 161.981 374.466 162.316 373.462L165.498 363.083L152.935 359.568C151.93 359.233 151.428 358.229 151.763 357.392C152.098 356.387 153.103 355.885 153.94 356.22L168.346 360.237C168.848 360.405 169.183 360.74 169.518 361.074C169.686 361.577 169.853 362.079 169.686 362.414L165.833 374.634C165.498 375.471 164.828 375.973 163.991 375.973Z" fill="white"/>
</g>
<mask id="mask50_5328_49568" style="mask-type:luminance" maskUnits="userSpaceOnUse" x="0" y="0" width="564" height="505">
<path d="M564 0H0V504.867H564V0Z" fill="white"/>
</mask>
<g mask="url(#mask50_5328_49568)">
<path d="M69.6826 248.918C68.8451 248.918 68.1751 248.416 67.8401 247.579C67.505 246.575 68.1751 245.57 69.0126 245.236C72.1953 244.231 75.5454 243.394 78.7281 242.39C79.7331 242.055 80.7382 242.725 81.0732 243.562C81.4082 244.566 80.7382 245.57 79.9006 245.905C76.5505 246.91 73.3678 247.746 70.1852 248.751C70.1852 248.918 69.8502 248.918 69.6826 248.918Z" fill="white"/>
</g>
<mask id="mask51_5328_49568" style="mask-type:luminance" maskUnits="userSpaceOnUse" x="0" y="0" width="564" height="505">
<path d="M564 0H0V504.867H564V0Z" fill="white"/>
</mask>
<g mask="url(#mask51_5328_49568)">
<path d="M256.622 93.2394C256.622 100.103 259.637 106.296 264.495 110.481C269.353 114.666 272.033 120.86 272.033 127.388C272.033 128.727 273.205 129.899 274.545 129.899H284.931C286.271 129.899 287.444 128.727 287.444 127.388V127.221C287.444 120.692 290.291 114.666 295.149 110.314C300.007 105.961 303.022 99.6004 302.854 92.5698C302.519 80.3498 292.469 70.3061 280.241 70.1387C267.008 70.1387 256.622 80.5172 256.622 93.2394Z" fill="#FFEB00"/>
</g>
<mask id="mask52_5328_49568" style="mask-type:luminance" maskUnits="userSpaceOnUse" x="0" y="0" width="564" height="505">
<path d="M564 0H0V504.867H564V0Z" fill="white"/>
</mask>
<g mask="url(#mask52_5328_49568)">
<path d="M283.59 138.101H275.55C274.545 138.101 273.707 137.264 273.707 136.26C273.707 135.255 274.545 134.418 275.55 134.418H283.59C284.595 134.418 285.433 135.255 285.433 136.26C285.433 137.264 284.595 138.101 283.59 138.101Z" fill="white"/>
</g>
<mask id="mask53_5328_49568" style="mask-type:luminance" maskUnits="userSpaceOnUse" x="0" y="0" width="564" height="505">
<path d="M564 0H0V504.867H564V0Z" fill="white"/>
</mask>
<g mask="url(#mask53_5328_49568)">
<path d="M271.699 63.2757C270.694 63.4431 269.689 62.7735 269.521 61.7692L268.181 52.0602C268.013 51.0558 268.683 50.0514 269.688 49.884C270.694 49.7166 271.699 50.3862 271.866 51.3906L273.206 61.0996C273.374 62.2714 272.704 63.1083 271.699 63.2757Z" fill="white"/>
</g>
<mask id="mask54_5328_49568" style="mask-type:luminance" maskUnits="userSpaceOnUse" x="0" y="0" width="564" height="505">
<path d="M564 0H0V504.867H564V0Z" fill="white"/>
</mask>
<g mask="url(#mask54_5328_49568)">
<path d="M258.799 69.1341C258.296 69.1341 257.626 68.9667 257.291 68.4645C254.946 65.4514 252.433 62.6056 250.088 59.5925C249.418 58.7555 249.586 57.5837 250.423 56.9141C251.261 56.2446 252.433 56.412 253.103 57.2489C255.449 60.0947 257.961 63.1078 260.306 66.1209C260.976 66.9579 260.809 68.1297 259.971 68.7993C259.636 69.1341 259.301 69.1341 258.799 69.1341Z" fill="white"/>
</g>
<mask id="mask55_5328_49568" style="mask-type:luminance" maskUnits="userSpaceOnUse" x="0" y="0" width="564" height="505">
<path d="M564 0H0V504.867H564V0Z" fill="white"/>
</mask>
<g mask="url(#mask55_5328_49568)">
<path d="M247.075 79.0105C246.907 79.0105 246.74 79.0105 246.572 79.0105L236.689 76.3321C235.684 75.9973 235.182 74.993 235.349 73.9886C235.684 72.9842 236.689 72.482 237.694 72.6494L247.577 75.3277C248.582 75.6625 249.085 76.6669 248.917 77.6713C248.582 78.5083 247.745 79.0105 247.075 79.0105Z" fill="white"/>
</g>
<mask id="mask56_5328_49568" style="mask-type:luminance" maskUnits="userSpaceOnUse" x="0" y="0" width="564" height="505">
<path d="M564 0H0V504.867H564V0Z" fill="white"/>
</mask>
<g mask="url(#mask56_5328_49568)">
<path d="M483.426 216.611C482.924 214.602 482.756 212.259 483.929 210.752C485.269 209.078 487.782 208.743 489.792 209.748C491.634 210.752 492.974 212.761 493.477 214.769C493.979 216.778 493.979 218.954 493.812 221.131C494.817 219.122 495.989 217.113 497.664 215.606C499.34 214.1 501.517 212.928 503.695 213.096C506.04 213.263 508.217 214.769 508.72 216.946C509.39 220.126 506.71 222.804 504.197 224.981C501.182 227.324 494.314 235.694 490.462 233.183C486.441 230.337 484.431 220.963 483.426 216.611Z" fill="#4A003D"/>
</g>
<mask id="mask57_5328_49568" style="mask-type:luminance" maskUnits="userSpaceOnUse" x="0" y="0" width="564" height="505">
<path d="M564 0H0V504.867H564V0Z" fill="white"/>
</mask>
<g mask="url(#mask57_5328_49568)">
<path d="M334.514 371.285C335.184 370.615 335.184 369.611 334.514 369.108C334.346 368.941 334.346 368.941 334.346 368.941C333.676 368.439 332.839 368.439 332.169 369.108C331.499 369.778 331.499 370.782 332.169 371.285C332.336 371.452 332.336 371.452 332.336 371.452C332.671 371.619 333.006 371.787 333.341 371.787C333.844 371.787 334.179 371.619 334.514 371.285Z" fill="white"/>
</g>
<mask id="mask58_5328_49568" style="mask-type:luminance" maskUnits="userSpaceOnUse" x="0" y="0" width="564" height="505">
<path d="M564 0H0V504.867H564V0Z" fill="white"/>
</mask>
<g mask="url(#mask58_5328_49568)">
<path d="M465.168 323.911C465.503 323.576 465.67 323.242 465.67 322.739C465.67 322.405 465.503 321.902 465.168 321.568C464.833 321.233 464.498 321.065 463.995 321.065C463.66 321.065 463.158 321.233 462.823 321.568C462.153 322.237 462.153 323.242 462.823 323.911C463.158 324.246 463.493 324.413 463.995 324.413C464.498 324.413 464.833 324.246 465.168 323.911ZM471.198 330.774C471.533 330.44 471.701 330.105 471.701 329.603C471.701 329.268 471.533 328.933 471.366 328.598C471.366 328.598 471.366 328.598 471.198 328.431C470.863 328.096 470.528 327.929 470.025 327.929C469.69 327.929 469.355 328.096 469.02 328.264C468.685 328.598 468.518 328.933 468.518 329.268C468.518 329.603 468.685 330.105 468.853 330.44C468.853 330.44 468.853 330.607 469.02 330.607C469.355 330.942 469.69 331.109 470.193 331.109C470.528 331.277 470.863 331.109 471.198 330.774ZM476.893 337.972C477.228 337.638 477.563 337.136 477.563 336.633C477.563 336.299 477.396 335.964 477.228 335.629C477.228 335.629 477.228 335.629 477.228 335.462C476.893 335.127 476.391 334.792 475.888 334.792C475.553 334.792 475.218 334.959 474.883 335.127C474.213 335.629 474.046 336.633 474.548 337.303C474.548 337.303 474.548 337.303 474.716 337.47C475.051 337.805 475.553 338.14 476.056 338.14C476.223 338.307 476.558 338.307 476.893 337.972ZM482.086 345.505C482.589 345.171 482.756 344.668 482.756 344.166C482.756 343.831 482.589 343.497 482.421 343.329C482.421 343.329 482.421 343.329 482.421 343.162C482.086 342.66 481.584 342.492 481.081 342.492C480.746 342.492 480.411 342.66 480.243 342.827C479.573 343.329 479.238 344.334 479.741 345.003C479.741 345.003 479.741 345.17 479.909 345.17C480.244 345.673 480.746 345.84 481.249 345.84C481.584 345.84 481.919 345.673 482.086 345.505ZM486.944 353.373C487.446 353.038 487.781 352.536 487.781 352.034C487.781 351.699 487.781 351.532 487.614 351.197C487.614 351.197 487.614 351.029 487.446 351.029C487.111 350.527 486.609 350.192 486.106 350.192C485.771 350.192 485.604 350.192 485.269 350.36C484.934 350.527 484.599 350.862 484.599 351.364C484.431 351.699 484.599 352.201 484.766 352.536C485.101 353.038 485.604 353.373 486.106 353.373C486.441 353.54 486.609 353.54 486.944 353.373ZM491.299 361.408C491.802 361.073 492.137 360.571 492.137 359.901C492.137 359.567 492.137 359.399 491.969 359.232L491.802 359.064C491.467 358.562 490.964 358.227 490.294 358.227C489.959 358.227 489.791 358.227 489.624 358.395C489.289 358.562 488.954 358.897 488.786 359.399C488.619 359.734 488.619 360.236 488.954 360.571V360.738C489.289 361.241 489.791 361.575 490.462 361.575C490.797 361.575 490.964 361.575 491.299 361.408ZM494.984 369.778C495.654 369.61 495.989 368.941 495.989 368.271C495.989 368.104 495.989 367.936 495.822 367.602C495.822 367.602 495.822 367.602 495.822 367.434C495.822 367.434 495.822 367.434 495.822 367.267C495.487 366.597 494.984 366.262 494.314 366.262C494.147 366.262 493.979 366.262 493.644 366.43C493.309 366.597 492.974 366.932 492.807 367.267C492.639 367.602 492.639 368.104 492.807 368.439C492.807 368.439 492.807 368.439 492.807 368.606C492.974 369.276 493.644 369.61 494.314 369.61C494.482 369.945 494.649 369.945 494.984 369.778ZM342.552 375.971C343.054 375.302 342.719 374.297 342.049 373.795C341.714 373.628 341.547 373.628 341.212 373.628C340.709 373.628 340.207 373.963 339.872 374.465C339.704 374.8 339.537 375.302 339.704 375.637C339.872 375.971 340.039 376.474 340.374 376.641C340.374 376.641 340.542 376.641 340.542 376.808C340.877 376.976 341.044 376.976 341.379 376.976C341.714 376.641 342.217 376.306 342.552 375.971ZM497.832 378.482C498.502 378.315 499.004 377.645 499.004 376.976C499.004 376.808 499.004 376.641 499.004 376.474V376.306C499.004 376.306 499.004 376.306 499.004 376.139C498.837 375.469 498.167 374.967 497.497 374.967C497.329 374.967 497.162 374.967 496.994 374.967C496.659 375.134 496.324 375.302 495.989 375.804C495.822 376.139 495.654 376.641 495.822 376.976C495.822 376.976 495.822 376.976 495.822 377.143C495.989 377.813 496.659 378.315 497.329 378.315C497.497 378.482 497.664 378.482 497.832 378.482ZM350.425 380.491C350.927 379.654 350.592 378.817 349.755 378.315C349.755 378.315 349.755 378.315 349.587 378.315C349.42 378.148 349.085 378.148 348.75 378.148C348.247 378.148 347.577 378.482 347.41 378.985C347.242 379.152 347.242 379.487 347.242 379.822C347.242 380.324 347.577 380.993 348.08 381.161H348.247C348.415 381.328 348.75 381.328 349.085 381.328C349.755 381.328 350.257 380.993 350.425 380.491ZM358.633 384.676C358.8 384.341 358.8 383.839 358.8 383.504C358.633 383.169 358.465 382.835 357.963 382.5H357.795C357.628 382.332 357.292 382.332 357.125 382.332C356.455 382.332 355.952 382.667 355.785 383.169C355.617 383.337 355.617 383.672 355.617 383.839C355.617 384.509 355.952 385.011 356.455 385.178C356.455 385.178 356.622 385.178 356.622 385.346C356.79 385.513 357.125 385.513 357.293 385.513C357.795 385.513 358.298 385.178 358.633 384.676ZM499.339 387.522C500.177 387.354 500.68 386.685 500.68 385.848V385.68V385.513C500.512 384.676 499.842 384.174 499.172 384.174H499.004C498.167 384.341 497.497 385.011 497.664 386.015V386.183C497.832 387.02 498.502 387.522 499.172 387.522H499.339ZM366.84 388.694C367.008 388.359 367.008 387.857 366.84 387.522C366.673 387.187 366.338 386.852 366.003 386.685H365.835C365.668 386.517 365.333 386.517 365.165 386.517C364.495 386.517 363.993 386.852 363.658 387.354C363.49 387.522 363.49 387.857 363.49 388.024C363.49 388.694 363.825 389.196 364.495 389.531H364.663C364.83 389.698 365.165 389.698 365.333 389.698C366.003 389.531 366.505 389.196 366.84 388.694ZM375.216 392.376C375.551 391.539 375.216 390.702 374.378 390.2C374.378 390.2 374.378 390.2 374.211 390.2C374.043 390.033 373.876 390.033 373.541 390.033C372.871 390.033 372.368 390.368 372.033 391.037C371.866 391.205 371.866 391.372 371.866 391.707C371.866 392.376 372.201 392.878 372.871 393.213C372.871 393.213 372.871 393.213 373.038 393.213C373.206 393.381 373.373 393.381 373.708 393.381C374.378 393.381 375.048 393.046 375.216 392.376ZM500.68 395.222V395.055C500.847 394.218 500.177 393.381 499.339 393.213C498.837 393.213 498.334 393.213 497.999 393.548C497.664 393.883 497.497 394.05 497.497 394.552C497.497 394.552 497.497 394.552 497.497 394.72C497.497 394.887 497.497 394.887 497.497 395.055C497.497 395.892 497.999 396.561 498.837 396.561C499.004 396.561 499.004 396.561 499.172 396.561C499.842 396.561 500.512 396.059 500.68 395.222ZM383.759 395.892C383.926 395.557 383.926 395.055 383.759 394.72C383.591 394.385 383.256 394.05 382.921 393.883H382.754C382.586 393.883 382.419 393.715 382.251 393.715C381.581 393.715 381.079 394.05 380.744 394.72C380.744 394.887 380.576 395.055 380.576 395.222C380.576 395.892 380.911 396.394 381.581 396.729H381.749C381.916 396.729 382.084 396.896 382.251 396.896C382.921 396.896 383.424 396.394 383.759 395.892ZM392.302 399.072C392.469 398.737 392.469 398.235 392.302 397.9C392.134 397.566 391.799 397.231 391.464 397.063C391.464 397.063 391.464 397.063 391.297 397.063C391.129 397.063 390.962 396.896 390.794 396.896C390.124 396.896 389.454 397.231 389.287 397.9C389.287 398.068 389.119 398.235 389.119 398.403C389.119 399.072 389.454 399.742 390.124 399.909C390.124 399.909 390.124 399.909 390.292 399.909C390.459 399.909 390.627 400.076 390.794 400.076C391.464 400.076 392.134 399.574 392.302 399.072ZM401.012 401.918C401.18 401.583 401.18 401.081 400.845 400.746C400.677 400.411 400.342 400.076 399.84 399.909C399.84 399.909 399.84 399.909 399.672 399.909C399.505 399.909 399.337 399.909 399.17 399.909C398.5 399.909 397.829 400.411 397.662 400.913C397.662 401.081 397.662 401.248 397.662 401.416C397.662 402.085 398.165 402.755 398.835 402.922H399.002C399.17 402.922 399.337 403.09 399.505 403.09C400.175 403.09 400.677 402.587 401.012 401.918ZM496.659 404.261C496.994 403.759 497.162 403.424 497.162 402.922C497.162 402.587 496.827 402.085 496.659 401.918C496.324 401.75 495.989 401.583 495.654 401.583C495.152 401.583 494.649 401.75 494.482 402.253C494.482 402.253 494.482 402.42 494.314 402.42C494.147 402.755 493.979 403.09 493.979 403.424C493.979 403.927 494.147 404.429 494.482 404.596C494.817 404.764 495.152 404.931 495.487 404.931C495.989 404.931 496.324 404.596 496.659 404.261ZM409.723 404.596C409.89 404.261 409.723 403.759 409.555 403.424C409.388 403.09 409.053 402.755 408.55 402.587H408.382C407.88 402.42 407.377 402.587 407.042 402.755C406.707 402.922 406.54 403.257 406.54 403.592C406.54 403.759 406.54 403.927 406.54 404.094C406.54 404.764 407.042 405.433 407.712 405.601H407.88C408.047 405.601 408.215 405.601 408.382 405.601C408.885 405.768 409.555 405.266 409.723 404.596ZM418.433 407.107C418.6 406.27 418.098 405.433 417.26 405.098H417.093C416.925 405.098 416.758 405.098 416.758 405.098C416.088 405.098 415.418 405.601 415.25 406.27C415.25 406.438 415.25 406.605 415.25 406.605C415.25 407.275 415.753 407.944 416.423 408.111H416.59C416.758 408.111 416.925 408.111 416.925 408.111C417.763 408.279 418.265 407.777 418.433 407.107ZM427.311 409.283C427.478 408.949 427.311 408.446 427.143 408.111C426.976 407.777 426.641 407.442 426.138 407.442C426.138 407.442 426.138 407.442 425.971 407.442C425.803 407.442 425.636 407.442 425.636 407.442C424.966 407.442 424.296 407.944 424.128 408.614C424.128 408.781 424.128 408.948 424.128 408.948C424.128 409.618 424.631 410.288 425.301 410.455H425.468C425.636 410.455 425.803 410.455 425.803 410.455C426.641 410.622 427.143 410.12 427.311 409.283ZM489.289 410.455C489.791 410.12 490.126 409.785 490.126 409.451C490.294 409.116 490.127 408.614 489.959 408.279C489.624 407.777 489.121 407.442 488.619 407.442C488.284 407.442 488.116 407.442 487.781 407.609C487.781 407.609 487.781 407.609 487.614 407.609C487.111 407.944 486.776 408.446 486.776 408.948C486.776 409.283 486.776 409.451 486.944 409.785C487.279 410.288 487.781 410.622 488.284 410.622C488.786 410.622 488.954 410.622 489.289 410.455ZM436.356 411.292C436.524 410.455 436.021 409.618 435.184 409.451C435.184 409.451 435.184 409.451 435.016 409.451C434.849 409.451 434.849 409.451 434.681 409.451C434.011 409.451 433.341 409.953 433.174 410.79C433.174 410.957 433.174 410.957 433.174 411.125C433.174 411.962 433.676 412.464 434.514 412.631H434.681C434.849 412.631 434.849 412.631 435.016 412.631C435.519 412.631 436.189 411.962 436.356 411.292ZM480.411 413.97H480.579C480.914 413.803 481.416 413.636 481.584 413.301C481.751 412.966 481.919 412.464 481.751 412.129C481.584 411.459 480.914 410.957 480.243 410.957C480.076 410.957 479.909 410.957 479.909 410.957H479.741C479.071 411.125 478.568 411.794 478.568 412.464C478.568 412.631 478.568 412.799 478.568 412.799C478.736 413.468 479.406 413.97 480.076 413.97C480.076 414.138 480.243 414.138 480.411 413.97ZM444.732 413.803C445.067 413.468 445.234 413.133 445.234 412.799C445.234 412.464 445.234 411.962 444.899 411.627C444.564 411.292 444.229 411.125 443.894 410.957H443.727C443.224 410.957 442.722 410.957 442.387 411.292C442.052 411.627 441.884 411.794 441.884 412.296C441.884 412.464 441.884 412.464 441.884 412.631C441.884 413.468 442.387 414.138 443.224 414.138H443.392C443.559 414.138 443.559 414.138 443.727 414.138C444.062 414.138 444.564 414.138 444.732 413.803ZM453.945 414.975C454.28 414.64 454.447 414.305 454.447 413.97C454.615 413.133 453.945 412.296 452.94 412.296C452.94 412.296 452.94 412.296 452.772 412.296C452.27 412.296 451.935 412.464 451.6 412.631C451.265 412.966 451.097 413.301 451.097 413.636V413.803C451.097 414.64 451.767 415.31 452.605 415.31C452.605 415.31 452.605 415.31 452.772 415.31H452.94C453.275 415.31 453.61 415.31 453.945 414.975ZM471.031 415.644C471.198 415.644 471.198 415.644 471.198 415.644C472.036 415.477 472.706 414.807 472.706 413.97C472.706 413.636 472.538 413.133 472.203 412.966C471.868 412.631 471.366 412.464 471.031 412.631H470.863H470.696C470.361 412.631 469.858 412.799 469.691 413.133C469.355 413.468 469.355 413.803 469.355 414.138V414.305C469.355 414.64 469.523 415.142 469.858 415.31C470.193 415.477 470.528 415.644 471.031 415.644ZM463.158 415.477C463.493 415.142 463.66 414.807 463.66 414.305C463.66 413.468 462.99 412.631 462.153 412.631H461.985H461.818C461.483 412.631 460.98 412.799 460.645 413.133C460.31 413.468 460.143 413.803 460.143 414.305C460.143 414.64 460.31 415.142 460.645 415.477C460.98 415.812 461.315 415.979 461.818 415.979H461.985H462.153C462.488 415.979 462.823 415.812 463.158 415.477Z" fill="white"/>
</g>
<mask id="mask59_5328_49568" style="mask-type:luminance" maskUnits="userSpaceOnUse" x="0" y="0" width="564" height="505">
<path d="M564 0H0V504.867H564V0Z" fill="white"/>
</mask>
<g mask="url(#mask59_5328_49568)">
<path d="M465.169 323.911C465.671 323.409 465.839 322.405 465.336 321.735C464.834 321.065 463.996 320.898 463.326 321.233C462.489 321.568 462.154 322.572 462.656 323.409C462.824 323.576 462.991 323.744 462.991 323.911C463.326 324.246 463.661 324.413 464.164 324.413C464.499 324.413 464.834 324.246 465.169 323.911Z" fill="white"/>
</g>
<mask id="mask60_5328_49568" style="mask-type:luminance" maskUnits="userSpaceOnUse" x="0" y="0" width="564" height="505">
<path d="M564 0H0V504.867H564V0Z" fill="white"/>
</mask>
<g mask="url(#mask60_5328_49568)">
<path d="M92.4637 242.724C91.4586 242.724 90.7886 242.055 90.6211 241.05C90.4536 240.046 91.2911 239.209 92.2961 239.042C93.4687 238.874 94.6413 238.707 95.9813 238.707C97.1539 238.539 98.4939 238.372 99.6665 238.372C100.672 238.205 101.509 239.042 101.677 240.046C101.844 241.05 101.007 241.887 100.002 242.055C98.829 242.222 97.6564 242.39 96.3163 242.39C95.1438 242.557 93.8037 242.724 92.6312 242.724H92.4637Z" fill="white"/>
</g>
<mask id="mask61_5328_49568" style="mask-type:luminance" maskUnits="userSpaceOnUse" x="0" y="0" width="564" height="505">
<path d="M564 0H0V504.867H564V0Z" fill="white"/>
</mask>
<g mask="url(#mask61_5328_49568)">
<path d="M489.793 186.815C489.29 186.815 488.788 186.48 488.453 186.146C487.95 185.476 488.118 184.472 488.955 183.969C503.528 174.26 516.259 159.864 523.964 144.464C531.837 128.729 533.68 113.663 529.325 102.113C525.975 93.0732 518.939 86.5447 508.554 82.6946C496.661 78.1749 480.58 77.3379 460.981 80.1837C430.327 84.536 399.338 99.6016 378.735 111.654C356.289 124.711 341.045 136.764 340.878 136.931C340.208 137.433 339.203 137.433 338.7 136.596C338.198 135.927 338.198 134.922 339.035 134.42C339.203 134.253 354.614 122.033 377.227 108.976C390.46 101.276 403.694 94.7471 416.257 89.7253C432.002 83.3642 446.911 79.1793 460.646 77.1705C480.747 74.3248 497.331 75.3292 509.726 79.8489C515.422 82.025 520.279 85.0382 524.132 88.7209C527.817 92.2362 530.497 96.4211 532.34 101.108C537.03 113.496 535.187 129.566 526.98 146.138C523.127 154.005 517.934 161.538 511.904 168.402C505.538 175.6 498.503 181.793 490.965 186.815C490.463 186.815 490.128 186.815 489.793 186.815Z" fill="white"/>
</g>
<mask id="mask62_5328_49568" style="mask-type:luminance" maskUnits="userSpaceOnUse" x="0" y="0" width="564" height="505">
<path d="M564 0H0V504.867H564V0Z" fill="white"/>
</mask>
<g mask="url(#mask62_5328_49568)">
<path d="M111.728 76.8347C112.733 76.8347 113.57 76.1652 113.57 75.1608C113.57 74.1564 112.9 73.4868 111.895 73.4868H111.728C110.89 73.4868 110.053 74.1564 110.22 75.1608C110.22 75.9978 110.89 76.8347 111.728 76.8347ZM122.783 75.8304C122.783 74.826 122.113 74.1564 121.276 73.989H121.108H120.941C120.103 73.989 119.433 74.6586 119.433 75.4956C119.433 75.8304 119.433 76.3325 119.768 76.6673C120.103 77.0021 120.438 77.1695 120.773 77.1695C120.773 77.1695 120.773 77.1695 120.941 77.1695C120.941 77.1695 120.941 77.1695 121.108 77.1695H121.276C121.946 77.1695 122.783 76.6673 122.783 75.8304ZM102.85 77.3369H103.017C103.855 77.1695 104.357 76.5 104.357 75.663V75.4956C104.357 75.1608 104.022 74.826 103.855 74.4912C103.52 74.1564 103.017 73.989 102.515 74.1564H102.347C102.012 74.1564 101.51 74.4912 101.342 74.826C101.175 75.1608 101.007 75.663 101.007 75.9978C101.007 76.3326 101.342 76.6674 101.51 77.0021C101.845 77.3369 102.18 77.3369 102.515 77.3369C102.682 77.5043 102.682 77.5043 102.85 77.3369ZM131.996 77.3369C131.996 77.1695 131.996 77.1695 131.996 77.0021C131.996 76.1652 131.494 75.663 130.656 75.4956H130.489C130.321 75.4956 130.321 75.4956 130.154 75.4956C129.316 75.4956 128.814 75.9978 128.646 76.8347C128.479 77.6717 128.981 78.5087 129.986 78.6761H130.154C130.321 78.6761 130.321 78.6761 130.489 78.6761C131.159 78.6761 131.829 78.0065 131.996 77.3369ZM94.1395 79.5131C94.977 79.1783 95.312 78.6761 95.312 78.0065C95.312 77.8391 95.312 77.6717 95.1445 77.5043C94.977 76.8347 94.307 76.5 93.6369 76.5C93.4694 76.5 93.3019 76.4999 93.1344 76.6673C93.1344 76.6673 93.1344 76.6673 92.9669 76.6673C92.1294 77.0021 91.6268 77.8391 91.9618 78.6761C92.1294 79.3457 92.7994 79.8479 93.4694 79.8479C93.8044 79.5131 93.9719 79.5131 94.1395 79.5131ZM140.874 79.5131C140.874 79.3457 140.874 79.1783 140.874 79.1783C140.874 78.5087 140.372 77.8391 139.702 77.6717H139.534C139.367 77.6717 139.199 77.6717 139.199 77.6717C138.529 77.6717 137.859 78.1739 137.692 78.8435C137.524 79.1783 137.692 79.6805 137.859 80.0153C138.027 80.3501 138.362 80.6849 138.864 80.6849C138.864 80.6849 138.864 80.6849 139.032 80.6849C139.032 80.6849 139.032 80.6849 139.199 80.6849C139.367 80.6849 139.534 80.6849 139.534 80.6849C140.037 80.6849 140.707 80.1827 140.874 79.5131ZM149.752 82.1914C149.752 82.024 149.752 81.8566 149.752 81.6892C149.752 81.0196 149.25 80.3501 148.58 80.1827H148.412C148.245 80.1827 148.077 80.1827 147.91 80.1827C147.24 80.1827 146.57 80.6849 146.402 81.3544C146.234 81.6892 146.234 82.1914 146.57 82.5262C146.737 82.861 147.072 83.1958 147.575 83.3632C147.575 83.3632 147.575 83.3632 147.742 83.3632C147.91 83.3632 148.077 83.3632 148.245 83.3632C148.915 83.3632 149.585 82.861 149.752 82.1914ZM86.0991 83.1958C86.7691 82.861 86.9366 82.3588 86.9366 81.6892C86.9366 81.3544 86.9366 81.187 86.7691 80.8522C86.4341 80.3501 85.9316 80.0153 85.429 80.0153C85.094 80.0153 84.9265 80.0153 84.5915 80.1827L84.424 80.3501C83.7539 80.8523 83.4189 81.8566 83.9215 82.5262C84.2565 83.0284 84.759 83.3632 85.2615 83.3632C85.429 83.5306 85.764 83.3632 86.0991 83.1958ZM158.463 85.372C158.463 85.2046 158.63 85.0372 158.63 84.8698C158.63 84.2002 158.295 83.698 157.625 83.3632H157.458C157.29 83.3632 157.123 83.1958 156.955 83.1958C156.285 83.1958 155.615 83.5306 155.447 84.2002C155.28 84.535 155.28 85.0372 155.447 85.372C155.615 85.7068 155.95 86.0415 156.285 86.2089C156.285 86.2089 156.285 86.2089 156.452 86.2089C156.452 86.2089 156.452 86.2089 156.62 86.2089C156.787 86.2089 156.955 86.3763 157.123 86.3763C157.625 86.3763 158.295 85.8742 158.463 85.372ZM79.0637 88.7199C79.5662 88.2177 79.7338 87.8829 79.7338 87.3807C79.7338 87.0459 79.5662 86.5437 79.2312 86.2089C78.8962 85.8742 78.5612 85.7068 78.0587 85.7068C77.7237 85.7068 77.2211 85.8742 76.8861 86.2089L76.7186 86.3763C76.0486 87.0459 76.0486 88.0503 76.7186 88.7199C77.0536 89.0547 77.3886 89.2221 77.8912 89.2221C78.3937 89.2221 78.7287 89.0547 79.0637 88.7199ZM167.006 88.8873C167.173 88.7199 167.173 88.5525 167.173 88.2177C167.173 87.5481 166.838 87.0459 166.168 86.7111H166C165.833 86.5437 165.665 86.5437 165.33 86.5437C164.66 86.5437 164.158 86.8785 163.823 87.5481C163.655 87.8829 163.655 88.3851 163.823 88.7199C163.99 89.0547 164.325 89.3895 164.66 89.5569H164.828C164.995 89.7243 165.163 89.7243 165.498 89.7243C166.168 89.7243 166.838 89.3895 167.006 88.8873ZM175.548 92.57C175.716 92.4026 175.716 92.0678 175.716 91.9004C175.716 91.2308 175.381 90.7286 174.711 90.3939H174.543C174.376 90.2265 174.041 90.2264 173.873 90.2264C173.203 90.2264 172.701 90.5612 172.366 91.2308C172.198 91.5656 172.198 92.0678 172.366 92.4026C172.533 92.7374 172.868 93.0722 173.203 93.2396H173.371C173.538 93.407 173.873 93.407 174.041 93.407C174.711 93.5744 175.213 93.2396 175.548 92.57ZM73.5359 95.5831C73.871 95.2483 73.871 94.9136 73.871 94.5788C73.871 94.0766 73.536 93.5744 73.2009 93.2396C72.8659 93.0722 72.6984 92.9048 72.3634 92.9048C71.8609 92.9048 71.3583 93.2396 71.0233 93.5744L70.8558 93.7418C70.6883 94.0766 70.5208 94.5788 70.6883 94.9135C70.8558 95.2483 71.0233 95.7505 71.3583 95.9179C71.6934 96.0853 71.8609 96.2527 72.1959 96.2527C72.6984 96.4201 73.2009 96.0853 73.5359 95.5831ZM183.756 96.7549C183.924 96.5875 183.924 96.2527 183.924 96.0853C183.924 95.4157 183.589 94.9135 183.086 94.7461C183.086 94.7461 182.919 94.7462 182.919 94.5788C182.751 94.4114 182.416 94.4114 182.249 94.4114C181.579 94.4114 181.076 94.7461 180.741 95.2483C180.406 96.0853 180.741 96.9223 181.411 97.4245H181.579C181.746 97.5919 182.081 97.5919 182.249 97.5919C183.086 97.5919 183.589 97.2571 183.756 96.7549ZM191.964 101.107C192.132 100.94 192.132 100.605 192.132 100.27C192.132 99.768 191.797 99.0984 191.294 98.931C191.294 98.931 191.294 98.931 191.127 98.931C190.959 98.7637 190.624 98.7637 190.289 98.7637C189.787 98.7637 189.117 99.0985 188.949 99.6006C188.782 99.9354 188.614 100.438 188.782 100.772C188.949 101.107 189.117 101.442 189.619 101.777C189.619 101.777 189.787 101.777 189.787 101.944C189.954 102.112 190.289 102.112 190.624 102.112C191.127 101.944 191.797 101.609 191.964 101.107ZM69.5158 103.618C69.6833 103.283 69.6833 103.116 69.6833 102.949C69.6833 102.279 69.3482 101.777 68.6782 101.442C68.5107 101.442 68.3432 101.275 68.1757 101.275C67.5057 101.275 67.0031 101.609 66.6681 102.279V102.446C66.3331 103.283 66.8356 104.12 67.6732 104.455C67.8407 104.455 68.0082 104.623 68.1757 104.623C68.6782 104.623 69.1807 104.12 69.5158 103.618ZM200.005 105.627C200.172 105.46 200.172 105.125 200.172 104.79C200.172 104.288 199.837 103.618 199.335 103.451L199.167 103.283C199 103.116 198.665 103.116 198.33 103.116C197.827 103.116 197.157 103.451 196.989 103.953C196.487 104.79 196.822 105.627 197.492 106.129H197.66C197.827 106.296 198.162 106.297 198.497 106.297C199.167 106.464 199.837 106.129 200.005 105.627ZM208.045 110.314C208.213 109.979 208.213 109.812 208.213 109.477C208.213 108.975 207.878 108.473 207.375 108.138C207.375 108.138 207.207 108.138 207.207 107.97C206.872 107.803 206.705 107.803 206.37 107.803C205.867 107.803 205.365 108.138 205.03 108.64C204.862 108.975 204.695 109.477 204.862 109.812C205.03 110.147 205.197 110.649 205.532 110.816H205.7C206.035 110.984 206.202 110.984 206.537 110.984C207.207 111.151 207.71 110.816 208.045 110.314ZM67.0031 112.155C67.0031 111.821 67.0031 111.821 67.0031 111.653C67.0031 110.816 66.5006 110.147 65.6631 110.147C65.4956 110.147 65.4956 110.147 65.3281 110.147C64.4905 110.147 63.8205 110.649 63.8205 111.486C63.8205 111.486 63.8205 111.486 63.8205 111.653C63.653 112.49 64.1555 113.327 65.1605 113.495C65.328 113.495 65.328 113.495 65.4956 113.495C66.3331 113.495 67.0031 112.992 67.0031 112.155ZM215.918 115.336C216.085 115.001 216.253 114.834 216.253 114.499C216.253 113.997 215.918 113.495 215.583 113.16L215.415 112.992C215.08 112.825 214.913 112.658 214.578 112.658C214.075 112.658 213.573 112.992 213.238 113.327C212.735 113.997 212.903 115.001 213.74 115.503C213.74 115.503 213.908 115.503 213.908 115.671C214.243 115.838 214.41 116.005 214.745 116.005C215.08 116.005 215.583 115.838 215.918 115.336ZM223.623 120.358C223.791 120.023 223.958 119.856 223.958 119.521C223.958 119.019 223.623 118.516 223.288 118.182C223.288 118.182 223.288 118.182 223.121 118.182C222.786 118.014 222.618 117.847 222.283 117.847C221.781 117.847 221.278 118.182 220.943 118.516C220.776 118.851 220.608 119.353 220.776 119.688C220.943 120.023 221.111 120.525 221.446 120.693L221.613 120.86C221.948 121.027 222.116 121.195 222.451 121.195C222.786 121.027 223.288 120.86 223.623 120.358ZM65.6631 122.199C65.9981 121.864 66.1656 121.53 66.1656 121.027V120.86C66.1656 120.525 65.9981 120.023 65.6631 119.688C65.3281 119.353 64.993 119.186 64.4905 119.186C63.988 119.186 63.653 119.353 63.318 119.688C62.9829 120.023 62.8154 120.358 62.8154 120.86V121.027C62.8154 121.53 62.9829 121.864 63.318 122.199C63.653 122.534 63.988 122.701 64.4905 122.701C64.993 122.701 65.4956 122.534 65.6631 122.199ZM231.161 125.547C231.329 125.212 231.496 125.045 231.496 124.71C231.496 124.208 231.161 123.706 230.826 123.371L230.659 123.204C230.324 123.036 230.156 122.869 229.821 122.869C229.319 122.869 228.816 123.204 228.481 123.538C227.978 124.208 228.146 125.212 228.816 125.714C228.816 125.714 228.816 125.714 228.984 125.714C229.319 125.882 229.486 126.049 229.821 126.049C230.491 126.217 230.994 126.049 231.161 125.547ZM238.867 130.904C239.034 130.569 239.202 130.234 239.202 129.899C239.202 129.397 238.867 128.895 238.532 128.56L238.364 128.393C238.029 128.225 237.694 128.058 237.359 128.058C236.856 128.058 236.354 128.393 236.019 128.728C235.684 129.062 235.684 129.565 235.684 129.899C235.684 130.234 236.019 130.736 236.354 130.904L236.521 131.071C236.856 131.239 237.191 131.406 237.526 131.406C238.029 131.573 238.531 131.406 238.867 130.904ZM65.3281 131.908C66.1656 131.741 66.8356 131.071 66.6681 130.067V129.899C66.5006 129.062 65.8306 128.56 65.1605 128.56H64.993C64.1555 128.728 63.653 129.397 63.653 130.234V130.402C63.653 130.402 63.653 130.402 63.653 130.569C63.653 131.239 64.323 131.908 65.3281 131.908C65.1605 131.908 65.1605 131.908 65.3281 131.908ZM246.237 136.428C246.404 136.093 246.572 135.758 246.572 135.423C246.572 134.921 246.404 134.419 245.902 134.084C245.902 134.084 245.734 134.084 245.734 133.917C245.399 133.749 245.064 133.582 244.729 133.582C244.227 133.582 243.724 133.917 243.389 134.252C242.887 134.921 243.054 135.926 243.724 136.428C243.724 136.428 243.892 136.428 243.892 136.595C244.227 136.763 244.562 136.93 244.897 136.93C245.567 137.097 246.069 136.763 246.237 136.428ZM67.1706 140.948C68.0082 140.78 68.5107 139.943 68.3432 139.106V138.939C68.1757 138.269 67.5057 137.767 66.8356 137.767C66.6681 137.767 66.5006 137.767 66.5006 137.767C66.1656 137.934 65.8306 138.102 65.6631 138.269C65.4956 138.604 65.3281 138.939 65.3281 139.274C65.3281 139.441 65.3281 139.441 65.3281 139.608V139.776C65.4956 140.445 66.1656 140.948 66.8356 140.948C66.8356 141.115 67.0031 140.948 67.1706 140.948ZM253.775 141.952C253.942 141.617 254.11 141.282 254.11 140.948C254.11 140.445 253.942 139.943 253.44 139.608C253.105 139.441 252.77 139.274 252.435 139.274C251.932 139.274 251.43 139.441 251.095 139.943C250.76 140.278 250.76 140.78 250.76 141.115C250.76 141.45 251.095 141.952 251.43 142.119C251.43 142.119 251.597 142.119 251.597 142.287C251.932 142.454 252.267 142.621 252.602 142.621C252.937 142.454 253.44 142.287 253.775 141.952ZM261.145 147.476C261.313 147.141 261.48 146.806 261.48 146.472C261.48 145.969 261.313 145.467 260.81 145.132C260.81 145.132 260.643 145.132 260.643 144.965C260.308 144.798 259.973 144.63 259.638 144.63C259.135 144.63 258.632 144.798 258.297 145.3C257.962 145.635 257.962 146.137 257.962 146.472C257.962 146.806 258.297 147.309 258.632 147.476C258.632 147.476 258.632 147.476 258.8 147.643C259.135 147.811 259.47 147.978 259.805 147.978C260.308 148.146 260.81 147.811 261.145 147.476ZM69.8508 149.82C70.6883 149.485 71.1908 148.648 70.8558 147.811V147.643C70.6883 146.974 70.0183 146.639 69.3482 146.639C69.1807 146.639 69.0132 146.639 68.8457 146.806C68.1757 146.974 67.6732 147.643 67.6732 148.313C67.6732 148.48 67.6732 148.648 67.8407 148.815V148.983C68.0082 149.652 68.6782 149.987 69.3482 149.987C69.5158 149.987 69.6833 149.82 69.8508 149.82ZM268.515 153.167C268.683 152.833 268.85 152.498 268.85 152.163C268.85 151.661 268.683 151.159 268.18 150.824C268.18 150.824 268.013 150.824 268.013 150.657C267.678 150.489 267.343 150.322 267.008 150.322C266.505 150.322 266.003 150.489 265.668 150.991C265.165 151.661 265.333 152.665 266.003 153.167C266.003 153.167 266.17 153.167 266.17 153.335C266.505 153.502 266.84 153.67 267.175 153.67C267.678 153.67 268.18 153.502 268.515 153.167ZM73.3684 158.357C73.7035 158.189 74.0385 157.855 74.206 157.52C74.3735 157.185 74.3735 156.683 74.206 156.348V156.181C73.871 155.678 73.3684 155.176 72.6984 155.176C72.5309 155.176 72.1959 155.176 72.0284 155.344C71.5259 155.678 71.0233 156.181 71.0233 156.85C71.0233 157.018 71.0233 157.352 71.1908 157.52V157.687C71.5259 158.189 72.0284 158.692 72.6984 158.692C72.8659 158.524 73.0334 158.524 73.3684 158.357ZM275.718 158.692C275.886 158.357 276.053 158.022 276.053 157.687C276.053 157.185 275.886 156.683 275.383 156.515C275.383 156.515 275.216 156.515 275.216 156.348C274.881 156.181 274.546 156.013 274.211 156.013C273.708 156.013 273.206 156.181 272.871 156.683C272.536 157.018 272.536 157.52 272.536 157.855C272.536 158.189 272.871 158.692 273.206 158.859C273.206 158.859 273.206 158.859 273.373 158.859C273.708 159.026 274.043 159.194 274.378 159.194C275.048 159.361 275.551 159.194 275.718 158.692ZM283.089 164.55C283.256 164.216 283.424 163.881 283.424 163.546C283.424 163.044 283.256 162.542 282.754 162.374C282.754 162.374 282.754 162.374 282.586 162.374C282.251 162.207 281.916 162.039 281.581 162.039C281.079 162.039 280.576 162.207 280.409 162.709C280.074 163.044 280.074 163.379 280.074 163.881C280.074 164.216 280.409 164.718 280.744 164.885L280.911 165.053C281.246 165.22 281.581 165.387 281.916 165.387C282.251 165.053 282.754 164.885 283.089 164.55ZM77.5561 166.559C77.8912 166.392 78.2262 166.057 78.3937 165.555C78.5612 165.22 78.3937 164.718 78.2262 164.383L78.0587 164.216C77.7237 163.713 77.2211 163.379 76.7186 163.379C76.3836 163.379 76.2161 163.379 75.8811 163.546C75.3785 163.881 75.0435 164.383 75.0435 164.885C75.0435 165.22 75.0435 165.387 75.211 165.722V165.89C75.546 166.392 76.0486 166.727 76.5511 166.727C77.0536 166.894 77.3886 166.727 77.5561 166.559ZM290.292 170.242C290.459 169.907 290.627 169.572 290.627 169.237C290.627 168.735 290.459 168.233 289.957 168.066L289.789 167.898C289.454 167.731 289.119 167.564 288.784 167.564C288.281 167.564 287.779 167.731 287.611 168.233C287.276 168.568 287.276 168.903 287.276 169.405C287.276 169.74 287.611 170.242 287.946 170.409C287.946 170.409 288.114 170.409 288.114 170.577C288.449 170.744 288.784 170.911 289.119 170.911C289.621 170.911 289.956 170.577 290.292 170.242ZM297.494 175.933C297.662 175.599 297.829 175.264 297.829 174.929C297.829 174.427 297.662 173.925 297.159 173.757C297.159 173.757 296.992 173.757 296.992 173.59C296.657 173.422 296.322 173.255 295.987 173.255C295.484 173.255 294.982 173.422 294.814 173.925C294.479 174.259 294.479 174.594 294.479 175.096C294.479 175.431 294.814 175.933 295.149 176.101C295.149 176.101 295.149 176.101 295.317 176.268C295.652 176.436 295.987 176.603 296.322 176.603C296.824 176.603 297.327 176.436 297.494 175.933ZM304.865 181.792C305.2 181.457 305.2 181.123 305.2 180.62C305.2 180.286 304.865 179.783 304.53 179.616L304.362 179.449C304.027 179.281 303.692 179.114 303.357 179.114C302.855 179.114 302.352 179.281 302.185 179.783C301.682 180.453 301.682 181.457 302.52 181.96L302.687 182.127C303.022 182.294 303.357 182.462 303.692 182.462C304.027 182.294 304.53 182.127 304.865 181.792Z" fill="white"/>
</g>
<mask id="mask63_5328_49568" style="mask-type:luminance" maskUnits="userSpaceOnUse" x="0" y="0" width="564" height="505">
<path d="M564 0H0V504.867H564V0Z" fill="white"/>
</mask>
<g mask="url(#mask63_5328_49568)">
<path d="M385.77 144.462C384.765 144.462 383.927 143.792 383.927 142.788C382.922 127.722 373.542 113.494 359.973 106.798C346.405 100.102 329.487 101.274 316.756 109.644C315.919 110.146 314.746 109.978 314.244 109.141C313.741 108.304 313.909 107.133 314.746 106.631C321.446 102.111 329.319 99.5998 337.695 98.9303C346.07 98.4281 354.278 99.9346 361.481 103.617C368.684 107.133 375.049 112.824 379.572 119.687C384.262 126.718 386.942 134.586 387.445 142.621C387.78 143.458 386.942 144.295 385.77 144.462Z" fill="#4A003D"/>
</g>
<mask id="mask64_5328_49568" style="mask-type:luminance" maskUnits="userSpaceOnUse" x="0" y="0" width="564" height="505">
<path d="M564 0H0V504.867H564V0Z" fill="white"/>
</mask>
<g mask="url(#mask64_5328_49568)">
<path d="M385.772 144.463C385.269 144.463 384.934 144.295 384.599 143.961L374.381 134.921C373.544 134.252 373.544 133.08 374.214 132.41C374.884 131.741 376.056 131.573 376.726 132.243L385.437 139.943L391.802 130.904C392.305 130.067 393.477 129.899 394.315 130.569C395.152 131.239 395.32 132.243 394.65 133.08L387.112 143.626C386.777 143.961 386.274 144.295 385.772 144.295C385.939 144.295 385.772 144.463 385.772 144.463Z" fill="#4A003D"/>
</g>
<mask id="mask65_5328_49568" style="mask-type:luminance" maskUnits="userSpaceOnUse" x="0" y="0" width="564" height="505">
<path d="M564 0H0V504.867H564V0Z" fill="white"/>
</mask>
<g mask="url(#mask65_5328_49568)">
<path d="M57.1207 348.519C56.7857 348.519 56.4506 348.352 56.1156 348.184L44.2225 340.986C43.385 340.484 43.05 339.312 43.5525 338.475C44.055 337.638 45.2276 337.304 46.0651 337.806L56.2831 343.832L62.3134 330.775C62.6485 329.938 63.821 329.436 64.8261 329.938C65.6636 330.273 66.1661 331.445 65.6636 332.449L58.6283 347.347C58.4607 347.85 57.9582 348.184 57.4557 348.352C57.6232 348.519 57.4557 348.519 57.1207 348.519Z" fill="#4A003D"/>
</g>
<mask id="mask66_5328_49568" style="mask-type:luminance" maskUnits="userSpaceOnUse" x="0" y="0" width="564" height="505">
<path d="M564 0H0V504.867H564V0Z" fill="white"/>
</mask>
<g mask="url(#mask66_5328_49568)">
<path d="M540.547 367.268C540.212 367.268 539.877 367.268 539.709 367.1L527.816 360.572C526.979 360.07 526.644 358.898 527.146 358.061C527.649 357.224 528.821 356.889 529.659 357.391L541.552 363.92C542.39 364.422 542.725 365.594 542.222 366.431C541.887 366.765 541.217 367.268 540.547 367.268Z" fill="#4A003D"/>
</g>
<mask id="mask67_5328_49568" style="mask-type:luminance" maskUnits="userSpaceOnUse" x="0" y="0" width="564" height="505">
<path d="M564 0H0V504.867H564V0Z" fill="white"/>
</mask>
<g mask="url(#mask67_5328_49568)">
<path d="M531.336 369.946C531.001 369.946 530.666 369.946 530.499 369.778C529.661 369.276 529.326 368.104 529.829 367.267L536.362 355.382C536.864 354.545 538.037 354.21 538.874 354.713C539.712 355.215 540.047 356.386 539.544 357.223L533.012 369.109C532.677 369.611 532.006 369.946 531.336 369.946Z" fill="#4A003D"/>
</g>
<mask id="mask68_5328_49568" style="mask-type:luminance" maskUnits="userSpaceOnUse" x="0" y="0" width="564" height="505">
<path d="M564 0H0V504.867H564V0Z" fill="white"/>
</mask>
<g mask="url(#mask68_5328_49568)">
<path d="M402.69 380.994C401.852 380.994 401.015 380.659 400.512 379.822L389.792 363.417C388.954 362.246 389.289 360.572 390.629 359.735C391.802 358.898 393.477 359.232 394.314 360.572L405.035 376.976C405.872 378.148 405.537 379.822 404.197 380.659C403.695 380.827 403.192 380.994 402.69 380.994Z" fill="#019772"/>
</g>
<mask id="mask69_5328_49568" style="mask-type:luminance" maskUnits="userSpaceOnUse" x="0" y="0" width="564" height="505">
<path d="M564 0H0V504.867H564V0Z" fill="white"/>
</mask>
<g mask="url(#mask69_5328_49568)">
<path d="M389.12 378.148C388.282 378.148 387.444 377.813 386.942 376.976C386.104 375.804 386.439 374.13 387.78 373.293L404.195 362.58C405.368 361.743 407.043 362.078 407.88 363.417C408.718 364.589 408.383 366.263 407.043 367.1L390.627 377.813C390.125 377.98 389.622 378.148 389.12 378.148Z" fill="#019772"/>
</g>
<mask id="mask70_5328_49568" style="mask-type:luminance" maskUnits="userSpaceOnUse" x="0" y="0" width="564" height="505">
<path d="M564 0H0V504.867H564V0Z" fill="white"/>
</mask>
<g mask="url(#mask70_5328_49568)">
<path d="M73.8697 224.813H73.7022C72.1946 224.645 71.1896 223.474 71.3571 221.967L73.0321 202.382C73.1997 200.875 74.3722 199.871 75.8798 200.038C77.3874 200.206 78.3924 201.377 78.2249 202.884L76.5498 222.469C76.3823 223.808 75.2098 224.813 73.8697 224.813Z" fill="#FFEB00"/>
</g>
<mask id="mask71_5328_49568" style="mask-type:luminance" maskUnits="userSpaceOnUse" x="0" y="0" width="564" height="505">
<path d="M564 0H0V504.867H564V0Z" fill="white"/>
</mask>
<g mask="url(#mask71_5328_49568)">
<path d="M84.4242 215.942H84.2567L64.6582 214.268C63.1507 214.1 62.1456 212.928 62.3131 211.422C62.4806 209.915 63.6532 208.911 65.1608 209.078L84.7592 210.752C86.2668 210.92 87.2718 212.091 87.1043 213.598C86.9368 214.937 85.7643 215.942 84.4242 215.942Z" fill="#FFEB00"/>
</g>
<mask id="mask72_5328_49568" style="mask-type:luminance" maskUnits="userSpaceOnUse" x="0" y="0" width="564" height="505">
<path d="M564 0H0V504.867H564V0Z" fill="white"/>
</mask>
<g mask="url(#mask72_5328_49568)">
<path d="M230.826 202.214C230.659 202.214 230.491 202.214 230.324 202.047C229.319 201.712 228.816 200.708 229.151 199.703C231.329 193.007 237.694 187.985 244.562 187.316C250.592 186.814 256.79 189.492 260.643 194.346C263.323 191.333 267.511 189.492 271.531 189.659C276.556 189.827 281.414 192.673 283.759 197.192C284.261 198.029 283.926 199.201 283.089 199.703C282.251 200.205 281.079 199.871 280.576 199.034C278.734 195.853 275.216 193.509 271.363 193.509C267.678 193.509 263.825 195.518 261.983 198.699C261.648 199.201 260.978 199.536 260.308 199.536C259.638 199.536 259.135 199.201 258.8 198.531C256.12 193.677 250.425 190.664 244.897 191.166C239.369 191.668 234.344 195.853 232.501 201.042C232.334 201.712 231.664 202.214 230.826 202.214Z" fill="#FFB0BA"/>
</g>
<mask id="mask73_5328_49568" style="mask-type:luminance" maskUnits="userSpaceOnUse" x="0" y="0" width="564" height="505">
<path d="M564 0H0V504.867H564V0Z" fill="white"/>
</mask>
<g mask="url(#mask73_5328_49568)">
<path d="M351.431 277.041C350.761 277.041 350.091 276.706 349.923 276.036C348.583 272.688 349.588 268.503 352.603 265.825C354.948 263.649 358.299 262.477 362.151 262.477C364.664 262.477 367.009 262.979 369.354 263.816C370.192 264.151 370.694 265.155 370.359 265.992C370.024 266.829 369.019 267.332 368.182 266.997C366.339 266.327 364.161 265.825 362.151 265.825C359.136 265.825 356.624 266.662 354.781 268.336C352.938 270.01 352.101 272.688 352.938 274.697C353.273 275.534 352.938 276.538 351.933 276.873C351.766 277.041 351.598 277.041 351.431 277.041Z" fill="#FF7A7A"/>
</g>
<mask id="mask74_5328_49568" style="mask-type:luminance" maskUnits="userSpaceOnUse" x="0" y="0" width="564" height="505">
<path d="M564 0H0V504.867H564V0Z" fill="white"/>
</mask>
<g mask="url(#mask74_5328_49568)">
<path d="M166.168 314.537C165.33 314.537 164.492 313.867 164.492 313.03C163.822 304.661 169.35 296.458 177.223 293.612C185.096 290.934 194.644 293.947 199.334 300.81C199.837 301.647 199.669 302.652 198.832 303.154C197.994 303.656 196.989 303.489 196.487 302.652C192.634 296.96 184.761 294.449 178.396 296.793C171.863 299.136 167.34 305.832 167.843 312.696C168.01 313.533 167.173 314.37 166.168 314.537Z" fill="#FF7A7A"/>
</g>
<mask id="mask75_5328_49568" style="mask-type:luminance" maskUnits="userSpaceOnUse" x="0" y="0" width="564" height="505">
<path d="M564 0H0V504.867H564V0Z" fill="white"/>
</mask>
<g mask="url(#mask75_5328_49568)">
<path d="M216.587 309.516C215.917 309.516 215.414 309.182 215.079 308.512C213.739 305.834 212.232 303.825 210.557 302.486C208.546 300.979 206.201 300.142 204.024 300.644C201.846 300.979 200.004 302.653 199.501 304.662C199.334 305.666 198.328 306.169 197.491 306.001C196.486 305.834 195.983 304.829 196.151 303.992C196.821 300.644 199.836 297.966 203.521 297.464C206.536 296.962 209.887 297.966 212.734 299.975C214.912 301.649 216.754 303.992 218.262 307.173C218.597 308.01 218.262 309.014 217.424 309.516C217.089 309.349 216.922 309.516 216.587 309.516Z" fill="#FF7A7A"/>
</g>
<mask id="mask76_5328_49568" style="mask-type:luminance" maskUnits="userSpaceOnUse" x="0" y="0" width="564" height="505">
<path d="M564 0H0V504.867H564V0Z" fill="white"/>
</mask>
<g mask="url(#mask76_5328_49568)">
<path d="M301.683 321.903C300.845 321.903 300.175 321.401 300.007 320.564C299.002 315.207 301.682 309.181 306.54 306.503C309.89 304.661 313.911 304.494 317.428 305.666C317.261 303.155 317.931 300.309 319.773 298.468C322.956 295.12 328.316 294.785 332.001 297.463C332.672 297.965 332.839 299.137 332.337 299.807C331.834 300.476 330.661 300.644 329.991 300.142C327.814 298.468 324.296 298.803 322.286 300.644C320.443 302.653 320.276 306.168 322.118 308.344C322.789 309.014 322.621 310.018 321.951 310.688C321.281 311.357 320.276 311.357 319.606 310.688C316.591 308.009 311.733 307.34 308.215 309.348C304.698 311.357 302.688 315.877 303.358 319.727C303.525 320.731 303.023 321.568 302.018 321.736C302.018 321.903 301.85 321.903 301.683 321.903Z" fill="#FF7A7A"/>
</g>
<mask id="mask77_5328_49568" style="mask-type:luminance" maskUnits="userSpaceOnUse" x="0" y="0" width="564" height="505">
<path d="M564 0H0V504.867H564V0Z" fill="white"/>
</mask>
<g mask="url(#mask77_5328_49568)">
<path d="M302.854 93.0729C302.854 99.9361 299.839 106.13 294.981 110.315C290.124 114.5 287.443 120.693 287.443 127.222C287.443 128.561 286.271 129.733 284.931 129.733H274.545C273.205 129.733 272.033 128.561 272.033 127.222V127.054C272.033 120.526 269.185 114.5 264.327 110.147C259.47 105.795 256.454 99.4339 256.622 92.4033C256.957 80.1834 267.007 70.1396 279.235 69.9722C292.301 69.9722 302.854 80.1833 302.854 93.0729Z" fill="#FFEB00"/>
</g>
<mask id="mask78_5328_49568" style="mask-type:luminance" maskUnits="userSpaceOnUse" x="0" y="0" width="564" height="505">
<path d="M564 0H0V504.867H564V0Z" fill="white"/>
</mask>
<g mask="url(#mask78_5328_49568)">
<path d="M275.884 137.935H283.924C284.929 137.935 285.767 137.098 285.767 136.093C285.767 135.089 284.929 134.252 283.924 134.252H275.884C274.879 134.252 274.041 135.089 274.041 136.093C274.041 137.098 274.879 137.935 275.884 137.935Z" fill="white"/>
</g>
<mask id="mask79_5328_49568" style="mask-type:luminance" maskUnits="userSpaceOnUse" x="0" y="0" width="564" height="505">
<path d="M564 0H0V504.867H564V0Z" fill="white"/>
</mask>
<g mask="url(#mask79_5328_49568)">
<path d="M287.107 62.9413C288.112 63.2761 289.117 62.6065 289.452 61.6021L291.965 52.0605C292.3 51.0561 291.63 50.0518 290.625 49.717C289.62 49.3822 288.614 50.0518 288.279 51.0561L285.767 60.5977C285.432 61.7695 286.102 62.7739 287.107 62.9413Z" fill="white"/>
</g>
<mask id="mask80_5328_49568" style="mask-type:luminance" maskUnits="userSpaceOnUse" x="0" y="0" width="564" height="505">
<path d="M564 0H0V504.867H564V0Z" fill="white"/>
</mask>
<g mask="url(#mask80_5328_49568)">
<path d="M300.51 68.9676C301.012 68.9676 301.515 68.8002 302.017 68.298C304.363 65.2848 306.875 62.4391 309.22 59.426C309.89 58.589 309.723 57.4172 308.885 56.7476C308.048 56.0781 306.875 56.2454 306.205 57.0824C303.86 59.9282 301.347 62.9413 299.002 65.9544C298.332 66.7914 298.5 67.9632 299.337 68.6328C299.672 68.9676 300.175 68.9676 300.51 68.9676Z" fill="white"/>
</g>
<mask id="mask81_5328_49568" style="mask-type:luminance" maskUnits="userSpaceOnUse" x="0" y="0" width="564" height="505">
<path d="M564 0H0V504.867H564V0Z" fill="white"/>
</mask>
<g mask="url(#mask81_5328_49568)">
<path d="M312.403 78.844C312.57 78.844 312.738 78.844 312.905 78.844L322.788 76.1656C323.793 75.8308 324.296 74.8264 324.128 73.8221C323.793 72.8177 322.788 72.3155 321.783 72.4829L311.9 75.1612C310.895 75.496 310.393 76.5004 310.56 77.5048C310.728 78.3418 311.565 78.844 312.403 78.844Z" fill="white"/>
</g>
</svg>
