<svg width="35" height="26" viewBox="0 0 35 26" fill="none" xmlns="http://www.w3.org/2000/svg">
<path fill-rule="evenodd" clip-rule="evenodd" d="M0.907471 25.6913V21.5375C3.78904 20.5493 12.6121 18.6681 13.0265 15.949C13.1198 15.3353 11.2427 12.995 10.8118 11.8735C9.88974 10.7414 9.56042 8.94272 10.5676 7.74715C10.9683 7.27104 10.7981 5.53799 10.7981 4.88413C10.7981 -1.62698 25.5957 -1.6291 25.5957 4.88413C25.5957 5.70727 25.3487 7.22025 25.9305 7.86777C26.902 8.95119 26.3998 10.8705 25.582 11.8735C25.0578 13.0521 23.0626 15.2824 23.2328 15.949C23.8667 18.4332 32.0504 20.1028 34.6274 20.9852V25.6892L0.907471 25.6913Z" fill="#B36963"/>
</svg>
