<svg width="35" height="24" viewBox="0 0 35 24" fill="none" xmlns="http://www.w3.org/2000/svg">
<path fill-rule="evenodd" clip-rule="evenodd" d="M0.907471 21.1737H4.94683V0.332194C4.94683 0.150228 5.14167 0 5.37766 0H19.0599C19.2959 0 19.4907 0.150228 19.4907 0.332194V8.14616H31.5978C31.8338 8.14616 32.0287 8.29639 32.0287 8.47835V21.1715H34.6274V23.9201H0.907471V21.1737ZM8.40444 3.13574H11.2035C11.2885 3.13574 11.3599 3.19076 11.3599 3.25635V5.87158C11.3599 5.93717 11.2885 5.99219 11.2035 5.99219H8.40444C8.31937 5.99219 8.24802 5.93717 8.24802 5.87158V3.25635C8.24802 3.19076 8.31937 3.13574 8.40444 3.13574ZM13.1463 16.1442H15.9453C16.0304 16.1442 16.1017 16.1992 16.1017 16.2648V18.88C16.1017 18.9456 16.0304 19.0007 15.9453 19.0007H13.1463C13.0612 19.0007 12.9899 18.9456 12.9899 18.88V16.2648C12.9899 16.1971 13.0612 16.1442 13.1463 16.1442ZM8.40444 16.1442H11.2035C11.2885 16.1442 11.3599 16.1992 11.3599 16.2648V18.88C11.3599 18.9456 11.2885 19.0007 11.2035 19.0007H8.40444C8.31937 19.0007 8.24802 18.9456 8.24802 18.88V16.2648C8.24802 16.1971 8.31937 16.1442 8.40444 16.1442ZM13.1463 11.8066H15.9453C16.0304 11.8066 16.1017 11.8617 16.1017 11.9272V14.5425C16.1017 14.6081 16.0304 14.6631 15.9453 14.6631H13.1463C13.0612 14.6631 12.9899 14.6081 12.9899 14.5425V11.9294C12.9899 11.8617 13.0612 11.8066 13.1463 11.8066ZM8.40444 11.8066H11.2035C11.2885 11.8066 11.3599 11.8617 11.3599 11.9272V14.5425C11.3599 14.6081 11.2885 14.6631 11.2035 14.6631H8.40444C8.31937 14.6631 8.24802 14.6081 8.24802 14.5425V11.9294C8.24802 11.8617 8.31937 11.8066 8.40444 11.8066ZM13.1463 7.47119H15.9453C16.0304 7.47119 16.1017 7.52621 16.1017 7.5918V10.207C16.1017 10.2726 16.0304 10.3276 15.9453 10.3276H13.1463C13.0612 10.3276 12.9899 10.2726 12.9899 10.207V7.5918C12.9899 7.52621 13.0612 7.47119 13.1463 7.47119ZM8.40444 7.47119H11.2035C11.2885 7.47119 11.3599 7.52621 11.3599 7.5918V10.207C11.3599 10.2726 11.2885 10.3276 11.2035 10.3276H8.40444C8.31937 10.3276 8.24802 10.2726 8.24802 10.207V7.5918C8.24802 7.52621 8.31937 7.47119 8.40444 7.47119ZM13.1463 3.13574H15.9453C16.0304 3.13574 16.1017 3.19076 16.1017 3.25635V5.87158C16.1017 5.93717 16.0304 5.99219 15.9453 5.99219H13.1463C13.0612 5.99219 12.9899 5.93717 12.9899 5.87158V3.25635C12.9899 3.19076 13.0612 3.13574 13.1463 3.13574ZM7.26562 1.54883H17.1225C17.2927 1.54883 17.4326 1.6779 17.4326 1.83447V20.0036C17.4326 20.1602 17.2927 20.2892 17.1225 20.2892H7.26562C7.09549 20.2892 6.95554 20.1602 6.95554 20.0036V1.83447C6.95554 1.6779 7.09549 1.54883 7.26562 1.54883ZM20.8326 11.3052H23.6316C23.7167 11.3052 23.788 11.3602 23.788 11.4258V14.041C23.788 14.1066 23.7167 14.1616 23.6316 14.1616H20.8326C20.7475 14.1616 20.6762 14.1066 20.6762 14.041V11.4258C20.6762 11.3602 20.7475 11.3052 20.8326 11.3052ZM25.5745 16.1442H28.3735C28.4585 16.1442 28.5299 16.1992 28.5299 16.2648V18.88C28.5299 18.9456 28.4585 19.0007 28.3735 19.0007H25.5745C25.4894 19.0007 25.4181 18.9456 25.4181 18.88V16.2648C25.4181 16.1971 25.4894 16.1442 25.5745 16.1442ZM20.8326 16.1442H23.6316C23.7167 16.1442 23.788 16.1992 23.788 16.2648V18.88C23.788 18.9456 23.7167 19.0007 23.6316 19.0007H20.8326C20.7475 19.0007 20.6762 18.9456 20.6762 18.88V16.2648C20.6762 16.1971 20.7475 16.1442 20.8326 16.1442ZM25.5745 11.3052H28.3735C28.4585 11.3052 28.5299 11.3602 28.5299 11.4258V14.041C28.5299 14.1066 28.4585 14.1616 28.3735 14.1616H25.5745C25.4894 14.1616 25.4181 14.1066 25.4181 14.041V11.4258C25.4181 11.3602 25.4894 11.3052 25.5745 11.3052ZM19.8036 9.69499H29.6605C29.8306 9.69499 29.9706 9.82406 29.9706 9.98063V20.0036C29.9706 20.1602 29.8306 20.2892 29.6605 20.2892H19.8036C19.6334 20.2892 19.4935 20.1602 19.4935 20.0036V9.98063C19.4935 9.82406 19.6334 9.69499 19.8036 9.69499Z" fill="#E7C653"/>
</svg>
