<svg width="68" height="77" viewBox="0 0 68 77" fill="none" xmlns="http://www.w3.org/2000/svg">
<path d="M24.9053 27.1753L24.6944 20.4461L20.338 25.5791C20.1225 25.8274 19.9562 26.1144 19.8479 26.4248C19.3737 27.7818 20.0893 29.2663 21.4463 29.7405C22.8032 30.2147 24.2877 29.4992 24.7619 28.1422C24.8738 27.822 24.9187 27.4947 24.9053 27.1753Z" stroke="white" stroke-width="1.8" stroke-miterlimit="10" stroke-linecap="round" stroke-linejoin="round"/>
<path d="M43.4815 50.8921L43.2706 44.1629L38.9142 49.2959C38.6987 49.5442 38.5324 49.8312 38.4241 50.1416C37.9499 51.4986 38.6655 52.9831 40.0224 53.4573C41.3794 53.9315 42.8639 53.216 43.3381 51.859C43.45 51.5388 43.4949 51.2115 43.4815 50.8921Z" stroke="white" stroke-width="1.8" stroke-miterlimit="10" stroke-linecap="round" stroke-linejoin="round"/>
<path d="M56.1788 31.978L55.968 25.2489L51.6115 30.3819C51.396 30.6301 51.2296 30.9171 51.1214 31.2276C50.6471 32.5846 51.3628 34.069 52.7198 34.5433C54.0767 35.0175 55.5611 34.3019 56.0354 32.9449C56.1473 32.6247 56.1922 32.2974 56.1788 31.978Z" stroke="white" stroke-width="1.8" stroke-miterlimit="10" stroke-linecap="round" stroke-linejoin="round"/>
<path d="M44.4352 14.769L44.2243 8.0399L39.8679 13.1729C39.6523 13.4211 39.486 13.7081 39.3777 14.0186C38.9035 15.3756 39.6192 16.86 40.9761 17.3343C42.333 17.8085 43.8175 17.0929 44.2917 15.7359C44.4036 15.4157 44.4485 15.0884 44.4352 14.769Z" fill="white"/>
<path d="M20.3742 41.8573C21.358 42.4279 22.3029 43.0633 23.2026 43.7591L23.5899 43.7692C29.0354 43.9263 34.2907 45.8068 38.5996 49.14L38.986 49.1498L39.0303 49.1515L43.2685 44.1563L43.4411 49.6696C47.2828 50.4607 50.8927 52.1199 53.9947 54.5202C54.5966 46.1229 51.4672 40.0533 47.7552 35.8807C42.0252 29.4426 33.394 26.3251 24.8931 27.5885C24.8723 27.7732 24.8305 27.9587 24.7664 28.1421C24.2924 29.4986 22.8074 30.2144 21.4509 29.7404C20.9246 29.5578 20.4715 29.2099 20.1593 28.7485C15.8345 30.254 11.4017 33.1346 7.80762 38.3789L8.19493 38.389C9.35916 38.4228 10.5198 38.5356 11.6687 38.7266" stroke="white" stroke-width="1.8" stroke-miterlimit="10" stroke-linecap="round" stroke-linejoin="round"/>
<path d="M23.5894 43.7773C23.5894 43.7773 30.3767 26.4447 37.0759 28.7858C43.9976 31.2048 38.9848 49.1577 38.9848 49.1577" stroke="white" stroke-width="1.8" stroke-miterlimit="10" stroke-linecap="round" stroke-linejoin="round"/>
<path d="M39.0732 29.4775L35.083 28.083L35.8079 26.0089C36.1929 24.9071 37.3984 24.326 38.5003 24.7111C39.6021 25.0961 40.1831 26.3016 39.7981 27.4034L39.0732 29.4775Z" stroke="white" stroke-width="1.8" stroke-miterlimit="10" stroke-linecap="round" stroke-linejoin="round"/>
<path d="M31.6855 45.3255L24.4827 65.9357C23.908 67.58 22.1092 68.4471 20.4649 67.8725C18.8207 67.2978 17.9536 65.4991 18.5283 63.8548" stroke="white" stroke-width="1.8" stroke-miterlimit="10" stroke-linecap="round" stroke-linejoin="round"/>
</svg>
