<svg width="68" height="77" viewBox="0 0 68 77" fill="none" xmlns="http://www.w3.org/2000/svg">
<path d="M24.9053 27.3264L24.6944 20.5972L20.338 25.7302C20.1225 25.9785 19.9562 26.2655 19.8479 26.576C19.3737 27.933 20.0893 29.4174 21.4463 29.8916C22.8032 30.3659 24.2877 29.6503 24.7619 28.2933C24.8738 27.9731 24.9187 27.6458 24.9053 27.3264Z" stroke="white" stroke-width="1.8" stroke-miterlimit="10" stroke-linecap="round" stroke-linejoin="round"/>
<path d="M43.4815 51.0434L43.2706 44.3143L38.9142 49.4473C38.6987 49.6956 38.5324 49.9826 38.4241 50.293C37.9499 51.65 38.6655 53.1345 40.0224 53.6087C41.3794 54.0829 42.8639 53.3673 43.3381 52.0103C43.45 51.6901 43.4949 51.3629 43.4815 51.0434Z" stroke="white" stroke-width="1.8" stroke-miterlimit="10" stroke-linecap="round" stroke-linejoin="round"/>
<path d="M56.1788 32.1294L55.968 25.4003L51.6115 30.5332C51.396 30.7815 51.2296 31.0685 51.1214 31.3789C50.6471 32.7359 51.3628 34.2204 52.7198 34.6946C54.0767 35.1688 55.5611 34.4533 56.0354 33.0963C56.1473 32.7761 56.1922 32.4487 56.1788 32.1294Z" stroke="white" stroke-width="1.8" stroke-miterlimit="10" stroke-linecap="round" stroke-linejoin="round"/>
<path d="M44.4352 14.9199L44.2243 8.19078L39.8679 13.3238C39.6523 13.572 39.486 13.859 39.3777 14.1695C38.9035 15.5265 39.6192 17.0109 40.9761 17.4852C42.333 17.9594 43.8175 17.2438 44.2917 15.8868C44.4036 15.5666 44.4485 15.2393 44.4352 14.9199Z" fill="white"/>
<path d="M20.3742 42.0092C21.358 42.5798 22.3029 43.2151 23.2026 43.911L23.5899 43.921C29.0354 44.0782 34.2907 45.9586 38.5996 49.2919L38.986 49.3016L39.0303 49.3033L43.2685 44.3081L43.4411 49.8214C47.2828 50.6125 50.8927 52.2717 53.9947 54.6721C54.5966 46.2748 51.4672 40.2052 47.7552 36.0325C42.0252 29.5945 33.394 26.477 24.8931 27.7404C24.8723 27.925 24.8305 28.1105 24.7664 28.294C24.2924 29.6505 22.8074 30.3663 21.4509 29.8922C20.9246 29.7097 20.4715 29.3617 20.1593 28.9003C15.8345 30.4059 11.4017 33.2865 7.80762 38.5308L8.19493 38.5408C9.35916 38.5747 10.5198 38.6875 11.6687 38.8784" stroke="white" stroke-width="1.8" stroke-miterlimit="10" stroke-linecap="round" stroke-linejoin="round"/>
<path d="M23.5894 43.929C23.5894 43.929 30.3767 26.5963 37.0759 28.9375C43.9976 31.3564 38.9848 49.3093 38.9848 49.3093" stroke="white" stroke-width="1.8" stroke-miterlimit="10" stroke-linecap="round" stroke-linejoin="round"/>
<path d="M39.0732 29.6294L35.083 28.2349L35.8079 26.1607C36.1929 25.0589 37.3984 24.4779 38.5003 24.8629C39.6021 25.248 40.1831 26.4534 39.7981 27.5552L39.0732 29.6294Z" stroke="white" stroke-width="1.8" stroke-miterlimit="10" stroke-linecap="round" stroke-linejoin="round"/>
<path d="M31.6855 45.4766L24.4827 66.0868C23.908 67.7311 22.1092 68.5982 20.4649 68.0236C18.8207 67.449 17.9536 65.6502 18.5283 64.0059" stroke="white" stroke-width="1.8" stroke-miterlimit="10" stroke-linecap="round" stroke-linejoin="round"/>
</svg>
