<svg width="52" height="52" viewBox="0 0 52 52" fill="none" xmlns="http://www.w3.org/2000/svg">
<path d="M29.5005 24.6904C29.5709 24.8279 29.6778 24.9432 29.8096 25.0238C29.9413 25.1043 30.0927 25.1469 30.2471 25.1469C30.3788 25.1469 30.5086 25.1156 30.6259 25.0558C30.6752 25.0307 35.5967 22.5307 38.0239 21.764C38.4638 21.6243 38.7078 21.1544 38.5682 20.7147C38.5353 20.6099 38.4819 20.5126 38.4114 20.4284C38.3408 20.3442 38.2542 20.2748 38.1568 20.2241C38.0593 20.1734 37.9528 20.1424 37.8434 20.1329C37.7339 20.1234 37.6237 20.1356 37.5189 20.1687C34.9621 20.9773 30.0741 23.4605 29.8668 23.5659C29.4553 23.7749 29.2915 24.2783 29.5005 24.6904ZM30.2471 15.1136C30.3788 15.1135 30.5086 15.0823 30.6259 15.0225C30.6752 14.9974 35.5967 12.4974 38.0239 11.7307C38.4638 11.591 38.7078 11.1211 38.5682 10.6814C38.5353 10.5766 38.4819 10.4793 38.4114 10.3951C38.3408 10.3109 38.2542 10.2415 38.1568 10.1908C38.0593 10.1401 37.9528 10.1091 37.8434 10.0996C37.7339 10.0901 37.6237 10.1022 37.5189 10.1354C34.9621 10.944 30.0741 13.4272 29.8668 13.5326C29.4554 13.7415 29.2915 14.2449 29.5005 14.6571C29.5709 14.7945 29.6778 14.9099 29.8096 14.9904C29.9413 15.071 30.0927 15.1136 30.2471 15.1136Z" fill="white" stroke="white" stroke-width="0.7"/>
<path d="M50.3134 13.4395C50.2036 13.4395 50.0949 13.4611 49.9934 13.5031C49.892 13.5451 49.7998 13.6066 49.7221 13.6843C49.6445 13.7619 49.5829 13.8541 49.5409 13.9556C49.4989 14.057 49.4773 14.1658 49.4773 14.2756V46.8842C49.4773 48.2671 48.3519 49.3925 46.969 49.3925H26.9021V47.4686C28.1212 47.0422 31.2968 46.0481 34.4272 46.0481C41.7106 46.0481 46.6563 47.661 46.7056 47.6776C46.8313 47.7189 46.9649 47.73 47.0957 47.71C47.2264 47.6899 47.3506 47.6393 47.4581 47.5622C47.5655 47.4848 47.653 47.3829 47.7134 47.265C47.7737 47.1471 47.8051 47.0165 47.8051 46.8841V10.0951C47.8053 9.90478 47.7405 9.72013 47.6214 9.57172C47.5023 9.4233 47.3361 9.32001 47.1503 9.27896C47.1503 9.27896 46.4948 9.13267 45.3744 8.92691C44.922 8.84333 44.4848 9.14433 44.4011 9.5975C44.3176 10.0523 44.6177 10.488 45.0717 10.5715C45.4259 10.6365 45.7796 10.7043 46.1328 10.7748V45.773C44.2381 45.2763 40.0308 44.3758 34.4271 44.3758C30.7841 44.3758 27.2056 45.5723 26.0985 45.9778C25.1144 45.5431 22.1395 44.3758 18.5408 44.3758C12.7816 44.3758 8.03746 45.3257 5.99903 45.8081V10.7421C7.66875 10.3316 12.6002 9.25887 18.5408 9.25887C21.5893 9.25887 24.2038 10.2078 25.2298 10.6368V43.5397C25.2298 43.6877 25.2691 43.833 25.3437 43.9609C25.4183 44.0887 25.5255 44.1944 25.6543 44.2673C25.7831 44.3401 25.9289 44.3775 26.0769 44.3756C26.2248 44.3736 26.3696 44.3325 26.4965 44.2563C26.5793 44.207 34.8635 39.2588 42.2163 36.8081C42.3829 36.7527 42.5278 36.6462 42.6304 36.5038C42.7331 36.3613 42.7883 36.1902 42.7883 36.0147V1.73381C42.7882 1.59866 42.7554 1.46552 42.6927 1.34583C42.6299 1.22613 42.539 1.12344 42.4279 1.04656C42.3169 0.969432 42.1888 0.920392 42.0547 0.903649C41.9206 0.886907 41.7844 0.902964 41.6578 0.950441C34.9681 3.45958 28.1989 7.67195 28.1311 7.71379C27.7398 7.95874 27.6203 8.47462 27.8652 8.86596C28.1094 9.25731 28.6253 9.37684 29.0174 9.13189C29.0792 9.0926 34.9681 5.42873 41.116 2.95634V35.4161C35.4086 37.3994 29.4496 40.6377 26.9019 42.0874V10.0951C26.9019 9.9397 26.8587 9.78742 26.777 9.65526C26.6953 9.5231 26.5785 9.41628 26.4396 9.34676C26.2957 9.27573 22.8694 7.5867 18.5408 7.5867C10.9857 7.5867 5.17715 9.22135 4.93298 9.2915C4.75833 9.34136 4.60469 9.44676 4.4953 9.59175C4.38592 9.73675 4.32675 9.91343 4.32676 10.0951V46.8843C4.327 47.0135 4.35708 47.141 4.41466 47.2568C4.47224 47.3725 4.55577 47.4734 4.65873 47.5515C4.80392 47.6613 4.98096 47.7206 5.16295 47.7205C5.23986 47.7205 5.31678 47.7096 5.39203 47.6878C5.44974 47.672 11.2315 46.0482 18.5408 46.0482C21.5977 46.0482 24.2097 46.9997 25.2298 47.4269V49.3926H5.16295C3.78002 49.3926 2.65459 48.2672 2.65459 46.8843V14.2757C2.65459 13.8142 2.28001 13.4396 1.81851 13.4396C1.35701 13.4396 0.982422 13.8142 0.982422 14.2757V46.8843C0.982422 49.1894 2.85781 51.0649 5.16304 51.0649H46.969C49.2741 51.0649 51.1496 49.1895 51.1496 46.8843V14.2757C51.1496 14.1659 51.128 14.0571 51.086 13.9557C51.044 13.8542 50.9824 13.762 50.9047 13.6843C50.8271 13.6067 50.7349 13.5451 50.6334 13.5031C50.532 13.4611 50.4232 13.4395 50.3134 13.4395Z" fill="white" stroke="white" stroke-width="0.7"/>
<path d="M29.5005 19.6739C29.5708 19.8114 29.6778 19.9267 29.8095 20.0073C29.9413 20.0878 30.0927 20.1305 30.2471 20.1304C30.3788 20.1304 30.5086 20.0992 30.6259 20.0393C30.6752 20.0142 35.5967 17.5142 38.0239 16.7475C38.4637 16.6079 38.7078 16.138 38.5682 15.6982C38.5352 15.5934 38.4819 15.4961 38.4113 15.4119C38.3407 15.3278 38.2542 15.2583 38.1568 15.2076C38.0593 15.1569 37.9528 15.1259 37.8433 15.1164C37.7339 15.1069 37.6236 15.1191 37.5189 15.1522C34.962 15.9608 30.0741 18.4441 29.8667 18.5494C29.4553 18.7584 29.2915 19.2618 29.5005 19.6739ZM29.5005 29.7074C29.5708 29.8448 29.6778 29.9602 29.8095 30.0407C29.9413 30.1213 30.0927 30.1639 30.2471 30.1639C30.3788 30.1638 30.5086 30.1326 30.6259 30.0727C30.6752 30.0477 35.5967 27.5476 38.0239 26.7809C38.4637 26.6413 38.7078 26.1714 38.5682 25.7316C38.5352 25.6268 38.4819 25.5295 38.4113 25.4454C38.3407 25.3612 38.2542 25.2917 38.1568 25.241C38.0593 25.1903 37.9528 25.1593 37.8433 25.1498C37.7339 25.1403 37.6236 25.1525 37.5189 25.1857C34.962 25.9942 30.0741 28.4775 29.8667 28.5828C29.4553 28.7918 29.2915 29.2952 29.5005 29.7074ZM21.2397 16.4165C16.0767 15.205 10.2096 16.7485 9.96294 16.8145C9.8556 16.8418 9.75473 16.8901 9.66621 16.9567C9.57768 17.0232 9.50326 17.1067 9.44727 17.2023C9.39127 17.2978 9.35482 17.4036 9.34002 17.5133C9.32522 17.6231 9.33237 17.7347 9.36106 17.8417C9.38975 17.9487 9.4394 18.0489 9.50713 18.1365C9.57487 18.2241 9.65933 18.2974 9.75563 18.3522C9.85193 18.4069 9.95813 18.4419 10.0681 18.4553C10.178 18.4686 10.2895 18.46 10.3961 18.4299C10.4522 18.414 16.101 16.9282 20.8585 18.0444C21.3058 18.1489 21.7582 17.8705 21.8635 17.4206C21.9688 16.9717 21.6895 16.5218 21.2397 16.4165ZM21.2397 21.4332C16.0767 20.2225 10.2096 21.7652 9.96294 21.8312C9.8556 21.8585 9.75473 21.9068 9.66621 21.9734C9.57768 22.0399 9.50326 22.1234 9.44727 22.219C9.39127 22.3145 9.35482 22.4203 9.34002 22.53C9.32522 22.6398 9.33237 22.7514 9.36106 22.8584C9.38975 22.9654 9.4394 23.0656 9.50713 23.1532C9.57487 23.2408 9.65933 23.3141 9.75563 23.3689C9.85193 23.4236 9.95813 23.4586 10.0681 23.472C10.178 23.4853 10.2895 23.4767 10.3961 23.4466C10.4522 23.4307 16.101 21.9449 20.8585 23.0611C21.3058 23.1657 21.7582 22.8872 21.8635 22.4373C21.9688 21.9884 21.6895 21.5386 21.2397 21.4332ZM29.5005 34.7241C29.5708 34.8615 29.6778 34.9769 29.8095 35.0574C29.9413 35.138 30.0927 35.1806 30.2471 35.1806C30.3788 35.1805 30.5086 35.1493 30.6259 35.0894C30.6752 35.0644 35.5967 32.5643 38.0239 31.7976C38.4637 31.658 38.7078 31.1881 38.5682 30.7483C38.5352 30.6435 38.4819 30.5462 38.4113 30.4621C38.3407 30.3779 38.2542 30.3085 38.1568 30.2577C38.0593 30.207 37.9528 30.176 37.8433 30.1665C37.7339 30.157 37.6236 30.1692 37.5189 30.2024C34.962 31.0109 30.0741 33.4942 29.8667 33.5995C29.4553 33.8085 29.2915 34.312 29.5005 34.7241ZM21.2397 26.4499C16.0767 25.2393 10.2096 26.781 9.96294 26.8479C9.74876 26.9054 9.56618 27.0456 9.45533 27.2377C9.34447 27.4297 9.31444 27.6579 9.37182 27.8721C9.41943 28.0499 9.52427 28.2069 9.67013 28.3191C9.81598 28.4312 9.99472 28.4922 10.1787 28.4926C10.2506 28.4926 10.3233 28.4826 10.3961 28.4633C10.4522 28.4474 16.101 26.9616 20.8585 28.0778C21.3058 28.1824 21.7582 27.9039 21.8635 27.4541C21.9688 27.0051 21.6895 26.5553 21.2397 26.4499ZM21.2397 36.4833C16.0767 35.2718 10.2096 36.8153 9.96294 36.8814C9.74876 36.9388 9.56618 37.079 9.45533 37.2711C9.34447 37.4631 9.31444 37.6914 9.37182 37.9056C9.41943 38.0833 9.52427 38.2404 9.67013 38.3525C9.81598 38.4647 9.99472 38.5256 10.1787 38.526C10.2506 38.526 10.3233 38.516 10.3961 38.4967C10.4522 38.4808 16.101 36.995 20.8585 38.1112C21.3058 38.2149 21.7582 37.9373 21.8635 37.4875C21.9688 37.0385 21.6895 36.5887 21.2397 36.4833ZM21.2397 31.4666C16.0767 30.2551 10.2096 31.7977 9.96294 31.8646C9.74876 31.9221 9.56618 32.0623 9.45533 32.2544C9.34447 32.4464 9.31444 32.6746 9.37182 32.8889C9.41943 33.0666 9.52427 33.2237 9.67013 33.3358C9.81598 33.4479 9.99472 33.5089 10.1787 33.5093C10.2506 33.5093 10.3233 33.4993 10.3961 33.48C10.4522 33.4641 16.101 31.9783 20.8585 33.0945C21.3058 33.1991 21.7582 32.9206 21.8635 32.4708C21.9688 32.0218 21.6895 31.572 21.2397 31.4666Z" fill="white" stroke="white" stroke-width="0.7"/>
</svg>
