<svg width="48" height="48" viewBox="0 0 48 48" fill="none" xmlns="http://www.w3.org/2000/svg">
<path d="M47.5834 33.5993C47.8571 31.502 47.9948 28.3446 47.9948 24.136C47.9948 19.9326 47.8571 16.7787 47.5834 14.6744C47.3097 12.5736 46.4397 10.1485 44.977 7.40607C42.5989 2.46869 35.6531 0 24.1326 0C12.429 0 5.29834 2.46869 2.73899 7.40607C1.45757 9.96891 0.681749 12.2999 0.408031 14.4007C0.134313 16.5033 -0.00341797 19.6606 -0.00341797 23.8623C-0.00341797 28.0709 0.134313 31.2265 0.408031 33.3273C0.681749 35.4316 1.50465 37.8498 2.87672 40.5939C4.24706 43.3381 6.66867 45.2558 10.1451 46.3525C13.6162 47.4526 18.2363 48 23.9948 48C29.7551 48 34.3717 47.4526 37.8464 46.3525C41.3175 45.2558 43.7444 43.3834 45.1147 40.7299C46.4868 38.0799 47.3097 35.7036 47.5834 33.5993Z" fill="#FF8E00"/>
<g clip-path="url(#clip0_7364_86367)">
<path d="M34.2 14.1636C33.6378 13.6936 32.9791 13.353 32.2705 13.1662C31.5619 12.9794 30.8209 12.9509 30.1 13.0826L26.278 13.7766C25.3956 13.9387 24.5933 14.3927 24 15.0656C23.4052 14.3915 22.6006 13.9374 21.716 13.7766L17.9 13.0826C17.1792 12.9507 16.4381 12.9789 15.7294 13.1651C15.0206 13.3513 14.3615 13.6911 13.7986 14.1603C13.2357 14.6295 12.7828 15.2167 12.472 15.8804C12.1612 16.544 12 17.2678 12 18.0006V28.7936C12.0001 29.9644 12.411 31.0981 13.1611 31.997C13.9113 32.8959 14.9531 33.5031 16.105 33.7126L22.391 34.8556C23.455 35.049 24.545 35.049 25.609 34.8556L31.9 33.7126C33.051 33.502 34.0916 32.8944 34.8408 31.9956C35.5899 31.0968 36.0002 29.9637 36 28.7936V18.0006C36.0005 17.2681 35.8394 16.5444 35.5283 15.8812C35.2171 15.218 34.7636 14.6316 34.2 14.1636ZM23 32.9286C22.916 32.9166 22.832 32.9026 22.748 32.8876L16.463 31.7456C15.7718 31.6199 15.1466 31.2555 14.6965 30.716C14.2464 30.1766 13.9999 29.4962 14 28.7936V18.0006C14 17.205 14.3161 16.4419 14.8787 15.8793C15.4413 15.3167 16.2044 15.0006 17 15.0006C17.1811 15.0011 17.3618 15.0175 17.54 15.0496L21.36 15.7496C21.8196 15.8337 22.2353 16.0761 22.5348 16.4347C22.8344 16.7933 22.999 17.2454 23 17.7126V32.9286ZM34 28.7936C34.0001 29.4962 33.7536 30.1766 33.3035 30.716C32.8534 31.2555 32.2282 31.6199 31.537 31.7456L25.252 32.8876C25.168 32.9026 25.084 32.9166 25 32.9286V17.7126C24.9999 17.2443 25.1643 16.7907 25.4643 16.4311C25.7644 16.0714 26.1812 15.8285 26.642 15.7446L30.463 15.0446C30.8957 14.9659 31.3405 14.9833 31.7657 15.0956C32.191 15.2078 32.5863 15.4122 32.9238 15.6942C33.2613 15.9763 33.5326 16.3291 33.7186 16.7277C33.9046 17.1262 34.0007 17.5608 34 18.0006V28.7936Z" fill="white"/>
</g>
<defs>
<clipPath id="clip0_7364_86367">
<rect width="24" height="24" fill="white" transform="translate(12 11.999)"/>
</clipPath>
</defs>
</svg>
