<svg width="104" height="105" viewBox="0 0 104 105" fill="none" xmlns="http://www.w3.org/2000/svg">
<mask id="mask0_5374_207839" style="mask-type:luminance" maskUnits="userSpaceOnUse" x="7" y="16" width="89" height="74">
<path d="M95.6592 16.0415H7.65234V89.2521H95.6592V16.0415Z" fill="white"/>
</mask>
<g mask="url(#mask0_5374_207839)">
<path d="M34.9118 20.1259C37.4288 20.1259 39.6891 21.1624 41.3419 22.8437C42.9896 24.5301 44.0035 26.8394 44.0047 29.4095C44.0035 31.9809 42.9896 34.2902 41.3419 35.9766C39.6891 37.6592 37.4288 38.6931 34.9118 38.6957C32.3937 38.6931 30.1346 37.6579 28.4818 35.9766C26.834 34.2902 25.8202 31.9809 25.819 29.4095C25.8202 26.8394 26.834 24.5301 28.4818 22.8437C30.1346 21.1624 32.3937 20.1272 34.9118 20.1259ZM34.9118 42.7801C42.1419 42.7788 48.0021 36.7948 48.0034 29.4108C48.0009 22.0268 42.1419 16.0428 34.9118 16.0415C27.6806 16.0428 21.8216 22.0281 21.8203 29.4095C21.8216 36.7935 27.6806 42.7788 34.9118 42.7801Z" fill="#3F3A64"/>
</g>
<mask id="mask1_5374_207839" style="mask-type:luminance" maskUnits="userSpaceOnUse" x="7" y="16" width="89" height="74">
<path d="M95.6592 16.0415H7.65234V89.2521H95.6592V16.0415Z" fill="white"/>
</mask>
<g mask="url(#mask1_5374_207839)">
<path d="M89.0244 63.7633C88.3729 61.3255 86.9943 59.1125 84.9402 57.5276C82.8472 55.9067 80.0913 54.9768 76.8951 54.9845L59.9031 54.9819C58.7534 54.9793 57.6679 55.1103 56.6478 55.3479L55.5346 52.0586C54.8818 49.6234 53.5032 47.4078 51.4492 45.8242C49.3561 44.202 46.6002 43.2733 43.4053 43.2798L26.4145 43.2759C23.1982 43.2695 20.4524 44.2598 18.387 45.8974C16.3456 47.5106 14.9833 49.7095 14.2878 52.0573L7.76211 71.3438C7.40237 72.4099 7.95582 73.571 8.99856 73.9383C10.0426 74.3069 11.1809 73.7456 11.5419 72.677L11.7671 72.0117L18.0801 53.3494L18.094 53.3032C18.5694 51.6604 19.4889 50.1898 20.8335 49.1289C22.1844 48.068 23.9756 47.368 26.4145 47.3616H43.4066C45.8657 47.3654 47.6933 48.0449 49.0379 49.0801C50.38 50.1192 51.2743 51.5487 51.7121 53.2415L51.7309 53.3173L52.9334 56.87C52.5661 57.0986 52.2089 57.3362 51.8768 57.6021C49.8341 59.2153 48.4719 61.4154 47.7763 63.7633L44.9852 72.0117L44.7122 72.8145C45.8015 73.7045 46.9361 74.5304 48.1046 75.2933L51.5687 65.0554L51.5825 65.0079C52.0592 63.3652 52.9774 61.8945 54.3233 60.831C55.6717 59.7701 57.4654 59.0727 59.9043 59.065H76.8964C79.3542 59.0701 81.1818 59.7496 82.5277 60.7835C83.8698 61.8252 84.7654 63.2521 85.2044 64.9475L85.222 65.0233L91.5451 83.7177L91.7715 84.383C92.13 85.4491 93.2684 86.0142 94.3136 85.6443C95.3576 85.2782 95.9111 84.1171 95.5513 83.0485L89.0244 63.7633Z" fill="#3F3A64"/>
</g>
<mask id="mask2_5374_207839" style="mask-type:luminance" maskUnits="userSpaceOnUse" x="7" y="16" width="89" height="74">
<path d="M95.6592 16.0415H7.65234V89.2521H95.6592V16.0415Z" fill="white"/>
</mask>
<g mask="url(#mask2_5374_207839)">
<path d="M55.7325 79.1632C56.1727 79.3289 56.5828 79.5395 56.9639 79.7849L59.0972 72.6025C59.418 71.5211 58.8205 70.3818 57.7639 70.0568C56.7073 69.728 55.5904 70.3381 55.2709 71.417L53.2734 78.1331C54.0822 78.5018 54.9023 78.8524 55.7325 79.1632Z" fill="#3F3A64"/>
</g>
<mask id="mask3_5374_207839" style="mask-type:luminance" maskUnits="userSpaceOnUse" x="7" y="16" width="89" height="74">
<path d="M95.6592 16.0415H7.65234V89.2521H95.6592V16.0415Z" fill="white"/>
</mask>
<g mask="url(#mask3_5374_207839)">
<path d="M85.01 83.1217L81.5296 71.417C81.2088 70.3381 80.0906 69.7293 79.0378 70.0569C77.9812 70.3831 77.3838 71.5224 77.7033 72.6025L81.0063 83.7151L81.1824 84.3072C81.5019 85.3861 82.6201 85.9949 83.6755 85.6674C84.5383 85.399 85.0855 84.5911 85.0855 83.7151C85.0867 83.5186 85.0691 83.3208 85.01 83.1217Z" fill="#3F3A64"/>
</g>
<mask id="mask4_5374_207839" style="mask-type:luminance" maskUnits="userSpaceOnUse" x="7" y="16" width="89" height="74">
<path d="M95.6592 16.0415H7.65234V89.2521H95.6592V16.0415Z" fill="white"/>
</mask>
<g mask="url(#mask4_5374_207839)">
<path d="M68.4001 31.8292C70.9158 31.8292 73.1761 32.867 74.8276 34.5483C76.4779 36.2347 77.4892 38.544 77.4917 41.1141C77.4892 43.6855 76.4767 45.9948 74.8276 47.6799C73.1761 49.3638 70.9158 50.3977 68.4001 50.399C65.8794 50.3977 63.6216 49.3625 61.9688 47.6799C60.3198 45.9935 59.3072 43.6855 59.3072 41.1141C59.3072 38.544 60.3211 36.2347 61.9688 34.5483C63.6216 32.867 65.8794 31.8318 68.4001 31.8292ZM68.4001 54.4834C75.6301 54.4808 81.4879 48.4994 81.4904 41.1141C81.4879 33.7314 75.6301 27.7487 68.4001 27.7461C61.1676 27.7487 55.3086 33.734 55.3086 41.1141C55.3086 48.5007 61.1676 54.4808 68.4001 54.4834Z" fill="#3F3A64"/>
</g>
<mask id="mask5_5374_207839" style="mask-type:luminance" maskUnits="userSpaceOnUse" x="7" y="16" width="89" height="74">
<path d="M95.6592 16.0415H7.65234V89.2521H95.6592V16.0415Z" fill="white"/>
</mask>
<g mask="url(#mask5_5374_207839)">
<path d="M35.6924 68.5117C34.7465 69.0833 34.4271 70.3355 34.9818 71.304C38.5628 77.5551 42.5438 81.7217 45.9236 84.4318C44.735 84.1634 43.4885 83.8127 42.2118 83.3259C38.12 81.7603 33.8208 78.9782 30.485 73.8908C29.8938 72.9904 28.7253 72.7142 27.8096 73.264L26.0059 74.3454L26.7329 62.4224L37.7213 67.2915L35.6924 68.5117ZM54.692 89.1455C55.6329 89.0325 56.3699 88.258 56.4517 87.2947C56.5347 86.3288 55.9398 85.4388 55.0304 85.1601V85.1626C55.019 85.1575 54.8933 85.1202 54.6417 85.0201C53.7247 84.6617 51.3135 83.5802 48.316 81.1617C45.6318 78.9937 42.4747 75.748 39.481 70.9713L43.1325 68.7712C43.7803 68.3794 44.1576 67.6524 44.1111 66.8869C44.0646 66.1189 43.6017 65.4446 42.9111 65.1414L25.7103 57.5198C25.1153 57.254 24.4235 57.3041 23.8701 57.6508C23.3166 57.9976 22.9594 58.6039 22.9191 59.264L21.7808 77.9225C21.7682 78.1254 21.7909 78.3245 21.8349 78.5146C21.9556 79.036 22.2688 79.501 22.7305 79.7887C23.3594 80.1856 24.1506 80.192 24.7895 79.8118L26.6486 78.6982L28.2662 77.7272C28.2813 77.7504 28.2976 77.7722 28.3152 77.7953C32.0007 82.6799 36.5729 85.5441 40.8156 87.1521C41.8244 87.5362 42.8067 87.8393 43.7639 88.0975C47.2783 89.0453 50.3739 89.2483 52.3587 89.2534C53.7687 89.2509 54.6278 89.1532 54.692 89.1455Z" fill="#3F3A64"/>
</g>
</svg>
