<svg width="70" height="76" viewBox="0 0 70 76" fill="none" xmlns="http://www.w3.org/2000/svg">
<path d="M38.1665 64.1596C33.957 67.2999 28.197 67.6188 23.5959 64.4935L19.0666 61.4169C14.264 58.1548 12.0529 51.9501 13.6259 46.1494L15.1274 40.6124L13.2795 28.792C12.8925 26.3163 14.4775 23.9778 16.8195 23.5686C18.9242 23.2011 20.9656 24.5207 21.6147 26.6686L24.1524 34.6543C24.2704 35.0257 24.5046 35.3434 24.8163 35.5552C25.719 36.1683 26.9261 35.7083 27.251 34.6274L33.1022 15.1626C33.6797 13.2414 35.6227 12.1803 37.4393 12.794C39.2536 13.407 40.2543 15.4586 39.6745 17.3764L34.8798 33.2345L45.731 15.3856C46.7617 13.6903 48.8973 13.1991 50.5011 14.2885C52.1049 15.3779 52.5696 17.6353 51.5389 19.3307L40.6863 37.1819L52.34 25.9832C53.7506 24.6277 55.9337 24.7375 57.2162 26.2285C58.4986 27.7196 58.3947 30.0273 56.9841 31.3828L45.3302 42.5816L45.3337 42.5801L57.0955 37.4581C58.7169 36.7519 60.5728 37.569 61.2408 39.2828C61.8515 40.8495 61.2614 42.6517 59.8653 43.4844L47.3172 50.968L44.3064 55.9174" stroke="white" stroke-width="1.8" stroke-miterlimit="10" stroke-linecap="round" stroke-linejoin="round"/>
<path d="M22.6001 46.7852C23.8394 45.4752 25.8487 45.4752 27.0879 46.7852" stroke="white" stroke-width="1.5" stroke-miterlimit="10" stroke-linecap="round" stroke-linejoin="round"/>
<path d="M37.5093 46.7852C36.2701 45.4752 34.2608 45.4752 33.0215 46.7852" stroke="white" stroke-width="1.5" stroke-miterlimit="10" stroke-linecap="round" stroke-linejoin="round"/>
<path d="M27.3213 53.9644C28.8333 55.5626 31.2848 55.5626 32.7969 53.9644" stroke="white" stroke-width="1.5" stroke-miterlimit="10" stroke-linecap="round" stroke-linejoin="round"/>
</svg>
