<svg width="71" height="76" viewBox="0 0 71 76" fill="none" xmlns="http://www.w3.org/2000/svg">
<path d="M38.9849 64.1601C34.7753 67.3003 29.0153 67.6193 24.4142 64.494L19.885 61.4174C15.0824 58.1552 12.8713 51.9506 14.4443 46.1499L15.9458 40.6129L14.0978 28.7925C13.7108 26.3168 15.2958 23.9782 17.6379 23.5691C19.7426 23.2016 21.7839 24.5212 22.433 26.6691L24.9708 34.6548C25.0888 35.0261 25.3229 35.3439 25.6347 35.5557C26.5374 36.1688 27.7445 35.7088 28.0694 34.6279L33.9206 15.1631C34.498 13.2419 36.4411 12.1808 38.2577 12.7945C40.0719 13.4074 41.0727 15.4591 40.4929 17.3769L35.6982 33.235L46.5494 15.3861C47.58 13.6908 49.7157 13.1996 51.3195 14.289C52.9233 15.3784 53.3879 17.6358 52.3572 19.3311L41.5046 37.1824L53.1584 25.9837C54.569 24.6282 56.7521 24.738 58.0345 26.229C59.317 27.7201 59.213 30.0278 57.8024 31.3833L46.1486 42.5821L46.1521 42.5805L57.9138 37.4586C59.5352 36.7524 61.3911 37.5694 62.0592 39.2833C62.6699 40.85 62.0798 42.6521 60.6836 43.4849L48.1355 50.9685L45.1247 55.9179" stroke="white" stroke-width="1.8" stroke-miterlimit="10" stroke-linecap="round" stroke-linejoin="round"/>
<path d="M23.4185 46.7856C24.6577 45.4757 26.667 45.4757 27.9063 46.7856" stroke="white" stroke-width="1.5" stroke-miterlimit="10" stroke-linecap="round" stroke-linejoin="round"/>
<path d="M38.3277 46.7856C37.0884 45.4757 35.0791 45.4757 33.8398 46.7856" stroke="white" stroke-width="1.5" stroke-miterlimit="10" stroke-linecap="round" stroke-linejoin="round"/>
<path d="M28.1396 53.9644C29.6517 55.5626 32.1032 55.5626 33.6153 53.9644" stroke="white" stroke-width="1.5" stroke-miterlimit="10" stroke-linecap="round" stroke-linejoin="round"/>
</svg>
