<svg width="54" height="54" viewBox="0 0 54 54" fill="none" xmlns="http://www.w3.org/2000/svg">
<path d="M21.3299 44.5027C21.2924 44.4678 21.2579 44.4303 21.2261 44.3908C21.023 44.1382 20.8792 43.7323 20.8792 43.189V36.2033V35.9191L20.6999 35.6986L17.9784 32.3518L17.677 31.9811L17.2077 32.0707L14.7894 32.5324L14.028 32.6778L14.1494 33.4435L14.7849 37.4514C14.7849 37.4515 14.7849 37.4515 14.7849 37.4516C14.7994 37.5434 14.8061 37.6362 14.8049 37.7291L14.8049 37.7293L14.6942 46.4765C14.6942 46.4765 14.6942 46.4765 14.6942 46.4765C14.6827 47.3748 13.9517 48.0952 13.0566 48.096C13.0559 48.096 13.0552 48.096 13.0546 48.096L13.0329 48.0959C13.0322 48.0959 13.0316 48.0958 13.0309 48.0958C12.126 48.0834 11.402 47.3402 11.4134 46.4346L11.5213 37.8954L11.5222 37.8272L11.5115 37.76C11.5019 37.6995 11.4823 37.576 11.454 37.3979C11.2677 36.2246 10.7049 32.6815 10.1544 29.1902C9.83733 27.1795 9.52444 25.1866 9.2899 23.6739C9.1726 22.9173 9.07506 22.2819 9.00644 21.8248C8.97209 21.5959 8.94525 21.4134 8.92686 21.2834C8.91713 21.2146 8.91127 21.1702 8.90785 21.1443C8.90337 21.1105 8.90307 21.1082 8.90373 21.1239L8.8914 20.8291L8.69052 20.6128L1.10796 12.4513C1.10791 12.4513 1.10786 12.4512 1.10781 12.4512C0.675236 11.9851 0.701881 11.2563 1.16812 10.8229L21.3299 44.5027ZM21.3299 44.5027L21.2737 35.7846H21.2737V35.7794C21.2737 34.9688 21.6172 34.3533 21.9958 33.866C22.1809 33.6277 22.3869 33.4045 22.5717 33.2052L22.597 33.1779C22.6484 33.1225 22.6983 33.0687 22.7469 33.0157L20.6017 30.3776L20.4644 30.2088L20.4316 29.9937C20.0442 27.4576 19.7541 25.5541 19.5358 24.1211C19.2852 22.4766 19.1291 21.4518 19.0286 20.8019C18.9339 20.1895 18.8906 19.9231 18.8652 19.7866C18.8506 19.7081 18.8474 19.697 18.8352 19.6547C18.8304 19.6379 18.8242 19.6162 18.8152 19.5835L18.7385 19.3016L18.8613 19.0367L23.5653 8.89058L24.2911 9.22708L23.5653 8.89058C23.833 8.31334 23.5819 7.62808 23.0046 7.36047L23.0045 7.36044C22.4274 7.09286 21.7422 7.3438 21.4744 7.92129C21.4744 7.9213 21.4743 7.92132 21.4743 7.92134L17.4146 16.6776L17.1174 17.3186L16.4446 17.1029C15.9098 16.9314 15.3424 16.8877 14.7877 16.9752C14.7876 16.9752 14.7875 16.9752 14.7874 16.9752L11.9318 17.4279C11.9315 17.428 11.9312 17.428 11.9308 17.4281C11.3829 17.5164 10.8629 17.7304 10.4115 18.0533L9.83902 18.4629L9.3599 17.9472L2.79676 10.8829L2.7967 10.8828C2.36356 10.4165 1.63441 10.3898 1.1682 10.8229L21.3299 44.5027Z" stroke="white" stroke-width="1.6"/>
<path d="M29.0809 30.6529L29.1142 30.4391L31.076 17.8337L31.1133 17.5941L31.0113 17.3741L25.3662 5.19836L25.3662 5.19828C25.0075 4.42493 25.3437 3.50752 26.1172 3.14892L26.1174 3.14885C26.8904 2.79032 27.8081 3.12628 28.1666 3.89985L28.1667 3.89995L33.0396 14.4106L33.3368 15.0517L34.0097 14.8359C34.6755 14.6224 35.3821 14.568 36.0727 14.6771C36.0729 14.6771 36.073 14.6771 36.0731 14.6771L39.5024 15.2208C39.5025 15.2208 39.5026 15.2208 39.5026 15.2208C40.1856 15.3296 40.834 15.5953 41.3969 15.997L41.9692 16.4054L42.4477 15.8903L50.3232 7.41323C50.3232 7.4132 50.3232 7.41316 50.3233 7.41313C50.9037 6.78869 51.8799 6.75279 52.5047 7.33273L29.0809 30.6529ZM29.0809 30.6529L28.9444 30.8208M29.0809 30.6529L28.9444 30.8208M28.9444 30.8208L25.1146 35.5312C25.1145 35.5312 25.1145 35.5312 25.1145 35.5312C24.8059 35.9109 24.6375 36.3854 24.6375 36.8747V46.3003C24.6375 47.4763 25.5908 48.4296 26.7667 48.4296C27.9427 48.4296 28.896 47.4763 28.896 46.3003V37.9152V37.631L29.0753 37.4105L32.3418 33.3932L32.6432 33.0225L33.1125 33.1121L36.0156 33.6665L36.777 33.812L36.6556 34.5776L35.8928 39.3879C35.8738 39.5084 35.865 39.6289 35.8666 39.7484L35.8666 39.7491L35.9995 50.2486C36.0143 51.4145 36.9637 52.3498 38.1258 52.3511C38.1265 52.3511 38.1273 52.3511 38.1281 52.3511L38.1556 52.3509C38.1567 52.3509 38.1577 52.3509 38.1588 52.3509C39.3333 52.3343 40.2728 51.3695 40.258 50.1948L40.1281 39.9449L40.1273 39.8768L40.1379 39.8095C41.0282 34.1955 41.8134 29.1765 42.376 25.561C42.6573 23.7533 42.8829 22.2965 43.0382 21.2916C43.1159 20.7892 43.176 20.3998 43.2166 20.136L43.2628 19.8361L43.2746 19.7597L43.2775 19.7405L43.2783 19.7357L43.2785 19.7345L43.2785 19.7342L44.0692 19.8556L43.2785 19.7341M28.9444 30.8208L43.2785 19.7341M43.2785 19.7341L43.3159 19.4912M43.2785 19.7341L43.3159 19.4912M43.3159 19.4912L43.4831 19.3111M43.3159 19.4912L43.4831 19.3111M43.4831 19.3111L52.5849 9.51438C52.5849 9.51437 52.5849 9.51436 52.5849 9.51435M43.4831 19.3111L52.5849 9.51435M52.5849 9.51435C53.165 8.88988 53.1292 7.91333 52.505 7.33295L52.5849 9.51435Z" stroke="white" stroke-width="1.6"/>
<circle cx="38.8169" cy="6.44922" r="5.74922" stroke="white" stroke-width="1.4"/>
<circle cx="12.4082" cy="9.45215" r="5.04531" stroke="white" stroke-width="1.3"/>
</svg>
