<svg width="54" height="54" viewBox="0 0 54 54" fill="none" xmlns="http://www.w3.org/2000/svg">
<mask id="path-1-inside-1_7287_19798" fill="white">
<path d="M0.623124 10.2373C1.41285 9.50364 2.6483 9.54855 3.38237 10.3388L9.94551 17.4032C10.4977 17.0081 11.1339 16.7464 11.8042 16.6386L14.6622 16.1855C15.3405 16.0785 16.0344 16.1319 16.6883 16.3415L20.7481 7.58527C21.2017 6.60702 22.3625 6.18168 23.3405 6.63514C24.3188 7.0886 24.7441 8.24951 24.2906 9.22756L19.5866 19.3736C19.6885 19.7477 19.5585 18.9838 21.2219 29.8734L23.7898 33.0313L23.7143 33.1242C23.003 33.9989 22.0732 34.6524 22.0732 35.7799L22.1364 45.5846C20.7885 45.5846 20.0788 44.5374 20.0788 43.1895V36.2038L17.3573 32.857L14.939 33.3187L15.5746 37.3268C15.5962 37.4634 15.6062 37.6016 15.6044 37.7399L15.4936 46.4871C15.4766 47.8243 14.3876 48.8969 13.0539 48.8965L13.0223 48.8963C11.6746 48.8793 10.596 47.7729 10.613 46.425L10.7209 37.8858C10.5756 36.9696 8.11922 21.5234 8.10394 21.1578L0.521229 12.9962C-0.212077 12.2065 -0.166794 10.9714 0.623124 10.2373Z"/>
</mask>
<path d="M0.623124 10.2373L-0.466049 9.06527L-0.465888 9.06512L0.623124 10.2373ZM3.38237 10.3388L2.21018 11.4279L2.21005 11.4277L3.38237 10.3388ZM9.94551 17.4032L10.8765 18.7044L9.73156 19.5236L8.77332 18.4922L9.94551 17.4032ZM11.8042 16.6386L11.5501 15.0589L11.5537 15.0583L11.8042 16.6386ZM14.6622 16.1855L14.4117 14.6052L14.4128 14.605L14.6622 16.1855ZM16.6883 16.3415L18.1399 17.0146L17.5455 18.2966L16.1998 17.8652L16.6883 16.3415ZM20.7481 7.58527L19.2965 6.91226L19.2966 6.91215L20.7481 7.58527ZM23.3405 6.63514L22.6676 8.08677L22.6675 8.08672L23.3405 6.63514ZM24.2906 9.22756L22.8391 8.55457L22.8391 8.55457L24.2906 9.22756ZM19.5866 19.3736L18.0429 19.7942L17.8893 19.2306L18.135 18.7006L19.5866 19.3736ZM21.2219 29.8734L19.9805 30.8828L19.706 30.5451L19.6403 30.115L21.2219 29.8734ZM23.7898 33.0313L25.0312 32.0219L25.852 33.0313L25.0313 34.0407L23.7898 33.0313ZM23.7143 33.1242L24.9558 34.1335L24.9557 34.1336L23.7143 33.1242ZM22.0732 35.7799L20.4732 35.7902L20.4732 35.78L22.0732 35.7799ZM22.1364 45.5846L23.7364 45.5743L23.7468 47.1846H22.1364V45.5846ZM20.0788 36.2038L21.3201 35.1944L21.6788 35.6354V36.2038H20.0788ZM17.3573 32.857L17.0572 31.2854L17.9958 31.1061L18.5986 31.8475L17.3573 32.857ZM14.939 33.3187L13.3588 33.5693L13.1159 32.0379L14.6389 31.7471L14.939 33.3187ZM15.5746 37.3268L17.1548 37.0762L17.1549 37.0767L15.5746 37.3268ZM15.6044 37.7399L14.0045 37.7196L14.0045 37.7193L15.6044 37.7399ZM15.4936 46.4871L17.0935 46.5074L17.0935 46.5074L15.4936 46.4871ZM13.0539 48.8965L13.0534 50.4965L13.0441 50.4964L13.0539 48.8965ZM13.0223 48.8963L13.0126 50.4963L13.0022 50.4962L13.0223 48.8963ZM10.613 46.425L9.01308 46.4049L9.01309 46.4048L10.613 46.425ZM10.7209 37.8858L12.3011 37.6351L12.3225 37.7697L12.3208 37.906L10.7209 37.8858ZM8.10394 21.1578L9.27612 20.0688L9.67788 20.5012L9.70254 21.091L8.10394 21.1578ZM0.521229 12.9962L-0.650953 14.0852L-0.651251 14.0849L0.521229 12.9962ZM-0.465888 9.06512C0.970871 7.73033 3.21882 7.81176 4.55468 9.24995L2.21005 11.4277C2.07779 11.2853 1.85483 11.277 1.71214 11.4095L-0.465888 9.06512ZM4.55455 9.24982L11.1177 16.3142L8.77332 18.4922L2.21018 11.4279L4.55455 9.24982ZM9.01448 16.102C9.76775 15.563 10.6357 15.206 11.5501 15.0589L12.0584 18.2183C11.6321 18.2868 11.2276 18.4532 10.8765 18.7044L9.01448 16.102ZM11.5537 15.0583L14.4117 14.6052L14.9127 17.7657L12.0548 18.2188L11.5537 15.0583ZM14.4128 14.605C15.3381 14.459 16.2847 14.5319 17.1768 14.8179L16.1998 17.8652C15.7841 17.7319 15.3428 17.6979 14.9116 17.7659L14.4128 14.605ZM15.2367 15.6685L19.2965 6.91226L22.1997 8.25828L18.1399 17.0146L15.2367 15.6685ZM19.2966 6.91215C20.1219 5.13247 22.2337 4.35837 24.0135 5.18356L22.6675 8.08672C22.4913 8.005 22.2816 8.08158 22.1996 8.25839L19.2966 6.91215ZM24.0134 5.18352C25.7935 6.00866 26.5673 8.12088 25.7422 9.90056L22.8391 8.55457C22.9209 8.37814 22.844 8.16854 22.6676 8.08677L24.0134 5.18352ZM25.7422 9.90056L21.0382 20.0466L18.135 18.7006L22.8391 8.55457L25.7422 9.90056ZM21.1303 18.9531C21.1439 19.0029 21.1806 19.1136 21.2242 19.3479C21.2578 19.5282 21.307 19.835 21.3999 20.4357C21.5883 21.6544 21.9724 24.1906 22.8036 29.6317L19.6403 30.115C18.808 24.6665 18.4254 22.1399 18.2375 20.9246C18.1422 20.3083 18.1009 20.0554 18.0782 19.9335C18.0656 19.8655 18.0802 19.9314 18.0429 19.7942L21.1303 18.9531ZM22.4633 28.8639L25.0312 32.0219L22.5484 34.0408L19.9805 30.8828L22.4633 28.8639ZM25.0313 34.0407L24.9558 34.1335L22.4729 32.1148L22.5484 32.022L25.0313 34.0407ZM24.9557 34.1336C24.7385 34.4008 24.5082 34.6464 24.3311 34.8375C24.1392 35.0445 24.0023 35.195 23.8905 35.3389C23.6836 35.6052 23.6732 35.71 23.6732 35.7799L20.4732 35.78C20.4732 34.7223 20.9277 33.9367 21.3635 33.3757C21.5731 33.1059 21.8021 32.8585 21.9846 32.6618C22.1818 32.449 22.3346 32.2849 22.4729 32.1148L24.9557 34.1336ZM23.6732 35.7696L23.7364 45.5743L20.5365 45.5949L20.4733 35.7902L23.6732 35.7696ZM22.1364 47.1846C21.0043 47.1846 20.021 46.7233 19.3551 45.895C18.7235 45.1094 18.4788 44.1249 18.4788 43.1895H21.6788C21.6788 43.602 21.7889 43.8151 21.8491 43.89C21.8754 43.9228 21.8979 43.9384 21.9216 43.9494C21.9464 43.961 22.0099 43.9846 22.1364 43.9846V47.1846ZM18.4788 43.1895V36.2038H21.6788V43.1895H18.4788ZM18.8374 37.2133L16.1159 33.8664L18.5986 31.8475L21.3201 35.1944L18.8374 37.2133ZM17.6574 34.4286L15.2391 34.8903L14.6389 31.7471L17.0572 31.2854L17.6574 34.4286ZM16.5193 33.0681L17.1548 37.0762L13.9943 37.5774L13.3588 33.5693L16.5193 33.0681ZM17.1549 37.0767C17.1907 37.3028 17.2072 37.5315 17.2042 37.7605L14.0045 37.7193C14.0051 37.6717 14.0017 37.624 13.9942 37.5769L17.1549 37.0767ZM17.2043 37.7601L17.0935 46.5074L13.8937 46.4668L14.0045 37.7196L17.2043 37.7601ZM17.0935 46.5074C17.0654 48.721 15.2625 50.4971 13.0534 50.4965L13.0543 47.2965C13.5127 47.2966 13.8879 46.9276 13.8937 46.4668L17.0935 46.5074ZM13.0441 50.4964L13.0126 50.4963L13.0321 47.2963L13.0636 47.2965L13.0441 50.4964ZM13.0022 50.4962C10.7706 50.468 8.98497 48.6361 9.01308 46.4049L12.2128 46.4452C12.207 46.9098 12.5786 47.2906 13.0425 47.2964L13.0022 50.4962ZM9.01309 46.4048L9.12102 37.8655L12.3208 37.906L12.2128 46.4452L9.01309 46.4048ZM9.14065 38.1364C9.06812 37.6791 8.4175 33.5872 7.78319 29.5645C7.46605 27.5533 7.15277 25.558 6.91774 24.0421C6.80028 23.2845 6.70204 22.6445 6.63254 22.1815C6.59787 21.9505 6.56983 21.7601 6.55001 21.6199C6.53835 21.5374 6.51053 21.3488 6.50534 21.2247L9.70254 21.091C9.69926 21.0126 9.69242 20.9875 9.71849 21.1719C9.7364 21.2985 9.76285 21.4784 9.79709 21.7065C9.86542 22.1617 9.96272 22.7956 10.08 23.5518C10.3143 25.0635 10.6271 27.0555 10.9441 29.0661C11.5781 33.0869 12.2284 37.1762 12.3011 37.6351L9.14065 38.1364ZM6.93176 22.2469L-0.650953 14.0852L1.69341 11.9072L9.27612 20.0688L6.93176 22.2469ZM-0.651251 14.0849C-1.98567 12.6478 -1.90309 10.4007 -0.466049 9.06527L1.7123 11.4094C1.5695 11.5421 1.56152 11.7651 1.69371 11.9075L-0.651251 14.0849Z" fill="white" mask="url(#path-1-inside-1_7287_19798)"/>
<path d="M29.0807 30.6532L29.114 30.4394L31.0757 17.8339L31.113 17.5943L31.011 17.3744L25.3659 5.1986L25.3659 5.19853C25.0073 4.42517 25.3435 3.50777 26.117 3.14916L26.1171 3.1491C26.8901 2.79056 27.8079 3.12653 28.1664 3.9001L28.1664 3.9002L33.0394 14.4109L33.3366 15.0519L34.0095 14.8361C34.6754 14.6226 35.3821 14.5682 36.0729 14.6774L39.5022 15.2211C40.1852 15.3298 40.8337 15.5955 41.3967 15.9972L41.9689 16.4056L42.4474 15.8905L50.3229 7.41347C50.9033 6.78893 51.8796 6.75301 52.5045 7.33297L29.0807 30.6532ZM29.0807 30.6532L28.9442 30.821M29.0807 30.6532L28.9442 30.821M28.9442 30.821L25.1143 35.5314C25.1143 35.5314 25.1143 35.5315 25.1143 35.5315C24.8057 35.9111 24.6372 36.3856 24.6372 36.875V46.3006C24.6372 47.4765 25.5905 48.4298 26.7665 48.4298C27.9424 48.4298 28.8957 47.4765 28.8957 46.3006V37.9155V37.6313L29.075 37.4108L32.3415 33.3935L32.643 33.0227L33.1123 33.1124L36.0153 33.6668L36.7768 33.8122L36.6554 34.5779L35.8926 39.3882M28.9442 30.821L35.8926 39.3882M38.1278 53.1513C36.5274 53.1513 35.2197 51.8641 35.1993 50.259L35.0665 39.7595C35.0642 39.5934 35.0765 39.4276 35.1023 39.2636M38.1278 53.1513L38.1238 52.3513L38.1256 52.3513C36.9635 52.3501 36.0141 51.4148 35.9993 50.2489L35.2411 50.2585L35.9992 50.2489L35.8664 39.7494L35.8664 39.7486C35.8648 39.6294 35.8735 39.5091 35.8924 39.3889M38.1278 53.1513V52.3513L38.1554 52.3512L38.1656 53.1511M38.1278 53.1513L38.1656 53.1511M35.8924 39.3889L35.1023 39.2636M35.8924 39.3889C35.8925 39.3886 35.8925 39.3884 35.8926 39.3882M35.8924 39.3889L35.8926 39.3882M35.1023 39.2636L35.8926 39.3882M35.1023 39.2636L35.8653 34.4526L35.8926 39.3882M38.1656 53.1511L38.1615 52.3511L38.1581 52.3511C39.3328 52.3347 40.2725 51.3699 40.2577 50.195L40.1279 39.9451L40.127 39.877L40.1377 39.8097C41.0279 34.1957 41.8131 29.1768 42.3757 25.5613C42.657 23.7535 42.8827 22.2967 43.038 21.2919C43.1157 20.7894 43.1757 20.4 43.2164 20.1362L43.2626 19.8363L43.2743 19.76L43.2773 19.7408L43.278 19.7359L43.2782 19.7347L43.2783 19.7344L44.069 19.8559M38.1656 53.1511C39.7833 53.1305 41.078 51.8024 41.0576 50.1849L40.9278 39.935C42.7086 28.7052 44.069 19.8559 44.069 19.8559M44.069 19.8559L43.2783 19.7343L43.3156 19.4914L43.4829 19.3114L52.5847 9.51463M44.069 19.8559L52.5847 9.51463M52.5847 9.51463C52.5847 9.51461 52.5847 9.5146 52.5847 9.51459C53.1648 8.89012 53.129 7.91358 52.5047 7.3332L52.5847 9.51463Z" stroke="white" stroke-width="1.6"/>
<circle cx="38.8169" cy="6.44922" r="5.74922" stroke="white" stroke-width="1.4"/>
<circle cx="12.4082" cy="9.45215" r="5.04531" stroke="white" stroke-width="1.3"/>
</svg>
