<svg width="48" height="48" viewBox="0 0 48 48" fill="none" xmlns="http://www.w3.org/2000/svg">
<path d="M47.5834 33.5993C47.8571 31.502 47.9948 28.3446 47.9948 24.136C47.9948 19.9326 47.8571 16.7787 47.5834 14.6744C47.3097 12.5736 46.4397 10.1485 44.977 7.40607C42.5989 2.46869 35.6531 0 24.1326 0C12.429 0 5.29834 2.46869 2.73899 7.40607C1.45757 9.96891 0.681749 12.2999 0.408031 14.4007C0.134313 16.5033 -0.00341797 19.6606 -0.00341797 23.8623C-0.00341797 28.0709 0.134313 31.2265 0.408031 33.3273C0.681749 35.4316 1.50465 37.8498 2.87672 40.5939C4.24706 43.3381 6.66867 45.2558 10.1451 46.3525C13.6162 47.4526 18.2363 48 23.9948 48C29.7551 48 34.3717 47.4526 37.8464 46.3525C41.3175 45.2558 43.7444 43.3834 45.1147 40.7299C46.4868 38.0799 47.3097 35.7036 47.5834 33.5993Z" fill="#C42797"/>
<g clip-path="url(#clip0_7364_86366)">
<path d="M32 11.999H16C14.9391 11.999 13.9217 12.4205 13.1716 13.1706C12.4214 13.9207 12 14.9382 12 15.999V27.999C12 29.0599 12.4214 30.0773 13.1716 30.8274C13.9217 31.5776 14.9391 31.999 16 31.999H18.9L23.351 35.762C23.5316 35.9148 23.7605 35.9987 23.997 35.9987C24.2335 35.9987 24.4624 35.9148 24.643 35.762L29.1 31.999H32C33.0609 31.999 34.0783 31.5776 34.8284 30.8274C35.5786 30.0773 36 29.0599 36 27.999V15.999C36 14.9382 35.5786 13.9207 34.8284 13.1706C34.0783 12.4205 33.0609 11.999 32 11.999ZM34 27.999C34 28.5295 33.7893 29.0382 33.4142 29.4132C33.0391 29.7883 32.5304 29.999 32 29.999H29.1C28.6273 29.9992 28.1699 30.1667 27.809 30.472L24 33.689L20.193 30.472C19.8316 30.1663 19.3734 29.9987 18.9 29.999H16C15.4696 29.999 14.9609 29.7883 14.5858 29.4132C14.2107 29.0382 14 28.5295 14 27.999V15.999C14 15.4686 14.2107 14.9599 14.5858 14.5848C14.9609 14.2097 15.4696 13.999 16 13.999H32C32.5304 13.999 33.0391 14.2097 33.4142 14.5848C33.7893 14.9599 34 15.4686 34 15.999V27.999Z" fill="white"/>
<path d="M18.9998 19H23.9998C24.265 19 24.5193 18.8946 24.7069 18.7071C24.8944 18.5196 24.9998 18.2652 24.9998 18C24.9998 17.7348 24.8944 17.4804 24.7069 17.2929C24.5193 17.1054 24.265 17 23.9998 17H18.9998C18.7345 17 18.4802 17.1054 18.2926 17.2929C18.1051 17.4804 17.9998 17.7348 17.9998 18C17.9998 18.2652 18.1051 18.5196 18.2926 18.7071C18.4802 18.8946 18.7345 19 18.9998 19Z" fill="white"/>
<path d="M28.9998 21H18.9998C18.7345 21 18.4802 21.1054 18.2926 21.2929C18.1051 21.4804 17.9998 21.7348 17.9998 22C17.9998 22.2652 18.1051 22.5196 18.2926 22.7071C18.4802 22.8946 18.7345 23 18.9998 23H28.9998C29.265 23 29.5193 22.8946 29.7069 22.7071C29.8944 22.5196 29.9998 22.2652 29.9998 22C29.9998 21.7348 29.8944 21.4804 29.7069 21.2929C29.5193 21.1054 29.265 21 28.9998 21Z" fill="white"/>
<path d="M28.9998 25H18.9998C18.7345 25 18.4802 25.1054 18.2926 25.2929C18.1051 25.4804 17.9998 25.7348 17.9998 26C17.9998 26.2652 18.1051 26.5196 18.2926 26.7071C18.4802 26.8946 18.7345 27 18.9998 27H28.9998C29.265 27 29.5193 26.8946 29.7069 26.7071C29.8944 26.5196 29.9998 26.2652 29.9998 26C29.9998 25.7348 29.8944 25.4804 29.7069 25.2929C29.5193 25.1054 29.265 25 28.9998 25Z" fill="white"/>
</g>
<defs>
<clipPath id="clip0_7364_86366">
<rect width="24" height="24" fill="white" transform="translate(12 11.999)"/>
</clipPath>
</defs>
</svg>
