<svg width="58" height="52" viewBox="0 0 58 52" fill="none" xmlns="http://www.w3.org/2000/svg">
<path d="M29.1433 11.8438C28.543 11.8438 28.0558 12.3309 28.0558 12.9312C28.0558 13.5315 28.543 14.0187 29.1433 14.0187C29.7436 14.0187 30.2308 13.5315 30.2308 12.9312C30.2308 12.3309 29.7436 11.8438 29.1433 11.8438ZM11.0914 31.4181C11.6917 31.4181 12.1788 30.931 12.1788 30.3307C12.1788 29.7304 11.6917 29.2432 11.0914 29.2432C10.4911 29.2432 10.0039 29.7304 10.0039 30.3307C10.0039 30.931 10.4911 31.4181 11.0914 31.4181Z" fill="white"/>
<path d="M37.8431 0.969238C28.0529 0.969238 20.0175 7.71914 19.396 16.2214C10.0724 16.689 1.3042 23.4123 1.3042 32.5058C1.3042 36.3059 2.80795 39.9881 5.54532 42.9055C6.08687 45.1382 5.42939 47.5047 3.79776 49.1364C3.64561 49.2884 3.54199 49.4822 3.49999 49.6931C3.45798 49.9041 3.4795 50.1227 3.5618 50.3215C3.64411 50.5202 3.78351 50.69 3.96237 50.8095C4.14123 50.929 4.3515 50.9927 4.5666 50.9927C7.66805 50.9927 10.6568 49.7765 12.8777 47.6335C15.0411 48.3708 17.8638 48.8177 20.4436 48.8177C30.2325 48.8177 38.267 42.0695 38.8902 33.569C41.167 33.4678 43.5353 33.0473 45.409 32.4089C47.6298 34.5519 50.6186 35.7682 53.7201 35.7682C53.9352 35.7682 54.1454 35.7045 54.3243 35.585C54.5031 35.4655 54.6425 35.2957 54.7249 35.0969C54.8072 34.8982 54.8287 34.6795 54.7867 34.4686C54.7447 34.2576 54.641 34.0639 54.4889 33.9118C52.8573 32.2802 52.1998 29.9137 52.7413 27.681C55.4787 24.7635 56.9825 21.0814 56.9825 17.2812C56.9825 7.83256 47.5389 0.969238 37.8431 0.969238ZM20.4436 46.6428C17.877 46.6428 14.9523 46.139 12.9932 45.3596C12.7881 45.2779 12.563 45.2605 12.3478 45.3098C12.1326 45.3591 11.9375 45.4728 11.7885 45.6356C10.4755 47.0711 8.76824 48.0719 6.90802 48.5318C7.94839 46.5384 8.18569 44.2222 7.57116 42.0593C7.52194 41.8864 7.43058 41.7285 7.30527 41.5997C4.83803 39.0586 3.47913 35.8289 3.47913 32.5058C3.47913 24.8425 11.2478 18.3687 20.4436 18.3687C29.1272 18.3687 36.7556 24.4071 36.7556 32.5058C36.7556 40.3011 29.438 46.6428 20.4436 46.6428ZM50.9814 26.3752C50.8562 26.5041 50.7649 26.662 50.7155 26.8348C50.101 28.9978 50.3383 31.314 51.3786 33.3074C49.5184 32.8478 47.8112 31.8464 46.4981 30.4111C46.349 30.2483 46.1539 30.1348 45.9388 30.0854C45.7237 30.0361 45.4986 30.0534 45.2935 30.135C43.5955 30.8104 41.1734 31.2781 38.8868 31.3911C38.569 27.2787 36.5177 23.4134 33.0106 20.5436H47.1953C47.7959 20.5436 48.2827 20.0568 48.2827 19.4562C48.2827 18.8556 47.7959 18.3687 47.1953 18.3687H29.6697C27.2011 17.1121 24.4294 16.3794 21.5765 16.2256C22.2014 8.92177 29.2584 3.14417 37.8431 3.14417C47.039 3.14417 54.8075 9.61796 54.8075 17.2812C54.8075 20.6044 53.4486 23.8341 50.9814 26.3752Z" fill="white" stroke="white"/>
<path d="M29.1433 29.2432H15.4412C14.8406 29.2432 14.3538 29.7301 14.3538 30.3307C14.3538 30.9313 14.8406 31.4181 15.4412 31.4181H29.1433C29.7439 31.4181 30.2308 30.9313 30.2308 30.3307C30.2308 29.7301 29.7439 29.2432 29.1433 29.2432ZM29.1433 35.768H11.0914C10.4908 35.768 10.0039 36.2549 10.0039 36.8555C10.0039 37.4561 10.4908 37.9429 11.0914 37.9429H29.1433C29.7439 37.9429 30.2308 37.4561 30.2308 36.8555C30.2308 36.2549 29.7439 35.768 29.1433 35.768ZM47.1952 11.8438H33.4932C32.8926 11.8438 32.4057 12.3306 32.4057 12.9312C32.4057 13.5318 32.8926 14.0187 33.4932 14.0187H47.1952C47.7959 14.0187 48.2827 13.5318 48.2827 12.9312C48.2827 12.3306 47.7959 11.8438 47.1952 11.8438Z" fill="white"/>
</svg>
