<svg width="28" height="29" viewBox="0 0 28 29" fill="none" xmlns="http://www.w3.org/2000/svg">
<path d="M14 21.8911C14.4083 21.8911 14.7535 21.7501 15.0354 21.4682C15.3174 21.1863 15.4583 20.8411 15.4583 20.4328C15.4583 20.0244 15.3174 19.6793 15.0354 19.3974C14.7535 19.1154 14.4083 18.9744 14 18.9744C13.5917 18.9744 13.2465 19.1154 12.9646 19.3974C12.6826 19.6793 12.5417 20.0244 12.5417 20.4328C12.5417 20.8411 12.6826 21.1863 12.9646 21.4682C13.2465 21.7501 13.5917 21.8911 14 21.8911ZM12.95 17.3994H15.1083C15.1083 16.6994 15.1861 16.1842 15.3417 15.8536C15.4972 15.5231 15.8278 15.105 16.3333 14.5994C17.0139 13.9189 17.4951 13.3501 17.7771 12.8932C18.059 12.4363 18.2 11.9161 18.2 11.3328C18.2 10.3022 17.85 9.47097 17.15 8.83903C16.45 8.20709 15.5069 7.89111 14.3208 7.89111C13.2514 7.89111 12.3424 8.15361 11.5938 8.67861C10.8451 9.20361 10.325 9.93278 10.0333 10.8661L11.9583 11.6244C12.0944 11.0994 12.3667 10.6765 12.775 10.3557C13.1833 10.0349 13.6597 9.87445 14.2042 9.87445C14.7292 9.87445 15.1667 10.0154 15.5167 10.2974C15.8667 10.5793 16.0417 10.9536 16.0417 11.4203C16.0417 11.7508 15.9347 12.1008 15.7208 12.4703C15.5069 12.8397 15.1472 13.2481 14.6417 13.6953C14 14.2592 13.5576 14.7988 13.3146 15.314C13.0715 15.8293 12.95 16.5244 12.95 17.3994ZM5.83333 25.3911C5.19167 25.3911 4.64236 25.1626 4.18542 24.7057C3.72847 24.2488 3.5 23.6994 3.5 23.0578V6.72445C3.5 6.08278 3.72847 5.53347 4.18542 5.07653C4.64236 4.61959 5.19167 4.39111 5.83333 4.39111H22.1667C22.8083 4.39111 23.3576 4.61959 23.8146 5.07653C24.2715 5.53347 24.5 6.08278 24.5 6.72445V23.0578C24.5 23.6994 24.2715 24.2488 23.8146 24.7057C23.3576 25.1626 22.8083 25.3911 22.1667 25.3911H5.83333ZM5.83333 23.0578H22.1667V6.72445H5.83333V23.0578Z" fill="white"/>
</svg>
