<svg width="20" height="18" viewBox="0 0 20 18" fill="none" xmlns="http://www.w3.org/2000/svg">
<path fill-rule="evenodd" clip-rule="evenodd" d="M17.9283 0.119752C18.1742 0.013718 18.4434 -0.0228524 18.7078 0.0138467C18.9722 0.0505458 19.2221 0.159173 19.4316 0.328422C19.6411 0.497671 19.8025 0.721354 19.899 0.976189C19.9955 1.23102 20.0235 1.5077 19.9802 1.77741L17.7234 15.8022C17.5044 17.1551 16.0556 17.9309 14.8446 17.257C13.8316 16.6932 12.327 15.8247 10.9737 14.9183C10.297 14.4647 8.22427 13.0119 8.47901 11.9782C8.69793 11.0943 12.1807 7.7729 14.1709 5.79819C14.952 5.02237 14.5958 4.57483 13.6734 5.28845C11.3817 7.06029 7.70483 9.75474 6.48884 10.5132C5.41614 11.182 4.8569 11.2962 4.1882 11.182C2.96823 10.974 1.83682 10.6519 0.913377 10.2594C-0.33446 9.72926 -0.27376 7.97169 0.912382 7.45992L17.9283 0.119752Z" fill="white"/>
</svg>
