<svg width="31" height="29" viewBox="0 0 31 29" fill="none" xmlns="http://www.w3.org/2000/svg">
<path d="M24.9904 27.1001L29.9821 22.1084C30.4423 21.6448 30.4423 20.8963 29.9821 20.4327L24.9904 15.441C24.5268 14.9774 23.7749 14.9774 23.3147 15.441L18.323 20.4327C17.8611 20.8963 17.8611 21.6448 18.323 22.1084L23.3147 27.1001C23.7749 27.5654 24.5268 27.5654 24.9904 27.1001Z" stroke="#0A1932" stroke-width="1.1" stroke-miterlimit="10" stroke-linecap="round" stroke-linejoin="round"/>
<path d="M15.9648 1.83962L17.5764 5.10673L21.1823 5.63102C21.7235 5.71025 21.941 6.37615 21.5499 6.76051L18.9419 9.30272L19.5555 12.8935C19.6499 13.433 19.0835 13.846 18.5963 13.5898L15.3713 11.8955L12.1481 13.5881C11.6626 13.8443 11.0944 13.4313 11.1872 12.8918L11.8025 9.30104L9.19452 6.75883C8.80172 6.37446 9.01919 5.70857 9.56203 5.62933L13.1663 5.10504L14.7779 1.83793C15.0207 1.34736 15.722 1.34736 15.9648 1.83962Z" stroke="#0A1932" stroke-width="1.1" stroke-miterlimit="10" stroke-linecap="round" stroke-linejoin="round"/>
<path d="M1.10498 24.32C0.761078 22.5381 1.26851 20.8 2.53287 19.4969C3.5865 18.4078 5.04811 17.7841 6.56197 17.7622C7.70158 17.7419 8.82939 18.0555 9.82233 18.6084C12.4235 20.0498 13.3609 23.3304 11.9178 25.9316C10.7613 28.0119 8.1382 28.7638 6.05791 27.6073C4.39232 26.6852 3.79217 24.5846 4.716 22.9224C5.45607 21.589 7.13514 21.1085 8.46694 21.8486C9.53237 22.4386 9.91674 23.7805 9.32502 24.8476" stroke="#0A1932" stroke-miterlimit="10" stroke-linecap="round" stroke-linejoin="round"/>
</svg>
