<svg width="16" height="18" viewBox="0 0 16 18" fill="none" xmlns="http://www.w3.org/2000/svg">
<path d="M15.0174 6.7418C14.6149 5.82341 14.0643 5.00954 13.3441 4.29987C12.6239 3.5902 11.7978 3.02656 10.8658 2.65086C10.1668 2.35864 9.42554 2.17075 8.66302 2.08726V1.58634H9.23496C9.46795 1.58634 9.6586 1.39858 9.6586 1.16899V0.41735C9.6586 0.187751 9.46795 0 9.23496 0H6.39662C6.16363 0 5.97297 0.187751 5.97297 0.41735V1.16899C5.97297 1.39858 6.16363 1.58634 6.39662 1.58634H6.96856V2.08726C6.20603 2.17075 5.46474 2.35864 4.76576 2.65086C3.83379 3.02656 2.98645 3.5902 2.28747 4.29987C1.56731 5.00954 0.995468 5.82341 0.614207 6.7418C0.211765 7.70194 0 8.70421 0 9.74784C0 10.7915 0.211765 11.7932 0.614207 12.7534C1.01665 13.6718 1.56731 14.5065 2.28747 15.1953C3.00763 15.905 3.85497 16.4686 4.76576 16.8652C5.74009 17.2618 6.75667 17.4706 7.81572 17.4706C8.87478 17.4706 9.89148 17.2618 10.8658 16.8652C11.7978 16.4686 12.6451 15.905 13.3441 15.1953C14.0643 14.5065 14.6361 13.6718 15.0174 12.7534C15.4198 11.7932 15.6316 10.7915 15.6316 9.74784C15.6316 8.70421 15.4198 7.70194 15.0174 6.7418ZM7.81572 16.0927C4.25729 16.0927 1.3767 13.2544 1.3767 9.74784C1.3767 6.24125 4.25729 3.40249 7.81572 3.40249C11.3742 3.40249 14.2549 6.26212 14.2549 9.74784C14.2549 13.2336 11.3742 16.0927 7.81572 16.0927Z" fill="#0A1932"/>
<path d="M7.99449 4.59655C5.88432 4.5767 3.89705 5.82713 3.09806 7.8512C2.0737 10.4706 3.42581 13.3872 6.1301 14.3794C8.83439 15.3716 11.8461 14.062 12.8704 11.4426L7.99449 9.65682V4.59655Z" fill="#0A1932"/>
</svg>
