<svg width="20" height="18" viewBox="0 0 20 18" fill="none" xmlns="http://www.w3.org/2000/svg">
<path d="M10.0402 5.21359e-05C4.55276 5.21359e-05 0.0804022 3.89473 0.0804022 8.67338C0.0804022 10.205 0.542714 11.6928 1.40704 13.0057L0 17.5042L5.27638 16.2965C6.73367 16.9879 8.37186 17.3555 10.0402 17.3555C15.5276 17.3555 20 13.4608 20 8.68213C20 6.36282 18.9648 4.18355 17.0854 2.54691C16.164 1.7364 15.0665 1.09377 13.8569 0.656504C12.6473 0.219235 11.3499 -0.00392104 10.0402 5.21359e-05ZM10.0503 1.46165C12.2613 1.46165 14.3317 2.21433 15.8995 3.57966C16.669 4.2495 17.279 5.04504 17.6946 5.92063C18.1103 6.79623 18.3233 7.73467 18.3216 8.68213C18.3216 12.6556 14.603 15.8851 10.0402 15.8851C8.55276 15.8851 7.09548 15.5438 5.82915 14.8786L5.52764 14.7298L2.39196 15.4475L3.22613 12.7869L3.02513 12.5068C2.19491 11.3591 1.75579 10.0298 1.75879 8.67338C1.76884 4.69993 5.47739 1.46165 10.0503 1.46165ZM6.51256 4.66492C6.35176 4.66492 6.0804 4.71743 5.84925 4.93623C5.62814 5.15504 4.97487 5.68891 4.97487 6.74792C4.97487 7.81567 5.86935 8.83967 5.9799 8.98845C6.1206 9.13724 7.74874 11.3253 10.2513 12.253C10.8442 12.4893 11.3065 12.6206 11.6683 12.7168C12.2613 12.8831 12.804 12.8569 13.2362 12.8044C13.7186 12.7431 14.7035 12.2792 14.9146 11.7716C15.1256 11.264 15.1256 10.8351 15.0653 10.7389C14.995 10.6513 14.8342 10.5988 14.5829 10.5026C14.3317 10.38 13.1055 9.85491 12.8844 9.78489C12.6533 9.71488 12.5126 9.67987 12.3216 9.88992C12.1608 10.1087 11.6784 10.5988 11.5377 10.7389C11.3869 10.8877 11.2462 10.9052 11.005 10.8001C10.7437 10.6864 9.9397 10.4588 8.99497 9.72363C8.25126 9.14599 7.75879 8.43707 7.60804 8.21827C7.48744 8.00822 7.59799 7.87694 7.71859 7.78066C7.82914 7.68439 7.98995 7.52685 8.09045 7.39557C8.2211 7.27304 8.26131 7.17677 8.34171 7.03673C8.42211 6.88795 8.38191 6.76542 8.32161 6.66039C8.26131 6.56412 7.75879 5.47886 7.54774 5.05001C7.34673 4.62991 7.14573 4.68242 6.98492 4.67367C6.84422 4.67367 6.68342 4.66492 6.51256 4.66492Z" fill="white"/>
</svg>
