<svg width="26" height="24" viewBox="0 0 26 24" fill="none" xmlns="http://www.w3.org/2000/svg">
<g clip-path="url(#clip0_7167_36001)">
<path d="M25.1598 11C25.1598 9.43 24.3738 7.96 23.0638 7.02V7C23.0638 5.1 21.67 3.51 19.815 3.1C19.3853 1.33 17.719 0 15.7278 0C14.4807 0 13.3489 0.53 12.5838 1.36C11.8188 0.53 10.6869 0 9.43982 0C7.44861 0 5.78229 1.33 5.35261 3.1C3.49765 3.51 2.10381 5.1 2.10381 7V7.02C0.793813 7.96 0.0078125 9.43 0.0078125 11C0.0078125 11.89 0.259333 12.74 0.730933 13.5C0.259333 14.26 0.0078125 15.11 0.0078125 16C0.0078125 17.69 0.909093 19.24 2.38677 20.17C3.14133 22.45 5.33165 24 7.86782 24C9.8171 24 11.5358 23.07 12.5838 21.66C13.6318 23.07 15.3505 24 17.2998 24C19.836 24 22.0263 22.44 22.7809 20.17C24.2585 19.25 25.1598 17.69 25.1598 16C25.1598 15.11 24.9083 14.26 24.4367 13.5C24.9083 12.74 25.1598 11.89 25.1598 11ZM7.86782 22C6.15957 22 4.69237 20.88 4.30461 19.29L4.19981 18.85L3.78061 18.64C2.75357 18.11 2.10381 17.1 2.10381 16.01C2.10381 15.34 2.34485 14.69 2.81645 14.14L3.35093 13.51L2.81645 12.88C2.35533 12.33 2.10381 11.68 2.10381 11.01C2.10381 9.94 2.72213 8.94 3.71773 8.41L4.36749 8.06C4.36749 8.06 4.19981 7.13 4.19981 7.01C4.19981 5.91 5.14301 5.01 6.29581 5.01H7.34381V4.01C7.34381 2.91 8.28702 2.01 9.43982 2.01C10.5926 2.01 11.5358 2.91 11.5358 4.01V18.51C11.5358 20.44 9.89046 22.01 7.86782 22.01V22ZM22.3512 14.13C22.8123 14.68 23.0638 15.33 23.0638 16C23.0638 17.1 22.4245 18.1 21.387 18.63L20.9678 18.84L20.863 19.28C20.4753 20.88 19.0081 21.99 17.2998 21.99C15.2772 21.99 13.6318 20.42 13.6318 18.49V4C13.6318 2.9 14.575 2 15.7278 2C16.8806 2 17.8238 2.9 17.8238 4V5H18.8718C20.0246 5 20.9678 5.9 20.9678 7C20.9678 7.12 20.8001 8.05 20.8001 8.05L21.4499 8.4C22.4455 8.94 23.0638 9.93 23.0638 11C23.0638 11.68 22.8228 12.32 22.3512 12.87L21.8167 13.5L22.3512 14.13Z" fill="#757575"/>
</g>
<defs>
<clipPath id="clip0_7167_36001">
<rect width="25.152" height="24" fill="white" transform="translate(0.0078125)"/>
</clipPath>
</defs>
</svg>
