<svg width="26" height="24" viewBox="0 0 26 24" fill="none" xmlns="http://www.w3.org/2000/svg">
<g clip-path="url(#clip0_7167_36021)">
<path d="M19.9921 2H18.9441V1C18.9441 0.448 18.4746 0 17.8961 0C17.3176 0 16.8481 0.448 16.8481 1V2H8.46408V1C8.46408 0.448 7.99457 0 7.41608 0C6.83758 0 6.36808 0.448 6.36808 1V2H5.32008C2.43074 2 0.0800781 4.243 0.0800781 7V19C0.0800781 21.757 2.43074 24 5.32008 24H19.9921C22.8814 24 25.2321 21.757 25.2321 19V7C25.2321 4.243 22.8814 2 19.9921 2ZM5.32008 4H19.9921C21.7255 4 23.1361 5.346 23.1361 7V8H2.17608V7C2.17608 5.346 3.58669 4 5.32008 4ZM19.9921 22H5.32008C3.58669 22 2.17608 20.654 2.17608 19V10H23.1361V19C23.1361 20.654 21.7255 22 19.9921 22ZM17.2641 15.352C17.2641 15.731 16.9875 16.05 16.671 16.218L15.0319 17.088L15.7592 18.981C15.8996 19.348 15.7728 19.759 15.4459 19.994C15.1115 20.234 14.6504 20.231 14.3193 19.987L12.6886 18.784L11.0579 19.987C10.7267 20.231 10.2656 20.234 9.93128 19.994C9.6043 19.759 9.47749 19.348 9.61793 18.981L10.3452 17.088L8.70617 16.218C8.38967 16.05 8.113 15.731 8.113 15.352C8.113 15.031 8.40539 14.676 8.87909 14.676H11.2339L11.8586 12.393C11.9571 12.031 12.2977 11.779 12.6886 11.772C13.0795 11.779 13.4201 12.031 13.5186 12.393L14.1432 14.676H16.498C16.9717 14.676 17.2641 15.03 17.2641 15.352Z" fill="white"/>
</g>
<defs>
<clipPath id="clip0_7167_36021">
<rect width="25.152" height="24" fill="white" transform="translate(0.0800781)"/>
</clipPath>
</defs>
</svg>
