<svg width="27" height="24" viewBox="0 0 27 24" fill="none" xmlns="http://www.w3.org/2000/svg">
<g clip-path="url(#clip0_7167_35994)">
<path d="M13.5115 0C6.57693 0 0.935547 5.383 0.935547 12C0.935547 18.617 6.57693 24 13.5115 24C20.4462 24 26.0875 18.617 26.0875 12C26.0875 5.383 20.4462 0 13.5115 0ZM13.5115 22C7.73287 22 3.03155 17.514 3.03155 12C3.03155 10.506 3.37739 9.088 3.99571 7.813L5.74167 9.564C6.01939 9.842 6.40401 10 6.80644 10H8.84899C9.15082 10 9.44007 10.114 9.65386 10.318L10.0448 10.691C10.2523 10.889 10.3686 11.157 10.3686 11.436V12.399C10.3686 12.784 10.5289 13.152 10.814 13.424L12.0611 14.614C12.32 14.861 12.4656 15.196 12.4656 15.545V17.91C12.4656 18.512 12.9771 19 13.608 19H13.8312C14.2766 19 14.6811 18.753 14.8677 18.367L17.2162 13.511C17.496 12.933 17.2812 12.248 16.7163 11.91L14.0314 10.309C13.6928 10.107 13.3019 10 12.9027 10H11.403C11.077 10 10.7637 9.876 10.5331 9.656L9.91271 9.064C9.58574 8.752 9.58574 8.247 9.91271 7.936L10.4671 7.407C10.7218 7.164 11.1106 7.104 11.4323 7.258L12.3546 7.698C12.7329 7.879 13.1909 7.808 13.4906 7.522L13.4937 7.519C13.8134 7.214 13.8742 6.741 13.6415 6.372L12.7643 4.976C12.5809 4.684 12.5851 4.322 12.779 4.036C13.0892 3.579 13.5964 2.834 14.1582 2.02C17.5872 2.22 20.5772 4 22.3336 6.606L20.6673 7.523C20.1538 7.805 19.8991 8.378 20.0437 8.926L20.7008 11.433C20.7951 11.793 21.0498 12.095 21.3977 12.26L23.8846 13.438C23.1521 18.273 18.7798 22 13.5136 22H13.5115Z" fill="#757575"/>
</g>
<defs>
<clipPath id="clip0_7167_35994">
<rect width="25.152" height="24" fill="white" transform="translate(0.935547)"/>
</clipPath>
</defs>
</svg>
