<svg width="26" height="24" viewBox="0 0 26 24" fill="none" xmlns="http://www.w3.org/2000/svg">
<g clip-path="url(#clip0_7167_36012)">
<path d="M14.8243 18H10.6323C9.4764 18 8.53634 17.103 8.53634 16V12C8.53634 10.897 9.4764 9.99998 10.6323 9.99998H14.8243C15.9803 9.99998 16.9203 10.897 16.9203 12V16C16.9203 17.103 15.9803 18 14.8243 18ZM10.6323 12V16H14.8264L14.8243 12H10.6323ZM20.0643 24H5.39234C2.50301 24 0.152344 21.757 0.152344 19V9.72398C0.152344 8.05898 1.0159 6.50898 2.46214 5.57898L9.79709 0.854984C11.5776 -0.291017 13.879 -0.291017 15.6596 0.854984L22.9956 5.57898C24.4408 6.50898 25.3043 8.05798 25.3043 9.72398V19C25.3043 21.757 22.9537 24 20.0643 24ZM12.7283 1.99698C12.1163 1.99698 11.5043 2.16898 10.9698 2.51398L3.6338 7.23698C2.76606 7.79498 2.24834 8.72398 2.24834 9.72298V18.999C2.24834 20.653 3.65895 21.999 5.39234 21.999H20.0643C21.7977 21.999 23.2083 20.653 23.2083 18.999V9.72398C23.2083 8.72498 22.6906 7.79498 21.8239 7.23798L14.4869 2.51398C13.9524 2.16898 13.3404 1.99698 12.7283 1.99698Z" fill="white"/>
</g>
<defs>
<clipPath id="clip0_7167_36012">
<rect width="25.152" height="24" fill="white" transform="translate(0.152344)"/>
</clipPath>
</defs>
</svg>
