<svg width="27" height="24" viewBox="0 0 27 24" fill="none" xmlns="http://www.w3.org/2000/svg">
<g clip-path="url(#clip0_7167_36019)">
<path d="M26.0162 10.0001C26.0163 9.92709 26.0078 9.85431 25.9911 9.78309L24.6287 3.91508C24.3756 2.80132 23.7288 1.80447 22.7969 1.09167C21.865 0.378865 20.7046 -0.00653638 19.5103 8.38888e-05H7.37024C6.17662 -0.00561641 5.0172 0.380206 4.08615 1.09293C3.15511 1.80565 2.50898 2.802 2.256 3.91508L0.889411 9.78309C0.872652 9.85431 0.864216 9.92709 0.864259 10.0001V11.0001C0.863414 11.9737 1.23622 12.9139 1.91226 13.6431V19.0001C1.91392 20.3257 2.46653 21.5965 3.44886 22.5339C4.43119 23.4712 5.76303 23.9985 7.15225 24.0001H19.7282C21.1175 23.9985 22.4493 23.4712 23.4316 22.5339C24.414 21.5965 24.9666 20.3257 24.9682 19.0001V13.6431C25.6443 12.9139 26.0171 11.9737 26.0162 11.0001V10.0001ZM2.96026 10.1091L4.3017 4.34908C4.4537 3.68134 4.84143 3.08366 5.40001 2.65606C5.95859 2.22846 6.65413 1.99689 7.37024 2.00008H8.20025V5.00008C8.20025 5.2653 8.31067 5.51965 8.50721 5.70719C8.70374 5.89473 8.97031 6.00008 9.24825 6.00008C9.5262 6.00008 9.79276 5.89473 9.9893 5.70719C10.1858 5.51965 10.2963 5.2653 10.2963 5.00008V2.00008H16.5842V5.00008C16.5842 5.2653 16.6947 5.51965 16.8912 5.70719C17.0877 5.89473 17.3543 6.00008 17.6322 6.00008C17.9102 6.00008 18.1768 5.89473 18.3733 5.70719C18.5698 5.51965 18.6802 5.2653 18.6802 5.00008V2.00008H19.5103C20.2264 1.99689 20.9219 2.22846 21.4805 2.65606C22.0391 3.08366 22.4268 3.68134 22.5788 4.34908L23.9202 10.1091V11.0001C23.9202 11.5305 23.6994 12.0392 23.3063 12.4143C22.9133 12.7894 22.3801 13.0001 21.8242 13.0001H20.7762C20.2204 13.0001 19.6872 12.7894 19.2941 12.4143C18.9011 12.0392 18.6802 11.5305 18.6802 11.0001C18.6802 10.7349 18.5698 10.4805 18.3733 10.293C18.1768 10.1054 17.9102 10.0001 17.6322 10.0001C17.3543 10.0001 17.0877 10.1054 16.8912 10.293C16.6947 10.4805 16.5842 10.7349 16.5842 11.0001C16.5842 11.5305 16.3634 12.0392 15.9703 12.4143C15.5773 12.7894 15.0441 13.0001 14.4882 13.0001H12.3922C11.8364 13.0001 11.3032 12.7894 10.9102 12.4143C10.5171 12.0392 10.2963 11.5305 10.2963 11.0001C10.2963 10.7349 10.1858 10.4805 9.9893 10.293C9.79276 10.1054 9.5262 10.0001 9.24825 10.0001C8.97031 10.0001 8.70374 10.1054 8.50721 10.293C8.31067 10.4805 8.20025 10.7349 8.20025 11.0001C8.20025 11.5305 7.97943 12.0392 7.58635 12.4143C7.19327 12.7894 6.66015 13.0001 6.10426 13.0001H5.05626C4.50036 13.0001 3.96724 12.7894 3.57416 12.4143C3.18109 12.0392 2.96026 11.5305 2.96026 11.0001V10.1091ZM19.7282 22.0001H7.15225C6.31841 22.0001 5.51873 21.684 4.92911 21.1214C4.3395 20.5588 4.00826 19.7957 4.00826 19.0001V14.8731C4.35053 14.9577 4.70269 15.0003 5.05626 15.0001H6.10426C6.69932 15.0004 7.28761 14.8795 7.82979 14.6455C8.37197 14.4115 8.85557 14.0697 9.24825 13.6431C9.64094 14.0697 10.1245 14.4115 10.6667 14.6455C11.2089 14.8795 11.7972 15.0004 12.3922 15.0001H14.4882C15.0833 15.0004 15.6716 14.8795 16.2138 14.6455C16.756 14.4115 17.2396 14.0697 17.6322 13.6431C18.0249 14.0697 18.5085 14.4115 19.0507 14.6455C19.5929 14.8795 20.1812 15.0004 20.7762 15.0001H21.8242C22.1778 15.0003 22.53 14.9577 22.8722 14.8731V19.0001C22.8722 19.7957 22.541 20.5588 21.9514 21.1214C21.3618 21.684 20.5621 22.0001 19.7282 22.0001Z" fill="white"/>
</g>
<defs>
<clipPath id="clip0_7167_36019">
<rect width="25.152" height="24" fill="white" transform="translate(0.864258)"/>
</clipPath>
</defs>
</svg>
