<svg width="26" height="24" viewBox="0 0 26 24" fill="none" xmlns="http://www.w3.org/2000/svg">
<g clip-path="url(#clip0_7167_36014)">
<path d="M13.3681 12C14.6117 12 15.8274 11.6481 16.8615 10.9888C17.8956 10.3295 18.7015 9.39246 19.1774 8.2961C19.6534 7.19975 19.7779 5.99335 19.5353 4.82946C19.2926 3.66557 18.6938 2.59648 17.8144 1.75736C16.935 0.918247 15.8146 0.346802 14.5948 0.115291C13.3751 -0.11622 12.1107 0.00259972 10.9618 0.456725C9.81278 0.910851 8.83073 1.67989 8.1398 2.66658C7.44886 3.65328 7.08008 4.81331 7.08008 6C7.08174 7.59081 7.74476 9.11601 8.92363 10.2409C10.1025 11.3658 11.7009 11.9984 13.3681 12ZM13.3681 2C14.1972 2 15.0077 2.2346 15.697 2.67412C16.3864 3.11365 16.9237 3.73836 17.241 4.46927C17.5583 5.20017 17.6413 6.00444 17.4795 6.78036C17.3178 7.55629 16.9185 8.26902 16.3323 8.82843C15.746 9.38784 14.9991 9.7688 14.1859 9.92314C13.3727 10.0775 12.5299 9.99827 11.7639 9.69552C10.9979 9.39277 10.3432 8.88008 9.88256 8.22228C9.42194 7.56449 9.17608 6.79113 9.17608 6C9.17608 4.93914 9.61773 3.92172 10.4039 3.17158C11.19 2.42143 12.2563 2 13.3681 2Z" fill="white"/>
<path d="M13.368 14C10.8674 14.0026 8.46991 14.9517 6.70167 16.639C4.93343 18.3262 3.93881 20.6139 3.93604 23C3.93604 23.2652 4.04645 23.5196 4.24299 23.7071C4.43953 23.8946 4.70609 24 4.98404 24C5.26198 24 5.52855 23.8946 5.72508 23.7071C5.92162 23.5196 6.03204 23.2652 6.03204 23C6.03204 21.1435 6.80493 19.363 8.1807 18.0503C9.55647 16.7375 11.4224 16 13.368 16C15.3137 16 17.1796 16.7375 18.5554 18.0503C19.9311 19.363 20.704 21.1435 20.704 23C20.704 23.2652 20.8145 23.5196 21.011 23.7071C21.2075 23.8946 21.4741 24 21.752 24C22.03 24 22.2966 23.8946 22.4931 23.7071C22.6896 23.5196 22.8 23.2652 22.8 23C22.7973 20.6139 21.8027 18.3262 20.0344 16.639C18.2662 14.9517 15.8687 14.0026 13.368 14Z" fill="white"/>
</g>
<defs>
<clipPath id="clip0_7167_36014">
<rect width="25.152" height="24" fill="white" transform="translate(0.791992)"/>
</clipPath>
</defs>
</svg>
