 <svg
                  className="w-4 h-4 "
                  viewBox="0 0 16 17"
                  fill="none"
                  xmlns="http://www.w3.org/2000/svg"
                >
                  <path
                    d="M-0.000753244 8.16472C0.0956635 6.60473 0.646478 5.10706 1.58378 3.85633C2.52109 2.60561 3.80391 1.65651 5.2741 1.12605C6.74429 0.595582 8.33758 0.50694 9.85754 0.871048C11.3775 1.23516 12.7577 2.0361 13.8279 3.17513C14.8982 4.31416 15.6118 5.74149 15.8806 7.28116C16.1495 8.82082 15.9619 10.4055 15.341 11.8399C14.7202 13.2742 13.6931 14.4955 12.3865 15.3532C11.0799 16.2109 9.55088 16.6675 7.98791 16.6667H3.33258C2.4488 16.6658 1.60146 16.3144 0.976532 15.6894C0.351601 15.0645 0.000129217 14.2172 -0.000753244 13.3334V8.16472ZM1.33258 13.3334C1.33258 13.8638 1.54329 14.3725 1.91837 14.7476C2.29344 15.1227 2.80215 15.3334 3.33258 15.3334H7.98791C8.92863 15.333 9.85869 15.1343 10.7174 14.7503C11.5762 14.3662 12.3444 13.8055 12.9719 13.1047C13.6025 12.4042 14.076 11.577 14.3607 10.6786C14.6453 9.78012 14.7346 8.83118 14.6226 7.89538C14.4456 6.41935 13.7825 5.04418 12.7376 3.98667C11.6928 2.92916 10.3257 2.24946 8.85191 2.05472C8.56442 2.01868 8.27499 2.00043 7.98525 2.00005C6.4316 1.99581 4.92604 2.53865 3.73258 3.53338C3.03556 4.11268 2.46344 4.82749 2.05089 5.63447C1.63835 6.44146 1.39397 7.32381 1.33258 8.22805V13.3334Z"
                    fill="#0A1932"
                  />
                  <path
                    d="M10.6659 6.66667H7.99919C7.82238 6.66667 7.65281 6.59643 7.52778 6.4714C7.40276 6.34638 7.33252 6.17681 7.33252 6C7.33252 5.82319 7.40276 5.65362 7.52778 5.5286C7.65281 5.40357 7.82238 5.33333 7.99919 5.33333H10.6659C10.8427 5.33333 11.0122 5.40357 11.1373 5.5286C11.2623 5.65362 11.3325 5.82319 11.3325 6C11.3325 6.17681 11.2623 6.34638 11.1373 6.4714C11.0122 6.59643 10.8427 6.66667 10.6659 6.66667Z"
                    fill="#0A1932"
                  />
                  <path
                    d="M5.33252 8H10.6659C10.8427 8 11.0122 8.07024 11.1373 8.19526C11.2623 8.32029 11.3325 8.48986 11.3325 8.66667C11.3325 8.84348 11.2623 9.01305 11.1373 9.13807C11.0122 9.2631 10.8427 9.33333 10.6659 9.33333H5.33252C5.15571 9.33333 4.98614 9.2631 4.86111 9.13807C4.73609 9.01305 4.66585 8.84348 4.66585 8.66667C4.66585 8.48986 4.73609 8.32029 4.86111 8.19526C4.98614 8.07024 5.15571 8 5.33252 8Z"
                    fill="#0A1932"
                  />
                  <path
                    d="M5.33252 10.6667H10.6659C10.8427 10.6667 11.0122 10.7369 11.1373 10.8619C11.2623 10.987 11.3325 11.1565 11.3325 11.3333C11.3325 11.5101 11.2623 11.6797 11.1373 11.8047C11.0122 11.9298 10.8427 12 10.6659 12H5.33252C5.15571 12 4.98614 11.9298 4.86111 11.8047C4.73609 11.6797 4.66585 11.5101 4.66585 11.3333C4.66585 11.1565 4.73609 10.987 4.86111 10.8619C4.98614 10.7369 5.15571 10.6667 5.33252 10.6667Z"
                    fill="#0A1932"
                  />
                </svg>