 <svg
                  className="w-3 h-3"
                  viewBox="0 0 16 14"
                  fill="none"
                  xmlns="http://www.w3.org/2000/svg"
                >
                  <path
                    d="M15.182 5.14726C14.8694 4.787 14.483 4.49811 14.0491 4.30016C13.6151 4.10221 13.1437 3.99982 12.6667 3.99993H10.0073L10.2313 2.63926C10.3106 2.1601 10.215 1.66842 9.96191 1.25389C9.70885 0.839355 9.31521 0.529601 8.8528 0.381121C8.39038 0.23264 7.89 0.255327 7.44292 0.445043C6.99584 0.634759 6.63184 0.978863 6.41733 1.41459L5.14133 3.99993H3.33333C2.4496 4.00098 1.60237 4.35251 0.97748 4.97741C0.352588 5.6023 0.00105857 6.44953 0 7.33326L0 10.6666C0.00105857 11.5503 0.352588 12.3976 0.97748 13.0224C1.60237 13.6473 2.4496 13.9989 3.33333 13.9999H12.2C13.0023 13.9966 13.7768 13.7055 14.3825 13.1794C14.9883 12.6533 15.3851 11.9272 15.5007 11.1333L15.9707 7.79993C16.0369 7.32708 16.0007 6.84554 15.8646 6.38788C15.7286 5.93022 15.4958 5.50714 15.182 5.14726ZM1.33333 10.6666V7.33326C1.33333 6.80283 1.54405 6.29412 1.91912 5.91905C2.29419 5.54397 2.8029 5.33326 3.33333 5.33326H4.66667V12.6666H3.33333C2.8029 12.6666 2.29419 12.4559 1.91912 12.0808C1.54405 11.7057 1.33333 11.197 1.33333 10.6666ZM14.6473 7.61259L14.1767 10.9459C14.1079 11.4219 13.8705 11.8574 13.5077 12.1732C13.145 12.4889 12.6809 12.664 12.2 12.6666H6V5.15593C6.06283 5.10119 6.11484 5.03516 6.15333 4.96126L7.61267 2.00459C7.66739 1.90588 7.74476 1.82156 7.83842 1.75857C7.93207 1.69557 8.03934 1.6557 8.1514 1.64223C8.26346 1.62876 8.37712 1.64207 8.48304 1.68108C8.58896 1.72008 8.6841 1.78366 8.76067 1.86659C8.82617 1.94276 8.87405 2.03244 8.9009 2.12924C8.92775 2.22604 8.93291 2.32757 8.916 2.42659L8.564 4.55993C8.54855 4.65525 8.55399 4.75279 8.57995 4.8458C8.60591 4.93881 8.65176 5.02507 8.71433 5.09861C8.77691 5.17216 8.85472 5.23123 8.94237 5.27174C9.03003 5.31226 9.12544 5.33325 9.222 5.33326H12.6667C12.9529 5.33322 13.2359 5.39464 13.4964 5.51336C13.7569 5.63208 13.9888 5.80533 14.1766 6.02142C14.3644 6.2375 14.5036 6.49137 14.5848 6.76588C14.666 7.04039 14.6873 7.32913 14.6473 7.61259Z"
                    fill="#F05C5C"
                  />
                </svg>