<svg width="24" height="24" viewBox="0 0 24 24" fill="none" xmlns="http://www.w3.org/2000/svg">
<g clip-path="url(#clip0_395_5258)">
<path d="M1 6H23C23.2652 6 23.5196 5.89464 23.7071 5.7071C23.8946 5.51957 24 5.26521 24 5C24 4.73478 23.8946 4.48043 23.7071 4.29289C23.5196 4.10536 23.2652 4 23 4H1C0.734784 4 0.48043 4.10536 0.292893 4.29289C0.105357 4.48043 0 4.73478 0 5C0 5.26521 0.105357 5.51957 0.292893 5.7071C0.48043 5.89464 0.734784 6 1 6V6Z" fill="#FDE8FF"/>
<path d="M4.99976 9C4.73454 9 4.48019 9.10536 4.29265 9.29289C4.10511 9.48043 3.99976 9.73478 3.99976 10C3.99976 10.2652 4.10511 10.5196 4.29265 10.7071C4.48019 10.8946 4.73454 11 4.99976 11H18.9998C19.265 11 19.5193 10.8946 19.7069 10.7071C19.8944 10.5196 19.9998 10.2652 19.9998 10C19.9998 9.73478 19.8944 9.48043 19.7069 9.29289C19.5193 9.10536 19.265 9 18.9998 9H4.99976Z" fill="#FDE8FF"/>
<path d="M18.9998 19H4.99976C4.73454 19 4.48019 19.1053 4.29265 19.2929C4.10511 19.4804 3.99976 19.7348 3.99976 20C3.99976 20.2652 4.10511 20.5195 4.29265 20.7071C4.48019 20.8946 4.73454 21 4.99976 21H18.9998C19.265 21 19.5193 20.8946 19.7069 20.7071C19.8944 20.5195 19.9998 20.2652 19.9998 20C19.9998 19.7348 19.8944 19.4804 19.7069 19.2929C19.5193 19.1053 19.265 19 18.9998 19Z" fill="#FDE8FF"/>
<path d="M23 14H1C0.734784 14 0.48043 14.1054 0.292893 14.2929C0.105357 14.4805 0 14.7348 0 15C0 15.2653 0.105357 15.5196 0.292893 15.7071C0.48043 15.8947 0.734784 16 1 16H23C23.2652 16 23.5196 15.8947 23.7071 15.7071C23.8946 15.5196 24 15.2653 24 15C24 14.7348 23.8946 14.4805 23.7071 14.2929C23.5196 14.1054 23.2652 14 23 14Z" fill="#FDE8FF"/>
</g>
<defs>
<clipPath id="clip0_395_5258">
<rect width="24" height="24" fill="white"/>
</clipPath>
</defs>
</svg>
