<svg width="24" height="24" viewBox="0 0 24 24" fill="none" xmlns="http://www.w3.org/2000/svg">
<g clip-path="url(#clip0_395_5263)">
<path d="M12.0001 24C11.8685 24.0007 11.738 23.9755 11.6162 23.9257C11.4943 23.876 11.3835 23.8027 11.2901 23.71L3.12006 15.54C2.65443 15.0755 2.285 14.5238 2.03294 13.9163C1.78087 13.3089 1.65112 12.6576 1.65112 12C1.65112 11.3423 1.78087 10.6911 2.03294 10.0836C2.285 9.47618 2.65443 8.92443 3.12006 8.45997L11.2901 0.289972C11.4784 0.101668 11.7338 -0.00411987 12.0001 -0.00411987C12.2664 -0.00411987 12.5218 0.101668 12.7101 0.289972C12.8984 0.478275 13.0042 0.73367 13.0042 0.999972C13.0042 1.26627 12.8984 1.52167 12.7101 1.70997L4.54006 9.87997C3.97826 10.4425 3.6627 11.205 3.6627 12C3.6627 12.795 3.97826 13.5575 4.54006 14.12L12.7101 22.29C12.8038 22.3829 12.8782 22.4935 12.929 22.6154C12.9797 22.7373 13.0059 22.868 13.0059 23C13.0059 23.132 12.9797 23.2627 12.929 23.3845C12.8782 23.5064 12.8038 23.617 12.7101 23.71C12.6166 23.8027 12.5058 23.876 12.384 23.9257C12.2621 23.9755 12.1317 24.0007 12.0001 24Z" fill="#FDE8FF"/>
<path d="M22.0001 24C21.8685 24.0007 21.7381 23.9755 21.6162 23.9257C21.4944 23.876 21.3836 23.8027 21.2901 23.71L11.7101 14.12C11.1483 13.5575 10.8328 12.795 10.8328 12C10.8328 11.205 11.1483 10.4425 11.7101 9.87997L21.2901 0.289972C21.4784 0.101668 21.7338 -0.00411987 22.0001 -0.00411987C22.2664 -0.00411987 22.5218 0.101668 22.7101 0.289972C22.8984 0.478275 23.0042 0.73367 23.0042 0.999972C23.0042 1.26627 22.8984 1.52167 22.7101 1.70997L13.1201 11.29C13.0264 11.3829 12.952 11.4935 12.9012 11.6154C12.8505 11.7373 12.8243 11.868 12.8243 12C12.8243 12.132 12.8505 12.2627 12.9012 12.3845C12.952 12.5064 13.0264 12.617 13.1201 12.71L22.7101 22.29C22.8039 22.3829 22.8782 22.4935 22.929 22.6154C22.9798 22.7373 23.0059 22.868 23.0059 23C23.0059 23.132 22.9798 23.2627 22.929 23.3845C22.8782 23.5064 22.8039 23.617 22.7101 23.71C22.6167 23.8027 22.5059 23.876 22.384 23.9257C22.2622 23.9755 22.1317 24.0007 22.0001 24Z" fill="#FDE8FF"/>
</g>
<defs>
<clipPath id="clip0_395_5263">
<rect width="24" height="24" fill="white"/>
</clipPath>
</defs>
</svg>
