<svg width="24" height="24" viewBox="0 0 24 24" fill="none" xmlns="http://www.w3.org/2000/svg">
<g clip-path="url(#clip0_395_5264)">
<path d="M11.8298 24C11.6982 24.0007 11.5677 23.9755 11.4459 23.9257C11.324 23.876 11.2132 23.8027 11.1198 23.71C11.026 23.617 10.9517 23.5064 10.9009 23.3845C10.8501 23.2627 10.824 23.132 10.824 23C10.824 22.868 10.8501 22.7373 10.9009 22.6154C10.9517 22.4935 11.026 22.3829 11.1198 22.29L19.2898 14.12C19.8516 13.5575 20.1671 12.795 20.1671 12C20.1671 11.205 19.8516 10.4425 19.2898 9.87997L11.1198 1.70997C11.0265 1.61673 10.9526 1.50604 10.9021 1.38422C10.8517 1.2624 10.8257 1.13183 10.8257 0.999972C10.8257 0.73367 10.9315 0.478275 11.1198 0.289972C11.3081 0.101668 11.5635 -0.00411987 11.8298 -0.00411987C12.0961 -0.00411987 12.3515 0.101668 12.5398 0.289972L20.7098 8.45997C21.1754 8.92443 21.5448 9.47618 21.7969 10.0836C22.049 10.6911 22.1787 11.3423 22.1787 12C22.1787 12.6576 22.049 13.3089 21.7969 13.9163C21.5448 14.5238 21.1754 15.0755 20.7098 15.54L12.5398 23.71C12.4463 23.8027 12.3355 23.876 12.2137 23.9257C12.0918 23.9755 11.9614 24.0007 11.8298 24Z" fill="#FDE8FF"/>
<path d="M1.83002 24C1.69841 24.0007 1.56795 23.9755 1.44611 23.9257C1.32427 23.876 1.21346 23.8027 1.12002 23.71C1.02629 23.617 0.951894 23.5064 0.901126 23.3845C0.850357 23.2627 0.824219 23.132 0.824219 23C0.824219 22.868 0.850357 22.7373 0.901126 22.6154C0.951894 22.4935 1.02629 22.3829 1.12002 22.29L10.71 12.71C10.8037 12.617 10.8781 12.5064 10.9289 12.3845C10.9797 12.2627 11.0058 12.132 11.0058 12C11.0058 11.868 10.9797 11.7373 10.9289 11.6154C10.8781 11.4935 10.8037 11.3829 10.71 11.29L1.12002 1.70997C0.931713 1.52167 0.825925 1.26627 0.825925 0.999972C0.825925 0.73367 0.931713 0.478275 1.12002 0.289972C1.30832 0.101668 1.56372 -0.00411987 1.83002 -0.00411987C2.09632 -0.00411987 2.35171 0.101668 2.54002 0.289972L12.12 9.87997C12.6818 10.4425 12.9974 11.205 12.9974 12C12.9974 12.795 12.6818 13.5575 12.12 14.12L2.54002 23.71C2.44658 23.8027 2.33576 23.876 2.21392 23.9257C2.09209 23.9755 1.96162 24.0007 1.83002 24Z" fill="#FDE8FF"/>
</g>
<defs>
<clipPath id="clip0_395_5264">
<rect width="24" height="24" fill="white"/>
</clipPath>
</defs>
</svg>
