<svg width="24" height="24" viewBox="0 0 24 24" fill="none" xmlns="http://www.w3.org/2000/svg">
<g clip-path="url(#clip0_395_5275)">
<path d="M17.2459 6.19301C18.2398 5.10476 18.8499 3.72086 18.9829 2.25301C19.0214 1.95033 18.9902 1.64284 18.8916 1.35408C18.793 1.06532 18.6297 0.80295 18.414 0.587049C18.1984 0.371148 17.9363 0.207442 17.6477 0.108464C17.359 0.0094849 17.0516 -0.0221426 16.7489 0.0160022C15.8384 0.087504 14.9543 0.355535 14.1574 0.801628C13.3605 1.24772 12.6698 1.86127 12.1329 2.60001C11.7929 1.74937 11.3122 0.962039 10.7109 0.271003C10.5243 0.0860312 10.2724 -0.0180701 10.0096 -0.018795C9.74687 -0.0195199 9.4944 0.0831899 9.30678 0.267129C9.11917 0.451068 9.01148 0.701456 9.007 0.964161C9.00252 1.22687 9.10162 1.48078 9.28286 1.671C10.2742 2.90543 10.8543 4.4192 10.9419 6.00001H8.49986C6.18076 6.07088 3.98422 7.05774 2.39113 8.74455C0.798036 10.4314 -0.0618024 12.6807 -0.000142817 15C-0.161143 20.6 5.64386 25.773 10.7499 23.385C11.1398 23.1371 11.5931 23.007 12.0552 23.0103C12.5173 23.0137 12.9686 23.1504 13.3549 23.404C14.0077 23.7815 14.7459 23.9866 15.4999 24C25.7639 23.716 27.0659 8.58201 17.2459 6.19301ZM14.2229 3.16801C14.9985 2.4897 15.9725 2.08004 16.9999 2V2C16.9179 3.02517 16.5088 3.99689 15.8329 4.77201C15.0565 5.44989 14.0824 5.85948 13.0549 5.94001C13.1361 4.91448 13.5457 3.94243 14.2229 3.16801V3.16801ZM15.4999 22C15.0592 21.9831 14.6305 21.8518 14.2559 21.619C13.5694 21.2226 12.7925 21.0094 11.9999 21C11.2494 21.0175 10.515 21.2212 9.86286 21.593C6.00486 23.261 1.89986 19.141 1.99986 15C1.93819 13.211 2.58733 11.4704 3.80536 10.1587C5.02339 8.84697 6.71122 8.07085 8.49986 8.00001H15.4999C24.0999 8.32101 24.0999 21.682 15.4999 22Z" fill="#FDE8FF"/>
</g>
<defs>
<clipPath id="clip0_395_5275">
<rect width="24" height="24" fill="white"/>
</clipPath>
</defs>
</svg>
