<svg width="24" height="24" viewBox="0 0 24 24" fill="none" xmlns="http://www.w3.org/2000/svg">
<g clip-path="url(#clip0_395_5277)">
<path d="M7 0H4C2.93913 0 1.92172 0.421427 1.17157 1.17157C0.421427 1.92172 0 2.93913 0 4L0 7C0 8.06087 0.421427 9.07828 1.17157 9.82843C1.92172 10.5786 2.93913 11 4 11H7C8.06087 11 9.07828 10.5786 9.82843 9.82843C10.5786 9.07828 11 8.06087 11 7V4C11 2.93913 10.5786 1.92172 9.82843 1.17157C9.07828 0.421427 8.06087 0 7 0V0ZM9 7C9 7.53043 8.78929 8.03914 8.41421 8.41421C8.03914 8.78929 7.53043 9 7 9H4C3.46957 9 2.96086 8.78929 2.58579 8.41421C2.21071 8.03914 2 7.53043 2 7V4C2 3.46957 2.21071 2.96086 2.58579 2.58579C2.96086 2.21071 3.46957 2 4 2H7C7.53043 2 8.03914 2.21071 8.41421 2.58579C8.78929 2.96086 9 3.46957 9 4V7Z" fill="#FDE8FF"/>
<path d="M7 13H4C2.93913 13 1.92172 13.4214 1.17157 14.1716C0.421427 14.9217 0 15.9391 0 17L0 20C0 21.0609 0.421427 22.0783 1.17157 22.8284C1.92172 23.5786 2.93913 24 4 24H7C8.06087 24 9.07828 23.5786 9.82843 22.8284C10.5786 22.0783 11 21.0609 11 20V17C11 15.9391 10.5786 14.9217 9.82843 14.1716C9.07828 13.4214 8.06087 13 7 13V13ZM9 20C9 20.5304 8.78929 21.0392 8.41421 21.4142C8.03914 21.7893 7.53043 22 7 22H4C3.46957 22 2.96086 21.7893 2.58579 21.4142C2.21071 21.0392 2 20.5304 2 20V17C2 16.4696 2.21071 15.9609 2.58579 15.5858C2.96086 15.2107 3.46957 15 4 15H7C7.53043 15 8.03914 15.2107 8.41421 15.5858C8.78929 15.9609 9 16.4696 9 17V20Z" fill="#FDE8FF"/>
<path d="M19.9997 13H16.9998C15.9389 13 14.9215 13.4214 14.1713 14.1716C13.4212 14.9217 12.9998 15.9391 12.9998 17V20C12.9998 21.0609 13.4212 22.0783 14.1713 22.8284C14.9215 23.5786 15.9389 24 16.9998 24H19.9997C21.0606 24 22.078 23.5786 22.8282 22.8284C23.5783 22.0783 23.9997 21.0609 23.9997 20V17C23.9997 15.9391 23.5783 14.9217 22.8282 14.1716C22.078 13.4214 21.0606 13 19.9997 13V13ZM21.9997 20C21.9997 20.5304 21.789 21.0392 21.414 21.4142C21.0389 21.7893 20.5302 22 19.9997 22H16.9998C16.4693 22 15.9606 21.7893 15.5855 21.4142C15.2105 21.0392 14.9998 20.5304 14.9998 20V17C14.9998 16.4696 15.2105 15.9609 15.5855 15.5858C15.9606 15.2107 16.4693 15 16.9998 15H19.9997C20.5302 15 21.0389 15.2107 21.414 15.5858C21.789 15.9609 21.9997 16.4696 21.9997 17V20Z" fill="#FDE8FF"/>
<path d="M13.9998 7H21.9998C22.265 7 22.5193 6.89464 22.7069 6.7071C22.8944 6.51957 22.9998 6.26521 22.9998 6C22.9998 5.73478 22.8944 5.48043 22.7069 5.29289C22.5193 5.10536 22.265 5 21.9998 5H13.9998C13.7345 5 13.4802 5.10536 13.2926 5.29289C13.1051 5.48043 12.9998 5.73478 12.9998 6C12.9998 6.26521 13.1051 6.51957 13.2926 6.7071C13.4802 6.89464 13.7345 7 13.9998 7V7Z" fill="#FDE8FF"/>
</g>
<defs>
<clipPath id="clip0_395_5277">
<rect width="24" height="24" fill="white"/>
</clipPath>
</defs>
</svg>
