<svg width="24" height="24" viewBox="0 0 24 24" fill="none" xmlns="http://www.w3.org/2000/svg">
<g clip-path="url(#clip0_395_5280)">
<path d="M17.0002 0H7.00024C5.67465 0.00158786 4.4038 0.528882 3.46646 1.46622C2.52913 2.40356 2.00183 3.6744 2.00024 5V19C2.00183 20.3256 2.52913 21.5964 3.46646 22.5338C4.4038 23.4711 5.67465 23.9984 7.00024 24H17.0002C18.3258 23.9984 19.5967 23.4711 20.534 22.5338C21.4714 21.5964 21.9987 20.3256 22.0002 19V5C21.9987 3.6744 21.4714 2.40356 20.534 1.46622C19.5967 0.528882 18.3258 0.00158786 17.0002 0V0ZM7.00024 2H17.0002C17.7959 2 18.559 2.31607 19.1216 2.87868C19.6842 3.44129 20.0002 4.20435 20.0002 5V11H4.00024V5C4.00024 4.20435 4.31631 3.44129 4.87892 2.87868C5.44153 2.31607 6.20459 2 7.00024 2V2ZM17.0002 22H7.00024C6.20459 22 5.44153 21.6839 4.87892 21.1213C4.31631 20.5587 4.00024 19.7956 4.00024 19V13H20.0002V19C20.0002 19.7956 19.6842 20.5587 19.1216 21.1213C18.559 21.6839 17.7959 22 17.0002 22Z" fill="#FDE8FF"/>
<path d="M10.9998 7H12.9998C13.265 7 13.5193 6.89464 13.7069 6.7071C13.8944 6.51957 13.9997 6.26521 13.9997 6C13.9997 5.73478 13.8944 5.48043 13.7069 5.29289C13.5193 5.10536 13.265 5 12.9998 5H10.9998C10.7345 5 10.4802 5.10536 10.2926 5.29289C10.1051 5.48043 9.99976 5.73478 9.99976 6C9.99976 6.26521 10.1051 6.51957 10.2926 6.7071C10.4802 6.89464 10.7345 7 10.9998 7V7Z" fill="#FDE8FF"/>
<path d="M12.9998 17H10.9998C10.7345 17 10.4802 17.1054 10.2926 17.2929C10.1051 17.4804 9.99976 17.7348 9.99976 18C9.99976 18.2652 10.1051 18.5196 10.2926 18.7071C10.4802 18.8947 10.7345 19 10.9998 19H12.9998C13.265 19 13.5193 18.8947 13.7069 18.7071C13.8944 18.5196 13.9997 18.2652 13.9997 18C13.9997 17.7348 13.8944 17.4804 13.7069 17.2929C13.5193 17.1054 13.265 17 12.9998 17Z" fill="#FDE8FF"/>
</g>
<defs>
<clipPath id="clip0_395_5280">
<rect width="24" height="24" fill="white"/>
</clipPath>
</defs>
</svg>
