<svg width="24" height="24" viewBox="0 0 24 24" fill="none" xmlns="http://www.w3.org/2000/svg">
<g clip-path="url(#clip0_395_5289)">
<path d="M6.00002 6.20998C6.18738 6.39623 6.44084 6.50077 6.70502 6.50077C6.96921 6.50077 7.22266 6.39623 7.41002 6.20998L11 2.57997V23C11 23.2652 11.1054 23.5196 11.2929 23.7071C11.4805 23.8946 11.7348 24 12 24C12.2652 24 12.5196 23.8946 12.7071 23.7071C12.8947 23.5196 13 23.2652 13 23V2.58997L16.62 6.20998C16.713 6.30371 16.8236 6.3781 16.9454 6.42887C17.0673 6.47964 17.198 6.50578 17.33 6.50578C17.462 6.50578 17.5927 6.47964 17.7146 6.42887C17.8365 6.3781 17.9471 6.30371 18.04 6.20998C18.2263 6.02261 18.3308 5.76916 18.3308 5.50498C18.3308 5.24079 18.2263 4.98734 18.04 4.79998L14.13 0.87997C13.5675 0.318168 12.805 0.00260925 12.01 0.00260925C11.215 0.00260925 10.4525 0.318168 9.89002 0.87997L6.00002 4.79998C5.81377 4.98734 5.70923 5.24079 5.70923 5.50498C5.70923 5.76916 5.81377 6.02261 6.00002 6.20998Z" fill="#FDE8FF"/>
</g>
<defs>
<clipPath id="clip0_395_5289">
<rect width="24" height="24" fill="white"/>
</clipPath>
</defs>
</svg>
