<svg width="24" height="24" viewBox="0 0 24 24" fill="none" xmlns="http://www.w3.org/2000/svg">
<path d="M18 22H13V2.823L17.3 7.123C17.4886 7.30515 17.7412 7.40595 18.0034 7.40367C18.2656 7.40139 18.5164 7.29622 18.7018 7.11081C18.8872 6.92541 18.9924 6.67459 18.9947 6.4124C18.997 6.1502 18.8962 5.8976 18.714 5.709L13.768 0.762999C13.5359 0.530782 13.2602 0.346575 12.9569 0.220897C12.6535 0.0952191 12.3284 0.0305328 12 0.0305328C11.6717 0.0305328 11.3465 0.0952191 11.0432 0.220897C10.7398 0.346575 10.4642 0.530782 10.232 0.762999L5.28201 5.713C5.0945 5.90103 4.98937 6.15586 4.98975 6.42141C4.99012 6.68696 5.09597 6.94149 5.28401 7.129C5.47205 7.3165 5.72687 7.42163 5.99242 7.42126C6.25798 7.42088 6.5125 7.31503 6.70001 7.127L11 2.827V22H6.00001C5.73479 22 5.48044 22.1053 5.2929 22.2929C5.10537 22.4804 5.00001 22.7348 5.00001 23C5.00001 23.2652 5.10537 23.5196 5.2929 23.7071C5.48044 23.8946 5.73479 24 6.00001 24H18C18.2652 24 18.5196 23.8946 18.7071 23.7071C18.8947 23.5196 19 23.2652 19 23C19 22.7348 18.8947 22.4804 18.7071 22.2929C18.5196 22.1053 18.2652 22 18 22Z" fill="#FDE8FF"/>
</svg>
