<svg width="24" height="24" viewBox="0 0 24 24" fill="none" xmlns="http://www.w3.org/2000/svg">
<g clip-path="url(#clip0_395_5290)">
<path d="M20.5367 12.7L19.4067 12L20.5377 11.3C21.323 10.8331 21.9311 10.1188 22.2667 9.26902C22.4768 8.70716 22.5551 8.10458 22.4956 7.5077C22.4361 6.91081 22.2403 6.33555 21.9235 5.82623C21.6066 5.31691 21.177 4.88713 20.6679 4.57C20.1587 4.25286 19.5836 4.05683 18.9867 3.99702C18.0761 3.92253 17.1665 4.15257 16.4007 4.65102L15.9997 4.90002V4.17202C16.0166 3.15677 15.6576 2.17111 14.9918 1.4045C14.326 0.637889 13.4003 0.144443 12.3927 0.0190176C11.8369 -0.035851 11.2759 0.0262625 10.7456 0.20136C10.2153 0.376456 9.7275 0.660657 9.31368 1.03566C8.89987 1.41067 8.56916 1.86818 8.34285 2.37873C8.11655 2.88928 7.99966 3.44156 7.9997 4.00002V4.90002L7.5997 4.65002C6.83411 4.15016 5.92404 3.91904 5.01271 3.99302C4.41575 4.05231 3.84037 4.24789 3.33094 4.56467C2.82151 4.88146 2.39163 5.311 2.07443 5.82018C1.75723 6.32936 1.5612 6.90457 1.50143 7.50148C1.44166 8.0984 1.51976 8.70106 1.72971 9.26302C2.06534 10.113 2.67388 10.8275 3.45971 11.294L4.59271 12L3.4617 12.7C2.67641 13.1669 2.06828 13.8813 1.73271 14.731C1.52235 15.2933 1.44402 15.8964 1.50377 16.4938C1.56352 17.0912 1.75975 17.6668 2.07731 18.1763C2.39487 18.6858 2.82527 19.1155 3.33527 19.4322C3.84527 19.7489 4.42124 19.9442 5.01871 20.003C5.92735 20.0773 6.83498 19.8483 7.5997 19.352L7.9997 19.1V20C7.9997 21.0609 8.42113 22.0783 9.17128 22.8284C9.92142 23.5786 10.9388 24 11.9997 24C13.0606 24 14.078 23.5786 14.8281 22.8284C15.5783 22.0783 15.9997 21.0609 15.9997 20V19.1L16.3997 19.351C17.164 19.8477 18.0712 20.0773 18.9797 20.004C19.577 19.945 20.1527 19.7495 20.6625 19.4326C21.1722 19.1158 21.6024 18.686 21.9197 18.1766C22.2371 17.6671 22.4331 17.0916 22.4928 16.4943C22.5524 15.8971 22.474 15.2942 22.2637 14.732C21.9287 13.8823 21.3213 13.1676 20.5367 12.7V12.7ZM20.2257 17.118C19.957 17.5492 19.528 17.856 19.0331 17.971C18.5382 18.0859 18.018 17.9996 17.5867 17.731L15.5277 16.449C15.3762 16.3548 15.2021 16.3028 15.0237 16.2986C14.8453 16.2943 14.669 16.3378 14.5131 16.4246C14.3572 16.5114 14.2274 16.6384 14.1371 16.7923C14.0468 16.9463 13.9994 17.1216 13.9997 17.3V20C13.9997 20.5305 13.789 21.0392 13.4139 21.4142C13.0388 21.7893 12.5301 22 11.9997 22C11.4693 22 10.9606 21.7893 10.5855 21.4142C10.2104 21.0392 9.99971 20.5305 9.99971 20V17.3C9.99966 17.1217 9.95196 16.9467 9.86153 16.7931C9.7711 16.6394 9.64124 16.5127 9.4854 16.4261C9.32955 16.3395 9.15339 16.2962 8.97516 16.3006C8.79693 16.3049 8.62311 16.3569 8.4717 16.451L6.4127 17.735C6.19918 17.868 5.96155 17.9576 5.71339 17.9987C5.46523 18.0398 5.2114 18.0317 4.9664 17.9747C4.72139 17.9178 4.49 17.8131 4.28544 17.6667C4.08089 17.5203 3.90717 17.335 3.7742 17.1215C3.64124 16.908 3.55164 16.6704 3.51051 16.4222C3.46938 16.174 3.47753 15.9202 3.5345 15.6752C3.59147 15.4302 3.69614 15.1988 3.84253 14.9943C3.98893 14.7897 4.17418 14.616 4.38771 14.483L7.0127 12.849C7.15741 12.7593 7.27683 12.6342 7.35964 12.4854C7.44246 12.3367 7.48592 12.1693 7.48592 11.999C7.48592 11.8288 7.44246 11.6613 7.35964 11.5126C7.27683 11.3638 7.15741 11.2387 7.0127 11.149L4.38771 9.51602C3.95646 9.24749 3.64956 8.81864 3.5345 8.32383C3.41945 7.82901 3.50567 7.30876 3.7742 6.87752C4.04274 6.44628 4.47158 6.13937 4.9664 6.02432C5.46121 5.90926 5.98146 5.99549 6.4127 6.26402L8.4717 7.54602C8.6229 7.64002 8.79644 7.69195 8.97441 7.69646C9.15239 7.70096 9.32834 7.65787 9.48409 7.57164C9.63984 7.4854 9.76975 7.35915 9.86039 7.20592C9.95103 7.0527 9.99913 6.87805 9.99971 6.70002V4.10702C9.98891 3.62017 10.1497 3.14503 10.4539 2.76477C10.7581 2.38451 11.1864 2.12335 11.6637 2.02702C11.9508 1.9781 12.2451 1.99245 12.526 2.06908C12.8069 2.1457 13.0677 2.28276 13.2902 2.47065C13.5127 2.65855 13.6914 2.89276 13.814 3.15692C13.9365 3.42108 13.9999 3.70882 13.9997 4.00002V6.70002C13.9999 6.87822 14.0478 7.05312 14.1383 7.20663C14.2288 7.36014 14.3586 7.48668 14.5145 7.57315C14.6703 7.65962 14.8464 7.70289 15.0245 7.69847C15.2026 7.69405 15.3764 7.64211 15.5277 7.54802L17.5867 6.26702C17.8002 6.13406 18.0379 6.04445 18.286 6.00332C18.5342 5.9622 18.788 5.97035 19.033 6.02732C19.278 6.08429 19.5094 6.18895 19.714 6.33535C19.9185 6.48174 20.0922 6.66699 20.2252 6.88052C20.3582 7.09405 20.4478 7.33168 20.4889 7.57983C20.53 7.82799 20.5219 8.08182 20.4649 8.32683C20.4079 8.57184 20.3033 8.80322 20.1569 9.00778C20.0105 9.21234 19.8252 9.38605 19.6117 9.51902L16.9867 11.153C16.842 11.2427 16.7226 11.3678 16.6398 11.5166C16.557 11.6653 16.5135 11.8328 16.5135 12.003C16.5135 12.1733 16.557 12.3407 16.6398 12.4894C16.7226 12.6382 16.842 12.7633 16.9867 12.853L19.6117 14.487C19.8254 14.6198 20.0107 14.7934 20.1572 14.9979C20.3038 15.2024 20.4085 15.4337 20.4655 15.6787C20.5226 15.9237 20.5307 16.1776 20.4896 16.4258C20.4484 16.6739 20.3588 16.9115 20.2257 17.125V17.118Z" fill="#FDE8FF"/>
</g>
<defs>
<clipPath id="clip0_395_5290">
<rect width="24" height="24" fill="white"/>
</clipPath>
</defs>
</svg>
