<svg width="24" height="24" viewBox="0 0 24 24" fill="none" xmlns="http://www.w3.org/2000/svg">
<g clip-path="url(#clip0_395_5297)">
<path d="M24.0001 23C24.0001 23.2653 23.8948 23.5196 23.7073 23.7072C23.5197 23.8947 23.2654 24 23.0001 24H1.00015C0.73493 24 0.480576 23.8947 0.29304 23.7072C0.105504 23.5196 0.000146694 23.2653 0.000146694 23C0.000146694 22.7348 0.105504 22.4805 0.29304 22.2929C0.480576 22.1054 0.73493 22 1.00015 22H23.0001C23.2654 22 23.5197 22.1054 23.7073 22.2929C23.8948 22.4805 24.0001 22.7348 24.0001 23ZM0.291147 8.55204C0.075669 8.15237 -0.0241587 7.70055 0.00286712 7.24729C0.0298929 6.79403 0.182703 6.35728 0.444147 5.98604C0.871405 5.35916 1.44359 4.8446 2.11215 4.48604L9.61315 0.58204C10.3504 0.198671 11.1692 -0.0014801 12.0001 -0.0014801C12.8311 -0.0014801 13.6499 0.198671 14.3871 0.58204L21.8871 4.48904C22.5557 4.8476 23.1279 5.36216 23.5551 5.98904C23.8166 6.36028 23.9694 6.79703 23.9964 7.25029C24.0235 7.70355 23.9236 8.15537 23.7081 8.55504C23.4762 8.99387 23.1282 9.36064 22.7022 9.61543C22.2762 9.87021 21.7885 10.0032 21.2921 10H21.0001V18H22.0001C22.2654 18 22.5197 18.1054 22.7073 18.2929C22.8948 18.4805 23.0001 18.7348 23.0001 19C23.0001 19.2653 22.8948 19.5196 22.7073 19.7071C22.5197 19.8947 22.2654 20 22.0001 20H2.00015C1.73493 20 1.48058 19.8947 1.29304 19.7071C1.1055 19.5196 1.00015 19.2653 1.00015 19C1.00015 18.7348 1.1055 18.4805 1.29304 18.2929C1.48058 18.1054 1.73493 18 2.00015 18H3.00015V10H2.70815C2.21131 10.0031 1.72315 9.86975 1.29694 9.61441C0.870718 9.35906 0.522805 8.99158 0.291147 8.55204V8.55204ZM5.00015 18H8.00015V10H5.00015V18ZM10.0001 10V18H14.0001V10H10.0001ZM19.0001 10H16.0001V18H19.0001V10ZM2.06315 7.62504C2.12589 7.74072 2.21926 7.8369 2.33303 7.90304C2.4468 7.96919 2.57658 8.00275 2.70815 8.00004H21.2921C21.4237 8.00275 21.5535 7.96919 21.6673 7.90304C21.781 7.8369 21.8744 7.74072 21.9371 7.62504C21.9829 7.5486 22.005 7.46037 22.0007 7.37142C21.9964 7.28246 21.966 7.19675 21.9131 7.12504C21.6709 6.76495 21.3453 6.46858 20.9642 6.26104L13.4641 2.35404C13.0122 2.11946 12.5104 1.99701 12.0011 1.99701C11.4919 1.99701 10.9901 2.11946 10.5381 2.35404L3.03815 6.26104C2.65713 6.46925 2.33168 6.7659 2.08915 7.12604C2.03624 7.19745 2.00555 7.28287 2.00092 7.37162C1.9963 7.46037 2.01794 7.54852 2.06315 7.62504V7.62504Z" fill="#FDE8FF"/>
</g>
<defs>
<clipPath id="clip0_395_5297">
<rect width="24" height="24" fill="white"/>
</clipPath>
</defs>
</svg>
