<svg width="24" height="24" viewBox="0 0 24 24" fill="none" xmlns="http://www.w3.org/2000/svg">
<g clip-path="url(#clip0_395_5300)">
<path d="M12.0034 -0.00221252C5.36579 -0.00221252 -0.0151367 5.37871 -0.0151367 12.0163C-0.0151367 18.654 5.36579 24.0349 12.0034 24.0349C18.6411 24.0349 24.0219 18.654 24.0219 12.0163C24.0219 5.37871 18.6411 -0.00221252 12.0034 -0.00221252ZM21.9431 10.942L21.9381 10.938C20.0023 10.7372 18.168 9.97218 16.6631 8.73801L19.7331 5.66802C20.97 7.17191 21.7383 9.00562 21.9431 10.942ZM18.3151 4.25301L15.2491 7.32801C14.0146 5.82337 13.2495 3.98901 13.0492 2.05302C14.9816 2.25646 16.8123 3.02122 18.3151 4.25301ZM11.0531 2.04801C11.2626 4.51673 12.2352 6.85907 13.8361 8.75001L12.0001 10.586L5.67614 4.26201C7.20821 3.00533 9.08044 2.23448 11.0531 2.04801ZM4.26169 5.67655L4.25714 5.67201L4.26216 5.67599C4.26197 5.67618 4.26183 5.67637 4.26169 5.67655L10.5862 12L8.74918 13.837C6.85936 12.2354 4.51754 11.2623 2.04919 11.053C2.23529 9.08062 3.00568 7.20862 4.26169 5.67655ZM2.05716 13.058V13.054C3.99314 13.2544 5.8275 14.0194 7.33214 15.254L4.26216 18.324C3.0286 16.8217 2.26205 14.991 2.05716 13.058ZM5.68013 19.738L8.74613 16.668C9.98072 18.1726 10.7458 20.007 10.9461 21.943C9.01313 21.7381 7.18243 20.9715 5.68013 19.738ZM12.9472 21.952C12.7381 19.4833 11.7649 17.1411 10.1632 15.251L12.0001 13.414L18.3241 19.738C16.7923 20.9951 14.92 21.766 12.9472 21.952ZM19.7362 18.324L13.4141 12L15.2501 10.164C17.1405 11.7645 19.4821 12.7372 21.9501 12.947C21.7637 14.9197 20.9928 16.7919 19.7362 18.324Z" fill="#FDE8FF"/>
</g>
<defs>
<clipPath id="clip0_395_5300">
<rect width="24" height="24" fill="white"/>
</clipPath>
</defs>
</svg>
