<svg width="24" height="24" viewBox="0 0 24 24" fill="none" xmlns="http://www.w3.org/2000/svg">
<g clip-path="url(#clip0_395_5302)">
<path d="M19.4998 9H18.9998V7C18.9998 6.73478 18.8944 6.48043 18.7069 6.29289C18.5193 6.10535 18.265 6 17.9998 6C18.0125 5.29068 17.8315 4.59132 17.4762 3.97724C17.121 3.36315 16.605 2.85759 15.9838 2.515C15.2655 2.11522 14.4435 1.94099 13.6248 2.015C13.5232 2.0276 13.42 2.01369 13.3254 1.97461C13.2308 1.93553 13.1479 1.87262 13.0848 1.792C12.6495 1.2218 12.0845 0.763684 11.4367 0.455685C10.7888 0.147685 10.0768 -0.00130504 9.35987 0.0210883C8.64289 0.0434817 7.9416 0.236612 7.31425 0.58444C6.68689 0.932268 6.15157 1.42475 5.75276 2.021C4.7383 2.08208 3.78531 2.52768 3.08799 3.267C2.39066 4.00631 2.00148 4.9837 1.99976 6C1.73454 6 1.48019 6.10535 1.29265 6.29289C1.10511 6.48043 0.999756 6.73478 0.999756 7V19C1.00134 20.3256 1.52864 21.5964 2.46598 22.5338C3.40331 23.4711 4.67416 23.9984 5.99976 24H13.9998C15.3254 23.9984 16.5962 23.4711 17.5335 22.5338C18.4709 21.5964 18.9982 20.3256 18.9998 19H19.4998C20.428 19 21.3183 18.6312 21.9746 17.9749C22.631 17.3185 22.9998 16.4283 22.9998 15.5V12.5C22.9998 11.5717 22.631 10.6815 21.9746 10.0251C21.3183 9.36875 20.428 9 19.4998 9ZM5.99976 4C6.05727 4.00187 6.1145 4.0089 6.17076 4.021C6.38626 4.05604 6.60732 4.01958 6.80016 3.9172C6.99301 3.81482 7.14705 3.65214 7.23876 3.454C7.42159 3.06585 7.70124 2.7313 8.05079 2.48251C8.40035 2.23373 8.80805 2.0791 9.23467 2.0335C9.66129 1.98789 10.0925 2.05285 10.4867 2.22212C10.881 2.39139 11.225 2.65927 11.4858 3C11.7537 3.35596 12.1095 3.63632 12.5182 3.81369C12.927 3.99107 13.3747 4.0594 13.8178 4.012C14.2449 3.97835 14.6724 4.0727 15.0458 4.283C15.3433 4.45824 15.5887 4.70981 15.7564 5.01168C15.9241 5.31355 16.0081 5.65476 15.9998 6H11.9998C11.2041 6 10.441 6.31607 9.87844 6.87868C9.31583 7.44128 8.99976 8.20435 8.99976 9V12C8.99976 12.2652 8.8944 12.5196 8.70686 12.7071C8.51933 12.8946 8.26497 13 7.99976 13C7.73454 13 7.48019 12.8946 7.29265 12.7071C7.10511 12.5196 6.99976 12.2652 6.99976 12V9C6.99976 8.20435 6.68369 7.44128 6.12108 6.87868C5.55847 6.31607 4.79541 6 3.99976 6C3.99976 5.46956 4.21047 4.96085 4.58554 4.58578C4.96061 4.21071 5.46932 4 5.99976 4V4ZM16.9998 19C16.9998 19.7956 16.6837 20.5587 16.1211 21.1213C15.5585 21.6839 14.7954 22 13.9998 22H5.99976C5.20411 22 4.44104 21.6839 3.87844 21.1213C3.31583 20.5587 2.99976 19.7956 2.99976 19V8H3.99976C4.26497 8 4.51933 8.10535 4.70686 8.29289C4.8944 8.48043 4.99976 8.73478 4.99976 9V12C4.99976 12.7956 5.31583 13.5587 5.87844 14.1213C6.44104 14.6839 7.20411 15 7.99976 15C8.79541 15 9.55847 14.6839 10.1211 14.1213C10.6837 13.5587 10.9998 12.7956 10.9998 12V9C10.9998 8.73478 11.1051 8.48043 11.2926 8.29289C11.4802 8.10535 11.7345 8 11.9998 8H16.9998V19ZM20.9998 15.5C20.9998 15.8978 20.8417 16.2794 20.5604 16.5607C20.2791 16.842 19.8976 17 19.4998 17H18.9998V11H19.4998C19.8976 11 20.2791 11.158 20.5604 11.4393C20.8417 11.7206 20.9998 12.1022 20.9998 12.5V15.5Z" fill="#FDE8FF"/>
</g>
<defs>
<clipPath id="clip0_395_5302">
<rect width="24" height="24" fill="white"/>
</clipPath>
</defs>
</svg>
