<svg width="24" height="24" viewBox="0 0 24 24" fill="none" xmlns="http://www.w3.org/2000/svg">
<g clip-path="url(#clip0_395_5304)">
<path d="M10.0003 8.00006C10.3958 8.00006 10.7825 8.11735 11.1114 8.33712C11.4403 8.55688 11.6966 8.86924 11.848 9.23469C11.9994 9.60014 12.039 10.0023 11.9618 10.3902C11.8847 10.7782 11.6942 11.1346 11.4145 11.4143C11.1348 11.694 10.7784 11.8845 10.3904 11.9616C10.0025 12.0388 9.60035 11.9992 9.23489 11.8478C8.86944 11.6964 8.55708 11.4401 8.33732 11.1112C8.11756 10.7823 8.00026 10.3956 8.00026 10.0001C8.00026 9.46962 8.21097 8.96092 8.58605 8.58584C8.96112 8.21077 9.46983 8.00006 10.0003 8.00006V8.00006ZM24.0003 10.0001C23.9902 13.2937 22.8412 16.4824 20.7481 19.0254C18.6549 21.5684 15.7465 23.309 12.5163 23.9521C12.0885 24.0302 11.6487 24.0128 11.2285 23.9011C10.8082 23.7895 10.4178 23.5863 10.0853 23.3061C9.74561 23.0232 9.47234 22.6691 9.28483 22.2689C9.09732 21.8686 9.00017 21.432 9.00026 20.9901V19.9491C7.31744 19.7811 5.70472 19.189 4.31292 18.2283C2.92111 17.2676 1.7957 15.9696 1.04191 14.4557C0.288123 12.9418 -0.0694046 11.2614 0.0027626 9.57179C0.0749298 7.88215 0.574434 6.23842 1.45456 4.7943C2.33469 3.35019 3.56669 2.15287 5.03534 1.31433C6.504 0.475791 8.16132 0.0234183 9.85234 -0.000481292C11.5433 -0.0243808 13.2128 0.380974 14.7046 1.17767C16.1963 1.97437 17.4617 3.13639 18.3823 4.55506C18.4539 4.6655 18.5031 4.78897 18.527 4.91842C18.5509 5.04787 18.5491 5.18076 18.5217 5.30951C18.4942 5.43825 18.4417 5.56034 18.3671 5.66879C18.2925 5.77723 18.1972 5.86992 18.0868 5.94156C17.9763 6.01319 17.8528 6.06237 17.7234 6.08629C17.594 6.11021 17.4611 6.1084 17.3323 6.08096C17.2036 6.05352 17.0815 6.00099 16.973 5.92637C16.8646 5.85175 16.7719 5.7565 16.7003 5.64606C15.7611 4.19845 14.3791 3.0933 12.7604 2.49549C11.1417 1.89768 9.37314 1.83927 7.71853 2.32897C6.06392 2.81867 4.612 3.83023 3.5794 5.21272C2.5468 6.5952 1.98887 8.2745 1.98887 10.0001C1.98887 11.7256 2.5468 13.4049 3.5794 14.7874C4.612 16.1699 6.06392 17.1814 7.71853 17.6711C9.37314 18.1608 11.1417 18.1024 12.7604 17.5046C14.3791 16.9068 15.7611 15.8017 16.7003 14.3541C16.7719 14.2439 16.8645 14.149 16.9728 14.0747C17.0812 14.0004 17.2031 13.9481 17.3316 13.9209C17.4601 13.8937 17.5927 13.8921 17.7219 13.9161C17.851 13.9402 17.9741 13.9894 18.0843 14.0611C18.1944 14.1327 18.2893 14.2253 18.3636 14.3336C18.4379 14.442 18.4902 14.5639 18.5174 14.6924C18.5446 14.8209 18.5462 14.9535 18.5222 15.0827C18.4981 15.2118 18.4489 15.3349 18.3773 15.4451C17.5637 16.6995 16.4781 17.7548 15.2011 18.5324C13.924 19.31 12.4882 19.7901 11.0003 19.9371V20.9901C11.0004 21.1392 11.0333 21.2865 11.0967 21.4215C11.1602 21.5564 11.2525 21.6758 11.3673 21.7711C11.4748 21.8634 11.6017 21.9305 11.7386 21.9674C11.8755 22.0043 12.0189 22.01 12.1583 21.9841C14.4347 21.5328 16.535 20.4413 18.2126 18.8376C19.8901 17.234 21.0751 15.1849 21.6283 12.9311C21.422 12.9764 21.2115 12.9996 21.0003 13.0001C20.4069 13.0001 19.8269 12.8241 19.3336 12.4945C18.8402 12.1648 18.4557 11.6963 18.2286 11.1481C18.0016 10.5999 17.9421 9.99673 18.0579 9.41479C18.1737 8.83284 18.4594 8.29829 18.8789 7.87874C19.2985 7.45918 19.833 7.17346 20.415 7.0577C20.9969 6.94194 21.6001 7.00135 22.1483 7.22842C22.6965 7.45548 23.165 7.84 23.4947 8.33335C23.8243 8.82669 24.0003 9.40671 24.0003 10.0001V10.0001ZM22.0003 10.0001C22.0003 9.80227 21.9416 9.60893 21.8317 9.44449C21.7219 9.28004 21.5657 9.15186 21.3829 9.07618C21.2002 9.00049 20.9992 8.98069 20.8052 9.01927C20.6112 9.05786 20.433 9.1531 20.2932 9.29295C20.1533 9.4328 20.0581 9.61098 20.0195 9.80497C19.9809 9.99895 20.0007 10.2 20.0764 10.3827C20.1521 10.5655 20.2802 10.7216 20.4447 10.8315C20.6091 10.9414 20.8025 11.0001 21.0003 11.0001C21.2655 11.0001 21.5198 10.8947 21.7074 10.7072C21.8949 10.5196 22.0003 10.2653 22.0003 10.0001Z" fill="#FDE8FF"/>
</g>
<defs>
<clipPath id="clip0_395_5304">
<rect width="24" height="24" fill="white"/>
</clipPath>
</defs>
</svg>
