<svg width="24" height="24" viewBox="0 0 24 24" fill="none" xmlns="http://www.w3.org/2000/svg">
<g clip-path="url(#clip0_395_5303)">
<path d="M20.8589 15.331L17.0869 21.486C16.6727 22.166 16.1088 22.7426 15.4382 23.1718C14.7676 23.601 14.0079 23.8717 13.2169 23.963C13.0085 23.9878 12.7988 24.0001 12.5889 24C11.5144 23.9986 10.4666 23.665 9.58894 23.045C8.68199 23.7245 7.56167 24.0566 6.43095 23.9812C5.30022 23.9059 4.2339 23.4279 3.42518 22.6341C2.61647 21.8403 2.11885 20.783 2.0225 19.6539C1.92614 18.5247 2.23742 17.3984 2.89994 16.479L1.58494 15.166C1.02343 14.6045 0.596253 13.9232 0.335389 13.1732C0.0745246 12.4231 -0.0132627 11.6238 0.0786013 10.835C0.170465 10.0462 0.4396 9.28844 0.865849 8.61842C1.2921 7.9484 1.86441 7.38351 2.53994 6.96604L8.30694 3.40004C9.86915 2.39881 11.7063 1.91339 13.5592 2.01225C15.4121 2.11111 17.1871 2.78927 18.6339 3.95104L20.2929 2.29204C20.3852 2.19653 20.4955 2.12034 20.6175 2.06793C20.7395 2.01553 20.8708 1.98794 21.0035 1.98679C21.1363 1.98563 21.268 2.01093 21.3909 2.06121C21.5138 2.1115 21.6254 2.18575 21.7193 2.27964C21.8132 2.37353 21.8875 2.48519 21.9378 2.60808C21.988 2.73098 22.0133 2.86266 22.0122 2.99544C22.011 3.12822 21.9834 3.25944 21.931 3.38144C21.8786 3.50344 21.8024 3.61379 21.7069 3.70604L20.0499 5.36404C21.1613 6.75628 21.8319 8.44846 21.976 10.224C22.1202 11.9996 21.7312 13.7778 20.8589 15.331V15.331ZM8.06494 21.647L4.34594 17.927C4.05531 18.4468 3.94322 19.0475 4.02686 19.6371C4.11049 20.2267 4.38523 20.7726 4.80894 21.191C5.23636 21.597 5.78001 21.8593 6.36383 21.941C6.94765 22.0228 7.54243 21.92 8.06494 21.647V21.647ZM17.9859 6.04704C16.8755 4.92588 15.4137 4.22006 13.8451 4.04768C12.2766 3.87529 10.6964 4.2468 9.36894 5.10004L3.59194 8.66604C3.17298 8.925 2.81804 9.2754 2.55369 9.69099C2.28935 10.1066 2.12246 10.5766 2.06551 11.0658C2.00857 11.555 2.06304 12.0508 2.22487 12.516C2.38669 12.9812 2.65166 13.4038 2.99994 13.752L10.2899 21.043C10.6388 21.3923 11.0623 21.6579 11.5285 21.8198C11.9948 21.9818 12.4917 22.036 12.982 21.9782C13.4722 21.9205 13.9429 21.7523 14.3588 21.4864C14.7746 21.2205 15.1248 20.8638 15.3829 20.443L19.1379 14.318C19.8714 13.0008 20.1556 11.4804 19.9478 9.98713C19.7399 8.49385 19.0512 7.10893 17.9859 6.04204V6.04704ZM19.2649 24C19.0537 24.0004 18.8479 23.9339 18.6768 23.8101C18.5057 23.6863 18.3782 23.5115 18.3126 23.3107C18.247 23.11 18.2466 22.8936 18.3115 22.6927C18.3764 22.4917 18.5033 22.3165 18.6739 22.192C20.4249 20.8756 21.61 18.9427 21.9889 16.785C22.0155 16.6551 22.0676 16.5318 22.1423 16.4223C22.217 16.3127 22.3127 16.2191 22.4239 16.1469C22.535 16.0747 22.6595 16.0253 22.7899 16.0016C22.9203 15.9779 23.0542 15.9803 23.1837 16.0089C23.3131 16.0374 23.4357 16.0913 23.5441 16.1676C23.6525 16.2439 23.7447 16.341 23.8153 16.4532C23.8858 16.5655 23.9334 16.6906 23.9551 16.8214C23.9768 16.9522 23.9724 17.086 23.9419 17.215C23.4519 19.8467 21.9933 22.1991 19.8539 23.808C19.6829 23.9328 19.4766 24 19.2649 24ZM0.999937 5.73904C0.81524 5.73821 0.634379 5.68625 0.477408 5.58892C0.320438 5.49159 0.19349 5.35268 0.110642 5.1876C0.0277933 5.02253 -0.00771885 4.83773 0.00804285 4.65371C0.0238045 4.46968 0.0902242 4.29362 0.199937 4.14504C1.83092 1.96562 4.23176 0.490358 6.91294 0.0200361C7.17285 -0.0330072 7.44319 0.0193717 7.66448 0.16565C7.88577 0.311928 8.03989 0.540124 8.09294 0.800036C8.14598 1.05995 8.0936 1.33029 7.94732 1.55158C7.80104 1.77287 7.57285 1.92699 7.31294 1.98004C5.11091 2.34366 3.13517 3.54566 1.79994 5.33404C1.70731 5.45915 1.58676 5.56092 1.44788 5.63123C1.30899 5.70154 1.15561 5.73846 0.999937 5.73904V5.73904Z" fill="#FDE8FF"/>
</g>
<defs>
<clipPath id="clip0_395_5303">
<rect width="24" height="24" fill="white"/>
</clipPath>
</defs>
</svg>
