<svg width="24" height="24" viewBox="0 0 24 24" fill="none" xmlns="http://www.w3.org/2000/svg">
<path d="M19.783 12.079C19.619 11.493 19.434 10.873 19.228 10.206C18.618 8.52425 18.2058 6.77715 18 5.00003C18 4.73481 18.1053 4.48046 18.2929 4.29292C18.4804 4.10539 18.7348 4.00003 19 4.00003C19.2652 4.00003 19.5196 4.10539 19.7071 4.29292C19.8946 4.48046 20 4.73481 20 5.00003C20 5.26525 20.1053 5.5196 20.2929 5.70714C20.4804 5.89467 20.7348 6.00003 21 6.00003C21.2652 6.00003 21.5196 5.89467 21.7071 5.70714C21.8946 5.5196 22 5.26525 22 5.00003C22 4.20438 21.6839 3.44132 21.1213 2.87871C20.5587 2.3161 19.7956 2.00003 19 2.00003C18.2043 2.00003 17.4413 2.3161 16.8787 2.87871C16.3161 3.44132 16 4.20438 16 5.00003C16.0248 5.76363 16.1317 6.52234 16.319 7.26303L11.519 11L5.97099 7.00003H8.99999C9.26521 7.00003 9.51956 6.89467 9.7071 6.70714C9.89464 6.5196 9.99999 6.26525 9.99999 6.00003C9.99999 5.73481 9.89464 5.48046 9.7071 5.29292C9.51956 5.10539 9.26521 5.00003 8.99999 5.00003H5.97099C5.55556 4.9999 5.15073 5.13118 4.81442 5.37508C4.47812 5.61897 4.22757 5.96299 4.09864 6.35791C3.9697 6.75283 3.96897 7.17841 4.09656 7.57376C4.22415 7.96912 4.47352 8.31399 4.80899 8.55903L9.87999 12.271L8.44199 13.39C7.54878 12.5491 6.3753 12.0694 5.14876 12.044C3.92222 12.0186 2.72986 12.4491 1.80256 13.2524C0.875252 14.0556 0.278961 15.1743 0.129136 16.3919C-0.0206882 17.6095 0.286611 18.8394 0.991537 19.8435C1.69646 20.8476 2.74887 21.5544 3.94499 21.827C5.14111 22.0997 6.39586 21.9188 7.4663 21.3195C8.53673 20.7201 9.34671 19.7449 9.7394 18.5827C10.1321 17.4204 10.0796 16.1538 9.59199 15.028L16.881 9.35903C17.022 9.83503 17.608 11.743 17.737 12.182C16.5417 12.4941 15.5045 13.2381 14.8258 14.2703C14.1471 15.3026 13.8751 16.5497 14.0623 17.7708C14.2495 18.9919 14.8826 20.1002 15.8393 20.8817C16.7961 21.6632 18.0085 22.0624 19.2424 22.0021C20.4763 21.9418 21.644 21.4263 22.52 20.5552C23.396 19.6841 23.918 18.5193 23.9852 17.2858C24.0524 16.0523 23.6601 14.8376 22.8839 13.8765C22.1078 12.9154 21.003 12.2761 19.783 12.082V12.079ZM4.99999 20C4.40665 20 3.82663 19.8241 3.33328 19.4944C2.83993 19.1648 2.45542 18.6963 2.22835 18.1481C2.00129 17.5999 1.94188 16.9967 2.05764 16.4148C2.17339 15.8328 2.45911 15.2983 2.87867 14.8787C3.29823 14.4592 3.83278 14.1734 4.41472 14.0577C4.99666 13.9419 5.59986 14.0013 6.14804 14.2284C6.69622 14.4555 7.16476 14.84 7.4944 15.3333C7.82404 15.8267 7.99999 16.4067 7.99999 17C7.99999 17.7957 7.68392 18.5587 7.12131 19.1214C6.5587 19.684 5.79564 20 4.99999 20ZM19 20C18.4066 20 17.8266 19.8241 17.3333 19.4944C16.8399 19.1648 16.4554 18.6963 16.2284 18.1481C16.0013 17.5999 15.9419 16.9967 16.0576 16.4148C16.1734 15.8328 16.4591 15.2983 16.8787 14.8787C17.2982 14.4592 17.8328 14.1734 18.4147 14.0577C18.9967 13.9419 19.5999 14.0013 20.148 14.2284C20.6962 14.4555 21.1648 14.84 21.4944 15.3333C21.824 15.8267 22 16.4067 22 17C22 17.7957 21.6839 18.5587 21.1213 19.1214C20.5587 19.684 19.7956 20 19 20Z" fill="#FDE8FF"/>
</svg>
