<svg width="24" height="24" viewBox="0 0 24 24" fill="none" xmlns="http://www.w3.org/2000/svg">
<g clip-path="url(#clip0_395_5317)">
<path d="M23.715 2.28489C23.5251 2.09571 23.268 1.98949 23 1.98949C22.732 1.98949 22.4749 2.09571 22.285 2.28489L17.521 7.04888L17.201 6.73588C16.3573 5.91184 15.2499 5.41197 14.0738 5.32435C12.8977 5.23672 11.7285 5.56696 10.772 6.25689C9.39154 7.29788 7.85708 8.11707 6.224 8.68488L4.15 9.29288C3.47605 9.49072 2.85093 9.82735 2.31482 10.2811C1.7787 10.7349 1.34344 11.2959 1.037 11.9279C0.735606 12.5513 0.567738 13.2308 0.544147 13.9229C0.520555 14.615 0.64176 15.3044 0.9 15.9469C1.87878 18.3496 3.55671 20.403 5.71632 21.8408C7.87593 23.2787 10.4176 24.0347 13.012 24.0109H13.936C14.1427 24.0107 14.3445 23.9472 14.514 23.8289C16.2742 22.6799 17.7785 21.1803 18.9331 19.4237C20.0876 17.6672 20.8675 15.6914 21.224 13.6199C21.348 12.8278 21.2808 12.0175 21.0281 11.2566C20.7753 10.4958 20.3443 9.80634 19.771 9.24588L18.971 8.46188L23.718 3.71489C23.9068 3.52462 24.0125 3.2673 24.0119 2.99927C24.0113 2.73124 23.9046 2.47436 23.715 2.28489V2.28489ZM13.608 21.9849H13.008C11.5304 21.9869 10.0668 21.6991 8.7 21.1379L8.711 21.1319C10.4599 20.2543 11.9571 18.9468 13.062 17.3319L13.58 16.5709C13.7309 16.3494 13.7877 16.0771 13.7378 15.8138C13.6879 15.5505 13.5355 15.3178 13.314 15.1669C13.0925 15.016 12.8202 14.9592 12.5569 15.0091C12.2936 15.059 12.0609 15.2114 11.91 15.4329L11.392 16.1939C10.4792 17.5255 9.24326 18.6035 7.8 19.3269L6.549 19.9569C5.54812 19.2533 4.67459 18.3842 3.966 17.3869C5.60498 16.8355 7.1003 15.9254 8.343 14.7229C8.53475 14.5354 8.64416 14.2794 8.64716 14.0112C8.65016 13.743 8.54651 13.4846 8.359 13.2929C8.17149 13.1011 7.91549 12.9917 7.64731 12.9887C7.37914 12.9857 7.12075 13.0894 6.929 13.2769C5.80989 14.3612 4.44403 15.1574 2.949 15.5969C2.888 15.4619 2.822 15.3299 2.767 15.1909C2.61212 14.8105 2.53962 14.4017 2.55427 13.9913C2.56892 13.5809 2.6704 13.1782 2.852 12.8099C3.03585 12.4317 3.29659 12.096 3.61755 11.8243C3.93851 11.5525 4.31263 11.3508 4.716 11.2319L6.789 10.6239C7.99195 10.2374 9.14264 9.70407 10.215 9.03588L18.13 16.7479C17.0784 18.8413 15.5248 20.6419 13.608 21.9889V21.9849ZM19.228 13.3019C19.1516 13.7697 19.0484 14.2328 18.919 14.6889L11.948 7.89988C12.4594 7.53232 13.0732 7.33436 13.703 7.33388C14.4821 7.3329 15.2304 7.63776 15.787 8.18288L18.356 10.6919C18.699 11.0267 18.957 11.4386 19.1087 11.8932C19.2604 12.3479 19.3013 12.8322 19.228 13.3059V13.3019Z" fill="#FDE8FF"/>
</g>
<defs>
<clipPath id="clip0_395_5317">
<rect width="24" height="24" fill="white"/>
</clipPath>
</defs>
</svg>
