<svg width="24" height="24" viewBox="0 0 24 24" fill="none" xmlns="http://www.w3.org/2000/svg">
<g clip-path="url(#clip0_395_5318)">
<path d="M19 1.00007H5C3.6744 1.00166 2.40356 1.52895 1.46622 2.46629C0.528882 3.40363 0.00158786 4.67447 0 6.00007L0 18.0001C0.00158786 19.3257 0.528882 20.5965 1.46622 21.5338C2.40356 22.4712 3.6744 22.9985 5 23.0001H19C20.3256 22.9985 21.5964 22.4712 22.5338 21.5338C23.4711 20.5965 23.9984 19.3257 24 18.0001V6.00007C23.9984 4.67447 23.4711 3.40363 22.5338 2.46629C21.5964 1.52895 20.3256 1.00166 19 1.00007V1.00007ZM5 3.00007H19C19.7956 3.00007 20.5587 3.31614 21.1213 3.87875C21.6839 4.44136 22 5.20442 22 6.00007V7.00007H2V6.00007C2 5.20442 2.31607 4.44136 2.87868 3.87875C3.44129 3.31614 4.20435 3.00007 5 3.00007V3.00007ZM19 21.0001H5C4.20435 21.0001 3.44129 20.684 2.87868 20.1214C2.31607 19.5588 2 18.7957 2 18.0001V9.00007H22V18.0001C22 18.7957 21.6839 19.5588 21.1213 20.1214C20.5587 20.684 19.7956 21.0001 19 21.0001ZM19 13.0001C19 13.2653 18.8946 13.5196 18.7071 13.7072C18.5196 13.8947 18.2652 14.0001 18 14.0001H6C5.73478 14.0001 5.48043 13.8947 5.29289 13.7072C5.10536 13.5196 5 13.2653 5 13.0001C5 12.7349 5.10536 12.4805 5.29289 12.293C5.48043 12.1054 5.73478 12.0001 6 12.0001H18C18.2652 12.0001 18.5196 12.1054 18.7071 12.293C18.8946 12.4805 19 12.7349 19 13.0001ZM15 17.0001C15 17.2653 14.8946 17.5196 14.7071 17.7072C14.5196 17.8947 14.2652 18.0001 14 18.0001H6C5.73478 18.0001 5.48043 17.8947 5.29289 17.7072C5.10536 17.5196 5 17.2653 5 17.0001C5 16.7349 5.10536 16.4805 5.29289 16.293C5.48043 16.1054 5.73478 16.0001 6 16.0001H14C14.2652 16.0001 14.5196 16.1054 14.7071 16.293C14.8946 16.4805 15 16.7349 15 17.0001ZM3 5.00007C3 4.80229 3.05865 4.60895 3.16853 4.4445C3.27841 4.28005 3.43459 4.15188 3.61732 4.07619C3.80004 4.0005 4.00111 3.9807 4.19509 4.01928C4.38907 4.05787 4.56725 4.15311 4.70711 4.29296C4.84696 4.43281 4.9422 4.611 4.98079 4.80498C5.01937 4.99896 4.99957 5.20003 4.92388 5.38275C4.84819 5.56548 4.72002 5.72166 4.55557 5.83154C4.39112 5.94142 4.19778 6.00007 4 6.00007C3.73478 6.00007 3.48043 5.89471 3.29289 5.70718C3.10536 5.51964 3 5.26529 3 5.00007ZM6 5.00007C6 4.80229 6.05865 4.60895 6.16853 4.4445C6.27841 4.28005 6.43459 4.15188 6.61732 4.07619C6.80004 4.0005 7.00111 3.9807 7.19509 4.01928C7.38907 4.05787 7.56725 4.15311 7.70711 4.29296C7.84696 4.43281 7.9422 4.611 7.98079 4.80498C8.01937 4.99896 7.99957 5.20003 7.92388 5.38275C7.84819 5.56548 7.72002 5.72166 7.55557 5.83154C7.39112 5.94142 7.19778 6.00007 7 6.00007C6.73478 6.00007 6.48043 5.89471 6.29289 5.70718C6.10536 5.51964 6 5.26529 6 5.00007ZM9 5.00007C9 4.80229 9.05865 4.60895 9.16853 4.4445C9.27841 4.28005 9.43459 4.15188 9.61732 4.07619C9.80004 4.0005 10.0011 3.9807 10.1951 4.01928C10.3891 4.05787 10.5673 4.15311 10.7071 4.29296C10.847 4.43281 10.9422 4.611 10.9808 4.80498C11.0194 4.99896 10.9996 5.20003 10.9239 5.38275C10.8482 5.56548 10.72 5.72166 10.5556 5.83154C10.3911 5.94142 10.1978 6.00007 10 6.00007C9.73478 6.00007 9.48043 5.89471 9.29289 5.70718C9.10536 5.51964 9 5.26529 9 5.00007Z" fill="#FDE8FF"/>
</g>
<defs>
<clipPath id="clip0_395_5318">
<rect width="24" height="24" fill="white"/>
</clipPath>
</defs>
</svg>
