<svg width="24" height="24" viewBox="0 0 24 24" fill="none" xmlns="http://www.w3.org/2000/svg">
<g clip-path="url(#clip0_395_5323)">
<path d="M21.4999 12.932C23.0389 11.4481 23.9362 9.42093 23.9999 7.28399C23.9999 1.62999 21.2329 1.01999 20.0439 1.01999C17.0759 1.01999 14.1599 3.91999 12.0029 6.54099C9.86187 3.94199 6.93687 1.01999 3.96088 1.01999C-0.188118 0.759992 -1.70612 9.09099 2.50588 12.933C2.68188 13.107 2.86488 13.27 3.04988 13.423C2.16929 14.2671 1.54176 15.3403 1.23789 16.5216C0.934026 17.703 0.965883 18.9457 1.32988 20.11C1.49803 20.6829 1.7917 21.2112 2.18954 21.6564C2.58738 22.1017 3.07941 22.4527 3.62988 22.684C4.16379 22.9124 4.74185 23.0192 5.32214 22.9965C5.90242 22.9739 6.47039 22.8224 6.98487 22.553C8.46458 21.7856 9.8185 20.7969 10.9999 19.621V22C10.9999 22.2652 11.1052 22.5196 11.2928 22.7071C11.4803 22.8946 11.7347 23 11.9999 23C12.2651 23 12.5194 22.8946 12.707 22.7071C12.8945 22.5196 12.9999 22.2652 12.9999 22V19.621C14.1819 20.7972 15.5369 21.7856 17.0179 22.552C17.5322 22.8217 18.1002 22.9735 18.6805 22.9963C19.2608 23.0192 19.8389 22.9125 20.3729 22.684C20.9232 22.4527 21.4151 22.1018 21.8129 21.6568C22.2108 21.2117 22.5045 20.6837 22.6729 20.111C23.0491 18.9453 23.0919 17.6975 22.7962 16.5088C22.5006 15.32 21.8784 14.2377 20.9999 13.384C21.1709 13.242 21.3379 13.092 21.4999 12.932ZM10.9999 15.636C10.9999 17.114 8.91987 19.278 6.05287 20.782C5.80067 20.9156 5.52149 20.9905 5.23626 21.0009C4.95102 21.0113 4.66713 20.9569 4.40588 20.842C4.12841 20.7249 3.88051 20.5475 3.6802 20.3226C3.47989 20.0978 3.33221 19.8311 3.24788 19.542C2.96056 18.643 2.95671 17.6774 3.23685 16.7762C3.51699 15.8749 4.06756 15.0817 4.81388 14.504C5.57082 14.8251 6.38368 14.9936 7.20587 15C8.50487 15.0178 9.79449 14.7775 10.9999 14.293V15.636ZM10.9999 11.985C9.86839 12.7243 8.52912 13.0802 7.17987 13C6.56231 12.9861 5.954 12.8469 5.39188 12.5908C4.82976 12.3346 4.32556 11.9669 3.90988 11.51C2.75736 10.398 2.077 8.8851 2.00988 7.28499C2.00988 4.57499 2.72288 3.02099 3.96488 3.02099C5.74588 3.01999 8.10587 4.85799 10.9999 8.49099V11.985ZM12.9999 8.49999C15.8799 4.86999 18.2519 3.01999 20.0439 3.01999C21.2869 3.01999 21.9999 4.57399 21.9999 7.28399C21.9325 8.88405 21.2522 10.3969 20.0999 11.509C19.2607 12.4108 18.1005 12.9464 16.8699 13C15.5042 13.08 14.1487 12.7227 12.9999 11.98V8.49999ZM20.7519 19.548C20.6677 19.8372 20.52 20.1039 20.3197 20.3288C20.1194 20.5537 19.8714 20.7311 19.5939 20.848C19.3325 20.9627 19.0486 21.0168 18.7634 21.0063C18.4781 20.9957 18.199 20.9207 17.9469 20.787C15.0799 19.278 12.9999 17.114 12.9999 15.636V14.291C14.207 14.777 15.4987 15.018 16.7999 15C17.6343 14.9977 18.4593 14.8241 19.2239 14.49C19.9743 15.0674 20.5252 15.8653 20.7992 16.7717C21.0732 17.6781 21.0567 18.6475 20.7519 19.544V19.548ZM9.99987 1.99999C9.99987 1.46956 10.2106 0.960852 10.5857 0.585779C10.9607 0.210706 11.4694 -7.62939e-06 11.9999 -7.62939e-06C12.5303 -7.62939e-06 13.039 0.210706 13.4141 0.585779C13.7892 0.960852 13.9999 1.46956 13.9999 1.99999C13.9999 2.53043 13.7892 3.03913 13.4141 3.41421C13.039 3.78928 12.5303 3.99999 11.9999 3.99999C11.4694 3.99999 10.9607 3.78928 10.5857 3.41421C10.2106 3.03913 9.99987 2.53043 9.99987 1.99999V1.99999Z" fill="#FDE8FF"/>
</g>
<defs>
<clipPath id="clip0_395_5323">
<rect width="24" height="24" fill="white"/>
</clipPath>
</defs>
</svg>
