<svg width="24" height="24" viewBox="0 0 24 24" fill="none" xmlns="http://www.w3.org/2000/svg">
<g clip-path="url(#clip0_395_5331)">
<path d="M23.9798 2.02297V6.02297C23.9798 6.28818 23.8744 6.54254 23.6869 6.73007C23.4994 6.91761 23.245 7.02297 22.9798 7.02297C22.7146 7.02297 22.4602 6.91761 22.2727 6.73007C22.0851 6.54254 21.9798 6.28818 21.9798 6.02297V3.45997L16.6798 8.73197C16.4907 8.91366 16.2378 9.0138 15.9755 9.01081C15.7133 9.00782 15.4627 8.90194 15.2778 8.71598C15.0929 8.53002 14.9885 8.27886 14.987 8.01662C14.9855 7.75438 15.087 7.50204 15.2698 7.31397L20.5898 2.02297H17.9798C17.7146 2.02297 17.4602 1.91761 17.2727 1.73007C17.0851 1.54254 16.9798 1.28818 16.9798 1.02297C16.9798 0.75775 17.0851 0.503396 17.2727 0.31586C17.4602 0.128324 17.7146 0.0229668 17.9798 0.0229668H21.9798C22.5102 0.0229668 23.0189 0.233681 23.394 0.608753C23.7691 0.983826 23.9798 1.49253 23.9798 2.02297ZM23.0748 16.762C23.6543 17.3431 23.9797 18.1303 23.9797 18.951C23.9797 19.7717 23.6543 20.5589 23.0748 21.14L22.1628 22.19C13.9718 30.028 -5.95722 10.105 1.76278 1.88997L2.91178 0.889967C3.49388 0.326738 4.27413 0.0150277 5.08407 0.0221374C5.89401 0.0292471 6.66867 0.354606 7.24078 0.927967C7.27078 0.958967 9.12378 3.36697 9.12378 3.36697C9.67345 3.94442 9.97953 4.71143 9.97841 5.50867C9.97729 6.3059 9.66907 7.07206 9.11778 7.64797L7.95878 9.10497C8.59963 10.6621 9.54185 12.0772 10.7313 13.2691C11.9207 14.4609 13.334 15.406 14.8898 16.05L16.3548 14.885C16.9306 14.334 17.6966 14.0259 18.4936 14.0248C19.2906 14.0237 20.0574 14.3296 20.6348 14.879C20.6348 14.879 23.0438 16.732 23.0748 16.762ZM21.6998 18.216C21.6998 18.216 19.3068 16.374 19.2758 16.344C19.0698 16.1397 18.7914 16.0251 18.5013 16.0251C18.2112 16.0251 17.9328 16.1397 17.7268 16.344C17.6998 16.37 15.6828 17.978 15.6828 17.978C15.5469 18.0862 15.3851 18.1571 15.2134 18.1837C15.0418 18.2104 14.8661 18.1919 14.7038 18.13C12.687 17.38 10.8552 16.2049 9.33263 14.6844C7.8101 13.164 6.63251 11.3337 5.87978 9.31797C5.81393 9.15409 5.79266 8.97569 5.81813 8.80092C5.8436 8.62615 5.9149 8.46124 6.02478 8.32297C6.02478 8.32297 7.63178 6.30597 7.65878 6.27897C7.86305 6.07295 7.97766 5.79458 7.97766 5.50447C7.97766 5.21435 7.86305 4.93598 7.65878 4.72997C7.62878 4.69997 5.78678 2.30597 5.78678 2.30597C5.57781 2.11834 5.30499 2.01776 5.02423 2.02482C4.74348 2.03189 4.47606 2.14607 4.27678 2.34397L3.12778 3.34397C-2.51622 10.126 14.7568 26.442 20.6998 20.826L21.6118 19.776C21.8268 19.5787 21.9563 19.3052 21.9727 19.0138C21.9892 18.7225 21.8912 18.4362 21.6998 18.216V18.216Z" fill="#FDE8FF"/>
</g>
<defs>
<clipPath id="clip0_395_5331">
<rect width="24" height="24" fill="white"/>
</clipPath>
</defs>
</svg>
