<svg width="24" height="24" viewBox="0 0 24 24" fill="none" xmlns="http://www.w3.org/2000/svg">
<g clip-path="url(#clip0_395_5329)">
<path d="M14.9802 7.02299V3.02299C14.9802 2.75778 15.0855 2.50342 15.2731 2.31589C15.4606 2.12835 15.715 2.02299 15.9802 2.02299C16.2454 2.02299 16.4998 2.12835 16.6873 2.31589C16.8748 2.50342 16.9802 2.75778 16.9802 3.02299V5.63399C17.6102 4.99999 21.6812 0.907992 22.2732 0.315992C22.3654 0.220482 22.4758 0.1443 22.5978 0.0918908C22.7198 0.0394818 22.851 0.0118956 22.9838 0.0107418C23.1166 0.00958798 23.2482 0.0348897 23.3711 0.0851706C23.494 0.135451 23.6057 0.209705 23.6996 0.303597C23.7935 0.39749 23.8677 0.509142 23.918 0.632038C23.9683 0.754935 23.9936 0.886614 23.9924 1.01939C23.9913 1.15217 23.9637 1.28339 23.9113 1.4054C23.8589 1.5274 23.7827 1.63775 23.6872 1.72999C23.0952 2.32199 19.0452 6.39499 18.4192 7.02299H20.9802C21.2454 7.02299 21.4998 7.12835 21.6873 7.31589C21.8748 7.50342 21.9802 7.75778 21.9802 8.02299C21.9802 8.28821 21.8748 8.54256 21.6873 8.7301C21.4998 8.91764 21.2454 9.02299 20.9802 9.02299H16.9802C16.4497 9.02299 15.941 8.81228 15.566 8.43721C15.1909 8.06213 14.9802 7.55343 14.9802 7.02299ZM23.0752 16.762C23.6547 17.3431 23.9801 18.1303 23.9801 18.951C23.9801 19.7717 23.6547 20.5589 23.0752 21.14L22.1632 22.19C13.9722 30.028 -5.95582 10.106 1.76318 1.88999L2.91318 0.889992C3.49482 0.326538 4.27491 0.0147311 5.08468 0.0220297C5.89445 0.0293283 6.66879 0.355145 7.24018 0.928992C7.27118 0.958992 9.12318 3.36699 9.12318 3.36699C9.6711 3.94553 9.97597 4.71237 9.97485 5.50919C9.97374 6.30601 9.66672 7.07199 9.11718 7.64899L7.95918 9.10499C8.60017 10.662 9.54244 12.0771 10.7319 13.2689C11.9213 14.4607 13.3345 15.4059 14.8902 16.05L16.3552 14.885C16.931 14.334 17.697 14.026 18.494 14.0248C19.291 14.0237 20.0578 14.3296 20.6352 14.879C20.6352 14.879 23.0442 16.732 23.0752 16.762V16.762ZM21.7002 18.216C21.7002 18.216 19.3072 16.374 19.2762 16.344C19.0702 16.1397 18.7918 16.0251 18.5017 16.0251C18.2116 16.0251 17.9332 16.1397 17.7272 16.344C17.7002 16.37 15.6832 17.978 15.6832 17.978C15.5473 18.0862 15.3855 18.1571 15.2138 18.1838C15.0422 18.2104 14.8665 18.1919 14.7042 18.13C12.6876 17.3797 10.8559 16.2046 9.33327 14.6844C7.81064 13.1642 6.63265 11.3344 5.87918 9.31899C5.81238 9.15445 5.7906 8.97508 5.81609 8.79933C5.84157 8.62358 5.9134 8.45779 6.02418 8.31899C6.02418 8.31899 7.63218 6.30499 7.65918 6.27899C7.86345 6.07298 7.97806 5.79461 7.97806 5.50449C7.97806 5.21438 7.86345 4.93601 7.65918 4.72999C7.62918 4.69999 5.78718 2.30499 5.78718 2.30499C5.57808 2.1175 5.30519 2.01709 5.02443 2.02434C4.74367 2.03159 4.47632 2.14596 4.27718 2.34399L3.12718 3.34399C-2.51482 10.127 14.7572 26.441 20.7002 20.827L21.6122 19.776C21.8272 19.5787 21.9567 19.3052 21.9731 19.0139C21.9896 18.7225 21.8916 18.4362 21.7002 18.216V18.216Z" fill="#FDE8FF"/>
</g>
<defs>
<clipPath id="clip0_395_5329">
<rect width="24" height="24" fill="white"/>
</clipPath>
</defs>
</svg>
