<svg width="24" height="24" viewBox="0 0 24 24" fill="none" xmlns="http://www.w3.org/2000/svg">
<g clip-path="url(#clip0_395_5328)">
<path d="M17.7622 24C9.63124 24.275 -5.01674 9.74496 1.78425 1.86696L2.93425 0.86696C3.51637 0.304225 4.29666 -0.00666291 5.10627 0.00157169C5.91588 0.00980628 6.68969 0.336501 7.26024 0.91096C7.29108 0.942364 7.31981 0.97577 7.34624 1.01096L9.14624 3.34996C9.69326 3.9288 9.9972 4.69554 9.99534 5.49196C9.99348 6.28837 9.68596 7.05369 9.13624 7.62996L7.97824 9.08596C8.61936 10.643 9.56166 12.0582 10.7511 13.2501C11.9405 14.4421 13.3536 15.3875 14.9092 16.032L16.3732 14.867C16.957 14.3308 17.7204 14.0328 18.5131 14.0317C19.3057 14.0306 20.07 14.3265 20.6552 14.861L22.9952 16.661C23.0302 16.6873 23.0636 16.7157 23.0952 16.746C23.6723 17.3284 23.9961 18.1151 23.9961 18.935C23.9961 19.7548 23.6723 20.5416 23.0952 21.124L22.1842 22.174C21.6064 22.7581 20.9174 23.2207 20.1579 23.5343C19.3985 23.8479 18.5839 24.0062 17.7622 24V24ZM5.07125 1.99996C4.92754 1.99985 4.78522 2.02805 4.65241 2.08296C4.51961 2.13786 4.39892 2.2184 4.29725 2.31996L3.14625 3.31996C-2.49975 10.108 14.7772 26.423 20.7202 20.808L21.6322 19.757C21.7406 19.6605 21.8289 19.5435 21.8919 19.4127C21.9549 19.282 21.9914 19.1401 21.9993 18.9952C22.0072 18.8502 21.9863 18.7052 21.9379 18.5684C21.8895 18.4316 21.8145 18.3057 21.7172 18.198L19.3902 16.411C19.3546 16.3847 19.3211 16.3556 19.2902 16.324C19.0816 16.1251 18.8044 16.0142 18.5162 16.0142C18.228 16.0142 17.9509 16.1251 17.7422 16.324C17.7157 16.3508 17.6876 16.3762 17.6582 16.4L15.7002 17.96C15.5643 18.0682 15.4025 18.1391 15.2309 18.1657C15.0592 18.1924 14.8836 18.1738 14.7212 18.112C12.7054 17.361 10.8745 16.1855 9.35254 14.6651C7.83063 13.1448 6.65328 11.3151 5.90024 9.29996C5.83358 9.13533 5.81197 8.95591 5.83763 8.78016C5.86329 8.60441 5.93529 8.43866 6.04624 8.29996L7.60024 6.34396C7.62336 6.31433 7.64841 6.28627 7.67524 6.25996C7.87951 6.05395 7.99412 5.77558 7.99412 5.48546C7.99412 5.19534 7.87951 4.91697 7.67524 4.71096C7.64408 4.67986 7.61533 4.64643 7.58924 4.61096L5.80625 2.28696C5.60478 2.10493 5.34277 2.0044 5.07125 2.00496V1.99996ZM22.5642 12.576C27.5542 5.23096 18.7642 -3.55004 11.4272 1.43896C11.3166 1.51283 11.2218 1.60804 11.1484 1.71901C11.075 1.82997 11.0245 1.95447 10.9999 2.0852C10.9752 2.21593 10.9768 2.35027 11.0047 2.48035C11.0326 2.61043 11.0862 2.73363 11.1623 2.84275C11.2385 2.95186 11.3356 3.04469 11.448 3.1158C11.5605 3.18691 11.686 3.23487 11.8172 3.25686C11.9484 3.27886 12.0826 3.27446 12.2121 3.24391C12.3416 3.21336 12.4637 3.15728 12.5712 3.07896C18.0452 -0.680041 24.6812 5.96296 20.9242 11.433C20.8442 11.5404 20.7866 11.6628 20.7548 11.793C20.723 11.9231 20.7177 12.0583 20.7392 12.1906C20.7607 12.3228 20.8085 12.4494 20.8798 12.5628C20.9512 12.6761 21.0446 12.7741 21.1545 12.8507C21.2644 12.9273 21.3886 12.981 21.5196 13.0087C21.6507 13.0363 21.786 13.0374 21.9175 13.0118C22.049 12.9862 22.174 12.9344 22.2851 12.8595C22.3962 12.7846 22.4911 12.6882 22.5642 12.576V12.576ZM18.7062 10.711C18.8937 10.5234 18.999 10.2691 18.999 10.004C18.999 9.7388 18.8937 9.48449 18.7062 9.29696L17.0002 7.58996V4.99996C17.0002 4.73474 16.8949 4.48039 16.7073 4.29285C16.5198 4.10532 16.2654 3.99996 16.0002 3.99996C15.735 3.99996 15.4807 4.10532 15.2931 4.29285C15.1056 4.48039 15.0002 4.73474 15.0002 4.99996V7.99996C15.0003 8.26516 15.1057 8.51947 15.2932 8.70696L17.2932 10.707C17.4808 10.8944 17.7351 10.9997 18.0002 10.9997C18.2654 10.9997 18.5197 10.8944 18.7072 10.707L18.7062 10.711Z" fill="#FDE8FF"/>
</g>
<defs>
<clipPath id="clip0_395_5328">
<rect width="24" height="24" fill="white"/>
</clipPath>
</defs>
</svg>
