<svg width="24" height="24" viewBox="0 0 24 24" fill="none" xmlns="http://www.w3.org/2000/svg">
<g clip-path="url(#clip0_395_5333)">
<path d="M5.00495 24H18.9999C19.8424 23.9999 20.6711 23.7869 21.4092 23.3809C22.1474 22.9749 22.7709 22.3889 23.222 21.6774C23.6731 20.9659 23.9371 20.152 23.9896 19.3112C24.042 18.4704 23.8812 17.63 23.5219 16.868L16.5349 2.90002C16.1345 2.03794 15.4965 1.30788 14.696 0.795417C13.8954 0.282952 12.9653 0.00931829 12.0147 0.00658952C11.0642 0.00386075 10.1325 0.27215 9.329 0.78001C8.52548 1.28787 7.88337 2.01425 7.47795 2.87402L0.477949 16.874L0.469949 16.9C0.117454 17.6617 -0.0376442 18.4998 0.0189504 19.3372C0.075545 20.1745 0.342011 20.9842 0.793789 21.6915C1.24557 22.3988 1.86812 22.981 2.60407 23.3844C3.34001 23.7879 4.16568 23.9996 5.00495 24V24ZM8.40495 22L11.1219 16.562C11.1984 16.3936 11.322 16.2509 11.4778 16.1511C11.6336 16.0514 11.815 15.9989 11.9999 16C12.19 16.0001 12.3758 16.0559 12.5345 16.1604C12.6931 16.2649 12.8178 16.4135 12.8929 16.588L15.5999 22H8.40495ZM2.27795 17.748L9.27795 3.73602C9.5199 3.21512 9.9063 2.77462 10.3912 2.46686C10.8762 2.1591 11.4393 1.99701 12.0136 1.99986C12.588 2.0027 13.1494 2.17036 13.6313 2.4829C14.1131 2.79545 14.4952 3.23975 14.7319 3.76302L21.7199 17.736C21.9323 18.1931 22.0261 18.6963 21.9926 19.1992C21.9591 19.7021 21.7995 20.1885 21.5285 20.6134C21.2574 21.0383 20.8837 21.3881 20.4417 21.6305C19.9998 21.8728 19.504 21.9999 18.9999 22H17.8359L14.6999 15.72C14.4625 15.2085 14.0845 14.7752 13.6099 14.4706C13.1354 14.166 12.5839 14.0027 12.02 13.9999C11.4561 13.9971 10.9031 14.1548 10.4255 14.4546C9.94789 14.7544 9.56549 15.1839 9.32295 15.693L6.16795 22H5.00495C4.50193 22.0001 4.00696 21.8738 3.56556 21.6326C3.12416 21.3913 2.75049 21.043 2.47894 20.6196C2.20738 20.1962 2.04665 19.7113 2.01153 19.2095C1.97641 18.7077 2.06802 18.2051 2.27795 17.748V17.748Z" fill="#FDE8FF"/>
</g>
<defs>
<clipPath id="clip0_395_5333">
<rect width="24" height="24" fill="white"/>
</clipPath>
</defs>
</svg>
