<svg width="24" height="24" viewBox="0 0 24 24" fill="none" xmlns="http://www.w3.org/2000/svg">
<g clip-path="url(#clip0_395_5339)">
<path d="M22.9998 4.99999H20.4138L22.7068 2.70699C22.889 2.51839 22.9897 2.26579 22.9875 2.00359C22.9852 1.74139 22.88 1.49058 22.6946 1.30517C22.5092 1.11977 22.2584 1.0146 21.9962 1.01232C21.734 1.01004 21.4814 1.11083 21.2928 1.29299L18.9998 3.58599V0.999992C18.9998 0.734776 18.8944 0.480422 18.7069 0.292886C18.5194 0.105349 18.265 -7.62939e-06 17.9998 -7.62939e-06C17.7346 -7.62939e-06 17.4802 0.105349 17.2927 0.292886C17.1051 0.480422 16.9998 0.734776 16.9998 0.999992V5.45599C16.1812 4.5846 15.215 3.86485 14.1458 3.32999C13.3951 2.99886 12.5567 2.92203 11.7583 3.11121C10.9599 3.30039 10.2451 3.74521 9.72279 4.37799C7.96479 6.13599 3.06479 15.121 0.299792 20.319C0.0567817 20.7919 -0.029818 21.3298 0.0524697 21.8552C0.134757 22.3805 0.381684 22.8661 0.757674 23.2421C1.13366 23.6181 1.61931 23.865 2.14463 23.9473C2.66995 24.0296 3.20784 23.943 3.68079 23.7C8.88079 20.936 17.8638 16.035 19.6218 14.277C20.2544 13.7547 20.6992 13.0402 20.8885 12.2421C21.0778 11.4439 21.0014 10.6057 20.6708 9.85499C20.1352 8.78563 19.4152 7.81915 18.5438 6.99999H22.9998C23.265 6.99999 23.5194 6.89464 23.7069 6.7071C23.8944 6.51956 23.9998 6.26521 23.9998 5.99999C23.9998 5.73478 23.8944 5.48042 23.7069 5.29289C23.5194 5.10535 23.265 4.99999 22.9998 4.99999ZM18.2078 12.863C17.4929 13.4747 16.7256 14.0225 15.9148 14.5L13.7068 12.293C13.5182 12.1108 13.2656 12.01 13.0034 12.0123C12.7412 12.0146 12.4904 12.1198 12.305 12.3052C12.1196 12.4906 12.0144 12.7414 12.0121 13.0036C12.0098 13.2658 12.1106 13.5184 12.2928 13.707L14.1628 15.576C11.4168 17.219 7.47379 19.418 2.74179 21.934C2.64727 21.9841 2.53916 22.0026 2.43335 21.9868C2.32754 21.9709 2.22961 21.9215 2.15395 21.8458C2.07829 21.7702 2.0289 21.6722 2.01303 21.5664C1.99716 21.4606 2.01566 21.3525 2.06579 21.258C3.58779 18.397 4.98879 15.834 6.22579 13.64L8.29279 15.707C8.48139 15.8892 8.734 15.9899 8.99619 15.9877C9.25839 15.9854 9.5092 15.8802 9.69461 15.6948C9.88002 15.5094 9.98519 15.2586 9.98747 14.9964C9.98974 14.7342 9.88895 14.4816 9.70679 14.293L7.25079 11.837C8.34079 9.94799 9.25679 8.43699 9.95979 7.37399L12.2928 9.70699C12.4814 9.88915 12.734 9.98994 12.9962 9.98767C13.2584 9.98539 13.5092 9.88022 13.6946 9.69481C13.88 9.5094 13.9852 9.25859 13.9875 8.99639C13.9897 8.7342 13.8889 8.48159 13.7068 8.29299L11.1738 5.75999C12.0208 4.97099 12.5398 4.83799 13.3568 5.16799C14.4909 5.8152 15.5078 6.64887 16.3648 7.63399C17.3503 8.49131 18.1843 9.50855 18.8318 10.643C19.0808 11.223 19.1778 11.894 18.2078 12.863Z" fill="#FDE8FF"/>
</g>
<defs>
<clipPath id="clip0_395_5339">
<rect width="24" height="24" fill="white"/>
</clipPath>
</defs>
</svg>
