<svg width="24" height="24" viewBox="0 0 24 24" fill="none" xmlns="http://www.w3.org/2000/svg">
<g clip-path="url(#clip0_395_5343)">
<path d="M18.7129 11.9999H13.9999C13.4695 11.9999 12.9608 11.7892 12.5857 11.4141C12.2106 11.039 11.9999 10.5303 11.9999 9.99988V5.27388C12.0013 4.81387 11.8968 4.3597 11.6946 3.94649C11.4925 3.53328 11.198 3.17211 10.8339 2.89088C10.4889 2.6177 10.0858 2.42746 9.65561 2.33487C9.22543 2.24228 8.77972 2.24981 8.35291 2.35688C5.92856 2.9587 3.78224 4.36995 2.26888 6.35725C0.755522 8.34455 -0.034216 10.7889 0.0302694 13.2859C0.0947548 15.783 1.0096 18.1833 2.62351 20.0899C4.23743 21.9964 6.45373 23.295 8.90591 23.7709C11.663 24.2986 14.5176 23.7523 16.885 22.2438C19.2524 20.7353 20.9535 18.3788 21.6399 15.6569C21.7474 15.2295 21.7552 14.7832 21.6628 14.3523C21.5704 13.9214 21.3802 13.5176 21.1069 13.1719C20.8224 12.8083 20.4591 12.514 20.0445 12.311C19.6298 12.108 19.1746 12.0017 18.7129 11.9999ZM19.7009 15.1679C19.318 16.7097 18.5325 18.1222 17.4246 19.2609C16.3167 20.3996 14.9262 21.2235 13.3954 21.6485C11.8646 22.0734 10.2484 22.0842 8.71211 21.6796C7.1758 21.275 5.77453 20.4696 4.65162 19.3457C3.52871 18.2219 2.72446 16.8199 2.32113 15.2833C1.9178 13.7466 1.92987 12.1304 2.35611 10.6C2.78234 9.06954 3.60744 7.67977 4.74701 6.57283C5.88658 5.46588 7.29973 4.68149 8.84191 4.29988C8.97384 4.26692 9.11166 4.26531 9.24433 4.29518C9.377 4.32504 9.50083 4.38556 9.60591 4.47188C9.73 4.56649 9.83063 4.68841 9.9 4.82819C9.96937 4.96796 10.0056 5.12184 10.0059 5.27788V9.99988C10.0059 11.0607 10.4273 12.0782 11.1775 12.8283C11.9276 13.5785 12.945 13.9999 14.0059 13.9999H18.7179C18.8753 14.0005 19.0305 14.0369 19.1719 14.1061C19.3132 14.1754 19.437 14.2759 19.5339 14.3999C19.6189 14.5064 19.6781 14.6312 19.7069 14.7644C19.7357 14.8977 19.7333 15.0357 19.6999 15.1679H19.7009Z" fill="#FDE8FF"/>
<path d="M23.6513 7.44611C23.1909 5.75359 22.2965 4.21061 21.0567 2.96989C19.8168 1.72917 18.2745 0.833704 16.5823 0.372112C16.4049 0.324422 16.222 0.300215 16.0383 0.300112C15.774 0.297602 15.5119 0.34748 15.2671 0.446865C15.0222 0.54625 14.7995 0.693171 14.6118 0.879139C14.424 1.06511 14.275 1.28643 14.1733 1.53033C14.0716 1.77423 14.0193 2.03586 14.0193 2.30011V7.00011C14.0193 7.79576 14.3354 8.55882 14.898 9.12143C15.4606 9.68404 16.2236 10.0001 17.0193 10.0001H21.7383C22.047 9.99714 22.3508 9.92305 22.6262 9.78359C22.9015 9.64413 23.1411 9.44306 23.3261 9.196C23.5112 8.94894 23.6368 8.66254 23.6932 8.35905C23.7496 8.05556 23.7352 7.74316 23.6513 7.44611V7.44611ZM21.1533 8.00011H17.0153C16.7501 8.00011 16.4957 7.89476 16.3082 7.70722C16.1206 7.51968 16.0153 7.26533 16.0153 7.00011L16.0073 2.30711C16.0146 2.30182 16.0233 2.2987 16.0323 2.29811H16.0583C17.4204 2.6692 18.6613 3.39102 19.6573 4.39156C20.6533 5.39209 21.3694 6.63633 21.7343 8.00011H21.1533Z" fill="#FDE8FF"/>
</g>
<defs>
<clipPath id="clip0_395_5343">
<rect width="24" height="24" fill="white"/>
</clipPath>
</defs>
</svg>
