<svg width="24" height="24" viewBox="0 0 24 24" fill="none" xmlns="http://www.w3.org/2000/svg">
<g clip-path="url(#clip0_395_5346)">
<path d="M19.9126 8.57332C19.9126 8.5496 19.9126 8.52588 19.9126 8.50113C19.9126 4.1329 16.3714 0.591728 12.0032 0.591728C7.63495 0.591728 4.09378 4.1329 4.09378 8.50113C4.09378 8.52584 4.09378 8.54956 4.09378 8.57332C0.269765 10.6848 -1.11853 15.4965 0.992952 19.3205C3.10444 23.1445 7.91611 24.5328 11.7401 22.4214C11.8288 22.3724 11.9165 22.3218 12.0032 22.2694C15.7433 24.5262 20.6048 23.3237 22.8615 19.5836C25.1183 15.8435 23.9158 10.982 20.1757 8.72529C20.0889 8.67293 20.0012 8.62226 19.9126 8.57332ZM12.0032 19.8442C10.9395 18.894 10.2543 17.592 10.0733 16.1772C11.339 16.4943 12.6634 16.4943 13.9291 16.1772C13.748 17.5897 13.0643 18.8897 12.0032 19.8393V19.8442ZM12.0032 14.4332C11.379 14.4335 10.7587 14.3351 10.1652 14.1416C10.435 12.9295 11.0777 11.8324 12.0032 11.0045C12.9286 11.8324 13.5714 12.9295 13.8412 14.1416C13.2477 14.3351 12.6274 14.4335 12.0032 14.4332ZM8.3708 13.1875C7.27655 12.34 6.51248 11.1371 6.21056 9.78645C7.54055 9.35332 8.98078 9.40409 10.277 9.92979C9.38827 10.8461 8.73426 11.9638 8.3708 13.1875ZM13.7294 9.92482C15.0256 9.39912 16.4658 9.34835 17.7958 9.78148C17.4949 11.134 16.7308 12.3388 15.6356 13.1875C15.2728 11.962 14.6188 10.8426 13.7294 9.92482ZM12.0032 2.5691C14.9878 2.57295 17.5063 4.79056 17.8878 7.75076C15.8938 7.25004 13.7831 7.54545 12.0032 8.57431C10.2232 7.5454 8.11261 7.25004 6.11859 7.75076C6.50006 4.7906 9.01856 2.57295 12.0032 2.5691ZM2.11645 15.4219C2.11664 13.5881 2.96578 11.8577 4.41609 10.7355C4.99312 12.6811 6.29278 14.332 8.04848 15.3497C8.04848 15.3734 8.04848 15.3971 8.04848 15.4219C8.04741 17.4744 8.84686 19.4465 10.277 20.9189C7.24073 22.1496 3.78169 20.686 2.55094 17.6498C2.26406 16.9421 2.1165 16.1856 2.11645 15.4219ZM15.9579 21.3539C15.1939 21.3544 14.4371 21.2067 13.7294 20.9189C15.1595 19.4465 15.959 17.4745 15.9579 15.4219C15.9579 15.3972 15.9579 15.3735 15.9579 15.3497C17.714 14.3322 19.014 12.6813 19.5913 10.7356C22.1795 12.7442 22.6492 16.4707 20.6406 19.0589C19.5177 20.5057 17.7894 21.3528 15.9579 21.3539Z" fill="#FDE8FF"/>
</g>
<defs>
<clipPath id="clip0_395_5346">
<rect width="24" height="24" fill="white"/>
</clipPath>
</defs>
</svg>
