<svg width="24" height="24" viewBox="0 0 24 24" fill="none" xmlns="http://www.w3.org/2000/svg">
<g clip-path="url(#clip0_395_5342)">
<path d="M20.0002 12.0001C19.3867 12 18.7814 12.1412 18.2313 12.4127C17.6813 12.6843 17.2011 13.079 16.8282 13.5661L16.7582 13.5361C17.0332 12.6841 17.0744 11.7739 16.8775 10.9005C16.6806 10.0272 16.2529 9.2227 15.6389 8.57113C15.0249 7.91955 14.2473 7.44478 13.3871 7.19639C12.527 6.94801 11.616 6.93512 10.7492 7.15907L10.6582 6.98707C11.3845 6.3408 11.8503 5.45181 11.9682 4.48671C12.086 3.52162 11.8479 2.54667 11.2984 1.74458C10.7489 0.942482 9.92579 0.368302 8.98328 0.129644C8.04076 -0.109014 7.04356 0.00423214 6.17856 0.448159C5.31356 0.892085 4.64013 1.63622 4.28449 2.5411C3.92885 3.44599 3.91541 4.44951 4.24668 5.3636C4.57795 6.27768 5.2312 7.03959 6.08399 7.50653C6.93679 7.97347 7.9306 8.11339 8.87917 7.90007L8.95217 8.03707C7.95223 8.8044 7.27956 9.92159 7.06922 11.1643C6.85888 12.4071 7.12643 13.6834 7.81817 14.7371L5.93317 16.5001C5.08114 16.0293 4.08668 15.8854 3.13616 16.0954C2.18564 16.3053 1.34429 16.8546 0.769768 17.6404C0.195248 18.4262 -0.0730081 19.3946 0.0152689 20.364C0.103546 21.3334 0.542297 22.2374 1.2493 22.9065C1.95631 23.5756 2.88305 23.9639 3.85585 23.9987C4.82866 24.0335 5.78077 23.7123 6.53376 23.0954C7.28675 22.4785 7.78894 21.6082 7.94623 20.6476C8.10351 19.6869 7.9051 18.7019 7.38817 17.8771L9.22617 16.1591C10.2357 16.8338 11.4564 17.1176 12.66 16.9572C13.8636 16.7969 14.9675 16.2035 15.7652 15.2881L16.0442 15.4071C15.9231 16.2145 16.0521 17.0397 16.4137 17.7717C16.7753 18.5037 17.3523 19.1076 18.0672 19.5021C18.782 19.8966 19.6004 20.063 20.4126 19.9787C21.2247 19.8945 21.9916 19.5638 22.6103 19.031C23.2289 18.4982 23.6697 17.7888 23.8735 16.9981C24.0772 16.2075 24.0341 15.3734 23.7499 14.608C23.4658 13.8425 22.9542 13.1824 22.2839 12.7162C21.6136 12.25 20.8167 12.0001 20.0002 12.0001V12.0001ZM6.00017 4.00007C6.00017 3.60451 6.11747 3.21783 6.33723 2.88893C6.55699 2.56003 6.86935 2.30369 7.2348 2.15231C7.60026 2.00094 8.00239 1.96133 8.39035 2.0385C8.77831 2.11567 9.13468 2.30615 9.41439 2.58586C9.69409 2.86556 9.88457 3.22193 9.96174 3.60989C10.0389 3.99785 9.99931 4.39999 9.84793 4.76544C9.69656 5.13089 9.44021 5.44325 9.11131 5.66301C8.78241 5.88277 8.39573 6.00007 8.00017 6.00007C7.46974 6.00007 6.96103 5.78936 6.58596 5.41429C6.21088 5.03921 6.00017 4.53051 6.00017 4.00007ZM4.00017 22.0001C3.60461 22.0001 3.21793 21.8828 2.88903 21.663C2.56013 21.4432 2.30379 21.1309 2.15241 20.7654C2.00104 20.4 1.96143 19.9979 2.0386 19.6099C2.11577 19.2219 2.30625 18.8656 2.58596 18.5859C2.86566 18.3062 3.22203 18.1157 3.60999 18.0385C3.99795 17.9613 4.40009 18.0009 4.76554 18.1523C5.13099 18.3037 5.44335 18.56 5.66311 18.8889C5.88287 19.2178 6.00017 19.6045 6.00017 20.0001C6.00017 20.5305 5.78946 21.0392 5.41438 21.4143C5.03931 21.7894 4.5306 22.0001 4.00017 22.0001ZM12.0002 15.0001C11.3509 14.9988 10.7195 14.7869 10.2009 14.3962C9.68227 14.0055 9.30442 13.4571 9.12408 12.8333C8.94373 12.2096 8.97063 11.5441 9.20073 10.9369C9.43084 10.3298 9.85172 9.81364 10.4002 9.46607L10.8072 9.24907C11.2161 9.07118 11.6596 8.9867 12.1053 9.00179C12.551 9.01688 12.9878 9.13115 13.3838 9.33629C13.7798 9.54143 14.125 9.83228 14.3945 10.1877C14.6639 10.5431 14.8507 10.954 14.9413 11.3907C15.0319 11.8274 15.024 12.2788 14.9181 12.712C14.8123 13.1452 14.6112 13.5494 14.3295 13.8952C14.0478 14.2409 13.6925 14.5195 13.2896 14.7106C12.8866 14.9017 12.4461 15.0006 12.0002 15.0001V15.0001ZM20.0002 18.0001C19.6046 18.0001 19.2179 17.8828 18.889 17.663C18.5601 17.4432 18.3038 17.1309 18.1524 16.7654C18.001 16.4 17.9614 15.9979 18.0386 15.6099C18.1158 15.2219 18.3063 14.8656 18.586 14.5859C18.8657 14.3062 19.222 14.1157 19.61 14.0385C19.998 13.9613 20.4001 14.0009 20.7655 14.1523C21.131 14.3037 21.4433 14.56 21.6631 14.8889C21.8829 15.2178 22.0002 15.6045 22.0002 16.0001C22.0002 16.5305 21.7895 17.0392 21.4144 17.4143C21.0393 17.7894 20.5306 18.0001 20.0002 18.0001Z" fill="#FDE8FF"/>
</g>
<defs>
<clipPath id="clip0_395_5342">
<rect width="24" height="24" fill="white"/>
</clipPath>
</defs>
</svg>
