<svg width="24" height="24" viewBox="0 0 24 24" fill="none" xmlns="http://www.w3.org/2000/svg">
<g clip-path="url(#clip0_395_5340)">
<path d="M24.0001 11.983C23.9979 11.169 23.7471 10.375 23.2812 9.70749C22.8152 9.03995 22.1565 8.53074 21.3931 8.24804L21.3551 8.15704C20.363 5.73048 18.4638 3.78642 16.0611 2.73804L15.7321 2.59404C15.4488 1.83296 14.9396 1.1767 14.2727 0.713308C13.6058 0.249918 12.8131 0.00156403 12.0011 0.00156403C11.189 0.00156403 10.3963 0.249918 9.72942 0.713308C9.06253 1.1767 8.5533 1.83296 8.27005 2.59404L7.85205 2.78204C5.4706 3.86369 3.59626 5.81966 2.61705 8.24504C1.8524 8.52363 1.19153 9.02994 0.723506 9.69573C0.255485 10.3615 0.00281307 11.1548 -0.000456152 11.9686C-0.00372538 12.7824 0.242565 13.5777 0.705222 14.2472C1.16788 14.9167 1.82466 15.4283 2.58705 15.713L2.71505 16.013C3.7184 18.3419 5.5611 20.2082 7.87705 21.241L8.27005 21.417C8.5541 22.177 9.06352 22.8321 9.73013 23.2946C10.3967 23.7571 11.1887 24.005 12.0001 24.005C12.8114 24.005 13.6034 23.7571 14.27 23.2946C14.9366 22.8321 15.446 22.177 15.7301 21.417L16.0971 21.254C18.5196 20.1708 20.4242 18.1855 21.4061 15.72C22.1669 15.4344 22.8226 14.9238 23.286 14.2562C23.7494 13.5886 23.9985 12.7957 24.0001 11.983ZM12.0001 2.00004C12.3956 2.00004 12.7823 2.11734 13.1112 2.3371C13.4401 2.55686 13.6964 2.86922 13.8478 3.23467C13.9992 3.60013 14.0388 4.00226 13.9616 4.39022C13.8845 4.77818 13.694 5.13455 13.4143 5.41425C13.1346 5.69396 12.7782 5.88444 12.3902 5.96161C12.0023 6.03878 11.6001 5.99917 11.2347 5.8478C10.8692 5.69642 10.5569 5.44008 10.3371 5.11118C10.1174 4.78228 10.0001 4.3956 10.0001 4.00004C10.0001 3.46961 10.2108 2.9609 10.5858 2.58583C10.9609 2.21075 11.4696 2.00004 12.0001 2.00004ZM3.98805 9.98504L4.07005 10.016L4.08005 9.99104C4.58115 10.0359 5.04439 10.2764 5.36934 10.6605C5.69429 11.0446 5.85476 11.5413 5.81597 12.0429C5.77718 12.5445 5.54225 13.0106 5.16211 13.3401C4.78197 13.6697 4.28726 13.8361 3.78523 13.8034C3.28319 13.7706 2.81429 13.5413 2.48018 13.1652C2.14607 12.7891 1.97366 12.2964 2.00035 11.794C2.02704 11.2916 2.25066 10.82 2.62274 10.4814C2.99482 10.1427 3.48538 9.96441 3.98805 9.98504V9.98504ZM12.0001 22C11.6045 22 11.2178 21.8827 10.8889 21.663C10.56 21.4432 10.3037 21.1309 10.1523 20.7654C10.0009 20.4 9.96131 19.9978 10.0385 19.6099C10.1157 19.2219 10.3061 18.8655 10.5858 18.5858C10.8655 18.3061 11.2219 18.1156 11.6099 18.0385C11.9978 17.9613 12.4 18.0009 12.7654 18.1523C13.1309 18.3037 13.4432 18.56 13.663 18.8889C13.8828 19.2178 14.0001 19.6045 14.0001 20C14.0001 20.5305 13.7893 21.0392 13.4143 21.4143C13.0392 21.7893 12.5305 22 12.0001 22ZM15.8931 19.114C15.694 18.2301 15.2 17.4401 14.4924 16.8741C13.7848 16.3082 12.9057 15.9998 11.9996 15.9998C11.0934 15.9998 10.2143 16.3082 9.50668 16.8741C8.79907 17.4401 8.30512 18.2301 8.10605 19.114C6.74065 18.3689 5.61889 17.2461 4.87505 15.88C5.75627 15.6809 6.54385 15.1887 7.10903 14.4839C7.67421 13.7791 7.98355 12.9034 7.98645 12C7.98935 11.0966 7.68565 10.2189 7.12501 9.51048C6.56438 8.80206 5.77997 8.30481 4.90005 8.10004C5.64663 6.75318 6.7578 5.64409 8.10605 4.90004C8.30595 5.78304 8.80013 6.57183 9.50745 7.13692C10.2148 7.70202 11.0932 8.00983 11.9986 8.00983C12.9039 8.00983 13.7823 7.70202 14.4897 7.13692C15.197 6.57183 15.6912 5.78304 15.8911 4.90004C17.2383 5.64326 18.3501 6.7495 19.1001 8.09304C18.2174 8.29463 17.4296 8.79033 16.8659 9.49874C16.3021 10.2072 15.996 11.0862 15.9977 11.9915C15.9995 12.8969 16.309 13.7747 16.8755 14.481C17.4419 15.1872 18.2317 15.6799 19.1151 15.878C18.3688 17.2398 17.2516 18.3619 15.8931 19.114ZM20.0001 13.983C19.6045 13.983 19.2178 13.8657 18.8889 13.646C18.56 13.4262 18.3037 13.1139 18.1523 12.7484C18.0009 12.383 17.9613 11.9808 18.0385 11.5929C18.1157 11.2049 18.3061 10.8485 18.5858 10.5688C18.8655 10.2891 19.2219 10.0986 19.6099 10.0215C19.9978 9.9443 20.4 9.98391 20.7654 10.1353C21.1309 10.2867 21.4432 10.543 21.663 10.8719C21.8828 11.2008 22.0001 11.5875 22.0001 11.983C22.0001 12.5135 21.7893 13.0222 21.4143 13.3973C21.0392 13.7723 20.5305 13.983 20.0001 13.983Z" fill="#FDE8FF"/>
</g>
<defs>
<clipPath id="clip0_395_5340">
<rect width="24" height="24" fill="white"/>
</clipPath>
</defs>
</svg>
