<svg width="24" height="24" viewBox="0 0 24 24" fill="none" xmlns="http://www.w3.org/2000/svg">
<g clip-path="url(#clip0_395_5349)">
<path d="M22.4997 3.97604H19.4137C19.216 3.97608 19.0227 4.03475 18.8583 4.14463C18.6939 4.25452 18.5657 4.41068 18.49 4.59338C18.4144 4.77608 18.3946 4.97711 18.4331 5.17107C18.4717 5.36502 18.5669 5.54318 18.7067 5.68304L19.7927 6.76904L16.2067 10.354C16.0162 10.5361 15.7628 10.6378 15.4992 10.6378C15.2357 10.6378 14.9823 10.5361 14.7917 10.354L14.6217 10.183C14.0503 9.63711 13.2905 9.33246 12.5002 9.33246C11.71 9.33246 10.9501 9.63711 10.3787 10.183L5.27873 15.283C5.09082 15.4715 4.98547 15.7268 4.98584 15.993C4.98622 16.2591 5.09229 16.5141 5.28073 16.702C5.46916 16.8899 5.72453 16.9953 5.99064 16.9949C6.25675 16.9945 6.51182 16.8885 6.69973 16.7L11.7997 11.6C11.9901 11.4177 12.2436 11.3159 12.5072 11.3159C12.7709 11.3159 13.0243 11.4177 13.2147 11.6L13.3847 11.771C13.9563 12.3165 14.7161 12.6208 15.5062 12.6208C16.2963 12.6208 17.0561 12.3165 17.6277 11.771L21.2137 8.18504L22.2997 9.27104C22.44 9.40859 22.6178 9.50175 22.8107 9.53888C23.0037 9.57602 23.2033 9.55549 23.3847 9.47986C23.566 9.40422 23.7211 9.27683 23.8305 9.1136C23.9398 8.95037 23.9987 8.75853 23.9997 8.56204V5.47604C23.9997 5.07821 23.8417 4.69668 23.5604 4.41538C23.2791 4.13407 22.8976 3.97604 22.4997 3.97604Z" fill="#FDE8FF"/>
<path d="M23 21.976H5C4.20435 21.976 3.44129 21.6599 2.87868 21.0973C2.31607 20.5347 2 19.7716 2 18.976V1C2 0.734784 1.89464 0.48043 1.70711 0.292893C1.51957 0.105357 1.26522 0 1 0C0.734784 0 0.48043 0.105357 0.292893 0.292893C0.105357 0.48043 0 0.734784 0 1L0 18.976C0.00158786 20.3016 0.528882 21.5724 1.46622 22.5098C2.40356 23.4471 3.6744 23.9744 5 23.976H23C23.2652 23.976 23.5196 23.8706 23.7071 23.6831C23.8946 23.4956 24 23.2412 24 22.976C24 22.7108 23.8946 22.4564 23.7071 22.2689C23.5196 22.0814 23.2652 21.976 23 21.976Z" fill="#FDE8FF"/>
</g>
<defs>
<clipPath id="clip0_395_5349">
<rect width="24" height="24" fill="white"/>
</clipPath>
</defs>
</svg>
