<svg width="24" height="24" viewBox="0 0 24 24" fill="none" xmlns="http://www.w3.org/2000/svg">
<g clip-path="url(#clip0_395_5352)">
<path d="M17 13.9999C16.4696 13.9999 15.9609 14.2106 15.5858 14.5857C15.2107 14.9608 15 15.4695 15 15.9999C15 16.5303 15.2107 17.039 15.5858 17.4141C15.9609 17.7892 16.4696 17.9999 17 17.9999C17.5304 17.9999 18.0391 17.7892 18.4142 17.4141C18.7893 17.039 19 16.5303 19 15.9999C19 15.4695 18.7893 14.9608 18.4142 14.5857C18.0391 14.2106 17.5304 13.9999 17 13.9999Z" fill="#FDE8FF"/>
<path d="M7.99975 10.9999C6.93888 10.9999 5.92147 11.4214 5.17133 12.1715C4.42118 12.9216 3.99976 13.9391 3.99976 14.9999C3.99976 16.0608 4.42118 17.0782 5.17133 17.8283C5.92147 18.5785 6.93888 18.9999 7.99975 18.9999C9.06061 18.9999 10.078 18.5785 10.8282 17.8283C11.5783 17.0782 11.9997 16.0608 11.9997 14.9999C11.9997 13.9391 11.5783 12.9216 10.8282 12.1715C10.078 11.4214 9.06061 10.9999 7.99975 10.9999V10.9999ZM7.99975 16.9999C7.46932 16.9999 6.96061 16.7892 6.58554 16.4141C6.21047 16.0391 5.99975 15.5304 5.99975 14.9999C5.99975 14.4695 6.21047 13.9608 6.58554 13.5857C6.96061 13.2106 7.46932 12.9999 7.99975 12.9999C8.53018 12.9999 9.03889 13.2106 9.41396 13.5857C9.78903 13.9608 9.99975 14.4695 9.99975 14.9999C9.99975 15.5304 9.78903 16.0391 9.41396 16.4141C9.03889 16.7892 8.53018 16.9999 7.99975 16.9999Z" fill="#FDE8FF"/>
<path d="M21.5892 6.7001L13.7512 0.849101C12.9043 0.27721 11.9014 -0.0190647 10.8796 0.000804294C9.85791 0.0206733 8.86726 0.355716 8.04322 0.960101C4.80583 3.38278 2.38386 6.73474 1.10022 10.5691C1.08572 10.6202 1.07503 10.6724 1.06822 10.7251C0.958049 10.9411 0.863474 11.1646 0.785216 11.3941C-0.265319 14.3753 -0.265319 17.6259 0.785216 20.6071C1.12129 21.5973 1.75934 22.4572 2.60961 23.0658C3.45987 23.6745 4.47956 24.0012 5.52522 24.0001H9.14922C9.5829 23.9932 10.0031 23.8483 10.3487 23.5862C10.6944 23.3242 10.9475 22.9588 11.0712 22.5431C11.1725 22.2445 11.3648 21.9851 11.6212 21.8014C11.8775 21.6177 12.1849 21.5189 12.5002 21.5189C12.8156 21.5189 13.123 21.6177 13.3793 21.8014C13.6356 21.9851 13.8279 22.2445 13.9292 22.5431C14.053 22.9588 14.306 23.3242 14.6517 23.5862C14.9973 23.8483 15.4175 23.9932 15.8512 24.0001H19.0002C20.3258 23.9985 21.5967 23.4712 22.534 22.5339C23.4713 21.5965 23.9986 20.3257 24.0002 19.0001V11.5071C23.998 10.5739 23.7791 9.65392 23.3607 8.81973C22.9423 7.98555 22.3359 7.25994 21.5892 6.7001V6.7001ZM9.24022 2.5621C9.72494 2.20734 10.3067 2.0095 10.9072 1.9952C11.5077 1.9809 12.0982 2.15082 12.5992 2.4821L19.9892 8.0001H5.52622C5.13693 7.99972 4.74894 8.04503 4.37022 8.1351C5.59446 5.96331 7.2521 4.06638 9.24022 2.5621V2.5621ZM22.0002 19.0001C22.0002 19.7958 21.6841 20.5588 21.1215 21.1214C20.5589 21.684 19.7959 22.0001 19.0002 22.0001L15.8342 21.9341C15.5998 21.2286 15.1475 20.6158 14.5425 20.1838C13.9375 19.7518 13.211 19.523 12.4677 19.5303C11.7243 19.5377 11.0025 19.7808 10.4061 20.2246C9.80973 20.6685 9.36964 21.2901 9.14922 22.0001H5.52522C4.89772 22.0004 4.28593 21.8039 3.77594 21.4383C3.26595 21.0728 2.88343 20.5565 2.68222 19.9621C1.77471 17.3991 1.77471 14.6021 2.68222 12.0391C2.8841 11.4449 3.26689 10.9288 3.77693 10.5631C4.28696 10.1974 4.89865 10.0006 5.52622 10.0001H21.7002C21.8967 10.4783 21.9985 10.9901 22.0002 11.5071V19.0001Z" fill="#FDE8FF"/>
</g>
<defs>
<clipPath id="clip0_395_5352">
<rect width="24" height="24" fill="white"/>
</clipPath>
</defs>
</svg>
