<svg width="24" height="24" viewBox="0 0 24 24" fill="none" xmlns="http://www.w3.org/2000/svg">
<g clip-path="url(#clip0_395_5353)">
<path d="M20.0249 22.026H19.0249V20.371C19.0228 19.8349 18.9133 19.3046 18.7029 18.8115C18.4925 18.3184 18.1854 17.8725 17.7999 17.5C15.8759 15.641 15.0909 13.511 15.0339 10.024H16.0219C16.2871 10.024 16.5414 9.91861 16.729 9.73107C16.9165 9.54354 17.0219 9.28918 17.0219 9.02397C17.0219 8.75875 16.9165 8.5044 16.729 8.31686C16.5414 8.12932 16.2871 8.02397 16.0219 8.02397H15.4659C15.8263 7.41881 16.0182 6.72829 16.0219 6.02397C16.0219 4.64897 14.8599 2.30697 14.1289 1.15397C13.9028 0.800513 13.5914 0.509649 13.2233 0.308175C12.8553 0.106701 12.4425 0.00109863 12.0229 0.00109863C11.6033 0.00109863 11.1905 0.106701 10.8224 0.308175C10.4544 0.509649 10.143 0.800513 9.91688 1.15397C9.18488 2.30797 8.02288 4.65397 8.02288 6.02497C8.02702 6.72922 8.21896 7.41962 8.57888 8.02497H8.02588C7.76066 8.02497 7.50631 8.13032 7.31877 8.31786C7.13124 8.5054 7.02588 8.75975 7.02588 9.02497C7.02588 9.29018 7.13124 9.54454 7.31877 9.73207C7.50631 9.91961 7.76066 10.025 8.02588 10.025H9.01488C8.95688 13.512 8.17088 15.641 6.24888 17.5C5.86402 17.8727 5.55757 18.3186 5.34754 18.8115C5.13751 19.3043 5.02815 19.8342 5.02588 20.37V22.025H4.02588C3.76066 22.025 3.50631 22.1303 3.31877 22.3179C3.13124 22.5054 3.02588 22.7598 3.02588 23.025C3.02588 23.2902 3.13124 23.5445 3.31877 23.7321C3.50631 23.9196 3.76066 24.025 4.02588 24.025H20.0259C20.2911 24.025 20.5455 23.9196 20.733 23.7321C20.9205 23.5445 21.0259 23.2902 21.0259 23.025C21.0259 22.7598 20.9205 22.5054 20.733 22.3179C20.5455 22.1303 20.2911 22.025 20.0259 22.025L20.0249 22.026ZM11.6079 2.22597C11.6534 2.15686 11.7154 2.10013 11.7883 2.06089C11.8611 2.02164 11.9426 2.00109 12.0254 2.00109C12.1081 2.00109 12.1896 2.02164 12.2625 2.06089C12.3354 2.10013 12.3973 2.15686 12.4429 2.22597C13.21 3.37893 13.7472 4.66924 14.0249 6.02597C14.0249 6.5564 13.8142 7.06511 13.4391 7.44018C13.064 7.81525 12.5553 8.02597 12.0249 8.02597C11.4944 8.02597 10.9857 7.81525 10.6107 7.44018C10.2356 7.06511 10.0249 6.5564 10.0249 6.02597C10.3033 4.6696 10.8408 3.37969 11.6079 2.22697V2.22597ZM13.0379 10.026C13.0919 13.542 13.8379 15.977 15.5599 18.026H8.49088C10.2109 15.977 10.9589 13.541 11.0139 10.026H13.0379ZM7.02588 20.371C7.02736 20.2551 7.03941 20.1396 7.06188 20.026H16.9899C17.0115 20.1397 17.0232 20.2552 17.0249 20.371V22.026H7.02488L7.02588 20.371Z" fill="#FDE8FF"/>
</g>
<defs>
<clipPath id="clip0_395_5353">
<rect width="24" height="24" fill="white"/>
</clipPath>
</defs>
</svg>
