<svg width="24" height="24" viewBox="0 0 24 24" fill="none" xmlns="http://www.w3.org/2000/svg">
<g clip-path="url(#clip0_395_5365)">
<path d="M2.99997 21.1232C2.79741 21.123 2.59969 21.0613 2.43297 20.9462C1.6406 20.4316 0.998016 19.7171 0.570109 18.8747C0.142201 18.0323 -0.0558843 17.092 -0.00414945 16.1486C0.0475854 15.2052 0.347309 14.2921 0.864762 13.5016C1.38221 12.7111 2.09908 12.0711 2.94297 11.6462C2.07473 10.068 1.79142 8.23389 2.14297 6.46722C2.48483 4.71954 3.40003 3.13589 4.7436 1.96711C6.08717 0.798339 7.7823 0.111262 9.56048 0.0147198C11.3387 -0.0818228 13.0982 0.417688 14.5604 1.43413C16.0226 2.45057 17.1039 3.92583 17.633 5.62621C17.6833 5.7986 17.7756 5.95581 17.9016 6.08374C18.0276 6.21167 18.1834 6.30632 18.355 6.35922C19.6131 6.74465 20.7564 7.43515 21.6832 8.36925C22.61 9.30335 23.2915 10.4521 23.667 11.7132C23.7365 11.9654 23.7045 12.2348 23.5778 12.4636C23.451 12.6924 23.2397 12.8625 22.989 12.9373C22.7384 13.0122 22.4684 12.9858 22.2369 12.8639C22.0055 12.742 21.831 12.5342 21.751 12.2852C21.4691 11.3398 20.958 10.4787 20.2631 9.77844C19.5683 9.07816 18.7112 8.56041 17.768 8.27122C17.2861 8.12153 16.848 7.85646 16.4918 7.49903C16.1356 7.1416 15.872 6.70263 15.724 6.22021C15.4836 5.41916 15.0784 4.67721 14.5344 4.04197C13.9904 3.40673 13.3196 2.89224 12.5651 2.5315C11.8106 2.17076 10.9889 1.97175 10.153 1.94725C9.31698 1.92274 8.48511 2.07327 7.71073 2.38918C6.93635 2.70509 6.23657 3.17941 5.6563 3.78169C5.07602 4.38397 4.62806 5.10091 4.34118 5.8865C4.05429 6.6721 3.93481 7.50899 3.9904 8.34348C4.04599 9.17797 4.27542 9.99162 4.66397 10.7322C4.91172 11.1943 4.96752 11.7353 4.81929 12.2382C4.67106 12.7411 4.33073 13.1654 3.87197 13.4192C3.33318 13.6842 2.87497 14.0884 2.54475 14.5898C2.21453 15.0913 2.02428 15.6719 1.99369 16.2716C1.9631 16.8712 2.09328 17.4681 2.37076 18.0006C2.64824 18.5331 3.06294 18.9818 3.57197 19.3002C3.74776 19.4215 3.88008 19.596 3.94956 19.7979C4.01904 19.9999 4.02202 20.2188 3.95808 20.4226C3.89414 20.6264 3.76662 20.8044 3.59421 20.9304C3.42181 21.0565 3.21356 21.1241 2.99997 21.1232V21.1232ZM19.1 24.0002C19.4584 23.9835 19.8142 23.9305 20.162 23.8422C21.063 23.6331 21.8873 23.1756 22.5413 22.5216C23.1954 21.8675 23.6529 21.0432 23.862 20.1422C24.1644 18.876 23.9623 17.5418 23.2984 16.422C22.6346 15.3021 21.561 14.4845 20.305 14.1422C20.305 14.1422 19.676 13.9972 19.539 13.6712C19.0552 12.5041 18.2154 11.5195 17.1393 10.8577C16.0631 10.1959 14.8055 9.89073 13.5457 9.9856C12.2859 10.0805 11.0882 10.5706 10.1233 11.3861C9.15836 12.2016 8.47549 13.3008 8.17198 14.5272C7.95589 15.4231 7.93644 16.3551 8.11497 17.2592C7.44895 17.5456 6.8883 18.0318 6.51049 18.6506C6.13268 19.2694 5.95635 19.9902 6.00586 20.7135C6.05537 21.4368 6.32827 22.1269 6.78687 22.6884C7.24547 23.25 7.86713 23.6552 8.56598 23.8482C8.83744 23.9298 9.11718 23.9808 9.39997 24.0002H19.1ZM17.7 14.4442C17.8737 14.8759 18.1583 15.2542 18.5248 15.5409C18.8914 15.8276 19.3271 16.0126 19.788 16.0772C20.5437 16.2858 21.1887 16.7802 21.5866 17.4557C21.9844 18.1313 22.104 18.9351 21.92 19.6972C21.7907 20.23 21.517 20.7167 21.1288 21.1039C20.7406 21.491 20.2531 21.7634 19.72 21.8912C19.505 21.9406 19.2855 21.968 19.065 21.9732C17.4 22.0062 10.794 22.0112 9.46498 21.9732C9.33698 21.9691 9.20985 21.9507 9.08598 21.9182C8.84125 21.8516 8.6179 21.7229 8.4376 21.5445C8.2573 21.3662 8.12618 21.1442 8.05698 20.9002C7.95387 20.5488 7.9835 20.1718 8.14022 19.8409C8.29694 19.5099 8.56982 19.2481 8.90697 19.1052C9.3429 18.9206 9.69998 18.5885 9.91571 18.1671C10.1314 17.7457 10.1921 17.2618 10.087 16.8002C9.96132 16.2083 9.97192 15.5955 10.118 15.0082C10.3217 14.1914 10.7779 13.4597 11.4216 12.9173C12.0653 12.3749 12.8637 12.0493 13.7032 11.9871C14.5427 11.9248 15.3805 12.129 16.0972 12.5705C16.8139 13.012 17.373 13.6684 17.695 14.4462L17.7 14.4442Z" fill="#FDE8FF"/>
</g>
<defs>
<clipPath id="clip0_395_5365">
<rect width="24" height="24" fill="white"/>
</clipPath>
</defs>
</svg>
