<svg width="24" height="24" viewBox="0 0 24 24" fill="none" xmlns="http://www.w3.org/2000/svg">
<g clip-path="url(#clip0_395_5363)">
<path d="M18.4003 7.37879C18.2194 7.32719 18.0543 7.23118 17.92 7.09949C17.7857 6.9678 17.6865 6.80462 17.6313 6.62479C17.3251 5.58683 16.8115 4.6218 16.1215 3.78808C15.4315 2.95437 14.5796 2.2693 13.6172 1.77435C12.6549 1.27939 11.6021 0.984833 10.5226 0.908498C9.4431 0.832164 8.35935 0.97564 7.33691 1.33024C6.31447 1.68485 5.3746 2.24321 4.57418 2.97153C3.77377 3.69986 3.12944 4.58301 2.68019 5.56754C2.23095 6.55207 1.98612 7.61752 1.96053 8.6994C1.93494 9.78129 2.12912 10.8571 2.53132 11.8618C2.62371 12.0732 2.64361 12.3093 2.5879 12.5332C2.53219 12.7571 2.40401 12.9563 2.22332 13.0998C1.42705 13.6908 0.805363 14.4861 0.424069 15.4014C0.0427744 16.3168 -0.0839466 17.3183 0.0573177 18.2998C0.277771 19.6267 0.966642 20.8305 1.9989 21.6929C3.03116 22.5552 4.33838 23.0189 5.68332 22.9998H11.0003C11.2655 22.9998 11.5199 22.8944 11.7074 22.7069C11.895 22.5194 12.0003 22.265 12.0003 21.9998C12.0003 21.7346 11.895 21.4802 11.7074 21.2927C11.5199 21.1051 11.2655 20.9998 11.0003 20.9998H5.68332C4.8196 21.0207 3.97695 20.7316 3.30808 20.1847C2.63921 19.6378 2.18839 18.8694 2.03732 18.0188C1.94152 17.3935 2.01916 16.754 2.26179 16.1698C2.50442 15.5856 2.90273 15.0792 3.41332 14.7058C3.94964 14.305 4.3376 13.7373 4.51625 13.092C4.69491 12.4467 4.65413 11.7604 4.40032 11.1408C3.89847 9.81549 3.87267 8.35701 4.32732 7.01479C4.69052 5.96336 5.3409 5.03466 6.2048 4.33389C7.0687 3.63312 8.11159 3.18829 9.21532 3.04979C9.47134 3.01683 9.72919 3.00013 9.98732 2.99979C11.2804 2.99552 12.54 3.41022 13.5777 4.18178C14.6153 4.95334 15.3751 6.04026 15.7433 7.27979C15.887 7.75216 16.146 8.18136 16.4969 8.52874C16.8478 8.87613 17.2795 9.13079 17.7533 9.26979C18.9128 9.61271 19.9399 10.3017 20.697 11.2444C21.4542 12.1871 21.9052 13.3387 21.9898 14.5449C22.0745 15.751 21.7886 16.9543 21.1705 17.9935C20.5524 19.0327 19.6316 19.8583 18.5313 20.3598C18.3685 20.4432 18.2324 20.5706 18.1385 20.7276C18.0446 20.8846 17.9967 21.0649 18.0003 21.2478V21.2478C17.9984 21.4133 18.038 21.5766 18.1156 21.7227C18.1932 21.8689 18.3063 21.9932 18.4445 22.0843C18.5826 22.1754 18.7415 22.2303 18.9064 22.244C19.0713 22.2577 19.237 22.2298 19.3883 22.1628C23.5223 20.1758 25.7683 14.9488 22.2683 9.89879C21.3046 8.6417 19.9396 7.7524 18.4003 7.37879V7.37879Z" fill="#FDE8FF"/>
<path d="M18.7072 16.7069C18.8946 16.5194 19 16.2651 19 15.9999C19 15.7348 18.8946 15.4805 18.7072 15.2929L17.1212 13.7069C16.5586 13.1445 15.7957 12.8286 15.0002 12.8286C14.2047 12.8286 13.4417 13.1445 12.8792 13.7069L11.2932 15.2929C11.111 15.4815 11.0102 15.7341 11.0125 15.9963C11.0148 16.2585 11.1199 16.5094 11.3053 16.6948C11.4908 16.8802 11.7416 16.9853 12.0038 16.9876C12.266 16.9899 12.5186 16.8891 12.7072 16.7069L14.0002 15.4139V22.9999C14.0002 23.2652 14.1055 23.5195 14.2931 23.7071C14.4806 23.8946 14.7349 23.9999 15.0002 23.9999C15.2654 23.9999 15.5197 23.8946 15.7073 23.7071C15.8948 23.5195 16.0002 23.2652 16.0002 22.9999V15.4139L17.2932 16.7069C17.4807 16.8944 17.735 16.9997 18.0002 16.9997C18.2653 16.9997 18.5196 16.8944 18.7072 16.7069Z" fill="#FDE8FF"/>
</g>
<defs>
<clipPath id="clip0_395_5363">
<rect width="24" height="24" fill="white"/>
</clipPath>
</defs>
</svg>
