<svg width="24" height="24" viewBox="0 0 24 24" fill="none" xmlns="http://www.w3.org/2000/svg">
<path d="M17.7921 7.21214C17.3477 5.30142 16.2168 3.62058 14.6142 2.48912C13.0117 1.35766 11.0493 0.854452 9.10002 1.07515C7.15076 1.29585 5.35054 2.22507 4.04154 3.68618C2.73254 5.14729 2.00602 7.03843 2.00008 9.00014C1.99922 10.2785 2.30802 11.5381 2.90008 12.6711C1.82121 13.2493 0.966483 14.1714 0.471702 15.2909C-0.0230787 16.4105 -0.129532 17.6633 0.169254 18.8503C0.468041 20.0373 1.15493 21.0904 2.12079 21.8422C3.08664 22.5941 4.27607 23.0017 5.50008 23.0001H16.0001C17.9592 22.991 19.8468 22.2634 21.3051 20.9552C22.7634 19.6469 23.691 17.8491 23.9119 15.9025C24.1329 13.9559 23.6318 11.9958 22.5038 10.3941C21.3758 8.79226 19.6993 7.66007 17.7921 7.21214V7.21214ZM16.0001 21.0001H5.50008C4.64851 21.0027 3.82537 20.6939 3.1856 20.1318C2.54583 19.5698 2.13357 18.7933 2.0264 17.9485C1.91923 17.1037 2.12455 16.2488 2.60372 15.5448C3.08288 14.8409 3.80284 14.3363 4.62808 14.1261C4.78679 14.0853 4.93303 14.006 5.05393 13.8954C5.17483 13.7847 5.26667 13.6461 5.32139 13.4916C5.37611 13.3371 5.39203 13.1716 5.36774 13.0095C5.34344 12.8474 5.27969 12.6938 5.18208 12.5621C4.41323 11.5339 3.9985 10.2841 4.00008 9.00014C4.01149 7.48612 4.59487 6.03239 5.63322 4.93049C6.67158 3.82859 8.08813 3.15998 9.5988 3.05877C11.1095 2.95755 12.6026 3.4312 13.7786 4.38473C14.9547 5.33827 15.7268 6.70118 15.9401 8.20014C15.9689 8.41779 16.0685 8.61993 16.2235 8.77535C16.3786 8.93078 16.5805 9.03085 16.7981 9.06014C18.2969 9.27337 19.6597 10.0453 20.6132 11.2212C21.5668 12.397 22.0406 13.8899 21.9396 15.4004C21.8387 16.911 21.1704 18.3275 20.0689 19.366C18.9673 20.4045 17.5139 20.9882 16.0001 21.0001V21.0001Z" fill="#FDE8FF"/>
</svg>
