<svg width="24" height="24" viewBox="0 0 24 24" fill="none" xmlns="http://www.w3.org/2000/svg">
<g clip-path="url(#clip0_395_5361)">
<path d="M18.7461 20.3341C18.8336 20.4321 18.901 20.5465 18.9443 20.6706C18.9876 20.7947 19.0061 20.9261 18.9985 21.0574C18.991 21.1886 18.9577 21.3171 18.9005 21.4354C18.8432 21.5538 18.7632 21.6597 18.6651 21.7471L17.0791 23.1611C16.8073 23.4301 16.4851 23.6427 16.1308 23.7867C15.7766 23.9307 15.3974 24.0032 15.0151 24.0001C14.6185 24.0009 14.2257 23.9234 13.8591 23.772C13.4926 23.6207 13.1595 23.3984 12.8791 23.1181L11.3351 21.7441C11.237 21.6568 11.157 21.551 11.0998 21.4327C11.0426 21.3145 11.0092 21.1862 11.0016 21.0551C10.9862 20.7903 11.0767 20.5302 11.2531 20.3321C11.4294 20.134 11.6773 20.014 11.9421 19.9986C12.0732 19.991 12.2045 20.0093 12.3286 20.0525C12.4526 20.0956 12.567 20.1628 12.6651 20.2501L14.0001 21.4441V14.0001C14.0001 13.7349 14.1054 13.4805 14.293 13.293C14.4805 13.1054 14.7348 13.0001 15.0001 13.0001C15.2653 13.0001 15.5196 13.1054 15.7072 13.293C15.8947 13.4805 16.0001 13.7349 16.0001 14.0001V21.4451L17.3351 20.2531C17.533 20.0769 17.7928 19.9864 18.0573 20.0016C18.3219 20.0168 18.5696 20.1364 18.7461 20.3341V20.3341ZM18.3561 7.36108C18.1844 7.30776 18.0285 7.21272 17.9025 7.08446C17.7766 6.9562 17.6843 6.79871 17.6341 6.62608C17.1046 4.92617 16.0231 3.45147 14.561 2.43549C13.0989 1.41951 11.3396 0.920325 9.56176 1.01697C7.78392 1.11362 6.08912 1.80057 4.74574 2.96906C3.40235 4.13755 2.48715 5.72079 2.14506 7.46808C1.79405 9.23509 2.07732 11.0693 2.94506 12.6481C1.93351 13.1703 1.11097 13.9963 0.592977 15.0101C0.0749868 16.0238 -0.112427 17.1744 0.0570606 18.3001C0.317712 19.6079 1.01787 20.7872 2.04128 21.6422C3.06468 22.4971 4.34974 22.9763 5.68306 23.0001H8.00006C8.26528 23.0001 8.51963 22.8947 8.70717 22.7072C8.8947 22.5197 9.00006 22.2653 9.00006 22.0001C9.00006 21.7349 8.8947 21.4805 8.70717 21.293C8.51963 21.1054 8.26528 21.0001 8.00006 21.0001H5.68306C4.82902 20.9837 4.00526 20.6808 3.34405 20.14C2.68284 19.5992 2.22254 18.8519 2.03706 18.0181C1.92847 17.3016 2.04696 16.5692 2.37588 15.9235C2.70481 15.2779 3.22767 14.7514 3.87106 14.4181C4.32965 14.1646 4.66999 13.7408 4.8184 13.2383C4.96682 12.7358 4.91137 12.195 4.66406 11.7331C4.27577 10.9925 4.04655 10.179 3.99112 9.34466C3.93568 8.51033 4.05525 7.67362 4.34214 6.88821C4.62904 6.1028 5.07694 5.38603 5.6571 4.78387C6.23727 4.18171 6.93689 3.70747 7.71109 3.39156C8.48529 3.07565 9.31697 2.92505 10.1528 2.94942C10.9886 2.97379 11.8101 3.17259 12.5646 3.53307C13.3191 3.89356 13.9899 4.40776 14.5339 5.04269C15.078 5.67763 15.4834 6.41928 15.7241 7.22008C15.8721 7.70279 16.1357 8.14204 16.4921 8.49966C16.8485 8.85728 17.2869 9.12243 17.7691 9.27208C19.0754 9.66957 20.206 10.5028 20.9724 11.6328C21.7389 12.7628 22.0949 14.1214 21.9811 15.4821C21.9058 16.5401 21.5192 17.5522 20.8701 18.3911C20.7084 18.6014 20.6369 18.8673 20.6713 19.1303C20.7058 19.3934 20.8432 19.6319 21.0536 19.7936C21.2639 19.9552 21.5298 20.0267 21.7928 19.9923C22.0558 19.9579 22.2944 19.8204 22.4561 19.6101C23.3371 18.4614 23.8652 17.0814 23.9761 15.6381C24.1271 13.8238 23.6516 12.0125 22.6289 10.5063C21.6062 9.00011 20.0981 7.89 18.3561 7.36108V7.36108Z" fill="#FDE8FF"/>
</g>
<defs>
<clipPath id="clip0_395_5361">
<rect width="24" height="24" fill="white"/>
</clipPath>
</defs>
</svg>
