<svg width="24" height="24" viewBox="0 0 24 24" fill="none" xmlns="http://www.w3.org/2000/svg">
<g clip-path="url(#clip0_395_5367)">
<path d="M23 4.99999C23 4.20434 22.6839 3.44128 22.1213 2.87867C21.5587 2.31606 20.7957 1.99999 20 1.99999H19.829C19.6214 1.41548 19.2381 0.909503 18.7316 0.551436C18.2251 0.193368 17.6203 0.000749118 17 -7.62939e-06L7.00001 -7.62939e-06C6.37974 0.000749118 5.77488 0.193368 5.2684 0.551436C4.76191 0.909503 4.37859 1.41548 4.17101 1.99999H4.00001C3.39388 2.00399 2.80317 2.1915 2.30571 2.53782C1.80824 2.88415 1.42735 3.37304 1.21322 3.9401C0.999082 4.50716 0.961742 5.12579 1.10612 5.71449C1.25049 6.30319 1.56981 6.83435 2.02201 7.23799L3.57001 19.62C3.72256 20.8286 4.31051 21.9402 5.22373 22.7464C6.13695 23.5527 7.3128 23.9984 8.53101 24H15.469C16.6872 23.9982 17.8629 23.5524 18.7761 22.7462C19.6892 21.94 20.2773 20.8285 20.43 19.62L21.978 7.23799C22.2978 6.95917 22.5544 6.61529 22.7307 6.22935C22.9069 5.8434 22.9987 5.42428 23 4.99999ZM19.117 14H15.917C15.025 8.71299 8.97001 8.71599 8.07901 14H4.87901L4.12901 7.99999H19.867L19.117 14ZM14 15C13.895 18.954 10.105 18.953 10 15C10.105 11.046 13.9 11.047 14 15ZM4.00001 3.99999H5.00001C5.26523 3.99999 5.51958 3.89464 5.70712 3.7071C5.89465 3.51956 6.00001 3.26521 6.00001 2.99999C6.00001 2.73478 6.10537 2.48042 6.2929 2.29289C6.48044 2.10535 6.73479 1.99999 7.00001 1.99999H17C17.2652 1.99999 17.5196 2.10535 17.7071 2.29289C17.8947 2.48042 18 2.73478 18 2.99999C18 3.26521 18.1054 3.51956 18.2929 3.7071C18.4804 3.89464 18.7348 3.99999 19 3.99999H20C20.2652 3.99999 20.5196 4.10535 20.7071 4.29289C20.8947 4.48042 21 4.73478 21 4.99999C21 5.26521 20.8947 5.51956 20.7071 5.7071C20.5196 5.89464 20.2652 5.99999 20 5.99999H4.00001C3.73479 5.99999 3.48044 5.89464 3.2929 5.7071C3.10537 5.51956 3.00001 5.26521 3.00001 4.99999C3.00001 4.73478 3.10537 4.48042 3.2929 4.29289C3.48044 4.10535 3.73479 3.99999 4.00001 3.99999V3.99999ZM18.445 19.372C18.3544 20.0974 18.0019 20.7648 17.4539 21.2487C16.9059 21.7326 16.2001 21.9998 15.469 22H8.53101C7.79976 22 7.09367 21.733 6.54547 21.249C5.99726 20.7651 5.64469 20.0976 5.55401 19.372L5.13301 16H8.08101C8.97301 21.287 15.029 21.284 15.919 16H18.867L18.445 19.372Z" fill="#FDE8FF"/>
</g>
<defs>
<clipPath id="clip0_395_5367">
<rect width="24" height="24" fill="white"/>
</clipPath>
</defs>
</svg>
