<svg width="24" height="24" viewBox="0 0 24 24" fill="none" xmlns="http://www.w3.org/2000/svg">
<g clip-path="url(#clip0_395_5369)">
<path d="M10.4998 16.9999C10.2369 17.0001 9.97643 16.9485 9.73346 16.8479C9.49048 16.7474 9.26972 16.5999 9.08381 16.4139L5.29981 12.7149C5.11018 12.5293 5.00207 12.2759 4.99925 12.0105C4.99644 11.7451 5.09916 11.4895 5.28481 11.2999C5.47046 11.1103 5.72384 11.0022 5.9892 10.9993C6.25457 10.9965 6.51018 11.0993 6.69981 11.2849L10.4928 14.9919L17.2988 8.2919C17.4907 8.12303 17.7401 8.03407 17.9955 8.04331C18.251 8.05255 18.4933 8.15929 18.6725 8.34159C18.8517 8.52389 18.9543 8.7679 18.9592 9.0235C18.9641 9.2791 18.8709 9.52687 18.6988 9.7159L11.9058 16.4229C11.7209 16.6068 11.5015 16.7524 11.2603 16.8514C11.019 16.9505 10.7606 17.0009 10.4998 16.9999ZM23.9998 18.9999V12.3399C24.0371 9.25735 22.9069 6.2748 20.8361 3.99107C18.7653 1.70735 15.9073 0.291539 12.8358 0.0279012C11.1215 -0.0920411 9.40134 0.157641 7.79185 0.760054C6.18235 1.36247 4.72102 2.30356 3.50672 3.51965C2.29243 4.73574 1.35351 6.19847 0.753484 7.80886C0.153457 9.41925 -0.0936746 11.1397 0.0288091 12.8539C0.470809 19.2079 6.08181 23.9999 13.0828 23.9999H18.9998C20.3254 23.9983 21.5963 23.471 22.5336 22.5337C23.4709 21.5963 23.9982 20.3255 23.9998 18.9999V18.9999ZM12.6998 2.0239C15.2663 2.25094 17.6517 3.44081 19.3769 5.35446C21.1021 7.2681 22.0391 9.76372 21.9998 12.3399V18.9999C21.9998 19.7956 21.6837 20.5586 21.1211 21.1212C20.5585 21.6838 19.7955 21.9999 18.9998 21.9999H13.0828C7.04881 21.9999 2.39981 18.0999 2.02481 12.7159C1.92636 11.3445 2.11178 9.9675 2.56949 8.67097C3.0272 7.37444 3.74736 6.18623 4.68498 5.18057C5.6226 4.17491 6.75754 3.37342 8.01888 2.82615C9.28022 2.27888 10.6409 1.99761 12.0158 1.9999C12.2428 1.9999 12.4718 2.0089 12.6998 2.0239Z" fill="#FDE8FF"/>
</g>
<defs>
<clipPath id="clip0_395_5369">
<rect width="24" height="24" fill="white"/>
</clipPath>
</defs>
</svg>
