<svg width="24" height="24" viewBox="0 0 24 24" fill="none" xmlns="http://www.w3.org/2000/svg">
<g clip-path="url(#clip0_395_5373)">
<path d="M23.9999 11.2472C23.8553 8.9072 23.0291 6.66069 21.6231 4.78461C20.2171 2.90852 18.2929 1.48488 16.0876 0.689178C13.8823 -0.10652 11.4924 -0.239484 9.21247 0.306678C6.93253 0.85284 4.86225 2.05425 3.25686 3.7628C1.65147 5.47135 0.581149 7.61235 0.17785 9.92184C-0.225449 12.2313 0.0559044 14.6084 0.987224 16.7599C1.91854 18.9114 3.45912 20.7434 5.41902 22.0299C7.37892 23.3165 9.67246 24.0014 12.0169 24.0002H18.9999C20.3256 23.9989 21.5966 23.4717 22.534 22.5343C23.4714 21.5969 23.9986 20.3259 23.9999 19.0002V11.2472ZM21.9999 19.0002C21.9999 19.7958 21.6838 20.5589 21.1212 21.1215C20.5586 21.6841 19.7956 22.0002 18.9999 22.0002H12.0169C10.6058 21.9995 9.21075 21.7015 7.92261 21.1255C6.63446 20.5495 5.48218 19.7084 4.54091 18.6572C3.59508 17.6065 2.88484 16.3657 2.4578 15.018C2.03077 13.6703 1.89681 12.2469 2.06491 10.8432C2.33034 8.62912 3.3251 6.56637 4.89235 4.98011C6.4596 3.39384 8.51021 2.37429 10.7209 2.08218C11.1521 2.02813 11.5863 2.00075 12.0209 2.00018C14.3514 1.99383 16.6097 2.80809 18.3999 4.30018C19.4454 5.16913 20.3036 6.24134 20.9224 7.45181C21.5413 8.66229 21.9078 9.98582 21.9999 11.3422V19.0002Z" fill="#FDE8FF"/>
<path d="M7.99976 8.99984H11.9998C12.265 8.99984 12.5193 8.89448 12.7069 8.70694C12.8944 8.51941 12.9998 8.26505 12.9998 7.99984C12.9998 7.73462 12.8944 7.48027 12.7069 7.29273C12.5193 7.1052 12.265 6.99984 11.9998 6.99984H7.99976C7.73454 6.99984 7.48019 7.1052 7.29265 7.29273C7.10511 7.48027 6.99976 7.73462 6.99976 7.99984C6.99976 8.26505 7.10511 8.51941 7.29265 8.70694C7.48019 8.89448 7.73454 8.99984 7.99976 8.99984Z" fill="#FDE8FF"/>
<path d="M15.9998 11.0002H7.99976C7.73454 11.0002 7.48019 11.1055 7.29265 11.2931C7.10511 11.4806 6.99976 11.7349 6.99976 12.0002C6.99976 12.2654 7.10511 12.5197 7.29265 12.7073C7.48019 12.8948 7.73454 13.0002 7.99976 13.0002H15.9998C16.265 13.0002 16.5193 12.8948 16.7069 12.7073C16.8944 12.5197 16.9998 12.2654 16.9998 12.0002C16.9998 11.7349 16.8944 11.4806 16.7069 11.2931C16.5193 11.1055 16.265 11.0002 15.9998 11.0002Z" fill="#FDE8FF"/>
<path d="M15.9998 15H7.99976C7.73454 15 7.48019 15.1054 7.29265 15.2929C7.10511 15.4804 6.99976 15.7348 6.99976 16C6.99976 16.2652 7.10511 16.5196 7.29265 16.7071C7.48019 16.8947 7.73454 17 7.99976 17H15.9998C16.265 17 16.5193 16.8947 16.7069 16.7071C16.8944 16.5196 16.9998 16.2652 16.9998 16C16.9998 15.7348 16.8944 15.4804 16.7069 15.2929C16.5193 15.1054 16.265 15 15.9998 15Z" fill="#FDE8FF"/>
</g>
<defs>
<clipPath id="clip0_395_5373">
<rect width="24" height="24" fill="white"/>
</clipPath>
</defs>
</svg>
