<svg width="24" height="24" viewBox="0 0 24 24" fill="none" xmlns="http://www.w3.org/2000/svg">
<g clip-path="url(#clip0_395_5377)">
<path d="M19 0.99984H5C3.6744 1.00143 2.40356 1.52872 1.46622 2.46606C0.528882 3.4034 0.00158786 4.67424 0 5.99984L0 13.9998C0.00158786 15.3254 0.528882 16.5963 1.46622 17.5336C2.40356 18.471 3.6744 18.9983 5 18.9998H11V20.9998H7C6.73478 20.9998 6.48043 21.1052 6.29289 21.2927C6.10536 21.4803 6 21.7346 6 21.9998C6 22.2651 6.10536 22.5194 6.29289 22.7069C6.48043 22.8945 6.73478 22.9998 7 22.9998H17C17.2652 22.9998 17.5196 22.8945 17.7071 22.7069C17.8946 22.5194 18 22.2651 18 21.9998C18 21.7346 17.8946 21.4803 17.7071 21.2927C17.5196 21.1052 17.2652 20.9998 17 20.9998H13V18.9998H19C20.3256 18.9983 21.5964 18.471 22.5338 17.5336C23.4711 16.5963 23.9984 15.3254 24 13.9998V5.99984C23.9984 4.67424 23.4711 3.4034 22.5338 2.46606C21.5964 1.52872 20.3256 1.00143 19 0.99984V0.99984ZM5 2.99984H19C19.7956 2.99984 20.5587 3.31591 21.1213 3.87852C21.6839 4.44113 22 5.20419 22 5.99984V12.9998H2V5.99984C2 5.20419 2.31607 4.44113 2.87868 3.87852C3.44129 3.31591 4.20435 2.99984 5 2.99984V2.99984ZM19 16.9998H5C4.38174 16.9973 3.77937 16.8038 3.2753 16.4458C2.77123 16.0877 2.39008 15.5827 2.184 14.9998H21.816C21.6099 15.5827 21.2288 16.0877 20.7247 16.4458C20.2206 16.8038 19.6183 16.9973 19 16.9998Z" fill="#FDE8FF"/>
</g>
<defs>
<clipPath id="clip0_395_5377">
<rect width="24" height="24" fill="white"/>
</clipPath>
</defs>
</svg>
