<svg width="24" height="24" viewBox="0 0 24 24" fill="none" xmlns="http://www.w3.org/2000/svg">
<g clip-path="url(#clip0_395_5378)">
<path d="M4.99975 14C5.55204 14 5.99975 13.5523 5.99975 13C5.99975 12.4477 5.55204 12 4.99975 12C4.44747 12 3.99976 12.4477 3.99976 13C3.99976 13.5523 4.44747 14 4.99975 14Z" fill="#FDE8FF"/>
<path d="M1 10.0001C1.55228 10.0001 2 9.55243 2 9.00014C2 8.44786 1.55228 8.00014 1 8.00014C0.447715 8.00014 0 8.44786 0 9.00014C0 9.55243 0.447715 10.0001 1 10.0001Z" fill="#FDE8FF"/>
<path d="M4.99975 5.99984C5.55204 5.99984 5.99975 5.55212 5.99975 4.99984C5.99975 4.44755 5.55204 3.99984 4.99975 3.99984C4.44747 3.99984 3.99976 4.44755 3.99976 4.99984C3.99976 5.55212 4.44747 5.99984 4.99975 5.99984Z" fill="#FDE8FF"/>
<path d="M1 2C1.55228 2 2 1.55228 2 1C2 0.447715 1.55228 0 1 0C0.447715 0 0 0.447715 0 1C0 1.55228 0.447715 2 1 2Z" fill="#FDE8FF"/>
<path d="M22.9997 14C23.552 14 23.9997 13.5523 23.9997 13C23.9997 12.4477 23.552 12 22.9997 12C22.4475 12 21.9998 12.4477 21.9998 13C21.9998 13.5523 22.4475 14 22.9997 14Z" fill="#FDE8FF"/>
<path d="M19 10.0001C19.5523 10.0001 20 9.55243 20 9.00014C20 8.44786 19.5523 8.00014 19 8.00014C18.4477 8.00014 18 8.44786 18 9.00014C18 9.55243 18.4477 10.0001 19 10.0001Z" fill="#FDE8FF"/>
<path d="M22.9997 5.99984C23.552 5.99984 23.9997 5.55212 23.9997 4.99984C23.9997 4.44755 23.552 3.99984 22.9997 3.99984C22.4475 3.99984 21.9998 4.44755 21.9998 4.99984C21.9998 5.55212 22.4475 5.99984 22.9997 5.99984Z" fill="#FDE8FF"/>
<path d="M19 1.99999C19.5523 1.99999 20 1.55228 20 0.999992C20 0.447708 19.5523 -7.62939e-06 19 -7.62939e-06C18.4477 -7.62939e-06 18 0.447708 18 0.999992C18 1.55228 18.4477 1.99999 19 1.99999Z" fill="#FDE8FF"/>
<path d="M13.9998 23.9998C14.552 23.9998 14.9998 23.5521 14.9998 22.9998C14.9998 22.4476 14.552 21.9999 13.9998 21.9999C13.4475 21.9999 12.9998 22.4476 12.9998 22.9998C12.9998 23.5521 13.4475 23.9998 13.9998 23.9998Z" fill="#FDE8FF"/>
<path d="M10 20C10.5523 20 11 19.5523 11 19C11 18.4477 10.5523 18 10 18C9.44771 18 9 18.4477 9 19C9 19.5523 9.44771 20 10 20Z" fill="#FDE8FF"/>
<path d="M13.9998 16.0002C14.552 16.0002 14.9998 15.5524 14.9998 15.0002C14.9998 14.4479 14.552 14.0001 13.9998 14.0001C13.4475 14.0001 12.9998 14.4479 12.9998 15.0002C12.9998 15.5524 13.4475 16.0002 13.9998 16.0002Z" fill="#FDE8FF"/>
<path d="M10 11.9999C10.5523 11.9999 11 11.5521 11 10.9998C11 10.4476 10.5523 9.99984 10 9.99984C9.44771 9.99984 9 10.4476 9 10.9998C9 11.5521 9.44771 11.9999 10 11.9999Z" fill="#FDE8FF"/>
<path d="M15.0002 2.99999C14.4698 2.99999 13.9611 2.78928 13.586 2.41421C13.2109 2.03913 13.0002 1.53043 13.0002 0.999992C13.0002 0.734776 12.8949 0.480422 12.7073 0.292886C12.5198 0.105349 12.2655 -7.62939e-06 12.0002 -7.62939e-06C11.735 -7.62939e-06 11.4807 0.105349 11.2931 0.292886C11.1056 0.480422 11.0002 0.734776 11.0002 0.999992V0.999992C11.0002 1.53043 10.7895 2.03913 10.4145 2.41421C10.0394 2.78928 9.53067 2.99999 9.00024 2.99999C8.73503 2.99999 8.48067 3.10535 8.29314 3.29289C8.1056 3.48042 8.00024 3.73478 8.00024 3.99999C8.00024 4.26521 8.1056 4.51956 8.29314 4.7071C8.48067 4.89464 8.73503 4.99999 9.00024 4.99999V4.99999C9.53067 4.99999 10.0394 5.21071 10.4145 5.58578C10.7895 5.96085 11.0002 6.46956 11.0002 6.99999C11.0002 7.26521 11.1056 7.51956 11.2931 7.7071C11.4807 7.89464 11.735 7.99999 12.0002 7.99999C12.2655 7.99999 12.5198 7.89464 12.7073 7.7071C12.8949 7.51956 13.0002 7.26521 13.0002 6.99999C13.0002 6.46956 13.2109 5.96085 13.586 5.58578C13.9611 5.21071 14.4698 4.99999 15.0002 4.99999C15.2654 4.99999 15.5198 4.89464 15.7073 4.7071C15.8949 4.51956 16.0002 4.26521 16.0002 3.99999C16.0002 3.73478 15.8949 3.48042 15.7073 3.29289C15.5198 3.10535 15.2654 2.99999 15.0002 2.99999V2.99999Z" fill="#FDE8FF"/>
<path d="M7 18.9998C6.46957 18.9998 5.96086 18.7891 5.58579 18.4141C5.21071 18.039 5 17.5303 5 16.9999C5 16.7346 4.89464 16.4803 4.70711 16.2927C4.51957 16.1052 4.26522 15.9999 4 15.9999C3.73478 15.9999 3.48043 16.1052 3.29289 16.2927C3.10536 16.4803 3 16.7346 3 16.9999V16.9999C3 17.5303 2.78929 18.039 2.41421 18.4141C2.03914 18.7891 1.53043 18.9998 1 18.9998C0.734784 18.9998 0.48043 19.1052 0.292893 19.2927C0.105357 19.4803 0 19.7346 0 19.9998C0 20.2651 0.105357 20.5194 0.292893 20.707C0.48043 20.8945 0.734784 20.9998 1 20.9998V20.9998C1.53043 20.9998 2.03914 21.2106 2.41421 21.5856C2.78929 21.9607 3 22.4694 3 22.9998C3 23.2651 3.10536 23.5194 3.29289 23.7069C3.48043 23.8945 3.73478 23.9998 4 23.9998C4.26522 23.9998 4.51957 23.8945 4.70711 23.7069C4.89464 23.5194 5 23.2651 5 22.9998C5 22.4694 5.21071 21.9607 5.58579 21.5856C5.96086 21.2106 6.46957 20.9998 7 20.9998V20.9998C7.26522 20.9998 7.51957 20.8945 7.70711 20.707C7.89464 20.5194 8 20.2651 8 19.9998C8 19.7346 7.89464 19.4803 7.70711 19.2927C7.51957 19.1052 7.26522 18.9998 7 18.9998Z" fill="#FDE8FF"/>
<path d="M22.9997 18.9998C22.4693 18.9998 21.9606 18.7891 21.5855 18.4141C21.2105 18.039 20.9997 17.5303 20.9997 16.9999C20.9997 16.7346 20.8944 16.4803 20.7069 16.2927C20.5193 16.1052 20.265 15.9999 19.9997 15.9999C19.7345 15.9999 19.4802 16.1052 19.2926 16.2927C19.1051 16.4803 18.9998 16.7346 18.9998 16.9999C18.9998 17.5303 18.789 18.039 18.414 18.4141C18.0389 18.7891 17.5302 18.9998 16.9998 18.9998C16.7345 18.9998 16.4802 19.1052 16.2926 19.2927C16.1051 19.4803 15.9998 19.7346 15.9998 19.9998C15.9998 20.2651 16.1051 20.5194 16.2926 20.707C16.4802 20.8945 16.7345 20.9998 16.9998 20.9998C17.5302 20.9998 18.0389 21.2106 18.414 21.5856C18.789 21.9607 18.9998 22.4694 18.9998 22.9998C18.9998 23.2651 19.1051 23.5194 19.2926 23.7069C19.4802 23.8945 19.7345 23.9998 19.9997 23.9998C20.265 23.9998 20.5193 23.8945 20.7069 23.7069C20.8944 23.5194 20.9997 23.2651 20.9997 22.9998C20.9997 22.4694 21.2105 21.9607 21.5855 21.5856C21.9606 21.2106 22.4693 20.9998 22.9997 20.9998V20.9998C23.265 20.9998 23.5193 20.8945 23.7068 20.707C23.8944 20.5194 23.9997 20.2651 23.9997 19.9998C23.9997 19.7346 23.8944 19.4803 23.7068 19.2927C23.5193 19.1052 23.265 18.9998 22.9997 18.9998Z" fill="#FDE8FF"/>
</g>
<defs>
<clipPath id="clip0_395_5378">
<rect width="24" height="24" fill="white"/>
</clipPath>
</defs>
</svg>
