<svg width="24" height="24" viewBox="0 0 24 24" fill="none" xmlns="http://www.w3.org/2000/svg">
<g clip-path="url(#clip0_395_5379)">
<path d="M9.50024 11.0001C10.3287 11.0001 11.0002 10.3286 11.0002 9.50014C11.0002 8.67172 10.3287 8.00014 9.50024 8.00014C8.67182 8.00014 8.00024 8.67172 8.00024 9.50014C8.00024 10.3286 8.67182 11.0001 9.50024 11.0001Z" fill="#FDE8FF"/>
<path d="M18.5002 2.99999C19.3287 2.99999 20.0002 2.32842 20.0002 1.49999C20.0002 0.671565 19.3287 -7.62939e-06 18.5002 -7.62939e-06C17.6718 -7.62939e-06 17.0002 0.671565 17.0002 1.49999C17.0002 2.32842 17.6718 2.99999 18.5002 2.99999Z" fill="#FDE8FF"/>
<path d="M21.5002 8.00015C22.3287 8.00015 23.0002 7.32858 23.0002 6.50015C23.0002 5.67173 22.3287 5.00015 21.5002 5.00015C20.6718 5.00015 20.0002 5.67173 20.0002 6.50015C20.0002 7.32858 20.6718 8.00015 21.5002 8.00015Z" fill="#FDE8FF"/>
<path d="M9.50024 15.9999C10.3287 15.9999 11.0002 15.3283 11.0002 14.4999C11.0002 13.6714 10.3287 12.9999 9.50024 12.9999C8.67182 12.9999 8.00024 13.6714 8.00024 14.4999C8.00024 15.3283 8.67182 15.9999 9.50024 15.9999Z" fill="#FDE8FF"/>
<path d="M14.4998 15.9999C15.3282 15.9999 15.9998 15.3283 15.9998 14.4999C15.9998 13.6714 15.3282 12.9999 14.4998 12.9999C13.6713 12.9999 12.9998 13.6714 12.9998 14.4999C12.9998 15.3283 13.6713 15.9999 14.4998 15.9999Z" fill="#FDE8FF"/>
<path d="M23.943 10.854C23.9208 10.6228 23.8189 10.4066 23.6547 10.2423C23.4905 10.0781 23.2742 9.97617 23.043 9.954C20.7327 9.73141 18.5717 8.71208 16.9306 7.07077C15.2894 5.42945 14.2703 3.26837 14.048 0.958C14.0258 0.726814 13.9239 0.510552 13.7597 0.346329C13.5955 0.182106 13.3792 0.0801645 13.148 0.058C12.769 0.021 12.387 0 12 0C9.62663 0 7.30655 0.703788 5.33316 2.02236C3.35977 3.34094 1.8217 5.21509 0.913451 7.4078C0.00519943 9.60051 -0.232441 12.0133 0.230582 14.3411C0.693605 16.6689 1.83649 18.8071 3.51472 20.4853C5.19295 22.1635 7.33115 23.3064 9.65892 23.7694C11.9867 24.2324 14.3995 23.9948 16.5922 23.0866C18.7849 22.1783 20.6591 20.6402 21.9776 18.6668C23.2962 16.6935 24 14.3734 24 12C24 11.613 23.979 11.231 23.943 10.854ZM12 22C9.34784 22 6.8043 20.9464 4.92894 19.0711C3.05357 17.1957 2.00001 14.6522 2.00001 12C2.00001 9.34784 3.05357 6.8043 4.92894 4.92893C6.8043 3.05357 9.34784 2 12 2H12.17C12.5864 4.45575 13.7563 6.72121 15.5175 8.48247C17.2788 10.2437 19.5443 11.4136 22 11.83C22 11.887 22 11.943 22 12C21.9971 14.6513 20.9426 17.1931 19.0679 19.0679C17.1931 20.9426 14.6513 21.9971 12 22V22Z" fill="#FDE8FF"/>
</g>
<defs>
<clipPath id="clip0_395_5379">
<rect width="24" height="24" fill="white"/>
</clipPath>
</defs>
</svg>
