<svg width="24" height="24" viewBox="0 0 24 24" fill="none" xmlns="http://www.w3.org/2000/svg">
<g clip-path="url(#clip0_395_5380)">
<path d="M13.0002 20.0001C14.3258 19.9985 15.5967 19.4712 16.534 18.5339C17.4714 17.5965 17.9987 16.3257 18.0002 15.0001V6.2431C18.0018 5.71746 17.899 5.19674 17.6978 4.71112C17.4966 4.2255 17.2011 3.78465 16.8282 3.41411L14.5862 1.17211C14.2157 0.799279 13.7748 0.503708 13.2892 0.302525C12.8036 0.101343 12.2829 -0.00145021 11.7572 0.000105128H7.00024C5.67465 0.00169299 4.4038 0.528987 3.46646 1.46633C2.52913 2.40366 2.00183 3.67451 2.00024 5.0001V15.0001C2.00183 16.3257 2.52913 17.5965 3.46646 18.5339C4.4038 19.4712 5.67465 19.9985 7.00024 20.0001H13.0002ZM4.00024 15.0001V5.0001C4.00024 4.20446 4.31631 3.44139 4.87892 2.87878C5.44153 2.31618 6.20459 2.00011 7.00024 2.00011C7.00024 2.00011 11.9192 2.01411 12.0002 2.02411V4.0001C12.0002 4.53054 12.211 5.03925 12.586 5.41432C12.9611 5.78939 13.4698 6.0001 14.0002 6.0001H15.9762C15.9862 6.0811 16.0002 15.0001 16.0002 15.0001C16.0002 15.7958 15.6842 16.5588 15.1216 17.1214C14.559 17.684 13.7959 18.0001 13.0002 18.0001H7.00024C6.20459 18.0001 5.44153 17.684 4.87892 17.1214C4.31631 16.5588 4.00024 15.7958 4.00024 15.0001V15.0001ZM22.0002 8.0001V19.0001C21.9987 20.3257 21.4714 21.5965 20.534 22.5339C19.5967 23.4712 18.3258 23.9985 17.0002 24.0001H8.00024C7.73503 24.0001 7.48067 23.8947 7.29314 23.7072C7.1056 23.5197 7.00024 23.2653 7.00024 23.0001C7.00024 22.7349 7.1056 22.4805 7.29314 22.293C7.48067 22.1055 7.73503 22.0001 8.00024 22.0001H17.0002C17.7959 22.0001 18.559 21.684 19.1216 21.1214C19.6842 20.5588 20.0002 19.7958 20.0002 19.0001V8.0001C20.0002 7.73489 20.1056 7.48053 20.2931 7.293C20.4807 7.10546 20.735 7.0001 21.0002 7.0001C21.2655 7.0001 21.5198 7.10546 21.7074 7.293C21.8949 7.48053 22.0002 7.73489 22.0002 8.0001Z" fill="#FDE8FF"/>
</g>
<defs>
<clipPath id="clip0_395_5380">
<rect width="24" height="24" fill="white"/>
</clipPath>
</defs>
</svg>
