<svg width="24" height="24" viewBox="0 0 24 24" fill="none" xmlns="http://www.w3.org/2000/svg">
<g clip-path="url(#clip0_395_5382)">
<path d="M12 0C9.62663 0 7.30655 0.703788 5.33316 2.02236C3.35977 3.34094 1.8217 5.21509 0.913451 7.4078C0.00519943 9.60051 -0.232441 12.0133 0.230582 14.3411C0.693605 16.6689 1.83649 18.8071 3.51472 20.4853C5.19295 22.1635 7.33115 23.3064 9.65892 23.7694C11.9867 24.2324 14.3995 23.9948 16.5922 23.0866C18.7849 22.1783 20.6591 20.6402 21.9776 18.6668C23.2962 16.6935 24 14.3734 24 12C23.9966 8.81846 22.7312 5.76821 20.4815 3.51852C18.2318 1.26883 15.1815 0.00344108 12 0V0ZM12 22C10.0222 22 8.08879 21.4135 6.4443 20.3147C4.79981 19.2159 3.51809 17.6541 2.76121 15.8268C2.00433 13.9996 1.8063 11.9889 2.19215 10.0491C2.578 8.10929 3.53041 6.32746 4.92894 4.92893C6.32746 3.53041 8.10929 2.578 10.0491 2.19215C11.9889 1.8063 13.9996 2.00433 15.8268 2.76121C17.6541 3.51808 19.2159 4.79981 20.3147 6.4443C21.4135 8.08879 22 10.0222 22 12C21.9971 14.6513 20.9426 17.1931 19.0679 19.0679C17.1931 20.9426 14.6513 21.9971 12 22V22Z" fill="#FDE8FF"/>
<path d="M15.5362 8.46409C15.7248 8.64625 15.9774 8.74705 16.2396 8.74477C16.5018 8.74249 16.7526 8.63732 16.938 8.45191C17.1235 8.26651 17.2286 8.01569 17.2309 7.7535C17.2332 7.4913 17.1324 7.2387 16.9502 7.0501C15.9712 6.0712 14.7239 5.40458 13.3661 5.13455C12.0083 4.86451 10.6008 5.00317 9.32178 5.53301C8.04274 6.06284 6.94953 6.96005 6.1804 8.11118C5.41126 9.26231 5.00073 10.6157 5.00073 12.0001C5.00073 13.3845 5.41126 14.7379 6.1804 15.889C6.94953 17.0401 8.04274 17.9374 9.32178 18.4672C10.6008 18.997 12.0083 19.1357 13.3661 18.8656C14.7239 18.5956 15.9712 17.929 16.9502 16.9501C17.1324 16.7615 17.2332 16.5089 17.2309 16.2467C17.2286 15.9845 17.1235 15.7337 16.938 15.5483C16.7526 15.3629 16.5018 15.2577 16.2396 15.2554C15.9774 15.2531 15.7248 15.3539 15.5362 15.5361C14.8369 16.2352 13.946 16.7113 12.9761 16.9041C12.0063 17.0969 11.001 16.9978 10.0874 16.6194C9.17388 16.2409 8.39307 15.6 7.84372 14.7778C7.29437 13.9556 7.00116 12.9889 7.00116 12.0001C7.00116 11.0112 7.29437 10.0446 7.84372 9.22238C8.39307 8.40016 9.17388 7.7593 10.0874 7.38082C11.001 7.00235 12.0063 6.90325 12.9761 7.09607C13.946 7.28889 14.8369 7.76496 15.5362 8.46409V8.46409Z" fill="#FDE8FF"/>
</g>
<defs>
<clipPath id="clip0_395_5382">
<rect width="24" height="24" fill="white"/>
</clipPath>
</defs>
</svg>
