<svg width="24" height="24" viewBox="0 0 24 24" fill="none" xmlns="http://www.w3.org/2000/svg">
<g clip-path="url(#clip0_395_5386)">
<path d="M22.375 3.78489C20.8791 2.9334 19.2336 2.377 17.528 2.14589C17.2697 1.64897 16.9104 1.21159 16.473 0.861891C16.0019 0.487319 15.4518 0.224861 14.8643 0.0943994C14.2768 -0.0360626 13.6673 -0.0311071 13.082 0.108891C11.831 0.424564 10.6176 0.874161 9.46297 1.44989C8.64329 1.06017 7.72774 0.917971 6.82847 1.0407C5.92919 1.16344 5.08524 1.54578 4.39997 2.14089C4.03297 2.45589 3.66397 2.78489 3.29997 3.12389C2.91797 3.48289 2.52897 3.89089 2.14097 4.33389C1.65481 4.88971 1.30785 5.5532 1.12876 6.26959C0.94966 6.98597 0.943563 7.73469 1.11097 8.45389C1.18825 8.79339 1.3026 9.12337 1.45197 9.43789C0.87233 10.6007 0.419071 11.8224 0.0999666 13.0819C-0.0406312 13.6672 -0.045888 14.2768 0.0845961 14.8644C0.21508 15.452 0.477868 16.0021 0.852967 16.4729C1.20631 16.9149 1.6494 17.2768 2.15297 17.5349C2.38468 19.2381 2.94071 20.881 3.79097 22.3749C4.12085 22.9675 4.63222 23.4386 5.24984 23.7189C5.86747 23.9992 6.55874 24.0738 7.22197 23.9319C7.90802 23.796 8.53216 23.443 9.00217 22.9251C9.47217 22.4072 9.7631 21.7519 9.83197 21.0559C10.0186 19.7685 10.357 18.5077 10.84 17.2999C10.84 17.2999 11.385 16.9639 11.634 16.7609C12.2335 16.258 12.6591 15.5788 12.85 14.8199C13.3123 14.6668 13.7327 14.4084 14.078 14.0649C14.4143 13.7226 14.6686 13.3086 14.822 12.8539C15.5782 12.662 16.2549 12.2369 16.756 11.6389C16.956 11.3899 17.296 10.8439 17.296 10.8439C18.5012 10.3479 19.7647 10.0075 21.056 9.83089C21.7519 9.76203 22.4073 9.4711 22.9252 9.00109C23.4431 8.53109 23.7961 7.90694 23.932 7.22089C24.0762 6.55689 24.0027 5.86408 23.7222 5.24517C23.4417 4.62626 22.9693 4.1142 22.375 3.78489V3.78489ZM7.83897 20.8329C7.8149 21.1087 7.70164 21.3692 7.51634 21.5748C7.33103 21.7805 7.08377 21.9203 6.81197 21.9729C6.56186 22.0298 6.29997 22.0029 6.06667 21.8963C5.83337 21.7896 5.64162 21.6093 5.52097 21.3829C4.91957 20.3296 4.48857 19.1878 4.24397 17.9999H8.14397C8.25297 17.9999 8.35897 17.9779 8.46697 17.9719C8.18097 18.8549 7.83897 20.8289 7.83897 20.8329ZM10.369 15.2069C9.74111 15.7188 8.95608 15.9989 8.14597 15.9999H3.99997C3.69577 16.0005 3.39544 15.9318 3.12182 15.7989C2.8482 15.666 2.6085 15.4724 2.42097 15.2329C2.23391 14.9985 2.10273 14.7246 2.0374 14.4319C1.97208 14.1393 1.97432 13.8356 2.04397 13.5439C2.24417 12.7366 2.51177 11.9475 2.84397 11.1849C3.15268 11.4265 3.49069 11.6281 3.84997 11.7849L10.527 14.7089C10.589 14.7379 10.655 14.7489 10.718 14.7729C10.6285 14.9372 10.5103 15.0842 10.369 15.2069V15.2069ZM12.654 12.6549C12.4869 12.8243 12.2714 12.9378 12.0371 12.9797C11.8029 13.0216 11.5614 12.9899 11.346 12.8889L4.65297 9.95789C4.25391 9.78305 3.9021 9.51589 3.62653 9.17842C3.35096 8.84096 3.15951 8.44285 3.06797 8.01689C2.97091 7.60399 2.97343 7.17394 3.07532 6.7622C3.17721 6.35047 3.37555 5.96887 3.65397 5.64889C3.99997 5.25489 4.34197 4.89489 4.67697 4.57989C5.01197 4.26489 5.35897 3.95489 5.70397 3.65989C6.02236 3.38279 6.40159 3.18466 6.81089 3.08157C7.22019 2.97848 7.64803 2.97334 8.05969 3.06656C8.47135 3.15978 8.85523 3.34874 9.18019 3.61811C9.50515 3.88748 9.76202 4.22966 9.92997 4.61689L12.894 11.3069C12.9931 11.5299 13.0233 11.7774 12.9805 12.0177C12.9377 12.2579 12.824 12.4798 12.654 12.6549ZM16 8.14589C15.9993 8.95589 15.7196 9.74093 15.208 10.3689C15.0911 10.5043 14.9521 10.6189 14.797 10.7079C14.771 10.6379 14.752 10.5659 14.722 10.4969L11.759 3.80789C11.6092 3.46828 11.4206 3.14714 11.197 2.85089C11.9557 2.51954 12.7408 2.25195 13.544 2.05089C13.8356 1.9811 14.1394 1.97878 14.4321 2.04411C14.7247 2.10944 14.9987 2.2407 15.233 2.42789C15.473 2.61584 15.6669 2.85618 15.7998 3.13054C15.9328 3.4049 16.0012 3.70602 16 4.01089V8.14589ZM21.973 6.81189C21.9203 7.08369 21.7806 7.33096 21.5749 7.51626C21.3692 7.70156 21.1088 7.81482 20.833 7.83889C20.833 7.83889 18.855 8.18089 17.972 8.46889C17.979 8.36089 18 8.25489 18 8.14589V4.24589C19.1879 4.4905 20.3297 4.92149 21.383 5.52289C21.6086 5.64383 21.7884 5.83531 21.8949 6.06807C22.0015 6.30084 22.0289 6.56209 21.973 6.81189V6.81189Z" fill="#FDE8FF"/>
</g>
<defs>
<clipPath id="clip0_395_5386">
<rect width="24" height="24" fill="white"/>
</clipPath>
</defs>
</svg>
