<svg width="24" height="24" viewBox="0 0 24 24" fill="none" xmlns="http://www.w3.org/2000/svg">
<g clip-path="url(#clip0_395_5389)">
<path d="M23.707 0.293145C23.5195 0.105674 23.2652 0.000358582 23 0.000358582C22.7349 0.000358582 22.4806 0.105674 22.293 0.293145L12 10.5861L1.70703 0.293145C1.5195 0.105674 1.26519 0.000358582 1.00003 0.000358582C0.734866 0.000358582 0.480558 0.105674 0.293031 0.293145V0.293145C0.10556 0.480673 0.000244141 0.734981 0.000244141 1.00015C0.000244141 1.26531 0.10556 1.51962 0.293031 1.70715L10.586 12.0001L0.293031 22.2931C0.10556 22.4807 0.000244141 22.735 0.000244141 23.0001C0.000244141 23.2653 0.10556 23.5196 0.293031 23.7071V23.7071C0.480558 23.8946 0.734866 23.9999 1.00003 23.9999C1.26519 23.9999 1.5195 23.8946 1.70703 23.7071L12 13.4141L22.293 23.7071C22.4806 23.8946 22.7349 23.9999 23 23.9999C23.2652 23.9999 23.5195 23.8946 23.707 23.7071C23.8945 23.5196 23.9998 23.2653 23.9998 23.0001C23.9998 22.735 23.8945 22.4807 23.707 22.2931L13.414 12.0001L23.707 1.70715C23.8945 1.51962 23.9998 1.26531 23.9998 1.00015C23.9998 0.734981 23.8945 0.480673 23.707 0.293145V0.293145Z" fill="#FDE8FF"/>
</g>
<defs>
<clipPath id="clip0_395_5389">
<rect width="24" height="24" fill="white"/>
</clipPath>
</defs>
</svg>
