<svg width="24" height="24" viewBox="0 0 24 24" fill="none" xmlns="http://www.w3.org/2000/svg">
<g clip-path="url(#clip0_395_5391)">
<path d="M20.5269 4.21691L14.4999 0.736912C13.7393 0.299534 12.8773 0.0693512 11.9999 0.0693512C11.1225 0.0693512 10.2605 0.299534 9.4999 0.736912L3.4729 4.21691C2.71378 4.65683 2.08337 5.28824 1.64467 6.04806C1.20597 6.80789 0.974336 7.66953 0.9729 8.54691V15.5069C0.974363 16.3844 1.206 17.2462 1.64469 18.0062C2.08338 18.7662 2.71376 19.3978 3.4729 19.8379L9.4999 23.3169C10.2604 23.7546 11.1225 23.9849 11.9999 23.9849C12.8773 23.9849 13.7394 23.7546 14.4999 23.3169L20.5269 19.8379C21.286 19.3978 21.9164 18.7662 22.3551 18.0062C22.7938 17.2462 23.0254 16.3844 23.0269 15.5069V8.54691C23.0255 7.66953 22.7938 6.80789 22.3551 6.04806C21.9164 5.28824 21.286 4.65683 20.5269 4.21691V4.21691ZM10.4999 2.46991C10.956 2.20661 11.4733 2.06799 11.9999 2.06799C12.5265 2.06799 13.0438 2.20661 13.4999 2.46991L19.5269 5.94891C19.6797 6.04551 19.8233 6.15598 19.9559 6.27891L13.7629 9.85391C13.2267 10.163 12.6188 10.3257 11.9999 10.3257C11.381 10.3257 10.7731 10.163 10.2369 9.85391L4.0439 6.27891C4.17647 6.15598 4.32007 6.04551 4.4729 5.94891L10.4999 2.46991ZM4.4729 18.1049C4.01711 17.8408 3.63865 17.4617 3.37541 17.0054C3.11217 16.5491 2.97337 16.0317 2.9729 15.5049V8.54691C2.97984 8.36676 3.00361 8.18764 3.0439 8.01191L9.2369 11.5869C9.78384 11.898 10.3802 12.1128 10.9999 12.2219V21.7909C10.8272 21.738 10.6598 21.669 10.4999 21.5849L4.4729 18.1049ZM21.0269 15.5049C21.0264 16.0317 20.8876 16.5491 20.6244 17.0054C20.3611 17.4617 19.9827 17.8408 19.5269 18.1049L13.4999 21.5849C13.34 21.669 13.1726 21.738 12.9999 21.7909V12.2219C13.6196 12.1128 14.216 11.898 14.7629 11.5869L20.9559 8.01191C20.9962 8.18764 21.02 8.36676 21.0269 8.54691V15.5049Z" fill="#FDE8FF"/>
</g>
<defs>
<clipPath id="clip0_395_5391">
<rect width="24" height="24" fill="white"/>
</clipPath>
</defs>
</svg>
