<svg width="24" height="24" viewBox="0 0 24 24" fill="none" xmlns="http://www.w3.org/2000/svg">
<g clip-path="url(#clip0_395_5398)">
<path d="M20 0.000174109H18.243C17.7174 -0.00121545 17.1967 0.101653 16.7111 0.302826C16.2255 0.503999 15.7847 0.799482 15.414 1.17217L12.172 4.41417C11.4239 5.1655 11.0027 6.18187 11 7.24217V10.7052C7.73403 13.1202 3.41903 16.3382 2.87903 16.8792C2.44393 17.3172 2.15492 17.879 2.05162 18.4877C1.94833 19.0964 2.03579 19.7221 2.30203 20.2792L0.293031 22.2932C0.10556 22.4807 0.000244141 22.735 0.000244141 23.0002C0.000244141 23.2653 0.10556 23.5196 0.293031 23.7072C0.480558 23.8946 0.734866 24 1.00003 24C1.26519 24 1.5195 23.8946 1.70703 23.7072L3.71403 21.7002C4.27118 21.9719 4.89948 22.0622 5.51061 21.9584C6.12173 21.8545 6.68494 21.5617 7.12103 21.1212C7.66203 20.5802 10.88 16.2662 13.3 13.0002H16.762C17.2876 13.0016 17.8083 12.8987 18.2939 12.6975C18.7795 12.4963 19.2204 12.2009 19.591 11.8282L22.833 8.58617C23.5794 7.83403 23.9987 6.81776 24 5.75817V4.00017C24 2.93931 23.5786 1.92189 22.8285 1.17175C22.0783 0.421602 21.0609 0.000174109 20 0.000174109V0.000174109ZM5.70703 19.7072C5.5169 19.8897 5.26357 19.9916 5.00003 19.9916C4.73649 19.9916 4.48316 19.8897 4.29303 19.7072C4.10556 19.5196 4.00024 19.2653 4.00024 19.0002C4.00024 18.735 4.10556 18.4807 4.29303 18.2932C4.63203 17.9572 7.29303 15.9502 10.241 13.7592C8.04903 16.7062 6.04203 19.3692 5.70703 19.7072V19.7072ZM22 5.75817C21.9987 6.28832 21.7881 6.79651 21.414 7.17217L18.172 10.4142C17.9866 10.6005 17.766 10.7482 17.5232 10.8488C17.2803 10.9493 17.0199 11.0008 16.757 11.0002H14.771L15.762 9.65217L19.707 5.70717C19.8025 5.61493 19.8787 5.50458 19.9311 5.38258C19.9835 5.26057 20.0111 5.12935 20.0123 4.99658C20.0134 4.8638 19.9881 4.73212 19.9379 4.60922C19.8876 4.48632 19.8133 4.37467 19.7194 4.28078C19.6255 4.18689 19.5139 4.11263 19.391 4.06235C19.2681 4.01207 19.1364 3.98677 19.0036 3.98792C18.8709 3.98908 18.7396 4.01666 18.6176 4.06907C18.4956 4.12148 18.3853 4.19766 18.293 4.29317L14.349 8.23717L13 9.22917V7.24217C13.0013 6.71202 13.212 6.20384 13.586 5.82817L16.828 2.58617C17.0135 2.39988 17.234 2.25218 17.4769 2.1516C17.7198 2.05102 17.9802 1.99955 18.243 2.00017H20C20.5305 2.00017 21.0392 2.21089 21.4142 2.58596C21.7893 2.96103 22 3.46974 22 4.00017V5.75817Z" fill="#FDE8FF"/>
</g>
<defs>
<clipPath id="clip0_395_5398">
<rect width="24" height="24" fill="white"/>
</clipPath>
</defs>
</svg>
