<svg width="24" height="24" viewBox="0 0 24 24" fill="none" xmlns="http://www.w3.org/2000/svg">
<g clip-path="url(#clip0_395_5401)">
<path d="M24.0002 11.5C23.9978 10.8258 23.8431 10.1609 23.5477 9.55481C23.2523 8.94875 22.8238 8.41727 22.2942 8.00003C23.0268 7.42244 23.561 6.63056 23.822 5.73486C24.0831 4.83916 24.0581 3.88431 23.7505 3.00351C23.4428 2.12271 22.868 1.3599 22.106 0.821477C21.3441 0.283057 20.4331 -0.0041122 19.5002 2.89063e-05H4.50016C3.5672 -0.0041122 2.65621 0.283057 1.89427 0.821477C1.13234 1.3599 0.557469 2.12271 0.24985 3.00351C-0.0577687 3.88431 -0.082791 4.83916 0.178274 5.73486C0.439339 6.63056 0.973471 7.42244 1.70616 8.00003C1.1747 8.4156 0.744864 8.94674 0.449244 9.55317C0.153625 10.1596 -1.0832e-05 10.8254 -1.0832e-05 11.5C-1.0832e-05 12.1747 0.153625 12.8405 0.449244 13.4469C0.744864 14.0533 1.1747 14.5845 1.70616 15C0.973471 15.5776 0.439339 16.3695 0.178274 17.2652C-0.082791 18.1609 -0.0577687 19.1157 0.24985 19.9965C0.557469 20.8773 1.13234 21.6402 1.89427 22.1786C2.65621 22.717 3.5672 23.0042 4.50016 23H19.5002C20.4331 23.0042 21.3441 22.717 22.106 22.1786C22.868 21.6402 23.4428 20.8773 23.7505 19.9965C24.0581 19.1157 24.0831 18.1609 23.822 17.2652C23.561 16.3695 23.0268 15.5776 22.2942 15C22.8238 14.5828 23.2523 14.0513 23.5477 13.4452C23.8431 12.8392 23.9978 12.1742 24.0002 11.5ZM2.00016 4.50003C2.00016 3.83699 2.26355 3.2011 2.73239 2.73226C3.20123 2.26342 3.83712 2.00003 4.50016 2.00003H5.00016V3.00003C5.00016 3.26525 5.10551 3.5196 5.29305 3.70714C5.48059 3.89467 5.73494 4.00003 6.00016 4.00003C6.26537 4.00003 6.51973 3.89467 6.70726 3.70714C6.8948 3.5196 7.00016 3.26525 7.00016 3.00003V2.00003H9.00016V3.00003C9.00016 3.26525 9.10551 3.5196 9.29305 3.70714C9.48059 3.89467 9.73494 4.00003 10.0002 4.00003C10.2654 4.00003 10.5197 3.89467 10.7073 3.70714C10.8948 3.5196 11.0002 3.26525 11.0002 3.00003V2.00003H19.5002C20.1632 2.00003 20.7991 2.26342 21.2679 2.73226C21.7368 3.2011 22.0002 3.83699 22.0002 4.50003C22.0002 5.16307 21.7368 5.79896 21.2679 6.2678C20.7991 6.73664 20.1632 7.00003 19.5002 7.00003H4.50016C3.83712 7.00003 3.20123 6.73664 2.73239 6.2678C2.26355 5.79896 2.00016 5.16307 2.00016 4.50003V4.50003ZM22.0002 18.5C22.0002 19.1631 21.7368 19.799 21.2679 20.2678C20.7991 20.7366 20.1632 21 19.5002 21H4.50016C3.83712 21 3.20123 20.7366 2.73239 20.2678C2.26355 19.799 2.00016 19.1631 2.00016 18.5C2.00016 17.837 2.26355 17.2011 2.73239 16.7323C3.20123 16.2634 3.83712 16 4.50016 16H5.00016V17C5.00016 17.2652 5.10551 17.5196 5.29305 17.7071C5.48059 17.8947 5.73494 18 6.00016 18C6.26537 18 6.51973 17.8947 6.70726 17.7071C6.8948 17.5196 7.00016 17.2652 7.00016 17V16H9.00016V17C9.00016 17.2652 9.10551 17.5196 9.29305 17.7071C9.48059 17.8947 9.73494 18 10.0002 18C10.2654 18 10.5197 17.8947 10.7073 17.7071C10.8948 17.5196 11.0002 17.2652 11.0002 17V16H19.5002C20.1632 16 20.7991 16.2634 21.2679 16.7323C21.7368 17.2011 22.0002 17.837 22.0002 18.5ZM4.50016 14C3.83712 14 3.20123 13.7366 2.73239 13.2678C2.26355 12.799 2.00016 12.1631 2.00016 11.5C2.00016 10.837 2.26355 10.2011 2.73239 9.73226C3.20123 9.26342 3.83712 9.00003 4.50016 9.00003H5.00016V10C5.00016 10.2652 5.10551 10.5196 5.29305 10.7071C5.48059 10.8947 5.73494 11 6.00016 11C6.26537 11 6.51973 10.8947 6.70726 10.7071C6.8948 10.5196 7.00016 10.2652 7.00016 10V9.00003H9.00016V10C9.00016 10.2652 9.10551 10.5196 9.29305 10.7071C9.48059 10.8947 9.73494 11 10.0002 11C10.2654 11 10.5197 10.8947 10.7073 10.7071C10.8948 10.5196 11.0002 10.2652 11.0002 10V9.00003H19.5002C20.1632 9.00003 20.7991 9.26342 21.2679 9.73226C21.7368 10.2011 22.0002 10.837 22.0002 11.5C22.0002 12.1631 21.7368 12.799 21.2679 13.2678C20.7991 13.7366 20.1632 14 19.5002 14H4.50016Z" fill="#FDE8FF"/>
</g>
<defs>
<clipPath id="clip0_395_5401">
<rect width="24" height="24" fill="white"/>
</clipPath>
</defs>
</svg>
