<svg width="24" height="24" viewBox="0 0 24 24" fill="none" xmlns="http://www.w3.org/2000/svg">
<g clip-path="url(#clip0_395_5403)">
<path d="M23.2199 5.74296L20.2089 1.67496C19.8386 1.15729 19.3503 0.735324 18.7844 0.444031C18.2186 0.152739 17.5914 0.000507944 16.9549 -4.4014e-05H7.04493C6.41156 -0.000638511 5.7871 0.149179 5.22295 0.437079C4.6588 0.724979 4.17108 1.14273 3.79993 1.65596L0.734925 5.75296C0.235889 6.45665 -0.0218295 7.30303 0.000343227 8.16542C0.022516 9.02782 0.323388 9.85984 0.857925 10.537L9.64993 22.865C9.93011 23.2197 10.2872 23.5063 10.6943 23.7029C11.1014 23.8995 11.5478 24.0011 11.9999 24C12.4598 23.999 12.9133 23.8926 13.3255 23.6889C13.7378 23.4852 14.0978 23.1897 14.3779 22.825L23.0999 10.634C23.6584 9.94694 23.9732 9.09405 23.9949 8.20894C24.0166 7.32383 23.744 6.45653 23.2199 5.74296V5.74296ZM18.5919 2.85096L21.6099 6.92896C21.6259 6.95096 21.6299 6.97696 21.6459 6.99996H16.7539L15.3259 1.99996H16.9549C17.2759 2.00095 17.5919 2.07872 17.8767 2.22676C18.1615 2.3748 18.4067 2.58882 18.5919 2.85096V2.85096ZM11.9999 19.118L9.29993 8.99996H14.6999L11.9999 19.118ZM9.32593 6.99996L10.7539 1.99996H13.2459L14.6739 6.99996H9.32593ZM5.41692 2.83696C5.60247 2.57834 5.84687 2.36757 6.12994 2.22204C6.41301 2.0765 6.72664 2.00038 7.04493 1.99996H8.67393L7.24592 6.99996H2.31793C2.33193 6.97796 2.33593 6.95096 2.35193 6.92996L5.41692 2.83696ZM2.44793 9.32496C2.37572 9.22297 2.31375 9.11411 2.26293 8.99996H7.23193L10.2259 20.23L2.44793 9.32496ZM13.7709 20.24L16.7709 8.99996H21.7569C21.6925 9.14922 21.6109 9.2905 21.5139 9.42096L13.7709 20.24Z" fill="#FDE8FF"/>
</g>
<defs>
<clipPath id="clip0_395_5403">
<rect width="24" height="24" fill="white"/>
</clipPath>
</defs>
</svg>
