<svg width="24" height="24" viewBox="0 0 24 24" fill="none" xmlns="http://www.w3.org/2000/svg">
<g clip-path="url(#clip0_395_5407)">
<path d="M12 9.99984C11.2089 9.99984 10.4355 10.2344 9.77772 10.674C9.11993 11.1135 8.60723 11.7382 8.30448 12.4691C8.00173 13.2 7.92252 14.0043 8.07686 14.7802C8.2312 15.5561 8.61216 16.2689 9.17157 16.8283C9.73098 17.3877 10.4437 17.7686 11.2196 17.923C11.9956 18.0773 12.7998 17.9981 13.5307 17.6954C14.2616 17.3926 14.8864 16.8799 15.3259 16.2221C15.7654 15.5643 16 14.791 16 13.9998C16 12.939 15.5786 11.9216 14.8284 11.1714C14.0783 10.4213 13.0609 9.99984 12 9.99984V9.99984ZM12 15.9998C11.6044 15.9998 11.2178 15.8825 10.8889 15.6628C10.56 15.443 10.3036 15.1307 10.1522 14.7652C10.0009 14.3998 9.96126 13.9976 10.0384 13.6097C10.1156 13.2217 10.3061 12.8653 10.5858 12.5856C10.8655 12.3059 11.2219 12.1154 11.6098 12.0383C11.9978 11.9611 12.3999 12.0007 12.7654 12.1521C13.1308 12.3035 13.4432 12.5598 13.6629 12.8887C13.8827 13.2176 14 13.6043 14 13.9998C14 14.5303 13.7893 15.039 13.4142 15.4141C13.0391 15.7891 12.5304 15.9998 12 15.9998Z" fill="#FDE8FF"/>
<path d="M22.536 4.122L19.878 1.464C19.4149 0.998339 18.8639 0.629176 18.2572 0.377879C17.6504 0.126582 16.9998 -0.00185745 16.343 -3.09191e-06H5C3.6744 0.00158477 2.40356 0.528879 1.46622 1.46622C0.528882 2.40355 0.00158786 3.6744 0 5L0 19C0.00158786 20.3256 0.528882 21.5964 1.46622 22.5338C2.40356 23.4711 3.6744 23.9984 5 24H19C20.3256 23.9984 21.5964 23.4711 22.5338 22.5338C23.4711 21.5964 23.9984 20.3256 24 19V7.657C24.0019 7.00023 23.8734 6.34963 23.6221 5.74284C23.3708 5.13605 23.0017 4.58514 22.536 4.122V4.122ZM17 2.08V3C17 3.79565 16.6839 4.55871 16.1213 5.12132C15.5587 5.68393 14.7956 6 14 6H10C9.20435 6 8.44129 5.68393 7.87868 5.12132C7.31607 4.55871 7 3.79565 7 3V2H16.343C16.5643 2.00196 16.7847 2.02879 17 2.08V2.08ZM22 19C22 19.7956 21.6839 20.5587 21.1213 21.1213C20.5587 21.6839 19.7956 22 19 22H5C4.20435 22 3.44129 21.6839 2.87868 21.1213C2.31607 20.5587 2 19.7956 2 19V5C2 4.20435 2.31607 3.44129 2.87868 2.87868C3.44129 2.31607 4.20435 2 5 2V3C5.00159 4.32559 5.52888 5.59644 6.46622 6.53378C7.40356 7.47112 8.6744 7.99841 10 8H14C15.2575 7.99609 16.4672 7.51766 17.3871 6.66036C18.3071 5.80306 18.8695 4.63009 18.962 3.376L21.122 5.536C21.6824 6.09987 21.9979 6.86199 22 7.657V19Z" fill="#FDE8FF"/>
</g>
<defs>
<clipPath id="clip0_395_5407">
<rect width="24" height="24" fill="white"/>
</clipPath>
</defs>
</svg>
