<svg width="24" height="24" viewBox="0 0 24 24" fill="none" xmlns="http://www.w3.org/2000/svg">
<g clip-path="url(#clip0_395_5413)">
<path d="M21.341 5.12499C21.0608 4.77323 20.7047 4.48934 20.2993 4.29453C19.8939 4.09972 19.4498 3.99904 19 3.99999H14.673L14.8 2.88999C14.827 2.64599 14.9428 2.42044 15.1254 2.25632C15.308 2.09219 15.5445 2.00096 15.79 1.99999H20C20.2652 1.99999 20.5196 1.89464 20.7071 1.7071C20.8947 1.51956 21 1.26521 21 0.999992C21 0.734776 20.8947 0.480422 20.7071 0.292886C20.5196 0.105349 20.2652 -7.62939e-06 20 -7.62939e-06L15.79 -7.62939e-06C15.0518 0.000160667 14.3396 0.272511 13.7896 0.764935C13.2396 1.25736 12.8905 1.93528 12.809 2.66899L12.661 3.99999H5.00003C4.56041 4.00407 4.12699 4.10408 3.73004 4.29304C3.33309 4.482 2.98218 4.75534 2.70182 5.09398C2.42146 5.43262 2.21842 5.82838 2.10688 6.25363C1.99533 6.67887 1.97798 7.12334 2.05603 7.55599L3.56803 19.622C3.72123 20.8302 4.30943 21.9411 5.22257 22.7469C6.1357 23.5528 7.31118 23.9982 8.52903 24H15.47C16.6881 23.998 17.8637 23.5524 18.777 22.7464C19.6902 21.9404 20.2786 20.8293 20.432 19.621L21.932 7.65299C22.0305 7.21432 22.0284 6.75907 21.9261 6.3213C21.8237 5.88353 21.6237 5.47456 21.341 5.12499V5.12499ZM19 5.99999C19.15 5.99994 19.2981 6.03361 19.4332 6.09852C19.5684 6.16344 19.6873 6.25792 19.781 6.37499C19.8814 6.50662 19.9499 6.65978 19.981 6.8224C20.012 6.98501 20.0049 7.15262 19.96 7.31199L19.622 9.99999H14.006L14.451 5.99999H19ZM4.22103 6.37399C4.31464 6.25737 4.43323 6.16323 4.56804 6.09851C4.70286 6.03378 4.85048 6.00012 5.00003 5.99999H12.437L11.992 9.99999H4.37403L4.02403 7.21599C3.99125 7.06987 3.99194 6.91823 4.02606 6.77242C4.06017 6.62661 4.12683 6.4904 4.22103 6.37399V6.37399ZM18.447 19.374C18.3549 20.0988 18.0018 20.7652 17.4539 21.2485C16.9059 21.7319 16.2007 21.999 15.47 22H8.52903C7.79825 21.9998 7.09266 21.733 6.54471 21.2495C5.99676 20.766 5.64413 20.0991 5.55303 19.374L4.62603 12H19.371L18.447 19.374ZM13.438 15.11L12.994 19.11C12.9796 19.2405 12.9396 19.3669 12.8763 19.482C12.813 19.5971 12.7276 19.6986 12.6251 19.7806C12.5226 19.8627 12.4049 19.9238 12.2788 19.9604C12.1527 19.997 12.0206 20.0084 11.89 19.994C11.7595 19.9795 11.6331 19.9395 11.518 19.8762C11.4029 19.8129 11.3015 19.7276 11.2194 19.6251C11.1373 19.5226 11.0762 19.4049 11.0396 19.2788C11.003 19.1526 10.9916 19.0205 11.006 18.89L11.45 14.89C11.4827 14.6277 11.6164 14.3885 11.8228 14.2234C12.0292 14.0582 12.292 13.9802 12.555 14.006C12.8185 14.0354 13.0595 14.1682 13.2251 14.3752C13.3906 14.5822 13.4672 14.8465 13.438 15.11Z" fill="#FDE8FF"/>
</g>
<defs>
<clipPath id="clip0_395_5413">
<rect width="24" height="24" fill="white"/>
</clipPath>
</defs>
</svg>
