<svg width="24" height="24" viewBox="0 0 24 24" fill="none" xmlns="http://www.w3.org/2000/svg">
<g clip-path="url(#clip0_395_5417)">
<path d="M19.0001 0H14.0001C13.7349 0 13.4805 0.105357 13.293 0.292893C13.1054 0.48043 13.0001 0.734784 13.0001 1C13.0001 1.26522 13.1054 1.51957 13.293 1.70711C13.4805 1.89464 13.7349 2 14.0001 2H19.0001C19.4456 2.00172 19.8849 2.10429 20.2851 2.3L0.293081 22.293C0.197571 22.3852 0.121389 22.4956 0.0689798 22.6176C0.0165708 22.7396 -0.0110155 22.8708 -0.0121693 23.0036C-0.0133231 23.1364 0.0119786 23.2681 0.0622595 23.391C0.11254 23.5139 0.186794 23.6255 0.280686 23.7194C0.374579 23.8133 0.486231 23.8875 0.609127 23.9378C0.732024 23.9881 0.863703 24.0134 0.996482 24.0123C1.12926 24.0111 1.26048 23.9835 1.38249 23.9311C1.50449 23.8787 1.61483 23.8025 1.70708 23.707L21.7001 3.715C21.8958 4.1152 21.9984 4.55451 22.0001 5V10C22.0001 10.2652 22.1054 10.5196 22.293 10.7071C22.4805 10.8946 22.7349 11 23.0001 11C23.2653 11 23.5197 10.8946 23.7072 10.7071C23.8947 10.5196 24.0001 10.2652 24.0001 10V5C23.9985 3.67441 23.4712 2.40356 22.5339 1.46622C21.5965 0.528882 20.3257 0.00158786 19.0001 0V0Z" fill="#FDE8FF"/>
<path d="M6 10.0001C6.79113 10.0001 7.56448 9.76553 8.22228 9.326C8.88008 8.88648 9.39277 8.26176 9.69552 7.53086C9.99827 6.79995 10.0775 5.99569 9.92314 5.21976C9.7688 4.44384 9.38784 3.73111 8.82843 3.1717C8.26902 2.61229 7.55629 2.23132 6.78036 2.07698C6.00444 1.92264 5.20017 2.00186 4.46927 2.30461C3.73836 2.60736 3.11365 3.12005 2.67412 3.77784C2.2346 4.43564 2 5.209 2 6.00012C2 7.06099 2.42143 8.07841 3.17157 8.82855C3.92172 9.5787 4.93913 10.0001 6 10.0001ZM6 4.00012C6.39556 4.00012 6.78224 4.11742 7.11114 4.33718C7.44004 4.55695 7.69638 4.8693 7.84776 5.23476C7.99913 5.60021 8.03874 6.00234 7.96157 6.3903C7.8844 6.77827 7.69392 7.13463 7.41421 7.41434C7.13451 7.69404 6.77814 7.88452 6.39018 7.96169C6.00222 8.03887 5.60009 7.99926 5.23463 7.84788C4.86918 7.69651 4.55682 7.44016 4.33706 7.11126C4.1173 6.78237 4 6.39569 4 6.00012C4 5.46969 4.21071 4.96098 4.58579 4.58591C4.96086 4.21084 5.46957 4.00012 6 4.00012V4.00012Z" fill="#FDE8FF"/>
<path d="M18 14.0002C17.2089 14.0002 16.4355 14.2347 15.7777 14.6743C15.1199 15.1138 14.6072 15.7385 14.3045 16.4694C14.0017 17.2003 13.9225 18.0046 14.0769 18.7805C14.2312 19.5564 14.6122 20.2692 15.1716 20.8286C15.731 21.388 16.4437 21.769 17.2196 21.9233C17.9956 22.0776 18.7998 21.9984 19.5307 21.6957C20.2616 21.3929 20.8864 20.8802 21.3259 20.2224C21.7654 19.5646 22 18.7913 22 18.0002C22 16.9393 21.5786 15.9219 20.8284 15.1717C20.0783 14.4216 19.0609 14.0002 18 14.0002V14.0002ZM18 20.0002C17.6044 20.0002 17.2178 19.8829 16.8889 19.6631C16.56 19.4433 16.3036 19.131 16.1522 18.7655C16.0009 18.4001 15.9613 17.9979 16.0384 17.61C16.1156 17.222 16.3061 16.8656 16.5858 16.5859C16.8655 16.3062 17.2219 16.1158 17.6098 16.0386C17.9978 15.9614 18.3999 16.001 18.7654 16.1524C19.1308 16.3038 19.4432 16.5601 19.6629 16.889C19.8827 17.2179 20 17.6046 20 18.0002C20 18.5306 19.7893 19.0393 19.4142 19.4144C19.0391 19.7894 18.5304 20.0002 18 20.0002Z" fill="#FDE8FF"/>
</g>
<defs>
<clipPath id="clip0_395_5417">
<rect width="24" height="24" fill="white"/>
</clipPath>
</defs>
</svg>
