<svg width="24" height="24" viewBox="0 0 24 24" fill="none" xmlns="http://www.w3.org/2000/svg">
<g clip-path="url(#clip0_395_5418)">
<path d="M9.28804 13.0669C6.97104 13.5129 5.82304 16.0928 5.32504 17.7008C5.27808 17.8507 5.26708 18.0096 5.29294 18.1645C5.31881 18.3194 5.3808 18.4661 5.4739 18.5926C5.567 18.7191 5.68859 18.8219 5.82882 18.8926C5.96905 18.9634 6.12398 19.0001 6.28104 18.9998H10C10.4172 18.9999 10.8297 18.913 11.2113 18.7447C11.593 18.5763 11.9353 18.3303 12.2165 18.0222C12.4977 17.7141 12.7115 17.3507 12.8444 16.9554C12.9772 16.56 13.0261 16.1412 12.988 15.7258C12.9349 15.3014 12.7947 14.8926 12.5762 14.5249C12.3577 14.1572 12.0657 13.8385 11.7183 13.5889C11.371 13.3393 10.9758 13.1641 10.5577 13.0743C10.1395 12.9844 9.70725 12.9819 9.28804 13.0669V13.0669Z" fill="#FDE8FF"/>
<path d="M23 8.979C22.7348 8.979 22.4804 9.08436 22.2929 9.27189C22.1054 9.45943 22 9.71378 22 9.979V15H18C17.2044 15 16.4413 15.3161 15.8787 15.8787C15.3161 16.4413 15 17.2044 15 18V22H5C4.20435 22 3.44129 21.6839 2.87868 21.1213C2.31607 20.5587 2 19.7956 2 19V5C2 4.20435 2.31607 3.44129 2.87868 2.87868C3.44129 2.31607 4.20435 2 5 2H16.042C16.3072 2 16.5616 1.89464 16.7491 1.70711C16.9366 1.51957 17.042 1.26522 17.042 1C17.042 0.734784 16.9366 0.48043 16.7491 0.292893C16.5616 0.105357 16.3072 0 16.042 0L5 0C3.6744 0.00158786 2.40356 0.528882 1.46622 1.46622C0.528882 2.40356 0.00158786 3.6744 0 5L0 19C0.00158786 20.3256 0.528882 21.5964 1.46622 22.5338C2.40356 23.4711 3.6744 23.9984 5 24H16.343C16.9998 24.0019 17.6504 23.8734 18.2572 23.6221C18.8639 23.3708 19.4149 23.0017 19.878 22.536L22.536 19.878C23.0017 19.4149 23.3708 18.8639 23.6221 18.2572C23.8734 17.6504 24.0019 16.9998 24 16.343V9.979C24 9.71378 23.8946 9.45943 23.7071 9.27189C23.5196 9.08436 23.2652 8.979 23 8.979ZM18.464 21.122C18.0607 21.5208 17.5534 21.798 17 21.922V18C17 17.7348 17.1054 17.4804 17.2929 17.2929C17.4804 17.1054 17.7348 17 18 17H21.925C21.801 17.5534 21.5238 18.0607 21.125 18.464L18.464 21.122Z" fill="#FDE8FF"/>
<path d="M14.5659 14.1699C14.3681 14.1698 14.1748 14.1111 14.0104 14.0013C13.846 13.8914 13.7179 13.7352 13.6422 13.5525C13.5665 13.3698 13.5467 13.1688 13.5853 12.9748C13.6239 12.7809 13.7191 12.6027 13.8589 12.4629L21.7119 4.60986C21.7996 4.52227 21.8693 4.41823 21.9168 4.30369C21.9643 4.18915 21.9888 4.06636 21.9888 3.94236C21.9888 3.81836 21.9643 3.69557 21.9168 3.58103C21.8693 3.4665 21.7996 3.36245 21.7119 3.27486C21.6226 3.18204 21.5145 3.10946 21.3947 3.06201C21.275 3.01457 21.1465 2.99338 21.0179 2.99986C20.8893 3.00266 20.7627 3.03199 20.6461 3.08603C20.5294 3.14006 20.4251 3.21763 20.3399 3.31386L12.7399 11.7209C12.562 11.9177 12.3133 12.0357 12.0484 12.0492C11.7835 12.0626 11.5242 11.9702 11.3274 11.7924C11.1306 11.6145 11.0125 11.3658 10.9991 11.1009C10.9857 10.836 11.078 10.5767 11.2559 10.3799L18.8559 1.97986C19.1224 1.68233 19.4466 1.44204 19.8088 1.27358C20.171 1.10512 20.5636 1.012 20.9629 0.999861C21.3628 0.991292 21.7603 1.06318 22.1319 1.21126C22.5035 1.35934 22.8415 1.58059 23.1259 1.86186C23.6771 2.41434 23.9867 3.16292 23.9867 3.94336C23.9867 4.72381 23.6771 5.47238 23.1259 6.02486L15.2729 13.8779C15.1802 13.9709 15.07 14.0445 14.9486 14.0947C14.8273 14.1448 14.6972 14.1703 14.5659 14.1699Z" fill="#FDE8FF"/>
</g>
<defs>
<clipPath id="clip0_395_5418">
<rect width="24" height="24" fill="white"/>
</clipPath>
</defs>
</svg>
