<svg width="24" height="24" viewBox="0 0 24 24" fill="none" xmlns="http://www.w3.org/2000/svg">
<g clip-path="url(#clip0_395_5428)">
<path d="M18.9998 23.9998H16.9998C16.7345 23.9998 16.4802 23.8945 16.2926 23.7069C16.1051 23.5194 15.9998 23.2651 15.9998 22.9998C15.9998 22.7346 16.1051 22.4803 16.2926 22.2927C16.4802 22.1052 16.7345 21.9998 16.9998 21.9998H18.9998C19.7954 21.9998 20.5585 21.6838 21.1211 21.1212C21.6837 20.5586 21.9997 19.7955 21.9997 18.9998V16.9998C21.9997 16.7346 22.1051 16.4803 22.2926 16.2927C22.4802 16.1052 22.7345 15.9998 22.9997 15.9998C23.265 15.9998 23.5193 16.1052 23.7068 16.2927C23.8944 16.4803 23.9997 16.7346 23.9997 16.9998V18.9998C23.9982 20.3254 23.4709 21.5963 22.5335 22.5336C21.5962 23.471 20.3253 23.9982 18.9998 23.9998V23.9998Z" fill="#FDE8FF"/>
<path d="M1 8C0.734784 8 0.48043 7.89464 0.292893 7.70711C0.105357 7.51957 0 7.26522 0 7V5C0.00158786 3.6744 0.528882 2.40356 1.46622 1.46622C2.40356 0.528882 3.6744 0.00158786 5 0L7 0C7.26522 0 7.51957 0.105357 7.70711 0.292893C7.89464 0.48043 8 0.734784 8 1C8 1.26522 7.89464 1.51957 7.70711 1.70711C7.51957 1.89464 7.26522 2 7 2H5C4.20435 2 3.44129 2.31607 2.87868 2.87868C2.31607 3.44129 2 4.20435 2 5V7C2 7.26522 1.89464 7.51957 1.70711 7.70711C1.51957 7.89464 1.26522 8 1 8V8Z" fill="#FDE8FF"/>
<path d="M7 23.9998H5C3.6744 23.9982 2.40356 23.471 1.46622 22.5336C0.528882 21.5963 0.00158786 20.3254 0 18.9998L0 16.9998C0 16.7346 0.105357 16.4803 0.292893 16.2927C0.48043 16.1052 0.734784 15.9998 1 15.9998C1.26522 15.9998 1.51957 16.1052 1.70711 16.2927C1.89464 16.4803 2 16.7346 2 16.9998V18.9998C2 19.7955 2.31607 20.5586 2.87868 21.1212C3.44129 21.6838 4.20435 21.9998 5 21.9998H7C7.26522 21.9998 7.51957 22.1052 7.70711 22.2927C7.89464 22.4803 8 22.7346 8 22.9998C8 23.2651 7.89464 23.5194 7.70711 23.7069C7.51957 23.8945 7.26522 23.9998 7 23.9998Z" fill="#FDE8FF"/>
<path d="M22.9997 8C22.7345 8 22.4802 7.89464 22.2926 7.70711C22.1051 7.51957 21.9997 7.26522 21.9997 7V5C21.9997 4.20435 21.6837 3.44129 21.1211 2.87868C20.5585 2.31607 19.7954 2 18.9998 2H16.9998C16.7345 2 16.4802 1.89464 16.2926 1.70711C16.1051 1.51957 15.9998 1.26522 15.9998 1C15.9998 0.734784 16.1051 0.48043 16.2926 0.292893C16.4802 0.105357 16.7345 0 16.9998 0L18.9998 0C20.3253 0.00158786 21.5962 0.528882 22.5335 1.46622C23.4709 2.40356 23.9982 3.6744 23.9997 5V7C23.9997 7.26522 23.8944 7.51957 23.7068 7.70711C23.5193 7.89464 23.265 8 22.9997 8Z" fill="#FDE8FF"/>
</g>
<defs>
<clipPath id="clip0_395_5428">
<rect width="24" height="24" fill="white"/>
</clipPath>
</defs>
</svg>
