<svg width="24" height="24" viewBox="0 0 24 24" fill="none" xmlns="http://www.w3.org/2000/svg">
<g clip-path="url(#clip0_395_5430)">
<path d="M23.112 5.16491C23.3931 4.884 23.616 4.55046 23.7681 4.18336C23.9202 3.81626 23.9985 3.42278 23.9985 3.02541C23.9985 2.62804 23.9202 2.23457 23.7681 1.86747C23.616 1.50036 23.3931 1.16683 23.112 0.885913C22.5363 0.335535 21.7705 0.0283813 20.974 0.0283813C20.1776 0.0283813 19.4118 0.335535 18.836 0.885913L16.4 3.32391C15.388 4.33691 13.277 4.11291 11.821 3.31091C11.2697 3.01243 10.629 2.92323 10.0171 3.05976C9.40514 3.19629 8.86315 3.54935 8.49095 4.0539C8.11875 4.55845 7.9414 5.1805 7.99158 5.80546C8.04176 6.43043 8.31609 7.01622 8.76403 7.45491L10.18 8.87091L2.02503 17.0249C1.48975 17.5545 1.14213 18.2445 1.03509 18.9898C0.928043 19.7352 1.06743 20.4951 1.43203 21.1539L0.293031 22.2929C0.10556 22.4804 0.000244141 22.7347 0.000244141 22.9999C0.000244141 23.2651 0.10556 23.5194 0.293031 23.7069C0.480558 23.8944 0.734866 23.9997 1.00003 23.9997C1.26519 23.9997 1.5195 23.8944 1.70703 23.7069L2.84603 22.5679C3.50487 22.9325 4.26478 23.0719 5.01012 22.9649C5.75547 22.8578 6.44544 22.5102 6.97503 21.9749L15.129 13.8199L16.545 15.2359C16.9837 15.6839 17.5695 15.9582 18.1945 16.0084C18.8194 16.0585 19.4415 15.8812 19.946 15.509C20.4506 15.1368 20.8037 14.5948 20.9402 13.9829C21.0767 13.3709 20.9875 12.7303 20.689 12.1789C19.889 10.7229 19.664 8.61091 20.676 7.59891L23.112 5.16491ZM5.56003 20.5609C5.2743 20.8336 4.89451 20.9858 4.49953 20.9858C4.10455 20.9858 3.72476 20.8336 3.43903 20.5609C3.15782 20.2796 2.99985 19.8982 2.99985 19.5004C2.99985 19.1027 3.15782 18.7212 3.43903 18.4399L11.594 10.2859L13.715 12.4069L5.56003 20.5609ZM19.26 6.18491C17.501 7.94391 17.76 11.0169 18.935 13.1429C18.9908 13.2539 19.0093 13.3798 18.9878 13.5021C18.9664 13.6244 18.9062 13.7365 18.816 13.8219C18.7004 13.9326 18.5466 13.9944 18.3865 13.9944C18.2265 13.9944 18.0726 13.9326 17.957 13.8219L10.178 6.04091C10.094 5.95543 10.0369 5.84714 10.0139 5.72949C9.99081 5.61184 10.0028 5.49001 10.0484 5.37914C10.094 5.26826 10.1711 5.17321 10.2703 5.10579C10.3694 5.03838 10.4862 5.00156 10.606 4.99991C10.6937 4.99951 10.78 5.02118 10.857 5.06291C12.983 6.23291 16.057 6.49691 17.815 4.73791L20.254 2.29991C20.4486 2.1135 20.7076 2.00943 20.977 2.00943C21.2465 2.00943 21.5055 2.1135 21.7 2.29991C21.7952 2.39502 21.8708 2.50795 21.9223 2.63227C21.9738 2.75658 22.0004 2.88984 22.0004 3.02441C22.0004 3.15899 21.9738 3.29224 21.9223 3.41656C21.8708 3.54087 21.7952 3.65381 21.7 3.74891L19.26 6.18491Z" fill="#FDE8FF"/>
</g>
<defs>
<clipPath id="clip0_395_5430">
<rect width="24" height="24" fill="white"/>
</clipPath>
</defs>
</svg>
