<svg width="24" height="24" viewBox="0 0 24 24" fill="none" xmlns="http://www.w3.org/2000/svg">
<g clip-path="url(#clip0_395_5433)">
<path d="M24 11C23.997 10.2339 23.701 9.498 23.1727 8.94316C22.6445 8.38832 21.924 8.0566 21.159 8.016C20.1568 5.69436 18.3056 3.84321 15.984 2.841C15.9434 2.07598 15.6117 1.35548 15.0568 0.827234C14.502 0.298983 13.7661 0.0030094 13 0H11C10.2339 0.0030094 9.49799 0.298983 8.94315 0.827234C8.38831 1.35548 8.05658 2.07598 8.01598 2.841C5.69452 3.84346 3.84345 5.69453 2.84098 8.016C2.13301 8.05055 1.46043 8.3359 0.943611 8.821C0.426791 9.3061 0.0994598 9.95927 0.020194 10.6636C-0.0590717 11.368 0.114902 12.0776 0.51098 12.6654C0.907059 13.2533 1.49939 13.681 2.18198 13.872C2.46576 15.3815 3.09468 16.805 4.01963 18.0313C4.94457 19.2576 6.1405 20.2534 7.51398 20.941L7.03398 22.741C6.9656 22.9972 7.00176 23.2701 7.13453 23.4996C7.2673 23.7291 7.4858 23.8965 7.74198 23.965C7.82611 23.9877 7.91283 23.9995 7.99998 24C8.22024 24 8.43432 23.9272 8.60899 23.7931C8.78367 23.6589 8.90916 23.4708 8.96598 23.258L9.39998 21.652C11.106 22.116 12.905 22.116 14.611 21.652L15.039 23.258C15.1109 23.5103 15.2791 23.7242 15.5072 23.8536C15.7354 23.9831 16.0053 24.0177 16.2587 23.95C16.5121 23.8823 16.7288 23.7177 16.8621 23.4918C16.9953 23.2658 17.0344 22.9965 16.971 22.742L16.491 20.942C17.8643 20.2538 19.0601 19.2577 19.9852 18.0313C20.9102 16.805 21.5395 15.3815 21.824 13.872C22.4493 13.6944 22.9998 13.3181 23.3924 12.8C23.785 12.2819 23.9982 11.65 24 11V11ZM11 2H13C13.2652 2 13.5196 2.10536 13.7071 2.29289C13.8946 2.48043 14 2.73478 14 3C14 3.26522 13.8946 3.51957 13.7071 3.70711C13.5196 3.89464 13.2652 4 13 4H11C10.7348 4 10.4804 3.89464 10.2929 3.70711C10.1053 3.51957 9.99998 3.26522 9.99998 3C9.99998 2.73478 10.1053 2.48043 10.2929 2.29289C10.4804 2.10536 10.7348 2 11 2V2ZM2.99998 10H4.99998C5.2652 10 5.51955 10.1054 5.70709 10.2929C5.89463 10.4804 5.99998 10.7348 5.99998 11C5.99998 11.2652 5.89463 11.5196 5.70709 11.7071C5.51955 11.8946 5.2652 12 4.99998 12H2.99998C2.73477 12 2.48041 11.8946 2.29288 11.7071C2.10534 11.5196 1.99998 11.2652 1.99998 11C1.99998 10.7348 2.10534 10.4804 2.29288 10.2929C2.48041 10.1054 2.73477 10 2.99998 10V10ZM12 20C11.294 19.999 10.5913 19.9049 9.90998 19.72L11.61 13.356C11.6329 13.2691 11.684 13.1923 11.7551 13.1375C11.8263 13.0827 11.9136 13.053 12.0035 13.053C12.0933 13.053 12.1806 13.0827 12.2518 13.1375C12.323 13.1923 12.374 13.2691 12.397 13.356L14.097 19.72C13.4134 19.9054 12.7083 19.9995 12 20V20ZM15.955 18.951L14.325 12.841C14.1926 12.3263 13.8917 11.8708 13.4704 11.5469C13.049 11.223 12.5314 11.0495 12 11.054C11.4684 11.0493 10.9505 11.2227 10.529 11.5466C10.1074 11.8705 9.80642 12.3262 9.67398 12.841L8.04498 18.951C7.11357 18.4227 6.2983 17.7119 5.64795 16.8612C4.9976 16.0105 4.52553 15.0374 4.25998 14H4.99998C5.76925 13.972 6.49833 13.6495 7.0364 13.099C7.57446 12.5485 7.88034 11.8122 7.89074 11.0425C7.90115 10.2728 7.61529 9.52858 7.0923 8.96375C6.56931 8.39892 5.84921 8.05674 5.08098 8.008C5.89774 6.5998 7.11986 5.47037 8.58798 4.767C8.86453 5.14793 9.22714 5.45816 9.64629 5.67243C10.0654 5.88669 10.5293 5.99893 11 6H13C13.4707 5.99901 13.9346 5.88681 14.3537 5.67254C14.7729 5.45827 15.1355 5.14799 15.412 4.767C16.8799 5.47023 18.1018 6.59971 18.918 8.008C18.1497 8.05684 17.4297 8.39913 16.9067 8.96405C16.3838 9.52897 16.0981 10.2733 16.1086 11.043C16.1191 11.8127 16.4251 12.549 16.9633 13.0993C17.5015 13.6497 18.2307 13.9722 19 14H19.74C19.4741 15.0372 19.0019 16.0102 18.3516 16.8609C17.7013 17.7116 16.8862 18.4224 15.955 18.951V18.951ZM21 12H19C18.7348 12 18.4804 11.8946 18.2929 11.7071C18.1053 11.5196 18 11.2652 18 11C18 10.7348 18.1053 10.4804 18.2929 10.2929C18.4804 10.1054 18.7348 10 19 10H21C21.2652 10 21.5196 10.1054 21.7071 10.2929C21.8946 10.4804 22 10.7348 22 11C22 11.2652 21.8946 11.5196 21.7071 11.7071C21.5196 11.8946 21.2652 12 21 12Z" fill="#FDE8FF"/>
</g>
<defs>
<clipPath id="clip0_395_5433">
<rect width="24" height="24" fill="white"/>
</clipPath>
</defs>
</svg>
