<svg width="24" height="24" viewBox="0 0 24 24" fill="none" xmlns="http://www.w3.org/2000/svg">
<g clip-path="url(#clip0_395_5442)">
<path d="M19.9492 5.53645L16.4652 2.05045C15.8166 1.39859 15.0451 0.881781 14.1955 0.529909C13.3458 0.178038 12.4349 -0.00191663 11.5152 0.000450295H7.00024C5.67465 0.00203815 4.4038 0.529332 3.46646 1.46667C2.52913 2.40401 2.00183 3.67486 2.00024 5.00045V19.0005C2.00183 20.326 2.52913 21.5969 3.46646 22.5342C4.4038 23.4716 5.67465 23.9989 7.00024 24.0005H17.0002C18.3258 23.9989 19.5967 23.4716 20.534 22.5342C21.4714 21.5969 21.9987 20.326 22.0002 19.0005V10.4854C22.0027 9.56587 21.8227 8.65494 21.4707 7.80542C21.1186 6.95591 20.6015 6.18469 19.9492 5.53645V5.53645ZM18.5352 6.95045C18.8406 7.2646 19.1032 7.61764 19.3162 8.00045H15.0002C14.735 8.00045 14.4807 7.89509 14.2931 7.70756C14.1056 7.52002 14.0002 7.26567 14.0002 7.00045V2.68445C14.3832 2.89737 14.7365 3.15961 15.0512 3.46445L18.5352 6.95045ZM20.0002 19.0005C20.0002 19.7961 19.6842 20.5592 19.1216 21.1218C18.559 21.6844 17.7959 22.0005 17.0002 22.0005H7.00024C6.20459 22.0005 5.44153 21.6844 4.87892 21.1218C4.31631 20.5592 4.00024 19.7961 4.00024 19.0005V5.00045C4.00024 4.2048 4.31631 3.44174 4.87892 2.87913C5.44153 2.31652 6.20459 2.00045 7.00024 2.00045H11.5152C11.6792 2.00045 11.8382 2.03245 12.0002 2.04745V7.00045C12.0002 7.7961 12.3163 8.55916 12.8789 9.12177C13.4415 9.68438 14.2046 10.0005 15.0002 10.0005H19.9532C19.9682 10.1625 20.0002 10.3204 20.0002 10.4854V19.0005Z" fill="#FDE8FF"/>
</g>
<defs>
<clipPath id="clip0_395_5442">
<rect width="24" height="24" fill="white"/>
</clipPath>
</defs>
</svg>
