<svg width="24" height="24" viewBox="0 0 24 24" fill="none" xmlns="http://www.w3.org/2000/svg">
<g clip-path="url(#clip0_395_5440)">
<path d="M15.0002 12.0004C15.0002 12.2657 14.8949 12.52 14.7074 12.7075C14.5198 12.8951 14.2655 13.0004 14.0002 13.0004H13.0002V17.5004C13.0002 17.9949 12.8536 18.4782 12.5789 18.8894C12.3042 19.3005 11.9138 19.6209 11.457 19.8101C11.0001 19.9994 10.4975 20.0489 10.0125 19.9524C9.52757 19.8559 9.08211 19.6178 8.73248 19.2682C8.38285 18.9186 8.14474 18.4731 8.04828 17.9882C7.95182 17.5032 8.00133 17.0005 8.19055 16.5437C8.37976 16.0869 8.7002 15.6965 9.11132 15.4218C9.52244 15.1471 10.0058 15.0004 10.5002 15.0004C10.6681 15.0008 10.8356 15.0175 11.0002 15.0504V13.0004C11.0002 12.47 11.211 11.9613 11.586 11.5862C11.9611 11.2111 12.4698 11.0004 13.0002 11.0004H14.0002C14.2655 11.0004 14.5198 11.1058 14.7074 11.2933C14.8949 11.4809 15.0002 11.7352 15.0002 12.0004ZM22.0002 10.4854V19.0004C21.9987 20.326 21.4714 21.5969 20.534 22.5342C19.5967 23.4716 18.3258 23.9988 17.0002 24.0004H7.00024C5.67465 23.9988 4.4038 23.4716 3.46646 22.5342C2.52913 21.5969 2.00183 20.326 2.00024 19.0004V5.00044C2.00183 3.67484 2.52913 2.40399 3.46646 1.46666C4.4038 0.529318 5.67465 0.00202356 7.00024 0.000435699H11.5152C12.435 -0.0019658 13.346 0.178071 14.1957 0.530125C15.0453 0.882179 15.8168 1.39926 16.4652 2.05144L19.9492 5.53544C20.6014 6.18393 21.1185 6.95533 21.4706 7.805C21.8226 8.65467 22.0026 9.56572 22.0002 10.4854V10.4854ZM15.0512 3.46544C14.7367 3.16006 14.3834 2.89746 14.0002 2.68444V7.00044C14.0002 7.26565 14.1056 7.52001 14.2931 7.70754C14.4807 7.89508 14.735 8.00044 15.0002 8.00044H19.3162C19.1032 7.61731 18.8406 7.26394 18.5352 6.94944L15.0512 3.46544ZM20.0002 10.4854C20.0002 10.3204 19.9682 10.1624 19.9532 10.0004H15.0002C14.2046 10.0004 13.4415 9.68437 12.8789 9.12176C12.3163 8.55915 12.0002 7.79609 12.0002 7.00044V2.04744C11.8382 2.03244 11.6802 2.00044 11.5152 2.00044H7.00024C6.20459 2.00044 5.44153 2.31651 4.87892 2.87912C4.31631 3.44172 4.00024 4.20479 4.00024 5.00044V19.0004C4.00024 19.7961 4.31631 20.5591 4.87892 21.1218C5.44153 21.6844 6.20459 22.0004 7.00024 22.0004H17.0002C17.7959 22.0004 18.559 21.6844 19.1216 21.1218C19.6842 20.5591 20.0002 19.7961 20.0002 19.0004V10.4854Z" fill="#FDE8FF"/>
</g>
<defs>
<clipPath id="clip0_395_5440">
<rect width="24" height="24" fill="white"/>
</clipPath>
</defs>
</svg>
