<svg width="24" height="24" viewBox="0 0 24 24" fill="none" xmlns="http://www.w3.org/2000/svg">
<g clip-path="url(#clip0_395_5435)">
<path d="M7.51503 5.00819C7.45947 4.87142 7.36448 4.75426 7.24214 4.67164C7.11981 4.58901 6.97565 4.54465 6.82803 4.54419V4.54419C6.67766 4.54463 6.53092 4.59038 6.40694 4.67547C6.28296 4.76056 6.18751 4.88104 6.13303 5.02119L4.15603 10.2082C4.12675 10.2849 4.11289 10.3667 4.11525 10.4488C4.1176 10.5309 4.13611 10.6118 4.16974 10.6867C4.20336 10.7617 4.25142 10.8293 4.31119 10.8856C4.37095 10.942 4.44124 10.986 4.51803 11.0152C4.58901 11.0419 4.66418 11.0558 4.74003 11.0562C4.86637 11.0562 4.98976 11.0181 5.09399 10.9467C5.19823 10.8753 5.27842 10.774 5.32403 10.6562L5.66303 9.76719H7.97403L8.30903 10.6542C8.33799 10.731 8.38179 10.8014 8.43794 10.8613C8.49409 10.9212 8.56149 10.9694 8.63629 11.0033C8.71109 11.0371 8.79182 11.0559 8.87387 11.0585C8.95593 11.0612 9.03771 11.0476 9.11453 11.0187C9.19135 10.9897 9.26172 10.9459 9.32161 10.8898C9.38151 10.8336 9.42976 10.7662 9.4636 10.6914C9.49745 10.6166 9.51623 10.5359 9.51888 10.4538C9.52153 10.3718 9.50799 10.29 9.47903 10.2132L7.51503 5.00819ZM6.13903 8.51419L6.82303 6.71419L7.50203 8.51419H6.13903Z" fill="#FDE8FF"/>
<path d="M11.2319 4.54419C11.0663 4.54445 10.9074 4.61039 10.7903 4.72754C10.6731 4.84469 10.6072 5.00351 10.6069 5.16919V10.4312C10.6069 10.597 10.6728 10.7559 10.79 10.8731C10.9072 10.9903 11.0662 11.0562 11.2319 11.0562C11.3977 11.0562 11.5567 10.9903 11.6739 10.8731C11.7911 10.7559 11.8569 10.597 11.8569 10.4312V5.16919C11.8569 5.00343 11.7911 4.84446 11.6739 4.72725C11.5567 4.61004 11.3977 4.54419 11.2319 4.54419V4.54419Z" fill="#FDE8FF"/>
<path d="M19 0H5C3.67441 0.00158786 2.40356 0.528882 1.46622 1.46622C0.528882 2.40356 0.00158786 3.67441 0 5L0 19C0.00158786 20.3256 0.528882 21.5964 1.46622 22.5338C2.40356 23.4711 3.67441 23.9984 5 24H16.343C16.9999 24.0019 17.6507 23.8735 18.2576 23.6222C18.8646 23.3709 19.4157 23.0017 19.879 22.536L22.535 19.878C23.0008 19.4149 23.37 18.864 23.6215 18.2572C23.873 17.6504 24.0016 16.9998 24 16.343V5C23.9984 3.67441 23.4711 2.40356 22.5338 1.46622C21.5964 0.528882 20.3256 0.00158786 19 0V0ZM2 19V5C2 4.20435 2.31607 3.44129 2.87868 2.87868C3.44129 2.31607 4.20435 2 5 2H19C19.7957 2 20.5587 2.31607 21.1213 2.87868C21.6839 3.44129 22 4.20435 22 5V15H18C17.2044 15 16.4413 15.3161 15.8787 15.8787C15.3161 16.4413 15 17.2044 15 18V22H5C4.20435 22 3.44129 21.6839 2.87868 21.1213C2.31607 20.5587 2 19.7957 2 19ZM18.465 21.122C18.063 21.523 17.5547 21.8006 17 21.922V18C17 17.7348 17.1054 17.4804 17.2929 17.2929C17.4804 17.1054 17.7348 17 18 17H21.925C21.8013 17.5535 21.524 18.0609 21.125 18.464L18.465 21.122Z" fill="#FDE8FF"/>
</g>
<defs>
<clipPath id="clip0_395_5435">
<rect width="24" height="24" fill="white"/>
</clipPath>
</defs>
</svg>
