<svg width="24" height="24" viewBox="0 0 24 24" fill="none" xmlns="http://www.w3.org/2000/svg">
<g clip-path="url(#clip0_395_5447)">
<path d="M6 19C6 19.2652 5.89464 19.5195 5.70711 19.7071C5.51957 19.8946 5.26522 20 5 20C4.73478 20 4.48043 19.8946 4.29289 19.7071C4.10536 19.5195 4 19.2652 4 19C4 18.7348 4.10536 18.4804 4.29289 18.2929C4.48043 18.1053 4.73478 18 5 18C5.26522 18 5.51957 18.1053 5.70711 18.2929C5.89464 18.4804 6 18.7348 6 19V19ZM23.73 7.62497C23.5235 8.03933 23.2053 8.38768 22.8112 8.63066C22.4171 8.87364 21.963 9.00156 21.5 8.99997H16.981C16.961 10.061 16.918 11.071 16.832 12H17.2C17.6026 11.9919 18.002 12.0725 18.37 12.236C18.738 12.3996 19.0655 12.642 19.3293 12.9462C19.5932 13.2504 19.7869 13.6089 19.8967 13.9963C20.0066 14.3837 20.0299 14.7906 19.965 15.188C19.8511 15.9663 19.462 16.678 18.8683 17.1939C18.2746 17.7098 17.5156 17.9958 16.729 18H15.4C13.6 21.889 8 24 3.987 24C3.44122 23.9981 2.9016 23.8846 2.40135 23.6663C1.90109 23.4481 1.45079 23.1298 1.07816 22.731C0.705519 22.3323 0.418432 21.8614 0.234562 21.3476C0.0506916 20.8337 -0.0260707 20.2876 0.0089989 19.743C0.0623353 17.0847 0.74463 14.4768 2 12.133V11.6C2.00641 9.80169 2.64137 8.06224 3.79498 6.68273C4.94859 5.30322 6.54823 4.37048 8.317 4.04597C8.76483 3.96949 9.22396 3.99189 9.66222 4.1116C10.1005 4.23131 10.5072 4.44544 10.854 4.73897C11.2089 5.0372 11.4952 5.4087 11.693 5.82798C11.8908 6.24727 11.9955 6.70439 12 7.16797C12.93 7.08197 13.941 7.03897 15 7.01897V2.49997C15 2.03569 15.1293 1.58058 15.3734 1.18564C15.6175 0.790703 15.9667 0.471535 16.382 0.263903C16.7972 0.0562704 17.2621 -0.0316226 17.7245 0.0100724C18.1869 0.0517673 18.6286 0.221403 19 0.499971C19.8969 1.15251 20.5437 2.09217 20.833 3.16297C21.9058 3.45247 22.8471 4.1008 23.5 4.99997C23.779 5.3727 23.9483 5.81593 23.9889 6.27971C24.0296 6.74349 23.9399 7.20941 23.73 7.62497V7.62497ZM4.385 9.54097C6.07061 8.41753 7.9916 7.69601 10 7.43197V7.19997C10 7.02213 9.96106 6.84644 9.88591 6.68526C9.81076 6.52407 9.70122 6.3813 9.565 6.26697C9.44333 6.16038 9.29937 6.08234 9.14365 6.03856C8.98793 5.99479 8.82439 5.98639 8.665 6.01397C7.7073 6.18105 6.8094 6.59392 6.05916 7.21217C5.30891 7.83042 4.73204 8.63287 4.385 9.54097ZM8.783 21.2C8.4399 19.7459 7.6983 18.4163 6.64145 17.3603C5.5846 16.3043 4.25434 15.5639 2.8 15.222C2.35071 16.7377 2.08218 18.3012 2 19.88C1.98244 20.1629 2.02525 20.4464 2.12558 20.7116C2.22591 20.9767 2.38147 21.2176 2.58195 21.418C2.78242 21.6185 3.02323 21.7741 3.28839 21.8744C3.55356 21.9747 3.83703 22.0175 4.12 22C5.70048 21.9185 7.26573 21.6499 8.783 21.2V21.2ZM14.992 9.00797C8.753 9.11497 5.353 10.272 3.592 13.37C5.27594 13.8304 6.81083 14.7217 8.04535 15.956C9.27986 17.1903 10.1714 18.7251 10.632 20.409C13.728 18.646 14.885 15.247 14.992 9.00797ZM16.568 14C16.4563 14.6743 16.3077 15.3419 16.123 16H16.729C17.0353 15.9985 17.3308 15.8873 17.5622 15.6866C17.7935 15.4859 17.9453 15.209 17.99 14.906C18.0137 14.792 18.0108 14.674 17.9813 14.5614C17.9518 14.4487 17.8967 14.3444 17.8201 14.2567C17.7436 14.1689 17.6478 14.1 17.5402 14.0555C17.4326 14.011 17.3162 13.992 17.2 14H16.568ZM21.9 6.18897C21.6573 5.85836 21.3492 5.58122 20.9948 5.37478C20.6404 5.16834 20.2473 5.03701 19.84 4.98897C19.6347 4.95458 19.4453 4.85699 19.2981 4.70983C19.151 4.56266 19.0534 4.37324 19.019 4.16797C18.9711 3.76063 18.8398 3.36751 18.6333 3.01311C18.4269 2.6587 18.1497 2.35059 17.819 2.10797C17.7435 2.04934 17.6528 2.01356 17.5577 2.00488C17.4625 1.99619 17.3668 2.01496 17.282 2.05897C17.1971 2.09698 17.1252 2.15898 17.0751 2.23733C17.025 2.31569 16.9989 2.40698 17 2.49997V6.99997H21.5C21.5927 7.00264 21.6841 6.97824 21.7632 6.92975C21.8422 6.88127 21.9054 6.8108 21.945 6.72697C21.9898 6.64239 22.0093 6.54674 22.0014 6.45138C21.9934 6.35601 21.9582 6.26494 21.9 6.18897V6.18897Z" fill="#FDE8FF"/>
</g>
<defs>
<clipPath id="clip0_395_5447">
<rect width="24" height="24" fill="white"/>
</clipPath>
</defs>
</svg>
