<svg width="24" height="24" viewBox="0 0 24 24" fill="none" xmlns="http://www.w3.org/2000/svg">
<path d="M22.2075 5.02921C21.3112 3.53544 19.7178 2.53958 17.9253 2.53958H5.97511C4.18256 2.53958 2.58923 3.53544 1.69294 5.02921C0.597516 7.02093 0 9.21182 0 11.5023C0 16.9794 2.19089 21.4608 4.97925 21.4608C6.47302 21.4608 7.66805 20.0666 8.5643 17.1786C8.66386 16.7803 9.0622 16.4815 9.56016 16.4815H14.4398C14.8382 16.4815 15.2365 16.7803 15.4357 17.1786C16.332 20.0666 17.527 21.4608 19.0208 21.4608C21.8091 21.4608 24 16.9794 24 11.5023C23.9004 9.21182 23.3029 7.02093 22.2075 5.02921ZM18.9211 19.469C18.6224 19.469 17.9253 18.6724 17.2282 16.5811C16.8299 15.2865 15.6348 14.4898 14.3402 14.4898H9.56016C8.26556 14.4898 7.07053 15.3861 6.67219 16.5811C5.97511 18.6724 5.27798 19.469 4.97925 19.469C3.98339 19.469 1.99172 16.3819 1.99172 11.5023C1.99172 9.61016 2.48963 7.71805 3.38592 6.02511C3.98344 5.12886 4.9793 4.53135 5.97516 4.53135H17.9254C18.9212 4.53135 19.9171 5.12886 20.5146 6.02511C21.4109 7.71805 21.9088 9.61016 21.9088 11.5023C21.9087 16.3819 19.917 19.469 18.9211 19.469Z" fill="#FDE8FF"/>
<path d="M8.99993 9.00002H7.99994V8.00004C7.99994 7.40004 7.59996 7.00006 6.99996 7.00006C6.39996 7.00006 5.99997 7.40004 5.99997 8.00004V9.00002H4.99999C4.39998 9.00002 4 9.40001 4 10C4 10.6 4.39998 11 4.99999 11H5.99992V12C5.99992 12.6 6.39991 13 6.99991 13C7.59991 13 7.9999 12.6 7.9999 12V11H8.99993C9.59993 11 9.99991 10.6001 9.99991 10.0001C9.99991 9.40001 9.59993 9.00002 8.99993 9.00002Z" fill="#FDE8FF"/>
<path d="M18.5 9.99997C19.3284 9.99997 20 9.3284 20 8.49997C20 7.67154 19.3284 6.99997 18.5 6.99997C17.6716 6.99997 17 7.67154 17 8.49997C17 9.3284 17.6716 9.99997 18.5 9.99997Z" fill="#FDE8FF"/>
<path d="M15.5 13C16.3284 13 17 12.3284 17 11.5C17 10.6715 16.3284 9.99997 15.5 9.99997C14.6716 9.99997 14 10.6715 14 11.5C14 12.3284 14.6716 13 15.5 13Z" fill="#FDE8FF"/>
</svg>
