<svg width="24" height="24" viewBox="0 0 24 24" fill="none" xmlns="http://www.w3.org/2000/svg">
<g clip-path="url(#clip0_395_5470)">
<path d="M13.0001 15.9997C14.5823 15.9997 16.129 15.5305 17.4446 14.6514C18.7602 13.7724 19.7856 12.5229 20.3911 11.0611C20.9966 9.59931 21.155 7.99078 20.8464 6.43893C20.5377 4.88708 19.7757 3.46162 18.6569 2.3428C17.5381 1.22398 16.1126 0.46205 14.5608 0.153368C13.0089 -0.155314 11.4004 0.00311285 9.9386 0.608614C8.47679 1.21411 7.22736 2.2395 6.34831 3.55509C5.46926 4.87068 5.00007 6.4174 5.00007 7.99965C5.00245 10.1207 5.84607 12.1541 7.34585 13.6539C8.84562 15.1536 10.8791 15.9973 13.0001 15.9997ZM13.0001 1.99965C14.1868 1.99965 15.3468 2.35154 16.3335 3.01083C17.3202 3.67012 18.0892 4.60719 18.5433 5.70355C18.9975 6.79991 19.1163 8.00631 18.8848 9.17019C18.6533 10.3341 18.0818 11.4032 17.2427 12.2423C16.4036 13.0814 15.3345 13.6528 14.1706 13.8844C13.0067 14.1159 11.8003 13.9971 10.704 13.5429C9.60761 13.0888 8.67054 12.3198 8.01125 11.3331C7.35196 10.3464 7.00007 9.18634 7.00007 7.99965C7.00166 6.40884 7.63431 4.88364 8.75918 3.75876C9.88406 2.63389 11.4093 2.00124 13.0001 1.99965V1.99965ZM22.9071 14.7726C21.8992 16.2411 20.5769 17.4667 19.0362 18.3603C17.4956 19.2539 15.7752 19.793 14.0001 19.9387V21.9997H18.0001C18.2653 21.9997 18.5196 22.105 18.7072 22.2925C18.8947 22.4801 19.0001 22.7344 19.0001 22.9997C19.0001 23.2649 18.8947 23.5192 18.7072 23.7068C18.5196 23.8943 18.2653 23.9997 18.0001 23.9997H8.00007C7.73485 23.9997 7.4805 23.8943 7.29296 23.7068C7.10543 23.5192 7.00007 23.2649 7.00007 22.9997C7.00007 22.7344 7.10543 22.4801 7.29296 22.2925C7.4805 22.105 7.73485 21.9997 8.00007 21.9997H12.0001V19.9487C9.81751 19.7671 7.72633 18.9914 5.95335 17.7056C4.18036 16.4199 2.79325 14.6733 1.94247 12.6552C1.09169 10.6371 0.809715 8.4246 1.12713 6.25763C1.44455 4.09066 2.34923 2.05196 3.74307 0.36265C3.91201 0.158168 4.15527 0.0291737 4.41932 0.00404383C4.68337 -0.021086 4.94659 0.0597073 5.15107 0.22865C5.35555 0.397593 5.48455 0.640847 5.50968 0.904898C5.53481 1.16895 5.45401 1.43217 5.28507 1.63665C4.42662 2.67916 3.78822 3.88475 3.40838 5.18071C3.02855 6.47666 2.91514 7.83613 3.07501 9.1771C3.23487 10.5181 3.66469 11.8128 4.33855 12.9831C5.01241 14.1535 5.91633 15.1752 6.99581 15.9867C8.07529 16.7981 9.30794 17.3826 10.6194 17.7047C11.9309 18.0268 13.2941 18.08 14.6267 17.8609C15.9593 17.6419 17.2337 17.1552 18.373 16.4302C19.5124 15.7052 20.4931 14.757 21.2561 13.6426C21.4059 13.4237 21.6366 13.2733 21.8974 13.2244C22.1581 13.1756 22.4276 13.2323 22.6466 13.3821C22.8655 13.532 23.0159 13.7627 23.0648 14.0234C23.1137 14.2842 23.0569 14.5537 22.9071 14.7726Z" fill="#FDE8FF"/>
</g>
<defs>
<clipPath id="clip0_395_5470">
<rect width="24" height="24" fill="white"/>
</clipPath>
</defs>
</svg>
