<svg width="24" height="24" viewBox="0 0 24 24" fill="none" xmlns="http://www.w3.org/2000/svg">
<g clip-path="url(#clip0_395_5478)">
<path d="M22.9421 6.8369L20.7601 4.6539L21.7071 3.7069C21.8026 3.61465 21.8788 3.50431 21.9312 3.3823C21.9836 3.2603 22.0112 3.12908 22.0124 2.9963C22.0135 2.86352 21.9882 2.73184 21.9379 2.60894C21.8876 2.48605 21.8134 2.3744 21.7195 2.2805C21.6256 2.18661 21.514 2.11236 21.3911 2.06208C21.2682 2.01179 21.1365 1.98649 21.0037 1.98765C20.8709 1.9888 20.7397 2.01639 20.6177 2.0688C20.4957 2.1212 20.3853 2.19739 20.2931 2.2929L19.3461 3.2399L17.1631 1.0579C16.475 0.40222 15.561 0.0364685 14.6106 0.0364685C13.6602 0.0364685 12.7462 0.40222 12.0581 1.0579C11.7227 1.39306 11.4566 1.79105 11.275 2.22911C11.0934 2.66716 11 3.13671 11 3.6109C11 4.08509 11.0934 4.55463 11.275 4.99269C11.4566 5.43075 11.7227 5.82873 12.0581 6.1639L14.2401 8.3459L8.3461 14.2399L6.1631 12.0579C5.47504 11.4022 4.56105 11.0365 3.6106 11.0365C2.66016 11.0365 1.74617 11.4022 1.0581 12.0579C0.722662 12.3931 0.456559 12.791 0.275003 13.2291C0.0934482 13.6672 0 14.1367 0 14.6109C0 15.0851 0.0934482 15.5546 0.275003 15.9927C0.456559 16.4307 0.722662 16.8287 1.0581 17.1639L3.2401 19.3459L2.2931 20.2929C2.19759 20.3851 2.12141 20.4955 2.069 20.6175C2.01659 20.7395 1.98901 20.8707 1.98785 21.0035C1.9867 21.1363 2.012 21.268 2.06228 21.3909C2.11256 21.5137 2.18682 21.6254 2.28071 21.7193C2.3746 21.8132 2.48625 21.8874 2.60915 21.9377C2.73205 21.988 2.86373 22.0133 2.99651 22.0121C3.12928 22.011 3.2605 21.9834 3.38251 21.931C3.50451 21.8786 3.61486 21.8024 3.7071 21.7069L4.6541 20.7599L6.8371 22.9419C7.17225 23.2772 7.57017 23.5432 8.00814 23.7246C8.4461 23.9061 8.91553 23.9995 9.3896 23.9995C9.86368 23.9995 10.3331 23.9061 10.7711 23.7246C11.209 23.5432 11.607 23.2772 11.9421 22.9419C12.2775 22.6068 12.5436 22.2089 12.7251 21.7709C12.9067 21.333 13.0001 20.8635 13.0001 20.3894C13.0001 19.9153 12.9067 19.4458 12.7251 19.0079C12.5436 18.5699 12.2775 18.172 11.9421 17.8369L9.7601 15.6549L15.6601 9.7599L17.8421 11.9419C18.1772 12.2772 18.5752 12.5432 19.0131 12.7246C19.4511 12.9061 19.9205 12.9995 20.3946 12.9995C20.8687 12.9995 21.3381 12.9061 21.7761 12.7246C22.214 12.5432 22.612 12.2772 22.9471 11.9419C23.2825 11.6068 23.5486 11.2089 23.7301 10.7709C23.9117 10.333 24.0051 9.86351 24.0051 9.3894C24.0051 8.91529 23.9117 8.44583 23.7301 8.00785C23.5486 7.56988 23.2825 7.17198 22.9471 6.8369H22.9421ZM11.0001 20.3899C11.0005 20.6014 10.959 20.8108 10.878 21.0061C10.797 21.2015 10.6781 21.3788 10.5281 21.5279C10.2216 21.8211 9.81378 21.9848 9.3896 21.9848C8.96543 21.9848 8.55761 21.8211 8.2511 21.5279L2.4721 15.7489C2.17015 15.4469 2.00052 15.0374 2.00052 14.6104C2.00052 14.1834 2.17015 13.7738 2.4721 13.4719C2.77405 13.1699 3.18358 13.0003 3.6106 13.0003C4.03762 13.0003 4.44715 13.1699 4.7491 13.4719L10.5281 19.2509C10.6782 19.4001 10.7972 19.5776 10.8782 19.7731C10.9592 19.9686 11.0007 20.1783 11.0001 20.3899ZM21.5281 10.5279C21.2216 10.8211 20.8138 10.9848 20.3896 10.9848C19.9654 10.9848 19.5576 10.8211 19.2511 10.5279L13.4721 4.7489C13.3226 4.59939 13.204 4.42189 13.1231 4.22655C13.0422 4.0312 13.0005 3.82184 13.0005 3.6104C13.0005 3.18338 13.1702 2.77385 13.4721 2.4719C13.7741 2.16995 14.1836 2.00032 14.6106 2.00032C15.0376 2.00032 15.4472 2.16995 15.7491 2.4719L21.5281 8.2509C21.6777 8.40034 21.7965 8.57781 21.8774 8.77316C21.9584 8.96851 22.0001 9.17792 22.0001 9.3894C22.0001 9.60088 21.9584 9.81028 21.8774 10.0056C21.7965 10.201 21.6777 10.3785 21.5281 10.5279V10.5279Z" fill="#FDE8FF"/>
</g>
<defs>
<clipPath id="clip0_395_5478">
<rect width="24" height="24" fill="white"/>
</clipPath>
</defs>
</svg>
