<svg width="24" height="24" viewBox="0 0 24 24" fill="none" xmlns="http://www.w3.org/2000/svg">
<g clip-path="url(#clip0_395_5482)">
<path d="M22.1389 17.7783L13.5919 5.53434C14.9962 4.6551 15.4219 2.80391 14.5427 1.39959C13.6634 -0.00474289 11.8123 -0.430415 10.4079 0.448867C9.0036 1.32815 8.57793 3.17929 9.45721 4.58362C9.6981 4.96837 10.0232 5.29344 10.4079 5.53434L1.86088 17.7783C0.930741 18.9964 0.753179 20.6299 1.39987 22.0193C2.16252 23.3367 3.60833 24.1052 5.1269 24.0003H18.8729C20.3915 24.1052 21.8373 23.3367 22.5999 22.0193C23.2466 20.6299 23.069 18.9964 22.1389 17.7783ZM11.7309 22.0003L17.1889 14.1813L18.5999 16.2083L14.5609 22.0004H11.7309V22.0003ZM6.53891 22.0003L14.5929 10.4623L15.9689 12.4343L9.29188 22.0003H6.53891ZM3.16991 21.0943C2.87333 20.3646 2.99999 19.531 3.49991 18.9223L11.9999 6.74732L13.3809 8.7253C13.3669 8.7433 13.3469 8.7523 13.3339 8.7703L4.1999 21.8593C3.76682 21.755 3.39491 21.4788 3.16991 21.0943ZM20.8299 21.0943C20.4013 21.742 19.644 22.0926 18.8729 22.0003H16.9999L19.8219 17.9563L20.4969 18.9223C20.9978 19.5305 21.1257 20.364 20.8299 21.0943Z" fill="#FDE8FF"/>
</g>
<defs>
<clipPath id="clip0_395_5482">
<rect width="24" height="24" fill="white"/>
</clipPath>
</defs>
</svg>
