<svg width="24" height="24" viewBox="0 0 24 24" fill="none" xmlns="http://www.w3.org/2000/svg">
<path d="M21 12.4237V10.9997C21 8.61275 20.0517 6.32356 18.3639 4.63573C16.6761 2.94791 14.3869 1.99969 12 1.99969C9.613 1.99969 7.32382 2.94791 5.63599 4.63573C3.94816 6.32356 2.99995 8.61275 2.99995 10.9997V12.4237C1.95111 12.8855 1.09275 13.6936 0.568572 14.7128C0.0443932 15.7319 -0.113788 16.9001 0.120508 18.0219C0.354805 19.1438 0.967358 20.151 1.85562 20.8751C2.74388 21.5993 3.85394 21.9963 4.99995 21.9997C5.53038 21.9997 6.03909 21.789 6.41416 21.4139C6.78924 21.0388 6.99995 20.5301 6.99995 19.9997V13.9997C6.99995 13.4693 6.78924 12.9606 6.41416 12.5855C6.03909 12.2104 5.53038 11.9997 4.99995 11.9997V10.9997C4.99995 9.14318 5.73745 7.3627 7.0502 6.04995C8.36296 4.73719 10.1434 3.99969 12 3.99969C13.8565 3.99969 15.6369 4.73719 16.9497 6.04995C18.2625 7.3627 19 9.14318 19 10.9997V11.9997C18.4695 11.9997 17.9608 12.2104 17.5857 12.5855C17.2107 12.9606 17 13.4693 17 13.9997V19.9997C17 20.5301 17.2107 21.0388 17.5857 21.4139C17.9608 21.789 18.4695 21.9997 19 21.9997C20.146 21.9963 21.256 21.5993 22.1443 20.8751C23.0325 20.151 23.6451 19.1438 23.8794 18.0219C24.1137 16.9001 23.9555 15.7319 23.4313 14.7128C22.9071 13.6936 22.0488 12.8855 21 12.4237V12.4237ZM4.99995 19.9997C4.2043 19.9997 3.44124 19.6836 2.87863 19.121C2.31602 18.5584 1.99995 17.7953 1.99995 16.9997C1.99995 16.204 2.31602 15.441 2.87863 14.8784C3.44124 14.3158 4.2043 13.9997 4.99995 13.9997V19.9997ZM19 19.9997V13.9997C19.7956 13.9997 20.5587 14.3158 21.1213 14.8784C21.6839 15.441 22 16.204 22 16.9997C22 17.7953 21.6839 18.5584 21.1213 19.121C20.5587 19.6836 19.7956 19.9997 19 19.9997Z" fill="#FDE8FF"/>
</svg>
