<svg width="24" height="24" viewBox="0 0 24 24" fill="none" xmlns="http://www.w3.org/2000/svg">
<g clip-path="url(#clip0_395_5492)">
<path d="M17.0001 24H7.00509C6.4267 23.9994 5.85525 23.8741 5.32974 23.6325C4.80423 23.3908 4.33705 23.0387 3.96009 22.6C3.58926 22.1705 3.31547 21.666 3.15739 21.121C2.9993 20.576 2.96066 20.0033 3.04409 19.442C3.58059 16.5173 5.14072 13.8792 7.44509 12C5.14069 10.1202 3.58088 7.48124 3.04509 4.556C2.96182 3.99509 3.00046 3.42283 3.15836 2.8782C3.31626 2.33357 3.58971 1.82939 3.96009 1.4C4.33705 0.961326 4.80423 0.60916 5.32974 0.367548C5.85525 0.125935 6.4267 0.000566288 7.00509 0L17.0001 0C17.5783 0.000512143 18.1497 0.125862 18.675 0.367483C19.2004 0.609104 19.6674 0.9613 20.0441 1.4C20.415 1.82895 20.689 2.33285 20.8474 2.87732C21.0058 3.42179 21.0449 3.99403 20.9621 4.555C20.4204 7.48095 18.8572 10.1194 16.5511 12C18.8559 13.8822 20.4173 16.5217 20.9571 19.448C21.04 20.0091 21.0009 20.5815 20.8425 21.1262C20.6841 21.6708 20.4101 22.1749 20.0391 22.604C19.6625 23.0413 19.1962 23.3924 18.6718 23.6333C18.1474 23.8742 17.5772 23.9993 17.0001 24V24ZM17.0001 2H7.00509C6.71501 1.99976 6.4283 2.06218 6.16458 2.18299C5.90086 2.30381 5.66635 2.48016 5.47709 2.7C5.29219 2.91037 5.15562 3.15871 5.07701 3.42754C4.9984 3.69636 4.97966 3.97915 5.02209 4.256C5.39709 6.756 6.94409 9.096 9.62209 11.213C9.74033 11.3066 9.83587 11.4258 9.90154 11.5615C9.96722 11.6973 10.0013 11.8462 10.0013 11.997C10.0013 12.1478 9.96722 12.2967 9.90154 12.4325C9.83587 12.5682 9.74033 12.6874 9.62209 12.781C6.94409 14.9 5.40009 17.242 5.02209 19.741C4.9792 20.0183 4.99772 20.3017 5.07634 20.5711C5.15496 20.8404 5.29177 21.0893 5.47709 21.3C5.66635 21.5198 5.90086 21.6962 6.16458 21.817C6.4283 21.9378 6.71501 22.0002 7.00509 22H17.0001C17.2902 22.0002 17.5769 21.9378 17.8406 21.817C18.1043 21.6962 18.3388 21.5198 18.5281 21.3C18.7129 21.0899 18.8495 20.842 18.9283 20.5735C19.007 20.3051 19.0261 20.0226 18.9841 19.746C18.6111 17.259 17.0641 14.917 14.3841 12.784C14.2666 12.6903 14.1717 12.5714 14.1065 12.436C14.0412 12.3006 14.0074 12.1523 14.0074 12.002C14.0074 11.8517 14.0412 11.7034 14.1065 11.568C14.1717 11.4326 14.2666 11.3137 14.3841 11.22C17.0651 9.087 18.6121 6.745 18.9841 4.257C19.0259 3.97955 19.0064 3.69629 18.9267 3.42725C18.847 3.1582 18.7093 2.90994 18.5231 2.7C18.3344 2.4808 18.1007 2.30482 17.8379 2.18403C17.5751 2.06324 17.2893 2.00047 17.0001 2V2Z" fill="#FDE8FF"/>
</g>
<defs>
<clipPath id="clip0_395_5492">
<rect width="24" height="24" fill="white"/>
</clipPath>
</defs>
</svg>
