<svg width="24" height="24" viewBox="0 0 24 24" fill="none" xmlns="http://www.w3.org/2000/svg">
<path d="M16.9003 4.02044C16.663 2.89664 16.0467 1.88854 15.1546 1.16511C14.2625 0.441677 13.1488 0.046875 12.0003 0.046875C10.8517 0.046875 9.73804 0.441677 8.84594 1.16511C7.95383 1.88854 7.33751 2.89664 7.10027 4.02044C6.17204 4.09392 5.2776 4.40161 4.50061 4.91474C3.72362 5.42786 3.08944 6.12965 2.6574 6.95448C2.22535 7.77932 2.00954 8.70025 2.03016 9.63116C2.05077 10.5621 2.30713 11.4725 2.77527 12.2774L9.01927 22.3334C9.33636 22.8373 9.77603 23.2525 10.2972 23.5403C10.8183 23.8281 11.4039 23.9791 11.9993 23.9791C12.5946 23.9791 13.1802 23.8281 13.7014 23.5403C14.2225 23.2525 14.6622 22.8373 14.9793 22.3334L21.2403 12.2534C21.7029 11.4481 21.9544 10.5388 21.9712 9.61021C21.9881 8.68159 21.7698 7.76379 21.3367 6.94218C20.9036 6.12058 20.2697 5.42186 19.4941 4.91102C18.7184 4.40018 17.8261 4.09382 16.9003 4.02044V4.02044ZM20.0003 9.50044C19.9982 9.6927 19.9794 9.88441 19.9443 10.0734C17.7699 10.5808 15.5516 10.8768 13.3203 10.9574C11.3293 5.64744 19.5933 3.84244 20.0003 9.50044ZM12.0003 2.00044C12.6632 2.00297 13.3066 2.22503 13.83 2.63192C14.3534 3.0388 14.7273 3.6076 14.8933 4.24944C13.7238 4.60706 12.7062 5.3429 12.0003 6.34144C11.2943 5.3429 10.2767 4.60706 9.10727 4.24944C9.27322 3.6076 9.6471 3.0388 10.1705 2.63192C10.6939 2.22503 11.3373 2.00297 12.0003 2.00044V2.00044ZM7.50027 6.00044C8.0847 6.00518 8.65875 6.15549 9.1705 6.4378C9.68226 6.7201 10.1156 7.12549 10.4313 7.61732C10.7471 8.10915 10.9353 8.67191 10.9789 9.25474C11.0226 9.83756 10.9203 10.4221 10.6813 10.9554C8.45074 10.8683 6.23318 10.5737 4.05727 10.0754C3.97389 9.57485 4.00037 9.06212 4.13488 8.57278C4.26938 8.08345 4.50869 7.62921 4.83622 7.24157C5.16374 6.85392 5.57164 6.54214 6.03166 6.32783C6.49167 6.11352 6.99278 6.00181 7.50027 6.00044V6.00044ZM13.2783 21.2864C13.1375 21.4964 12.9471 21.6685 12.7241 21.7875C12.501 21.9064 12.2521 21.9687 11.9993 21.9687C11.7465 21.9687 11.4975 21.9064 11.2745 21.7875C11.0514 21.6685 10.8611 21.4964 10.7203 21.2864L5.17027 12.3464C9.6848 13.1724 14.3117 13.1724 18.8263 12.3464L13.2783 21.2864Z" fill="#FDE8FF"/>
</svg>
