<svg width="24" height="24" viewBox="0 0 24 24" fill="none" xmlns="http://www.w3.org/2000/svg">
<g clip-path="url(#clip0_395_5501)">
<path d="M23.7071 22.2925L22.6301 21.2155L20.9001 19.4885L23.6891 16.6995C23.8078 16.5806 23.8947 16.4337 23.9416 16.2724C23.9886 16.1111 23.9941 15.9405 23.9577 15.7765C23.9214 15.6125 23.8442 15.4602 23.7335 15.3339C23.6228 15.2075 23.482 15.1111 23.3241 15.0535L14.3551 11.7995C13.9979 11.6704 13.6112 11.6457 13.2404 11.7283C12.8696 11.8109 12.53 11.9974 12.2614 12.266C11.9927 12.5345 11.8061 12.874 11.7233 13.2448C11.6406 13.6156 11.6651 14.0022 11.7941 14.3595L15.0571 23.3285C15.1144 23.4865 15.2106 23.6275 15.3368 23.7385C15.463 23.8495 15.6151 23.9269 15.7791 23.9635C15.8504 23.979 15.9232 23.9868 15.9961 23.9865C16.2613 23.9865 16.5156 23.8811 16.7031 23.6935L19.4891 20.8995L21.2161 22.6265L22.2931 23.7035C22.4817 23.8857 22.7343 23.9865 22.9965 23.9842C23.2587 23.9819 23.5095 23.8768 23.6949 23.6914C23.8803 23.5059 23.9855 23.2551 23.9878 22.9929C23.9901 22.7307 23.8893 22.4781 23.7071 22.2895V22.2925ZM16.4001 21.1645L13.6761 13.6745L21.1661 16.3985L16.4001 21.1645Z" fill="#FDE8FF"/>
<path d="M10 20C8.02219 20 6.08879 19.4135 4.4443 18.3147C2.79981 17.2159 1.51809 15.6541 0.761209 13.8268C0.00433284 11.9996 -0.193701 9.98891 0.192152 8.0491C0.578004 6.10929 1.53041 4.32746 2.92894 2.92894C4.32746 1.53041 6.10929 0.578004 8.0491 0.192152C9.98891 -0.193701 11.9996 0.00433284 13.8268 0.761209C15.6541 1.51809 17.2159 2.79981 18.3147 4.4443C19.4135 6.08879 20 8.02219 20 10C20 10.2652 19.8946 10.5196 19.7071 10.7071C19.5196 10.8946 19.2652 11 19 11C18.7348 11 18.4804 10.8946 18.2929 10.7071C18.1054 10.5196 18 10.2652 18 10C18 8.41775 17.5308 6.87104 16.6518 5.55544C15.7727 4.23985 14.5233 3.21447 13.0615 2.60897C11.5997 2.00347 9.99113 1.84504 8.43928 2.15372C6.88743 2.4624 5.46197 3.22433 4.34315 4.34315C3.22433 5.46197 2.4624 6.88743 2.15372 8.43928C1.84504 9.99113 2.00347 11.5997 2.60897 13.0615C3.21447 14.5233 4.23985 15.7727 5.55544 16.6518C6.87104 17.5308 8.41775 18 10 18C10.2652 18 10.5196 18.1054 10.7071 18.2929C10.8946 18.4804 11 18.7348 11 19C11 19.2652 10.8946 19.5196 10.7071 19.7071C10.5196 19.8946 10.2652 20 10 20Z" fill="#FDE8FF"/>
<path d="M8.08403 15.6202C7.95261 15.6203 7.82247 15.5944 7.70103 15.5442C6.78989 15.1657 5.98612 14.5685 5.36092 13.8052C4.73572 13.042 4.30837 12.1364 4.11672 11.1686C3.92508 10.2008 3.97505 9.20062 4.26222 8.25673C4.54938 7.31284 5.06488 6.45433 5.76305 5.75722C6.46122 5.06012 7.32052 4.54594 8.26485 4.26022C9.20918 3.9745 10.2094 3.92606 11.1769 4.11919C12.1444 4.31231 13.0494 4.74104 13.8117 5.36741C14.574 5.99378 15.17 6.79846 15.547 7.71018C15.5999 7.83199 15.6279 7.96311 15.6296 8.09588C15.6312 8.22865 15.6064 8.36041 15.5566 8.48349C15.5067 8.60656 15.4329 8.71848 15.3393 8.81271C15.2458 8.90694 15.1344 8.9816 15.0117 9.03233C14.889 9.08306 14.7574 9.10884 14.6246 9.10818C14.4919 9.10751 14.3606 9.08041 14.2384 9.02846C14.1162 8.9765 14.0055 8.90073 13.9129 8.80557C13.8203 8.7104 13.7476 8.59775 13.699 8.47418C13.4471 7.86692 13.0494 7.33112 12.541 6.91419C12.0327 6.49726 11.4294 6.21206 10.7846 6.08382C10.1397 5.95559 9.47326 5.98827 8.84407 6.17898C8.21489 6.36969 7.64241 6.71255 7.1773 7.17722C6.71219 7.64188 6.36879 8.21403 6.17747 8.84303C5.98616 9.47203 5.95284 10.1385 6.08046 10.7834C6.20808 11.4284 6.4927 12.0319 6.90914 12.5407C7.32559 13.0494 7.86101 13.4477 8.46803 13.7002C8.68196 13.7887 8.85854 13.9487 8.96764 14.1529C9.07675 14.3571 9.11162 14.5929 9.0663 14.8199C9.02099 15.0469 8.8983 15.2512 8.71917 15.3979C8.54003 15.5446 8.31555 15.6245 8.08403 15.6242V15.6202Z" fill="#FDE8FF"/>
</g>
<defs>
<clipPath id="clip0_395_5501">
<rect width="24" height="24" fill="white"/>
</clipPath>
</defs>
</svg>
