<svg width="24" height="24" viewBox="0 0 24 24" fill="none" xmlns="http://www.w3.org/2000/svg">
<g clip-path="url(#clip0_395_5506)">
<path d="M7.50498 23.9996C5.69473 23.9985 3.94598 23.3426 2.58143 22.1531C1.21688 20.9635 0.328614 19.3206 0.0805405 17.5274C-0.167533 15.7342 0.241329 13.9119 1.23168 12.3965C2.22203 10.8812 3.72703 9.7752 5.46898 9.28262C6.7351 8.92005 8.07527 8.90347 9.34998 9.23462L17.258 1.32862C17.6778 0.905905 18.1774 0.570757 18.7277 0.342618C19.2781 0.11448 19.8682 -0.00210653 20.464 -0.000377781V-0.000377781C21.4015 0.000416651 22.3005 0.373214 22.9634 1.03617C23.6264 1.69913 23.9992 2.59806 24 3.53562C24.0015 4.13141 23.885 4.7216 23.657 5.27206C23.4291 5.82253 23.0943 6.32235 22.672 6.74262L22 7.41462C21.624 7.78806 21.1159 7.99825 20.586 7.99962H19V8.99962C19 9.53006 18.7893 10.0388 18.4142 10.4138C18.0391 10.7889 17.5304 10.9996 17 10.9996H16V12.5856C16.0007 12.8484 15.9493 13.1086 15.8487 13.3513C15.7481 13.5941 15.6003 13.8144 15.414 13.9996L14.764 14.6496C15.0969 15.9237 15.0807 17.264 14.717 18.5296C14.3077 19.9716 13.4773 21.2586 12.3321 22.2258C11.1869 23.193 9.77913 23.7964 8.28898 23.9586C8.02852 23.9857 7.76684 23.9994 7.50498 23.9996V23.9996ZM7.50498 10.9996C6.48113 10.9986 5.47732 11.2834 4.60656 11.822C3.7358 12.3606 3.03266 13.1315 2.57628 14.048C2.1199 14.9645 1.92841 15.9902 2.02335 17.0097C2.1183 18.0291 2.49591 19.0018 3.1137 19.8183C3.73148 20.6347 4.5649 21.2625 5.52013 21.631C6.47537 21.9995 7.51451 22.0941 8.52057 21.904C9.52662 21.714 10.4597 21.2469 11.2147 20.5553C11.9696 19.8638 12.5166 18.9752 12.794 17.9896C13.106 16.9062 13.071 15.7522 12.694 14.6896C12.6324 14.5122 12.6221 14.321 12.6642 14.1379C12.7063 13.9549 12.7991 13.7874 12.932 13.6546L14 12.5856V10.9996C14 10.4692 14.2107 9.96048 14.5858 9.58541C14.9608 9.21034 15.4695 8.99962 16 8.99962H17V7.99962C17 7.46919 17.2107 6.96048 17.5858 6.58541C17.9608 6.21034 18.4695 5.99962 19 5.99962H20.586L21.258 5.32762C21.4939 5.09278 21.681 4.81349 21.8084 4.5059C21.9357 4.19831 22.0008 3.86853 22 3.53562C21.9997 3.1285 21.8379 2.73812 21.5502 2.45015C21.2624 2.16218 20.8721 2.00015 20.465 1.99962C20.1318 1.9988 19.8018 2.06405 19.4941 2.19158C19.1863 2.31912 18.9069 2.50641 18.672 2.74262L10.341 11.0726C10.208 11.2055 10.0403 11.2982 9.85707 11.3401C9.67383 11.3821 9.48248 11.3715 9.30498 11.3096C8.72505 11.1054 8.1148 11.0006 7.49998 10.9996H7.50498ZM4.99998 17.9996C4.99998 18.1974 5.05863 18.3907 5.16851 18.5552C5.27839 18.7196 5.43457 18.8478 5.61729 18.9235C5.80002 18.9992 6.00109 19.019 6.19507 18.9804C6.38905 18.9418 6.56723 18.8466 6.70708 18.7067C6.84694 18.5669 6.94218 18.3887 6.98076 18.1947C7.01935 18.0007 6.99954 17.7997 6.92386 17.6169C6.84817 17.4342 6.72 17.278 6.55555 17.1682C6.3911 17.0583 6.19776 16.9996 5.99998 16.9996C5.73476 16.9996 5.48041 17.105 5.29287 17.2925C5.10533 17.4801 4.99998 17.7344 4.99998 17.9996Z" fill="#FDE8FF"/>
</g>
<defs>
<clipPath id="clip0_395_5506">
<rect width="24" height="24" fill="white"/>
</clipPath>
</defs>
</svg>
