<svg width="24" height="24" viewBox="0 0 24 24" fill="none" xmlns="http://www.w3.org/2000/svg">
<g clip-path="url(#clip0_395_5507)">
<path d="M19 5.99969H13V2.99969C13 2.73448 12.8946 2.48012 12.7071 2.29259C12.5196 2.10505 12.2652 1.99969 12 1.99969C11.7348 1.99969 11.4804 2.10505 11.2929 2.29259C11.1054 2.48012 11 2.73448 11 2.99969V5.99969H5C3.6744 6.00128 2.40356 6.52858 1.46622 7.46591C0.528882 8.40325 0.00158786 9.6741 0 10.9997L0 14.9997C0.00158786 16.3253 0.528882 17.5961 1.46622 18.5335C2.40356 19.4708 3.6744 19.9981 5 19.9997H19C20.3256 19.9981 21.5964 19.4708 22.5338 18.5335C23.4711 17.5961 23.9984 16.3253 24 14.9997V10.9997C23.9984 9.6741 23.4711 8.40325 22.5338 7.46591C21.5964 6.52858 20.3256 6.00128 19 5.99969V5.99969ZM22 14.9997C22 15.7953 21.6839 16.5584 21.1213 17.121C20.5587 17.6836 19.7956 17.9997 19 17.9997H5C4.20435 17.9997 3.44129 17.6836 2.87868 17.121C2.31607 16.5584 2 15.7953 2 14.9997V10.9997C2 10.204 2.31607 9.44098 2.87868 8.87837C3.44129 8.31576 4.20435 7.99969 5 7.99969H19C19.7956 7.99969 20.5587 8.31576 21.1213 8.87837C21.6839 9.44098 22 10.204 22 10.9997V14.9997Z" fill="#FDE8FF"/>
<path d="M15.0002 13.9997H9.00024C8.73503 13.9997 8.48067 14.1051 8.29314 14.2926C8.1056 14.4801 8.00024 14.7345 8.00024 14.9997C8.00024 15.2649 8.1056 15.5193 8.29314 15.7068C8.48067 15.8943 8.73503 15.9997 9.00024 15.9997H15.0002C15.2654 15.9997 15.5198 15.8943 15.7073 15.7068C15.8949 15.5193 16.0002 15.2649 16.0002 14.9997C16.0002 14.7345 15.8949 14.4801 15.7073 14.2926C15.5198 14.1051 15.2654 13.9997 15.0002 13.9997Z" fill="#FDE8FF"/>
<path d="M10 12.0003H11C11.2652 12.0003 11.5196 11.8949 11.7071 11.7074C11.8946 11.5199 12 11.2655 12 11.0003C12 10.7351 11.8946 10.4807 11.7071 10.2932C11.5196 10.1057 11.2652 10.0003 11 10.0003H10C9.73478 10.0003 9.48043 10.1057 9.29289 10.2932C9.10536 10.4807 9 10.7351 9 11.0003C9 11.2655 9.10536 11.5199 9.29289 11.7074C9.48043 11.8949 9.73478 12.0003 10 12.0003V12.0003Z" fill="#FDE8FF"/>
<path d="M19.0002 10.0003H15.0002C14.735 10.0003 14.4807 10.1057 14.2931 10.2932C14.1056 10.4807 14.0002 10.7351 14.0002 11.0003C14.0002 11.2655 14.1056 11.5199 14.2931 11.7074C14.4807 11.8949 14.735 12.0003 15.0002 12.0003H19.0002C19.2655 12.0003 19.5198 11.8949 19.7074 11.7074C19.8949 11.5199 20.0002 11.2655 20.0002 11.0003C20.0002 10.7351 19.8949 10.4807 19.7074 10.2932C19.5198 10.1057 19.2655 10.0003 19.0002 10.0003Z" fill="#FDE8FF"/>
<path d="M6 10.0003H5C4.73478 10.0003 4.48043 10.1057 4.29289 10.2932C4.10536 10.4807 4 10.7351 4 11.0003C4 11.2655 4.10536 11.5199 4.29289 11.7074C4.48043 11.8949 4.73478 12.0003 5 12.0003H6C6.26522 12.0003 6.51957 11.8949 6.70711 11.7074C6.89464 11.5199 7 11.2655 7 11.0003C7 10.7351 6.89464 10.4807 6.70711 10.2932C6.51957 10.1057 6.26522 10.0003 6 10.0003Z" fill="#FDE8FF"/>
<path d="M5 15.9997C5.55228 15.9997 6 15.552 6 14.9997C6 14.4474 5.55228 13.9997 5 13.9997C4.44771 13.9997 4 14.4474 4 14.9997C4 15.552 4.44771 15.9997 5 15.9997Z" fill="#FDE8FF"/>
<path d="M19 15.9997C19.5523 15.9997 20 15.552 20 14.9997C20 14.4474 19.5523 13.9997 19 13.9997C18.4477 13.9997 18 14.4474 18 14.9997C18 15.552 18.4477 15.9997 19 15.9997Z" fill="#FDE8FF"/>
</g>
<defs>
<clipPath id="clip0_395_5507">
<rect width="24" height="24" fill="white"/>
</clipPath>
</defs>
</svg>
