<svg width="24" height="24" viewBox="0 0 24 24" fill="none" xmlns="http://www.w3.org/2000/svg">
<g clip-path="url(#clip0_395_5509)">
<path d="M20.4572 4.55507L12.4862 0.126072C12.3376 0.0434115 12.1703 3.05176e-05 12.0002 3.05176e-05C11.8302 3.05176e-05 11.6629 0.0434115 11.5142 0.126072L3.54324 4.55507C3.07565 4.81486 2.68602 5.19495 2.41472 5.65597C2.14342 6.11698 2.00032 6.64215 2.00024 7.17707V19.0001C2.00183 20.3257 2.52913 21.5965 3.46646 22.5339C4.4038 23.4712 5.67465 23.9985 7.00024 24.0001H17.0002C18.3258 23.9985 19.5967 23.4712 20.534 22.5339C21.4714 21.5965 21.9987 20.3257 22.0002 19.0001V7.17707C22.0002 6.64215 21.8571 6.11698 21.5858 5.65597C21.3145 5.19495 20.9248 4.81486 20.4572 4.55507V4.55507ZM20.0002 19.0001C20.0002 19.7957 19.6842 20.5588 19.1216 21.1214C18.559 21.684 17.7959 22.0001 17.0002 22.0001H7.00024C6.20459 22.0001 5.44153 21.684 4.87892 21.1214C4.31631 20.5588 4.00024 19.7957 4.00024 19.0001V7.17707C3.9998 6.99819 4.04735 6.82246 4.13793 6.66821C4.22851 6.51396 4.35881 6.38683 4.51524 6.30007L12.0002 2.14407L19.4862 6.30007C19.6425 6.38696 19.7726 6.51415 19.863 6.66839C19.9534 6.82263 20.0008 6.99829 20.0002 7.17707V19.0001Z" fill="#FDE8FF"/>
<path d="M12 8.50031C12.8284 8.50031 13.5 7.82873 13.5 7.00031C13.5 6.17188 12.8284 5.50031 12 5.50031C11.1716 5.50031 10.5 6.17188 10.5 7.00031C10.5 7.82873 11.1716 8.50031 12 8.50031Z" fill="#FDE8FF"/>
</g>
<defs>
<clipPath id="clip0_395_5509">
<rect width="24" height="24" fill="white"/>
</clipPath>
</defs>
</svg>
