<svg width="24" height="24" viewBox="0 0 24 24" fill="none" xmlns="http://www.w3.org/2000/svg">
<g clip-path="url(#clip0_395_5520)">
<path d="M17.0002 13.1841V10.0001C17.0002 9.73486 16.8949 9.4805 16.7074 9.29297C16.5198 9.10543 16.2655 9.00007 16.0002 9.00007V2.41407C16.0003 2.00278 15.8952 1.59831 15.6949 1.23909C15.4946 0.879868 15.2057 0.577836 14.8558 0.361692C14.5059 0.145548 14.1065 0.022473 13.6956 0.00416197C13.2847 -0.0141491 12.876 0.0729123 12.5082 0.257073L9.88624 1.56707C9.31845 1.84945 8.84093 2.28499 8.50766 2.82449C8.17438 3.36399 7.99862 3.98594 8.00024 4.62007V9.00007C7.73503 9.00007 7.48067 9.10543 7.29314 9.29297C7.1056 9.4805 7.00024 9.73486 7.00024 10.0001V13.1841C6.41734 13.3902 5.91234 13.7713 5.55433 14.2754C5.19633 14.7794 5.00281 15.3818 5.00024 16.0001V19.0001C5.00183 20.3257 5.52913 21.5965 6.46646 22.5339C7.4038 23.4712 8.67465 23.9985 10.0002 24.0001H14.0002C15.3258 23.9985 16.5967 23.4712 17.534 22.5339C18.4714 21.5965 18.9987 20.3257 19.0002 19.0001V16.0001C18.9977 15.3818 18.8042 14.7794 18.4462 14.2754C18.0882 13.7713 17.5832 13.3902 17.0002 13.1841V13.1841ZM9.00024 13.0001V11.0001H15.0002V13.0001H9.00024ZM10.0002 4.62007C9.99951 4.3575 10.0723 4.09995 10.2103 3.87657C10.3483 3.6532 10.5461 3.4729 10.7812 3.35607L13.4002 2.04607C13.4631 2.01351 13.5333 1.99774 13.6041 2.0003C13.6749 2.00286 13.7438 2.02366 13.8041 2.06068C13.8645 2.0977 13.9143 2.14969 13.9486 2.21161C13.983 2.27352 14.0008 2.34326 14.0002 2.41407V9.00007H10.0002V4.62007ZM17.0002 19.0001C17.0002 19.7957 16.6842 20.5588 16.1216 21.1214C15.559 21.684 14.7959 22.0001 14.0002 22.0001H10.0002C9.20459 22.0001 8.44153 21.684 7.87892 21.1214C7.31631 20.5588 7.00024 19.7957 7.00024 19.0001V16.0001C7.00024 15.7349 7.1056 15.4805 7.29314 15.293C7.48067 15.1054 7.73503 15.0001 8.00024 15.0001H16.0002C16.2655 15.0001 16.5198 15.1054 16.7074 15.293C16.8949 15.4805 17.0002 15.7349 17.0002 16.0001V19.0001Z" fill="#FDE8FF"/>
</g>
<defs>
<clipPath id="clip0_395_5520">
<rect width="24" height="24" fill="white"/>
</clipPath>
</defs>
</svg>
