<svg width="24" height="24" viewBox="0 0 24 24" fill="none" xmlns="http://www.w3.org/2000/svg">
<g clip-path="url(#clip0_395_5528)">
<path d="M23.229 0.771029C22.7564 0.300836 22.1234 0.0270629 21.4571 0.00479889C20.7908 -0.0174652 20.1409 0.213432 19.638 0.651029L5.472 13.133C3.137 13.573 0 14.874 0 17.6C0.00185286 19.2968 0.676732 20.9236 1.87656 22.1235C3.07639 23.3233 4.70318 23.9982 6.4 24C9.125 24 10.427 20.864 10.867 18.529L23.352 4.35803C23.7887 3.85532 24.0188 3.20586 23.996 2.54034C23.9732 1.87482 23.6991 1.24264 23.229 0.771029V0.771029ZM10.141 16.327L7.673 13.859L9.678 12.092L11.908 14.322L10.141 16.327ZM6.4 22C5.23345 21.9987 4.11507 21.5347 3.29019 20.7098C2.46532 19.885 2.00132 18.7666 2 17.6C2 16.092 4.639 15.313 6.049 15.063L8.937 17.95C8.686 19.361 7.908 22 6.4 22V22ZM21.849 3.04003L13.233 12.818L11.181 10.767L20.956 2.15403C21.0764 2.05074 21.2312 1.99656 21.3897 2.00229C21.5482 2.00801 21.6988 2.07323 21.8114 2.18494C21.924 2.29665 21.9904 2.44667 21.9973 2.60513C22.0043 2.76358 21.9513 2.91886 21.849 3.04003V3.04003Z" fill="#FDE8FF"/>
</g>
<defs>
<clipPath id="clip0_395_5528">
<rect width="24" height="24" fill="white"/>
</clipPath>
</defs>
</svg>
