<svg width="24" height="24" viewBox="0 0 24 24" fill="none" xmlns="http://www.w3.org/2000/svg">
<g clip-path="url(#clip0_395_5531)">
<path d="M12.0002 0C9.82131 4.93792e-05 7.69148 0.647215 5.88087 1.85942C4.07026 3.07162 2.66045 4.79425 1.83024 6.80882C1.00003 8.82339 0.786831 11.0391 1.21767 13.175C1.64852 15.311 2.704 17.2708 4.25024 18.806L8.19324 22.447C9.20673 23.4391 10.5675 23.9963 11.9857 24C13.4039 24.0038 14.7675 23.4537 15.7862 22.467L19.7782 18.778C21.3166 17.2396 22.3641 15.2796 22.7886 13.1459C23.213 11.0122 22.9951 8.80047 22.1626 6.79053C21.3301 4.78059 19.9202 3.06265 18.1113 1.85395C16.3025 0.645245 14.1758 6.9059e-05 12.0002 0V0ZM18.3922 17.337L14.4082 21.018C13.7532 21.6352 12.8862 21.9774 11.9862 21.9741C11.0861 21.9707 10.2217 21.6221 9.57124 21L5.63624 17.364C4.58969 16.3174 3.8174 15.0289 3.38777 13.6126C2.95814 12.1963 2.88443 10.6959 3.17318 9.24424C3.46193 7.79263 4.10422 6.43463 5.04315 5.29054C5.98209 4.14644 7.18869 3.25156 8.55608 2.68517C9.92347 2.11877 11.4094 1.89835 12.8824 2.04341C14.3553 2.18848 15.7697 2.69456 17.0003 3.51683C18.231 4.33909 19.2398 5.45217 19.9375 6.75745C20.6352 8.06274 21.0002 9.51995 21.0002 11C21.0046 12.176 20.7765 13.3413 20.3289 14.4289C19.8813 15.5164 19.2232 16.5047 18.3922 17.337V17.337ZM16.7102 7.663L13.7102 5.582C13.2076 5.23469 12.6112 5.04867 12.0002 5.04867C11.3893 5.04867 10.7929 5.23469 10.2902 5.582L7.29024 7.663C6.89215 7.93917 6.56687 8.30765 6.34222 8.73692C6.11757 9.1662 6.00023 9.6435 6.00024 10.128V13.5C6.00024 14.163 6.26364 14.7989 6.73248 15.2678C7.20132 15.7366 7.8372 16 8.50024 16H15.5002C16.1633 16 16.7992 15.7366 17.268 15.2678C17.7369 14.7989 18.0002 14.163 18.0002 13.5V10.128C18.0003 9.6435 17.8829 9.1662 17.6583 8.73692C17.4336 8.30765 17.1083 7.93917 16.7102 7.663V7.663ZM16.0002 13.5C16.0002 13.6326 15.9476 13.7598 15.8538 13.8536C15.76 13.9473 15.6329 14 15.5002 14H14.0002V12C14.0002 11.7348 13.8949 11.4804 13.7074 11.2929C13.5198 11.1054 13.2655 11 13.0002 11H11.0002C10.735 11 10.4807 11.1054 10.2931 11.2929C10.1056 11.4804 10.0002 11.7348 10.0002 12V14H8.50024C8.36764 14 8.24046 13.9473 8.14669 13.8536C8.05292 13.7598 8.00024 13.6326 8.00024 13.5V10.128C8.00019 9.96644 8.03927 9.80728 8.11416 9.66412C8.18905 9.52097 8.2975 9.39809 8.43024 9.306L11.4302 7.225C11.598 7.10968 11.7967 7.04794 12.0002 7.04794C12.2038 7.04794 12.4025 7.10968 12.5702 7.225L15.5702 9.306C15.703 9.39809 15.8114 9.52097 15.8863 9.66412C15.9612 9.80728 16.0003 9.96644 16.0002 10.128V13.5Z" fill="#FDE8FF"/>
</g>
<defs>
<clipPath id="clip0_395_5531">
<rect width="24" height="24" fill="white"/>
</clipPath>
</defs>
</svg>
