<svg width="24" height="24" viewBox="0 0 24 24" fill="none" xmlns="http://www.w3.org/2000/svg">
<g clip-path="url(#clip0_395_5536)">
<path d="M12 24.0001C10.5761 24.0032 9.20815 23.4456 8.19203 22.4481L4.25003 18.8051C3.20486 17.7905 2.37162 16.5785 1.79864 15.2393C1.22566 13.9001 0.92437 12.4604 0.912246 11.0039C0.900122 9.54728 1.17741 8.10281 1.72801 6.75427C2.27862 5.40573 3.09157 4.17997 4.1197 3.14813C5.14783 2.1163 6.37065 1.29893 7.71721 0.743476C9.06376 0.18802 10.5072 -0.0944649 11.9638 -0.0875848C13.4204 -0.0807047 14.8612 0.215403 16.2024 0.783555C17.5436 1.35171 18.7587 2.18059 19.777 3.22209C21.8398 5.28497 22.9987 8.08279 22.9987 11.0001C22.9987 13.9174 21.8398 16.7152 19.777 18.7781L15.786 22.4671C14.774 23.455 13.4143 24.0056 12 24.0001V24.0001ZM12 2.00009C10.22 2.00007 8.47991 2.5279 6.99985 3.51684C5.5198 4.50577 4.36623 5.91138 3.68504 7.55593C3.00384 9.20047 2.82561 11.0101 3.17288 12.7559C3.52016 14.5018 4.37734 16.1054 5.63603 17.3641L9.57003 21.0001C10.2208 21.6219 11.0852 21.9705 11.9852 21.974C12.8853 21.9775 13.7524 21.6358 14.408 21.0191L18.392 17.3371C20.0675 15.6466 21.0051 13.3612 20.9996 10.9811C20.9942 8.60098 20.0462 6.31993 18.363 4.63709C17.5295 3.79863 16.5379 3.13384 15.4457 2.6812C14.3535 2.22856 13.1823 1.99705 12 2.00009V2.00009ZM12 18.0001C10.6156 18.0001 9.26218 17.5895 8.11103 16.8204C6.95989 16.0512 6.06268 14.958 5.53287 13.6789C5.00306 12.3998 4.86443 10.9923 5.13453 9.63446C5.40463 8.27659 6.07131 7.02931 7.05028 6.05034C8.02925 5.07137 9.27653 4.40469 10.6344 4.13459C11.9923 3.86449 13.3997 4.00312 14.6788 4.53293C15.9579 5.06274 17.0511 5.95995 17.8203 7.1111C18.5895 8.26224 19 9.61562 19 11.0001C18.9979 12.856 18.2597 14.6352 16.9474 15.9475C15.6351 17.2598 13.8559 17.998 12 18.0001V18.0001ZM12 6.00009C11.0111 6.00009 10.0444 6.29333 9.22217 6.84274C8.39993 7.39215 7.75907 8.17304 7.38063 9.08667C7.00219 10.0003 6.90317 11.0056 7.0961 11.9755C7.28903 12.9454 7.76523 13.8364 8.46449 14.5356C9.16375 15.2349 10.0547 15.7111 11.0246 15.904C11.9945 16.0969 12.9998 15.9979 13.9134 15.6195C14.8271 15.241 15.608 14.6002 16.1574 13.7779C16.7068 12.9557 17 11.989 17 11.0001C16.9984 9.67449 16.4711 8.40365 15.5338 7.46631C14.5965 6.52897 13.3256 6.00168 12 6.00009V6.00009ZM13.707 12.7071C13.8945 12.5196 13.9998 12.2653 13.9998 12.0001C13.9998 11.7349 13.8945 11.4806 13.707 11.2931L13 10.5861V9.00009C13 8.73487 12.8947 8.48052 12.7071 8.29298C12.5196 8.10545 12.2652 8.00009 12 8.00009C11.7348 8.00009 11.4805 8.10545 11.2929 8.29298C11.1054 8.48052 11 8.73487 11 9.00009V11.0001C11.0001 11.2653 11.1055 11.5196 11.293 11.7071L12.293 12.7071C12.4806 12.8946 12.7349 12.9999 13 12.9999C13.2652 12.9999 13.5195 12.8946 13.707 12.7071V12.7071Z" fill="#FDE8FF"/>
</g>
<defs>
<clipPath id="clip0_395_5536">
<rect width="24" height="24" fill="white"/>
</clipPath>
</defs>
</svg>
