<svg width="24" height="24" viewBox="0 0 24 24" fill="none" xmlns="http://www.w3.org/2000/svg">
<g clip-path="url(#clip0_395_5553)">
<path d="M22.9997 16.0003C22.7345 16.0003 22.4802 16.1057 22.2926 16.2932C22.1051 16.4807 21.9997 16.7351 21.9997 17.0003V19.0003C21.9997 19.7959 21.6837 20.559 21.1211 21.1216C20.5585 21.6842 19.7954 22.0003 18.9998 22.0003H16.9998C16.7345 22.0003 16.4802 22.1056 16.2926 22.2932C16.1051 22.4807 15.9998 22.7351 15.9998 23.0003C15.9998 23.2655 16.1051 23.5199 16.2926 23.7074C16.4802 23.8949 16.7345 24.0003 16.9998 24.0003H18.9998C20.3253 23.9987 21.5962 23.4714 22.5335 22.5341C23.4709 21.5967 23.9982 20.3259 23.9997 19.0003V17.0003C23.9997 16.7351 23.8944 16.4807 23.7068 16.2932C23.5193 16.1057 23.265 16.0003 22.9997 16.0003Z" fill="#FDE8FF"/>
<path d="M1 8C1.26522 8 1.51957 7.89464 1.70711 7.70711C1.89464 7.51957 2 7.26522 2 7V5C2 4.20435 2.31607 3.44129 2.87868 2.87868C3.44129 2.31607 4.20435 2 5 2H7C7.26522 2 7.51957 1.89464 7.70711 1.70711C7.89464 1.51957 8 1.26522 8 1C8 0.734784 7.89464 0.48043 7.70711 0.292893C7.51957 0.105357 7.26522 0 7 0L5 0C3.6744 0.00158786 2.40356 0.528882 1.46622 1.46622C0.528882 2.40356 0.00158786 3.6744 0 5L0 7C0 7.26522 0.105357 7.51957 0.292893 7.70711C0.48043 7.89464 0.734784 8 1 8Z" fill="#FDE8FF"/>
<path d="M7 22.0003H5C4.20435 22.0003 3.44129 21.6842 2.87868 21.1216C2.31607 20.559 2 19.7959 2 19.0003V17.0003C2 16.7351 1.89464 16.4807 1.70711 16.2932C1.51957 16.1057 1.26522 16.0003 1 16.0003C0.734784 16.0003 0.48043 16.1057 0.292893 16.2932C0.105357 16.4807 0 16.7351 0 17.0003L0 19.0003C0.00158786 20.3259 0.528882 21.5967 1.46622 22.5341C2.40356 23.4714 3.6744 23.9987 5 24.0003H7C7.26522 24.0003 7.51957 23.8949 7.70711 23.7074C7.89464 23.5199 8 23.2655 8 23.0003C8 22.7351 7.89464 22.4807 7.70711 22.2932C7.51957 22.1056 7.26522 22.0003 7 22.0003Z" fill="#FDE8FF"/>
<path d="M18.9998 0H16.9998C16.7345 0 16.4802 0.105357 16.2926 0.292893C16.1051 0.48043 15.9998 0.734784 15.9998 1C15.9998 1.26522 16.1051 1.51957 16.2926 1.70711C16.4802 1.89464 16.7345 2 16.9998 2H18.9998C19.7954 2 20.5585 2.31607 21.1211 2.87868C21.6837 3.44129 21.9997 4.20435 21.9997 5V7C21.9997 7.26522 22.1051 7.51957 22.2926 7.70711C22.4802 7.89464 22.7345 8 22.9997 8C23.265 8 23.5193 7.89464 23.7068 7.70711C23.8944 7.51957 23.9997 7.26522 23.9997 7V5C23.9982 3.6744 23.4709 2.40356 22.5335 1.46622C21.5962 0.528882 20.3253 0.00158786 18.9998 0V0Z" fill="#FDE8FF"/>
<path d="M12.0002 11C12.7914 11 13.5647 10.7654 14.2225 10.3258C14.8803 9.88632 15.393 9.26161 15.6958 8.53071C15.9985 7.7998 16.0777 6.99553 15.9234 6.21961C15.769 5.44369 15.3881 4.73095 14.8287 4.17154C14.2693 3.61213 13.5565 3.23117 12.7806 3.07683C12.0047 2.92249 11.2004 3.0017 10.4695 3.30445C9.73861 3.6072 9.11389 4.11989 8.67437 4.77769C8.23484 5.43549 8.00024 6.20885 8.00024 6.99997C8.00024 8.06084 8.42167 9.07825 9.17182 9.8284C9.92196 10.5785 10.9394 11 12.0002 11ZM12.0002 4.99997C12.3958 4.99997 12.7825 5.11727 13.1114 5.33703C13.4403 5.55679 13.6966 5.86915 13.848 6.2346C13.9994 6.60006 14.039 7.00219 13.9618 7.39015C13.8846 7.77811 13.6942 8.13448 13.4145 8.41418C13.1348 8.69389 12.7784 8.88437 12.3904 8.96154C12.0025 9.03871 11.6003 8.99911 11.2349 8.84773C10.8694 8.69636 10.5571 8.44001 10.3373 8.11111C10.1175 7.78221 10.0002 7.39553 10.0002 6.99997C10.0002 6.46954 10.211 5.96083 10.586 5.58576C10.9611 5.21068 11.4698 4.99997 12.0002 4.99997Z" fill="#FDE8FF"/>
<path d="M18.0002 20.0003C18.2655 20.0003 18.5198 19.8949 18.7074 19.7074C18.8949 19.5199 19.0002 19.2655 19.0002 19.0003C18.9987 17.4095 18.366 15.8843 17.2411 14.7594C16.1163 13.6345 14.5911 13.0019 13.0002 13.0003H11.0002C9.40943 13.0019 7.88423 13.6345 6.75936 14.7594C5.63448 15.8843 5.00183 17.4095 5.00024 19.0003C5.00024 19.2655 5.1056 19.5199 5.29314 19.7074C5.48067 19.8949 5.73503 20.0003 6.00024 20.0003C6.26546 20.0003 6.51981 19.8949 6.70735 19.7074C6.89489 19.5199 7.00024 19.2655 7.00024 19.0003C7.00024 17.9394 7.42167 16.922 8.17182 16.1719C8.92196 15.4217 9.93938 15.0003 11.0002 15.0003H13.0002C14.0611 15.0003 15.0785 15.4217 15.8287 16.1719C16.5788 16.922 17.0002 17.9394 17.0002 19.0003C17.0002 19.2655 17.1056 19.5199 17.2931 19.7074C17.4807 19.8949 17.735 20.0003 18.0002 20.0003Z" fill="#FDE8FF"/>
</g>
<defs>
<clipPath id="clip0_395_5553">
<rect width="24" height="24" fill="white"/>
</clipPath>
</defs>
</svg>
