<svg width="24" height="24" viewBox="0 0 24 24" fill="none" xmlns="http://www.w3.org/2000/svg">
<g clip-path="url(#clip0_395_5552)">
<path d="M17.9999 18.9997C18.1977 18.9997 18.391 18.941 18.5554 18.8311C18.7198 18.7212 18.8479 18.5651 18.9236 18.3824C18.9993 18.1997 19.0191 17.9986 18.9805 17.8047C18.9419 17.6107 18.8467 17.4326 18.7069 17.2927L12.5349 11.1217C11.5973 10.1844 10.3257 9.65778 8.99992 9.65778C7.6741 9.65778 6.40256 10.1844 5.46492 11.1217L3.29292 13.2927C3.11076 13.4813 3.00997 13.7339 3.01224 13.9961C3.01452 14.2583 3.11969 14.5091 3.3051 14.6945C3.49051 14.8799 3.74132 14.9851 4.00352 14.9874C4.26571 14.9897 4.51832 14.8889 4.70692 14.7067L6.87892 12.5357C7.45014 11.9898 8.20982 11.6852 8.99992 11.6852C9.79002 11.6852 10.5497 11.9898 11.1209 12.5357L17.2929 18.7067C17.4804 18.8943 17.7347 18.9997 17.9999 18.9997Z" fill="#FDE8FF"/>
<path d="M16.0002 10.4996C16.6925 10.4996 17.3692 10.2944 17.9447 9.90978C18.5203 9.52519 18.9689 8.97857 19.2338 8.33903C19.4987 7.69949 19.568 6.99575 19.433 6.31682C19.2979 5.63789 18.9646 5.01425 18.4751 4.52476C17.9856 4.03528 17.362 3.70194 16.6831 3.56689C16.0041 3.43184 15.3004 3.50115 14.6609 3.76606C14.0213 4.03096 13.4747 4.47957 13.0901 5.05514C12.7055 5.63071 12.5002 6.3074 12.5002 6.99964C12.5002 7.92789 12.869 8.81813 13.5254 9.47451C14.1817 10.1309 15.072 10.4996 16.0002 10.4996V10.4996ZM16.0002 5.49964C16.2969 5.49964 16.5869 5.58761 16.8336 5.75243C17.0803 5.91725 17.2725 6.15152 17.3861 6.42561C17.4996 6.6997 17.5293 7.0013 17.4714 7.29227C17.4135 7.58324 17.2707 7.85052 17.0609 8.0603C16.8511 8.27007 16.5839 8.41294 16.2929 8.47081C16.0019 8.52869 15.7003 8.49899 15.4262 8.38546C15.1521 8.27192 14.9179 8.07966 14.753 7.83299C14.5882 7.58632 14.5002 7.29631 14.5002 6.99964C14.5002 6.60181 14.6583 6.22028 14.9396 5.93898C15.2209 5.65767 15.6024 5.49964 16.0002 5.49964V5.49964Z" fill="#FDE8FF"/>
<path d="M22.9997 16.0003C22.7345 16.0003 22.4802 16.1057 22.2926 16.2932C22.1051 16.4807 21.9997 16.7351 21.9997 17.0003V19.0003C21.9997 19.7959 21.6837 20.559 21.1211 21.1216C20.5585 21.6842 19.7954 22.0003 18.9998 22.0003H16.9998C16.7345 22.0003 16.4802 22.1056 16.2926 22.2932C16.1051 22.4807 15.9998 22.7351 15.9998 23.0003C15.9998 23.2655 16.1051 23.5199 16.2926 23.7074C16.4802 23.8949 16.7345 24.0003 16.9998 24.0003H18.9998C20.3253 23.9987 21.5962 23.4714 22.5335 22.5341C23.4709 21.5967 23.9982 20.3259 23.9997 19.0003V17.0003C23.9997 16.7351 23.8944 16.4807 23.7068 16.2932C23.5193 16.1057 23.265 16.0003 22.9997 16.0003Z" fill="#FDE8FF"/>
<path d="M1 8C1.26522 8 1.51957 7.89464 1.70711 7.70711C1.89464 7.51957 2 7.26522 2 7V5C2 4.20435 2.31607 3.44129 2.87868 2.87868C3.44129 2.31607 4.20435 2 5 2H7C7.26522 2 7.51957 1.89464 7.70711 1.70711C7.89464 1.51957 8 1.26522 8 1C8 0.734784 7.89464 0.48043 7.70711 0.292893C7.51957 0.105357 7.26522 0 7 0L5 0C3.6744 0.00158786 2.40356 0.528882 1.46622 1.46622C0.528882 2.40356 0.00158786 3.6744 0 5L0 7C0 7.26522 0.105357 7.51957 0.292893 7.70711C0.48043 7.89464 0.734784 8 1 8Z" fill="#FDE8FF"/>
<path d="M7 22.0003H5C4.20435 22.0003 3.44129 21.6842 2.87868 21.1216C2.31607 20.559 2 19.7959 2 19.0003V17.0003C2 16.7351 1.89464 16.4807 1.70711 16.2932C1.51957 16.1057 1.26522 16.0003 1 16.0003C0.734784 16.0003 0.48043 16.1057 0.292893 16.2932C0.105357 16.4807 0 16.7351 0 17.0003L0 19.0003C0.00158786 20.3259 0.528882 21.5967 1.46622 22.5341C2.40356 23.4714 3.6744 23.9987 5 24.0003H7C7.26522 24.0003 7.51957 23.8949 7.70711 23.7074C7.89464 23.5199 8 23.2655 8 23.0003C8 22.7351 7.89464 22.4807 7.70711 22.2932C7.51957 22.1056 7.26522 22.0003 7 22.0003Z" fill="#FDE8FF"/>
<path d="M18.9998 0H16.9998C16.7345 0 16.4802 0.105357 16.2926 0.292893C16.1051 0.48043 15.9998 0.734784 15.9998 1C15.9998 1.26522 16.1051 1.51957 16.2926 1.70711C16.4802 1.89464 16.7345 2 16.9998 2H18.9998C19.7954 2 20.5585 2.31607 21.1211 2.87868C21.6837 3.44129 21.9997 4.20435 21.9997 5V7C21.9997 7.26522 22.1051 7.51957 22.2926 7.70711C22.4802 7.89464 22.7345 8 22.9997 8C23.265 8 23.5193 7.89464 23.7068 7.70711C23.8944 7.51957 23.9997 7.26522 23.9997 7V5C23.9982 3.6744 23.4709 2.40356 22.5335 1.46622C21.5962 0.528882 20.3253 0.00158786 18.9998 0V0Z" fill="#FDE8FF"/>
</g>
<defs>
<clipPath id="clip0_395_5552">
<rect width="24" height="24" fill="white"/>
</clipPath>
</defs>
</svg>
