<svg width="24" height="24" viewBox="0 0 24 24" fill="none" xmlns="http://www.w3.org/2000/svg">
<g clip-path="url(#clip0_395_5568)">
<path d="M17.1151 8.05017C16.8284 8.12635 16.5707 8.28582 16.3746 8.50844C16.1785 8.73105 16.0529 9.0068 16.0135 9.30083C15.9741 9.59486 16.0228 9.89395 16.1535 10.1603C16.2841 10.4267 16.4907 10.6483 16.7473 10.7972C17.0039 10.9461 17.2988 11.0156 17.5949 10.9969C17.891 10.9782 18.1748 10.8721 18.4106 10.692C18.6464 10.512 18.8235 10.2661 18.9195 9.98543C19.0155 9.70475 19.0262 9.4019 18.9501 9.11517C18.8996 8.92474 18.812 8.74613 18.6924 8.58953C18.5729 8.43294 18.4236 8.30144 18.2532 8.20255C18.0828 8.10365 17.8946 8.03929 17.6993 8.01314C17.504 7.987 17.3055 7.99958 17.1151 8.05017Z" fill="#FDE8FF"/>
<path d="M12.1148 5.05017C11.8281 5.12635 11.5704 5.28582 11.3744 5.50844C11.1783 5.73105 11.0526 6.0068 11.0133 6.30083C10.9739 6.59486 11.0226 6.89396 11.1532 7.16031C11.2838 7.42666 11.4905 7.6483 11.7471 7.79721C12.0036 7.94612 12.2986 8.01561 12.5946 7.99689C12.8907 7.97817 13.1746 7.87209 13.4103 7.69205C13.6461 7.51202 13.8232 7.26611 13.9192 6.98543C14.0153 6.70475 14.0259 6.4019 13.9498 6.11517C13.8993 5.92474 13.8117 5.74613 13.6922 5.58954C13.5726 5.43295 13.4234 5.30144 13.2529 5.20255C13.0825 5.10365 12.8943 5.03929 12.699 5.01314C12.5038 4.987 12.3052 4.99958 12.1148 5.05017V5.05017Z" fill="#FDE8FF"/>
<path d="M7.11532 8.05017C6.82861 8.12635 6.57093 8.28582 6.37486 8.50844C6.17878 8.73105 6.05312 9.0068 6.01375 9.30083C5.97439 9.59486 6.02309 9.89395 6.1537 10.1603C6.28432 10.4267 6.49097 10.6483 6.74754 10.7972C7.00411 10.9461 7.29907 11.0156 7.59513 10.9969C7.89119 10.9782 8.17505 10.8721 8.41083 10.692C8.6466 10.512 8.82369 10.2661 8.91972 9.98543C9.01575 9.70475 9.02639 9.4019 8.95031 9.11517C8.89978 8.92474 8.81223 8.74613 8.69266 8.58953C8.57308 8.43294 8.42383 8.30144 8.25343 8.20255C8.08303 8.10365 7.89481 8.03929 7.69953 8.01314C7.50425 7.987 7.30573 7.99958 7.11532 8.05017Z" fill="#FDE8FF"/>
<path d="M7.11532 14.0502C6.82861 14.1263 6.57093 14.2858 6.37486 14.5084C6.17878 14.7311 6.05312 15.0068 6.01375 15.3008C5.97439 15.5949 6.02309 15.894 6.1537 16.1603C6.28432 16.4267 6.49097 16.6483 6.74754 16.7972C7.00411 16.9461 7.29907 17.0156 7.59513 16.9969C7.89119 16.9782 8.17505 16.8721 8.41083 16.6921C8.6466 16.512 8.82369 16.2661 8.91972 15.9854C9.01575 15.7048 9.02639 15.4019 8.95031 15.1152C8.89978 14.9247 8.81223 14.7461 8.69266 14.5895C8.57308 14.4329 8.42383 14.3014 8.25343 14.2025C8.08303 14.1036 7.89481 14.0393 7.69953 14.0131C7.50425 13.987 7.30573 13.9996 7.11532 14.0502V14.0502Z" fill="#FDE8FF"/>
<path d="M12.5003 0.00657659C10.8902 -0.0494051 9.28544 0.219367 7.78152 0.796869C6.27761 1.37437 4.90537 2.24878 3.74662 3.36796C2.58787 4.48714 1.66633 5.82819 1.03695 7.31114C0.407562 8.79409 0.0832187 10.3886 0.083252 11.9996C0.0869572 15.181 1.35243 18.2311 3.60206 20.4808C5.8517 22.7304 8.90179 23.9959 12.0833 23.9996C12.4213 23.9996 12.7533 23.9776 13.0833 23.9496C13.3337 23.9285 13.5669 23.8139 13.7367 23.6286C13.9064 23.4433 14.0001 23.2009 13.9993 22.9496L13.9673 19.3616C13.9592 18.6525 14.1626 17.9572 14.5515 17.3643C14.9404 16.7714 15.4972 16.3079 16.1508 16.0329C16.8044 15.758 17.5251 15.6841 18.2209 15.8206C18.9167 15.9572 19.5561 16.298 20.0573 16.7996L20.1573 16.8996C20.3843 17.1285 20.6655 17.2964 20.9748 17.3874C21.2841 17.4785 21.6114 17.4899 21.9263 17.4206C22.236 17.3556 22.5245 17.2137 22.7651 17.008C23.0058 16.8023 23.1908 16.5395 23.3033 16.2436C23.8554 14.7939 24.1193 13.2504 24.0803 11.6996C23.9677 8.65359 22.7149 5.76106 20.5701 3.59531C18.4252 1.42956 15.545 0.148689 12.5003 0.00657659V0.00657659ZM21.4823 15.4066L21.4683 15.3926C20.6866 14.6122 19.6905 14.082 18.6066 13.8694C17.5228 13.6568 16.4002 13.7714 15.3816 14.1987C14.3631 14.6259 13.4947 15.3465 12.8869 16.2687C12.279 17.1909 11.9593 18.2731 11.9683 19.3776L11.9923 21.9996C9.34009 21.9876 6.80129 20.9226 4.93436 19.0388C3.06744 17.155 2.02532 14.6067 2.03725 11.9546C2.04919 9.30241 3.1142 6.76361 4.998 4.89669C6.88181 3.02976 9.43009 1.98764 12.0823 1.99958C12.1993 1.99958 12.3173 1.99958 12.4353 2.00558C14.9716 2.12471 17.3707 3.19232 19.1571 4.99684C20.9435 6.80137 21.9868 9.21112 22.0803 11.7486C22.1133 12.9922 21.9114 14.2308 21.4853 15.3996L21.4823 15.4066Z" fill="#FDE8FF"/>
</g>
<defs>
<clipPath id="clip0_395_5568">
<rect width="24" height="24" fill="white"/>
</clipPath>
</defs>
</svg>
