<svg width="24" height="24" viewBox="0 0 24 24" fill="none" xmlns="http://www.w3.org/2000/svg">
<g clip-path="url(#clip0_395_5576)">
<path d="M23 16.6527L20.66 14.8527C20.0826 14.303 19.3155 13.9969 18.5183 13.9981C17.7211 13.9992 16.9549 14.3074 16.379 14.8587L14.91 16.0267C13.3542 15.3827 11.941 14.4376 10.7515 13.2458C9.56207 12.0539 8.61986 10.6388 7.97901 9.08168L9.13701 7.62568C9.68872 7.04985 9.9973 6.28356 9.99861 5.48608C9.99991 4.68861 9.69384 3.92131 9.14401 3.34368L7.34601 0.999679C7.3196 0.964469 7.29087 0.931061 7.26001 0.899679C6.68893 0.325864 5.91494 -0.000123644 5.10541 -0.00779602C4.29588 -0.0154684 3.51586 0.295791 2.93401 0.858679L1.78401 1.85868C-5.93499 10.0687 13.984 30.0037 22.184 22.1587L23.094 21.1097C23.6735 20.5286 23.9989 19.7414 23.9989 18.9207C23.9989 18.1 23.6735 17.3128 23.094 16.7317C23.0641 16.7037 23.0328 16.6773 23 16.6527ZM21.636 19.7527L20.725 20.8027C14.788 26.4177 -2.49999 10.1137 3.14701 3.32468L4.29701 2.32468C4.49615 2.12664 4.7635 2.01228 5.04426 2.00503C5.32501 1.99777 5.59791 2.09819 5.80701 2.28568L7.59301 4.60868C7.61919 4.64407 7.64793 4.67749 7.67901 4.70868C7.88328 4.91469 7.99789 5.19306 7.99789 5.48318C7.99789 5.77329 7.88328 6.05166 7.67901 6.25768C7.65087 6.28321 7.62448 6.31061 7.60001 6.33968L6.04401 8.29968C5.93322 8.43847 5.8614 8.60427 5.83591 8.78002C5.81043 8.95577 5.83221 9.13513 5.89901 9.29968C6.65216 11.3148 7.82968 13.1444 9.35178 14.6646C10.8739 16.1848 12.705 17.36 14.721 18.1107C14.8833 18.1726 15.059 18.1911 15.2307 18.1644C15.4023 18.1378 15.5641 18.0669 15.7 17.9587L17.66 16.3997C17.6894 16.376 17.7175 16.3506 17.744 16.3237C17.8553 16.2163 17.9875 16.1329 18.1324 16.0787C18.2773 16.0246 18.4317 16.0008 18.5862 16.0088C18.7407 16.0169 18.8918 16.0566 19.0303 16.1256C19.1687 16.1946 19.2915 16.2913 19.391 16.4097L21.717 18.1967C21.9077 18.4165 22.0054 18.7018 21.9896 18.9924C21.9737 19.2829 21.8455 19.5559 21.632 19.7537L21.636 19.7527ZM23.707 6.29268C23.8892 6.48128 23.99 6.73388 23.9877 6.99608C23.9854 7.25828 23.8802 7.50909 23.6948 7.6945C23.5094 7.87991 23.2586 7.98507 22.9964 7.98735C22.7342 7.98963 22.4816 7.88884 22.293 7.70668L20 5.41368L17.707 7.70668C17.5184 7.88884 17.2658 7.98963 17.0036 7.98735C16.7414 7.98507 16.4906 7.87991 16.3052 7.6945C16.1198 7.50909 16.0146 7.25828 16.0123 6.99608C16.0101 6.73388 16.1108 6.48128 16.293 6.29268L18.586 3.99968L16.293 1.70668C16.1108 1.51808 16.0101 1.26547 16.0123 1.00328C16.0146 0.741081 16.1198 0.490268 16.3052 0.30486C16.4906 0.119452 16.7414 0.0142832 17.0036 0.0120047C17.2658 0.00972632 17.5184 0.110521 17.707 0.292679L20 2.58568L22.293 0.292679C22.4816 0.110521 22.7342 0.00972632 22.9964 0.0120047C23.2586 0.0142832 23.5094 0.119452 23.6948 0.30486C23.8802 0.490268 23.9854 0.741081 23.9877 1.00328C23.99 1.26547 23.8892 1.51808 23.707 1.70668L21.414 3.99968L23.707 6.29268Z" fill="#FDE8FF"/>
</g>
<defs>
<clipPath id="clip0_395_5576">
<rect width="24" height="24" fill="white"/>
</clipPath>
</defs>
</svg>
