<svg width="24" height="24" viewBox="0 0 24 24" fill="none" xmlns="http://www.w3.org/2000/svg">
<g clip-path="url(#clip0_395_5577)">
<path d="M19.9812 7.0227V1.0227C19.9812 0.757479 20.0865 0.503125 20.2741 0.315589C20.4616 0.128052 20.716 0.0226955 20.9812 0.0226955C21.2464 0.0226955 21.5008 0.128052 21.6883 0.315589C21.8758 0.503125 21.9812 0.757479 21.9812 1.0227V7.0227C21.9812 7.28791 21.8758 7.54227 21.6883 7.7298C21.5008 7.91734 21.2464 8.0227 20.9812 8.0227C20.716 8.0227 20.4616 7.91734 20.2741 7.7298C20.0865 7.54227 19.9812 7.28791 19.9812 7.0227ZM16.9812 8.0227C17.2464 8.0227 17.5008 7.91734 17.6883 7.7298C17.8758 7.54227 17.9812 7.28791 17.9812 7.0227V1.0227C17.9812 0.757479 17.8758 0.503125 17.6883 0.315589C17.5008 0.128052 17.2464 0.0226955 16.9812 0.0226955C16.716 0.0226955 16.4616 0.128052 16.2741 0.315589C16.0865 0.503125 15.9812 0.757479 15.9812 1.0227V7.0227C15.9812 7.28791 16.0865 7.54227 16.2741 7.7298C16.4616 7.91734 16.716 8.0227 16.9812 8.0227ZM23.0762 21.1387L22.1642 22.1887C13.9742 30.0287 -5.95581 10.1047 1.76419 1.8887L2.91419 0.888696C3.49601 0.32496 4.27651 0.0131551 5.0866 0.0208293C5.8967 0.0285035 6.67115 0.355039 7.24219 0.929696C7.27319 0.959696 9.12419 3.3667 9.12419 3.3667C9.67399 3.94402 9.98024 4.71096 9.97931 5.5082C9.97838 6.30543 9.67034 7.07166 9.11919 7.6477L7.95919 9.0997C8.60003 10.6572 9.54233 12.0727 10.732 13.2649C11.9216 14.4571 13.3351 15.4025 14.8912 16.0467L16.3552 14.8817C16.931 14.33 17.6973 14.0214 18.4948 14.0201C19.2923 14.0188 20.0596 14.3249 20.6372 14.8747C20.6372 14.8747 23.0442 16.7277 23.0752 16.7587C23.6554 17.3398 23.9814 18.1273 23.9816 18.9485C23.9818 19.7697 23.6562 20.5574 23.0762 21.1387V21.1387ZM21.7002 18.2157C21.7002 18.2157 19.3002 16.3737 19.2752 16.3437C19.0666 16.1444 18.7892 16.0331 18.5007 16.0331C18.2122 16.0331 17.9348 16.1444 17.7262 16.3437C17.7002 16.3707 15.6822 17.9787 15.6822 17.9787C15.5462 18.0867 15.3844 18.1575 15.2127 18.1839C15.041 18.2104 14.8654 18.1917 14.7032 18.1297C12.6866 17.3796 10.8549 16.2044 9.3326 14.684C7.81024 13.1635 6.6328 11.3334 5.88019 9.3177C5.81447 9.15373 5.79337 8.97528 5.81901 8.80051C5.84466 8.62574 5.91614 8.46087 6.02619 8.3227C6.02619 8.3227 7.63319 6.3057 7.66119 6.2787C7.86576 6.07264 7.98056 5.79406 7.98056 5.5037C7.98056 5.21334 7.86576 4.93475 7.66119 4.7287C7.62919 4.6997 5.78819 2.3057 5.78819 2.3057C5.57921 2.11807 5.30639 2.01748 5.02563 2.02455C4.74488 2.03161 4.47746 2.1458 4.27819 2.3437L3.12719 3.3487C-2.51281 10.1277 14.7582 26.4417 20.7002 20.8257L21.6122 19.7757C21.8267 19.5781 21.9559 19.3047 21.9724 19.0135C21.9888 18.7223 21.8912 18.4362 21.7002 18.2157V18.2157Z" fill="#FDE8FF"/>
</g>
<defs>
<clipPath id="clip0_395_5577">
<rect width="24" height="24" fill="white"/>
</clipPath>
</defs>
</svg>
