<svg width="24" height="24" viewBox="0 0 24 24" fill="none" xmlns="http://www.w3.org/2000/svg">
<g clip-path="url(#clip0_395_5582)">
<path d="M23.2001 0.800232C22.8292 0.426245 22.3577 0.168144 21.8428 0.0573547C21.3279 -0.0534347 20.7919 -0.0121326 20.3001 0.176232L3.15508 6.92923C2.03471 7.37231 1.11314 8.20682 0.561427 9.27788C0.00971538 10.3489 -0.134665 11.5838 0.155085 12.7532C0.882117 15.407 2.28727 17.8259 4.23241 19.7721C6.17754 21.7183 8.59568 23.1248 11.2491 23.8532V23.8532C12.4197 24.1412 13.6551 23.9949 14.7261 23.4416C15.7972 22.8884 16.6314 21.9656 17.0741 20.8442L23.8321 3.67223C24.0143 3.18347 24.0516 2.6525 23.9395 2.14305C23.8274 1.63361 23.5706 1.16735 23.2001 0.800232V0.800232ZM11.7461 21.9112C9.43712 21.2775 7.33276 20.054 5.6398 18.3609C3.94684 16.6677 2.72353 14.5633 2.09008 12.2542C1.94401 11.6584 1.98736 11.0319 2.2141 10.462C2.44084 9.89197 2.83968 9.40688 3.35508 9.07423C3.45845 12.1099 4.71042 14.9932 6.85794 17.1413C9.00547 19.2894 11.8884 20.5421 14.9241 20.6462C14.5918 21.1615 14.107 21.5602 13.5374 21.787C12.9677 22.0137 12.3416 22.0572 11.7461 21.9112ZM15.7731 18.6842C9.58207 18.5842 5.41808 14.4192 5.31708 8.22723L21.0101 2.04723C21.1411 1.997 21.284 1.98633 21.4211 2.01655C21.5581 2.04677 21.6833 2.11655 21.7811 2.21723C21.8808 2.31051 21.9511 2.43094 21.9833 2.56367C22.0154 2.6964 22.008 2.83564 21.9621 2.96423L21.3001 4.64523C15.5421 2.66523 12.3581 10.8542 17.8871 13.3132L15.7731 18.6842ZM18.6201 11.4522C17.9929 11.1757 17.497 10.6673 17.2362 10.0334C16.9755 9.39947 16.9701 8.68926 17.2212 8.05147C17.4723 7.41369 17.9604 6.89778 18.5834 6.6118C19.2063 6.32581 19.9157 6.29192 20.5631 6.51723L18.6201 11.4522Z" fill="#FDE8FF"/>
<path d="M11 9C10.4696 9 9.96086 9.21071 9.58579 9.58579C9.21071 9.96086 9 10.4696 9 11C9 11.5304 9.21071 12.0391 9.58579 12.4142C9.96086 12.7893 10.4696 13 11 13C11.5304 13 12.0391 12.7893 12.4142 12.4142C12.7893 12.0391 13 11.5304 13 11C13 10.4696 12.7893 9.96086 12.4142 9.58579C12.0391 9.21071 11.5304 9 11 9Z" fill="#FDE8FF"/>
</g>
<defs>
<clipPath id="clip0_395_5582">
<rect width="24" height="24" fill="white"/>
</clipPath>
</defs>
</svg>
