<svg width="24" height="24" viewBox="0 0 24 24" fill="none" xmlns="http://www.w3.org/2000/svg">
<g clip-path="url(#clip0_395_5591)">
<path d="M21.0002 22H6.88424C7.65615 20.812 8.04562 19.416 8.00024 18V14H15.0002C15.2655 14 15.5198 13.8946 15.7074 13.7071C15.8949 13.5196 16.0002 13.2652 16.0002 13C16.0002 12.7348 15.8949 12.4804 15.7074 12.2929C15.5198 12.1054 15.2655 12 15.0002 12H8.00024V8C8.00024 6.4087 8.63239 4.88258 9.7576 3.75736C10.8828 2.63214 12.4089 2 14.0002 2C15.5915 2 17.1177 2.63214 18.2429 3.75736C19.3681 4.88258 20.0002 6.4087 20.0002 8C20.0002 8.26522 20.1056 8.51957 20.2931 8.70711C20.4807 8.89464 20.735 9 21.0002 9C21.2655 9 21.5198 8.89464 21.7074 8.70711C21.8949 8.51957 22.0002 8.26522 22.0002 8C22.0002 5.87827 21.1574 3.84344 19.6571 2.34315C18.1568 0.842855 16.122 0 14.0002 0C11.8785 0 9.84368 0.842855 8.34339 2.34315C6.8431 3.84344 6.00024 5.87827 6.00024 8V12H4.00024C3.73503 12 3.48067 12.1054 3.29314 12.2929C3.1056 12.4804 3.00024 12.7348 3.00024 13C3.00024 13.2652 3.1056 13.5196 3.29314 13.7071C3.48067 13.8946 3.73503 14 4.00024 14H6.00024V18C6.00024 19.2 5.70824 22 3.00024 22C2.73503 22 2.48067 22.1054 2.29314 22.2929C2.1056 22.4804 2.00024 22.7348 2.00024 23C2.00024 23.2652 2.1056 23.5196 2.29314 23.7071C2.48067 23.8946 2.73503 24 3.00024 24H21.0002C21.2655 24 21.5198 23.8946 21.7074 23.7071C21.8949 23.5196 22.0002 23.2652 22.0002 23C22.0002 22.7348 21.8949 22.4804 21.7074 22.2929C21.5198 22.1054 21.2655 22 21.0002 22Z" fill="#FDE8FF"/>
</g>
<defs>
<clipPath id="clip0_395_5591">
<rect width="24" height="24" fill="white"/>
</clipPath>
</defs>
</svg>
