<svg width="24" height="24" viewBox="0 0 24 24" fill="none" xmlns="http://www.w3.org/2000/svg">
<g clip-path="url(#clip0_395_5592)">
<path d="M14.9997 3.84858C15.0029 4.04744 15.0641 4.24105 15.1759 4.40557C15.2876 4.5701 15.445 4.69836 15.6287 4.77458C17.271 5.49716 18.6597 6.69408 19.6168 8.21168C20.5738 9.72928 21.0554 11.4983 20.9997 13.2916C20.961 15.6785 19.9757 17.9523 18.2605 19.6128C16.5453 21.2732 14.2407 22.1843 11.8537 22.1456C9.46679 22.1069 7.19299 21.1215 5.53254 19.4063C3.87209 17.6911 2.96101 15.3865 2.99974 12.9996C3.00205 11.2558 3.51088 9.55025 4.46439 8.09026C5.41789 6.63026 6.775 5.47871 8.37074 4.77558C8.55453 4.6989 8.71194 4.57026 8.82367 4.40541C8.93541 4.24057 8.9966 4.0467 8.99974 3.84758V3.84758C8.99999 3.68379 8.96002 3.52244 8.88331 3.37772C8.80661 3.233 8.69554 3.10933 8.55985 3.01759C8.42417 2.92585 8.26802 2.86884 8.10514 2.85158C7.94227 2.83431 7.77764 2.85732 7.62574 2.91858C5.30502 3.92472 3.40196 5.69992 2.2371 7.94517C1.07224 10.1904 0.716765 12.7685 1.23055 15.2452C1.74433 17.7219 3.09597 19.9459 5.05781 21.5425C7.01965 23.1392 9.4718 24.0109 12.0012 24.0109C14.5307 24.0109 16.9828 23.1392 18.9447 21.5425C20.9065 19.9459 22.2581 17.7219 22.7719 15.2452C23.2857 12.7685 22.9302 10.1904 21.7654 7.94517C20.6005 5.69992 18.6975 3.92472 16.3767 2.91858C16.2246 2.85665 16.0596 2.83316 15.8962 2.85016C15.7328 2.86717 15.5762 2.92416 15.44 3.01609C15.3039 3.10802 15.1925 3.23206 15.1158 3.37726C15.039 3.52245 14.9991 3.68433 14.9997 3.84858V3.84858Z" fill="#FDE8FF"/>
<path d="M13.0003 1C13.0003 0.447715 12.5525 0 12.0002 0C11.448 0 11.0002 0.447715 11.0002 1V7C11.0002 7.55228 11.448 8 12.0002 8C12.5525 8 13.0003 7.55228 13.0003 7V1Z" fill="#FDE8FF"/>
</g>
<defs>
<clipPath id="clip0_395_5592">
<rect width="24" height="24" fill="white"/>
</clipPath>
</defs>
</svg>
