<svg width="24" height="24" viewBox="0 0 24 24" fill="none" xmlns="http://www.w3.org/2000/svg">
<g clip-path="url(#clip0_395_5598)">
<path d="M8 3.99939H4C2.93913 3.99939 1.92172 4.42082 1.17157 5.17096C0.421427 5.92111 0 6.93852 0 7.99939L0 11.9994C0 12.5298 0.210714 13.0385 0.585786 13.4136C0.960859 13.7887 1.46957 13.9994 2 13.9994H7.91C7.67273 15.3959 6.94948 16.6637 5.86803 17.5786C4.78658 18.4935 3.41655 18.9968 2 18.9994C1.73478 18.9994 1.48043 19.1047 1.29289 19.2923C1.10536 19.4798 1 19.7342 1 19.9994C1 20.2646 1.10536 20.519 1.29289 20.7065C1.48043 20.894 1.73478 20.9994 2 20.9994C4.121 20.997 6.15445 20.1534 7.65422 18.6536C9.154 17.1538 9.99762 15.1204 10 12.9994V5.99939C10 5.46896 9.78929 4.96025 9.41421 4.58518C9.03914 4.2101 8.53043 3.99939 8 3.99939V3.99939Z" fill="#FDE8FF"/>
<path d="M22.0002 3.99939H18.0002C16.9394 3.99939 15.922 4.42082 15.1718 5.17096C14.4217 5.92111 14.0002 6.93852 14.0002 7.99939V11.9994C14.0002 12.5298 14.211 13.0385 14.586 13.4136C14.9611 13.7887 15.4698 13.9994 16.0002 13.9994H21.9102C21.673 15.3959 20.9497 16.6637 19.8683 17.5786C18.7868 18.4935 17.4168 18.9968 16.0002 18.9994C15.735 18.9994 15.4807 19.1047 15.2931 19.2923C15.1056 19.4798 15.0002 19.7342 15.0002 19.9994C15.0002 20.2646 15.1056 20.519 15.2931 20.7065C15.4807 20.894 15.735 20.9994 16.0002 20.9994C18.1212 20.997 20.1547 20.1534 21.6545 18.6536C23.1542 17.1538 23.9979 15.1204 24.0002 12.9994V5.99939C24.0002 5.46896 23.7895 4.96025 23.4145 4.58518C23.0394 4.2101 22.5307 3.99939 22.0002 3.99939V3.99939Z" fill="#FDE8FF"/>
</g>
<defs>
<clipPath id="clip0_395_5598">
<rect width="24" height="24" fill="white"/>
</clipPath>
</defs>
</svg>
