<svg width="24" height="24" viewBox="0 0 24 24" fill="none" xmlns="http://www.w3.org/2000/svg">
<g clip-path="url(#clip0_395_5611)">
<path d="M12.0002 1.99997C13.3267 2.00432 14.6392 2.27171 15.8617 2.78666C17.0842 3.30161 18.1924 4.05389 19.1222 4.99997H16.0002C15.735 4.99997 15.4806 5.10533 15.2931 5.29286C15.1056 5.4804 15.0002 5.73476 15.0002 5.99997C15.0002 6.26519 15.1056 6.51954 15.2931 6.70708C15.4806 6.89461 15.735 6.99997 16.0002 6.99997H20.1432C20.6356 6.99971 21.1078 6.80397 21.456 6.45578C21.8042 6.10758 21.9999 5.6354 22.0002 5.14297V0.999971C22.0002 0.734754 21.8948 0.4804 21.7073 0.292864C21.5198 0.105328 21.2654 -2.92115e-05 21.0002 -2.92115e-05V-2.92115e-05C20.735 -2.92115e-05 20.4806 0.105328 20.2931 0.292864C20.1056 0.4804 20.0002 0.734754 20.0002 0.999971V3.07797C18.3474 1.58942 16.3128 0.590381 14.1243 0.19272C11.9358 -0.204941 9.67983 0.0144827 7.60899 0.826418C5.53815 1.63835 3.73422 3.01074 2.39921 4.7899C1.06421 6.56905 0.250844 8.68471 0.0502025 10.9C0.0372859 11.0392 0.0535183 11.1797 0.0978654 11.3123C0.142213 11.4449 0.213702 11.5669 0.307779 11.6704C0.401856 11.7738 0.516457 11.8566 0.644281 11.9133C0.772104 11.9701 0.910348 11.9996 1.0502 12V12C1.29479 12.0031 1.53174 11.9148 1.71466 11.7524C1.89759 11.59 2.01332 11.3652 2.0392 11.122C2.26182 8.63272 3.40718 6.31667 5.25028 4.62881C7.09339 2.94094 9.50102 2.00326 12.0002 1.99997Z" fill="#FDE8FF"/>
<path d="M22.9512 12.0002C22.7067 11.9971 22.4697 12.0854 22.2868 12.2478C22.1039 12.4102 21.9881 12.635 21.9622 12.8782C21.7969 14.7814 21.0892 16.5973 19.9229 18.1104C18.7566 19.6235 17.1808 20.7703 15.3824 21.4148C13.584 22.0592 11.6384 22.1743 9.77659 21.7463C7.91475 21.3183 6.21474 20.3653 4.87824 19.0002H8.00024C8.26546 19.0002 8.51981 18.8949 8.70735 18.7073C8.89489 18.5198 9.00024 18.2654 9.00024 18.0002C9.00024 17.735 8.89489 17.4806 8.70735 17.2931C8.51981 17.1056 8.26546 17.0002 8.00024 17.0002H3.85724C3.61334 17.0001 3.37181 17.048 3.14645 17.1413C2.92108 17.2346 2.71632 17.3714 2.54385 17.5438C2.37139 17.7163 2.23461 17.9211 2.14133 18.1464C2.04806 18.3718 2.00011 18.6133 2.00024 18.8572V23.0002C2.00024 23.2654 2.1056 23.5198 2.29314 23.7073C2.48067 23.8949 2.73503 24.0002 3.00024 24.0002C3.26546 24.0002 3.51981 23.8949 3.70735 23.7073C3.89489 23.5198 4.00024 23.2654 4.00024 23.0002V20.9222C5.65307 22.4108 7.68766 23.4098 9.87615 23.8075C12.0646 24.2051 14.3206 23.9857 16.3915 23.1738C18.4623 22.3618 20.2662 20.9895 21.6012 19.2103C22.9362 17.4311 23.7496 15.3155 23.9502 13.1002C23.9632 12.9609 23.9469 12.8205 23.9026 12.6879C23.8582 12.5552 23.7867 12.4333 23.6927 12.3298C23.5986 12.2263 23.484 12.1436 23.3562 12.0868C23.2283 12.0301 23.0901 12.0006 22.9502 12.0002H22.9512Z" fill="#FDE8FF"/>
</g>
<defs>
<clipPath id="clip0_395_5611">
<rect width="24" height="24" fill="white"/>
</clipPath>
</defs>
</svg>
