<svg width="24" height="24" viewBox="0 0 24 24" fill="none" xmlns="http://www.w3.org/2000/svg">
<g clip-path="url(#clip0_395_5615)">
<path d="M12 23.9271C11.3434 23.928 10.6931 23.7994 10.0863 23.5485C9.47952 23.2976 8.92822 22.9294 8.464 22.4651L1.534 15.5341C0.596645 14.5965 0.0700684 13.3249 0.0700684 11.9991C0.0700684 10.6733 0.596645 9.40174 1.534 8.4641L8.464 1.5331C9.40276 0.597087 10.6743 0.0714722 12 0.0714722C13.3257 0.0714722 14.5972 0.597087 15.536 1.5331L22.466 8.4641C23.4034 9.40174 23.9299 10.6733 23.9299 11.9991C23.9299 13.3249 23.4034 14.5965 22.466 15.5341L15.536 22.4651C15.0718 22.9294 14.5205 23.2976 13.9137 23.5485C13.3069 23.7994 12.6566 23.928 12 23.9271V23.9271ZM12 2.0701C11.606 2.06935 11.2157 2.14644 10.8515 2.29694C10.4874 2.44744 10.1565 2.66839 9.878 2.9471L2.948 9.8781C2.38559 10.4407 2.06964 11.2036 2.06964 11.9991C2.06964 12.7946 2.38559 13.5575 2.948 14.1201L9.878 21.0511C10.1566 21.3299 10.4874 21.551 10.8515 21.7019C11.2156 21.8528 11.6059 21.9305 12 21.9305C12.3941 21.9305 12.7844 21.8528 13.1485 21.7019C13.5126 21.551 13.8434 21.3299 14.122 21.0511L21.052 14.1201C21.6144 13.5575 21.9304 12.7946 21.9304 11.9991C21.9304 11.2036 21.6144 10.4407 21.052 9.8781L14.122 2.9471C13.8435 2.66839 13.5126 2.44744 13.1485 2.29694C12.7843 2.14644 12.394 2.06935 12 2.0701V2.0701Z" fill="#FDE8FF"/>
</g>
<defs>
<clipPath id="clip0_395_5615">
<rect width="24" height="24" fill="white"/>
</clipPath>
</defs>
</svg>
