<svg width="24" height="24" viewBox="0 0 24 24" fill="none" xmlns="http://www.w3.org/2000/svg">
<g clip-path="url(#clip0_395_5638)">
<path d="M18.581 2.14067L12.316 0.0516681C12.1109 -0.016653 11.8891 -0.016653 11.684 0.0516681L5.419 2.14067C4.42291 2.47155 3.55642 3.10793 2.94265 3.95938C2.32887 4.81083 1.99904 5.83406 2 6.88367V12.0007C2 19.5637 11.2 23.7407 11.594 23.9147C11.7218 23.9715 11.8601 24.0008 12 24.0008C12.1399 24.0008 12.2782 23.9715 12.406 23.9147C12.8 23.7407 22 19.5637 22 12.0007V6.88367C22.001 5.83406 21.6711 4.81083 21.0574 3.95938C20.4436 3.10793 19.5771 2.47155 18.581 2.14067V2.14067ZM20 12.0007C20 17.4557 13.681 21.0337 12 21.8897C10.317 21.0367 4 17.4697 4 12.0007V6.88367C4.00006 6.25395 4.19828 5.64021 4.56657 5.12941C4.93486 4.61861 5.45455 4.23666 6.052 4.03767L12 2.05467L17.948 4.03767C18.5455 4.23666 19.0651 4.61861 19.4334 5.12941C19.8017 5.64021 19.9999 6.25395 20 6.88367V12.0007Z" fill="#FDE8FF"/>
<path d="M15.0002 9.99938H13.0002V7.99939C13.0002 7.73417 12.8949 7.47982 12.7073 7.29228C12.5198 7.10475 12.2655 6.99939 12.0002 6.99939C11.735 6.99939 11.4807 7.10475 11.2931 7.29228C11.1056 7.47982 11.0002 7.73417 11.0002 7.99939V9.99938H9.00024C8.73503 9.99938 8.48067 10.1047 8.29314 10.2923C8.1056 10.4798 8.00024 10.7342 8.00024 10.9994C8.00024 11.2646 8.1056 11.519 8.29314 11.7065C8.48067 11.894 8.73503 11.9994 9.00024 11.9994H11.0002V13.9994C11.0002 14.2646 11.1056 14.5189 11.2931 14.7065C11.4807 14.894 11.735 14.9994 12.0002 14.9994C12.2655 14.9994 12.5198 14.894 12.7073 14.7065C12.8949 14.5189 13.0002 14.2646 13.0002 13.9994V11.9994H15.0002C15.2654 11.9994 15.5198 11.894 15.7073 11.7065C15.8949 11.519 16.0002 11.2646 16.0002 10.9994C16.0002 10.7342 15.8949 10.4798 15.7073 10.2923C15.5198 10.1047 15.2654 9.99938 15.0002 9.99938Z" fill="#FDE8FF"/>
</g>
<defs>
<clipPath id="clip0_395_5638">
<rect width="24" height="24" fill="white"/>
</clipPath>
</defs>
</svg>
