<svg width="24" height="24" viewBox="0 0 24 24" fill="none" xmlns="http://www.w3.org/2000/svg">
<g clip-path="url(#clip0_395_5639)">
<path d="M18.581 2.14067L12.316 0.0516681C12.1109 -0.016653 11.8891 -0.016653 11.684 0.0516681L5.418 2.14067C4.42209 2.47172 3.55582 3.10817 2.94224 3.95961C2.32866 4.81105 1.99897 5.83418 2 6.88367V12.0007C2 19.5637 11.2 23.7407 11.594 23.9147C11.7218 23.9715 11.8601 24.0008 12 24.0008C12.1399 24.0008 12.2782 23.9715 12.406 23.9147C12.8 23.7407 22 19.5637 22 12.0007V6.88367C22.001 5.83406 21.6711 4.81083 21.0574 3.95938C20.4436 3.10793 19.5771 2.47155 18.581 2.14067V2.14067ZM20 12.0007C20 17.4557 13.681 21.0337 12 21.8897C10.317 21.0367 4 17.4697 4 12.0007V6.88367C3.99999 6.25407 4.19806 5.64042 4.56616 5.12964C4.93426 4.61886 5.45373 4.23683 6.051 4.03767L12 2.05467L17.948 4.03767C18.5455 4.23666 19.0651 4.61861 19.4334 5.12941C19.8017 5.64021 19.9999 6.25395 20 6.88367V12.0007Z" fill="#FDE8FF"/>
</g>
<defs>
<clipPath id="clip0_395_5639">
<rect width="24" height="24" fill="white"/>
</clipPath>
</defs>
</svg>
