<svg width="24" height="24" viewBox="0 0 24 24" fill="none" xmlns="http://www.w3.org/2000/svg">
<g clip-path="url(#clip0_395_5642)">
<path d="M24 10.0001C24 9.92715 23.992 9.85437 23.976 9.78315L22.676 3.91515C22.4345 2.80138 21.8173 1.80453 20.9281 1.09173C20.0389 0.378926 18.9316 -0.00647535 17.792 0.000144924H6.208C5.06905 -0.00555538 3.96273 0.380267 3.07433 1.09299C2.18593 1.80572 1.5694 2.80206 1.328 3.91515L0.0240014 9.78315C0.00800947 9.85437 -3.96599e-05 9.92715 1.3694e-06 10.0001V11.0001C-0.000805438 11.9737 0.354923 12.9139 1 13.6431V19.0001C1.00159 20.3257 1.52888 21.5966 2.46622 22.5339C3.40356 23.4713 4.67441 23.9986 6 24.0001H18C19.3256 23.9986 20.5964 23.4713 21.5338 22.5339C22.4711 21.5966 22.9984 20.3257 23 19.0001V13.6431C23.6451 12.9139 24.0008 11.9737 24 11.0001V10.0001ZM2 10.1091L3.28 4.34915C3.42504 3.6814 3.79502 3.08372 4.32801 2.65612C4.86101 2.22852 5.52469 1.99695 6.208 2.00015H7V5.00015C7 5.26536 7.10536 5.51972 7.2929 5.70725C7.48043 5.89479 7.73479 6.00015 8 6.00015C8.26522 6.00015 8.51957 5.89479 8.70711 5.70725C8.89464 5.51972 9 5.26536 9 5.00015V2.00015H15V5.00015C15 5.26536 15.1054 5.51972 15.2929 5.70725C15.4804 5.89479 15.7348 6.00015 16 6.00015C16.2652 6.00015 16.5196 5.89479 16.7071 5.70725C16.8946 5.51972 17 5.26536 17 5.00015V2.00015H17.792C18.4753 1.99695 19.139 2.22852 19.672 2.65612C20.205 3.08372 20.575 3.6814 20.72 4.34915L22 10.1091V11.0001C22 11.5306 21.7893 12.0393 21.4142 12.4144C21.0391 12.7894 20.5304 13.0001 20 13.0001H19C18.4696 13.0001 17.9609 12.7894 17.5858 12.4144C17.2107 12.0393 17 11.5306 17 11.0001C17 10.7349 16.8946 10.4806 16.7071 10.293C16.5196 10.1055 16.2652 10.0001 16 10.0001C15.7348 10.0001 15.4804 10.1055 15.2929 10.293C15.1054 10.4806 15 10.7349 15 11.0001C15 11.5306 14.7893 12.0393 14.4142 12.4144C14.0391 12.7894 13.5304 13.0001 13 13.0001H11C10.4696 13.0001 9.96086 12.7894 9.58579 12.4144C9.21072 12.0393 9 11.5306 9 11.0001C9 10.7349 8.89464 10.4806 8.70711 10.293C8.51957 10.1055 8.26522 10.0001 8 10.0001C7.73479 10.0001 7.48043 10.1055 7.2929 10.293C7.10536 10.4806 7 10.7349 7 11.0001C7 11.5306 6.78929 12.0393 6.41422 12.4144C6.03914 12.7894 5.53044 13.0001 5 13.0001H4C3.46957 13.0001 2.96086 12.7894 2.58579 12.4144C2.21072 12.0393 2 11.5306 2 11.0001V10.1091ZM18 22.0001H6C5.20435 22.0001 4.44129 21.6841 3.87868 21.1215C3.31607 20.5589 3 19.7958 3 19.0001V14.8731C3.3266 14.9577 3.66263 15.0004 4 15.0001H5C5.56782 15.0004 6.12916 14.8795 6.64651 14.6455C7.16386 14.4115 7.6253 14.0698 8 13.6431C8.3747 14.0698 8.83615 14.4115 9.3535 14.6455C9.87085 14.8795 10.4322 15.0004 11 15.0001H13C13.5678 15.0004 14.1292 14.8795 14.6465 14.6455C15.1639 14.4115 15.6253 14.0698 16 13.6431C16.3747 14.0698 16.8361 14.4115 17.3535 14.6455C17.8708 14.8795 18.4322 15.0004 19 15.0001H20C20.3374 15.0004 20.6734 14.9577 21 14.8731V19.0001C21 19.7958 20.6839 20.5589 20.1213 21.1215C19.5587 21.6841 18.7957 22.0001 18 22.0001Z" fill="#FDE8FF"/>
</g>
<defs>
<clipPath id="clip0_395_5642">
<rect width="24" height="24" fill="white"/>
</clipPath>
</defs>
</svg>
