<svg width="24" height="24" viewBox="0 0 24 24" fill="none" xmlns="http://www.w3.org/2000/svg">
<g clip-path="url(#clip0_395_5648)">
<path d="M23.4211 16.5822L20.1301 13.2912C20.0384 13.1935 19.928 13.1152 19.8054 13.0611C19.6829 13.0069 19.5507 12.9779 19.4167 12.9758C19.2827 12.9737 19.1497 12.9986 19.0255 13.049C18.9013 13.0993 18.7885 13.1741 18.6938 13.2689C18.5991 13.3636 18.5244 13.4765 18.4741 13.6007C18.4239 13.7249 18.3991 13.858 18.4013 13.9919C18.4035 14.1259 18.4325 14.2581 18.4868 14.3806C18.5411 14.5031 18.6194 14.6135 18.7171 14.7052L21.0071 16.9992C19.7623 17.002 18.5294 16.7557 17.3812 16.2748C16.2329 15.794 15.1925 15.0882 14.3211 14.1992C14.2244 14.1101 14.1107 14.0413 13.9868 13.997C13.863 13.9526 13.7315 13.9336 13.6002 13.9411C13.4689 13.9486 13.3404 13.9823 13.2224 14.0404C13.1043 14.0985 12.9992 14.1797 12.9131 14.2792L12.9001 14.2992C12.732 14.4947 12.6459 14.7477 12.6599 15.0052C12.6739 15.2628 12.7868 15.5049 12.9751 15.6812C14.0249 16.7429 15.2768 17.5835 16.6568 18.1533C18.0369 18.7232 19.5171 19.0108 21.0101 18.9992L18.7171 21.2922C18.6126 21.382 18.5279 21.4925 18.4681 21.6167C18.4083 21.7409 18.3749 21.8761 18.3699 22.0138C18.3649 22.1516 18.3884 22.2888 18.4389 22.4171C18.4894 22.5453 18.566 22.6617 18.6636 22.7589C18.7613 22.8562 18.878 22.9322 19.0064 22.9822C19.1348 23.0322 19.2722 23.0551 19.4099 23.0495C19.5476 23.0439 19.6827 23.0098 19.8066 22.9496C19.9306 22.8893 20.0407 22.804 20.1301 22.6992L23.4211 19.4082C23.7954 19.0332 24.0057 18.525 24.0057 17.9952C24.0057 17.4653 23.7954 16.9571 23.4211 16.5822V16.5822Z" fill="#FDE8FF"/>
<path d="M21.0071 6.99953L18.7171 9.28953C18.6976 9.31585 18.6796 9.34323 18.6631 9.37153C18.5017 9.56828 18.4221 9.81952 18.4408 10.0733C18.4594 10.3271 18.5749 10.564 18.7633 10.735C18.9516 10.9061 19.1986 10.9982 19.453 10.9924C19.7074 10.9865 19.9498 10.8831 20.1301 10.7035L21.8361 8.99953L23.4221 7.41453C23.6902 7.14429 23.8757 6.80313 23.9566 6.43113C24.0376 6.05914 24.0107 5.67177 23.8791 5.31453C23.7819 5.04108 23.6255 4.79248 23.4211 4.58653L20.1301 1.29953C20.0388 1.20034 19.9284 1.12063 19.8055 1.0652C19.6826 1.00977 19.5498 0.979753 19.415 0.97696C19.2802 0.974168 19.1463 0.998656 19.0212 1.04895C18.8961 1.09925 18.7825 1.17431 18.6872 1.26964C18.5919 1.36496 18.5168 1.47858 18.4665 1.60365C18.4162 1.72873 18.3917 1.86268 18.3945 1.99746C18.3973 2.13224 18.4273 2.26506 18.4827 2.38795C18.5382 2.51083 18.6179 2.62124 18.7171 2.71253L21.0101 5.00453C16.0771 5.01653 13.3731 7.67853 10.9211 10.4785C8.66909 7.93653 6.0001 5.39953 1.4871 5.04553L1.0061 4.99953C0.740886 4.99953 0.486533 5.10489 0.298996 5.29243C0.11146 5.47996 0.00610352 5.73432 0.00610352 5.99953C0.0112237 6.26315 0.118224 6.51454 0.304662 6.70097C0.4911 6.88741 0.742489 6.99441 1.0061 6.99953C1.0781 6.99953 1.2931 7.03253 1.2931 7.03253C5.1891 7.32753 7.4251 9.52153 9.60009 11.9995C7.4381 14.4655 5.2171 16.6995 1.3531 16.9595L0.953102 16.9805C0.689875 16.997 0.443961 17.1173 0.269459 17.3151C0.0949567 17.5128 0.00616009 17.7718 0.0226035 18.035C0.0390469 18.2983 0.159383 18.5442 0.35714 18.7187C0.554897 18.8932 0.813875 18.982 1.0771 18.9655C1.2331 18.9585 1.4871 18.9525 1.6121 18.9425C6.6321 18.5555 9.35509 15.3425 11.7831 12.5335C14.2351 9.69953 16.5511 7.01753 21.0071 6.99953Z" fill="#FDE8FF"/>
</g>
<defs>
<clipPath id="clip0_395_5648">
<rect width="24" height="24" fill="white"/>
</clipPath>
</defs>
</svg>
