<svg width="24" height="24" viewBox="0 0 24 24" fill="none" xmlns="http://www.w3.org/2000/svg">
<g clip-path="url(#clip0_395_5660)">
<path d="M22.7611 13.9703L20.3161 14.6163C19.9589 14.7116 19.625 14.879 19.3351 15.1083L16.7181 13.5863C17.0861 12.5603 17.0861 11.4383 16.7181 10.4123L19.3351 8.8903C19.625 9.11956 19.9589 9.287 20.3161 9.3823C20.3161 9.3823 22.9331 10.0613 23.0161 10.0613C23.256 10.0573 23.4865 9.96721 23.6655 9.80741C23.8445 9.6476 23.9601 9.42876 23.9911 9.19082C24.0221 8.95288 23.9666 8.71171 23.8346 8.51133C23.7026 8.31094 23.5029 8.1647 23.2721 8.0993L20.8281 7.4523C20.6451 7.40371 20.4888 7.28451 20.3936 7.12085C20.2983 6.95718 20.2719 6.76242 20.3201 6.5793L20.9671 4.1353C21.0007 4.00831 21.009 3.87595 20.9914 3.74576C20.9739 3.61557 20.9309 3.49011 20.8649 3.37655C20.7988 3.26298 20.7111 3.16353 20.6066 3.08388C20.5022 3.00422 20.3831 2.94592 20.2561 2.9123C20.1291 2.87868 19.9967 2.87041 19.8665 2.88794C19.7363 2.90548 19.6109 2.94849 19.4973 3.01451C19.3838 3.08053 19.2843 3.16828 19.2046 3.27273C19.125 3.37719 19.0667 3.49631 19.0331 3.6233L18.3871 6.0673C18.292 6.42603 18.2722 6.80056 18.3291 7.1673L15.7131 8.6833C15.0034 7.8763 14.0517 7.32062 13.0001 7.0993V4.0993C13.3446 3.96492 13.6575 3.76062 13.9191 3.4993L15.7071 1.7113C15.8952 1.52379 16.0012 1.26921 16.0017 1.00357C16.0022 0.737924 15.8971 0.482973 15.7096 0.294801C15.5221 0.10663 15.2675 0.000653511 15.0018 0.000184668C14.7362 -0.000284175 14.4812 0.104793 14.2931 0.292301L12.5051 2.0803C12.3706 2.21331 12.1892 2.28791 12.0001 2.28791C11.811 2.28791 11.6295 2.21331 11.4951 2.0803L9.70707 0.292301C9.51847 0.110143 9.26587 0.00934895 9.00367 0.0116274C8.74147 0.0139058 8.49066 0.119075 8.30525 0.304483C8.11984 0.489891 8.01468 0.740703 8.0124 1.0029C8.01012 1.2651 8.11091 1.5177 8.29307 1.7063L10.0811 3.4993C10.3427 3.76062 10.6556 3.96492 11.0001 4.0993V7.0993C9.94847 7.32062 8.99672 7.8763 8.28707 8.6833L5.67107 7.1613C5.72791 6.79456 5.70816 6.42003 5.61307 6.0613L4.96707 3.6193C4.93345 3.49231 4.87515 3.37319 4.7955 3.26873C4.71584 3.16428 4.61639 3.07653 4.50282 3.01051C4.38926 2.94449 4.2638 2.90148 4.13361 2.88394C4.00343 2.86641 3.87106 2.87468 3.74407 2.9083C3.61708 2.94192 3.49796 3.00022 3.3935 3.07988C3.28905 3.15953 3.2013 3.25898 3.13528 3.37255C3.06926 3.48611 3.02625 3.61157 3.00871 3.74176C2.99118 3.87195 2.99945 4.00431 3.03307 4.1313L3.68007 6.5753C3.72825 6.75843 3.70183 6.95318 3.60659 7.11685C3.51136 7.28051 3.35509 7.39971 3.17207 7.4483L0.728071 8.0993C0.494056 8.16192 0.290729 8.30736 0.155867 8.5086C0.0210052 8.70984 -0.0362222 8.95319 -0.00518254 9.19344C0.0258571 9.43369 0.143053 9.65451 0.324632 9.81487C0.50621 9.97522 0.739825 10.0642 0.982071 10.0653C1.06707 10.0653 3.68207 9.3863 3.68207 9.3863C4.03923 9.291 4.37309 9.12356 4.66307 8.8943L7.28007 10.4163C6.91202 11.4423 6.91202 12.5643 7.28007 13.5903L4.66507 15.1083C4.37509 14.879 4.04123 14.7116 3.68407 14.6163L1.23907 13.9703C0.990081 13.9219 0.73199 13.9699 0.517059 14.1046C0.302128 14.2393 0.14642 14.4506 0.0814656 14.6958C0.0165114 14.941 0.047165 15.2017 0.167219 15.4252C0.287274 15.6486 0.487756 15.8181 0.728071 15.8993L3.17207 16.5463C3.35509 16.5949 3.51136 16.7141 3.60659 16.8778C3.70183 17.0414 3.72825 17.2362 3.68007 17.4193L3.03307 19.8633C2.99945 19.9903 2.99118 20.1227 3.00871 20.2528C3.02625 20.383 3.06926 20.5085 3.13528 20.6221C3.2013 20.7356 3.28905 20.8351 3.3935 20.9147C3.49796 20.9944 3.61708 21.0527 3.74407 21.0863C3.87106 21.1199 4.00343 21.1282 4.13361 21.1107C4.2638 21.0931 4.38926 21.0501 4.50282 20.9841C4.61639 20.9181 4.71584 20.8303 4.7955 20.7259C4.87515 20.6214 4.93345 20.5023 4.96707 20.3753L5.61307 17.9313C5.70816 17.5726 5.72791 17.198 5.67107 16.8313L8.28707 15.3093C8.99585 16.1185 9.9477 16.6764 11.0001 16.8993V19.8993C10.6558 20.034 10.3429 20.2383 10.0811 20.4993L8.29307 22.2923C8.11091 22.4809 8.01012 22.7335 8.0124 22.9957C8.01468 23.2579 8.11984 23.5087 8.30525 23.6941C8.49066 23.8795 8.74147 23.9847 9.00367 23.987C9.26587 23.9893 9.51847 23.8885 9.70707 23.7063L11.5001 21.9183C11.6345 21.7853 11.816 21.7107 12.0051 21.7107C12.1942 21.7107 12.3756 21.7853 12.5101 21.9183L14.2981 23.7063C14.4867 23.8885 14.7393 23.9893 15.0015 23.987C15.2637 23.9847 15.5145 23.8795 15.6999 23.6941C15.8853 23.5087 15.9905 23.2579 15.9927 22.9957C15.995 22.7335 15.8942 22.4809 15.7121 22.2923L13.9241 20.5043C13.6612 20.2409 13.3466 20.0349 13.0001 19.8993V16.8993C14.0515 16.6783 15.0033 16.1229 15.7131 15.3163L18.3291 16.8383C18.2722 17.205 18.292 17.5796 18.3871 17.9383L19.0331 20.3823C19.101 20.6388 19.268 20.8578 19.4973 20.9911C19.7267 21.1244 19.9996 21.1612 20.2561 21.0933C20.5125 21.0254 20.7315 20.8584 20.8649 20.6291C20.9982 20.3997 21.035 20.1268 20.9671 19.8703L20.3201 17.4263C20.2719 17.2432 20.2983 17.0484 20.3936 16.8848C20.4888 16.7211 20.6451 16.6019 20.8281 16.5533L23.2721 15.9063C23.4018 15.8754 23.5241 15.8188 23.6316 15.7399C23.7392 15.661 23.8299 15.5614 23.8983 15.447C23.9668 15.3325 24.0117 15.2055 24.0304 15.0735C24.049 14.9414 24.0411 14.8069 24.007 14.678C23.9729 14.549 23.9134 14.4282 23.8319 14.3226C23.7504 14.217 23.6486 14.1288 23.5325 14.0631C23.4164 13.9975 23.2883 13.9557 23.1559 13.9403C23.0234 13.9248 22.8892 13.9361 22.7611 13.9733V13.9703ZM12.0001 14.9993C11.2044 14.9993 10.4414 14.6832 9.87875 14.1206C9.31614 13.558 9.00007 12.795 9.00007 11.9993C9.00007 11.2037 9.31614 10.4406 9.87875 9.87798C10.4414 9.31537 11.2044 8.9993 12.0001 8.9993C12.7957 8.9993 13.5588 9.31537 14.1214 9.87798C14.684 10.4406 15.0001 11.2037 15.0001 11.9993C15.0001 12.795 14.684 13.558 14.1214 14.1206C13.5588 14.6832 12.7957 14.9993 12.0001 14.9993Z" fill="#FDE8FF"/>
</g>
<defs>
<clipPath id="clip0_395_5660">
<rect width="24" height="24" fill="white"/>
</clipPath>
</defs>
</svg>
