<svg width="24" height="24" viewBox="0 0 24 24" fill="none" xmlns="http://www.w3.org/2000/svg">
<g clip-path="url(#clip0_395_5662)">
<path d="M13.8609 24H10.1389C7.79805 24.0103 5.54691 23.1002 3.8709 21.466C2.12423 19.7055 0.84931 17.5333 0.163902 15.15C-0.0130852 14.5524 -0.0483742 13.9218 0.060835 13.3082C0.170044 12.6946 0.420746 12.1148 0.793052 11.615C1.16536 11.1152 1.64902 10.709 2.20567 10.4286C2.76233 10.1483 3.37665 10.0015 3.9999 10H19.9999C20.6233 10.0014 21.2377 10.1481 21.7945 10.4284C22.3513 10.7086 22.8351 11.1148 23.2076 11.6146C23.5801 12.1144 23.831 12.6942 23.9404 13.3078C24.0498 13.9215 24.0147 14.5522 23.8379 15.15C23.1529 17.5337 21.8776 19.7061 20.1299 21.466C18.4539 23.1008 16.2022 24.011 13.8609 24V24ZM3.9999 12C3.68915 11.9985 3.38241 12.0701 3.10446 12.2091C2.82651 12.3481 2.58516 12.5505 2.3999 12.8C2.20979 13.0525 2.08161 13.3461 2.02569 13.6572C1.96976 13.9682 1.98764 14.2881 2.0779 14.591C2.67594 16.6479 3.77553 18.5241 5.2779 20.051C6.57956 21.3136 8.32554 22.0136 10.1389 22H13.8609C15.673 22.0125 17.4172 21.3118 18.7169 20.049C20.2198 18.5225 21.3194 16.6462 21.9169 14.589C22.0072 14.2861 22.025 13.9662 21.9691 13.6552C21.9132 13.3441 21.785 13.0505 21.5949 12.798C21.4101 12.5494 21.1695 12.3476 20.8924 12.209C20.6154 12.0704 20.3097 11.9988 19.9999 12H3.9999ZM15.9999 6C16.0017 5.42009 15.8883 4.84561 15.6663 4.30986C15.4444 3.77411 15.1183 3.28775 14.7069 2.879C14.4816 2.65482 14.3032 2.38813 14.1818 2.09441C14.0604 1.8007 13.9986 1.4858 13.9999 1.168V1C13.9999 0.734784 13.8945 0.48043 13.707 0.292893C13.5195 0.105357 13.2651 0 12.9999 0C12.7347 0 12.4803 0.105357 12.2928 0.292893C12.1053 0.48043 11.9999 0.734784 11.9999 1V1.168C11.9982 1.74804 12.1116 2.32265 12.3336 2.85855C12.5555 3.39445 12.8816 3.881 13.2929 4.29C13.518 4.51406 13.6965 4.78059 13.8178 5.07412C13.9392 5.36766 14.0011 5.68237 13.9999 6C13.9999 6.26522 14.1053 6.51957 14.2928 6.70711C14.4803 6.89464 14.7347 7 14.9999 7C15.2651 7 15.5195 6.89464 15.707 6.70711C15.8945 6.51957 15.9999 6.26522 15.9999 6ZM11.9999 7V6.692C12.0015 6.11221 11.8881 5.53787 11.6663 5.00217C11.4446 4.46646 11.1188 3.98004 10.7079 3.571C10.4829 3.34738 10.3045 3.08137 10.183 2.78838C10.0615 2.49538 9.99926 2.1812 9.9999 1.864V1C9.9999 0.734784 9.89455 0.48043 9.70701 0.292893C9.51947 0.105357 9.26512 0 8.9999 0C8.73469 0 8.48033 0.105357 8.2928 0.292893C8.10526 0.48043 7.9999 0.734784 7.9999 1V1.864C7.99841 2.44386 8.11192 3.01827 8.33386 3.55398C8.5558 4.08969 8.88177 4.57608 9.2929 4.985C9.51768 5.20871 9.6959 5.47475 9.81725 5.76774C9.9386 6.06073 10.0007 6.37487 9.9999 6.692V7C9.9999 7.26522 10.1053 7.51957 10.2928 7.70711C10.4803 7.89464 10.7347 8 10.9999 8C11.2651 8 11.5195 7.89464 11.707 7.70711C11.8945 7.51957 11.9999 7.26522 11.9999 7Z" fill="#FDE8FF"/>
</g>
<defs>
<clipPath id="clip0_395_5662">
<rect width="24" height="24" fill="white"/>
</clipPath>
</defs>
</svg>
