<svg width="24" height="24" viewBox="0 0 24 24" fill="none" xmlns="http://www.w3.org/2000/svg">
<g clip-path="url(#clip0_395_5670)">
<path d="M21.77 8.94838C21.6068 8.89004 21.4577 8.79809 21.3323 8.67848C21.2069 8.55887 21.108 8.41426 21.042 8.25401C20.976 8.09377 20.9444 7.92146 20.9492 7.74823C20.954 7.575 20.9952 7.40471 21.07 7.24838C21.3569 6.64444 21.45 5.96647 21.3363 5.30754C21.2226 4.64861 20.9078 4.04101 20.435 3.56814C19.9623 3.09527 19.3548 2.7803 18.6959 2.66647C18.0369 2.55264 17.359 2.64553 16.755 2.93238C16.5986 3.00701 16.4283 3.04801 16.2551 3.05275C16.082 3.05749 15.9097 3.02586 15.7495 2.95989C15.5893 2.89393 15.4447 2.7951 15.3251 2.66979C15.2054 2.54447 15.1134 2.39546 15.055 2.23238C14.8301 1.60346 14.4164 1.05941 13.8704 0.674751C13.3244 0.290088 12.6728 0.0836182 12.005 0.0836182C11.3371 0.0836182 10.6855 0.290088 10.1395 0.674751C9.5935 1.05941 9.17976 1.60346 8.95495 2.23238C8.89661 2.39556 8.80466 2.54468 8.68505 2.67008C8.56544 2.79547 8.42083 2.89437 8.26059 2.96035C8.10034 3.02633 7.92803 3.05794 7.7548 3.05312C7.58157 3.0483 7.41128 3.00717 7.25495 2.93238C6.65063 2.64325 5.97152 2.54862 5.31117 2.66153C4.65083 2.77444 4.04174 3.08933 3.56781 3.56282C3.09388 4.03631 2.77843 4.64511 2.66491 5.30535C2.55139 5.96559 2.64538 6.64479 2.93395 7.24938C3.0089 7.40568 3.05016 7.576 3.05506 7.74927C3.05995 7.92255 3.02838 8.09491 2.96238 8.2552C2.89638 8.41549 2.79742 8.56012 2.67194 8.6797C2.54645 8.79929 2.39723 8.89117 2.23395 8.94938C1.60548 9.17464 1.06194 9.58855 0.677669 10.1345C0.293397 10.6804 0.0871582 11.3318 0.0871582 11.9994C0.0871582 12.667 0.293397 13.3183 0.677669 13.8643C1.06194 14.4102 1.60548 14.8241 2.23395 15.0494C2.39757 15.1072 2.54721 15.1988 2.67315 15.3182C2.79909 15.4376 2.89853 15.5821 2.96501 15.7424C3.03148 15.9027 3.06352 16.0752 3.05903 16.2487C3.05454 16.4221 3.01363 16.5927 2.93895 16.7494C2.65179 17.3529 2.55845 18.0306 2.67173 18.6893C2.78502 19.348 3.09938 19.9556 3.57168 20.4285C4.04398 20.9015 4.65107 21.2167 5.30964 21.3309C5.96821 21.4451 6.64599 21.3527 7.24995 21.0664C7.40628 20.9916 7.57657 20.9505 7.7498 20.9456C7.92303 20.9408 8.09534 20.9724 8.25559 21.0384C8.41583 21.1044 8.56044 21.2033 8.68005 21.3287C8.79966 21.4541 8.89161 21.6032 8.94995 21.7664C9.17476 22.3953 9.5885 22.9393 10.1345 23.324C10.6805 23.7087 11.3321 23.9151 12 23.9151C12.6678 23.9151 13.3194 23.7087 13.8654 23.324C14.4114 22.9393 14.8251 22.3953 15.05 21.7664C15.1083 21.6032 15.2002 21.4541 15.3199 21.3287C15.4395 21.2033 15.5841 21.1044 15.7443 21.0384C15.9046 20.9724 16.0769 20.9408 16.2501 20.9456C16.4233 20.9505 16.5936 20.9916 16.75 21.0664C17.3539 21.3534 18.0319 21.4464 18.6908 21.3327C19.3497 21.2191 19.9573 20.9042 20.4302 20.4315C20.9031 19.9587 21.218 19.3512 21.3319 18.6923C21.4457 18.0334 21.3528 17.3554 21.066 16.7514C20.9913 16.595 20.9503 16.4248 20.9456 16.2516C20.9408 16.0784 20.9725 15.9061 21.0384 15.7459C21.1044 15.5857 21.2032 15.4411 21.3285 15.3215C21.4539 15.2019 21.6029 15.1099 21.766 15.0514C22.3949 14.8266 22.9389 14.4128 23.3236 13.8668C23.7082 13.3208 23.9147 12.6693 23.9147 12.0014C23.9147 11.3335 23.7082 10.6819 23.3236 10.1359C22.9389 9.58993 22.3949 9.17619 21.766 8.95138L21.77 8.94838ZM21.1 13.1674C20.673 13.3192 20.2827 13.559 19.9542 13.8711C19.6257 14.1833 19.3664 14.5609 19.193 14.9795C19.0195 15.3982 18.9359 15.8486 18.9474 16.3016C18.959 16.7546 19.0654 17.2001 19.26 17.6094C19.37 17.8405 19.4058 18.1001 19.3623 18.3525C19.3188 18.6048 19.1982 18.8374 19.0171 19.0184C18.836 19.1994 18.6033 19.3199 18.351 19.3632C18.0986 19.4065 17.8391 19.3706 17.608 19.2604C17.1987 19.0659 16.7533 18.9594 16.3004 18.9479C15.8474 18.9364 15.3971 19.02 14.9785 19.1934C14.56 19.3669 14.1825 19.6262 13.8704 19.9547C13.5583 20.2832 13.3187 20.6735 13.167 21.1004C13.0815 21.3416 12.9235 21.5505 12.7145 21.6982C12.5055 21.8459 12.2559 21.9252 12 21.9252C11.744 21.9252 11.4944 21.8459 11.2854 21.6982C11.0764 21.5505 10.9184 21.3416 10.833 21.1004C10.681 20.6735 10.4411 20.2833 10.129 19.9549C9.81679 19.6265 9.43921 19.3672 9.0206 19.1938C8.602 19.0204 8.15167 18.9368 7.69872 18.9482C7.24577 18.9597 6.80025 19.066 6.39095 19.2604C6.15982 19.3701 5.90038 19.4056 5.64828 19.362C5.39617 19.3183 5.16375 19.1977 4.98294 19.0167C4.80213 18.8357 4.6818 18.6031 4.63847 18.3509C4.59514 18.0988 4.63094 17.8394 4.74095 17.6084C4.93543 17.1991 5.04184 16.7536 5.0533 16.3006C5.06476 15.8476 4.98103 15.3973 4.80751 14.9787C4.63398 14.5601 4.37454 14.1826 4.04595 13.8706C3.71736 13.5586 3.32695 13.319 2.89995 13.1674C2.65917 13.0815 2.45085 12.9233 2.30354 12.7143C2.15624 12.5054 2.07716 12.256 2.07716 12.0004C2.07716 11.7447 2.15624 11.4954 2.30354 11.2864C2.45085 11.0775 2.65917 10.9193 2.89995 10.8334C3.32709 10.6818 3.71763 10.4422 4.04628 10.1301C4.37494 9.81797 4.6344 9.44033 4.80785 9.0216C4.9813 8.60286 5.06489 8.15237 5.05319 7.69928C5.04149 7.24619 4.93478 6.80061 4.73995 6.39138C4.63008 6.16031 4.59444 5.9009 4.63792 5.64877C4.6814 5.39663 4.80187 5.16414 4.98279 4.98322C5.16371 4.8023 5.3962 4.68183 5.64834 4.63835C5.90047 4.59487 6.15989 4.63051 6.39095 4.74038C6.80023 4.93488 7.24577 5.04135 7.69876 5.05289C8.15176 5.06443 8.60214 4.98078 9.02079 4.80737C9.43944 4.63395 9.81704 4.37462 10.1292 4.04613C10.4413 3.71765 10.6811 3.32732 10.833 2.90038C10.9184 2.65915 11.0764 2.45031 11.2854 2.30261C11.4944 2.15491 11.744 2.0756 12 2.0756C12.2559 2.0756 12.5055 2.15491 12.7145 2.30261C12.9235 2.45031 13.0815 2.65915 13.167 2.90038C13.3188 3.32732 13.5586 3.71765 13.8707 4.04613C14.1829 4.37462 14.5605 4.63395 14.9791 4.80737C15.3978 4.98078 15.8481 5.06443 16.3011 5.05289C16.7541 5.04135 17.1997 4.93488 17.609 4.74038C17.8401 4.6303 18.0997 4.59455 18.352 4.63803C18.6044 4.68151 18.837 4.80209 19.018 4.98319C19.199 5.16429 19.3194 5.39702 19.3628 5.64936C19.4061 5.90171 19.3702 6.16128 19.26 6.39238C19.0655 6.80159 18.959 7.24705 18.9475 7.69998C18.9359 8.15291 19.0196 8.60322 19.193 9.02179C19.3664 9.44036 19.6258 9.81788 19.9543 10.1299C20.2827 10.442 20.673 10.6816 21.1 10.8334C21.3412 10.9188 21.55 11.0769 21.6977 11.2859C21.8454 11.4948 21.9247 11.7445 21.9247 12.0004C21.9247 12.2563 21.8454 12.5059 21.6977 12.7149C21.55 12.9239 21.3412 13.082 21.1 13.1674V13.1674Z" fill="#FDE8FF"/>
</g>
<defs>
<clipPath id="clip0_395_5670">
<rect width="24" height="24" fill="white"/>
</clipPath>
</defs>
</svg>
