<svg width="24" height="24" viewBox="0 0 24 24" fill="none" xmlns="http://www.w3.org/2000/svg">
<g clip-path="url(#clip0_395_5677)">
<path d="M19 22.0006H5C3.6744 21.999 2.40356 21.4717 1.46622 20.5344C0.528882 19.5971 0.00158786 18.3262 0 17.0006L0 7.00061C0.00158786 5.67502 0.528882 4.40417 1.46622 3.46683C2.40356 2.52949 3.6744 2.0022 5 2.00061H19C20.3256 2.0022 21.5964 2.52949 22.5338 3.46683C23.4711 4.40417 23.9984 5.67502 24 7.00061V17.0006C23.9984 18.3262 23.4711 19.5971 22.5338 20.5344C21.5964 21.4717 20.3256 21.999 19 22.0006V22.0006ZM5 4.00061C4.20435 4.00061 3.44129 4.31668 2.87868 4.87929C2.31607 5.4419 2 6.20496 2 7.00061V17.0006C2 17.7963 2.31607 18.5593 2.87868 19.1219C3.44129 19.6845 4.20435 20.0006 5 20.0006H19C19.7956 20.0006 20.5587 19.6845 21.1213 19.1219C21.6839 18.5593 22 17.7963 22 17.0006V7.00061C22 6.20496 21.6839 5.4419 21.1213 4.87929C20.5587 4.31668 19.7956 4.00061 19 4.00061H5Z" fill="#FDE8FF"/>
<path d="M18.9998 13.0006H10.9998C10.7345 13.0006 10.4802 12.8953 10.2926 12.7077C10.1051 12.5202 9.99976 12.2658 9.99976 12.0006C9.99976 11.7354 10.1051 11.481 10.2926 11.2935C10.4802 11.106 10.7345 11.0006 10.9998 11.0006H18.9998C19.265 11.0006 19.5193 11.106 19.7069 11.2935C19.8944 11.481 19.9998 11.7354 19.9998 12.0006C19.9998 12.2658 19.8944 12.5202 19.7069 12.7077C19.5193 12.8953 19.265 13.0006 18.9998 13.0006Z" fill="#FDE8FF"/>
<path d="M6.99999 13.0006H5C4.73478 13.0006 4.48043 12.8953 4.29289 12.7077C4.10536 12.5202 4 12.2658 4 12.0006C4 11.7354 4.10536 11.481 4.29289 11.2935C4.48043 11.106 4.73478 11.0006 5 11.0006H6.99999C7.26521 11.0006 7.51956 11.106 7.7071 11.2935C7.89464 11.481 7.99999 11.7354 7.99999 12.0006C7.99999 12.2658 7.89464 12.5202 7.7071 12.7077C7.51956 12.8953 7.26521 13.0006 6.99999 13.0006Z" fill="#FDE8FF"/>
<path d="M13 17.9994H5C4.73478 17.9994 4.48043 17.894 4.29289 17.7065C4.10536 17.519 4 17.2646 4 16.9994C4 16.7342 4.10536 16.4798 4.29289 16.2923C4.48043 16.1047 4.73478 15.9994 5 15.9994H13C13.2652 15.9994 13.5196 16.1047 13.7071 16.2923C13.8946 16.4798 14 16.7342 14 16.9994C14 17.2646 13.8946 17.519 13.7071 17.7065C13.5196 17.894 13.2652 17.9994 13 17.9994Z" fill="#FDE8FF"/>
<path d="M18.9998 17.9994H16.9998C16.7345 17.9994 16.4802 17.894 16.2926 17.7065C16.1051 17.519 15.9998 17.2646 15.9998 16.9994C15.9998 16.7342 16.1051 16.4798 16.2926 16.2923C16.4802 16.1047 16.7345 15.9994 16.9998 15.9994H18.9998C19.265 15.9994 19.5193 16.1047 19.7069 16.2923C19.8944 16.4798 19.9997 16.7342 19.9997 16.9994C19.9997 17.2646 19.8944 17.519 19.7069 17.7065C19.5193 17.894 19.265 17.9994 18.9998 17.9994Z" fill="#FDE8FF"/>
</g>
<defs>
<clipPath id="clip0_395_5677">
<rect width="24" height="24" fill="white"/>
</clipPath>
</defs>
</svg>
