<svg width="24" height="24" viewBox="0 0 24 24" fill="none" xmlns="http://www.w3.org/2000/svg">
<g clip-path="url(#clip0_395_5679)">
<path d="M0.000121313 12C0.000121313 11.7348 0.105478 11.4804 0.293015 11.2929C0.480551 11.1054 0.734905 11 1.00012 11H5.07912C5.15818 10.451 5.30392 9.9137 5.51312 9.4L1.98212 7.349C1.86425 7.28557 1.7603 7.19911 1.67646 7.09476C1.59262 6.99041 1.53058 6.87029 1.49402 6.74152C1.45746 6.61275 1.44713 6.47794 1.46364 6.34511C1.48014 6.21227 1.52315 6.08409 1.59011 5.96818C1.65707 5.85228 1.74662 5.75099 1.85345 5.67033C1.96028 5.58967 2.08222 5.53129 2.21204 5.49863C2.34185 5.46597 2.47691 5.45971 2.60919 5.48021C2.74147 5.50072 2.86828 5.54757 2.98212 5.618L6.51712 7.666C6.85563 7.24148 7.24184 6.85729 7.66812 6.521L5.61812 2.984C5.49491 2.75505 5.46572 2.48712 5.53673 2.23701C5.60773 1.9869 5.77335 1.77428 5.99848 1.64422C6.22361 1.51417 6.49054 1.4769 6.74267 1.54033C6.99481 1.60376 7.21233 1.7629 7.34912 1.984L9.40012 5.513C9.91412 5.3049 10.4513 5.15952 11.0001 5.08V1C11.0001 0.734784 11.1055 0.48043 11.293 0.292893C11.4806 0.105357 11.7349 0 12.0001 0C12.2653 0 12.5197 0.105357 12.7072 0.292893C12.8948 0.48043 13.0001 0.734784 13.0001 1V5.08C13.5489 5.15952 14.0861 5.3049 14.6001 5.513L16.6471 1.981C16.7839 1.7599 17.0014 1.60076 17.2536 1.53733C17.5057 1.4739 17.7726 1.51117 17.9978 1.64122C18.2229 1.77128 18.3885 1.9839 18.4595 2.23401C18.5305 2.48412 18.5013 2.75205 18.3781 2.981L16.3281 6.517C16.7542 6.85345 17.1407 7.23725 17.4801 7.661L21.0111 5.614C21.2401 5.49079 21.508 5.4616 21.7581 5.5326C22.0082 5.60361 22.2208 5.76923 22.3509 5.99436C22.481 6.21949 22.5182 6.48642 22.4548 6.73855C22.3914 6.99069 22.2322 7.20821 22.0111 7.345L18.4901 9.394C18.7016 9.91227 18.8497 10.4542 18.9311 11.008L23.0001 11C23.2653 11 23.5197 11.1054 23.7072 11.2929C23.8948 11.4804 24.0001 11.7348 24.0001 12C24.0001 12.2652 23.8948 12.5196 23.7072 12.7071C23.5197 12.8946 23.2653 13 23.0001 13H18.9221C18.443 12.9983 17.9803 12.8247 17.6184 12.5107C17.2565 12.1966 17.0194 11.7631 16.9501 11.289C16.7672 10.1075 16.1676 9.03033 15.2598 8.25227C14.3519 7.47421 13.1957 7.04654 12.0001 7.04654C10.8045 7.04654 9.6483 7.47421 8.74048 8.25227C7.83266 9.03033 7.23309 10.1075 7.05012 11.289C6.98091 11.763 6.7439 12.1963 6.38219 12.5103C6.02049 12.8243 5.5581 12.9981 5.07912 13H1.00012C0.734905 13 0.480551 12.8946 0.293015 12.7071C0.105478 12.5196 0.000121313 12.2652 0.000121313 12ZM23.7441 16.565C23.5669 16.3677 23.3187 16.2489 23.0539 16.2346C22.7891 16.2204 22.5295 16.3119 22.3321 16.489C22.0686 16.6997 21.7605 16.8474 21.4312 16.9208C21.1019 16.9942 20.7602 16.9914 20.4322 16.9125C20.1042 16.8337 19.7985 16.681 19.5385 16.466C19.2785 16.251 19.0711 15.9794 18.9321 15.672C18.8854 15.5308 18.8071 15.402 18.7031 15.2956C18.5991 15.1892 18.4722 15.108 18.3321 15.058C18.0823 14.9699 17.8077 14.9846 17.5686 15.0988C17.3296 15.2129 17.1456 15.4173 17.0571 15.667C16.8717 16.0573 16.5795 16.387 16.2144 16.618C15.8493 16.8491 15.4263 16.972 14.9942 16.9725C14.5621 16.973 14.1388 16.8512 13.7731 16.621C13.4075 16.3908 13.1145 16.0618 12.9281 15.672C12.8813 15.5307 12.8029 15.4019 12.699 15.2954C12.595 15.1889 12.4682 15.1073 12.3281 15.057C12.2043 15.0133 12.073 14.9943 11.9419 15.0013C11.8108 15.0083 11.6823 15.0411 11.5638 15.0977C11.4453 15.1544 11.3391 15.2338 11.2513 15.3315C11.1635 15.4291 11.0958 15.5432 11.0521 15.667C10.8666 16.057 10.5744 16.3865 10.2094 16.6173C9.84445 16.8482 9.42156 16.971 8.9897 16.9715C8.55783 16.972 8.13465 16.8502 7.7691 16.6203C7.40356 16.3903 7.1106 16.0615 6.92412 15.672C6.87726 15.5307 6.7989 15.4019 6.69495 15.2954C6.59101 15.1889 6.4642 15.1073 6.32412 15.057C6.20029 15.0133 6.06905 14.9943 5.9379 15.0013C5.80675 15.0083 5.67826 15.0411 5.55977 15.0977C5.44128 15.1544 5.33511 15.2338 5.24732 15.3315C5.15953 15.4291 5.09184 15.5432 5.04812 15.667C4.91138 15.975 4.70572 16.2474 4.44701 16.4633C4.1883 16.6792 3.88345 16.8328 3.55597 16.9123C3.2285 16.9917 2.88715 16.9948 2.55827 16.9214C2.22939 16.8481 1.92177 16.7001 1.65912 16.489C1.45878 16.3355 1.20779 16.2634 0.956527 16.2873C0.705261 16.3111 0.472297 16.429 0.304373 16.6175C0.136449 16.8059 0.0459855 17.0508 0.051132 17.3032C0.0562785 17.5555 0.156654 17.7966 0.332121 17.978C1.12999 18.663 2.15701 19.0216 3.20786 18.9821C4.2587 18.9426 5.25592 18.508 6.00012 17.765C6.80459 18.5438 7.88041 18.9793 9.00012 18.9793C10.1198 18.9793 11.1957 18.5438 12.0001 17.765C12.8045 18.5441 13.8803 18.9797 15.0001 18.9797C16.1199 18.9797 17.1958 18.5441 18.0001 17.765C18.7442 18.5081 19.7413 18.943 20.7922 18.9826C21.843 19.0223 22.8701 18.6639 23.6681 17.979C23.7661 17.8912 23.8458 17.785 23.9027 17.6664C23.9595 17.5478 23.9924 17.4191 23.9995 17.2878C24.0066 17.1564 23.9876 17.025 23.9438 16.9009C23.9 16.7769 23.8321 16.6628 23.7441 16.565ZM23.7441 21.565C23.5669 21.3677 23.3187 21.2489 23.0539 21.2346C22.7891 21.2204 22.5295 21.3119 22.3321 21.489C22.0686 21.6997 21.7605 21.8474 21.4312 21.9208C21.1019 21.9942 20.7602 21.9914 20.4322 21.9125C20.1042 21.8337 19.7985 21.681 19.5385 21.466C19.2785 21.251 19.0711 20.9794 18.9321 20.672C18.8854 20.5308 18.8071 20.402 18.7031 20.2956C18.5991 20.1892 18.4722 20.108 18.3321 20.058C18.0823 19.9699 17.8077 19.9846 17.5686 20.0988C17.3296 20.2129 17.1456 20.4173 17.0571 20.667C16.8712 21.057 16.5787 21.3864 16.2133 21.617C15.8479 21.8476 15.4247 21.97 14.9926 21.97C14.5606 21.97 14.1373 21.8476 13.772 21.617C13.4066 21.3864 13.114 21.057 12.9281 20.667C12.8813 20.5257 12.8029 20.3969 12.699 20.2904C12.595 20.1839 12.4682 20.1023 12.3281 20.052C12.2043 20.0083 12.073 19.9893 11.9419 19.9963C11.8108 20.0033 11.6823 20.0361 11.5638 20.0927C11.4453 20.1494 11.3391 20.2288 11.2513 20.3265C11.1635 20.4241 11.0958 20.5382 11.0521 20.662C10.8661 21.0518 10.5736 21.3809 10.2083 21.6113C9.84302 21.8417 9.41999 21.964 8.98812 21.964C8.55626 21.964 8.13322 21.8417 7.76795 21.6113C7.40269 21.3809 7.11013 21.0518 6.92412 20.662C6.87726 20.5207 6.7989 20.3919 6.69495 20.2854C6.59101 20.1789 6.4642 20.0973 6.32412 20.047C6.20029 20.0033 6.06905 19.9843 5.9379 19.9913C5.80675 19.9983 5.67826 20.0311 5.55977 20.0877C5.44128 20.1444 5.33511 20.2238 5.24732 20.3215C5.15953 20.4191 5.09184 20.5332 5.04812 20.657C4.91138 20.965 4.70572 21.2374 4.44701 21.4533C4.1883 21.6692 3.88345 21.8228 3.55597 21.9023C3.2285 21.9817 2.88715 21.9848 2.55827 21.9114C2.22939 21.8381 1.92177 21.6901 1.65912 21.479C1.46034 21.303 1.1998 21.2132 0.93481 21.2294C0.669821 21.2455 0.422092 21.3662 0.246121 21.565C0.0701502 21.7638 -0.0196487 22.0243 -0.00352057 22.2893C0.0126076 22.5543 0.133342 22.802 0.332121 22.978C1.12999 23.663 2.15701 24.0216 3.20786 23.9821C4.2587 23.9426 5.25592 23.508 6.00012 22.765C6.80459 23.5438 7.88041 23.9793 9.00012 23.9793C10.1198 23.9793 11.1957 23.5438 12.0001 22.765C12.8045 23.5441 13.8803 23.9797 15.0001 23.9797C16.1199 23.9797 17.1958 23.5441 18.0001 22.765C18.7442 23.5081 19.7413 23.943 20.7922 23.9826C21.843 24.0223 22.8701 23.6639 23.6681 22.979C23.7661 22.8912 23.8458 22.785 23.9027 22.6664C23.9595 22.5478 23.9924 22.4191 23.9995 22.2878C24.0066 22.1564 23.9876 22.025 23.9438 21.9009C23.9 21.7769 23.8321 21.6628 23.7441 21.565Z" fill="#FDE8FF"/>
</g>
<defs>
<clipPath id="clip0_395_5679">
<rect width="24" height="24" fill="white"/>
</clipPath>
</defs>
</svg>
