<svg width="24" height="24" viewBox="0 0 24 24" fill="none" xmlns="http://www.w3.org/2000/svg">
<g clip-path="url(#clip0_395_5680)">
<path d="M19.9999 0.0102315C16.1879 0.0102315 11.8749 2.04823 8.46089 5.46123C5.02759 8.86506 2.26672 12.8856 0.322888 17.3122C0.00505099 18.0475 -0.0837577 18.8615 0.0680517 19.648C0.219861 20.4346 0.605237 21.1571 1.17389 21.7212L2.27989 22.8262C2.84299 23.3936 3.56384 23.7783 4.34861 23.9302C5.13337 24.0822 5.94571 23.9944 6.67989 23.6782C11.1092 21.7372 15.1313 18.9757 18.5339 15.5392C21.9519 12.1262 23.9899 7.81323 23.9899 4.00023C24.0461 3.46244 23.9816 2.91888 23.8009 2.40923C23.6203 1.89957 23.3281 1.43668 22.9458 1.05433C22.5634 0.671981 22.1005 0.379829 21.5909 0.199195C21.0812 0.0185602 20.5377 -0.045998 19.9999 0.0102315V0.0102315ZM17.1249 14.1252C13.9028 17.3812 10.0943 19.9989 5.89989 21.8402C5.56638 21.9768 5.20223 22.0211 4.84572 21.9683C4.4892 21.9155 4.1535 21.7676 3.87389 21.5402L16.7069 8.70723C16.8024 8.61498 16.8786 8.50464 16.931 8.38264C16.9834 8.26063 17.011 8.12941 17.0121 7.99663C17.0133 7.86385 16.988 7.73217 16.9377 7.60928C16.8874 7.48638 16.8132 7.37473 16.7193 7.28084C16.6254 7.18694 16.5137 7.11269 16.3908 7.06241C16.2679 7.01213 16.1363 6.98683 16.0035 6.98798C15.8707 6.98913 15.7395 7.01672 15.6175 7.06913C15.4955 7.12154 15.3851 7.19772 15.2929 7.29323L2.45689 20.1292C2.22923 19.8494 2.08121 19.5133 2.02842 19.1564C1.97563 18.7995 2.02 18.435 2.15689 18.1012C4.00098 13.9073 6.6194 10.0988 9.87489 6.87523C13.4629 3.28823 17.4579 2.01023 19.9999 2.01023C21.4509 2.01023 21.9899 2.54923 21.9899 4.00023C21.9899 6.54323 20.7119 10.5382 17.1249 14.1252V14.1252Z" fill="#FDE8FF"/>
</g>
<defs>
<clipPath id="clip0_395_5680">
<rect width="24" height="24" fill="white"/>
</clipPath>
</defs>
</svg>
