<svg width="24" height="24" viewBox="0 0 24 24" fill="none" xmlns="http://www.w3.org/2000/svg">
<g clip-path="url(#clip0_395_5683)">
<path d="M17.0002 0H7.00024C5.67465 0.00158786 4.4038 0.528882 3.46646 1.46622C2.52913 2.40356 2.00183 3.6744 2.00024 5V19C2.00183 20.3256 2.52913 21.5964 3.46646 22.5338C4.4038 23.4711 5.67465 23.9984 7.00024 24H17.0002C18.3258 23.9984 19.5967 23.4711 20.534 22.5338C21.4714 21.5964 21.9987 20.3256 22.0002 19V5C21.9987 3.6744 21.4714 2.40356 20.534 1.46622C19.5967 0.528882 18.3258 0.00158786 17.0002 0V0ZM7.00024 2H17.0002C17.7959 2 18.559 2.31607 19.1216 2.87868C19.6842 3.44129 20.0002 4.20435 20.0002 5V17H4.00024V5C4.00024 4.20435 4.31631 3.44129 4.87892 2.87868C5.44153 2.31607 6.20459 2 7.00024 2V2ZM17.0002 22H7.00024C6.20459 22 5.44153 21.6839 4.87892 21.1213C4.31631 20.5587 4.00024 19.7956 4.00024 19H11.0002V20C11.0002 20.2652 11.1056 20.5196 11.2931 20.7071C11.4807 20.8946 11.735 21 12.0002 21C12.2655 21 12.5198 20.8946 12.7074 20.7071C12.8949 20.5196 13.0002 20.2652 13.0002 20V19H20.0002C20.0002 19.7956 19.6842 20.5587 19.1216 21.1213C18.559 21.6839 17.7959 22 17.0002 22Z" fill="#FDE8FF"/>
</g>
<defs>
<clipPath id="clip0_395_5683">
<rect width="24" height="24" fill="white"/>
</clipPath>
</defs>
</svg>
