<svg width="24" height="24" viewBox="0 0 24 24" fill="none" xmlns="http://www.w3.org/2000/svg">
<g clip-path="url(#clip0_395_5686)">
<path d="M20.485 3.5159C18.8072 1.83963 16.67 0.698428 14.3437 0.236545C12.0174 -0.225338 9.60639 0.0128371 7.41542 0.920964C5.22446 1.82909 3.35191 3.3664 2.03449 5.33856C0.717069 7.31072 0.013916 9.62919 0.013916 12.0009C0.013916 14.3726 0.717069 16.6911 2.03449 18.6632C3.35191 20.6354 5.22446 22.1727 7.41542 23.0808C9.60639 23.989 12.0174 24.2271 14.3437 23.7653C16.67 23.3034 18.8072 22.1622 20.485 20.4859C22.7321 18.2338 23.9941 15.1823 23.9941 12.0009C23.9941 8.8195 22.7321 5.768 20.485 3.5159V3.5159ZM21.934 10.9329C20.7348 11.0784 19.5183 10.9491 18.3764 10.555C17.2346 10.1609 16.1973 9.51215 15.3432 8.65794C14.4891 7.80373 13.8405 6.76643 13.4465 5.62453C13.0525 4.48263 12.9234 3.26606 13.069 2.0669C15.3387 2.30553 17.4577 3.31633 19.0714 4.93021C20.6851 6.54408 21.6956 8.66315 21.934 10.9329V10.9329ZM2.06599 13.0689C3.26516 12.9234 4.48172 13.0527 5.62357 13.4468C6.76543 13.8409 7.80266 14.4897 8.65677 15.3439C9.51089 16.1981 10.1595 17.2354 10.5535 18.3773C10.9475 19.5192 11.0766 20.7357 10.931 21.9349C8.66126 21.6963 6.54231 20.6855 4.92862 19.0716C3.31493 17.4577 2.30437 15.3387 2.06599 13.0689V13.0689ZM19.071 19.0689C17.4281 20.7154 15.2601 21.7341 12.944 21.9479C13.0875 20.4812 12.9041 19.0009 12.407 17.6135C11.9098 16.2262 11.1114 14.9663 10.069 13.9245C9.02663 12.8827 7.76628 12.0849 6.37866 11.5885C4.99103 11.0922 3.51064 10.9096 2.04399 11.0539C2.2615 8.73819 3.28108 6.5712 4.92657 4.92736C6.57205 3.28352 8.74006 2.2661 11.056 2.0509C10.9215 3.43746 11.0786 4.83681 11.5172 6.15902C11.9558 7.48123 12.6662 8.69704 13.6028 9.72831C14.5393 10.7596 15.6812 11.5835 16.9552 12.1471C18.2291 12.7107 19.6069 13.0015 21 13.0009C21.317 13.0009 21.635 12.9849 21.953 12.9549C21.7358 15.2678 20.7162 17.4318 19.071 19.0719V19.0689Z" fill="#FDE8FF"/>
</g>
<defs>
<clipPath id="clip0_395_5686">
<rect width="24" height="24" fill="white"/>
</clipPath>
</defs>
</svg>
