<svg width="24" height="24" viewBox="0 0 24 24" fill="none" xmlns="http://www.w3.org/2000/svg">
<g clip-path="url(#clip0_395_5690)">
<path d="M11.107 14.4471C11.1651 14.5656 11.2461 14.6715 11.3452 14.7586C11.4444 14.8456 11.5598 14.9122 11.6849 14.9545C11.8099 14.9967 11.9421 15.0138 12.0737 15.0047C12.2054 14.9957 12.334 14.9606 12.452 14.9016C12.5701 14.8426 12.6753 14.7608 12.7616 14.661C12.8479 14.5611 12.9136 14.4452 12.9549 14.3198C12.9961 14.1945 13.0122 14.0622 13.0021 13.9306C12.992 13.799 12.9559 13.6707 12.896 13.5531L7.39603 2.55312C7.31299 2.38697 7.18532 2.24724 7.02733 2.14958C6.86934 2.05191 6.68727 2.00018 6.50153 2.00018C6.31579 2.00018 6.13372 2.05191 5.97573 2.14958C5.81774 2.24724 5.69007 2.38697 5.60703 2.55312L0.107031 13.5531C0.0471169 13.6707 0.0110728 13.799 0.000977042 13.9306C-0.00911871 14.0622 0.00693358 14.1945 0.0482084 14.3198C0.0894832 14.4452 0.155164 14.5611 0.241464 14.661C0.327764 14.7608 0.432976 14.8426 0.551033 14.9016C0.669091 14.9606 0.797659 14.9957 0.929325 15.0047C1.06099 15.0138 1.19315 14.9967 1.31818 14.9545C1.44321 14.9122 1.55865 14.8456 1.65782 14.7586C1.757 14.6715 1.83796 14.5656 1.89603 14.4471L3.61903 11.0001H9.38303L11.107 14.4471ZM4.61903 9.00012L6.50003 5.23612L8.38303 9.00012H4.61903Z" fill="#FDE8FF"/>
<path d="M23.7068 11.2924C23.5193 11.1049 23.265 10.9996 22.9998 10.9996C22.7347 10.9996 22.4804 11.1049 22.2928 11.2924L12.9998 20.5853L8.70684 16.2924C8.61459 16.1968 8.50425 16.1207 8.38224 16.0683C8.26024 16.0158 8.12902 15.9883 7.99624 15.9871C7.86346 15.9859 7.73178 16.0112 7.60888 16.0615C7.48599 16.1118 7.37433 16.1861 7.28044 16.28C7.18655 16.3739 7.1123 16.4855 7.06202 16.6084C7.01173 16.7313 6.98643 16.863 6.98759 16.9958C6.98874 17.1285 7.01633 17.2598 7.06874 17.3818C7.12114 17.5038 7.19733 17.6141 7.29284 17.7064L12.2928 22.7063C12.4804 22.8938 12.7347 22.9991 12.9998 22.9991C13.265 22.9991 13.5193 22.8938 13.7068 22.7063L23.7068 12.7064C23.8943 12.5188 23.9996 12.2645 23.9996 11.9994C23.9996 11.7342 23.8943 11.4799 23.7068 11.2924Z" fill="#FDE8FF"/>
</g>
<defs>
<clipPath id="clip0_395_5690">
<rect width="24" height="24" fill="white"/>
</clipPath>
</defs>
</svg>
