<svg width="24" height="24" viewBox="0 0 24 24" fill="none" xmlns="http://www.w3.org/2000/svg">
<g clip-path="url(#clip0_395_5697)">
<path d="M23.0002 18.0006H20.0002V15.0006C20.0002 14.7354 19.8949 14.481 19.7074 14.2935C19.5198 14.106 19.2655 14.0006 19.0002 14.0006C18.735 14.0006 18.4807 14.106 18.2931 14.2935C18.1056 14.481 18.0002 14.7354 18.0002 15.0006V18.0006H15.0002C14.735 18.0006 14.4807 18.106 14.2931 18.2935C14.1056 18.481 14.0002 18.7354 14.0002 19.0006C14.0002 19.2658 14.1056 19.5202 14.2931 19.7077C14.4807 19.8953 14.735 20.0006 15.0002 20.0006H18.0002V23.0006C18.0002 23.2658 18.1056 23.5202 18.2931 23.7077C18.4807 23.8953 18.735 24.0006 19.0002 24.0006C19.2655 24.0006 19.5198 23.8953 19.7074 23.7077C19.8949 23.5202 20.0002 23.2658 20.0002 23.0006V20.0006H23.0002C23.2655 20.0006 23.5198 19.8953 23.7074 19.7077C23.8949 19.5202 24.0002 19.2658 24.0002 19.0006C24.0002 18.7354 23.8949 18.481 23.7074 18.2935C23.5198 18.106 23.2655 18.0006 23.0002 18.0006Z" fill="#FDE8FF"/>
<path d="M11.0001 7V11.586L8.29308 14.293C8.19757 14.3852 8.12139 14.4956 8.06898 14.6176C8.01657 14.7396 7.98898 14.8708 7.98783 15.0036C7.98668 15.1364 8.01198 15.268 8.06226 15.3909C8.11254 15.5138 8.18679 15.6255 8.28069 15.7194C8.37458 15.8133 8.48623 15.8875 8.60913 15.9378C8.73202 15.9881 8.8637 16.0134 8.99648 16.0122C9.12926 16.0111 9.26048 15.9835 9.38248 15.9311C9.50449 15.8787 9.61483 15.8025 9.70708 15.707L12.7071 12.707C12.8946 12.5195 13 12.2652 13.0001 12V7C13.0001 6.73478 12.8947 6.48043 12.7072 6.29289C12.5196 6.10536 12.2653 6 12.0001 6C11.7349 6 11.4805 6.10536 11.293 6.29289C11.1054 6.48043 11.0001 6.73478 11.0001 7V7Z" fill="#FDE8FF"/>
<path d="M14.7279 21.6244C12.6014 22.2237 10.3361 22.1008 8.28689 21.2749C6.23767 20.4491 4.52023 18.9668 3.40355 17.0604C2.28687 15.154 1.83402 12.9311 2.11593 10.7397C2.39783 8.54841 3.39857 6.51246 4.96141 4.95076C6.52425 3.38905 8.56092 2.38979 10.7525 2.10947C12.944 1.82916 15.1666 2.28362 17.0722 3.40168C18.9778 4.51973 20.4588 6.23825 21.2832 8.28807C22.1076 10.3379 22.2288 12.6033 21.6279 14.7294C21.5873 14.8572 21.5727 14.9919 21.5852 15.1254C21.5977 15.259 21.6369 15.3887 21.7005 15.5067C21.7641 15.6248 21.8508 15.7289 21.9555 15.8128C22.0601 15.8967 22.1806 15.9587 22.3097 15.995C22.4388 16.0314 22.5739 16.0414 22.707 16.0245C22.8401 16.0076 22.9683 15.9641 23.0842 15.8966C23.2001 15.829 23.3013 15.7389 23.3816 15.6315C23.462 15.5241 23.5199 15.4016 23.5519 15.2714C24.2733 12.7181 24.1274 9.99774 23.1371 7.53632C22.1467 5.0749 20.3679 3.01153 18.0792 1.66944C15.7904 0.327355 13.1212 -0.217627 10.4896 0.119872C7.85794 0.457372 5.4126 1.65829 3.53663 3.53448C1.66066 5.41068 0.460044 7.85616 0.122862 10.4878C-0.21432 13.1195 0.330985 15.7887 1.67335 18.0772C3.01571 20.3658 5.0793 22.1444 7.54084 23.1345C10.0024 24.1245 12.7228 24.2701 15.2759 23.5484C15.4051 23.5152 15.5263 23.4565 15.6324 23.3757C15.7385 23.295 15.8274 23.1939 15.8939 23.0783C15.9603 22.9627 16.003 22.835 16.0194 22.7027C16.0357 22.5703 16.0255 22.4361 15.9892 22.3078C15.9529 22.1795 15.8914 22.0597 15.8081 21.9555C15.7249 21.8514 15.6217 21.7649 15.5045 21.7013C15.3874 21.6376 15.2587 21.598 15.126 21.5848C14.9933 21.5716 14.8593 21.585 14.7319 21.6244H14.7279Z" fill="#FDE8FF"/>
</g>
<defs>
<clipPath id="clip0_395_5697">
<rect width="24" height="24" fill="white"/>
</clipPath>
</defs>
</svg>
