<svg width="24" height="24" viewBox="0 0 24 24" fill="none" xmlns="http://www.w3.org/2000/svg">
<g clip-path="url(#clip0_395_5709)">
<path d="M14.6 21.3002C14.3 21.5262 13.981 21.7642 13.71 22.0002H16C16.2653 22.0002 16.5196 22.1056 16.7072 22.2931C16.8947 22.4807 17 22.735 17 23.0002C17 23.2654 16.8947 23.5198 16.7072 23.7073C16.5196 23.8949 16.2653 24.0002 16 24.0002H12C11.7348 24.0002 11.4805 23.8949 11.2929 23.7073C11.1054 23.5198 11 23.2654 11 23.0002C11 21.5002 12.275 20.5442 13.4 19.7002C14.15 19.1382 15 18.5002 15 18.0002C15 17.735 14.8947 17.4807 14.7072 17.2931C14.5196 17.1056 14.2653 17.0002 14 17.0002C13.7348 17.0002 13.4805 17.1056 13.2929 17.2931C13.1054 17.4807 13 17.735 13 18.0002C13 18.2654 12.8947 18.5198 12.7072 18.7073C12.5196 18.8949 12.2653 19.0002 12 19.0002C11.7348 19.0002 11.4805 18.8949 11.2929 18.7073C11.1054 18.5198 11 18.2654 11 18.0002C11 17.2046 11.3161 16.4415 11.8787 15.8789C12.4413 15.3163 13.2044 15.0002 14 15.0002C14.7957 15.0002 15.5588 15.3163 16.1214 15.8789C16.684 16.4415 17 17.2046 17 18.0002C17 19.5002 15.725 20.4562 14.6 21.3002ZM23 15.0002C22.7348 15.0002 22.4805 15.1056 22.2929 15.2931C22.1054 15.4807 22 15.735 22 16.0002V19.0002H21C20.7348 19.0002 20.4805 18.8949 20.2929 18.7073C20.1054 18.5198 20 18.2654 20 18.0002V16.0002C20 15.735 19.8947 15.4807 19.7072 15.2931C19.5196 15.1056 19.2653 15.0002 19 15.0002C18.7348 15.0002 18.4805 15.1056 18.2929 15.2931C18.1054 15.4807 18 15.735 18 16.0002V18.0002C18 18.7959 18.3161 19.5589 18.8787 20.1216C19.4413 20.6842 20.2044 21.0002 21 21.0002H22V23.0002C22 23.2654 22.1054 23.5198 22.2929 23.7073C22.4805 23.8949 22.7348 24.0002 23 24.0002C23.2653 24.0002 23.5196 23.8949 23.7072 23.7073C23.8947 23.5198 24 23.2654 24 23.0002V16.0002C24 15.735 23.8947 15.4807 23.7072 15.2931C23.5196 15.1056 23.2653 15.0002 23 15.0002ZM13 12.0002V7.00023C13 6.73502 12.8947 6.48066 12.7072 6.29313C12.5196 6.10559 12.2653 6.00023 12 6.00023C11.7348 6.00023 11.4805 6.10559 11.2929 6.29313C11.1054 6.48066 11 6.73502 11 7.00023V11.0002H8.00005C7.73483 11.0002 7.48048 11.1056 7.29294 11.2931C7.1054 11.4807 7.00005 11.735 7.00005 12.0002C7.00005 12.2654 7.1054 12.5198 7.29294 12.7073C7.48048 12.8949 7.73483 13.0002 8.00005 13.0002H12C12.2653 13.0002 12.5196 12.8949 12.7072 12.7073C12.8947 12.5198 13 12.2654 13 12.0002ZM23 2.00023C22.7348 2.00023 22.4805 2.10559 22.2929 2.29312C22.1054 2.48066 22 2.73502 22 3.00023V5.37423C20.9581 3.80181 19.5602 2.49715 17.9196 1.56613C16.2791 0.635116 14.4422 0.103956 12.558 0.0157521C10.6737 -0.072452 8.79521 0.284784 7.07488 1.05848C5.35454 1.83217 3.84083 3.00052 2.65656 4.46874C1.4723 5.93695 0.650831 7.66367 0.25882 9.50879C-0.133191 11.3539 -0.0847046 13.2655 0.400345 15.0883C0.885395 16.9112 1.79334 18.5941 3.05052 20.0004C4.3077 21.4066 5.8787 22.4968 7.63605 23.1822C7.75218 23.227 7.87557 23.2501 8.00005 23.2502C8.23341 23.2506 8.45954 23.1693 8.6393 23.0205C8.81905 22.8717 8.9411 22.6647 8.9843 22.4354C9.02751 22.2061 8.98915 21.9688 8.87588 21.7648C8.7626 21.5608 8.58154 21.4028 8.36405 21.3182C6.87207 20.7413 5.54027 19.8149 4.48043 18.6167C3.42059 17.4186 2.66366 15.9837 2.27316 14.4324C1.88265 12.8812 1.86999 11.2589 2.23622 9.70177C2.60245 8.14463 3.33689 6.69806 4.37789 5.4835C5.41889 4.26895 6.73607 3.32185 8.21886 2.72171C9.70164 2.12156 11.3068 1.88589 12.8995 2.03448C14.4922 2.18306 16.026 2.71157 17.3722 3.57562C18.7184 4.43968 19.8377 5.61408 20.636 7.00023H18C17.7348 7.00023 17.4805 7.10559 17.2929 7.29313C17.1054 7.48066 17 7.73502 17 8.00023C17 8.26545 17.1054 8.5198 17.2929 8.70734C17.4805 8.89487 17.7348 9.00023 18 9.00023H21C21.7957 9.00023 22.5588 8.68416 23.1214 8.12155C23.684 7.55894 24 6.79588 24 6.00023V3.00023C24 2.73502 23.8947 2.48066 23.7072 2.29312C23.5196 2.10559 23.2653 2.00023 23 2.00023V2.00023Z" fill="#FDE8FF"/>
</g>
<defs>
<clipPath id="clip0_395_5709">
<rect width="24" height="24" fill="white"/>
</clipPath>
</defs>
</svg>
