<svg width="24" height="24" viewBox="0 0 24 24" fill="none" xmlns="http://www.w3.org/2000/svg">
<g clip-path="url(#clip0_395_5701)">
<path d="M14 18.0002C13.6594 18.0002 13.3213 18.058 13 18.1712V18.0002C13 17.735 13.1054 17.4807 13.2929 17.2931C13.4805 17.1056 13.7348 17.0002 14 17.0002C14.1421 16.9993 14.2827 17.0291 14.4122 17.0876C14.5416 17.1462 14.6569 17.232 14.75 17.3392C14.8358 17.4414 14.9411 17.5253 15.0597 17.5862C15.1784 17.647 15.308 17.6835 15.441 17.6935C15.574 17.7035 15.7076 17.6868 15.834 17.6444C15.9604 17.6019 16.0771 17.5347 16.1771 17.4465C16.2772 17.3583 16.3586 17.251 16.4165 17.131C16.4745 17.0109 16.5079 16.8804 16.5147 16.7472C16.5215 16.614 16.5015 16.4809 16.4561 16.3555C16.4107 16.2301 16.3406 16.1151 16.25 16.0172C15.8471 15.5603 15.3145 15.2369 14.7232 15.09C14.1319 14.9431 13.51 14.9798 12.94 15.1951C12.3701 15.4103 11.8792 15.7941 11.5326 16.2952C11.1861 16.7963 11.0003 17.391 11 18.0002V21.0002C11.0003 21.6516 11.2124 22.2851 11.6045 22.8052C11.9966 23.3253 12.5474 23.7037 13.1735 23.8831C13.7996 24.0626 14.4671 24.0334 15.0752 23.8C15.6833 23.5665 16.1988 23.1416 16.544 22.5892C16.8225 22.1409 16.98 21.628 17.0012 21.1007C17.0224 20.5733 16.9066 20.0495 16.665 19.5802C16.4118 19.095 16.0282 18.6901 15.5574 18.411C15.0866 18.1319 14.5473 17.9896 14 18.0002V18.0002ZM14.849 21.5292C14.757 21.677 14.6279 21.7981 14.4746 21.8807C14.3214 21.9632 14.1492 22.0043 13.9752 21.9999C13.8011 21.9955 13.6313 21.9458 13.4824 21.8556C13.3334 21.7654 13.2107 21.6379 13.1262 21.4857C13.0416 21.3335 12.9983 21.1619 13.0005 20.9878C13.0027 20.8137 13.0502 20.6432 13.1385 20.4932C13.2268 20.3431 13.3527 20.2187 13.5038 20.1323C13.6549 20.0458 13.826 20.0003 14 20.0002C14.172 19.9908 14.3433 20.0282 14.4958 20.1083C14.6483 20.1884 14.7762 20.3083 14.866 20.4552C14.9583 20.6198 15.0054 20.8059 15.0024 20.9945C14.9994 21.1832 14.9465 21.3677 14.849 21.5292V21.5292ZM21 15.0002C20.2044 15.0002 19.4413 15.3163 18.8787 15.8789C18.3161 16.4415 18 17.2046 18 18.0002V21.0002C18 21.7959 18.3161 22.5589 18.8787 23.1216C19.4413 23.6842 20.2044 24.0002 21 24.0002C21.7957 24.0002 22.5588 23.6842 23.1214 23.1216C23.684 22.5589 24 21.7959 24 21.0002V18.0002C24 17.2046 23.684 16.4415 23.1214 15.8789C22.5588 15.3163 21.7957 15.0002 21 15.0002ZM22 21.0002C22 21.2654 21.8947 21.5198 21.7072 21.7073C21.5196 21.8949 21.2653 22.0002 21 22.0002C20.7348 22.0002 20.4805 21.8949 20.2929 21.7073C20.1054 21.5198 20 21.2654 20 21.0002V18.0002C20 17.735 20.1054 17.4807 20.2929 17.2931C20.4805 17.1056 20.7348 17.0002 21 17.0002C21.2653 17.0002 21.5196 17.1056 21.7072 17.2931C21.8947 17.4807 22 17.735 22 18.0002V21.0002ZM12 13.0002H8.00005C7.73483 13.0002 7.48048 12.8949 7.29294 12.7073C7.1054 12.5198 7.00005 12.2654 7.00005 12.0002C7.00005 11.735 7.1054 11.4807 7.29294 11.2931C7.48048 11.1056 7.73483 11.0002 8.00005 11.0002H11V7.00023C11 6.73502 11.1054 6.48066 11.2929 6.29313C11.4805 6.10559 11.7348 6.00023 12 6.00023C12.2653 6.00023 12.5196 6.10559 12.7072 6.29313C12.8947 6.48066 13 6.73502 13 7.00023V12.0002C13 12.2654 12.8947 12.5198 12.7072 12.7073C12.5196 12.8949 12.2653 13.0002 12 13.0002ZM24 3.00023V6.00023C24 6.79588 23.684 7.55894 23.1214 8.12155C22.5588 8.68416 21.7957 9.00023 21 9.00023H18C17.7348 9.00023 17.4805 8.89487 17.2929 8.70734C17.1054 8.5198 17 8.26545 17 8.00023C17 7.73502 17.1054 7.48066 17.2929 7.29313C17.4805 7.10559 17.7348 7.00023 18 7.00023H20.637C19.8369 5.61936 18.7176 4.45027 17.3728 3.59083C16.028 2.73138 14.4969 2.20659 12.9077 2.0604C11.3185 1.9142 9.71733 2.15085 8.23833 2.75054C6.75933 3.35022 5.44552 4.29549 4.40687 5.5072C3.36822 6.71892 2.63496 8.16183 2.26847 9.71513C1.90199 11.2684 1.91295 12.8869 2.30043 14.4351C2.68791 15.9833 3.44064 17.4162 4.49561 18.6137C5.55057 19.8112 6.87707 20.7386 8.36405 21.3182C8.61123 21.4148 8.80994 21.6055 8.91646 21.8486C9.02298 22.0916 9.02859 22.3671 8.93205 22.6142C8.83551 22.8614 8.64473 23.0601 8.40168 23.1666C8.15864 23.2732 7.88323 23.2788 7.63605 23.1822C5.8787 22.4968 4.3077 21.4066 3.05052 20.0004C1.79334 18.5941 0.885395 16.9112 0.400345 15.0883C-0.0847046 13.2655 -0.133191 11.3539 0.25882 9.50879C0.650831 7.66367 1.4723 5.93695 2.65656 4.46874C3.84083 3.00052 5.35454 1.83217 7.07488 1.05848C8.79521 0.284784 10.6737 -0.072452 12.558 0.0157521C14.4422 0.103956 16.2791 0.635116 17.9196 1.56613C19.5602 2.49715 20.9581 3.80181 22 5.37423V3.00023C22 2.73502 22.1054 2.48066 22.2929 2.29312C22.4805 2.10559 22.7348 2.00023 23 2.00023C23.2653 2.00023 23.5196 2.10559 23.7072 2.29312C23.8947 2.48066 24 2.73502 24 3.00023V3.00023Z" fill="#FDE8FF"/>
</g>
<defs>
<clipPath id="clip0_395_5701">
<rect width="24" height="24" fill="white"/>
</clipPath>
</defs>
</svg>
