<svg width="24" height="24" viewBox="0 0 24 24" fill="none" xmlns="http://www.w3.org/2000/svg">
<path d="M20.4402 16.8543L18.9592 14.6333C19.2018 14.4724 19.4102 14.2652 19.5726 14.0237C19.735 13.7822 19.8482 13.511 19.9057 13.2256C19.9632 12.9403 19.9639 12.6464 19.9077 12.3609C19.8515 12.0753 19.7395 11.8036 19.5782 11.5613L17.4872 8.42629C17.6703 8.25957 17.8244 8.06356 17.9432 7.84629C18.1333 7.49742 18.2258 7.10377 18.211 6.70676C18.1962 6.30975 18.0747 5.92406 17.8592 5.59029C17.8343 5.5525 17.8072 5.51611 17.7782 5.48129L13.6782 0.6993C13.4533 0.476424 13.1861 0.300686 12.8923 0.182383C12.5986 0.0640791 12.2842 0.00558887 11.9675 0.0103385C11.6509 0.0150882 11.3384 0.0829822 11.0483 0.210043C10.7582 0.337104 10.4964 0.520776 10.2782 0.750299L6.20623 5.47729C6.17664 5.51092 6.14956 5.54669 6.12523 5.58429C5.83776 6.02697 5.71806 6.55785 5.78775 7.08105C5.85744 7.60425 6.11192 8.08529 6.50523 8.43729L4.42223 11.5613C4.26092 11.8036 4.14896 12.0753 4.09276 12.3609C4.03657 12.6464 4.03723 12.9403 4.09473 13.2256C4.15222 13.511 4.26541 13.7822 4.42782 14.0237C4.59023 14.2652 4.79868 14.4724 5.04123 14.6333L3.56023 16.8543C3.22793 17.3525 3.03708 17.9316 3.00804 18.5298C2.979 19.128 3.11286 19.7229 3.39533 20.251C3.67781 20.7791 4.09831 21.2206 4.61201 21.5285C5.1257 21.8364 5.71333 21.9991 6.31223 21.9993H11.0002V22.9993C11.0002 23.2645 11.1056 23.5188 11.2931 23.7064C11.4807 23.8939 11.735 23.9993 12.0002 23.9993C12.2654 23.9993 12.5198 23.8939 12.7073 23.7064C12.8949 23.5188 13.0002 23.2645 13.0002 22.9993V21.9993H17.6872C18.2862 21.9993 18.874 21.8367 19.3878 21.5289C19.9016 21.2211 20.3223 20.7796 20.6049 20.2514C20.8875 19.7233 21.0214 19.1284 20.9924 18.5301C20.9634 17.9318 20.7726 17.3526 20.4402 16.8543V16.8543ZM18.8402 19.3083C18.7299 19.5182 18.564 19.6937 18.3607 19.8155C18.1573 19.9374 17.9243 20.001 17.6872 19.9993H6.31223C6.07541 19.9991 5.8431 19.9346 5.64002 19.8128C5.43695 19.6909 5.27073 19.5163 5.15908 19.3075C5.04742 19.0986 4.99451 18.8634 5.00599 18.6269C5.01746 18.3903 5.09289 18.1613 5.22423 17.9643L7.50023 14.5543C7.6008 14.4035 7.65852 14.2283 7.66723 14.0473C7.67593 13.8663 7.63528 13.6863 7.54963 13.5266C7.46398 13.3669 7.33655 13.2335 7.18095 13.1406C7.02535 13.0478 6.84744 12.9989 6.66623 12.9993H6.26123C6.22284 13.0006 6.18489 12.9908 6.1519 12.9711C6.11892 12.9515 6.0923 12.9227 6.07523 12.8883C6.05595 12.8549 6.04674 12.8167 6.04869 12.7782C6.05064 12.7397 6.06368 12.7025 6.08623 12.6713L8.83123 8.55429C8.93022 8.40275 8.98622 8.22719 8.99326 8.04632C9.00031 7.86546 8.95813 7.68607 8.87123 7.52729C8.78354 7.36739 8.65448 7.23401 8.49754 7.14112C8.34061 7.04823 8.16159 6.99924 7.97923 6.99929C7.94095 7.0007 7.90307 6.99108 7.87009 6.97158C7.83712 6.95207 7.81044 6.92351 7.79323 6.88929C7.77775 6.8625 7.7687 6.83247 7.76679 6.80159C7.76488 6.7707 7.77017 6.73979 7.78223 6.71129L11.7442 2.1113C11.771 2.07706 11.8044 2.04851 11.8423 2.02732C11.8803 2.00613 11.9221 1.99272 11.9653 1.98788C12.0085 1.98304 12.0523 1.98686 12.094 1.99912C12.1357 2.01139 12.1745 2.03184 12.2082 2.0593L16.2002 6.71229C16.2123 6.74079 16.2176 6.7717 16.2157 6.80259C16.2138 6.83347 16.2047 6.8635 16.1892 6.89029C16.1717 6.92481 16.1445 6.95348 16.1109 6.97283C16.0773 6.99218 16.0389 7.00137 16.0002 6.99929C15.8192 6.99927 15.6415 7.04839 15.4862 7.14142C15.3309 7.23445 15.2038 7.3679 15.1184 7.52753C15.0329 7.68716 14.9925 7.86698 15.0013 8.04781C15.01 8.22864 15.0677 8.40369 15.1682 8.55429L17.9132 12.6713C17.9358 12.7025 17.9488 12.7397 17.9508 12.7782C17.9527 12.8167 17.9435 12.8549 17.9242 12.8883C17.9072 12.9227 17.8805 12.9515 17.8476 12.9711C17.8146 12.9908 17.7766 13.0006 17.7382 12.9993H17.3332C17.1522 12.9993 16.9745 13.0484 16.8192 13.1414C16.6639 13.2344 16.5368 13.3679 16.4514 13.5275C16.3659 13.6871 16.3255 13.867 16.3343 14.0478C16.343 14.2286 16.4007 14.4037 16.5012 14.5543L18.7752 17.9643C18.9089 18.1605 18.9859 18.3898 18.9975 18.627C19.0092 18.8641 18.9551 19.0999 18.8412 19.3083H18.8402Z" fill="#FDE8FF"/>
<path d="M9.00024 17.9994C9.55253 17.9994 10.0002 17.5517 10.0002 16.9994C10.0002 16.4471 9.55253 15.9994 9.00024 15.9994C8.44796 15.9994 8.00024 16.4471 8.00024 16.9994C8.00024 17.5517 8.44796 17.9994 9.00024 17.9994Z" fill="#FDE8FF"/>
<path d="M13.9998 17.9994C14.552 17.9994 14.9998 17.5517 14.9998 16.9994C14.9998 16.4471 14.552 15.9994 13.9998 15.9994C13.4475 15.9994 12.9998 16.4471 12.9998 16.9994C12.9998 17.5517 13.4475 17.9994 13.9998 17.9994Z" fill="#FDE8FF"/>
<path d="M10.9998 14C11.552 14 11.9998 13.5523 11.9998 13C11.9998 12.4477 11.552 12 10.9998 12C10.4475 12 9.99976 12.4477 9.99976 13C9.99976 13.5523 10.4475 14 10.9998 14Z" fill="#FDE8FF"/>
<path d="M13 11C13.5523 11 14 10.5523 14 10C14 9.44771 13.5523 9 13 9C12.4477 9 12 9.44771 12 10C12 10.5523 12.4477 11 13 11Z" fill="#FDE8FF"/>
<path d="M10.9998 8C11.552 8 11.9998 7.55228 11.9998 7C11.9998 6.44771 11.552 6 10.9998 6C10.4475 6 9.99976 6.44771 9.99976 7C9.99976 7.55228 10.4475 8 10.9998 8Z" fill="#FDE8FF"/>
</svg>
