<svg width="24" height="24" viewBox="0 0 24 24" fill="none" xmlns="http://www.w3.org/2000/svg">
<g clip-path="url(#clip0_395_5721)">
<path d="M19.9478 24.0002H4.05183C3.36078 24.0042 2.68031 23.8304 2.07579 23.4956C1.47127 23.1608 0.963007 22.6761 0.599828 22.0882C0.241139 21.5143 0.0360083 20.8579 0.00413658 20.182C-0.0277351 19.506 0.114722 18.8332 0.417828 18.2282L8.37983 4.21217C8.72246 3.54395 9.24336 2.9836 9.88485 2.5932C10.5263 2.2028 11.2634 1.99758 12.0143 2.00027C12.7652 2.00296 13.5008 2.21346 14.1395 2.60845C14.7781 3.00344 15.295 3.56751 15.6328 4.23817L23.5548 18.1792C23.8688 18.7887 24.0195 19.4692 23.9922 20.1542C23.9649 20.8393 23.7604 21.5056 23.3988 22.0882C23.0357 22.676 22.5276 23.1605 21.9233 23.4954C21.319 23.8302 20.6387 24.004 19.9478 24.0002V24.0002ZM11.9998 4.00017C11.6172 3.99383 11.2408 4.09667 10.9145 4.29662C10.5883 4.49658 10.3258 4.78538 10.1578 5.12917L10.1318 5.17817L2.18383 19.1672C2.04228 19.4624 1.97863 19.789 1.99894 20.1158C2.01924 20.4426 2.12282 20.7587 2.29983 21.0342C2.48459 21.3318 2.74276 21.577 3.04956 21.7462C3.35636 21.9153 3.70149 22.0028 4.05183 22.0002H19.9518C20.3022 22.0028 20.6473 21.9153 20.9541 21.7462C21.2609 21.577 21.5191 21.3318 21.7038 21.0342C21.8839 20.7501 21.9869 20.4241 22.0026 20.0881C22.0184 19.7521 21.9465 19.4179 21.7938 19.1182L13.8678 5.17817C13.7025 4.82316 13.4384 4.52328 13.1071 4.31438C12.7759 4.10548 12.3914 3.9964 11.9998 4.00017V4.00017Z" fill="#FDE8FF"/>
</g>
<defs>
<clipPath id="clip0_395_5721">
<rect width="24" height="24" fill="white"/>
</clipPath>
</defs>
</svg>
