<svg width="24" height="24" viewBox="0 0 24 24" fill="none" xmlns="http://www.w3.org/2000/svg">
<g clip-path="url(#clip0_395_5724)">
<path d="M23.7172 9.549C22.7682 7.45173 21.2726 5.64831 19.3871 4.32773C17.5016 3.00714 15.2956 2.218 13.0002 2.043V1C13.0002 0.734784 12.8949 0.48043 12.7073 0.292893C12.5198 0.105357 12.2655 0 12.0002 0C11.735 0 11.4807 0.105357 11.2931 0.292893C11.1056 0.48043 11.0002 0.734784 11.0002 1V2.043C8.70237 2.21616 6.49343 3.00439 4.60502 4.32502C2.71662 5.64566 1.21832 7.45005 0.267236 9.549C0.0281829 10.149 -0.0599033 10.7985 0.010712 11.4405C0.0813274 12.0825 0.308484 12.6973 0.672236 13.231C1.03984 13.7757 1.53551 14.2218 2.11577 14.5303C2.69602 14.8387 3.3431 15 4.00024 15H11.0002V21C11.0002 21.2652 10.8949 21.5196 10.7073 21.7071C10.5198 21.8946 10.2655 22 10.0002 22C9.73502 22 9.48067 21.8946 9.29313 21.7071C9.10559 21.5196 9.00024 21.2652 9.00024 21C9.00024 20.7348 8.89488 20.4804 8.70734 20.2929C8.51981 20.1054 8.26545 20 8.00024 20C7.73502 20 7.48067 20.1054 7.29313 20.2929C7.10559 20.4804 7.00024 20.7348 7.00024 21C7.00024 21.7956 7.31631 22.5587 7.87892 23.1213C8.44152 23.6839 9.20459 24 10.0002 24C10.7959 24 11.5589 23.6839 12.1216 23.1213C12.6842 22.5587 13.0002 21.7956 13.0002 21V15H19.9832C20.6405 15 21.2877 14.8387 21.8681 14.5303C22.4486 14.2218 22.9444 13.7757 23.3122 13.231C23.6757 12.6972 23.9028 12.0824 23.9734 11.4404C24.044 10.7985 23.956 10.149 23.7172 9.549ZM21.6562 12.11C21.4732 12.3855 21.2244 12.6112 20.9323 12.7666C20.6402 12.9219 20.3141 13.0022 19.9832 13H4.00024C3.66931 13.0021 3.34306 12.9218 3.05097 12.7662C2.75887 12.6107 2.51014 12.3848 2.32724 12.109C2.14592 11.8462 2.03272 11.5426 1.99781 11.2252C1.9629 10.9079 2.00737 10.5869 2.12724 10.291C3.58124 6.646 7.73424 4 12.0002 4C14.0739 3.99242 16.106 4.5815 17.854 5.69695C19.6021 6.81241 20.9925 8.40716 21.8592 10.291C21.9792 10.5872 22.0235 10.9086 21.988 11.2262C21.9526 11.5438 21.8385 11.8475 21.6562 12.11V12.11Z" fill="#FDE8FF"/>
</g>
<defs>
<clipPath id="clip0_395_5724">
<rect width="24" height="24" fill="white"/>
</clipPath>
</defs>
</svg>
