<svg width="24" height="24" viewBox="0 0 24 24" fill="none" xmlns="http://www.w3.org/2000/svg">
<g clip-path="url(#clip0_395_5727)">
<path d="M23.0001 23.9993C22.7349 23.9993 22.4806 23.8939 22.293 23.7064C22.1055 23.5189 22.0001 23.2645 22.0001 22.9993C21.9986 21.4085 21.3659 19.8833 20.241 18.7584C19.1162 17.6336 17.591 17.0009 16.0001 16.9993H10.1701V18.5853C10.1701 18.9808 10.0527 19.3674 9.83294 19.6962C9.61317 20.025 9.30085 20.2813 8.93545 20.4327C8.57005 20.584 8.16798 20.6236 7.78008 20.5465C7.39217 20.4693 7.03584 20.2789 6.75614 19.9993L0.877139 14.1203C0.314725 13.5577 -0.0012207 12.7948 -0.0012207 11.9993C-0.0012207 11.2038 0.314725 10.4409 0.877139 9.87832L6.75614 3.99933C7.03584 3.71971 7.39217 3.5293 7.78008 3.45216C8.16798 3.37503 8.57005 3.41464 8.93545 3.56597C9.30085 3.71731 9.61317 3.97359 9.83294 4.30241C10.0527 4.63123 10.1701 5.01783 10.1701 5.41333V6.99933H15.0001C17.3863 7.00197 19.6739 7.95103 21.3612 9.63829C23.0484 11.3255 23.9975 13.6132 24.0001 15.9993V22.9993C24.0001 23.2645 23.8948 23.5189 23.7072 23.7064C23.5197 23.8939 23.2654 23.9993 23.0001 23.9993ZM8.17014 5.41333L2.29114 11.2923C2.10367 11.4798 1.99835 11.7342 1.99835 11.9993C1.99835 12.2645 2.10367 12.5188 2.29114 12.7063L8.17014 18.5853V15.9993C8.17014 15.7341 8.2755 15.4797 8.46303 15.2922C8.65057 15.1047 8.90492 14.9993 9.17014 14.9993H16.0001C17.1357 14.999 18.2583 15.2409 19.293 15.7089C20.3277 16.1769 21.2506 16.8603 22.0001 17.7133V15.9993C21.998 14.1435 21.2598 12.3642 19.9476 11.0519C18.6353 9.73962 16.856 9.00144 15.0001 8.99932H9.17014C8.90492 8.99932 8.65057 8.89397 8.46303 8.70643C8.2755 8.51889 8.17014 8.26454 8.17014 7.99932V5.41333Z" fill="#FDE8FF"/>
</g>
<defs>
<clipPath id="clip0_395_5727">
<rect width="24" height="24" fill="white"/>
</clipPath>
</defs>
</svg>
