<svg width="24" height="24" viewBox="0 0 24 24" fill="none" xmlns="http://www.w3.org/2000/svg">
<g clip-path="url(#clip0_395_5734)">
<path d="M16.9999 23.9999C15.6154 23.9999 14.2621 23.5894 13.1109 22.8202C11.9598 22.0511 11.0626 20.9578 10.5328 19.6787C10.0029 18.3996 9.86432 16.9922 10.1344 15.6343C10.4045 14.2764 11.0712 13.0292 12.0502 12.0502C13.0291 11.0712 14.2764 10.4045 15.6343 10.1344C16.9922 9.86435 18.3996 10.003 19.6787 10.5328C20.9578 11.0626 22.051 11.9598 22.8202 13.111C23.5894 14.2621 23.9999 15.6155 23.9999 16.9999C23.9978 18.8558 23.2596 20.6351 21.9473 21.9474C20.635 23.2596 18.8558 23.9978 16.9999 23.9999V23.9999ZM16.9999 11.9999C16.011 11.9999 15.0443 12.2932 14.2221 12.8426C13.3998 13.392 12.759 14.1729 12.3805 15.0865C12.0021 16.0002 11.9031 17.0055 12.096 17.9754C12.2889 18.9453 12.7651 19.8362 13.4644 20.5355C14.1636 21.2347 15.0546 21.7109 16.0245 21.9039C16.9944 22.0968 17.9997 21.9978 18.9133 21.6193C19.827 21.2409 20.6079 20.6 21.1573 19.7778C21.7067 18.9555 21.9999 17.9888 21.9999 16.9999C21.9983 15.6743 21.471 14.4035 20.5337 13.4662C19.5964 12.5288 18.3255 12.0015 16.9999 11.9999ZM18.7069 18.7069C18.8944 18.5194 18.9997 18.2651 18.9997 17.9999C18.9997 17.7348 18.8944 17.4805 18.7069 17.2929L17.9999 16.5859V14.9999C17.9999 14.7347 17.8946 14.4804 17.707 14.2928C17.5195 14.1053 17.2651 13.9999 16.9999 13.9999C16.7347 13.9999 16.4803 14.1053 16.2928 14.2928C16.1053 14.4804 15.9999 14.7347 15.9999 14.9999V16.9999C16 17.2651 16.1054 17.5195 16.2929 17.7069L17.2929 18.7069C17.4804 18.8944 17.7348 18.9997 17.9999 18.9997C18.2651 18.9997 18.5194 18.8944 18.7069 18.7069ZM1.99992 22.9999C2.00244 21.1625 2.61459 19.3779 3.74041 17.9258C4.86623 16.4737 6.44207 15.4362 8.22092 14.9759C8.34909 14.9469 8.47029 14.8929 8.57759 14.8171C8.6849 14.7412 8.77621 14.645 8.84632 14.5338C8.91643 14.4227 8.96396 14.2988 8.9862 14.1693C9.00843 14.0397 9.00494 13.9071 8.97592 13.7789C8.94689 13.6508 8.89291 13.5296 8.81705 13.4223C8.74119 13.315 8.64493 13.2236 8.53378 13.1535C8.42263 13.0834 8.29876 13.0359 8.16924 13.0137C8.03972 12.9914 7.90709 12.9949 7.77892 13.0239C5.54995 13.5709 3.57018 14.8526 2.15889 16.6625C0.747596 18.4724 -0.0129468 20.7049 -8.36169e-05 22.9999C-8.36169e-05 23.2652 0.105273 23.5195 0.29281 23.7071C0.480346 23.8946 0.7347 23.9999 0.999916 23.9999C1.26513 23.9999 1.51949 23.8946 1.70702 23.7071C1.89456 23.5195 1.99992 23.2652 1.99992 22.9999ZM8.47392 10.9999C7.38612 10.9999 6.32275 10.6774 5.41828 10.073C4.51381 9.46868 3.80886 8.60969 3.39258 7.6047C2.9763 6.59971 2.86738 5.49384 3.0796 4.42695C3.29182 3.36005 3.81564 2.38004 4.58483 1.61085C5.35402 0.841665 6.33402 0.317841 7.40092 0.105622C8.46782 -0.106596 9.57368 0.00232205 10.5787 0.418604C11.5837 0.834886 12.4427 1.53984 13.047 2.44431C13.6513 3.34878 13.9739 4.41214 13.9739 5.49994C13.9723 6.95815 13.3924 8.35617 12.3612 9.38728C11.3301 10.4184 9.93212 10.9984 8.47392 10.9999V10.9999ZM8.47392 1.99994C7.78168 1.99994 7.10499 2.20521 6.52942 2.5898C5.95385 2.97438 5.50525 3.52101 5.24034 4.16055C4.97543 4.80009 4.90612 5.50382 5.04117 6.18276C5.17622 6.86169 5.50956 7.48533 5.99904 7.97482C6.48853 8.4643 7.11217 8.79764 7.7911 8.93269C8.47003 9.06774 9.17377 8.99843 9.81331 8.73352C10.4528 8.46861 10.9995 8.02001 11.3841 7.44444C11.7686 6.86887 11.9739 6.19218 11.9739 5.49994C11.9739 4.57168 11.6052 3.68145 10.9488 3.02507C10.2924 2.36869 9.40217 1.99994 8.47392 1.99994V1.99994Z" fill="#FDE8FF"/>
</g>
<defs>
<clipPath id="clip0_395_5734">
<rect width="24" height="24" fill="white"/>
</clipPath>
</defs>
</svg>
