<svg width="24" height="24" viewBox="0 0 24 24" fill="none" xmlns="http://www.w3.org/2000/svg">
<g clip-path="url(#clip0_395_5746)">
<path d="M10.9999 22.9993C10.9999 22.8015 11.0585 22.6082 11.1684 22.4438C11.2783 22.2793 11.4345 22.1511 11.6172 22.0754C11.7999 21.9998 12.001 21.98 12.195 22.0185C12.389 22.0571 12.5671 22.1524 12.707 22.2922C12.8469 22.4321 12.9421 22.6103 12.9807 22.8042C13.0193 22.9982 12.9995 23.1993 12.9238 23.382C12.8481 23.5647 12.7199 23.7209 12.5555 23.8308C12.391 23.9407 12.1977 23.9993 11.9999 23.9993C11.7347 23.9993 11.4803 23.894 11.2928 23.7064C11.1052 23.5189 10.9999 23.2645 10.9999 22.9993ZM15.5349 20.8773C15.7224 20.6898 15.8277 20.4355 15.8277 20.1703C15.8277 19.9052 15.7224 19.6509 15.5349 19.4633C14.5973 18.526 13.3257 17.9994 11.9999 17.9994C10.6741 17.9994 9.40253 18.526 8.46489 19.4633C8.28273 19.6519 8.18194 19.9045 8.18422 20.1667C8.18649 20.4289 8.29166 20.6797 8.47707 20.8651C8.66248 21.0506 8.91329 21.1557 9.17549 21.158C9.43769 21.1603 9.69029 21.0595 9.87889 20.8773C10.4506 20.3324 11.2101 20.0284 11.9999 20.0284C12.7897 20.0284 13.5492 20.3324 14.1209 20.8773C14.3084 21.0648 14.5627 21.1701 14.8279 21.1701C15.0931 21.1701 15.3474 21.0648 15.5349 20.8773V20.8773ZM18.3639 18.0493C18.5514 17.8618 18.6567 17.6075 18.6567 17.3423C18.6567 17.0772 18.5514 16.8229 18.3639 16.6353C16.6748 14.9499 14.386 14.0034 11.9999 14.0034C9.61373 14.0034 7.32502 14.9499 5.63589 16.6353C5.45373 16.8239 5.35294 17.0765 5.35522 17.3387C5.35749 17.6009 5.46266 17.8517 5.64807 18.0371C5.83348 18.2226 6.08429 18.3277 6.34649 18.33C6.60869 18.3323 6.86129 18.2315 7.04989 18.0493C8.36409 16.7391 10.1441 16.0034 11.9999 16.0034C13.8556 16.0034 15.6357 16.7391 16.9499 18.0493C17.1374 18.2368 17.3917 18.3421 17.6569 18.3421C17.9221 18.3421 18.1764 18.2368 18.3639 18.0493V18.0493ZM5.98689 22.1603C6.00804 22.0307 6.00345 21.8982 5.97338 21.7704C5.94332 21.6425 5.88837 21.5218 5.81166 21.4152C5.73496 21.3086 5.63801 21.2182 5.52635 21.1491C5.41469 21.0799 5.29051 21.0335 5.16089 21.0123C4.40525 20.8928 3.7031 20.5486 3.14589 20.0243C2.58868 19.5001 2.20224 18.8203 2.03689 18.0733C1.92929 17.3591 2.04706 16.6291 2.37381 15.9849C2.70055 15.3407 3.22002 14.8144 3.85989 14.4793C4.32051 14.2266 4.66318 13.8027 4.81381 13.2993C4.96444 12.796 4.91095 12.2536 4.66489 11.7893C4.27605 11.0488 4.04634 10.2351 3.9905 9.40059C3.93465 8.56605 4.05391 7.72904 4.34062 6.94331C4.62733 6.15757 5.07515 5.44045 5.65535 4.83799C6.23554 4.23553 6.93529 3.76102 7.70967 3.44494C8.48406 3.12885 9.31598 2.97817 10.152 3.00255C10.9881 3.02694 11.8098 3.22586 12.5645 3.58654C13.3191 3.94723 13.99 4.46171 14.5341 5.09696C15.0782 5.73222 15.4835 6.47421 15.7239 7.27533C15.8719 7.75804 16.1355 8.19729 16.4919 8.55491C16.8483 8.91253 17.2867 9.17768 17.7689 9.32733C19.0753 9.72502 20.2059 10.5584 20.9723 11.6886C21.7388 12.8188 22.0947 14.1775 21.9809 15.5383C21.8915 16.5602 21.5273 17.5389 20.927 18.3707C20.3267 19.2026 19.5126 19.8565 18.5709 20.2633C18.3377 20.3809 18.1597 20.585 18.0751 20.8321C17.9904 21.0791 18.0058 21.3495 18.1178 21.5854C18.2299 21.8213 18.4298 22.004 18.6748 22.0944C18.9198 22.1848 19.1904 22.1758 19.4289 22.0693C20.6917 21.5159 21.7812 20.631 22.5817 19.5084C23.3823 18.3859 23.864 17.0676 23.9759 15.6933C24.1269 13.879 23.6514 12.0678 22.6288 10.5616C21.6061 9.05536 20.098 7.94525 18.3559 7.41633C18.1843 7.36302 18.0286 7.26811 17.9027 7.14004C17.7767 7.01197 17.6844 6.85473 17.6339 6.68233C17.1045 4.98241 16.0232 3.50767 14.5611 2.49162C13.099 1.47557 11.3398 0.976277 9.56198 1.07281C7.78415 1.16934 6.08933 1.85617 4.74588 3.02455C3.40242 4.19293 2.48712 5.77608 2.14489 7.52333C1.7953 9.29122 2.07029 11.1256 2.92289 12.7133C1.9179 13.2388 1.10175 14.0646 0.588062 15.0756C0.0743713 16.0867 -0.111302 17.2328 0.0568893 18.3543C0.285373 19.5224 0.866154 20.5925 1.72109 21.4207C2.57602 22.2488 3.66409 22.7952 4.83889 22.9863C4.96851 23.0075 5.10102 23.0029 5.22886 22.9728C5.3567 22.9428 5.47737 22.8878 5.58397 22.8111C5.69057 22.7344 5.78102 22.6375 5.85016 22.5258C5.91929 22.4141 5.96575 22.2899 5.98689 22.1603V22.1603Z" fill="#FDE8FF"/>
</g>
<defs>
<clipPath id="clip0_395_5746">
<rect width="24" height="24" fill="white"/>
</clipPath>
</defs>
</svg>
