<svg width="24" height="24" viewBox="0 0 24 24" fill="none" xmlns="http://www.w3.org/2000/svg">
<g clip-path="url(#clip0_395_5750)">
<path d="M22.61 0.208668C22.4 0.0475971 22.1348 -0.0236902 21.8724 0.0104234C21.61 0.0445371 21.3718 0.18127 21.21 0.390668L12 12.3607L2.792 0.390668C2.62767 0.18809 2.39068 0.05774 2.1316 0.0274245C1.87252 -0.00289107 1.61185 0.0692275 1.40519 0.228396C1.19853 0.387565 1.06225 0.621184 1.02541 0.879418C0.988568 1.13765 1.05409 1.40006 1.208 1.61067L10.738 14.0007H6C5.73478 14.0007 5.48043 14.106 5.29289 14.2936C5.10535 14.4811 5 14.7355 5 15.0007C5 15.2659 5.10535 15.5202 5.29289 15.7078C5.48043 15.8953 5.73478 16.0007 6 16.0007H11V18.0007H6C5.73478 18.0007 5.48043 18.106 5.29289 18.2936C5.10535 18.4811 5 18.7355 5 19.0007C5 19.2659 5.10535 19.5202 5.29289 19.7078C5.48043 19.8953 5.73478 20.0007 6 20.0007H11V23.0007C11 23.2659 11.1054 23.5202 11.2929 23.7078C11.4804 23.8953 11.7348 24.0007 12 24.0007C12.2652 24.0007 12.5196 23.8953 12.7071 23.7078C12.8946 23.5202 13 23.2659 13 23.0007V20.0007H18C18.2652 20.0007 18.5196 19.8953 18.7071 19.7078C18.8946 19.5202 19 19.2659 19 19.0007C19 18.7355 18.8946 18.4811 18.7071 18.2936C18.5196 18.106 18.2652 18.0007 18 18.0007H13V16.0007H18C18.2652 16.0007 18.5196 15.8953 18.7071 15.7078C18.8946 15.5202 19 15.2659 19 15.0007C19 14.7355 18.8946 14.4811 18.7071 14.2936C18.5196 14.106 18.2652 14.0007 18 14.0007H13.262L22.792 1.61067C22.9537 1.40059 23.0254 1.13489 22.9912 0.871992C22.9571 0.609091 22.82 0.370501 22.61 0.208668V0.208668Z" fill="#FDE8FF"/>
</g>
<defs>
<clipPath id="clip0_395_5750">
<rect width="24" height="24" fill="white"/>
</clipPath>
</defs>
</svg>
