<svg width="74" height="74" viewBox="0 0 74 74" fill="none" xmlns="http://www.w3.org/2000/svg">
<path d="M53.7444 27.1541C53.507 27.713 53.1641 28.2183 52.7415 28.6424C52.3188 29.0666 51.8151 29.4081 51.2531 29.6454C50.6927 29.8812 50.0756 30.0129 49.4309 30.0129C48.7863 30.0129 48.1707 29.8812 47.6102 29.6454C47.0498 29.4081 46.5461 29.0651 46.1204 28.6424C45.6993 28.2198 45.3547 27.7145 45.1189 27.1541M19.8134 31.1032C20.037 30.679 20.3555 30.2977 20.7505 29.9762C21.1456 29.6561 21.6142 29.3958 22.1395 29.2167C22.6616 29.039 23.2373 28.938 23.8391 28.938C24.444 28.938 25.0182 29.0375 25.5388 29.2167C26.0625 29.3958 26.531 29.6561 26.9276 29.9762C27.3242 30.2977 27.6443 30.679 27.8632 31.1032M34.3451 20.4977C34.123 20.0307 33.8673 19.5728 33.5778 19.1257C30.1065 13.8153 22.9357 12.3208 17.5579 15.7815C12.1802 19.2452 10.6321 26.3563 14.1019 31.6651C17.44 36.7734 24.2051 38.3521 29.5017 35.3815M20.6066 22.2495C20.5653 22.6568 20.5362 23.0855 20.5193 23.5388M26.9644 22.2495C26.9261 22.6568 26.8955 23.0855 26.8786 23.5388M46.301 20.7228C46.2628 21.1301 46.2321 21.5589 46.2152 22.0152M52.6618 20.7228C52.6205 21.1301 52.5914 21.5589 52.576 22.0152M35.0463 32.4384C36.4152 32.0632 37.7903 32.8917 38.2145 34.2453L40.3766 41.1466C40.7028 40.5525 41.2571 40.0855 41.9584 39.8925C43.2064 39.5511 44.4987 40.1957 45.0025 41.3488C45.2843 40.5984 45.9075 39.9875 46.7359 39.7624C47.9823 39.4209 49.2762 40.064 49.78 41.2186C50.0617 40.4683 50.685 39.8573 51.5119 39.6322C52.8808 39.2586 54.3799 40.0518 54.6815 41.4391L56.8942 51.6357C57.9875 56.6674 54.2161 59.8769 49.9286 61.281C47.157 62.1891 44.3915 63.0649 41.8282 60.7818L30.5904 50.9681C29.5308 50.0263 29.4373 48.3864 30.3806 47.3267C31.7373 46.9562 34.3006 47.3666 35.3679 48.3159L37.5117 50.2269L33.2364 35.6081C32.8398 34.2453 33.6758 32.8136 35.0463 32.4384ZM49.4293 12.5C43.0869 12.5 37.945 17.6419 37.945 23.9844C37.945 30.3283 43.0869 35.4688 49.4293 35.4688C55.7733 35.4688 60.9137 30.3283 60.9137 23.9844C60.9137 17.6419 55.7733 12.5 49.4293 12.5Z" stroke="white" stroke-width="1.313" stroke-miterlimit="22.926" stroke-linecap="round" stroke-linejoin="round"/>
</svg>
