<svg width="74" height="74" viewBox="0 0 74 74" fill="none" xmlns="http://www.w3.org/2000/svg">
<path d="M44.5294 20.0338L43.2431 21.9417M44.5294 20.0338C45.4114 19.8194 46.3285 19.6938 47.2794 19.6938C53.605 19.6938 58.7363 24.7531 58.7363 30.996C58.7363 33.6833 57.7854 36.1486 56.1975 38.0857M44.5294 20.0338C42.9552 15.6467 38.7243 12.5 33.7371 12.5C27.6549 12.5 22.6922 17.1795 22.3171 23.0871M22.3171 23.0871L24.1668 24.2523M22.3171 23.0871C17.5166 24.2278 13.9473 28.4786 13.9473 33.5639C13.9473 37.9907 16.6499 41.7867 20.5132 43.4512M31.7954 48.5548L31.6301 46.6698M31.7954 48.5548C30.7037 50.3464 28.7177 51.5469 26.4468 51.5469C22.9938 51.5469 20.1978 48.7891 20.1978 45.3821C20.1978 44.7068 20.3111 44.0591 20.5132 43.4512M31.7954 48.5548C33.515 49.7859 35.6206 50.5194 37.9021 50.5194C40.7426 50.5194 43.3182 49.397 45.1985 47.5763M20.5132 43.4512L22.1455 42.3578M44.9551 25.1328L47.252 29.7266L51.8457 32.0234L47.252 34.3203L44.9551 38.9141L42.6582 34.3203L38.0645 32.0234L42.6582 29.7266L44.9551 25.1328ZM52.9941 37.7656L55.291 42.3594L59.8848 44.6563L55.291 46.9531L52.9941 51.5469L50.6973 46.9531L46.1035 44.6563L50.6973 42.3594L52.9941 37.7656ZM21.9863 57.8633C21.9863 60.0836 20.1856 61.8828 17.9668 61.8828C15.748 61.8828 13.9473 60.0836 13.9473 57.8633C13.9473 55.643 15.748 53.8438 17.9668 53.8438C20.1856 53.8438 21.9863 55.643 21.9863 57.8633Z" stroke="white" stroke-width="1.5" stroke-miterlimit="10" stroke-linejoin="round"/>
<path d="M41.5098 42.3594H39.2129M36.916 42.3594H34.6191M38.0645 43.5078V45.8047M38.0645 38.9141V41.2109" stroke="white" stroke-width="1.5" stroke-miterlimit="10"/>
</svg>
