<svg width="75" height="74" viewBox="0 0 75 74" fill="none" xmlns="http://www.w3.org/2000/svg">
<path d="M29.571 50.7675C29.571 51.1977 29.4929 51.5974 29.3382 51.9726C29.1729 52.4044 28.9172 52.7918 28.5971 53.1133C27.9984 53.7121 27.1685 54.0887 26.2482 54.0887C25.9496 54.0887 25.6617 54.0443 25.3846 53.9678C23.9666 53.5911 22.9269 52.3064 22.9269 50.7675V44.1203C22.9269 40.7562 23.7231 37.5773 25.1411 34.7537C25.7505 33.5011 26.5039 32.3159 27.3568 31.2303C27.8881 30.532 28.4746 29.8674 29.0948 29.2473M32.2323 32.3879C31.2018 33.4184 30.3045 34.5822 29.5741 35.8562C28.1668 38.2924 27.3583 41.116 27.3583 44.1264V47.4508C27.3583 48.3787 27.7457 49.2316 28.3659 49.8319C28.6982 50.1642 29.1086 50.4183 29.5741 50.5715C29.9171 50.7062 30.2937 50.7721 30.6812 50.7721C31.5999 50.7721 32.4314 50.3969 33.0286 49.7967C33.6273 49.1979 34.004 48.368 34.004 47.4508V44.1264C34.004 41.3794 35.1218 38.8773 36.9271 37.0827C38.6988 35.2896 41.1794 34.1702 43.9035 34.1595C49.4191 34.1167 53.9378 38.9677 53.9378 44.4817V47.4492C53.9378 48.5778 54.5028 49.5869 55.3664 50.1718C55.8978 50.5485 56.5516 50.7705 57.2606 50.7705C58.1793 50.7705 59.0093 50.3954 59.608 49.7951C60.2067 49.1964 60.5819 48.3665 60.5819 47.4492V36.2619C60.5819 31.8994 59.2543 27.8692 57.0049 24.5004C55.7646 22.6736 55.6329 20.3032 56.5179 18.2774L58.0461 14.777M20.2151 34.9129L18.6317 36.5069C18.5215 36.6187 18.399 36.7182 18.278 36.8055C17.6915 37.2603 16.9933 37.4808 16.2843 37.4808C15.4866 37.4808 14.6781 37.1822 14.0579 36.6187C12.6292 35.334 12.7288 33.008 14.0916 31.6559L24.4566 21.2909C27.3476 18.4106 31.0686 16.3496 35.2336 15.5196C35.6087 15.4415 35.9977 15.3971 36.3851 15.342L37.6361 10.9688M22.9269 48.3527C22.5824 48.4859 22.2057 48.5518 21.8183 48.5518C20.2135 48.5518 18.8844 47.4217 18.5628 45.9165V45.9042C18.5184 45.3162 18.497 44.7206 18.497 44.1203C18.497 38.8053 20.1354 33.8671 22.9269 29.7802C23.6022 28.794 24.3433 27.8523 25.1411 26.9795C25.4075 26.6794 25.6832 26.3915 25.9603 26.1143M46.185 41.9781V61.9119M57.2606 50.8379V61.9104H30.6812V55.6506M35.1111 41.9781H50.0729" stroke="white" stroke-width="1.446" stroke-miterlimit="10" stroke-linecap="round" stroke-linejoin="round"/>
</svg>
