<svg width="74" height="74" viewBox="0 0 74 74" fill="none" xmlns="http://www.w3.org/2000/svg">
<path d="M45.3047 40.7944L52.1585 30.4907M45.3047 40.7944L38.4967 33.9896L17.537 57.3151C16.4191 58.5508 16.4727 60.4526 17.6579 61.6347C18.8431 62.8199 20.7465 62.8751 21.9837 61.7557L45.3047 40.7944ZM38.4982 33.9865L48.8051 27.1372M18.0851 31.0695L9.24219 22.228L11.0108 20.4594M18.0851 31.0695L27.8132 21.3414L33.119 26.6472L23.3909 36.3753L18.0851 31.0695ZM27.8132 21.343L18.9702 12.5L13.6629 17.8058L16.3166 20.4594M23.394 36.3783C23.394 36.3783 25.602 36.9311 28.6309 38.4991M41.1136 49.9482C42.0967 51.2667 43.3722 52.8193 45.5007 54.9493C50.8723 60.3209 59.5728 62.8291 59.5728 62.8291C59.5728 62.8291 57.0631 54.1286 51.6915 48.7585C49.7009 46.7678 48.2156 45.526 46.9523 44.569M35.0591 31.5334C33.6304 28.6884 33.122 26.6518 33.122 26.6518M59.8102 29.111C57.1504 31.7677 52.8384 31.7677 50.1802 29.111C47.5204 26.4528 47.5204 22.1408 50.1802 19.484C54.192 15.4737 57.4015 18.6817 61.4149 13.0666C64.0609 19.3968 63.0197 25.9015 59.8102 29.111Z" stroke="white" stroke-width="1.633" stroke-miterlimit="10" stroke-linecap="round" stroke-linejoin="round"/>
</svg>
