<svg width="74" height="74" viewBox="0 0 74 74" fill="none" xmlns="http://www.w3.org/2000/svg">
<path d="M28.3141 45.0329L32.7333 44.9058C33.8832 44.8737 34.6673 46.0619 34.1819 47.1078L32.378 50.9895C31.8941 52.0353 30.4808 52.2038 29.7611 51.3019L27.008 47.8428M28.3141 45.0329L27.008 47.8428M28.3141 45.0329L25.5609 41.5754C24.8413 40.675 23.4279 40.8419 22.9425 41.8878L21.1402 45.771C20.6563 46.8153 21.4388 48.0051 22.5887 47.9714L27.008 47.8428M34.0793 38.1775C30.2588 40.7776 28.5377 44.3148 26.7507 48.5778C24.9637 52.8393 23.5964 57.3228 21.1341 61.2336C18.6734 65.1459 14.2312 68.8133 9.63281 69.2895M34.0793 38.1775L66.7577 5.49759M34.0793 38.1775L40.1431 6.64603C40.3436 5.60019 41.2608 4.84375 42.3251 4.84375H65.1928C66.4193 4.84375 67.413 5.83906 67.413 7.06559V29.9302C67.413 30.996 66.6581 31.9117 65.6107 32.1153L34.0793 38.1775ZM50.8127 15.1659L40.9684 5.3215M66.9354 31.2884L57.1016 21.4548" stroke="white" stroke-width="1.451" stroke-miterlimit="10" stroke-linecap="round" stroke-linejoin="round"/>
</svg>
