<svg width="75" height="74" viewBox="0 0 75 74" fill="none" xmlns="http://www.w3.org/2000/svg">
<path d="M46.347 54.4551C46.0025 54.4551 45.6626 54.2943 45.4482 53.9896C45.0991 53.495 45.2184 52.8105 45.7146 52.4629L53.4489 47.0178C53.9481 46.6671 54.6295 46.7881 54.9771 47.2827C55.3278 47.7773 55.2068 48.4633 54.7122 48.8109L46.9779 54.256C46.7849 54.3907 46.5629 54.4551 46.347 54.4551Z" fill="white"/>
<path d="M36.2849 51.3813C35.9388 51.3813 35.6004 51.2205 35.3845 50.9158C35.0369 50.4212 35.1564 49.7367 35.6525 49.3876L48.6696 40.2246C49.1673 39.8755 49.8502 39.9965 50.1978 40.491C50.5469 40.9841 50.4259 41.6701 49.9314 42.0192L36.9142 51.1807C36.7213 51.317 36.5008 51.3813 36.2849 51.3813Z" fill="white"/>
<path d="M30.387 45.3746C30.0425 45.3746 29.7041 45.2138 29.4882 44.9091C29.1406 44.4145 29.26 43.7285 29.7531 43.3809L43.8881 33.4323C44.3873 33.0817 45.0671 33.2026 45.4162 33.6972C45.7654 34.1918 45.646 34.8778 45.1514 35.2254L31.0179 45.174C30.8249 45.3102 30.606 45.3746 30.387 45.3746Z" fill="white"/>
<path d="M32.965 23.9161C32.6205 23.9161 32.2821 23.7538 32.0662 23.4491C31.7186 22.956 31.8381 22.27 32.3327 21.9224L37.5036 18.2796C41.9228 15.1727 47.5548 14.502 52.5788 16.488C52.6187 16.5049 60.1999 11.1685 60.1999 11.1685C60.696 10.8193 61.3804 10.9403 61.728 11.4349C62.0756 11.9295 61.9577 12.6155 61.4616 12.9616L53.4164 18.6241C53.1286 18.8262 52.758 18.8783 52.4273 18.7635C52.1623 18.6716 51.9648 18.6042 51.7718 18.5276C47.4384 16.8126 42.5767 17.3915 38.7685 20.0727L33.5975 23.7171C33.403 23.8518 33.1825 23.9161 32.965 23.9161Z" fill="white"/>
<path d="M48.7173 61.9535C47.2212 61.9535 45.7589 61.3471 44.759 60.1803C43.9275 59.2095 43.4789 57.9737 43.4881 56.712L41.8404 57.8711C39.5726 59.4713 36.4305 59.136 34.6941 57.1071C33.8335 56.1041 33.3864 54.8148 33.4262 53.5101C32.411 53.9557 31.2626 54.0752 30.1631 53.8302C28.7253 53.5086 27.4758 52.5853 26.7423 51.296C25.8021 49.6468 25.9063 47.6164 26.8633 46.0086C25.4117 45.6839 24.1621 44.7606 23.4287 43.4713C22.1072 41.153 22.8499 38.0843 25.1208 36.4857L35.2224 29.373C35.72 29.0239 36.4029 29.1449 36.7521 29.6395C37.1012 30.1326 36.9803 30.8185 36.4857 31.1677L26.3825 38.2788C25.0242 39.2343 24.5649 41.0381 25.3336 42.3841C25.7669 43.1497 26.4758 43.6765 27.3288 43.8663C28.1679 44.0547 29.0515 43.8786 29.7543 43.3825C30.252 43.0364 30.9349 43.1543 31.284 43.6489C31.6316 44.1435 31.5106 44.8295 31.0175 45.1756C31.0068 45.1832 29.6946 46.1066 29.6946 46.1066C28.3379 47.0605 27.8785 48.8643 28.6472 50.2118C29.0805 50.9759 29.7895 51.5027 30.6424 51.6925C31.48 51.8794 32.365 51.7033 33.0679 51.2102L35.6465 49.3941C36.1472 49.0435 36.8318 49.1629 37.1794 49.656C37.53 50.1506 37.409 50.8366 36.9129 51.1826C36.2101 51.6788 35.7476 52.4521 35.6404 53.305C35.5317 54.1686 35.7874 55.0138 36.3601 55.6845C37.3707 56.8621 39.2204 57.0351 40.5802 56.0811L45.716 52.4643C46.2121 52.1152 46.8967 52.2377 47.2443 52.7323C47.5949 53.2253 47.4739 53.9113 46.9793 54.2574C46.2734 54.7566 45.8125 55.5283 45.7053 56.3812C45.5966 57.2449 45.8523 58.0886 46.425 58.7593C47.4325 59.9368 49.2854 60.1114 50.6436 59.1559L64.3819 49.4876C66.5686 47.9486 68.207 45.6916 68.9987 43.1375C69.1778 42.5602 69.7934 42.2371 70.3692 42.4147C70.9511 42.5939 71.2742 43.2079 71.095 43.7867C70.1625 46.8033 68.2269 49.4646 65.6422 51.2822L51.9069 60.9505C50.9407 61.6242 49.8183 61.9535 48.7173 61.9535Z" fill="white"/>
<path d="M35.8518 31.3677C35.5072 31.3677 35.1689 31.2054 34.953 30.9007C34.6054 30.4076 34.7247 29.7216 35.2193 29.374L42.5694 24.2015C43.064 23.8539 43.7484 23.9733 44.096 24.4679C44.4466 24.9625 44.3257 25.647 43.8296 25.9961L36.4811 31.1687C36.2913 31.3034 36.0707 31.3677 35.8518 31.3677Z" fill="white"/>
<path d="M17.9668 56.1361C16.408 56.1361 14.8522 55.6446 13.491 54.6554C10.7761 52.6816 9.69041 49.3404 10.7271 46.1447L10.9046 45.5965C11.6335 43.3578 10.8419 40.9231 8.93702 39.5389L8.47 39.1989C5.75203 37.2252 4.66633 33.884 5.70452 30.6882C6.74271 27.4925 9.58325 25.4284 12.9428 25.4284H13.5216C15.8751 25.4284 17.9454 23.9247 18.6743 21.6845L18.8518 21.1378C19.89 17.9421 22.7306 15.8765 26.0901 15.8765C29.4497 15.8765 32.2917 17.9421 33.3314 21.1363L33.509 21.686C34.2379 23.9247 36.3066 25.4284 38.6601 25.4284H39.2389C39.8086 25.4284 40.369 25.4866 40.905 25.5999C41.4991 25.727 41.8742 26.3089 41.7486 26.9015C41.6215 27.4941 41.0382 27.8692 40.4471 27.7452C40.0628 27.664 39.6554 27.6212 39.2389 27.6212H38.6601C35.3526 27.6212 32.4448 25.508 31.4234 22.3628L31.2428 21.8131C30.347 19.0523 27.9935 18.0707 26.0901 18.0707C24.1883 18.0707 21.8347 19.0538 20.9374 21.8131L20.7598 22.3628C19.7369 25.508 16.8306 27.6212 13.5216 27.6212H12.9428C10.0396 27.6212 8.37961 29.5567 7.79008 31.3651C7.20208 33.175 7.41035 35.7169 9.75928 37.4227L10.2263 37.7626C12.9029 39.7088 14.0147 43.1266 12.9918 46.2733L12.8157 46.8215C11.9184 49.5839 13.2429 51.7628 14.7833 52.8806C16.3207 53.9969 18.8029 54.5865 21.1503 52.8791L21.6188 52.5392C21.7214 52.4642 21.8225 52.3952 21.9236 52.3294C22.4335 51.9956 23.1103 52.138 23.441 52.6448C23.7748 53.1517 23.6309 53.83 23.1241 54.1623L22.4412 54.6523C21.0814 55.643 19.5225 56.1361 17.9668 56.1361Z" fill="white"/>
</svg>
