<svg width="74" height="74" viewBox="0 0 74 74" fill="none" xmlns="http://www.w3.org/2000/svg">
<path d="M21.9519 18.9267C23.6209 15.5457 22.2489 11.4526 18.8802 9.76212L17.1483 8.89391V27.3516M17.1483 27.3516C17.1483 29.3039 15.5665 30.8857 13.6142 30.8857C11.6634 30.8857 10.0801 29.3039 10.0801 27.3501C10.0801 25.3992 11.6634 23.8159 13.6142 23.8159C15.5665 23.8175 17.1483 25.4008 17.1483 27.3516ZM64.7595 58.8203V43.2888L52.9183 47.8795V63.189M64.7595 58.8203C64.7595 60.4388 63.4472 61.7511 61.8271 61.7511C60.2071 61.7511 58.8963 60.4388 58.8963 58.8203C58.8963 57.1987 60.2071 55.888 61.8271 55.888C63.4472 55.888 64.7595 57.1987 64.7595 58.8203ZM52.9183 63.189C52.9183 64.809 51.6076 66.1198 49.9875 66.1198C48.369 66.1198 47.0552 64.809 47.0552 63.189C47.0552 61.5689 48.369 60.2566 49.9875 60.2566C51.6061 60.2566 52.9183 61.5704 52.9183 63.189ZM50.8588 11.3929L51.8663 12.4005M53.2077 8.72394L54.2168 9.7315M55.8767 6.375L56.8843 7.38256M61.3968 21.3935L62.4059 22.4011M64.0674 19.043L65.0749 20.0521M66.4163 16.3741L67.4254 17.3832M14.6891 51.3861L22.3393 59.0362M34.2554 35.4289L52.4712 17.7522L55.9716 21.2526L38.1326 39.6383M43.4659 37.3216C44.4827 38.4394 45.138 39.8542 45.2406 41.3625C45.2483 41.4651 45.2544 41.5677 45.256 41.6718C45.2743 42.39 45.1871 43.099 45.0003 43.7742C44.4567 45.7511 43.0326 47.3696 41.1935 48.2715L40.8965 48.4185C37.9396 49.8671 35.799 52.5789 35.0716 55.7884L34.2034 59.7835C33.7226 61.9854 32.5343 63.9684 30.8178 65.4322C30.7167 65.5195 30.6111 65.6053 30.5054 65.688C26.6788 68.703 21.2077 68.4366 17.5403 65.2301L16.6813 64.4798C14.2328 62.3422 11.9329 60.0438 9.7922 57.5938L9.02961 56.721C5.82164 53.0521 5.55675 47.5794 8.57025 43.7543C8.65294 43.6487 8.74022 43.543 8.8275 43.442C9.0036 43.2322 9.18889 43.0331 9.38336 42.8402C10.7753 41.4483 12.5408 40.4775 14.4778 40.0579L18.4729 39.1882C21.6839 38.4608 24.3942 36.3201 25.8428 33.3648L25.9882 33.0662C26.8917 31.2257 28.5086 29.8047 30.487 29.2595C31.1623 29.0727 31.8698 28.9839 32.591 29.0038C32.6936 29.0053 32.7962 29.0115 32.8972 29.0191C34.0273 29.0972 35.1068 29.4846 36.0486 30.1032M64.5038 10.5262C64.9678 10.9917 65.2342 11.6333 65.2679 12.3683C65.3245 13.5872 64.735 14.9393 63.6998 15.9744L60.7078 18.9665C60.2301 19.4458 59.6512 19.7979 59.054 19.9756L56.013 21.2894L52.436 17.7124L53.7513 14.6713C53.9274 14.0741 54.2827 13.4938 54.7589 13.0176L57.751 10.0255C58.7876 8.98884 60.1397 8.39931 61.357 8.4575C62.092 8.49119 62.7336 8.75763 63.1991 9.2216L64.5038 10.5262ZM33.7945 46.6484C31.9387 48.5027 28.9328 48.5027 27.0769 46.6484C25.2226 44.7941 25.2226 41.7867 27.0769 39.9323C28.9328 38.0765 31.9387 38.0765 33.7945 39.9323C35.6504 41.7867 35.6504 44.7941 33.7945 46.6484Z" stroke="white" stroke-width="1.054" stroke-miterlimit="10" stroke-linecap="round" stroke-linejoin="round"/>
</svg>
