<svg width="75" height="74" viewBox="0 0 75 74" fill="none" xmlns="http://www.w3.org/2000/svg">
<path d="M22.2528 56.1556V53.2453V48.9913C22.2528 48.439 22.2501 47.8907 22.323 47.3397C22.3095 47.4302 22.2973 47.5234 22.2865 47.6125C22.3797 46.9386 22.558 46.2823 22.82 45.6543C22.7862 45.738 22.7511 45.8177 22.7173 45.9014C22.9104 45.445 23.1427 45.0074 23.4196 44.5942C23.4817 44.5024 23.5451 44.4092 23.6127 44.3214C23.6586 44.2552 23.8166 44.0675 23.5951 44.3376C23.6356 44.289 23.6762 44.2377 23.7153 44.1877C23.8666 44.0027 24.0273 43.8258 24.1961 43.6543C24.3649 43.4841 24.5432 43.3207 24.7268 43.1667C24.7768 43.1249 24.8268 43.0857 24.8767 43.0438C25.0118 42.9345 24.6526 43.2127 24.8605 43.0573C24.951 42.9898 25.0442 42.9237 25.1374 42.8602C25.5587 42.5752 26.0057 42.3308 26.473 42.1336C26.3906 42.166 26.3096 42.2025 26.2272 42.2363C26.9632 41.9283 27.7073 41.6434 28.4488 41.3476C29.5143 40.9209 30.5784 40.5009 31.6872 40.1889C32.7081 39.9026 33.7493 39.6906 34.8 39.5488C34.7109 39.561 34.6191 39.5731 34.5299 39.5839C36.5043 39.3246 38.5044 39.3246 40.4788 39.5839C40.3896 39.5718 40.2978 39.5596 40.206 39.5488C42.0548 39.7973 43.8657 40.2727 45.5984 40.9628C46.3398 41.2585 47.0826 41.5543 47.824 41.8527C48.14 41.981 48.4628 42.1039 48.7788 42.2363C48.6964 42.2025 48.6167 42.166 48.533 42.1336C49.0016 42.3308 49.45 42.5752 49.87 42.8602C49.9632 42.9237 50.055 42.9898 50.1455 43.0573C50.3548 43.2127 49.9956 42.9345 50.1306 43.0438C50.1806 43.0857 50.2306 43.1249 50.2778 43.1667C50.4642 43.3207 50.6411 43.4841 50.8113 43.6543C50.9787 43.8258 51.1394 44.0027 51.2907 44.1877C51.3312 44.2377 51.3717 44.289 51.4122 44.3376C51.1907 44.0689 51.3488 44.2552 51.3947 44.3214C51.4622 44.4092 51.5257 44.5024 51.5878 44.5942C51.8633 45.0074 52.0969 45.445 52.29 45.9014C52.2563 45.8177 52.2212 45.738 52.186 45.6543C52.4467 46.2823 52.6263 46.9386 52.7208 47.6125C52.7073 47.5234 52.6938 47.4302 52.683 47.3397C52.7492 47.8353 52.7532 48.3283 52.7532 48.8266V50.6079V55.0793V56.1569C52.7532 56.6917 53.2259 57.2076 53.7796 57.182C54.336 57.1577 54.8046 56.7323 54.8046 56.1569V52.6079V48.4606C54.8046 45.9487 53.7512 43.4692 51.843 41.8095C51.3015 41.3382 50.7073 40.9182 50.0672 40.5914C49.7012 40.4077 49.323 40.2565 48.9449 40.1066C48.1927 39.8041 47.4445 39.5056 46.6936 39.2058C45.7159 38.8155 44.7355 38.4482 43.7199 38.1713C42.0723 37.7203 40.368 37.4556 38.6624 37.3664C35.3389 37.1963 31.9586 37.7513 28.8674 38.9843C28.2759 39.2206 27.6844 39.4583 27.0929 39.6933C26.3542 39.9904 25.5885 40.2578 24.8808 40.6251C23.6006 41.2896 22.5161 42.293 21.7031 43.48C20.8861 44.6725 20.4229 46.0554 20.2568 47.4856C20.1973 48.0055 20.2055 48.5268 20.2055 49.0494V51.302V55.8747V56.1556C20.2055 56.6904 20.6781 57.2063 21.2318 57.1806C21.7828 57.1577 22.2528 56.7309 22.2528 56.1556Z" fill="white"/>
<path d="M26.7109 49.646V51.8433V55.3478V56.1567C26.7109 56.6928 27.1836 57.206 27.7373 57.183C28.2924 57.156 28.7637 56.732 28.7637 56.1567V53.9608V50.455V49.646C28.7637 49.1099 28.291 48.5954 27.7373 48.621C27.1823 48.6453 26.7109 49.0707 26.7109 49.646Z" fill="white"/>
<path d="M46.2422 49.646V51.8433V55.3478V56.1567C46.2422 56.6928 46.7135 57.206 47.2672 57.183C47.8236 57.156 48.2936 56.732 48.2936 56.1567V53.9608V50.455V49.646C48.2936 49.1099 47.8222 48.5954 47.2672 48.621C46.7122 48.6453 46.2422 49.0707 46.2422 49.646Z" fill="white"/>
<path d="M61.2711 41.3668C62.9079 41.5978 64.5068 42.0272 66.0437 42.6403C66.7878 42.9375 67.5319 43.2346 68.2747 43.533C68.5596 43.6464 68.8459 43.7585 69.1295 43.876C69.0471 43.8409 68.9661 43.8058 68.8837 43.772C69.2618 43.9328 69.6251 44.1245 69.9695 44.3528C70.0559 44.4108 70.1437 44.4716 70.2274 44.5337C70.4097 44.6701 70.0492 44.3906 70.1937 44.5067C70.2301 44.5351 70.2693 44.5675 70.3071 44.5958C70.4597 44.7255 70.6096 44.8605 70.7501 45.0037C70.8919 45.1441 71.0269 45.294 71.1552 45.448C71.1849 45.4831 71.216 45.5223 71.2444 45.5601C71.3605 45.7019 71.1012 45.3629 71.2011 45.5034C71.2633 45.5884 71.324 45.6722 71.3821 45.7572C71.6103 46.0962 71.8034 46.4554 71.9642 46.8309C71.9304 46.7498 71.8953 46.6675 71.8615 46.5864C72.0884 47.1226 72.241 47.6871 72.3194 48.2664C72.3072 48.1759 72.2951 48.0841 72.2843 47.995C72.3396 48.4271 72.3396 48.8579 72.3396 49.2914V50.9687V55.1592V56.1532C72.3396 56.688 72.8109 57.2039 73.3646 57.1782C73.9197 57.1539 74.3896 56.7285 74.3896 56.1532V53.2726V49.2563C74.3896 48.6743 74.3639 48.1044 74.2707 47.5277C74.0682 46.2799 73.5024 45.1333 72.7272 44.1448C72.0034 43.2211 71.0215 42.4702 69.9425 42.0083C69.3888 41.7706 68.8257 41.5546 68.2652 41.3304C67.7034 41.1062 67.1416 40.8807 66.5798 40.6565C65.3873 40.1798 64.153 39.8111 62.8917 39.5653C62.5338 39.4964 62.1773 39.437 61.818 39.3871C61.5331 39.3465 61.286 39.3384 61.028 39.4897C60.8146 39.6139 60.6107 39.857 60.5553 40.1028C60.4946 40.3634 60.5081 40.6606 60.658 40.8928C60.7917 41.1035 61.0145 41.3304 61.2711 41.3668Z" fill="white"/>
<path d="M66.4941 50.3135V52.2785V55.4332V56.1557C66.4941 56.6905 66.9668 57.2063 67.5205 57.1807C68.0769 57.1564 68.5468 56.731 68.5468 56.1557V54.1907V51.036V50.3135C68.5468 49.7774 68.0728 49.2629 67.5205 49.2885C66.9654 49.3128 66.4941 49.7382 66.4941 50.3135Z" fill="white"/>
<path d="M13.0327 39.4553C11.5877 39.6903 10.1684 40.0792 8.80576 40.6194C8.32634 40.8098 7.84557 41.0016 7.3675 41.1947C6.82191 41.4121 6.27768 41.6295 5.73344 41.847C4.68412 42.2697 3.72796 42.8639 2.94738 43.6904C2.09658 44.5952 1.46459 45.708 1.14723 46.9085C0.960863 47.6094 0.894674 48.3306 0.894674 49.0517V52.7683C0.894674 53.877 0.881169 54.9871 0.894674 56.0958C0.894674 56.1161 0.894674 56.135 0.894674 56.1552C0.894674 56.69 1.36599 57.2046 1.91969 57.1803C2.47608 57.1559 2.94606 56.7305 2.94606 56.1552V53.4745V49.4542C2.94606 48.9667 2.93793 48.4805 3.00005 47.997C2.9879 48.0862 2.97574 48.178 2.96494 48.2685C3.04327 47.6891 3.19725 47.1246 3.42278 46.5885C3.38901 46.6695 3.35387 46.7519 3.32011 46.8329C3.47812 46.4669 3.66721 46.1118 3.88869 45.7795C3.94676 45.6945 4.00618 45.608 4.0683 45.5257C4.20335 45.3433 3.9238 45.7053 4.03994 45.5608C4.0683 45.5243 4.09934 45.4851 4.12905 45.4487C4.25734 45.2961 4.39106 45.1462 4.53421 45.0057C4.67466 44.8639 4.82458 44.7275 4.97853 44.5979C5.015 44.5695 5.05413 44.5371 5.09059 44.5087C5.23509 44.3926 4.89615 44.6506 5.0366 44.5493C5.12303 44.4871 5.20673 44.425 5.29451 44.367C5.64294 44.1333 6.01432 43.9375 6.40055 43.7741C6.31682 43.8079 6.23717 43.843 6.15344 43.8781C6.79491 43.6134 7.44043 43.3609 8.08461 43.1043C8.92866 42.7666 9.76866 42.4169 10.6357 42.1387C11.5972 41.8294 12.5817 41.5971 13.5783 41.4351C13.816 41.3959 14.074 41.1623 14.1901 40.9638C14.3197 40.7436 14.3738 40.4195 14.2941 40.1724C14.2144 39.9239 14.0604 39.6849 13.8228 39.5606C13.5648 39.4215 13.319 39.408 13.0327 39.4553Z" fill="white"/>
<path d="M6.73828 50.3135V52.2785V55.4332V56.1557C6.73828 56.6905 7.2096 57.2063 7.7633 57.1807C8.31969 57.1564 8.78967 56.731 8.78967 56.1557V54.1907V51.036V50.3135C8.78967 49.7774 8.31699 49.2629 7.7633 49.2885C7.20825 49.3128 6.73828 49.7382 6.73828 50.3135Z" fill="white"/>
<path d="M44.7299 25.3281C44.7286 25.7252 44.7016 26.1208 44.6489 26.5138C44.6624 26.4234 44.6745 26.3315 44.6853 26.241C44.58 27.0041 44.3761 27.7468 44.079 28.4585C44.1128 28.3748 44.1492 28.2951 44.1816 28.2114C44.0101 28.6138 43.813 29.0028 43.5847 29.3755C43.4754 29.5538 43.3579 29.728 43.235 29.8981C43.2012 29.9467 43.1647 29.9954 43.1296 30.0426C43.1161 30.0615 43.1012 30.0777 43.0904 30.0966C43.031 30.179 43.1863 29.9562 43.1809 29.9778C43.158 30.0615 43.0256 30.1723 42.9703 30.2371C42.6907 30.568 42.3868 30.8786 42.0614 31.1649C41.9831 31.2337 41.9047 31.3013 41.8237 31.3661C41.7832 31.3985 41.7413 31.4309 41.7008 31.4633C41.6724 31.4876 41.5982 31.543 41.7346 31.439C41.8858 31.3188 41.7589 31.4174 41.7305 31.4404C41.5631 31.566 41.3916 31.6848 41.2133 31.7982C40.796 32.067 40.3557 32.2979 39.8979 32.4924C39.9803 32.46 40.0614 32.4235 40.1437 32.3897C39.4347 32.6882 38.6919 32.8908 37.9276 32.9961C38.0181 32.984 38.1099 32.9718 38.2004 32.961C37.4131 33.0636 36.6163 33.0636 35.829 32.961C35.9181 32.9732 36.0099 32.9853 36.1017 32.9961C35.3387 32.8908 34.596 32.6869 33.8843 32.3897C33.968 32.4235 34.0477 32.46 34.1314 32.4924C33.7276 32.3209 33.34 32.1237 32.9673 31.8955C32.7891 31.7861 32.6148 31.6699 32.4446 31.5457C32.396 31.5119 32.3474 31.4755 32.3002 31.4417C32.2812 31.4269 32.2637 31.4134 32.2461 31.4012C32.1637 31.3418 32.3866 31.4984 32.365 31.4917C32.2813 31.4687 32.1705 31.3364 32.1057 31.281C31.7748 31.0015 31.4642 30.6976 31.1793 30.3735C31.1091 30.2938 31.0415 30.2155 30.9754 30.1345C30.9443 30.0953 30.9105 30.0521 30.8795 30.0116C30.8538 29.9832 30.7984 29.9103 30.9038 30.0453C31.0226 30.1966 30.9254 30.0696 30.9024 30.0413C30.7768 29.8738 30.658 29.7023 30.5446 29.5254C30.2758 29.1067 30.0449 28.6665 29.849 28.2087C29.8828 28.2924 29.9193 28.3721 29.9517 28.4558C29.6546 27.7455 29.4507 27.0027 29.3453 26.2383C29.3588 26.3288 29.371 26.4206 29.3818 26.5111C29.2778 25.7238 29.2778 24.927 29.3818 24.1397C29.3697 24.2288 29.3575 24.322 29.3453 24.4125C29.4507 23.6508 29.6546 22.9067 29.9517 22.195C29.9193 22.2787 29.8828 22.3584 29.849 22.4422C30.0192 22.0397 30.2191 21.6508 30.4473 21.278C30.5567 21.0998 30.6729 20.9256 30.7957 20.7554C30.8295 20.7068 30.8673 20.6582 30.9011 20.6109C30.9146 20.592 30.9294 20.5744 30.9416 20.5569C31.001 20.4745 30.8443 20.6973 30.8497 20.6757C30.8727 20.592 31.0064 20.4813 31.0618 20.4164C31.3413 20.0856 31.6438 19.775 31.9679 19.4887C32.049 19.4211 32.1273 19.3523 32.207 19.2874C32.2475 19.255 32.2907 19.2213 32.3312 19.1902C32.3596 19.1646 32.4312 19.1092 32.2975 19.2145C32.1449 19.3334 32.2732 19.2361 32.3015 19.2132C32.469 19.0876 32.6405 18.9687 32.8174 18.8553C33.236 18.5865 33.6749 18.3556 34.1341 18.1612C34.0504 18.1936 33.9707 18.23 33.887 18.2624C34.5973 17.9653 35.3401 17.7614 36.1045 17.6574C36.0126 17.6696 35.9208 17.6817 35.8316 17.6925C36.619 17.5885 37.4158 17.5885 38.2031 17.6925C38.1126 17.6804 38.0208 17.6682 37.9303 17.6574C38.6933 17.7614 39.4361 17.9667 40.1464 18.2624C40.064 18.23 39.983 18.1936 39.9006 18.1612C40.3031 18.3327 40.692 18.5298 41.0647 18.7581C41.243 18.8674 41.4172 18.9836 41.5874 19.1065C41.636 19.1416 41.6846 19.1781 41.7319 19.2118C41.7494 19.2253 41.767 19.2402 41.7859 19.2523C41.8683 19.3118 41.6454 19.1551 41.6657 19.1605C41.7508 19.1848 41.8615 19.3172 41.9263 19.3725C42.2572 19.6521 42.5665 19.9546 42.8514 20.28C42.923 20.3597 42.9905 20.438 43.0554 20.5177C43.0878 20.5582 43.1202 20.6015 43.1526 20.642C43.1769 20.6703 43.2322 20.7419 43.1269 20.6082C43.0081 20.4556 43.1067 20.5839 43.1283 20.6123C43.2552 20.7797 43.374 20.9512 43.4875 21.1281C43.7562 21.5468 43.9872 21.987 44.1816 22.4449C44.1492 22.3611 44.1128 22.2814 44.079 22.1977C44.3775 22.9081 44.58 23.6522 44.6853 24.4152C44.6732 24.3247 44.6611 24.2315 44.6489 24.1424C44.7029 24.5354 44.7286 24.9311 44.7299 25.3281C44.7313 25.8629 45.1999 26.3788 45.755 26.3531C46.31 26.3288 46.7826 25.9034 46.7813 25.3281C46.7759 23.3497 46.1736 21.355 45.0203 19.7412C43.8386 18.0828 42.2207 16.8417 40.3098 16.1368C38.4259 15.4413 36.2868 15.3832 34.3569 15.9315C32.496 16.4596 30.7741 17.5588 29.5439 19.0538C28.2285 20.6528 27.4438 22.5704 27.2818 24.6367C27.1265 26.6219 27.6248 28.6705 28.6566 30.3735C29.6546 32.0184 31.1563 33.3904 32.9133 34.1832C33.8978 34.6275 34.8998 34.9016 35.9734 35.0299C36.9904 35.1515 38.0275 35.0853 39.0309 34.8841C40.9324 34.4992 42.7245 33.4904 44.0641 32.0899C45.4092 30.6827 46.3532 28.8569 46.6476 26.9271C46.7273 26.3963 46.7827 25.8656 46.784 25.3295C46.7854 24.7933 46.3113 24.2788 45.7576 24.3045C45.1985 24.3274 44.7313 24.7528 44.7299 25.3281Z" fill="white"/>
<path d="M8.10854 23.1084H9.49681H12.8095H16.834H20.2979C20.8597 23.1084 21.4242 23.1246 21.986 23.1084C21.9941 23.1084 22.0022 23.1084 22.0117 23.1084L20.9853 22.0834V23.469V26.7831V30.8075V34.2701C20.9853 34.8319 20.9678 35.3964 20.9853 35.9582C20.9853 35.9663 20.9853 35.9744 20.9853 35.9852C21.327 35.6422 21.6687 35.2992 22.0117 34.9575H20.6247H17.3107H13.2862H9.82231C9.26051 34.9575 8.69601 34.9413 8.13422 34.9575C8.12611 34.9575 8.11799 34.9575 8.10854 34.9575C8.45156 35.2992 8.79324 35.6422 9.13491 35.9852V34.5969V31.2828V27.2598V23.7958C9.13491 23.234 9.14707 22.6695 9.13491 22.1077V22.0834C9.13491 21.5459 8.66224 21.0327 8.10854 21.0557C7.55485 21.0827 7.08353 21.5068 7.08353 22.0834V23.469V26.7831V30.8075V34.2701C7.08353 34.8319 7.07137 35.3964 7.08353 35.9582C7.08353 35.9663 7.08353 35.9744 7.08353 35.9852C7.08353 36.5375 7.55485 37.0102 8.10854 37.0102H9.49681H12.8095H16.834H20.2979C20.8597 37.0102 21.4229 37.0224 21.986 37.0102C21.9941 37.0102 22.0022 37.0102 22.0117 37.0102C22.564 37.0102 23.0367 36.5389 23.0367 35.9852V34.5969V31.2828V27.2598V23.7958C23.0367 23.234 23.0488 22.6695 23.0367 22.1077C23.0367 22.0996 23.0367 22.0915 23.0367 22.0834C23.0367 21.5284 22.5654 21.0557 22.0117 21.0557H20.6247H17.3107H13.2862H9.82231C9.26051 21.0557 8.69736 21.0435 8.13422 21.0557C8.12611 21.0557 8.11799 21.0557 8.10854 21.0557C7.57375 21.0557 7.05922 21.5297 7.08353 22.0834C7.10784 22.6371 7.53324 23.1084 8.10854 23.1084Z" fill="white"/>
<path d="M51.5751 36.2366C51.802 35.7829 52.0289 35.3305 52.2544 34.8767C52.8 33.7882 53.3456 32.6998 53.8885 31.6113C54.5462 30.2919 55.2066 28.9765 55.8642 27.6598C56.4328 26.52 57.004 25.3815 57.5726 24.2444C57.8481 23.6921 58.1411 23.1465 58.4004 22.5847C58.4058 22.5766 58.4099 22.5698 58.4126 22.5617H56.6407C56.8676 23.0155 57.0945 23.4679 57.3214 23.9217C57.8656 25.0115 58.4112 26.0986 58.9541 27.1871C59.6118 28.5065 60.2722 29.8219 60.9299 31.1386C61.4998 32.2784 62.0697 33.4169 62.6382 34.554C62.9151 35.1063 63.1757 35.6681 63.4661 36.2137C63.4715 36.2218 63.4755 36.2285 63.4796 36.2366L64.3628 34.6931H63.0056H59.7455H55.7832H52.3719C51.8196 34.6931 51.2672 34.6809 50.7135 34.6931C50.7054 34.6944 50.6973 34.6931 50.6879 34.6931C50.1531 34.6931 49.6399 35.1657 49.6629 35.7194C49.6885 36.2745 50.1139 36.7444 50.6879 36.7444H52.0465H55.3051H59.2701H62.6801C63.2324 36.7444 63.7861 36.7566 64.3398 36.7444C64.3479 36.7444 64.356 36.7444 64.3628 36.7444C64.7261 36.7444 65.0664 36.5486 65.2487 36.2366C65.4445 35.9044 65.4162 35.5357 65.2487 35.2022C65.0218 34.7484 64.7949 34.2947 64.5694 33.8396C64.0251 32.7511 63.4796 31.6639 62.9353 30.5741C62.2776 29.2574 61.6186 27.942 60.9596 26.6226C60.391 25.4842 59.8211 24.3457 59.2526 23.2086C58.9771 22.6576 58.7151 22.0945 58.4234 21.5502C58.4193 21.5421 58.4153 21.534 58.4112 21.5273C58.0777 20.8574 56.9757 20.8574 56.6394 21.5273C56.4125 21.9797 56.1856 22.4334 55.9601 22.8872C55.4145 23.9757 54.8703 25.0642 54.326 26.1527C53.6684 27.4694 53.0093 28.7861 52.3516 30.1041C51.7817 31.2426 51.2132 32.3824 50.6433 33.5195C50.3678 34.0718 50.0855 34.6201 49.8141 35.1765C49.8101 35.1846 49.806 35.1941 49.8033 35.2022C49.5616 35.6802 49.6602 36.3339 50.1693 36.6053C50.6352 36.8498 51.3186 36.7485 51.5751 36.2366Z" fill="white"/>
</svg>
