<svg width="75" height="74" viewBox="0 0 75 74" fill="none" xmlns="http://www.w3.org/2000/svg">
<path d="M34.011 47.5871H49.9605M34.011 47.5871L41.1022 39.0748M34.011 47.5871L27.739 55.1162H49.9605V47.5871M49.9605 47.5871V39.0748M49.9605 39.0748H41.1022M49.9605 39.0748V30.8291M41.1022 39.0748L48.9713 29.6316M49.9605 30.8291V28.4449L48.9713 29.6316M49.9605 30.8291C49.6496 30.4126 49.3189 30.0129 48.9713 29.6316M26.0928 47.5871L13.0022 63.5412H57.3932V47.5871M57.3932 47.5871V25.436M57.3932 47.5871H66.057V39.1453H66.0585H62.2013C62.0405 34.0095 60.2734 29.2825 57.3932 25.436M57.3932 25.436V9.4375L49.743 18.7613M49.743 18.7613L43.8018 26.001M49.743 18.7613C46.2763 16.8396 42.2919 15.7371 38.0458 15.7371C24.9521 15.7371 14.3007 26.1511 13.8934 39.1438H9.79883V47.5855H26.0928L33.0754 39.0748M43.8033 26.001L33.0754 39.0748M33.0754 39.0748H23.2018M23.2018 39.0748C23.5357 31.1598 30.0496 24.8434 38.0458 24.8434C40.0869 24.8434 42.0332 25.2584 43.8018 26.001M23.2018 39.0748H33.0739L43.8018 26.001" stroke="white" stroke-width="1.13" stroke-miterlimit="10" stroke-linecap="round" stroke-linejoin="round"/>
</svg>
