<svg width="23" height="21" viewBox="0 0 23 21" fill="none" xmlns="http://www.w3.org/2000/svg">
<path d="M10.5389 0.314765C10.7151 -0.104922 11.3154 -0.104922 11.4916 0.314766L14.1694 6.6915C14.2437 6.86843 14.4117 6.98932 14.6045 7.00463L21.5551 7.55654C22.0125 7.59286 22.198 8.1583 21.8495 8.454L16.5539 12.9469C16.407 13.0716 16.3428 13.2672 16.3877 13.4536L18.0056 20.1714C18.1121 20.6136 17.6264 20.963 17.2348 20.7261L11.2842 17.1262C11.1191 17.0263 10.9114 17.0263 10.7463 17.1262L4.79569 20.7261C4.40405 20.963 3.91843 20.6136 4.02491 20.1714L5.6428 13.4536C5.68769 13.2672 5.62352 13.0716 5.47659 12.9469L0.181019 8.454C-0.167511 8.1583 0.0179794 7.59286 0.475431 7.55654L7.42596 7.00463C7.61881 6.98932 7.7868 6.86843 7.8611 6.6915L10.5389 0.314765Z" fill="#FF8E00"/>
</svg>
