<svg width="24" height="24" viewBox="0 0 24 24" fill="none" xmlns="http://www.w3.org/2000/svg">
<path d="M13.1001 19C12.9023 18.9992 12.7092 18.9397 12.5452 18.8292C12.3812 18.7186 12.2537 18.5619 12.1788 18.3789C12.1039 18.1958 12.0849 17.9947 12.1243 17.8009C12.1637 17.6071 12.2596 17.4293 12.4001 17.29L17.0001 12.71C17.0938 12.617 17.1682 12.5064 17.219 12.3846C17.2697 12.2627 17.2959 12.132 17.2959 12C17.2959 11.868 17.2697 11.7373 17.219 11.6154C17.1682 11.4936 17.0938 11.383 17.0001 11.29L12.4001 6.71C12.3063 6.61704 12.2319 6.50644 12.1812 6.38458C12.1304 6.26272 12.1043 6.13201 12.1043 6C12.1043 5.86799 12.1304 5.73728 12.1812 5.61542C12.2319 5.49356 12.3063 5.38296 12.4001 5.29C12.5874 5.10375 12.8409 4.99921 13.1051 4.99921C13.3692 4.99921 13.6227 5.10375 13.8101 5.29L18.4001 9.88C18.9619 10.4425 19.2774 11.205 19.2774 12C19.2774 12.795 18.9619 13.5575 18.4001 14.12L13.8101 18.71C13.7166 18.8027 13.6058 18.876 13.484 18.9258C13.3621 18.9755 13.2317 19.0008 13.1001 19Z" fill="#021700"/>
<path d="M6.10006 19C5.90228 18.9992 5.7092 18.9397 5.54521 18.8292C5.38123 18.7186 5.25371 18.5619 5.17879 18.3789C5.10386 18.1958 5.08489 17.9947 5.12428 17.8009C5.16366 17.6071 5.25963 17.4293 5.40006 17.29L10.6901 12L5.40006 6.71C5.30633 6.61704 5.23193 6.50644 5.18116 6.38458C5.1304 6.26272 5.10426 6.13201 5.10426 6C5.10426 5.86799 5.1304 5.73728 5.18116 5.61542C5.23193 5.49356 5.30633 5.38296 5.40006 5.29C5.58742 5.10375 5.84087 4.99921 6.10506 4.99921C6.36924 4.99921 6.62269 5.10375 6.81006 5.29L12.8101 11.29C12.9038 11.383 12.9782 11.4936 13.0289 11.6154C13.0797 11.7373 13.1059 11.868 13.1059 12C13.1059 12.132 13.0797 12.2627 13.0289 12.3846C12.9782 12.5064 12.9038 12.617 12.8101 12.71L6.81006 18.71C6.71662 18.8027 6.6058 18.876 6.48396 18.9258C6.36212 18.9755 6.23166 19.0008 6.10006 19Z" fill="#021700"/>
</svg>
