<svg width="24" height="24" viewBox="0 0 24 24" fill="none" xmlns="http://www.w3.org/2000/svg">
<path d="M17.7099 12.71C17.617 12.6163 17.5064 12.5419 17.3845 12.4911C17.2627 12.4403 17.1319 12.4142 16.9999 12.4142C16.8679 12.4142 16.7372 12.4403 16.6154 12.4911C16.4935 12.5419 16.3829 12.6163 16.2899 12.71L12.9999 16V5.99998C12.9999 5.73477 12.8946 5.48041 12.707 5.29288C12.5195 5.10534 12.2652 4.99998 11.9999 4.99998C11.7347 4.99998 11.4804 5.10534 11.2928 5.29288C11.1053 5.48041 10.9999 5.73477 10.9999 5.99998V16L7.70994 12.71C7.61697 12.6163 7.50637 12.5419 7.38451 12.4911C7.26266 12.4403 7.13195 12.4142 6.99994 12.4142C6.86793 12.4142 6.73722 12.4403 6.61536 12.4911C6.4935 12.5419 6.3829 12.6163 6.28994 12.71C6.10369 12.8973 5.99915 13.1508 5.99915 13.415C5.99915 13.6792 6.10369 13.9326 6.28994 14.12L10.5899 18.41C10.9633 18.7856 11.4704 18.9978 11.9999 19C12.526 18.9951 13.029 18.7831 13.3999 18.41L17.6999 14.12C17.8875 13.9339 17.9939 13.6812 17.9957 13.417C17.9976 13.1529 17.8949 12.8987 17.7099 12.71Z" fill="#021700"/>
</svg>
