<svg width="24" height="24" viewBox="0 0 24 24" fill="none" xmlns="http://www.w3.org/2000/svg">
<path d="M18.0001 12C17.9953 11.4739 17.7833 10.9709 17.4101 10.6L13.1201 6.29999C12.9328 6.11374 12.6793 6.0092 12.4151 6.0092C12.1509 6.0092 11.8975 6.11374 11.7101 6.29999C11.6164 6.39296 11.542 6.50356 11.4912 6.62542C11.4405 6.74728 11.4143 6.87798 11.4143 7.00999C11.4143 7.142 11.4405 7.27271 11.4912 7.39457C11.542 7.51643 11.6164 7.62703 11.7101 7.71999L15.0001 11H5.00012C4.73491 11 4.48055 11.1053 4.29302 11.2929C4.10548 11.4804 4.00012 11.7348 4.00012 12C4.00012 12.2652 4.10548 12.5196 4.29302 12.7071C4.48055 12.8946 4.73491 13 5.00012 13H15.0001L11.7101 16.29C11.5218 16.477 11.4155 16.7311 11.4146 16.9964C11.4136 17.2618 11.5181 17.5167 11.7051 17.705C11.8921 17.8933 12.1462 17.9996 12.4116 18.0005C12.677 18.0015 12.9318 17.897 13.1201 17.71L17.4101 13.41C17.7857 13.0366 17.9979 12.5296 18.0001 12Z" fill="#021700"/>
</svg>
