<svg width="24" height="24" viewBox="0 0 24 24" fill="none" xmlns="http://www.w3.org/2000/svg">
<g clip-path="url(#clip0_195_76364)">
<path d="M20.5368 12.7L19.4068 12L20.5378 11.3C21.3231 10.8331 21.9312 10.1188 22.2668 9.26902C22.4769 8.70716 22.5552 8.10458 22.4957 7.5077C22.4362 6.91081 22.2405 6.33555 21.9236 5.82623C21.6067 5.31691 21.1772 4.88713 20.668 4.57C20.1588 4.25286 19.5837 4.05683 18.9868 3.99702C18.0762 3.92253 17.1666 4.15257 16.4008 4.65102L15.9998 4.90002V4.17202C16.0167 3.15677 15.6578 2.17111 14.9919 1.4045C14.3261 0.637889 13.4004 0.144443 12.3928 0.0190176C11.8371 -0.035851 11.276 0.0262625 10.7457 0.20136C10.2154 0.376456 9.72762 0.660657 9.31381 1.03566C8.89999 1.41067 8.56928 1.86818 8.34298 2.37873C8.11667 2.88928 7.99978 3.44156 7.99983 4.00002V4.90002L7.59983 4.65002C6.83423 4.15016 5.92416 3.91904 5.01283 3.99302C4.41587 4.05231 3.8405 4.24789 3.33107 4.56467C2.82163 4.88146 2.39175 5.311 2.07455 5.82018C1.75736 6.32936 1.56132 6.90457 1.50155 7.50148C1.44178 8.0984 1.51988 8.70106 1.72983 9.26302C2.06547 10.113 2.67401 10.8275 3.45983 11.294L4.59283 12L3.46183 12.7C2.67653 13.1669 2.0684 13.8813 1.73283 14.731C1.52247 15.2933 1.44414 15.8964 1.5039 16.4938C1.56365 17.0912 1.75988 17.6668 2.07744 18.1763C2.395 18.6858 2.82539 19.1155 3.33539 19.4322C3.84539 19.7489 4.42136 19.9442 5.01883 20.003C5.92747 20.0773 6.8351 19.8483 7.59983 19.352L7.99983 19.1V20C7.99983 21.0609 8.42125 22.0783 9.1714 22.8284C9.92155 23.5786 10.939 24 11.9998 24C13.0607 24 14.0781 23.5786 14.8283 22.8284C15.5784 22.0783 15.9998 21.0609 15.9998 20V19.1L16.3998 19.351C17.1641 19.8477 18.0713 20.0773 18.9798 20.004C19.5771 19.945 20.1529 19.7495 20.6626 19.4326C21.1724 19.1158 21.6025 18.686 21.9199 18.1766C22.2372 17.6671 22.4333 17.0916 22.4929 16.4943C22.5525 15.8971 22.4742 15.2942 22.2638 14.732C21.9288 13.8823 21.3214 13.1676 20.5368 12.7ZM20.2258 17.118C19.9571 17.5492 19.5281 17.856 19.0333 17.971C18.5384 18.0859 18.0181 17.9996 17.5868 17.731L15.5278 16.449C15.3763 16.3548 15.2023 16.3028 15.0239 16.2986C14.8455 16.2943 14.6692 16.3378 14.5133 16.4246C14.3574 16.5114 14.2275 16.6384 14.1372 16.7923C14.047 16.9463 13.9995 17.1216 13.9998 17.3V20C13.9998 20.5305 13.7891 21.0392 13.414 21.4142C13.039 21.7893 12.5303 22 11.9998 22C11.4694 22 10.9607 21.7893 10.5856 21.4142C10.2105 21.0392 9.99983 20.5305 9.99983 20V17.3C9.99978 17.1217 9.95208 16.9467 9.86165 16.7931C9.77122 16.6394 9.64136 16.5127 9.48552 16.4261C9.32967 16.3395 9.15351 16.2962 8.97528 16.3006C8.79705 16.3049 8.62323 16.3569 8.47183 16.451L6.41283 17.735C6.1993 17.868 5.96167 17.9576 5.71351 17.9987C5.46535 18.0398 5.21152 18.0317 4.96652 17.9747C4.72151 17.9178 4.49012 17.8131 4.28557 17.6667C4.08101 17.5203 3.90729 17.335 3.77433 17.1215C3.64136 16.908 3.55176 16.6704 3.51063 16.4222C3.4695 16.174 3.47766 15.9202 3.53463 15.6752C3.59159 15.4302 3.69626 15.1988 3.84266 14.9943C3.98905 14.7897 4.1743 14.616 4.38783 14.483L7.01283 12.849C7.15754 12.7593 7.27695 12.6342 7.35977 12.4854C7.44258 12.3367 7.48604 12.1693 7.48604 11.999C7.48604 11.8288 7.44258 11.6613 7.35977 11.5126C7.27695 11.3638 7.15754 11.2387 7.01283 11.149L4.38783 9.51602C3.95659 9.24749 3.64968 8.81864 3.53463 8.32383C3.41957 7.82901 3.5058 7.30876 3.77433 6.87752C4.04286 6.44628 4.4717 6.13937 4.96652 6.02432C5.46133 5.90926 5.98159 5.99549 6.41283 6.26402L8.47183 7.54602C8.62302 7.64002 8.79656 7.69195 8.97454 7.69646C9.15251 7.70096 9.32846 7.65787 9.48421 7.57164C9.63996 7.4854 9.76987 7.35915 9.86051 7.20592C9.95116 7.0527 9.99925 6.87805 9.99983 6.70002V4.10702C9.98903 3.62017 10.1498 3.14503 10.454 2.76477C10.7582 2.38451 11.1865 2.12335 11.6638 2.02702C11.9509 1.9781 12.2452 1.99245 12.5261 2.06908C12.807 2.1457 13.0679 2.28276 13.2903 2.47065C13.5128 2.65855 13.6916 2.89276 13.8141 3.15692C13.9367 3.42108 14 3.70882 13.9998 4.00002V6.70002C14 6.87822 14.0479 7.05312 14.1384 7.20663C14.2289 7.36014 14.3588 7.48668 14.5146 7.57315C14.6704 7.65962 14.8465 7.70289 15.0246 7.69847C15.2028 7.69405 15.3765 7.64211 15.5278 7.54802L17.5868 6.26702C17.8004 6.13406 18.038 6.04445 18.2861 6.00332C18.5343 5.9622 18.7881 5.97035 19.0331 6.02732C19.2781 6.08429 19.5095 6.18895 19.7141 6.33535C19.9186 6.48174 20.0924 6.66699 20.2253 6.88052C20.3583 7.09405 20.4479 7.33168 20.489 7.57983C20.5301 7.82799 20.522 8.08182 20.465 8.32683C20.4081 8.57184 20.3034 8.80322 20.157 9.00778C20.0106 9.21234 19.8254 9.38605 19.6118 9.51902L16.9868 11.153C16.8421 11.2427 16.7227 11.3678 16.6399 11.5166C16.5571 11.6653 16.5136 11.8328 16.5136 12.003C16.5136 12.1733 16.5571 12.3407 16.6399 12.4894C16.7227 12.6382 16.8421 12.7633 16.9868 12.853L19.6118 14.487C19.8255 14.6198 20.0109 14.7934 20.1574 14.9979C20.3039 15.2024 20.4086 15.4337 20.4657 15.6787C20.5227 15.9237 20.5309 16.1776 20.4897 16.4258C20.4486 16.6739 20.3589 16.9115 20.2258 17.125V17.118Z" fill="#021700"/>
</g>
<defs>
<clipPath id="clip0_195_76364">
<rect width="24" height="24" fill="white"/>
</clipPath>
</defs>
</svg>
