<svg width="24" height="24" viewBox="0 0 24 24" fill="none" xmlns="http://www.w3.org/2000/svg">
<g clip-path="url(#clip0_195_76376)">
<path d="M19.4999 9H18.9999V7C18.9999 6.73478 18.8945 6.48043 18.707 6.29289C18.5194 6.10535 18.2651 6 17.9999 6C18.0126 5.29068 17.8316 4.59132 17.4764 3.97724C17.1211 3.36315 16.6051 2.85759 15.9839 2.515C15.2656 2.11522 14.4436 1.94099 13.6249 2.015C13.5233 2.0276 13.4201 2.01369 13.3255 1.97461C13.2309 1.93553 13.148 1.87262 13.0849 1.792C12.6496 1.2218 12.0846 0.763684 11.4368 0.455685C10.7889 0.147685 10.077 -0.00130504 9.35999 0.0210883C8.64301 0.0434817 7.94172 0.236612 7.31437 0.58444C6.68701 0.932268 6.15169 1.42475 5.75288 2.021C4.73842 2.08208 3.78543 2.52768 3.08811 3.267C2.39078 4.00631 2.0016 4.9837 1.99988 6C1.73466 6 1.48031 6.10535 1.29277 6.29289C1.10523 6.48043 0.999878 6.73478 0.999878 7V19C1.00147 20.3256 1.52876 21.5964 2.4661 22.5338C3.40344 23.4711 4.67428 23.9984 5.99988 24H13.9999C15.3255 23.9984 16.5963 23.4711 17.5337 22.5338C18.471 21.5964 18.9983 20.3256 18.9999 19H19.4999C20.4281 19 21.3184 18.6312 21.9748 17.9749C22.6311 17.3185 22.9999 16.4283 22.9999 15.5V12.5C22.9999 11.5717 22.6311 10.6815 21.9748 10.0251C21.3184 9.36875 20.4281 9 19.4999 9ZM5.99988 4C6.05739 4.00187 6.11462 4.0089 6.17088 4.021C6.38638 4.05604 6.60744 4.01958 6.80028 3.9172C6.99313 3.81482 7.14717 3.65214 7.23888 3.454C7.42171 3.06585 7.70136 2.7313 8.05092 2.48251C8.40047 2.23373 8.80818 2.0791 9.23479 2.0335C9.66141 1.98789 10.0926 2.05285 10.4868 2.22212C10.8811 2.39139 11.2251 2.65927 11.4859 3C11.7539 3.35596 12.1096 3.63632 12.5183 3.81369C12.9271 3.99107 13.3748 4.0594 13.8179 4.012C14.245 3.97835 14.6725 4.0727 15.0459 4.283C15.3435 4.45824 15.5888 4.70981 15.7565 5.01168C15.9242 5.31355 16.0083 5.65476 15.9999 6H11.9999C11.2042 6 10.4412 6.31607 9.87856 6.87868C9.31595 7.44128 8.99988 8.20435 8.99988 9V12C8.99988 12.2652 8.89452 12.5196 8.70698 12.7071C8.51945 12.8946 8.26509 13 7.99988 13C7.73466 13 7.48031 12.8946 7.29277 12.7071C7.10524 12.5196 6.99988 12.2652 6.99988 12V9C6.99988 8.20435 6.68381 7.44128 6.1212 6.87868C5.55859 6.31607 4.79553 6 3.99988 6C3.99988 5.46956 4.21059 4.96086 4.58566 4.58578C4.96074 4.21071 5.46944 4 5.99988 4ZM16.9999 19C16.9999 19.7956 16.6838 20.5587 16.1212 21.1213C15.5586 21.6839 14.7955 22 13.9999 22H5.99988C5.20423 22 4.44117 21.6839 3.87856 21.1213C3.31595 20.5587 2.99988 19.7956 2.99988 19V8H3.99988C4.26509 8 4.51945 8.10535 4.70698 8.29289C4.89452 8.48043 4.99988 8.73478 4.99988 9V12C4.99988 12.7956 5.31595 13.5587 5.87856 14.1213C6.44117 14.6839 7.20423 15 7.99988 15C8.79553 15 9.55859 14.6839 10.1212 14.1213C10.6838 13.5587 10.9999 12.7956 10.9999 12V9C10.9999 8.73478 11.1052 8.48043 11.2928 8.29289C11.4803 8.10535 11.7347 8 11.9999 8H16.9999V19ZM20.9999 15.5C20.9999 15.8978 20.8418 16.2794 20.5605 16.5607C20.2792 16.842 19.8977 17 19.4999 17H18.9999V11H19.4999C19.8977 11 20.2792 11.158 20.5605 11.4393C20.8418 11.7206 20.9999 12.1022 20.9999 12.5V15.5Z" fill="#021700"/>
</g>
<defs>
<clipPath id="clip0_195_76376">
<rect width="24" height="24" fill="white"/>
</clipPath>
</defs>
</svg>
