<svg width="24" height="24" viewBox="0 0 24 24" fill="none" xmlns="http://www.w3.org/2000/svg">
<g clip-path="url(#clip0_195_76377)">
<path d="M20.8588 15.331L17.0868 21.486C16.6726 22.166 16.1087 22.7426 15.4381 23.1718C14.7675 23.601 14.0078 23.8717 13.2168 23.963C13.0084 23.9878 12.7987 24.0001 12.5888 24C11.5143 23.9986 10.4665 23.665 9.58881 23.045C8.68187 23.7245 7.56155 24.0566 6.43082 23.9812C5.3001 23.9059 4.23378 23.4279 3.42506 22.6341C2.61634 21.8403 2.11873 20.783 2.02237 19.6539C1.92602 18.5247 2.2373 17.3984 2.89982 16.479L1.58482 15.166C1.02331 14.6045 0.596131 13.9232 0.335267 13.1732C0.0744026 12.4231 -0.0133848 11.6238 0.0784792 10.835C0.170343 10.0462 0.439478 9.28844 0.865727 8.61842C1.29198 7.9484 1.86429 7.38351 2.53982 6.96604L8.30682 3.40004C9.86903 2.39881 11.7062 1.91339 13.5591 2.01225C15.4119 2.11111 17.187 2.78927 18.6338 3.95104L20.2928 2.29204C20.3851 2.19653 20.4954 2.12034 20.6174 2.06793C20.7394 2.01553 20.8706 1.98794 21.0034 1.98679C21.1362 1.98563 21.2679 2.01093 21.3908 2.06121C21.5137 2.1115 21.6253 2.18575 21.7192 2.27964C21.8131 2.37353 21.8874 2.48519 21.9376 2.60808C21.9879 2.73098 22.0132 2.86266 22.0121 2.99544C22.0109 3.12822 21.9833 3.25944 21.9309 3.38144C21.8785 3.50344 21.8023 3.61379 21.7068 3.70604L20.0498 5.36404C21.1612 6.75628 21.8318 8.44846 21.9759 10.224C22.12 11.9996 21.7311 13.7778 20.8588 15.331ZM8.06481 21.647L4.34582 17.927C4.05519 18.4468 3.9431 19.0475 4.02673 19.6371C4.11037 20.2267 4.38511 20.7726 4.80882 21.191C5.23624 21.597 5.77989 21.8593 6.36371 21.941C6.94753 22.0228 7.5423 21.92 8.06481 21.647ZM17.9858 6.04704C16.8754 4.92588 15.4136 4.22006 13.845 4.04768C12.2764 3.87529 10.6963 4.2468 9.36882 5.10004L3.59182 8.66604C3.17286 8.925 2.81791 9.2754 2.55357 9.69099C2.28923 10.1066 2.12234 10.5766 2.06539 11.0658C2.00844 11.555 2.06292 12.0508 2.22474 12.516C2.38657 12.9812 2.65154 13.4038 2.99982 13.752L10.2898 21.043C10.6387 21.3923 11.0621 21.6579 11.5284 21.8198C11.9947 21.9818 12.4916 22.036 12.9818 21.9782C13.472 21.9205 13.9428 21.7523 14.3587 21.4864C14.7745 21.2205 15.1247 20.8638 15.3828 20.443L19.1378 14.318C19.8712 13.0008 20.1555 11.4804 19.9477 9.98713C19.7398 8.49385 19.0511 7.10893 17.9858 6.04204V6.04704ZM19.2648 24C19.0536 24.0004 18.8477 23.9339 18.6767 23.8101C18.5056 23.6863 18.3781 23.5115 18.3125 23.3107C18.2469 23.11 18.2465 22.8936 18.3114 22.6927C18.3763 22.4917 18.5032 22.3165 18.6738 22.192C20.4248 20.8756 21.6099 18.9427 21.9888 16.785C22.0154 16.6551 22.0675 16.5318 22.1422 16.4223C22.2169 16.3127 22.3126 16.2191 22.4237 16.1469C22.5349 16.0747 22.6593 16.0253 22.7898 16.0016C22.9202 15.9779 23.0541 15.9803 23.1835 16.0089C23.313 16.0374 23.4355 16.0913 23.544 16.1676C23.6524 16.2439 23.7446 16.341 23.8151 16.4532C23.8857 16.5655 23.9332 16.6906 23.955 16.8214C23.9767 16.9522 23.9723 17.086 23.9418 17.215C23.4518 19.8467 21.9932 22.1991 19.8538 23.808C19.6828 23.9328 19.4765 24 19.2648 24ZM0.999815 5.73904C0.815118 5.73821 0.634257 5.68625 0.477286 5.58892C0.320315 5.49159 0.193368 5.35268 0.11052 5.1876C0.0276712 5.02253 -0.00784092 4.83773 0.00792078 4.65371C0.0236825 4.46968 0.0901021 4.29362 0.199815 4.14504C1.8308 1.96562 4.23163 0.490358 6.91282 0.0200361C7.17273 -0.0330072 7.44307 0.0193717 7.66436 0.16565C7.88565 0.311928 8.03977 0.540124 8.09282 0.800036C8.14586 1.05995 8.09348 1.33029 7.9472 1.55158C7.80092 1.77287 7.57273 1.92699 7.31282 1.98004C5.11079 2.34366 3.13505 3.54566 1.79982 5.33404C1.70719 5.45915 1.58664 5.56092 1.44775 5.63123C1.30887 5.70154 1.15548 5.73846 0.999815 5.73904Z" fill="#021700"/>
</g>
<defs>
<clipPath id="clip0_195_76377">
<rect width="24" height="24" fill="white"/>
</clipPath>
</defs>
</svg>
