<svg width="18" height="17" viewBox="0 0 18 17" fill="none" xmlns="http://www.w3.org/2000/svg">
<g id="Brain" clip-path="url(#clip0_4436_68980)">
<path id="Vector" d="M17.9885 7.79167C17.9885 6.67958 17.4573 5.63833 16.5719 4.9725V4.95833C16.5719 3.6125 15.6298 2.48625 14.376 2.19583C14.0856 0.942083 12.9594 0 11.6135 0C10.7706 0 10.0056 0.375417 9.48853 0.963333C8.97144 0.375417 8.20644 0 7.36353 0C6.01769 0 4.89144 0.942083 4.60103 2.19583C3.34728 2.48625 2.40519 3.6125 2.40519 4.95833V4.9725C1.51978 5.63833 0.988525 6.67958 0.988525 7.79167C0.988525 8.42208 1.15853 9.02417 1.47728 9.5625C1.15853 10.1008 0.988525 10.7029 0.988525 11.3333C0.988525 12.5304 1.59769 13.6283 2.59644 14.2871C3.10644 15.9021 4.58686 17 6.30103 17C7.61853 17 8.78019 16.3412 9.48853 15.3425C10.1969 16.3412 11.3585 17 12.676 17C14.3902 17 15.8706 15.895 16.3806 14.2871C17.3794 13.6354 17.9885 12.5304 17.9885 11.3333C17.9885 10.7029 17.8185 10.1008 17.4998 9.5625C17.8185 9.02417 17.9885 8.42208 17.9885 7.79167ZM6.30103 15.5833C5.14644 15.5833 4.15478 14.79 3.89269 13.6638L3.82186 13.3521L3.53853 13.2033C2.84436 12.8279 2.40519 12.1125 2.40519 11.3404C2.40519 10.8658 2.56811 10.4054 2.88686 10.0158L3.24811 9.56958L2.88686 9.12333C2.57519 8.73375 2.40519 8.27333 2.40519 7.79875C2.40519 7.04083 2.82311 6.3325 3.49603 5.95708L3.93519 5.70917C3.93519 5.70917 3.82186 5.05042 3.82186 4.96542C3.82186 4.18625 4.45936 3.54875 5.23853 3.54875H5.94686V2.84042C5.94686 2.06125 6.58436 1.42375 7.36353 1.42375C8.14269 1.42375 8.78019 2.06125 8.78019 2.84042V13.1112C8.78019 14.4783 7.66811 15.5904 6.30103 15.5904V15.5833ZM16.0902 10.0087C16.4019 10.3983 16.5719 10.8587 16.5719 11.3333C16.5719 12.1125 16.1398 12.8208 15.4385 13.1962L15.1552 13.345L15.0844 13.6567C14.8223 14.79 13.8306 15.5762 12.676 15.5762C11.3089 15.5762 10.1969 14.4642 10.1969 13.0971V2.83333C10.1969 2.05417 10.8344 1.41667 11.6135 1.41667C12.3927 1.41667 13.0302 2.05417 13.0302 2.83333V3.54167H13.7385C14.5177 3.54167 15.1552 4.17917 15.1552 4.95833C15.1552 5.04333 15.0419 5.70208 15.0419 5.70208L15.481 5.95C16.1539 6.3325 16.5719 7.03375 16.5719 7.79167C16.5719 8.27333 16.4089 8.72667 16.0902 9.11625L15.7289 9.5625L16.0902 10.0087Z" fill="#0A1932"/>
</g>
<defs>
<clipPath id="clip0_4436_68980">
<rect width="17" height="17" fill="white" transform="translate(0.988525)"/>
</clipPath>
</defs>
</svg>
