<svg width="24" height="24" viewBox="0 0 24 24" fill="none" xmlns="http://www.w3.org/2000/svg">
<g clip-path="url(#clip0_195_76400)">
<path d="M18.0001 24H6.00012C4.67453 23.9984 3.40368 23.4711 2.46634 22.5338C1.529 21.5964 1.00171 20.3256 1.00012 19V4.99999C1.00171 3.6744 1.529 2.40355 2.46634 1.46621C3.40368 0.528874 4.67453 0.00158023 6.00012 -7.62939e-06L18.0001 -7.62939e-06C19.3257 0.00158023 20.5966 0.528874 21.5339 1.46621C22.4712 2.40355 22.9985 3.6744 23.0001 4.99999V19C22.9985 20.3256 22.4712 21.5964 21.5339 22.5338C20.5966 23.4711 19.3257 23.9984 18.0001 24ZM6.00012 1.99999C5.20447 1.99999 4.44141 2.31606 3.8788 2.87867C3.31619 3.44128 3.00012 4.20434 3.00012 4.99999V19C3.00012 19.7956 3.31619 20.5587 3.8788 21.1213C4.44141 21.6839 5.20447 22 6.00012 22H18.0001C18.7958 22 19.5588 21.6839 20.1214 21.1213C20.6841 20.5587 21.0001 19.7956 21.0001 19V4.99999C21.0001 4.20434 20.6841 3.44128 20.1214 2.87867C19.5588 2.31606 18.7958 1.99999 18.0001 1.99999H6.00012ZM16.0001 9.99999H8.00012C7.20447 9.99999 6.44141 9.68392 5.8788 9.12131C5.31619 8.5587 5.00012 7.79564 5.00012 6.99999C5.00012 6.20434 5.31619 5.44128 5.8788 4.87867C6.44141 4.31606 7.20447 3.99999 8.00012 3.99999H16.0001C16.7958 3.99999 17.5588 4.31606 18.1214 4.87867C18.6841 5.44128 19.0001 6.20434 19.0001 6.99999C19.0001 7.79564 18.6841 8.5587 18.1214 9.12131C17.5588 9.68392 16.7958 9.99999 16.0001 9.99999ZM8.00012 5.99999C7.73491 5.99999 7.48055 6.10535 7.29302 6.29289C7.10548 6.48042 7.00012 6.73478 7.00012 6.99999C7.00012 7.26521 7.10548 7.51956 7.29302 7.7071C7.48055 7.89464 7.73491 7.99999 8.00012 7.99999H16.0001C16.2653 7.99999 16.5197 7.89464 16.7072 7.7071C16.8948 7.51956 17.0001 7.26521 17.0001 6.99999C17.0001 6.73478 16.8948 6.48042 16.7072 6.29289C16.5197 6.10535 16.2653 5.99999 16.0001 5.99999H8.00012ZM6.00012 13C5.80234 13 5.609 13.0586 5.44455 13.1685C5.2801 13.2784 5.15193 13.4346 5.07624 13.6173C5.00056 13.8 4.98075 14.0011 5.01934 14.1951C5.05792 14.3891 5.15316 14.5672 5.29302 14.7071C5.43287 14.847 5.61105 14.9422 5.80503 14.9808C5.99901 15.0194 6.20008 14.9996 6.38281 14.9239C6.56553 14.8482 6.72171 14.72 6.83159 14.5556C6.94147 14.3911 7.00012 14.1978 7.00012 14C7.00012 13.7348 6.89476 13.4804 6.70723 13.2929C6.51969 13.1053 6.26534 13 6.00012 13ZM10.0001 13C9.80234 13 9.609 13.0586 9.44455 13.1685C9.2801 13.2784 9.15193 13.4346 9.07624 13.6173C9.00056 13.8 8.98075 14.0011 9.01934 14.1951C9.05792 14.3891 9.15316 14.5672 9.29302 14.7071C9.43287 14.847 9.61105 14.9422 9.80503 14.9808C9.99901 15.0194 10.2001 14.9996 10.3828 14.9239C10.5655 14.8482 10.7217 14.72 10.8316 14.5556C10.9415 14.3911 11.0001 14.1978 11.0001 14C11.0001 13.7348 10.8948 13.4804 10.7072 13.2929C10.5197 13.1053 10.2653 13 10.0001 13ZM14.0001 13C13.8023 13 13.609 13.0586 13.4446 13.1685C13.2801 13.2784 13.1519 13.4346 13.0762 13.6173C13.0006 13.8 12.9808 14.0011 13.0193 14.1951C13.0579 14.3891 13.1532 14.5672 13.293 14.7071C13.4329 14.847 13.6111 14.9422 13.805 14.9808C13.999 15.0194 14.2001 14.9996 14.3828 14.9239C14.5655 14.8482 14.7217 14.72 14.8316 14.5556C14.9415 14.3911 15.0001 14.1978 15.0001 14C15.0001 13.7348 14.8948 13.4804 14.7072 13.2929C14.5197 13.1053 14.2653 13 14.0001 13ZM6.00012 17C5.80234 17 5.609 17.0586 5.44455 17.1685C5.2801 17.2784 5.15193 17.4346 5.07624 17.6173C5.00056 17.8 4.98075 18.0011 5.01934 18.1951C5.05792 18.3891 5.15316 18.5672 5.29302 18.7071C5.43287 18.847 5.61105 18.9422 5.80503 18.9808C5.99901 19.0194 6.20008 18.9996 6.38281 18.9239C6.56553 18.8482 6.72171 18.72 6.83159 18.5556C6.94147 18.3911 7.00012 18.1978 7.00012 18C7.00012 17.7348 6.89476 17.4804 6.70723 17.2929C6.51969 17.1053 6.26534 17 6.00012 17ZM10.0001 17C9.80234 17 9.609 17.0586 9.44455 17.1685C9.2801 17.2784 9.15193 17.4346 9.07624 17.6173C9.00056 17.8 8.98075 18.0011 9.01934 18.1951C9.05792 18.3891 9.15316 18.5672 9.29302 18.7071C9.43287 18.847 9.61105 18.9422 9.80503 18.9808C9.99901 19.0194 10.2001 18.9996 10.3828 18.9239C10.5655 18.8482 10.7217 18.72 10.8316 18.5556C10.9415 18.3911 11.0001 18.1978 11.0001 18C11.0001 17.7348 10.8948 17.4804 10.7072 17.2929C10.5197 17.1053 10.2653 17 10.0001 17ZM18.0001 13C17.8023 13 17.609 13.0586 17.4446 13.1685C17.2801 13.2784 17.1519 13.4346 17.0762 13.6173C17.0006 13.8 16.9808 14.0011 17.0193 14.1951C17.0579 14.3891 17.1532 14.5672 17.293 14.7071C17.4329 14.847 17.611 14.9422 17.805 14.9808C17.999 15.0194 18.2001 14.9996 18.3828 14.9239C18.5655 14.8482 18.7217 14.72 18.8316 14.5556C18.9415 14.3911 19.0001 14.1978 19.0001 14C19.0001 13.7348 18.8948 13.4804 18.7072 13.2929C18.5197 13.1053 18.2653 13 18.0001 13ZM19.0001 18C19.0001 17.7348 18.8948 17.4804 18.7072 17.2929C18.5197 17.1053 18.2653 17 18.0001 17H14.0001C13.7349 17 13.4806 17.1053 13.293 17.2929C13.1055 17.4804 13.0001 17.7348 13.0001 18C13.0001 18.2652 13.1055 18.5196 13.293 18.7071C13.4806 18.8946 13.7349 19 14.0001 19H18.0001C18.2653 19 18.5197 18.8946 18.7072 18.7071C18.8948 18.5196 19.0001 18.2652 19.0001 18Z" fill="#021700"/>
</g>
<defs>
<clipPath id="clip0_195_76400">
<rect width="24" height="24" fill="white"/>
</clipPath>
</defs>
</svg>
