<svg width="24" height="24" viewBox="0 0 24 24" fill="none" xmlns="http://www.w3.org/2000/svg">
<g clip-path="url(#clip0_195_76402)">
<path d="M17.7621 24C9.63112 24.275 -5.01686 9.74496 1.78413 1.86696L2.93413 0.86696C3.51625 0.304225 4.29654 -0.00666291 5.10615 0.00157169C5.91576 0.00980628 6.68957 0.336501 7.26012 0.91096C7.29096 0.942364 7.31969 0.97577 7.34612 1.01096L9.14612 3.34996C9.69314 3.9288 9.99708 4.69554 9.99522 5.49196C9.99336 6.28837 9.68584 7.05369 9.13612 7.62996L7.97812 9.08596C8.61924 10.643 9.56154 12.0582 10.7509 13.2501C11.9403 14.4421 13.3534 15.3875 14.9091 16.032L16.3731 14.867C16.9569 14.3308 17.7203 14.0328 18.5129 14.0317C19.3056 14.0306 20.0698 14.3265 20.6551 14.861L22.9951 16.661C23.0301 16.6873 23.0634 16.7157 23.0951 16.746C23.6722 17.3284 23.9959 18.1151 23.9959 18.935C23.9959 19.7548 23.6722 20.5416 23.0951 21.124L22.1841 22.174C21.6063 22.7581 20.9173 23.2206 20.1578 23.5343C19.3983 23.8479 18.5838 24.0062 17.7621 24ZM5.07112 1.99996C4.92742 1.99985 4.78509 2.02805 4.65229 2.08296C4.51948 2.13786 4.3988 2.2184 4.29712 2.31996L3.14613 3.31996C-2.49987 10.108 14.7771 26.423 20.7201 20.808L21.6321 19.757C21.7405 19.6605 21.8288 19.5435 21.8918 19.4127C21.9548 19.282 21.9913 19.1401 21.9992 18.9952C22.0071 18.8502 21.9862 18.7052 21.9378 18.5684C21.8894 18.4316 21.8144 18.3057 21.7171 18.198L19.3901 16.411C19.3545 16.3847 19.321 16.3556 19.2901 16.324C19.0815 16.1251 18.8043 16.0142 18.5161 16.0142C18.2279 16.0142 17.9508 16.1251 17.7421 16.324C17.7156 16.3508 17.6875 16.3762 17.6581 16.4L15.7001 17.96C15.5642 18.0682 15.4024 18.1391 15.2308 18.1657C15.0591 18.1924 14.8834 18.1738 14.7211 18.112C12.7052 17.361 10.8743 16.1855 9.35242 14.6651C7.83051 13.1448 6.65316 11.3151 5.90012 9.29996C5.83346 9.13533 5.81184 8.95591 5.8375 8.78016C5.86316 8.60441 5.93517 8.43866 6.04612 8.29996L7.60012 6.34396C7.62323 6.31433 7.64829 6.28627 7.67512 6.25996C7.87939 6.05395 7.994 5.77558 7.994 5.48546C7.994 5.19534 7.87939 4.91697 7.67512 4.71096C7.64395 4.67986 7.6152 4.64643 7.58912 4.61096L5.80612 2.28696C5.60466 2.10493 5.34265 2.0044 5.07112 2.00496V1.99996ZM22.5641 12.576C27.5541 5.23096 18.7641 -3.55004 11.4271 1.43896C11.3165 1.51283 11.2217 1.60804 11.1483 1.71901C11.0749 1.82997 11.0244 1.95447 10.9997 2.0852C10.9751 2.21593 10.9767 2.35027 11.0046 2.48035C11.0325 2.61043 11.0861 2.73363 11.1622 2.84275C11.2383 2.95186 11.3355 3.04469 11.4479 3.1158C11.5603 3.18691 11.6858 3.23487 11.817 3.25686C11.9482 3.27886 12.0825 3.27446 12.212 3.24391C12.3415 3.21336 12.4636 3.15728 12.5711 3.07896C18.0451 -0.680041 24.6811 5.96296 20.9241 11.433C20.8441 11.5404 20.7865 11.6628 20.7547 11.793C20.7229 11.9231 20.7176 12.0583 20.7391 12.1906C20.7605 12.3228 20.8084 12.4494 20.8797 12.5628C20.951 12.6761 21.0444 12.7741 21.1544 12.8507C21.2643 12.9273 21.3884 12.981 21.5195 13.0087C21.6506 13.0363 21.7859 13.0374 21.9174 13.0118C22.0489 12.9862 22.1739 12.9344 22.285 12.8595C22.3961 12.7846 22.491 12.6882 22.5641 12.576ZM18.7061 10.711C18.8936 10.5234 18.9989 10.2691 18.9989 10.004C18.9989 9.7388 18.8936 9.48449 18.7061 9.29696L17.0001 7.58996V4.99996C17.0001 4.73474 16.8948 4.48039 16.7072 4.29285C16.5197 4.10532 16.2653 3.99996 16.0001 3.99996C15.7349 3.99996 15.4805 4.10532 15.293 4.29285C15.1055 4.48039 15.0001 4.73474 15.0001 4.99996V7.99996C15.0002 8.26516 15.1056 8.51947 15.2931 8.70696L17.2931 10.707C17.4806 10.8944 17.7349 10.9997 18.0001 10.9997C18.2653 10.9997 18.5196 10.8944 18.7071 10.707L18.7061 10.711Z" fill="#021700"/>
</g>
<defs>
<clipPath id="clip0_195_76402">
<rect width="24" height="24" fill="white"/>
</clipPath>
</defs>
</svg>
