<svg width="24" height="24" viewBox="0 0 24 24" fill="none" xmlns="http://www.w3.org/2000/svg">
<g clip-path="url(#clip0_195_76404)">
<path d="M3.00008 7.00007V3.00007C3.00008 2.46964 3.21079 1.96093 3.58586 1.58586C3.96094 1.21078 4.46964 1.00007 5.00008 1.00007H9.00008C9.2653 1.00007 9.51965 1.10543 9.70718 1.29296C9.89472 1.4805 10.0001 1.73485 10.0001 2.00007C10.0001 2.26529 9.89472 2.51964 9.70718 2.70718C9.51965 2.89471 9.2653 3.00007 9.00008 3.00007H6.43908L12.3451 8.92607C12.3656 8.94677 12.3901 8.96318 12.4171 8.97434C12.444 8.9855 12.4729 8.99119 12.5021 8.99107C12.531 8.99129 12.5597 8.98575 12.5865 8.97476C12.6133 8.96377 12.6376 8.94756 12.6581 8.92707L19.5421 2.04307C19.7307 1.86091 19.9833 1.76012 20.2455 1.76239C20.5077 1.76467 20.7585 1.86984 20.9439 2.05525C21.1293 2.24066 21.2345 2.49147 21.2368 2.75367C21.239 3.01586 21.1382 3.26847 20.9561 3.45707L14.0721 10.3411C13.8666 10.5481 13.6219 10.7122 13.3524 10.8238C13.0828 10.9354 12.7938 10.9922 12.5021 10.9911C12.2099 10.9918 11.9204 10.9344 11.6506 10.8223C11.3807 10.7102 11.1358 10.5456 10.9301 10.3381L5.00008 4.38907V7.00007C5.00008 7.26529 4.89472 7.51964 4.70718 7.70718C4.51965 7.89471 4.26529 8.00007 4.00008 8.00007C3.73486 8.00007 3.48051 7.89471 3.29297 7.70718C3.10543 7.51964 3.00008 7.26529 3.00008 7.00007ZM24.0001 20.1071L23.9151 21.3711C23.9004 22.0807 23.6076 22.7561 23.0998 23.2519C22.592 23.7477 21.9098 24.0243 21.2001 24.0221C21.1561 24.0221 18.6781 23.7001 18.6781 23.7001C17.9808 23.6806 17.3175 23.3946 16.8248 22.9009C16.332 22.4072 16.0472 21.7434 16.0291 21.0461L15.8741 19.7541C14.6381 19.2735 13.3261 19.0182 12.0001 19.0001C10.6775 19.0067 9.36757 19.259 8.13708 19.7441L7.98008 21.0441C7.96237 21.7426 7.67713 22.4076 7.18325 22.9018C6.68937 23.3961 6.02456 23.6818 5.32608 23.7001C5.32608 23.7001 2.84808 24.0221 2.80408 24.0221C2.08249 24.0213 1.39071 23.7342 0.880563 23.2239C0.37042 22.7135 0.0836062 22.0217 0.0830768 21.3001L7.67961e-05 20.1761C-0.00602896 19.4746 0.128521 18.7791 0.395775 18.1305C0.66303 17.482 1.05757 16.8936 1.55608 16.4001C6.04708 11.9121 17.9561 11.9131 22.4431 16.4001C22.935 16.8842 23.3259 17.4612 23.5931 18.0975C23.8604 18.7338 23.9987 19.4169 24.0001 20.1071ZM22.0001 20.0371C21.9791 19.198 21.6293 18.4007 21.0261 17.8171C17.0441 13.8321 6.39908 14.3881 2.96908 17.8171C2.66429 18.1154 2.42171 18.4713 2.25538 18.864C2.08905 19.2567 2.00228 19.6786 2.00008 20.1051L2.08108 21.2321C2.06925 21.4248 2.13253 21.6146 2.25763 21.7617C2.38273 21.9088 2.55994 22.0018 2.75208 22.0211C2.75208 22.0211 5.21008 21.7011 5.25208 21.7011C5.4434 21.7005 5.62674 21.6243 5.76203 21.489C5.89731 21.3537 5.97355 21.1704 5.97408 20.9791C5.97408 20.9391 6.21308 18.9291 6.21308 18.9291C6.23365 18.7575 6.29836 18.5941 6.40089 18.4549C6.50341 18.3158 6.64026 18.2056 6.79808 18.1351C8.41297 17.3966 10.1664 17.0097 11.9421 17.0001H12.0051C13.7898 17.0261 15.5511 17.4097 17.1851 18.1281C17.3465 18.197 17.4869 18.3073 17.5923 18.4477C17.6976 18.5881 17.7641 18.7538 17.7851 18.9281C17.7851 18.9281 18.0241 20.9381 18.0241 20.9781C18.0246 21.1694 18.1008 21.3527 18.2361 21.488C18.3714 21.6233 18.5548 21.6995 18.7461 21.7001C18.7901 21.7001 21.2461 22.0201 21.2461 22.0201C21.4277 22.0067 21.5976 21.9252 21.7217 21.7918C21.8457 21.6585 21.9148 21.4832 21.9151 21.3011L22.0001 20.0371Z" fill="#021700"/>
</g>
<defs>
<clipPath id="clip0_195_76404">
<rect width="24" height="24" fill="white"/>
</clipPath>
</defs>
</svg>
