<svg width="24" height="24" viewBox="0 0 24 24" fill="none" xmlns="http://www.w3.org/2000/svg">
<g clip-path="url(#clip0_195_76413)">
<path d="M22.9999 4.99999H20.4139L22.7069 2.70699C22.8891 2.51839 22.9899 2.26579 22.9876 2.00359C22.9853 1.74139 22.8801 1.49058 22.6947 1.30517C22.5093 1.11977 22.2585 1.0146 21.9963 1.01232C21.7341 1.01004 21.4815 1.11083 21.2929 1.29299L18.9999 3.58599V0.999992C18.9999 0.734776 18.8946 0.480422 18.707 0.292886C18.5195 0.105349 18.2651 -7.62939e-06 17.9999 -7.62939e-06C17.7347 -7.62939e-06 17.4803 0.105349 17.2928 0.292886C17.1053 0.480422 16.9999 0.734776 16.9999 0.999992V5.45599C16.1814 4.5846 15.2152 3.86485 14.1459 3.32999C13.3952 2.99886 12.5568 2.92203 11.7584 3.11121C10.96 3.30039 10.2453 3.74521 9.72291 4.37799C7.96491 6.13599 3.06491 15.121 0.299914 20.319C0.0569038 20.7919 -0.029696 21.3298 0.0525918 21.8552C0.13488 22.3805 0.381806 22.8661 0.757796 23.2421C1.13379 23.6181 1.61943 23.865 2.14475 23.9473C2.67008 24.0296 3.20796 23.943 3.68091 23.7C8.88091 20.936 17.8639 16.035 19.6219 14.277C20.2545 13.7547 20.6993 13.0402 20.8886 12.2421C21.078 11.4439 21.0015 10.6057 20.6709 9.85499C20.1354 8.78563 19.4153 7.81915 18.5439 6.99999H22.9999C23.2651 6.99999 23.5195 6.89464 23.707 6.7071C23.8946 6.51956 23.9999 6.26521 23.9999 5.99999C23.9999 5.73478 23.8946 5.48042 23.707 5.29289C23.5195 5.10535 23.2651 4.99999 22.9999 4.99999ZM18.2079 12.863C17.493 13.4747 16.7257 14.0225 15.9149 14.5L13.7069 12.293C13.5183 12.1108 13.2657 12.01 13.0035 12.0123C12.7413 12.0146 12.4905 12.1198 12.3051 12.3052C12.1197 12.4906 12.0145 12.7414 12.0122 13.0036C12.01 13.2658 12.1108 13.5184 12.2929 13.707L14.1629 15.576C11.4169 17.219 7.47391 19.418 2.74191 21.934C2.64739 21.9841 2.53928 22.0026 2.43347 21.9868C2.32766 21.9709 2.22973 21.9215 2.15407 21.8458C2.07842 21.7702 2.02902 21.6722 2.01315 21.5664C1.99729 21.4606 2.01578 21.3525 2.06591 21.258C3.58791 18.397 4.98891 15.834 6.22591 13.64L8.29291 15.707C8.48152 15.8892 8.73412 15.9899 8.99632 15.9877C9.25851 15.9854 9.50933 15.8802 9.69473 15.6948C9.88014 15.5094 9.98531 15.2586 9.98759 14.9964C9.98987 14.7342 9.88907 14.4816 9.70691 14.293L7.25091 11.837C8.34091 9.94799 9.25691 8.43699 9.95991 7.37399L12.2929 9.70699C12.4815 9.88915 12.7341 9.98994 12.9963 9.98767C13.2585 9.98539 13.5093 9.88022 13.6947 9.69481C13.8801 9.5094 13.9853 9.25859 13.9876 8.99639C13.9899 8.7342 13.8891 8.4816 13.7069 8.29299L11.1739 5.75999C12.0209 4.97099 12.5399 4.83799 13.3569 5.16799C14.491 5.8152 15.5079 6.64887 16.3649 7.63399C17.3504 8.49131 18.1844 9.50855 18.8319 10.643C19.0809 11.223 19.1779 11.894 18.2079 12.863Z" fill="#021700"/>
</g>
<defs>
<clipPath id="clip0_195_76413">
<rect width="24" height="24" fill="white"/>
</clipPath>
</defs>
</svg>
