<svg width="24" height="24" viewBox="0 0 24 24" fill="none" xmlns="http://www.w3.org/2000/svg">
<g clip-path="url(#clip0_195_76416)">
<path d="M20 12.0001C19.3866 12 18.7813 12.1412 18.2312 12.4127C17.6811 12.6843 17.201 13.079 16.828 13.5661L16.758 13.5361C17.0331 12.6841 17.0743 11.7739 16.8774 10.9005C16.6805 10.0272 16.2528 9.2227 15.6388 8.57113C15.0248 7.91955 14.2472 7.44478 13.387 7.19639C12.5269 6.94801 11.6159 6.93512 10.749 7.15907L10.658 6.98707C11.3844 6.3408 11.8502 5.45181 11.9681 4.48671C12.0859 3.52162 11.8478 2.54667 11.2983 1.74458C10.7488 0.942482 9.92567 0.368302 8.98315 0.129644C8.04064 -0.109014 7.04344 0.00423214 6.17844 0.448159C5.31344 0.892085 4.64001 1.63622 4.28437 2.5411C3.92873 3.44599 3.91529 4.44951 4.24656 5.3636C4.57783 6.27768 5.23107 7.03959 6.08387 7.50653C6.93667 7.97347 7.93048 8.11339 8.87905 7.90007L8.95205 8.03707C7.9521 8.8044 7.27944 9.92159 7.0691 11.1643C6.85876 12.4071 7.12631 13.6834 7.81805 14.7371L5.93305 16.5001C5.08102 16.0293 4.08656 15.8854 3.13604 16.0954C2.18552 16.3053 1.34417 16.8546 0.769646 17.6404C0.195126 18.4262 -0.0731302 19.3946 0.0151468 20.364C0.103424 21.3334 0.542175 22.2374 1.24918 22.9065C1.95619 23.5756 2.88293 23.9639 3.85573 23.9987C4.82854 24.0335 5.78064 23.7123 6.53363 23.0954C7.28662 22.4785 7.78882 21.6082 7.9461 20.6476C8.10339 19.6869 7.90498 18.7019 7.38805 17.8771L9.22605 16.1591C10.2355 16.8338 11.4563 17.1176 12.6599 16.9572C13.8635 16.7969 14.9674 16.2035 15.7651 15.2881L16.0441 15.4071C15.923 16.2145 16.052 17.0397 16.4136 17.7717C16.7752 18.5037 17.3522 19.1076 18.067 19.5021C18.7819 19.8966 19.6003 20.063 20.4124 19.9787C21.2246 19.8945 21.9915 19.5638 22.6101 19.031C23.2288 18.4982 23.6696 17.7888 23.8733 16.9981C24.0771 16.2075 24.0339 15.3734 23.7498 14.608C23.4656 13.8425 22.9541 13.1824 22.2837 12.7162C21.6134 12.25 20.8165 12.0001 20 12.0001ZM6.00005 4.00007C6.00005 3.60451 6.11735 3.21783 6.33711 2.88893C6.55687 2.56003 6.86923 2.30369 7.23468 2.15231C7.60013 2.00094 8.00227 1.96133 8.39023 2.0385C8.77819 2.11567 9.13456 2.30615 9.41426 2.58586C9.69397 2.86556 9.88445 3.22193 9.96162 3.60989C10.0388 3.99785 9.99918 4.39999 9.84781 4.76544C9.69643 5.13089 9.44009 5.44325 9.11119 5.66301C8.78229 5.88277 8.39561 6.00007 8.00005 6.00007C7.46962 6.00007 6.96091 5.78936 6.58584 5.41429C6.21076 5.03921 6.00005 4.53051 6.00005 4.00007ZM4.00005 22.0001C3.60449 22.0001 3.21781 21.8828 2.88891 21.663C2.56001 21.4432 2.30366 21.1309 2.15229 20.7654C2.00091 20.4 1.96131 19.9979 2.03848 19.6099C2.11565 19.2219 2.30613 18.8656 2.58583 18.5859C2.86554 18.3062 3.22191 18.1157 3.60987 18.0385C3.99783 17.9613 4.39996 18.0009 4.76542 18.1523C5.13087 18.3037 5.44322 18.56 5.66299 18.8889C5.88275 19.2178 6.00005 19.6045 6.00005 20.0001C6.00005 20.5305 5.78934 21.0392 5.41426 21.4143C5.03919 21.7894 4.53048 22.0001 4.00005 22.0001ZM12.0001 15.0001C11.3507 14.9988 10.7194 14.7869 10.2008 14.3962C9.68215 14.0055 9.3043 13.4571 9.12395 12.8333C8.94361 12.2096 8.97051 11.5441 9.20061 10.9369C9.43071 10.3298 9.8516 9.81364 10.4 9.46607L10.807 9.24907C11.216 9.07118 11.6595 8.9867 12.1052 9.00179C12.5509 9.01688 12.9877 9.13115 13.3837 9.33629C13.7796 9.54143 14.1249 9.83228 14.3944 10.1877C14.6638 10.5431 14.8506 10.954 14.9412 11.3907C15.0318 11.8274 15.0238 12.2788 14.918 12.712C14.8122 13.1452 14.6111 13.5494 14.3294 13.8952C14.0476 14.2409 13.6924 14.5195 13.2894 14.7106C12.8865 14.9017 12.446 15.0006 12.0001 15.0001ZM20 18.0001C19.6045 18.0001 19.2178 17.8828 18.8889 17.663C18.56 17.4432 18.3037 17.1309 18.1523 16.7654C18.0009 16.4 17.9613 15.9979 18.0385 15.6099C18.1157 15.2219 18.3061 14.8656 18.5858 14.5859C18.8655 14.3062 19.2219 14.1157 19.6099 14.0385C19.9978 13.9613 20.4 14.0009 20.7654 14.1523C21.1309 14.3037 21.4432 14.56 21.663 14.8889C21.8828 15.2178 22 15.6045 22 16.0001C22 16.5305 21.7893 17.0392 21.4143 17.4143C21.0392 17.7894 20.5305 18.0001 20 18.0001Z" fill="#021700"/>
</g>
<defs>
<clipPath id="clip0_195_76416">
<rect width="24" height="24" fill="white"/>
</clipPath>
</defs>
</svg>
