<svg width="24" height="24" viewBox="0 0 24 24" fill="none" xmlns="http://www.w3.org/2000/svg">
<g clip-path="url(#clip0_195_76417)">
<path d="M18.7128 11.9999H13.9998C13.4694 11.9999 12.9606 11.7892 12.5856 11.4141C12.2105 11.039 11.9998 10.5303 11.9998 9.99988V5.27388C12.0011 4.81387 11.8967 4.3597 11.6945 3.94649C11.4923 3.53328 11.1978 3.17211 10.8338 2.89088C10.4888 2.6177 10.0857 2.42746 9.65549 2.33487C9.22531 2.24228 8.7796 2.24981 8.35279 2.35688C5.92844 2.9587 3.78212 4.36995 2.26876 6.35725C0.7554 8.34455 -0.0343381 10.7889 0.0301473 13.2859C0.0946328 15.783 1.00948 18.1833 2.62339 20.0899C4.23731 21.9964 6.45361 23.295 8.90579 23.7709C11.6629 24.2986 14.5174 23.7523 16.8848 22.2438C19.2522 20.7353 20.9533 18.3788 21.6398 15.6569C21.7473 15.2295 21.7551 14.7832 21.6627 14.3523C21.5703 13.9214 21.3801 13.5176 21.1068 13.1719C20.8222 12.8083 20.459 12.514 20.0443 12.311C19.6297 12.108 19.1744 12.0017 18.7128 11.9999ZM19.7008 15.1679C19.3179 16.7097 18.5323 18.1222 17.4245 19.2609C16.3166 20.3996 14.9261 21.2235 13.3953 21.6485C11.8645 22.0734 10.2483 22.0842 8.71199 21.6796C7.17568 21.275 5.7744 20.4696 4.65149 19.3457C3.52858 18.2219 2.72433 16.8199 2.32101 15.2833C1.91768 13.7466 1.92975 12.1304 2.35598 10.6C2.78222 9.06954 3.60732 7.67977 4.74689 6.57283C5.88646 5.46588 7.2996 4.68149 8.84179 4.29988C8.97372 4.26692 9.11154 4.26531 9.24421 4.29518C9.37688 4.32504 9.50071 4.38556 9.60579 4.47188C9.72988 4.56649 9.83051 4.68841 9.89988 4.82819C9.96925 4.96796 10.0055 5.12184 10.0058 5.27788V9.99988C10.0058 11.0608 10.4272 12.0782 11.1774 12.8283C11.9275 13.5785 12.9449 13.9999 14.0058 13.9999H18.7178C18.8752 14.0005 19.0304 14.0369 19.1717 14.1061C19.3131 14.1754 19.4369 14.2759 19.5338 14.3999C19.6188 14.5064 19.678 14.6312 19.7068 14.7644C19.7356 14.8977 19.7332 15.0357 19.6998 15.1679H19.7008Z" fill="#021700"/>
<path d="M23.6512 7.44611C23.1908 5.75359 22.2964 4.21061 21.0566 2.96989C19.8167 1.72917 18.2744 0.833704 16.5822 0.372112C16.4048 0.324422 16.2219 0.300215 16.0382 0.300112C15.7739 0.297602 15.5118 0.34748 15.267 0.446865C15.0221 0.54625 14.7994 0.693171 14.6117 0.879139C14.4239 1.06511 14.2749 1.28643 14.1732 1.53033C14.0715 1.77423 14.0192 2.03586 14.0192 2.30011V7.00011C14.0192 7.79576 14.3352 8.55882 14.8978 9.12143C15.4605 9.68404 16.2235 10.0001 17.0192 10.0001H21.7382C22.0468 9.99714 22.3507 9.92305 22.626 9.78359C22.9014 9.64413 23.1409 9.44306 23.326 9.196C23.5111 8.94894 23.6367 8.66254 23.6931 8.35905C23.7494 8.05556 23.7351 7.74316 23.6512 7.44611ZM21.1532 8.00011H17.0152C16.7499 8.00011 16.4956 7.89476 16.3081 7.70722C16.1205 7.51968 16.0152 7.26533 16.0152 7.00011L16.0072 2.30711C16.0145 2.30182 16.0232 2.2987 16.0322 2.29811H16.0582C17.4203 2.6692 18.6612 3.39102 19.6572 4.39156C20.6532 5.39209 21.3693 6.63633 21.7342 8.00011H21.1532Z" fill="#021700"/>
</g>
<defs>
<clipPath id="clip0_195_76417">
<rect width="24" height="24" fill="white"/>
</clipPath>
</defs>
</svg>
