<svg width="24" height="24" viewBox="0 0 24 24" fill="none" xmlns="http://www.w3.org/2000/svg">
<g clip-path="url(#clip0_195_76414)">
<path d="M24.0002 11.983C23.9981 11.169 23.7472 10.375 23.2813 9.70749C22.8154 9.03996 22.1566 8.53074 21.3932 8.24804L21.3552 8.15704C20.3631 5.73047 18.4639 3.78642 16.0612 2.73804L15.7322 2.59404C15.4489 1.83296 14.9397 1.1767 14.2728 0.713308C13.6059 0.249918 12.8133 0.00156403 12.0012 0.00156403C11.1891 0.00156403 10.3964 0.249918 9.72954 0.713308C9.06265 1.1767 8.55342 1.83296 8.27018 2.59404L7.85218 2.78204C5.47072 3.86369 3.59638 5.81966 2.61718 8.24504C1.85252 8.52363 1.19165 9.02994 0.723628 9.69573C0.255607 10.3615 0.00293514 11.1548 -0.000334082 11.9686C-0.00360331 12.7824 0.242687 13.5777 0.705344 14.2472C1.168 14.9167 1.82478 15.4283 2.58718 15.713L2.71518 16.013C3.71853 18.3419 5.56122 20.2082 7.87718 21.241L8.27018 21.417C8.55422 22.177 9.06364 22.8321 9.73025 23.2946C10.3969 23.7571 11.1888 24.005 12.0002 24.005C12.8115 24.005 13.6035 23.7571 14.2701 23.2946C14.9367 22.8321 15.4461 22.177 15.7302 21.417L16.0972 21.254C18.5198 20.1708 20.4244 18.1855 21.4062 15.72C22.167 15.4344 22.8227 14.9238 23.2861 14.2562C23.7495 13.5886 23.9986 12.7957 24.0002 11.983ZM12.0002 2.00004C12.3957 2.00004 12.7824 2.11734 13.1113 2.3371C13.4402 2.55686 13.6966 2.86922 13.8479 3.23467C13.9993 3.60013 14.0389 4.00226 13.9617 4.39022C13.8846 4.77818 13.6941 5.13455 13.4144 5.41425C13.1347 5.69396 12.7783 5.88444 12.3904 5.96161C12.0024 6.03878 11.6003 5.99917 11.2348 5.8478C10.8694 5.69642 10.557 5.44008 10.3372 5.11118C10.1175 4.78228 10.0002 4.3956 10.0002 4.00004C10.0002 3.46961 10.2109 2.9609 10.586 2.58583C10.961 2.21075 11.4697 2.00004 12.0002 2.00004ZM3.98818 9.98504L4.07018 10.016L4.08018 9.99104C4.58128 10.0359 5.04451 10.2764 5.36946 10.6605C5.69441 11.0446 5.85488 11.5413 5.81609 12.0429C5.7773 12.5445 5.54237 13.0106 5.16223 13.3401C4.78209 13.6697 4.28738 13.8361 3.78535 13.8034C3.28332 13.7706 2.81442 13.5413 2.4803 13.1652C2.14619 12.7891 1.97379 12.2964 2.00047 11.794C2.02716 11.2916 2.25078 10.82 2.62286 10.4814C2.99495 10.1427 3.4855 9.96441 3.98818 9.98504ZM12.0002 22C11.6046 22 11.2179 21.8827 10.889 21.663C10.5601 21.4432 10.3038 21.1309 10.1524 20.7654C10.001 20.4 9.96144 19.9978 10.0386 19.6099C10.1158 19.2219 10.3063 18.8655 10.586 18.5858C10.8657 18.3061 11.222 18.1156 11.61 18.0385C11.998 17.9613 12.4001 18.0009 12.7655 18.1523C13.131 18.3037 13.4434 18.56 13.6631 18.8889C13.8829 19.2178 14.0002 19.6045 14.0002 20C14.0002 20.5305 13.7895 21.0392 13.4144 21.4143C13.0393 21.7893 12.5306 22 12.0002 22ZM15.8932 19.114C15.6941 18.2301 15.2002 17.4401 14.4926 16.8741C13.7849 16.3082 12.9058 15.9998 11.9997 15.9998C11.0936 15.9998 10.2144 16.3082 9.5068 16.8741C8.79919 17.4401 8.30524 18.2301 8.10618 19.114C6.74077 18.3689 5.61901 17.2461 4.87518 15.88C5.75639 15.6809 6.54397 15.1887 7.10916 14.4839C7.67434 13.7791 7.98367 12.9034 7.98657 12C7.98947 11.0966 7.68578 10.2189 7.12514 9.51048C6.5645 8.80206 5.78009 8.30481 4.90018 8.10004C5.64675 6.75318 6.75792 5.64409 8.10618 4.90004C8.30607 5.78304 8.80025 6.57183 9.50757 7.13692C10.2149 7.70202 11.0933 8.00983 11.9987 8.00983C12.904 8.00983 13.7825 7.70202 14.4898 7.13692C15.1971 6.57183 15.6913 5.78304 15.8912 4.90004C17.2384 5.64326 18.3502 6.7495 19.1002 8.09304C18.2176 8.29463 17.4297 8.79033 16.866 9.49874C16.3022 10.2072 15.9961 11.0862 15.9979 11.9915C15.9996 12.8969 16.3091 13.7747 16.8756 14.481C17.442 15.1872 18.2318 15.6799 19.1152 15.878C18.3689 17.2398 17.2517 18.3619 15.8932 19.114ZM20.0002 13.983C19.6046 13.983 19.2179 13.8657 18.889 13.646C18.5601 13.4262 18.3038 13.1139 18.1524 12.7484C18.001 12.383 17.9614 11.9808 18.0386 11.5929C18.1158 11.2049 18.3063 10.8485 18.586 10.5688C18.8657 10.2891 19.222 10.0986 19.61 10.0215C19.998 9.9443 20.4001 9.98391 20.7655 10.1353C21.131 10.2867 21.4434 10.543 21.6631 10.8719C21.8829 11.2008 22.0002 11.5875 22.0002 11.983C22.0002 12.5135 21.7895 13.0222 21.4144 13.3973C21.0393 13.7723 20.5306 13.983 20.0002 13.983Z" fill="#021700"/>
</g>
<defs>
<clipPath id="clip0_195_76414">
<rect width="24" height="24" fill="white"/>
</clipPath>
</defs>
</svg>
