<svg width="24" height="24" viewBox="0 0 24 24" fill="none" xmlns="http://www.w3.org/2000/svg">
<g clip-path="url(#clip0_195_76420)">
<path d="M19.9127 8.57332C19.9127 8.5496 19.9127 8.52588 19.9127 8.50113C19.9127 4.1329 16.3715 0.591728 12.0033 0.591728C7.63507 0.591728 4.0939 4.1329 4.0939 8.50113C4.0939 8.52584 4.0939 8.54956 4.0939 8.57332C0.269887 10.6848 -1.11841 15.4965 0.993074 19.3205C3.10456 23.1445 7.91623 24.5328 11.7402 22.4214C11.8289 22.3724 11.9166 22.3218 12.0034 22.2694C15.7435 24.5262 20.6049 23.3237 22.8617 19.5836C25.1184 15.8435 23.9159 10.982 20.1758 8.72529C20.0891 8.67293 20.0014 8.62226 19.9127 8.57332ZM12.0033 19.8442C10.9397 18.894 10.2544 17.592 10.0734 16.1772C11.3391 16.4943 12.6635 16.4943 13.9293 16.1772C13.7481 17.5897 13.0644 18.8897 12.0033 19.8393V19.8442ZM12.0033 14.4332C11.3791 14.4335 10.7588 14.3351 10.1653 14.1416C10.4351 12.9295 11.0779 11.8324 12.0033 11.0045C12.9288 11.8324 13.5715 12.9295 13.8413 14.1416C13.2478 14.3351 12.6275 14.4335 12.0033 14.4332ZM8.37092 13.1875C7.27667 12.34 6.51261 11.1371 6.21068 9.78645C7.54067 9.35332 8.9809 9.40409 10.2771 9.92979C9.38839 10.8461 8.73439 11.9638 8.37092 13.1875ZM13.7295 9.92482C15.0257 9.39912 16.466 9.34835 17.7959 9.78148C17.495 11.134 16.7309 12.3388 15.6357 13.1875C15.2729 11.962 14.6189 10.8426 13.7295 9.92482ZM12.0033 2.5691C14.9879 2.57295 17.5064 4.79056 17.8879 7.75076C15.8939 7.25004 13.7832 7.54545 12.0033 8.57431C10.2234 7.5454 8.11273 7.25004 6.11872 7.75076C6.50018 4.7906 9.01868 2.57295 12.0033 2.5691ZM2.11657 15.4219C2.11676 13.5881 2.9659 11.8577 4.41621 10.7355C4.99325 12.6811 6.2929 14.332 8.04861 15.3497C8.04861 15.3734 8.04861 15.3971 8.04861 15.4219C8.04753 17.4744 8.84698 19.4465 10.2771 20.9189C7.24086 22.1496 3.78181 20.686 2.55106 17.6498C2.26418 16.9421 2.11662 16.1856 2.11657 15.4219ZM15.958 21.3539C15.194 21.3544 14.4372 21.2067 13.7295 20.9189C15.1596 19.4465 15.9591 17.4745 15.958 15.4219C15.958 15.3972 15.958 15.3735 15.958 15.3497C17.7141 14.3322 19.0141 12.6813 19.5914 10.7356C22.1796 12.7442 22.6494 16.4707 20.6407 19.0589C19.5178 20.5057 17.7895 21.3528 15.958 21.3539Z" fill="#021700"/>
</g>
<defs>
<clipPath id="clip0_195_76420">
<rect width="24" height="24" fill="white"/>
</clipPath>
</defs>
</svg>
