<svg width="24" height="24" viewBox="0 0 24 24" fill="none" xmlns="http://www.w3.org/2000/svg">
<g clip-path="url(#clip0_195_76415)">
<path d="M23 22H5C4.20435 22 3.44129 21.6839 2.87868 21.1213C2.31607 20.5587 2 19.7956 2 19V1C2 0.734784 1.89464 0.48043 1.70711 0.292893C1.51957 0.105357 1.26522 0 1 0C0.734784 0 0.48043 0.105357 0.292893 0.292893C0.105357 0.48043 0 0.734784 0 1L0 19C0.00158786 20.3256 0.528882 21.5964 1.46622 22.5338C2.40356 23.4711 3.67441 23.9984 5 24H23C23.2652 24 23.5196 23.8946 23.7071 23.7071C23.8946 23.5196 24 23.2652 24 23C24 22.7348 23.8946 22.4804 23.7071 22.2929C23.5196 22.1054 23.2652 22 23 22Z" fill="#021700"/>
<path d="M6.00012 19.9999C6.26534 19.9999 6.51969 19.8946 6.70723 19.707C6.89476 19.5195 7.00012 19.2651 7.00012 18.9999V11.9999C7.00012 11.7347 6.89476 11.4804 6.70723 11.2928C6.51969 11.1053 6.26534 10.9999 6.00012 10.9999C5.7349 10.9999 5.48055 11.1053 5.29301 11.2928C5.10548 11.4804 5.00012 11.7347 5.00012 11.9999V18.9999C5.00012 19.2651 5.10548 19.5195 5.29301 19.707C5.48055 19.8946 5.7349 19.9999 6.00012 19.9999Z" fill="#021700"/>
<path d="M9.99988 10V19C9.99988 19.2652 10.1052 19.5196 10.2928 19.7071C10.4803 19.8946 10.7347 20 10.9999 20C11.2651 20 11.5195 19.8946 11.707 19.7071C11.8945 19.5196 11.9999 19.2652 11.9999 19V10C11.9999 9.73478 11.8945 9.48043 11.707 9.29289C11.5195 9.10536 11.2651 9 10.9999 9C10.7347 9 10.4803 9.10536 10.2928 9.29289C10.1052 9.48043 9.99988 9.73478 9.99988 10Z" fill="#021700"/>
<path d="M15 13V19C15 19.2652 15.1054 19.5196 15.2929 19.7071C15.4804 19.8946 15.7348 20 16 20C16.2652 20 16.5196 19.8946 16.7071 19.7071C16.8947 19.5196 17 19.2652 17 19V13C17 12.7348 16.8947 12.4804 16.7071 12.2929C16.5196 12.1054 16.2652 12 16 12C15.7348 12 15.4804 12.1054 15.2929 12.2929C15.1054 12.4804 15 12.7348 15 13Z" fill="#021700"/>
<path d="M20.0001 8.99991V18.9999C20.0001 19.2651 20.1055 19.5195 20.293 19.707C20.4806 19.8946 20.7349 19.9999 21.0001 19.9999C21.2653 19.9999 21.5197 19.8946 21.7072 19.707C21.8948 19.5195 22.0001 19.2651 22.0001 18.9999V8.99991C22.0001 8.7347 21.8948 8.48034 21.7072 8.29281C21.5197 8.10527 21.2653 7.99991 21.0001 7.99991C20.7349 7.99991 20.4806 8.10527 20.293 8.29281C20.1055 8.48034 20.0001 8.7347 20.0001 8.99991Z" fill="#021700"/>
<path d="M5.99979 8.99993C6.26498 8.99988 6.51929 8.89448 6.70679 8.70693L10.2928 5.12093C10.4834 4.93936 10.7365 4.83808 10.9998 4.83808C11.263 4.83808 11.5162 4.93936 11.7068 5.12093L13.8788 7.29293C14.4414 7.85535 15.2043 8.17129 15.9998 8.17129C16.7953 8.17129 17.5582 7.85535 18.1208 7.29293L23.7068 1.70693C23.8889 1.51833 23.9897 1.26573 23.9875 1.00353C23.9852 0.741336 23.88 0.490524 23.6946 0.305116C23.5092 0.119707 23.2584 0.0145385 22.9962 0.0122601C22.734 0.00998167 22.4814 0.110776 22.2928 0.292934L16.7068 5.87793C16.5193 6.0654 16.265 6.17072 15.9998 6.17072C15.7346 6.17072 15.4803 6.0654 15.2928 5.87793L13.1208 3.70693C12.5582 3.14452 11.7953 2.82857 10.9998 2.82857C10.2043 2.82857 9.44137 3.14452 8.87879 3.70693L5.29279 7.29293C5.15298 7.43279 5.05777 7.61095 5.0192 7.8049C4.98064 7.99886 5.00044 8.19989 5.07611 8.38259C5.15178 8.56529 5.27992 8.72145 5.44433 8.83134C5.60874 8.94122 5.80204 8.99989 5.99979 8.99993Z" fill="#021700"/>
</g>
<defs>
<clipPath id="clip0_195_76415">
<rect width="24" height="24" fill="white"/>
</clipPath>
</defs>
</svg>
