<svg width="24" height="24" viewBox="0 0 24 24" fill="none" xmlns="http://www.w3.org/2000/svg">
<g clip-path="url(#clip0_195_76419)">
<path d="M23.4131 18.2399L15.5931 2.27489C15.2639 1.60263 14.7528 1.03621 14.1177 0.640045C13.4826 0.243876 12.7491 0.0338516 12.0006 0.0338516C11.2521 0.0338516 10.5186 0.243876 9.8835 0.640045C9.24842 1.03621 8.73724 1.60263 8.40809 2.27489L0.587087 18.2399C0.288283 18.8497 0.149659 19.5256 0.184279 20.2038C0.218898 20.882 0.425621 21.5403 0.784968 22.1165C1.14431 22.6927 1.64445 23.168 2.23826 23.4975C2.83207 23.827 3.49999 23.9999 4.17909 23.9999H19.8201C20.4993 24.0001 21.1673 23.8273 21.7613 23.4979C22.3552 23.1684 22.8555 22.6932 23.2149 22.1169C23.5744 21.5407 23.7812 20.8824 23.8159 20.2041C23.8506 19.5258 23.7119 18.8498 23.4131 18.2399ZM19.6001 14.9999H4.40009L6.85009 9.99989H17.1501L19.6001 14.9999ZM10.2001 3.15489C10.3647 2.81889 10.6203 2.53582 10.9378 2.33783C11.2553 2.13984 11.6219 2.03488 11.9961 2.03488C12.3702 2.03488 12.7369 2.13984 13.0544 2.33783C13.3719 2.53582 13.6275 2.81889 13.7921 3.15489L16.1691 7.99989H7.83009L10.2001 3.15489ZM21.5141 21.0549C21.3368 21.3459 21.0868 21.5858 20.7888 21.7509C20.4907 21.9161 20.1548 22.0008 19.8141 21.9969H4.17909C3.8392 21.9976 3.50474 21.9116 3.2073 21.7472C2.90985 21.5827 2.65923 21.3451 2.47908 21.0569C2.29894 20.7687 2.19523 20.4393 2.17773 20.0998C2.16024 19.7604 2.22953 19.4221 2.37909 19.1169L3.42109 16.9999H20.5781L21.6161 19.1199C21.7693 19.4237 21.8408 19.7621 21.8236 20.1019C21.8064 20.4416 21.7011 20.7711 21.5181 21.0579L21.5141 21.0549Z" fill="#021700"/>
</g>
<defs>
<clipPath id="clip0_195_76419">
<rect width="24" height="24" fill="white"/>
</clipPath>
</defs>
</svg>
