<svg width="24" height="24" viewBox="0 0 24 24" fill="none" xmlns="http://www.w3.org/2000/svg">
<g clip-path="url(#clip0_195_76427)">
<path d="M20.025 22.026H19.025V20.371C19.0229 19.8349 18.9134 19.3046 18.703 18.8115C18.4926 18.3184 18.1856 17.8725 17.8 17.5C15.876 15.641 15.091 13.511 15.034 10.024H16.022C16.2872 10.024 16.5416 9.91861 16.7291 9.73107C16.9166 9.54354 17.022 9.28918 17.022 9.02397C17.022 8.75875 16.9166 8.5044 16.7291 8.31686C16.5416 8.12932 16.2872 8.02397 16.022 8.02397H15.466C15.8264 7.41881 16.0183 6.72829 16.022 6.02397C16.022 4.64897 14.86 2.30697 14.129 1.15397C13.9029 0.800513 13.5915 0.509649 13.2235 0.308175C12.8554 0.106701 12.4426 0.00109863 12.023 0.00109863C11.6034 0.00109863 11.1906 0.106701 10.8225 0.308175C10.4545 0.509649 10.1431 0.800513 9.917 1.15397C9.185 2.30797 8.023 4.65397 8.023 6.02497C8.02715 6.72922 8.21908 7.41962 8.579 8.02497H8.026C7.76078 8.02497 7.50643 8.13032 7.31889 8.31786C7.13136 8.5054 7.026 8.75975 7.026 9.02497C7.026 9.29018 7.13136 9.54454 7.31889 9.73207C7.50643 9.91961 7.76078 10.025 8.026 10.025H9.015C8.957 13.512 8.171 15.641 6.249 17.5C5.86414 17.8727 5.55769 18.3186 5.34766 18.8115C5.13764 19.3043 5.02827 19.8342 5.026 20.37V22.025H4.026C3.76078 22.025 3.50643 22.1303 3.31889 22.3179C3.13136 22.5054 3.026 22.7598 3.026 23.025C3.026 23.2902 3.13136 23.5445 3.31889 23.7321C3.50643 23.9196 3.76078 24.025 4.026 24.025H20.026C20.2912 24.025 20.5456 23.9196 20.7331 23.7321C20.9206 23.5445 21.026 23.2902 21.026 23.025C21.026 22.7598 20.9206 22.5054 20.7331 22.3179C20.5456 22.1303 20.2912 22.025 20.026 22.025L20.025 22.026ZM11.608 2.22597C11.6535 2.15686 11.7155 2.10013 11.7884 2.06089C11.8613 2.02164 11.9427 2.00109 12.0255 2.00109C12.1083 2.00109 12.1897 2.02164 12.2626 2.06089C12.3355 2.10013 12.3975 2.15686 12.443 2.22597C13.2101 3.37893 13.7473 4.66924 14.025 6.02597C14.025 6.5564 13.8143 7.06511 13.4392 7.44018C13.0641 7.81525 12.5554 8.02597 12.025 8.02597C11.4946 8.02597 10.9859 7.81525 10.6108 7.44018C10.2357 7.06511 10.025 6.5564 10.025 6.02597C10.3034 4.6696 10.8409 3.37969 11.608 2.22697V2.22597ZM13.038 10.026C13.092 13.542 13.838 15.977 15.56 18.026H8.491C10.211 15.977 10.959 13.541 11.014 10.026H13.038ZM7.026 20.371C7.02748 20.2551 7.03953 20.1396 7.062 20.026H16.99C17.0116 20.1397 17.0233 20.2552 17.025 20.371V22.026H7.025L7.026 20.371Z" fill="#021700"/>
</g>
<defs>
<clipPath id="clip0_195_76427">
<rect width="24" height="24" fill="white"/>
</clipPath>
</defs>
</svg>
