<svg width="24" height="24" viewBox="0 0 24 24" fill="none" xmlns="http://www.w3.org/2000/svg">
<path d="M12.0001 5.00015C10.6156 5.00015 9.26222 5.4107 8.11107 6.17987C6.95993 6.94904 6.06272 8.04229 5.53291 9.32137C5.00309 10.6005 4.86447 12.0079 5.13457 13.3658C5.40466 14.7237 6.07135 15.9709 7.05032 16.9499C8.02928 17.9289 9.27657 18.5956 10.6344 18.8657C11.9923 19.1357 13.3998 18.9971 14.6788 18.4673C15.9579 17.9375 17.0512 17.0403 17.8204 15.8891C18.5895 14.738 19.0001 13.3846 19.0001 12.0002C19.0001 10.1436 18.2626 8.36316 16.9498 7.05041C15.6371 5.73765 13.8566 5.00015 12.0001 5.00015ZM12.0001 17.0002C11.0112 17.0002 10.0445 16.7069 9.22221 16.1575C8.39997 15.6081 7.75911 14.8272 7.38067 13.9136C7.00223 12.9999 6.90321 11.9946 7.09614 11.0247C7.28906 10.0548 7.76527 9.16388 8.46453 8.46462C9.16379 7.76536 10.0547 7.28915 11.0246 7.09623C11.9945 6.9033 12.9999 7.00232 13.9135 7.38075C14.8271 7.75919 15.608 8.40006 16.1574 9.2223C16.7068 10.0445 17.0001 11.0112 17.0001 12.0002C17.0001 13.3262 16.4733 14.598 15.5356 15.5357C14.5979 16.4734 13.3261 17.0002 12.0001 17.0002Z" fill="#021700"/>
</svg>
