<svg width="24" height="24" viewBox="0 0 24 24" fill="none" xmlns="http://www.w3.org/2000/svg">
<g clip-path="url(#clip0_195_76433)">
<path d="M11.692 22.9998C11.2979 23.0008 10.9076 22.9237 10.5435 22.7728C10.1794 22.6219 9.84889 22.4003 9.57104 22.1208L6.18404 18.6998C6.07735 18.6104 5.99049 18.4997 5.92904 18.3748C5.86759 18.2499 5.83289 18.1135 5.82717 17.9745C5.82145 17.8354 5.84483 17.6966 5.89581 17.5671C5.94679 17.4376 6.02426 17.3201 6.12325 17.2222C6.22224 17.1244 6.34057 17.0482 6.47067 16.9987C6.60077 16.9492 6.73977 16.9274 6.87878 16.9347C7.0178 16.942 7.15375 16.9783 7.27795 17.0411C7.40215 17.104 7.51185 17.1921 7.60004 17.2998L10.984 20.7138C11.1745 20.8945 11.427 20.9953 11.6895 20.9953C11.9521 20.9953 12.2046 20.8945 12.395 20.7138L17.809 15.2998C17.9965 15.1122 18.2509 15.0067 18.5162 15.0066C18.7815 15.0065 19.0359 15.1118 19.2235 15.2993C19.4112 15.4868 19.5166 15.7412 19.5167 16.0065C19.5168 16.2717 19.4115 16.5262 19.224 16.7138L13.809 22.1278C13.5312 22.4057 13.2011 22.6259 12.8378 22.7756C12.4744 22.9252 12.085 23.0014 11.692 22.9998ZM7.00004 21.9998C7.00004 21.7346 6.89468 21.4802 6.70715 21.2927C6.51961 21.1052 6.26526 20.9998 6.00004 20.9998H5.68304C4.829 20.9834 4.00524 20.6805 3.34403 20.1397C2.68282 19.5989 2.22252 18.8516 2.03704 18.0178C1.92838 17.3013 2.04695 16.5687 2.37608 15.923C2.70521 15.2773 3.22836 14.7509 3.87204 14.4178C4.33053 14.164 4.67067 13.7399 4.81888 13.2372C4.9671 12.7346 4.91147 12.1938 4.66404 11.7318C4.27575 10.9913 4.04653 10.1777 3.9911 9.3434C3.93566 8.50907 4.05522 7.67236 4.34212 6.88695C4.62902 6.10154 5.07692 5.38477 5.65708 4.78261C6.23725 4.18045 6.93687 3.70621 7.71107 3.3903C8.48526 3.07439 9.31695 2.92379 10.1528 2.94816C10.9886 2.97253 11.8101 3.17133 12.5646 3.53181C13.319 3.8923 13.9898 4.4065 14.5339 5.04143C15.078 5.67637 15.4834 6.41802 15.724 7.21882C15.8718 7.7016 16.1352 8.14098 16.4915 8.49877C16.8477 8.85657 17.2859 9.12194 17.768 9.27182C19.0747 9.66916 20.2057 10.5024 20.9723 11.6327C21.739 12.7629 22.095 14.1218 21.981 15.4828C21.8659 16.6649 21.3934 17.7838 20.6265 18.6906C19.8595 19.5974 18.8346 20.2491 17.688 20.5588C17.4392 20.644 17.2339 20.8238 17.1167 21.0593C16.9995 21.2948 16.9798 21.567 17.0618 21.8169C17.1439 22.0669 17.3212 22.2744 17.5552 22.3945C17.7892 22.5147 18.0611 22.5378 18.312 22.4588C19.9508 21.9912 21.393 21.0035 22.4215 19.6447C23.4499 18.2858 24.0087 16.6295 24.0137 14.9254C24.0186 13.2212 23.4695 11.5617 22.449 10.1969C21.4285 8.83207 19.992 7.836 18.356 7.35882C18.1844 7.30534 18.0287 7.21025 17.9027 7.08201C17.7767 6.95377 17.6844 6.79637 17.634 6.62382C17.1049 4.92344 16.0235 3.44822 14.5612 2.43186C13.0989 1.41549 11.3393 0.916078 9.56115 1.01274C7.78296 1.10939 6.08786 1.79659 4.74436 2.96548C3.40085 4.13436 2.48576 5.7181 2.14404 7.46582C1.79259 9.23282 2.07589 11.0672 2.94404 12.6458C1.93181 13.1677 1.10878 13.994 0.590873 15.0083C0.0729618 16.0226 -0.113747 17.1738 0.0570385 18.2998C0.31769 19.6076 1.01785 20.7869 2.04126 21.6419C3.06466 22.4968 4.34972 22.976 5.68304 22.9998H6.00004C6.26526 22.9998 6.51961 22.8945 6.70715 22.7069C6.89468 22.5194 7.00004 22.265 7.00004 21.9998Z" fill="#021700"/>
</g>
<defs>
<clipPath id="clip0_195_76433">
<rect width="24" height="24" fill="white"/>
</clipPath>
</defs>
</svg>
