<svg width="24" height="24" viewBox="0 0 24 24" fill="none" xmlns="http://www.w3.org/2000/svg">
<g clip-path="url(#clip0_195_76436)">
<path d="M21 17.9999C20.2243 18.0007 19.4794 18.3034 18.923 18.8439L15.963 17.3629C15.9829 17.2428 15.9953 17.1215 16 16.9999C15.9953 16.8782 15.9829 16.757 15.963 16.6369L18.923 15.1559C19.4214 15.6333 20.0695 15.9238 20.7575 15.9783C21.4455 16.0328 22.1313 15.848 22.6986 15.455C23.266 15.0621 23.6802 14.4852 23.8712 13.8219C24.0621 13.1587 24.018 12.4498 23.7464 11.8154C23.4748 11.1809 22.9923 10.6597 22.3806 10.3401C21.7689 10.0205 21.0655 9.92199 20.3896 10.0613C19.7136 10.2007 19.1065 10.5693 18.6711 11.1047C18.2356 11.6402 17.9986 12.3097 18 12.9999C18.0047 13.1215 18.0171 13.2427 18.037 13.3629L15.077 14.8439C14.6536 14.4342 14.119 14.1583 13.5398 14.0505C12.9606 13.9427 12.3625 14.0078 11.8201 14.2378C11.2777 14.4677 10.815 14.8522 10.4897 15.3434C10.1644 15.8346 9.99094 16.4107 9.99094 16.9999C9.99094 17.589 10.1644 18.1651 10.4897 18.6563C10.815 19.1475 11.2777 19.532 11.8201 19.7619C12.3625 19.9919 12.9606 20.057 13.5398 19.9492C14.119 19.8414 14.6536 19.5655 15.077 19.1559L18.037 20.6369C18.0171 20.757 18.0047 20.8782 18 20.9999C18 21.5932 18.176 22.1732 18.5056 22.6666C18.8352 23.1599 19.3038 23.5444 19.852 23.7715C20.4001 23.9986 21.0033 24.058 21.5853 23.9422C22.1672 23.8265 22.7018 23.5407 23.1213 23.1212C23.5409 22.7016 23.8266 22.1671 23.9424 21.5851C24.0581 21.0032 23.9987 20.4 23.7716 19.8518C23.5446 19.3036 23.1601 18.8351 22.6667 18.5054C22.1734 18.1758 21.5933 17.9999 21 17.9999ZM21 11.9999C21.1978 11.9999 21.3911 12.0585 21.5556 12.1684C21.72 12.2783 21.8482 12.4344 21.9239 12.6172C21.9996 12.7999 22.0194 13.001 21.9808 13.1949C21.9422 13.3889 21.847 13.5671 21.7071 13.707C21.5673 13.8468 21.3891 13.9421 21.1951 13.9806C21.0011 14.0192 20.8 13.9994 20.6173 13.9237C20.4346 13.848 20.2784 13.7199 20.1685 13.5554C20.0587 13.391 20 13.1976 20 12.9999C20 12.7346 20.1054 12.4803 20.2929 12.2927C20.4804 12.1052 20.7348 11.9999 21 11.9999ZM13 17.9999C12.8022 17.9999 12.6089 17.9412 12.4444 17.8313C12.28 17.7214 12.1518 17.5653 12.0761 17.3825C12.0004 17.1998 11.9806 16.9987 12.0192 16.8048C12.0578 16.6108 12.153 16.4326 12.2929 16.2927C12.4328 16.1529 12.6109 16.0577 12.8049 16.0191C12.9989 15.9805 13.2 16.0003 13.3827 16.076C13.5654 16.1517 13.7216 16.2798 13.8315 16.4443C13.9414 16.6087 14 16.8021 14 16.9999C14 17.2651 13.8946 17.5194 13.7071 17.707C13.5196 17.8945 13.2652 17.9999 13 17.9999ZM21 21.9999C20.8022 21.9999 20.6089 21.9412 20.4444 21.8313C20.28 21.7214 20.1518 21.5653 20.0761 21.3825C20.0004 21.1998 19.9806 20.9987 20.0192 20.8048C20.0578 20.6108 20.153 20.4326 20.2929 20.2927C20.4328 20.1529 20.6109 20.0577 20.8049 20.0191C20.9989 19.9805 21.2 20.0003 21.3827 20.076C21.5654 20.1517 21.7216 20.2798 21.8315 20.4443C21.9414 20.6087 22 20.8021 22 20.9999C22 21.2651 21.8946 21.5194 21.7071 21.707C21.5196 21.8945 21.2652 21.9999 21 21.9999ZM12 21.9999C12 22.2651 11.8946 22.5194 11.7071 22.707C11.5196 22.8945 11.2652 22.9999 11 22.9999H5.67901C4.34628 22.9755 3.06196 22.4961 2.0393 21.6411C1.01665 20.7862 0.317167 19.6072 0.0570061 18.2999C-0.113285 17.1745 0.0734522 16.0242 0.590954 15.0105C1.10846 13.9969 1.93069 13.1709 2.94201 12.6489C2.07386 11.0702 1.79056 9.23586 2.14201 7.46885C2.48373 5.72113 3.39882 4.1374 4.74232 2.96851C6.08583 1.79963 7.78093 1.11243 9.55912 1.01577C11.3373 0.919113 13.0969 1.41852 14.5592 2.43489C16.0215 3.45126 17.1029 4.92647 17.632 6.62685C17.6824 6.7994 17.7747 6.9568 17.9007 7.08504C18.0267 7.21328 18.1824 7.30837 18.354 7.36185C18.4824 7.39798 18.6022 7.45942 18.7065 7.54255C18.8108 7.62568 18.8974 7.72883 18.9612 7.84593C19.025 7.96302 19.0647 8.0917 19.0781 8.22438C19.0914 8.35707 19.0781 8.49109 19.0389 8.61854C18.9997 8.746 18.9353 8.86433 18.8497 8.96656C18.7641 9.06879 18.6589 9.15287 18.5403 9.21383C18.4217 9.2748 18.2921 9.31143 18.1591 9.32156C18.0261 9.3317 17.8925 9.31514 17.766 9.27285C17.2839 9.12297 16.8457 8.8576 16.4894 8.49981C16.1332 8.14202 15.8698 7.70263 15.722 7.21985C15.4814 6.41906 15.076 5.67741 14.5319 5.04247C13.9878 4.40753 13.317 3.89333 12.5625 3.53285C11.808 3.17237 10.9865 2.97356 10.1507 2.94919C9.31491 2.92482 8.48323 3.07542 7.70903 3.39133C6.93483 3.70724 6.23521 4.18149 5.65505 4.78364C5.07488 5.3858 4.62699 6.10257 4.34009 6.88799C4.05319 7.6734 3.93362 8.51011 3.98906 9.34444C4.0445 10.1788 4.27372 10.9923 4.66201 11.7329C4.90944 12.1948 4.96507 12.7356 4.81685 13.2383C4.66864 13.7409 4.3285 14.165 3.87001 14.4189C3.22633 14.7519 2.70317 15.2783 2.37405 15.924C2.04492 16.5697 1.92635 17.3023 2.03501 18.0189C2.22011 18.8524 2.68006 19.5995 3.34096 20.1402C4.00185 20.6808 4.8253 20.9836 5.67901 20.9999H11C11.2652 20.9999 11.5196 21.1052 11.7071 21.2927C11.8946 21.4803 12 21.7346 12 21.9999Z" fill="#021700"/>
</g>
<defs>
<clipPath id="clip0_195_76436">
<rect width="24" height="24" fill="white"/>
</clipPath>
</defs>
</svg>
