<svg width="24" height="24" viewBox="0 0 24 24" fill="none" xmlns="http://www.w3.org/2000/svg">
<path d="M17.792 7.21214C17.3476 5.30142 16.2166 3.62058 14.6141 2.48912C13.0116 1.35766 11.0492 0.854452 9.0999 1.07515C7.15064 1.29585 5.35042 2.22507 4.04142 3.68618C2.73242 5.14729 2.0059 7.03843 1.99996 9.00014C1.9991 10.2785 2.3079 11.5381 2.89996 12.6711C1.82109 13.2493 0.966361 14.1714 0.47158 15.2909C-0.0232008 16.4105 -0.129654 17.6633 0.169132 18.8503C0.467919 20.0373 1.15481 21.0904 2.12067 21.8422C3.08652 22.5941 4.27595 23.0017 5.49996 23.0001H16C17.959 22.991 19.8467 22.2634 21.305 20.9552C22.7633 19.6469 23.6908 17.8491 23.9118 15.9025C24.1327 13.9559 23.6317 11.9958 22.5037 10.3941C21.3757 8.79226 19.6992 7.66007 17.792 7.21214ZM16 21.0001H5.49996C4.64839 21.0027 3.82524 20.6939 3.18548 20.1318C2.54571 19.5698 2.13344 18.7933 2.02628 17.9485C1.91911 17.1037 2.12443 16.2488 2.6036 15.5448C3.08276 14.8409 3.80272 14.3363 4.62796 14.1261C4.78667 14.0853 4.93291 14.006 5.05381 13.8954C5.1747 13.7847 5.26655 13.6461 5.32127 13.4916C5.37599 13.3371 5.39191 13.1716 5.36761 13.0095C5.34332 12.8474 5.27957 12.6938 5.18196 12.5621C4.41311 11.5339 3.99837 10.2841 3.99996 9.00014C4.01137 7.48612 4.59475 6.03239 5.6331 4.93049C6.67146 3.82859 8.08801 3.15998 9.59868 3.05877C11.1094 2.95755 12.6024 3.4312 13.7785 4.38473C14.9546 5.33827 15.7267 6.70118 15.94 8.20014C15.9687 8.41779 16.0683 8.61993 16.2234 8.77535C16.3785 8.93078 16.5804 9.03086 16.798 9.06014C18.2968 9.27337 19.6596 10.0453 20.6131 11.2212C21.5667 12.397 22.0405 13.8899 21.9395 15.4004C21.8385 16.911 21.1703 18.3275 20.0688 19.366C18.9672 20.4045 17.5138 20.9883 16 21.0001Z" fill="#021700"/>
</svg>
