<svg width="24" height="24" viewBox="0 0 24 24" fill="none" xmlns="http://www.w3.org/2000/svg">
<g clip-path="url(#clip0_195_76440)">
<path d="M23.5171 2.08699C23.172 1.45558 22.6634 0.928647 22.0446 0.56145C21.4258 0.194253 20.7196 0.000320947 20.0001 -7.62939e-06L4.00005 -7.62939e-06C3.28051 0.000320947 2.57431 0.194253 1.95551 0.56145C1.33671 0.928647 0.828111 1.45558 0.483052 2.08699C0.135144 2.7086 -0.036434 3.4134 -0.0131719 4.12536C0.0100903 4.83733 0.22731 5.52942 0.615052 6.12699C1.78713 7.82675 3.33201 9.23629 5.1318 10.2481C6.9316 11.2598 8.93874 11.8471 11.0001 11.965V22H7.00005C6.73484 22 6.48048 22.1053 6.29295 22.2929C6.10541 22.4804 6.00005 22.7348 6.00005 23C6.00005 23.2652 6.10541 23.5196 6.29295 23.7071C6.48048 23.8946 6.73484 24 7.00005 24H17.0001C17.2653 24 17.5196 23.8946 17.7072 23.7071C17.8947 23.5196 18.0001 23.2652 18.0001 23C18.0001 22.7348 17.8947 22.4804 17.7072 22.2929C17.5196 22.1053 17.2653 22 17.0001 22H13.0001V11.965C15.0614 11.8471 17.0685 11.2598 18.8683 10.2481C20.6681 9.23629 22.213 7.82675 23.3851 6.12699C23.7728 5.52942 23.99 4.83733 24.0133 4.12536C24.0365 3.4134 23.865 2.7086 23.5171 2.08699ZM4.00005 1.99999H20.0001C20.5305 1.99999 21.0392 2.21071 21.4143 2.58578C21.7893 2.96085 22.0001 3.46956 22.0001 3.99999H2.00005C2.00005 3.46956 2.21077 2.96085 2.58584 2.58578C2.96091 2.21071 3.46962 1.99999 4.00005 1.99999ZM12.0001 9.99999C10.3042 10.0059 8.62636 9.65252 7.07699 8.96307C5.52762 8.27362 4.14189 7.26376 3.01105 5.99999H20.9891C19.8585 7.26406 18.4728 8.27412 16.9233 8.9636C15.3739 9.65308 13.6959 10.0063 12.0001 9.99999Z" fill="#021700"/>
</g>
<defs>
<clipPath id="clip0_195_76440">
<rect width="24" height="24" fill="white"/>
</clipPath>
</defs>
</svg>
