<svg width="24" height="24" viewBox="0 0 24 24" fill="none" xmlns="http://www.w3.org/2000/svg">
<g clip-path="url(#clip0_195_76441)">
<path d="M23.0001 4.99999C23.0001 4.20434 22.6841 3.44128 22.1215 2.87867C21.5588 2.31606 20.7958 1.99999 20.0001 1.99999H19.8291C19.6216 1.41548 19.2382 0.909503 18.7317 0.551436C18.2253 0.193368 17.6204 0.000749118 17.0001 -7.62939e-06L7.00013 -7.62939e-06C6.37986 0.000749118 5.77501 0.193368 5.26852 0.551436C4.76203 0.909503 4.37872 1.41548 4.17113 1.99999H4.00013C3.394 2.00399 2.80329 2.1915 2.30583 2.53782C1.80836 2.88415 1.42748 3.37304 1.21334 3.9401C0.999204 4.50716 0.961864 5.12579 1.10624 5.71449C1.25062 6.30319 1.56994 6.83435 2.02213 7.23799L3.57013 19.62C3.72268 20.8286 4.31063 21.9402 5.22386 22.7464C6.13708 23.5527 7.31292 23.9984 8.53113 24H15.4691C16.6873 23.9982 17.863 23.5524 18.7762 22.7462C19.6894 21.94 20.2774 20.8285 20.4301 19.62L21.9781 7.23799C22.2979 6.95917 22.5545 6.61529 22.7308 6.22935C22.907 5.8434 22.9989 5.42428 23.0001 4.99999ZM19.1171 14H15.9171C15.0251 8.71299 8.97013 8.71599 8.07913 14H4.87913L4.12913 7.99999H19.8671L19.1171 14ZM14.0001 15C13.8951 18.954 10.1051 18.953 10.0001 15C10.1051 11.046 13.9001 11.047 14.0001 15ZM4.00013 3.99999H5.00013C5.26535 3.99999 5.5197 3.89464 5.70724 3.7071C5.89478 3.51956 6.00013 3.26521 6.00013 2.99999C6.00013 2.73478 6.10549 2.48042 6.29303 2.29289C6.48056 2.10535 6.73492 1.99999 7.00013 1.99999H17.0001C17.2654 1.99999 17.5197 2.10535 17.7072 2.29289C17.8948 2.48042 18.0001 2.73478 18.0001 2.99999C18.0001 3.26521 18.1055 3.51956 18.293 3.7071C18.4806 3.89464 18.7349 3.99999 19.0001 3.99999H20.0001C20.2654 3.99999 20.5197 4.10535 20.7072 4.29289C20.8948 4.48042 21.0001 4.73478 21.0001 4.99999C21.0001 5.26521 20.8948 5.51956 20.7072 5.7071C20.5197 5.89464 20.2654 5.99999 20.0001 5.99999H4.00013C3.73492 5.99999 3.48056 5.89464 3.29303 5.7071C3.10549 5.51956 3.00013 5.26521 3.00013 4.99999C3.00013 4.73478 3.10549 4.48042 3.29303 4.29289C3.48056 4.10535 3.73492 3.99999 4.00013 3.99999ZM18.4451 19.372C18.3545 20.0974 18.002 20.7648 17.4541 21.2487C16.9061 21.7326 16.2002 21.9998 15.4691 22H8.53113C7.79988 22 7.0938 21.733 6.54559 21.249C5.99738 20.7651 5.64481 20.0976 5.55413 19.372L5.13313 16H8.08113C8.97313 21.287 15.0291 21.284 15.9191 16H18.8671L18.4451 19.372Z" fill="#021700"/>
</g>
<defs>
<clipPath id="clip0_195_76441">
<rect width="24" height="24" fill="white"/>
</clipPath>
</defs>
</svg>
