<svg width="24" height="24" viewBox="0 0 24 24" fill="none" xmlns="http://www.w3.org/2000/svg">
<g clip-path="url(#clip0_195_76450)">
<path d="M7 0C6.73478 0 6.48043 0.105357 6.29289 0.292893C6.10536 0.48043 6 0.734784 6 1V3C6 3.79565 5.68393 4.55871 5.12132 5.12132C4.55871 5.68393 3.79565 6 3 6H1C0.734784 6 0.48043 6.10536 0.292893 6.29289C0.105357 6.48043 0 6.73478 0 7C0 7.26522 0.105357 7.51957 0.292893 7.70711C0.48043 7.89464 0.734784 8 1 8H3C4.32559 7.99841 5.59644 7.47112 6.53378 6.53378C7.47112 5.59644 7.99841 4.32559 8 3V1C8 0.734784 7.89464 0.48043 7.70711 0.292893C7.51957 0.105357 7.26522 0 7 0V0Z" fill="#021700"/>
<path d="M23.0001 15.9999H21.0001C19.6745 16.0014 18.4037 16.5287 17.4663 17.4661C16.529 18.4034 16.0017 19.6743 16.0001 20.9998V22.9998C16.0001 23.2651 16.1055 23.5194 16.293 23.7069C16.4805 23.8945 16.7349 23.9998 17.0001 23.9998C17.2653 23.9998 17.5197 23.8945 17.7072 23.7069C17.8948 23.5194 18.0001 23.2651 18.0001 22.9998V20.9998C18.0001 20.2042 18.3162 19.4411 18.8788 18.8785C19.4414 18.3159 20.2045 17.9999 21.0001 17.9999H23.0001C23.2653 17.9999 23.5197 17.8945 23.7072 17.707C23.8948 17.5194 24.0001 17.2651 24.0001 16.9999C24.0001 16.7346 23.8948 16.4803 23.7072 16.2927C23.5197 16.1052 23.2653 15.9999 23.0001 15.9999Z" fill="#021700"/>
<path d="M21.0001 7.99999H23.0001C23.2653 7.99999 23.5197 7.89464 23.7072 7.7071C23.8948 7.51956 24.0001 7.26521 24.0001 6.99999C24.0001 6.73478 23.8948 6.48042 23.7072 6.29289C23.5197 6.10535 23.2653 5.99999 23.0001 5.99999H21.0001C20.2045 5.99999 19.4414 5.68392 18.8788 5.12131C18.3162 4.5587 18.0001 3.79564 18.0001 2.99999V0.999992C18.0001 0.734776 17.8948 0.480422 17.7072 0.292886C17.5197 0.105349 17.2653 -7.62939e-06 17.0001 -7.62939e-06C16.7349 -7.62939e-06 16.4805 0.105349 16.293 0.292886C16.1055 0.480422 16.0001 0.734776 16.0001 0.999992V2.99999C16.0017 4.32559 16.529 5.59643 17.4663 6.53377C18.4037 7.47111 19.6745 7.9984 21.0001 7.99999Z" fill="#021700"/>
<path d="M3 15.9999H1C0.734784 15.9999 0.48043 16.1052 0.292893 16.2927C0.105357 16.4803 0 16.7346 0 16.9999C0 17.2651 0.105357 17.5194 0.292893 17.707C0.48043 17.8945 0.734784 17.9999 1 17.9999H3C3.79565 17.9999 4.55871 18.3159 5.12132 18.8785C5.68393 19.4411 6 20.2042 6 20.9998V22.9998C6 23.2651 6.10536 23.5194 6.29289 23.7069C6.48043 23.8945 6.73478 23.9998 7 23.9998C7.26522 23.9998 7.51957 23.8945 7.70711 23.7069C7.89464 23.5194 8 23.2651 8 22.9998V20.9998C7.99841 19.6743 7.47112 18.4034 6.53378 17.4661C5.59644 16.5287 4.32559 16.0014 3 15.9999Z" fill="#021700"/>
</g>
<defs>
<clipPath id="clip0_195_76450">
<rect width="24" height="24" fill="white"/>
</clipPath>
</defs>
</svg>
