<svg width="24" height="24" viewBox="0 0 24 24" fill="none" xmlns="http://www.w3.org/2000/svg">
<g clip-path="url(#clip0_195_76452)">
<path d="M4.99988 14C5.55216 14 5.99987 13.5523 5.99987 13C5.99987 12.4477 5.55216 12 4.99988 12C4.44759 12 3.99988 12.4477 3.99988 13C3.99988 13.5523 4.44759 14 4.99988 14Z" fill="#021700"/>
<path d="M1 10.0001C1.55228 10.0001 2 9.55243 2 9.00014C2 8.44786 1.55228 8.00014 1 8.00014C0.447715 8.00014 0 8.44786 0 9.00014C0 9.55243 0.447715 10.0001 1 10.0001Z" fill="#021700"/>
<path d="M4.99988 5.99984C5.55216 5.99984 5.99987 5.55212 5.99987 4.99984C5.99987 4.44755 5.55216 3.99984 4.99988 3.99984C4.44759 3.99984 3.99988 4.44755 3.99988 4.99984C3.99988 5.55212 4.44759 5.99984 4.99988 5.99984Z" fill="#021700"/>
<path d="M1 2C1.55228 2 2 1.55228 2 1C2 0.447715 1.55228 0 1 0C0.447715 0 0 0.447715 0 1C0 1.55228 0.447715 2 1 2Z" fill="#021700"/>
<path d="M22.9999 14C23.5521 14 23.9999 13.5523 23.9999 13C23.9999 12.4477 23.5521 12 22.9999 12C22.4476 12 21.9999 12.4477 21.9999 13C21.9999 13.5523 22.4476 14 22.9999 14Z" fill="#021700"/>
<path d="M19 10.0001C19.5523 10.0001 20 9.55243 20 9.00014C20 8.44786 19.5523 8.00014 19 8.00014C18.4477 8.00014 18 8.44786 18 9.00014C18 9.55243 18.4477 10.0001 19 10.0001Z" fill="#021700"/>
<path d="M22.9999 5.99984C23.5521 5.99984 23.9999 5.55212 23.9999 4.99984C23.9999 4.44755 23.5521 3.99984 22.9999 3.99984C22.4476 3.99984 21.9999 4.44755 21.9999 4.99984C21.9999 5.55212 22.4476 5.99984 22.9999 5.99984Z" fill="#021700"/>
<path d="M19 1.99999C19.5523 1.99999 20 1.55228 20 0.999992C20 0.447708 19.5523 -7.62939e-06 19 -7.62939e-06C18.4477 -7.62939e-06 18 0.447708 18 0.999992C18 1.55228 18.4477 1.99999 19 1.99999Z" fill="#021700"/>
<path d="M13.9999 23.9998C14.5522 23.9998 14.9999 23.5521 14.9999 22.9998C14.9999 22.4476 14.5522 21.9999 13.9999 21.9999C13.4476 21.9999 12.9999 22.4476 12.9999 22.9998C12.9999 23.5521 13.4476 23.9998 13.9999 23.9998Z" fill="#021700"/>
<path d="M10 20C10.5523 20 11 19.5523 11 19C11 18.4477 10.5523 18 10 18C9.44771 18 9 18.4477 9 19C9 19.5523 9.44771 20 10 20Z" fill="#021700"/>
<path d="M13.9999 16.0002C14.5522 16.0002 14.9999 15.5524 14.9999 15.0002C14.9999 14.4479 14.5522 14.0001 13.9999 14.0001C13.4476 14.0001 12.9999 14.4479 12.9999 15.0002C12.9999 15.5524 13.4476 16.0002 13.9999 16.0002Z" fill="#021700"/>
<path d="M10 11.9999C10.5523 11.9999 11 11.5521 11 10.9998C11 10.4476 10.5523 9.99984 10 9.99984C9.44771 9.99984 9 10.4476 9 10.9998C9 11.5521 9.44771 11.9999 10 11.9999Z" fill="#021700"/>
<path d="M15.0001 2.99999C14.4697 2.99999 13.961 2.78928 13.5859 2.41421C13.2108 2.03913 13.0001 1.53043 13.0001 0.999992C13.0001 0.734776 12.8948 0.480422 12.7072 0.292886C12.5197 0.105349 12.2653 -7.62939e-06 12.0001 -7.62939e-06C11.7349 -7.62939e-06 11.4805 0.105349 11.293 0.292886C11.1055 0.480422 11.0001 0.734776 11.0001 0.999992C11.0001 1.53043 10.7894 2.03913 10.4143 2.41421C10.0393 2.78928 9.53055 2.99999 9.00012 2.99999C8.7349 2.99999 8.48055 3.10535 8.29301 3.29289C8.10548 3.48042 8.00012 3.73478 8.00012 3.99999C8.00012 4.26521 8.10548 4.51956 8.29301 4.7071C8.48055 4.89464 8.7349 4.99999 9.00012 4.99999C9.53055 4.99999 10.0393 5.21071 10.4143 5.58578C10.7894 5.96085 11.0001 6.46956 11.0001 6.99999C11.0001 7.26521 11.1055 7.51956 11.293 7.7071C11.4805 7.89464 11.7349 7.99999 12.0001 7.99999C12.2653 7.99999 12.5197 7.89464 12.7072 7.7071C12.8948 7.51956 13.0001 7.26521 13.0001 6.99999C13.0001 6.46956 13.2108 5.96085 13.5859 5.58578C13.961 5.21071 14.4697 4.99999 15.0001 4.99999C15.2653 4.99999 15.5197 4.89464 15.7072 4.7071C15.8948 4.51956 16.0001 4.26521 16.0001 3.99999C16.0001 3.73478 15.8948 3.48042 15.7072 3.29289C15.5197 3.10535 15.2653 2.99999 15.0001 2.99999Z" fill="#021700"/>
<path d="M7 18.9998C6.46957 18.9998 5.96086 18.7891 5.58579 18.4141C5.21071 18.039 5 17.5303 5 16.9999C5 16.7346 4.89464 16.4803 4.70711 16.2927C4.51957 16.1052 4.26522 15.9999 4 15.9999C3.73478 15.9999 3.48043 16.1052 3.29289 16.2927C3.10536 16.4803 3 16.7346 3 16.9999C3 17.5303 2.78929 18.039 2.41421 18.4141C2.03914 18.7891 1.53043 18.9998 1 18.9998C0.734784 18.9998 0.48043 19.1052 0.292893 19.2927C0.105357 19.4803 0 19.7346 0 19.9998C0 20.2651 0.105357 20.5194 0.292893 20.707C0.48043 20.8945 0.734784 20.9998 1 20.9998C1.53043 20.9998 2.03914 21.2106 2.41421 21.5856C2.78929 21.9607 3 22.4694 3 22.9998C3 23.2651 3.10536 23.5194 3.29289 23.7069C3.48043 23.8945 3.73478 23.9998 4 23.9998C4.26522 23.9998 4.51957 23.8945 4.70711 23.7069C4.89464 23.5194 5 23.2651 5 22.9998C5 22.4694 5.21071 21.9607 5.58579 21.5856C5.96086 21.2106 6.46957 20.9998 7 20.9998C7.26522 20.9998 7.51957 20.8945 7.70711 20.707C7.89464 20.5194 8 20.2651 8 19.9998C8 19.7346 7.89464 19.4803 7.70711 19.2927C7.51957 19.1052 7.26522 18.9998 7 18.9998Z" fill="#021700"/>
<path d="M22.9999 18.9998C22.4694 18.9998 21.9607 18.7891 21.5857 18.4141C21.2106 18.039 20.9999 17.5303 20.9999 16.9999C20.9999 16.7346 20.8945 16.4803 20.707 16.2927C20.5194 16.1052 20.2651 15.9999 19.9999 15.9999C19.7347 15.9999 19.4803 16.1052 19.2928 16.2927C19.1052 16.4803 18.9999 16.7346 18.9999 16.9999C18.9999 17.5303 18.7892 18.039 18.4141 18.4141C18.039 18.7891 17.5303 18.9998 16.9999 18.9998C16.7347 18.9998 16.4803 19.1052 16.2928 19.2927C16.1052 19.4803 15.9999 19.7346 15.9999 19.9998C15.9999 20.2651 16.1052 20.5194 16.2928 20.707C16.4803 20.8945 16.7347 20.9998 16.9999 20.9998C17.5303 20.9998 18.039 21.2106 18.4141 21.5856C18.7892 21.9607 18.9999 22.4694 18.9999 22.9998C18.9999 23.2651 19.1052 23.5194 19.2928 23.7069C19.4803 23.8945 19.7347 23.9998 19.9999 23.9998C20.2651 23.9998 20.5194 23.8945 20.707 23.7069C20.8945 23.5194 20.9999 23.2651 20.9999 22.9998C20.9999 22.4694 21.2106 21.9607 21.5857 21.5856C21.9607 21.2106 22.4694 20.9998 22.9999 20.9998C23.2651 20.9998 23.5194 20.8945 23.707 20.707C23.8945 20.5194 23.9999 20.2651 23.9999 19.9998C23.9999 19.7346 23.8945 19.4803 23.707 19.2927C23.5194 19.1052 23.2651 18.9998 22.9999 18.9998Z" fill="#021700"/>
</g>
<defs>
<clipPath id="clip0_195_76452">
<rect width="24" height="24" fill="white"/>
</clipPath>
</defs>
</svg>
