<svg width="28" height="28" viewBox="0 0 28 28" fill="none" xmlns="http://www.w3.org/2000/svg">
<g id="Confidence" clip-path="url(#clip0_5407_9184)">
<path id="Vector" d="M4.54527 21.875C2.9939 21.875 1.73277 20.6139 1.73277 19.0625C1.73277 17.5111 2.9939 16.25 4.54527 16.25C6.09665 16.25 7.35777 17.5111 7.35777 19.0625C7.35777 20.6139 6.09665 21.875 4.54527 21.875ZM16.3578 19.0625C16.3578 17.5089 15.0989 16.25 13.5453 16.25C11.9916 16.25 10.7328 17.5089 10.7328 19.0625C10.7328 20.6161 11.9916 21.875 13.5453 21.875C15.0989 21.875 16.3578 20.6161 16.3578 19.0625ZM13.5453 6.125C15.0989 6.125 16.3578 4.86613 16.3578 3.3125C16.3578 1.75888 15.0989 0.5 13.5453 0.5C11.9916 0.5 10.7328 1.75888 10.7328 3.3125C10.7328 4.86613 11.9916 6.125 13.5453 6.125ZM19.7328 19.0625C19.7328 20.6161 20.9916 21.875 22.5453 21.875C24.0989 21.875 25.3578 20.6161 25.3578 19.0625C25.3578 17.5089 24.0989 16.25 22.5453 16.25C20.9916 16.25 19.7328 17.5089 19.7328 19.0625ZM20.1108 8.72825L26.0901 3.60275C26.5615 3.19888 26.6166 2.489 26.2116 2.01763C25.8067 1.544 25.0956 1.49 24.6254 1.89613L18.6471 7.0205C17.6279 7.8935 16.3274 8.375 14.9864 8.375H12.1053C10.7643 8.375 9.46377 7.8935 8.44452 7.02163L2.46515 1.89613C1.99377 1.49225 1.28277 1.54513 0.878899 2.01763C0.475024 2.489 0.529024 3.19888 1.0004 3.60275L6.97977 8.72938C7.59965 9.26038 8.3039 9.6665 9.04415 9.97925V14.5614C9.04415 15.1835 9.54815 15.6864 10.1691 15.6864C10.7901 15.6864 11.2941 15.1835 11.2941 14.5614V10.5519C11.5641 10.58 11.8308 10.6239 12.1041 10.6239H14.9853C15.2586 10.6239 15.5253 10.58 15.7953 10.5519V14.5614C15.7953 15.1835 16.2993 15.6864 16.9203 15.6864C17.5413 15.6864 18.0453 15.1835 18.0453 14.5614V9.97925C18.7866 9.66538 19.4909 9.25925 20.1108 8.72825ZM26.9721 25.9756C26.2971 24.1959 24.5185 22.9989 22.5453 22.9989C20.572 22.9989 18.7934 24.1948 18.1184 25.9756C17.8979 26.5573 18.1904 27.2064 18.772 27.4269C19.3525 27.6463 20.0028 27.3549 20.2233 26.7733C20.5686 25.8609 21.5024 25.25 22.5464 25.25C23.5904 25.25 24.5241 25.862 24.8695 26.7733C25.0394 27.2221 25.468 27.5 25.9214 27.5C26.0541 27.5 26.1891 27.4764 26.3196 27.428C26.9001 27.2075 27.1926 26.5584 26.9733 25.9768L26.9721 25.9756ZM13.5453 22.9989C11.572 22.9989 9.7934 24.1948 9.1184 25.9756C8.8979 26.5573 9.1904 27.2064 9.77202 27.4269C10.3514 27.6463 11.0028 27.3549 11.2233 26.7733C11.5686 25.8609 12.5024 25.25 13.5464 25.25C14.5904 25.25 15.5241 25.862 15.8695 26.7733C16.0394 27.2221 16.468 27.5 16.9214 27.5C17.0541 27.5 17.1891 27.4764 17.3196 27.428C17.9001 27.2075 18.1926 26.5584 17.9733 25.9768C17.2983 24.197 15.5196 23 13.5464 23L13.5453 22.9989ZM4.54527 22.9989C2.57202 22.9989 0.793399 24.1948 0.118399 25.9756C-0.102101 26.5573 0.190399 27.2064 0.772024 27.4269C1.35252 27.6463 2.00277 27.3549 2.22327 26.7733C2.56865 25.8609 3.5024 25.25 4.5464 25.25C5.5904 25.25 6.52415 25.862 6.86952 26.7733C7.0394 27.2221 7.46802 27.5 7.9214 27.5C8.05415 27.5 8.18915 27.4764 8.31965 27.428C8.90015 27.2075 9.19265 26.5584 8.97327 25.9768C8.29827 24.197 6.51965 23 4.5464 23L4.54527 22.9989Z" fill="white"/>
</g>
<defs>
<clipPath id="clip0_5407_9184">
<rect width="27" height="27" fill="white" transform="translate(0.0449219 0.5)"/>
</clipPath>
</defs>
</svg>
