<svg width="24" height="24" viewBox="0 0 24 24" fill="none" xmlns="http://www.w3.org/2000/svg">
<g clip-path="url(#clip0_195_76453)">
<path d="M9.50012 11.0001C10.3285 11.0001 11.0001 10.3286 11.0001 9.50014C11.0001 8.67172 10.3285 8.00014 9.50012 8.00014C8.67169 8.00014 8.00012 8.67172 8.00012 9.50014C8.00012 10.3286 8.67169 11.0001 9.50012 11.0001Z" fill="#021700"/>
<path d="M18.5001 2.99999C19.3285 2.99999 20.0001 2.32842 20.0001 1.49999C20.0001 0.671565 19.3285 -7.62939e-06 18.5001 -7.62939e-06C17.6717 -7.62939e-06 17.0001 0.671565 17.0001 1.49999C17.0001 2.32842 17.6717 2.99999 18.5001 2.99999Z" fill="#021700"/>
<path d="M21.5001 8.00015C22.3285 8.00015 23.0001 7.32858 23.0001 6.50015C23.0001 5.67173 22.3285 5.00015 21.5001 5.00015C20.6717 5.00015 20.0001 5.67173 20.0001 6.50015C20.0001 7.32858 20.6717 8.00015 21.5001 8.00015Z" fill="#021700"/>
<path d="M9.50012 15.9999C10.3285 15.9999 11.0001 15.3283 11.0001 14.4999C11.0001 13.6714 10.3285 12.9999 9.50012 12.9999C8.67169 12.9999 8.00012 13.6714 8.00012 14.4999C8.00012 15.3283 8.67169 15.9999 9.50012 15.9999Z" fill="#021700"/>
<path d="M14.4999 15.9999C15.3283 15.9999 15.9999 15.3283 15.9999 14.4999C15.9999 13.6714 15.3283 12.9999 14.4999 12.9999C13.6715 12.9999 12.9999 13.6714 12.9999 14.4999C12.9999 15.3283 13.6715 15.9999 14.4999 15.9999Z" fill="#021700"/>
<path d="M23.943 10.854C23.9208 10.6228 23.8189 10.4066 23.6547 10.2423C23.4905 10.0781 23.2742 9.97617 23.043 9.954C20.7327 9.73141 18.5717 8.71208 16.9306 7.07077C15.2894 5.42945 14.2703 3.26837 14.048 0.958C14.0258 0.726814 13.9239 0.510552 13.7597 0.346329C13.5955 0.182106 13.3792 0.0801645 13.148 0.058C12.769 0.021 12.387 0 12 0C9.62663 0 7.30655 0.703788 5.33316 2.02236C3.35977 3.34094 1.8217 5.21509 0.913451 7.4078C0.00519943 9.60051 -0.232441 12.0133 0.230582 14.3411C0.693605 16.6689 1.83649 18.8071 3.51472 20.4853C5.19295 22.1635 7.33115 23.3064 9.65892 23.7694C11.9867 24.2324 14.3995 23.9948 16.5922 23.0866C18.7849 22.1783 20.6591 20.6402 21.9776 18.6668C23.2962 16.6935 24 14.3734 24 12C24 11.613 23.979 11.231 23.943 10.854ZM12 22C9.34784 22 6.8043 20.9464 4.92894 19.0711C3.05357 17.1957 2.00001 14.6522 2.00001 12C2.00001 9.34784 3.05357 6.8043 4.92894 4.92893C6.8043 3.05357 9.34784 2 12 2H12.17C12.5864 4.45575 13.7563 6.72121 15.5175 8.48247C17.2788 10.2437 19.5443 11.4136 22 11.83C22 11.887 22 11.943 22 12C21.9971 14.6513 20.9426 17.1931 19.0679 19.0679C17.1931 20.9426 14.6513 21.9971 12 22Z" fill="#021700"/>
</g>
<defs>
<clipPath id="clip0_195_76453">
<rect width="24" height="24" fill="white"/>
</clipPath>
</defs>
</svg>
