<svg width="24" height="24" viewBox="0 0 24 24" fill="none" xmlns="http://www.w3.org/2000/svg">
<g clip-path="url(#clip0_195_76457)">
<path d="M23.6302 3.84499C23.4432 3.58399 23.1967 3.37124 22.9112 3.22431C22.6257 3.07738 22.3093 3.00049 21.9882 2.99999H18.4442C18.9632 2.15299 19.5442 0.107992 18.0002 -7.62939e-06C17.735 -7.62939e-06 17.4806 0.105349 17.2931 0.292886C17.1056 0.480422 17.0002 0.734776 17.0002 0.999992C17.0002 1.53043 16.7895 2.03913 16.4144 2.41421C16.0394 2.78928 15.5307 2.99999 15.0002 2.99999H9.00022C8.46979 2.99999 7.96108 2.78928 7.586 2.41421C7.21093 2.03913 7.00022 1.53043 7.00022 0.999992C7.00022 0.734776 6.89486 0.480422 6.70732 0.292886C6.51979 0.105349 6.26543 -7.62939e-06 6.00022 -7.62939e-06C4.45222 0.108992 5.03822 2.15199 5.55622 2.99999H2.01222C1.69682 3.00037 1.38595 3.07503 1.10479 3.21793C0.823622 3.36083 0.580074 3.56796 0.393873 3.82252C0.207672 4.07709 0.0840553 4.37194 0.033037 4.68318C-0.0179813 4.99442 0.00503403 5.3133 0.100218 5.61399C0.643852 7.08686 1.67352 8.3303 3.01922 9.13899C3.01922 9.17399 6.01922 21.204 6.01922 21.204C6.06939 21.961 6.40508 22.6707 6.95843 23.1898C7.51179 23.7088 8.24155 23.9984 9.00022 24H15.0002C15.7592 23.9978 16.489 23.7074 17.042 23.1876C17.5951 22.6678 17.93 21.9574 17.9792 21.2C17.9792 21.2 20.9792 9.16999 20.9792 9.13499C22.3248 8.32791 23.3551 7.08631 23.9002 5.61499C24.001 5.32001 24.029 5.00507 23.982 4.69692C23.935 4.38878 23.8143 4.09653 23.6302 3.84499ZM18.3802 7.96199C17.6928 7.92528 17.005 8.02792 16.3582 8.26374C15.7114 8.49956 15.1189 8.86369 14.6164 9.33426C14.1139 9.80483 13.7117 10.3721 13.4339 11.0021C13.1562 11.632 13.0087 12.3116 13.0002 13V18H11.0002V13C10.9918 12.3116 10.8442 11.632 10.5665 11.0021C10.2888 10.3721 9.88657 9.80483 9.38405 9.33426C8.88154 8.86369 8.28908 8.49956 7.64228 8.26374C6.99548 8.02792 6.30769 7.92528 5.62022 7.96199C6.31321 6.79445 7.2399 5.78264 8.34222 4.98999L15.6422 4.99999C16.7502 5.78705 17.6825 6.79569 18.3802 7.96199ZM2.01222 4.99999H5.33322C4.7181 5.67784 4.18138 6.42288 3.73322 7.22099C2.9469 6.67304 2.3465 5.89821 2.01222 4.99999ZM6.00022 9.99999C6.353 10.0029 6.70245 10.0686 7.03222 10.194C6.98339 10.4374 6.99544 10.6891 7.0673 10.9267C7.13917 11.1643 7.26863 11.3805 7.44416 11.556C7.6197 11.7316 7.83589 11.861 8.07351 11.9329C8.31113 12.0048 8.56282 12.0168 8.80622 11.968C8.93158 12.2978 8.99728 12.6472 9.00022 13V18C8.43278 18.0015 7.8776 18.1652 7.40022 18.472L5.26322 9.92899C5.50698 9.96941 5.75322 9.99313 6.00022 9.99999ZM15.0002 22H9.00022C8.735 22 8.48065 21.8946 8.29311 21.7071C8.10558 21.5196 8.00022 21.2652 8.00022 21C8.00022 20.7348 8.10558 20.4804 8.29311 20.2929C8.48065 20.1053 8.735 20 9.00022 20H15.0002C15.2654 20 15.5198 20.1053 15.7073 20.2929C15.8949 20.4804 16.0002 20.7348 16.0002 21C16.0002 21.2652 15.8949 21.5196 15.7073 21.7071C15.5198 21.8946 15.2654 22 15.0002 22ZM16.6002 18.472C16.1228 18.1652 15.5677 18.0015 15.0002 18V13C15.0032 12.6472 15.0689 12.2978 15.1942 11.968C15.4376 12.0168 15.6893 12.0048 15.9269 11.9329C16.1645 11.861 16.3807 11.7316 16.5563 11.556C16.7318 11.3805 16.8613 11.1643 16.9331 10.9267C17.005 10.6891 17.0171 10.4374 16.9682 10.194C17.5457 10.0379 18.1393 9.94901 18.7372 9.92899L16.6002 18.472ZM20.2642 7.21499C19.8132 6.40908 19.2714 5.65751 18.6492 4.97499L22.0002 4.96999C21.6622 5.87684 21.0569 6.6597 20.2642 7.21499Z" fill="#021700"/>
</g>
<defs>
<clipPath id="clip0_195_76457">
<rect width="24" height="24" fill="white"/>
</clipPath>
</defs>
</svg>
