<svg width="24" height="24" viewBox="0 0 24 24" fill="none" xmlns="http://www.w3.org/2000/svg">
<g clip-path="url(#clip0_195_76458)">
<path d="M22 12.1839V10.9999C21.9974 10.3817 21.8039 9.77931 21.4459 9.27524C21.0879 8.77117 20.5829 8.39002 20 8.18394C20.0524 5.60458 19.4136 3.05818 18.15 0.808938C17.9576 0.537219 17.6987 0.319358 17.3981 0.176154C17.0975 0.0329498 16.7652 -0.0308181 16.433 -0.00906218C16.0871 0.0134349 15.7527 0.123898 15.4615 0.311854C15.1703 0.49981 14.9319 0.759031 14.769 1.06494C14 2.47594 13.24 2.99994 11.962 2.99994H10C8.53439 2.92615 7.09716 3.42286 5.98986 4.38585C4.88256 5.34884 4.19126 6.70326 4.061 8.16494C3.46364 8.3618 2.94326 8.74142 2.57342 9.25015C2.20359 9.75888 2.00299 10.371 2 10.9999V12.1839C1.41709 12.39 0.912091 12.7712 0.554088 13.2752C0.196084 13.7793 0.00256297 14.3817 0 14.9999L0 18.9999C0.00158786 20.3255 0.528882 21.5964 1.46622 22.5337C2.40356 23.4711 3.67441 23.9984 5 23.9999H19C20.3256 23.9984 21.5964 23.4711 22.5338 22.5337C23.4711 21.5964 23.9984 20.3255 24 18.9999V14.9999C23.9974 14.3817 23.8039 13.7793 23.4459 13.2752C23.0879 12.7712 22.5829 12.39 22 12.1839ZM10 4.99994H11.962C12.9359 5.00104 13.8885 4.71493 14.7007 4.17741C15.5128 3.6399 16.1484 2.87484 16.528 1.97794C17.5203 3.82841 18.0267 5.9004 18 7.99994H6.131C6.29118 7.11017 6.77518 6.31124 7.48963 5.75726C8.20408 5.20327 9.09838 4.93349 10 4.99994ZM4 10.9999C4 10.7347 4.10536 10.4804 4.29289 10.2928C4.48043 10.1053 4.73478 9.99994 5 9.99994H19C19.2652 9.99994 19.5196 10.1053 19.7071 10.2928C19.8946 10.4804 20 10.7347 20 10.9999V11.9999H4V10.9999ZM22 18.9999C22 19.7956 21.6839 20.5587 21.1213 21.1213C20.5587 21.6839 19.7956 21.9999 19 21.9999H5C4.20435 21.9999 3.44129 21.6839 2.87868 21.1213C2.31607 20.5587 2 19.7956 2 18.9999V14.9999C2 14.7347 2.10536 14.4804 2.29289 14.2928C2.48043 14.1053 2.73478 13.9999 3 13.9999H21C21.2652 13.9999 21.5196 14.1053 21.7071 14.2928C21.8946 14.4804 22 14.7347 22 14.9999V18.9999Z" fill="#021700"/>
</g>
<defs>
<clipPath id="clip0_195_76458">
<rect width="24" height="24" fill="white"/>
</clipPath>
</defs>
</svg>
