<svg width="24" height="24" viewBox="0 0 24 24" fill="none" xmlns="http://www.w3.org/2000/svg">
<g clip-path="url(#clip0_195_76464)">
<path d="M22.766 4.56596C22.4006 4.41375 21.9981 4.37374 21.6099 4.45102C21.2217 4.52831 20.8653 4.7194 20.586 4.99996L18 7.58596L13.414 2.99996C13.0389 2.62502 12.5303 2.41439 12 2.41439C11.4697 2.41439 10.9611 2.62502 10.586 2.99996L6 7.58596L3.414 4.99996C3.1343 4.72034 2.77797 4.52993 2.39006 4.45279C2.00216 4.37566 1.60009 4.41526 1.23469 4.5666C0.869291 4.71794 0.556965 4.97422 0.337197 5.30304C0.117428 5.63186 8.44486e-05 6.01846 0 6.41396L0 17C0.00158786 18.3256 0.528882 19.5964 1.46622 20.5337C2.40356 21.4711 3.67441 21.9984 5 22H19C20.3256 21.9984 21.5964 21.4711 22.5338 20.5337C23.4711 19.5964 23.9984 18.3256 24 17V6.41396C24.0001 6.01843 23.8829 5.63175 23.6633 5.30281C23.4436 4.97387 23.1314 4.71745 22.766 4.56596ZM22 17C22 17.7956 21.6839 18.5587 21.1213 19.1213C20.5587 19.6839 19.7956 20 19 20H5C4.20435 20 3.44129 19.6839 2.87868 19.1213C2.31607 18.5587 2 17.7956 2 17V6.41396L5.293 9.70696C5.48053 9.89443 5.73484 9.99975 6 9.99975C6.26516 9.99975 6.51947 9.89443 6.707 9.70696L12 4.41396L17.293 9.70696C17.4805 9.89443 17.7348 9.99975 18 9.99975C18.2652 9.99975 18.5195 9.89443 18.707 9.70696L22 6.41396V17Z" fill="#021700"/>
</g>
<defs>
<clipPath id="clip0_195_76464">
<rect width="24" height="24" fill="white"/>
</clipPath>
</defs>
</svg>
