<svg width="24" height="24" viewBox="0 0 24 24" fill="none" xmlns="http://www.w3.org/2000/svg">
<g clip-path="url(#clip0_195_76472)">
<path d="M20.0002 0.000174109H18.2432C17.7175 -0.00121545 17.1969 0.101653 16.7113 0.302826C16.2257 0.503999 15.7848 0.799482 15.4142 1.17217L12.1722 4.41417C11.424 5.1655 11.0028 6.18187 11.0002 7.24217V10.7052C7.73415 13.1202 3.41915 16.3382 2.87915 16.8792C2.44405 17.3172 2.15504 17.879 2.05175 18.4877C1.94845 19.0964 2.03591 19.7221 2.30215 20.2792L0.293153 22.2932C0.105682 22.4807 0.000366211 22.735 0.000366211 23.0002C0.000366211 23.2653 0.105682 23.5196 0.293153 23.7072C0.48068 23.8946 0.734988 24 1.00015 24C1.26532 24 1.51963 23.8946 1.70715 23.7072L3.71415 21.7002C4.2713 21.9719 4.8996 22.0622 5.51073 21.9584C6.12185 21.8545 6.68506 21.5617 7.12115 21.1212C7.66215 20.5802 10.8802 16.2662 13.3002 13.0002H16.7622C17.2878 13.0016 17.8084 12.8987 18.294 12.6975C18.7796 12.4963 19.2205 12.2009 19.5912 11.8282L22.8332 8.58617C23.5795 7.83403 23.9989 6.81776 24.0002 5.75817V4.00017C24.0002 2.93931 23.5787 1.92189 22.8286 1.17175C22.0784 0.421602 21.061 0.000174109 20.0002 0.000174109ZM5.70715 19.7072C5.51702 19.8897 5.26369 19.9916 5.00015 19.9916C4.73661 19.9916 4.48328 19.8897 4.29315 19.7072C4.10568 19.5196 4.00037 19.2653 4.00037 19.0002C4.00037 18.735 4.10568 18.4807 4.29315 18.2932C4.63215 17.9572 7.29315 15.9502 10.2412 13.7592C8.04915 16.7062 6.04215 19.3692 5.70715 19.7072ZM22.0002 5.75817C21.9988 6.28832 21.7882 6.79651 21.4142 7.17217L18.1722 10.4142C17.9867 10.6005 17.7662 10.7482 17.5233 10.8488C17.2804 10.9493 17.02 11.0008 16.7572 11.0002H14.7712L15.7622 9.65217L19.7072 5.70717C19.8027 5.61493 19.8788 5.50458 19.9313 5.38258C19.9837 5.26057 20.0112 5.12935 20.0124 4.99658C20.0136 4.8638 19.9883 4.73212 19.938 4.60922C19.8877 4.48632 19.8134 4.37467 19.7195 4.28078C19.6257 4.18689 19.514 4.11263 19.3911 4.06235C19.2682 4.01207 19.1365 3.98677 19.0038 3.98792C18.871 3.98908 18.7398 4.01666 18.6177 4.06907C18.4957 4.12148 18.3854 4.19766 18.2932 4.29317L14.3492 8.23717L13.0002 9.22917V7.24217C13.0015 6.71202 13.2121 6.20384 13.5862 5.82817L16.8282 2.58617C17.0136 2.39988 17.2341 2.25218 17.477 2.1516C17.7199 2.05102 17.9803 1.99955 18.2432 2.00017H20.0002C20.5306 2.00017 21.0393 2.21089 21.4144 2.58596C21.7894 2.96103 22.0002 3.46974 22.0002 4.00017V5.75817Z" fill="#021700"/>
</g>
<defs>
<clipPath id="clip0_195_76472">
<rect width="24" height="24" fill="white"/>
</clipPath>
</defs>
</svg>
