<svg width="24" height="24" viewBox="0 0 24 24" fill="none" xmlns="http://www.w3.org/2000/svg">
<g clip-path="url(#clip0_195_76473)">
<path d="M23.8998 11.4372C23.5069 8.41258 21.9771 5.6511 19.6212 3.71401C17.2653 1.77691 14.2602 0.809577 11.2167 1.00861C8.17322 1.20765 5.31972 2.55813 3.23619 4.78554C1.15266 7.01296 -0.00452438 9.95017 -0.000170087 13.0002C-0.00593449 14.6327 0.324888 16.2489 0.971645 17.7478C1.6184 19.2468 2.56721 20.5963 3.75883 21.7122C4.67017 22.5559 5.87099 23.0171 7.11283 23.0002H16.8798C18.1918 23.0032 19.4523 22.4899 20.3888 21.5712C21.7235 20.2726 22.7361 18.68 23.3457 16.9204C23.9554 15.1608 24.1451 13.2831 23.8998 11.4372ZM18.9908 20.1372C18.4282 20.6915 17.6697 21.0016 16.8798 21.0002H7.11283C6.3821 21.0152 5.67332 20.7501 5.13183 20.2592C4.1391 19.3293 3.34865 18.2048 2.80979 16.9559C2.27092 15.7069 1.9952 14.3604 1.99983 13.0002C2.00081 11.5924 2.2986 10.2007 2.87377 8.91577C3.44893 7.63087 4.28855 6.48167 5.33783 5.54317C7.16097 3.89907 9.53087 2.99254 11.9858 3.00017C12.3781 3.00033 12.77 3.02237 13.1598 3.06617C15.0354 3.284 16.811 4.02873 18.2808 5.21409C19.7506 6.39945 20.8545 7.97694 21.4647 9.76385C22.0748 11.5508 22.1663 13.474 21.7285 15.3107C21.2907 17.1475 20.3415 18.8226 18.9908 20.1422V20.1372ZM7.80683 17.2852C7.99646 17.4708 8.10457 17.7242 8.10739 17.9896C8.1102 18.2549 8.00748 18.5105 7.82183 18.7002C7.63618 18.8898 7.3828 18.9979 7.11744 19.0007C6.85207 19.0035 6.59646 18.9008 6.40683 18.7152C5.27179 17.6033 4.49353 16.1787 4.17124 14.6229C3.84895 13.0671 3.99725 11.4505 4.59721 9.97929C5.19718 8.50806 6.22165 7.24881 7.54003 6.36205C8.8584 5.47529 10.411 5.00118 11.9998 5.00017C12.3823 5.00006 12.7642 5.02712 13.1428 5.08117C13.2729 5.09991 13.3979 5.14409 13.5109 5.21118C13.6238 5.27827 13.7224 5.36696 13.8011 5.47218C13.8797 5.5774 13.9369 5.69708 13.9693 5.82439C14.0017 5.95171 14.0086 6.08415 13.9898 6.21417C13.9726 6.3449 13.9294 6.47086 13.8628 6.58465C13.7962 6.69844 13.7075 6.79777 13.6019 6.87678C13.4964 6.95579 13.3761 7.01289 13.2481 7.04473C13.1201 7.07657 12.9871 7.0825 12.8568 7.06217C11.6053 6.88341 10.3293 7.10453 9.21092 7.69397C8.09253 8.28341 7.1889 9.21106 6.62899 10.3445C6.06908 11.478 5.88149 12.7593 6.09301 14.0057C6.30452 15.2521 6.90433 16.3999 7.80683 17.2852ZM19.9188 11.8572C19.9729 12.2358 19.9999 12.6177 19.9998 13.0002C20.0031 14.0658 19.7915 15.1212 19.3778 16.1033C18.9641 17.0854 18.3566 17.9741 17.5918 18.7162C17.4019 18.9018 17.1461 19.0044 16.8805 19.0014C16.615 18.9984 16.3615 18.8901 16.1758 18.7002C15.9902 18.5103 15.8876 18.2544 15.8906 17.9889C15.8936 17.7233 16.0019 17.4698 16.1918 17.2842C16.8675 16.6256 17.3777 15.8165 17.6808 14.923C17.9839 14.0295 18.0713 13.0769 17.9358 12.1432C17.8979 11.8805 17.9659 11.6135 18.1248 11.4009C18.2838 11.1883 18.5206 11.0476 18.7833 11.0097C19.046 10.9717 19.313 11.0397 19.5256 11.1987C19.7382 11.3576 19.8789 11.5945 19.9168 11.8572H19.9188ZM13.9258 12.4882C14.0462 12.9209 14.0198 13.3813 13.8509 13.7975C13.6819 14.2137 13.3799 14.5622 12.9919 14.7887C12.604 15.0151 12.152 15.1067 11.7065 15.0491C11.2611 14.9915 10.8472 14.788 10.5296 14.4704C10.212 14.1528 10.0085 13.7389 9.95093 13.2935C9.89335 12.848 9.98492 12.396 10.2113 12.0081C10.4378 11.6201 10.7863 11.3181 11.2025 11.1491C11.6187 10.9802 12.0791 10.9538 12.5118 11.0742L16.2928 7.29317C16.3851 7.19766 16.4954 7.12147 16.6174 7.06907C16.7394 7.01666 16.8706 6.98907 17.0034 6.98792C17.1362 6.98676 17.2679 7.01206 17.3908 7.06235C17.5137 7.11263 17.6253 7.18688 17.7192 7.28077C17.8131 7.37466 17.8874 7.48632 17.9377 7.60921C17.9879 7.73211 18.0132 7.86379 18.0121 7.99657C18.0109 8.12935 17.9833 8.26057 17.9309 8.38257C17.8785 8.50458 17.8023 8.61492 17.7068 8.70717L13.9258 12.4882Z" fill="#021700"/>
</g>
<defs>
<clipPath id="clip0_195_76473">
<rect width="24" height="24" fill="white"/>
</clipPath>
</defs>
</svg>
