<svg width="24" height="24" viewBox="0 0 24 24" fill="none" xmlns="http://www.w3.org/2000/svg">
<g clip-path="url(#clip0_195_76477)">
<path d="M23.2198 5.74296L20.2088 1.67496C19.8385 1.15729 19.3502 0.735324 18.7843 0.444031C18.2184 0.152739 17.5913 0.000507944 16.9548 -4.4014e-05H7.0448C6.41144 -0.000638511 5.78698 0.149179 5.22283 0.437079C4.65868 0.724979 4.17096 1.14273 3.7998 1.65596L0.734803 5.75296C0.235767 6.45665 -0.0219516 7.30303 0.000221156 8.16542C0.0223939 9.02782 0.323265 9.85984 0.857803 10.537L9.6498 22.865C9.92999 23.2197 10.2871 23.5063 10.6942 23.7029C11.1013 23.8995 11.5477 24.0011 11.9998 24C12.4596 23.999 12.9131 23.8926 13.3254 23.6889C13.7377 23.4852 14.0977 23.1897 14.3778 22.825L23.0998 10.634C23.6583 9.94694 23.973 9.09405 23.9948 8.20894C24.0165 7.32383 23.7439 6.45653 23.2198 5.74296ZM18.5918 2.85096L21.6098 6.92896C21.6258 6.95096 21.6298 6.97696 21.6458 6.99996H16.7538L15.3258 1.99996H16.9548C17.2758 2.00095 17.5918 2.07872 17.8766 2.22676C18.1614 2.3748 18.4066 2.58882 18.5918 2.85096ZM11.9998 19.118L9.2998 8.99996H14.6998L11.9998 19.118ZM9.3258 6.99996L10.7538 1.99996H13.2458L14.6738 6.99996H9.3258ZM5.4168 2.83696C5.60235 2.57834 5.84675 2.36757 6.12982 2.22204C6.41289 2.0765 6.72651 2.00038 7.0448 1.99996H8.6738L7.2458 6.99996H2.3178C2.3318 6.97796 2.3358 6.95096 2.3518 6.92996L5.4168 2.83696ZM2.4478 9.32496C2.3756 9.22297 2.31363 9.11411 2.2628 8.99996H7.2318L10.2258 20.23L2.4478 9.32496ZM13.7708 20.24L16.7708 8.99996H21.7568C21.6924 9.14922 21.6108 9.2905 21.5138 9.42096L13.7708 20.24Z" fill="#021700"/>
</g>
<defs>
<clipPath id="clip0_195_76477">
<rect width="24" height="24" fill="white"/>
</clipPath>
</defs>
</svg>
