<svg width="24" height="24" viewBox="0 0 24 24" fill="none" xmlns="http://www.w3.org/2000/svg">
<g clip-path="url(#clip0_195_76479)">
<path d="M11 12C11.2652 12 11.5196 12.1053 11.7071 12.2929C11.8946 12.4804 12 12.7348 12 13C12 13.2652 11.8946 13.5196 11.7071 13.7071C11.5196 13.8946 11.2652 14 11 14H8C7.73478 14 7.48043 13.8946 7.29289 13.7071C7.10536 13.5196 7 13.2652 7 13C7 12.7348 7.10536 12.4804 7.29289 12.2929C7.48043 12.1053 7.73478 12 8 12H11ZM17 8.99999C17 8.73478 16.8946 8.48042 16.7071 8.29289C16.5196 8.10535 16.2652 7.99999 16 7.99999H8C7.73478 7.99999 7.48043 8.10535 7.29289 8.29289C7.10536 8.48042 7 8.73478 7 8.99999C7 9.26521 7.10536 9.51956 7.29289 9.7071C7.48043 9.89464 7.73478 9.99999 8 9.99999H16C16.2652 9.99999 16.5196 9.89464 16.7071 9.7071C16.8946 9.51956 17 9.26521 17 8.99999ZM8 5.99999H16C16.2652 5.99999 16.5196 5.89464 16.7071 5.7071C16.8946 5.51956 17 5.26521 17 4.99999C17 4.73478 16.8946 4.48042 16.7071 4.29289C16.5196 4.10535 16.2652 3.99999 16 3.99999H8C7.73478 3.99999 7.48043 4.10535 7.29289 4.29289C7.10536 4.48042 7 4.73478 7 4.99999C7 5.26521 7.10536 5.51956 7.29289 5.7071C7.48043 5.89464 7.73478 5.99999 8 5.99999ZM20 19.444V23.277C20.0001 23.4196 19.9578 23.5591 19.8786 23.6777C19.7994 23.7964 19.6868 23.8888 19.555 23.9434C19.4232 23.998 19.2781 24.0123 19.1382 23.9845C18.9983 23.9566 18.8698 23.8879 18.769 23.787L18 23.019L17.231 23.787C17.1302 23.8879 17.0017 23.9566 16.8618 23.9845C16.7219 24.0123 16.5768 23.998 16.445 23.9434C16.3132 23.8888 16.2006 23.7964 16.1214 23.6777C16.0422 23.5591 15.9999 23.4196 16 23.277V19.444C15.2373 19.0058 14.641 18.3277 14.3038 17.5154C13.9666 16.703 13.9076 15.8019 14.1358 14.9525C14.364 14.103 14.8667 13.3529 15.5656 12.8189C16.2646 12.2849 17.1204 11.997 18 12C18.338 12.0042 18.6741 12.0519 19 12.142V4.99999C19 4.20434 18.6839 3.44128 18.1213 2.87867C17.5587 2.31606 16.7956 1.99999 16 1.99999H8C7.20435 1.99999 6.44129 2.31606 5.87868 2.87867C5.31607 3.44128 5 4.20434 5 4.99999V17C5 17.7956 5.31607 18.5587 5.87868 19.1213C6.44129 19.6839 7.20435 20 8 20H13C13.2652 20 13.5196 20.1053 13.7071 20.2929C13.8946 20.4804 14 20.7348 14 21C14 21.2652 13.8946 21.5196 13.7071 21.7071C13.5196 21.8946 13.2652 22 13 22H8C6.67441 21.9984 5.40356 21.4711 4.46622 20.5338C3.52888 19.5964 3.00159 18.3256 3 17V4.99999C3.00159 3.6744 3.52888 2.40355 4.46622 1.46621C5.40356 0.528874 6.67441 0.00158023 8 -7.62939e-06L16 -7.62939e-06C17.3256 0.00158023 18.5964 0.528874 19.5338 1.46621C20.4711 2.40355 20.9984 3.6744 21 4.99999V13.382C21.3917 13.8219 21.6801 14.3438 21.844 14.9096C22.0079 15.4753 22.0433 16.0706 21.9474 16.6518C21.8515 17.2329 21.6269 17.7853 21.2899 18.2684C20.953 18.7516 20.5122 19.1532 20 19.444ZM20 16C20 15.6044 19.8827 15.2178 19.6629 14.8889C19.4432 14.56 19.1308 14.3036 18.7654 14.1522C18.3999 14.0009 17.9978 13.9613 17.6098 14.0384C17.2219 14.1156 16.8655 14.3061 16.5858 14.5858C16.3061 14.8655 16.1156 15.2218 16.0384 15.6098C15.9613 15.9978 16.0009 16.3999 16.1522 16.7654C16.3036 17.1308 16.56 17.4432 16.8889 17.6629C17.2178 17.8827 17.6044 18 18 18C18.5304 18 19.0391 17.7893 19.4142 17.4142C19.7893 17.0391 20 16.5304 20 16Z" fill="#021700"/>
</g>
<defs>
<clipPath id="clip0_195_76479">
<rect width="24" height="24" fill="white"/>
</clipPath>
</defs>
</svg>
