<svg width="24" height="24" viewBox="0 0 24 24" fill="none" xmlns="http://www.w3.org/2000/svg">
<g clip-path="url(#clip0_195_76480)">
<path d="M12.9999 4.05099V1.99999H14.9999C15.2651 1.99999 15.5195 1.89464 15.707 1.7071C15.8945 1.51956 15.9999 1.26521 15.9999 0.999992C15.9999 0.734776 15.8945 0.480422 15.707 0.292886C15.5195 0.105349 15.2651 -7.62939e-06 14.9999 -7.62939e-06L8.99989 -7.62939e-06C8.73467 -7.62939e-06 8.48032 0.105349 8.29278 0.292886C8.10525 0.480422 7.99989 0.734776 7.99989 0.999992C7.99989 1.26521 8.10525 1.51956 8.29278 1.7071C8.48032 1.89464 8.73467 1.99999 8.99989 1.99999H10.9999V4.05099C8.44725 4.30754 6.09085 5.53534 4.41805 7.48046C2.74524 9.42558 1.88399 11.9392 2.01243 14.5015C2.14086 17.0638 3.24916 19.4787 5.10809 21.2468C6.96703 23.0149 9.43439 24.0009 11.9999 24.0009C14.5654 24.0009 17.0328 23.0149 18.8917 21.2468C20.7506 19.4787 21.8589 17.0638 21.9874 14.5015C22.1158 11.9392 21.2545 9.42558 19.5817 7.48046C17.9089 5.53534 15.5525 4.30754 12.9999 4.05099ZM15.9999 15.67V12.33C18.6339 12.798 19.9999 13.638 19.9999 14C19.9999 14.362 18.6339 15.2 15.9999 15.67ZM3.99989 14C3.99989 13.638 5.36589 12.8 7.99989 12.33V15.67C5.36589 15.2 3.99989 14.362 3.99989 14ZM9.99989 12.078C10.6209 12.029 11.2849 12 11.9999 12C12.7149 12 13.3789 12.029 13.9999 12.078V15.922C13.3789 15.971 12.7149 16 11.9999 16C11.2849 16 10.6209 15.971 9.99989 15.922V12.078ZM11.9999 5.99999C12.675 6.00241 13.3471 6.09079 13.9999 6.26299V10.075C13.3359 10.026 12.6649 9.99999 11.9999 9.99999C11.3349 9.99999 10.6639 10.026 9.99989 10.075V6.26299C10.6527 6.09079 11.3248 6.00241 11.9999 5.99999ZM19.4999 11.236C18.3755 10.7832 17.2002 10.4689 15.9999 10.3V7.08199C17.613 8.01882 18.8503 9.4873 19.4999 11.236ZM7.99989 7.08199V10.3C6.79971 10.4679 5.62442 10.7812 4.49989 11.233C5.15005 9.48542 6.38728 8.01807 7.99989 7.08199ZM4.49989 16.764C5.62428 17.2168 6.79958 17.5311 7.99989 17.7V20.921C6.38621 19.9834 5.14886 18.5138 4.49989 16.764ZM9.99989 21.737V17.925C10.6639 17.974 11.3349 18 11.9999 18C12.6649 18 13.3359 17.974 13.9999 17.925V21.737C12.6896 22.0877 11.3102 22.0877 9.99989 21.737ZM15.9999 20.918V17.7C17.2001 17.532 18.3754 17.2187 19.4999 16.767C18.8497 18.5146 17.6125 19.9819 15.9999 20.918Z" fill="#021700"/>
</g>
<defs>
<clipPath id="clip0_195_76480">
<rect width="24" height="24" fill="white"/>
</clipPath>
</defs>
</svg>
