<svg width="24" height="24" viewBox="0 0 24 24" fill="none" xmlns="http://www.w3.org/2000/svg">
<g clip-path="url(#clip0_195_76485)">
<path d="M13.9321 3.99999C14.7456 4.00079 15.5255 4.32428 16.1006 4.89947C16.6758 5.47466 16.9993 6.25455 17.0001 7.06799C17.0001 7.33321 17.1055 7.58756 17.293 7.7751C17.4806 7.96264 17.7349 8.06799 18.0001 8.06799C18.2653 8.06799 18.5197 7.96264 18.7072 7.7751C18.8948 7.58756 19.0001 7.33321 19.0001 7.06799V6.99999C19.0001 6.98099 19.0001 6.96399 19.0001 6.94499C18.9667 5.62272 18.4183 4.36577 17.4716 3.44205C16.5249 2.51832 15.2548 2.00087 13.9321 1.99999H13.0001V0.999992C13.0001 0.734776 12.8948 0.480422 12.7072 0.292886C12.5197 0.105349 12.2653 -7.62939e-06 12.0001 -7.62939e-06C11.7349 -7.62939e-06 11.4806 0.105349 11.293 0.292886C11.1055 0.480422 11.0001 0.734776 11.0001 0.999992V1.99999H10.0681C8.86544 2.00128 7.70241 2.43023 6.78692 3.21017C5.87142 3.99011 5.26313 5.07022 5.07078 6.25742C4.87842 7.44462 5.11453 8.66153 5.73691 9.69065C6.3593 10.7198 7.32738 11.494 8.46812 11.875L11.0001 12.72V20H10.0681C9.25468 19.9992 8.47479 19.6757 7.8996 19.1005C7.32441 18.5253 7.00092 17.7454 7.00012 16.932C7.00012 16.6668 6.89477 16.4124 6.70723 16.2249C6.51969 16.0373 6.26534 15.932 6.00012 15.932C5.73491 15.932 5.48055 16.0373 5.29302 16.2249C5.10548 16.4124 5.00012 16.6668 5.00012 16.932V17C5.00012 17.019 5.00012 17.036 5.00012 17.055C5.0335 18.3773 5.58198 19.6342 6.52869 20.5579C7.47539 21.4817 8.74543 21.9991 10.0681 22H11.0001V23C11.0001 23.2652 11.1055 23.5196 11.293 23.7071C11.4806 23.8946 11.7349 24 12.0001 24C12.2653 24 12.5197 23.8946 12.7072 23.7071C12.8948 23.5196 13.0001 23.2652 13.0001 23V22H13.9321C15.1348 21.9987 16.2978 21.5698 17.2133 20.7898C18.1288 20.0099 18.7371 18.9298 18.9295 17.7426C19.1218 16.5554 18.8857 15.3385 18.2633 14.3093C17.6409 13.2802 16.6729 12.506 15.5321 12.125L13.0001 11.28V3.99999H13.9321ZM14.9021 14.021C15.5935 14.2511 16.1805 14.7198 16.5578 15.3432C16.9352 15.9666 17.0784 16.704 16.9617 17.4233C16.845 18.1426 16.476 18.7969 15.9209 19.269C15.3659 19.7411 14.6608 20.0003 13.9321 20H13.0001V13.387L14.9021 14.021ZM11.0001 10.613L9.10012 9.97899C8.40886 9.74892 7.82203 9.28036 7.44466 8.65718C7.06728 8.03399 6.92399 7.29685 7.04042 6.57767C7.15686 5.85849 7.52542 5.20422 8.08015 4.73194C8.63489 4.25966 9.33958 4.0002 10.0681 3.99999H11.0001V10.613Z" fill="#021700"/>
</g>
<defs>
<clipPath id="clip0_195_76485">
<rect width="24" height="24" fill="white"/>
</clipPath>
</defs>
</svg>
