<svg width="24" height="24" viewBox="0 0 24 24" fill="none" xmlns="http://www.w3.org/2000/svg">
<g clip-path="url(#clip0_195_76490)">
<path d="M19.9 3.09112C19.7771 2.56278 19.5479 2.06496 19.2265 1.62794C18.9052 1.19093 18.4982 0.823852 18.0305 0.549033C17.5629 0.274213 17.0441 0.0973968 16.506 0.0293355C15.9678 -0.0387258 15.4214 0.00339065 14.9 0.153124L13.176 0.646124C12.7393 0.771644 12.337 0.995342 12 1.30012C11.663 0.995342 11.2607 0.771644 10.824 0.646124L9.1 0.153124C8.57894 0.00417106 8.03304 -0.037345 7.49544 0.0310954C6.95784 0.0995358 6.43976 0.276505 5.97263 0.551262C5.50551 0.826018 5.09909 1.19283 4.77804 1.62944C4.45699 2.06604 4.22801 2.56333 4.105 3.09112C2.9548 3.30039 1.91429 3.90608 1.16433 4.80292C0.414377 5.69976 0.00239598 6.83104 0 8.00012L0 15.0001C0.00158786 16.3257 0.528882 17.5966 1.46622 18.5339C2.40356 19.4712 3.67441 19.9985 5 20.0001H11V22.0001H8C7.73478 22.0001 7.48043 22.1055 7.29289 22.293C7.10536 22.4806 7 22.7349 7 23.0001C7 23.2653 7.10536 23.5197 7.29289 23.7072C7.48043 23.8948 7.73478 24.0001 8 24.0001H16C16.2652 24.0001 16.5196 23.8948 16.7071 23.7072C16.8946 23.5197 17 23.2653 17 23.0001C17 22.7349 16.8946 22.4806 16.7071 22.293C16.5196 22.1055 16.2652 22.0001 16 22.0001H13V20.0001H19C20.3256 19.9985 21.5964 19.4712 22.5338 18.5339C23.4711 17.5966 23.9984 16.3257 24 15.0001V8.00012C23.9978 6.83176 23.5865 5.70105 22.8376 4.80431C22.0886 3.90757 21.0493 3.30143 19.9 3.09112ZM13 3.53112C13.0001 3.31394 13.0709 3.10269 13.2017 2.92931C13.3325 2.75593 13.5162 2.62985 13.725 2.57012L15.45 2.07712C15.7477 1.99198 16.0611 1.97711 16.3655 2.03369C16.6699 2.09027 16.957 2.21675 17.2042 2.40317C17.4514 2.5896 17.652 2.83087 17.7901 3.10799C17.9281 3.38511 18 3.6905 18 4.00012V7.93812C17.9986 8.37208 17.8565 8.79388 17.5951 9.14024C17.3337 9.4866 16.967 9.73885 16.55 9.85912L13 10.8731V3.53112ZM6.8 2.40012C7.04673 2.21438 7.33325 2.08851 7.63695 2.03246C7.94065 1.9764 8.25322 1.99169 8.55 2.07712L10.275 2.57012C10.4838 2.62985 10.6675 2.75593 10.7983 2.92931C10.9291 3.10269 10.9999 3.31394 11 3.53112V10.8731L7.45 9.85912C7.03305 9.73885 6.66634 9.4866 6.4049 9.14024C6.14346 8.79388 6.00139 8.37208 6 7.93812V4.00012C5.99898 3.68946 6.07083 3.38288 6.20976 3.105C6.3487 2.82713 6.55086 2.58571 6.8 2.40012ZM22 15.0001C22 15.7958 21.6839 16.5588 21.1213 17.1214C20.5587 17.6841 19.7956 18.0001 19 18.0001H5C4.20435 18.0001 3.44129 17.6841 2.87868 17.1214C2.31607 16.5588 2 15.7958 2 15.0001V8.00012C2.00256 7.38186 2.19608 6.77949 2.55409 6.27542C2.91209 5.77136 3.41709 5.39021 4 5.18412V7.93812C4.00245 8.80646 4.28642 9.65059 4.8093 10.3439C5.33218 11.0371 6.06577 11.5421 6.9 11.7831L10.351 12.7701C11.4295 13.0776 12.5725 13.0776 13.651 12.7701L17.102 11.7831C17.9359 11.5418 18.669 11.0366 19.1915 10.3434C19.714 9.65014 19.9977 8.80621 20 7.93812V5.18412C20.5829 5.39021 21.0879 5.77136 21.4459 6.27542C21.8039 6.77949 21.9974 7.38186 22 8.00012V15.0001Z" fill="#021700"/>
</g>
<defs>
<clipPath id="clip0_195_76490">
<rect width="24" height="24" fill="white"/>
</clipPath>
</defs>
</svg>
