<svg width="24" height="24" viewBox="0 0 24 24" fill="none" xmlns="http://www.w3.org/2000/svg">
<g clip-path="url(#clip0_195_76504)">
<path d="M23.1122 5.16491C23.3932 4.884 23.6161 4.55046 23.7683 4.18336C23.9204 3.81626 23.9987 3.42278 23.9987 3.02541C23.9987 2.62804 23.9204 2.23457 23.7683 1.86747C23.6161 1.50037 23.3932 1.16683 23.1122 0.885913C22.5364 0.335535 21.7706 0.0283813 20.9742 0.0283813C20.1777 0.0283813 19.4119 0.335535 18.8362 0.885913L16.4002 3.32391C15.3882 4.33691 13.2772 4.11291 11.8212 3.31091C11.2698 3.01243 10.6291 2.92323 10.0172 3.05976C9.40526 3.19629 8.86327 3.54935 8.49107 4.0539C8.11887 4.55844 7.94152 5.1805 7.9917 5.80546C8.04189 6.43043 8.31621 7.01622 8.76415 7.45491L10.1802 8.87091L2.02515 17.0249C1.48987 17.5545 1.14226 18.2445 1.03521 18.9898C0.928165 19.7352 1.06755 20.4951 1.43215 21.1539L0.293153 22.2929C0.105682 22.4804 0.000366211 22.7347 0.000366211 22.9999C0.000366211 23.2651 0.105682 23.5194 0.293153 23.7069C0.48068 23.8944 0.734988 23.9997 1.00015 23.9997C1.26532 23.9997 1.51963 23.8944 1.70715 23.7069L2.84615 22.5679C3.50499 22.9325 4.2649 23.0719 5.01024 22.9649C5.75559 22.8578 6.44556 22.5102 6.97515 21.9749L15.1292 13.8199L16.5452 15.2359C16.9838 15.6839 17.5696 15.9582 18.1946 16.0084C18.8196 16.0585 19.4416 15.8812 19.9462 15.509C20.4507 15.1368 20.8038 14.5948 20.9403 13.9829C21.0768 13.3709 20.9876 12.7303 20.6892 12.1789C19.8892 10.7229 19.6642 8.61091 20.6762 7.59891L23.1122 5.16491ZM5.56015 20.5609C5.27443 20.8336 4.89463 20.9858 4.49965 20.9858C4.10468 20.9858 3.72488 20.8336 3.43915 20.5609C3.15795 20.2796 2.99997 19.8982 2.99997 19.5004C2.99997 19.1027 3.15795 18.7212 3.43915 18.4399L11.5942 10.2859L13.7152 12.4069L5.56015 20.5609ZM19.2602 6.18491C17.5012 7.94391 17.7602 11.0169 18.9352 13.1429C18.9909 13.2539 19.0094 13.3798 18.988 13.5021C18.9665 13.6244 18.9063 13.7365 18.8162 13.8219C18.7006 13.9326 18.5467 13.9944 18.3867 13.9944C18.2266 13.9944 18.0727 13.9326 17.9572 13.8219L10.1782 6.04091C10.0941 5.95543 10.037 5.84714 10.014 5.72949C9.99093 5.61184 10.0029 5.49002 10.0485 5.37914C10.0941 5.26826 10.1713 5.17321 10.2704 5.10579C10.3695 5.03838 10.4863 5.00156 10.6062 4.99991C10.6938 4.99951 10.7801 5.02118 10.8572 5.06291C12.9832 6.23291 16.0572 6.49691 17.8152 4.73791L20.2542 2.29991C20.4487 2.1135 20.7077 2.00943 20.9772 2.00943C21.2466 2.00943 21.5056 2.1135 21.7002 2.29991C21.7954 2.39502 21.8709 2.50795 21.9224 2.63227C21.974 2.75658 22.0005 2.88984 22.0005 3.02441C22.0005 3.15899 21.974 3.29224 21.9224 3.41656C21.8709 3.54087 21.7954 3.65381 21.7002 3.74891L19.2602 6.18491Z" fill="#021700"/>
</g>
<defs>
<clipPath id="clip0_195_76504">
<rect width="24" height="24" fill="white"/>
</clipPath>
</defs>
</svg>
