<svg width="24" height="24" viewBox="0 0 24 24" fill="none" xmlns="http://www.w3.org/2000/svg">
<g clip-path="url(#clip0_195_76516)">
<path d="M19.9491 5.53645L16.4651 2.05045C15.8164 1.39859 15.045 0.881781 14.1953 0.529909C13.3457 0.178038 12.4347 -0.00191663 11.5151 0.000450295H7.00012C5.67453 0.00203815 4.40368 0.529332 3.46634 1.46667C2.529 2.40401 2.00171 3.67486 2.00012 5.00045V19.0005C2.00171 20.326 2.529 21.5969 3.46634 22.5342C4.40368 23.4716 5.67453 23.9989 7.00012 24.0005H17.0001C18.3257 23.9989 19.5966 23.4716 20.5339 22.5342C21.4712 21.5969 21.9985 20.326 22.0001 19.0005V10.4854C22.0026 9.56587 21.8226 8.65494 21.4705 7.80542C21.1185 6.95591 20.6014 6.18469 19.9491 5.53645ZM18.5351 6.95045C18.8405 7.2646 19.1031 7.61764 19.3161 8.00045H15.0001C14.7349 8.00045 14.4806 7.89509 14.293 7.70756C14.1055 7.52002 14.0001 7.26567 14.0001 7.00045V2.68445C14.3831 2.89737 14.7364 3.15961 15.0511 3.46445L18.5351 6.95045ZM20.0001 19.0005C20.0001 19.7961 19.6841 20.5592 19.1214 21.1218C18.5588 21.6844 17.7958 22.0005 17.0001 22.0005H7.00012C6.20447 22.0005 5.44141 21.6844 4.8788 21.1218C4.31619 20.5592 4.00012 19.7961 4.00012 19.0005V5.00045C4.00012 4.2048 4.31619 3.44174 4.8788 2.87913C5.44141 2.31652 6.20447 2.00045 7.00012 2.00045H11.5151C11.6791 2.00045 11.8381 2.03245 12.0001 2.04745V7.00045C12.0001 7.7961 12.3162 8.55916 12.8788 9.12177C13.4414 9.68438 14.2045 10.0005 15.0001 10.0005H19.9531C19.9681 10.1624 20.0001 10.3204 20.0001 10.4854V19.0005Z" fill="#021700"/>
</g>
<defs>
<clipPath id="clip0_195_76516">
<rect width="24" height="24" fill="white"/>
</clipPath>
</defs>
</svg>
