<svg width="24" height="24" viewBox="0 0 24 24" fill="none" xmlns="http://www.w3.org/2000/svg">
<g clip-path="url(#clip0_195_76508)">
<path d="M16.0002 16C16.0002 16.2652 15.8949 16.5196 15.7074 16.7071C15.5198 16.8946 15.2655 17 15.0002 17H13.0002V19C13.0002 19.2652 12.8949 19.5196 12.7074 19.7071C12.5198 19.8946 12.2655 20 12.0002 20C11.735 20 11.4807 19.8946 11.2931 19.7071C11.1056 19.5196 11.0002 19.2652 11.0002 19V17H9.00024C8.73503 17 8.48067 16.8946 8.29314 16.7071C8.1056 16.5196 8.00024 16.2652 8.00024 16C8.00024 15.7348 8.1056 15.4804 8.29314 15.2929C8.48067 15.1053 8.73503 15 9.00024 15H11.0002V13C11.0002 12.7348 11.1056 12.4804 11.2931 12.2929C11.4807 12.1053 11.735 12 12.0002 12C12.2655 12 12.5198 12.1053 12.7074 12.2929C12.8949 12.4804 13.0002 12.7348 13.0002 13V15H15.0002C15.2655 15 15.5198 15.1053 15.7074 15.2929C15.8949 15.4804 16.0002 15.7348 16.0002 16ZM22.0002 10.485V19C21.9987 20.3256 21.4714 21.5964 20.534 22.5338C19.5967 23.4711 18.3258 23.9984 17.0002 24H7.00024C5.67465 23.9984 4.4038 23.4711 3.46646 22.5338C2.52913 21.5964 2.00183 20.3256 2.00024 19V4.99999C2.00183 3.6744 2.52913 2.40355 3.46646 1.46621C4.4038 0.528874 5.67465 0.00158039 7.00024 -7.4689e-06H11.5152C12.4349 -0.00237439 13.3458 0.17758 14.1955 0.529452C15.0451 0.881323 15.8166 1.39813 16.4652 2.04999L19.9492 5.53599C20.6015 6.18423 21.1186 6.95545 21.4707 7.80497C21.8227 8.65448 22.0027 9.56542 22.0002 10.485ZM15.0512 3.46399C14.7365 3.15915 14.3832 2.89692 14.0002 2.68399V6.99999C14.0002 7.26521 14.1056 7.51956 14.2931 7.7071C14.4807 7.89464 14.735 7.99999 15.0002 7.99999H19.3162C19.1032 7.61718 18.8406 7.26414 18.5352 6.94999L15.0512 3.46399ZM20.0002 10.485C20.0002 10.32 19.9682 10.162 19.9532 9.99999H15.0002C14.2046 9.99999 13.4415 9.68392 12.8789 9.12131C12.3163 8.5587 12.0002 7.79564 12.0002 6.99999V2.04699C11.8382 2.03199 11.6792 1.99999 11.5152 1.99999H7.00024C6.20459 1.99999 5.44153 2.31606 4.87892 2.87867C4.31631 3.44128 4.00024 4.20434 4.00024 4.99999V19C4.00024 19.7956 4.31631 20.5587 4.87892 21.1213C5.44153 21.6839 6.20459 22 7.00024 22H17.0002C17.7959 22 18.559 21.6839 19.1216 21.1213C19.6842 20.5587 20.0002 19.7956 20.0002 19V10.485Z" fill="#021700"/>
</g>
<defs>
<clipPath id="clip0_195_76508">
<rect width="24" height="24" fill="white"/>
</clipPath>
</defs>
</svg>
