<svg width="24" height="24" viewBox="0 0 24 24" fill="none" xmlns="http://www.w3.org/2000/svg">
<g clip-path="url(#clip0_195_76515)">
<path d="M14.9568 10.3555C14.9579 10.6999 15.2374 10.9785 15.5818 10.9785C15.5818 10.9785 16.6538 10.9785 17.0678 10.9665C18.5998 10.9405 19.6998 9.60848 19.6998 7.80051C19.6998 5.90053 18.6198 4.62253 17.0138 4.62253H15.5708C15.2253 4.62365 14.9458 4.90401 14.9458 5.24953L14.9568 10.3555ZM17.0178 5.87245C18.0768 5.87245 18.4538 6.87243 18.4538 7.80047C18.4538 8.7285 18.0198 9.70045 17.0488 9.71648C16.8488 9.71648 16.5109 9.72347 16.2049 9.72548L16.1998 5.8725L17.0178 5.87245Z" fill="#021700"/>
<path d="M12.122 7.25544C11.849 7.16244 11.566 7.11144 11.287 7.03845C11.0656 6.99378 10.8604 6.89014 10.693 6.73845C10.5259 6.57992 10.4665 6.33847 10.541 6.12045C10.6358 5.93258 10.8222 5.80812 11.032 5.79247C11.2383 5.77962 11.4451 5.80995 11.639 5.88148C11.9181 5.96858 12.1918 6.07175 12.459 6.19048C12.753 6.31948 13.1 6.3965 13.337 6.11647C13.5125 5.90609 13.5256 5.60426 13.369 5.37945C13.2655 5.22861 13.1255 5.1065 12.962 5.02447C12.23 4.59467 11.3564 4.47547 10.536 4.69348C10.1026 4.83064 9.73648 5.12539 9.50998 5.51947C9.40376 5.7064 9.33354 5.91162 9.30298 6.12448C9.2472 6.50731 9.33021 6.8975 9.53698 7.2245C9.77033 7.56612 10.1072 7.82375 10.498 7.9595C10.907 8.1275 11.316 8.29048 11.731 8.4425C11.9094 8.49917 12.0738 8.59325 12.213 8.7185C12.3688 8.86737 12.4266 9.09186 12.362 9.2975C12.2777 9.49451 12.1103 9.64395 11.905 9.7055C11.5928 9.82287 11.2508 9.83515 10.931 9.74051C10.6198 9.62787 10.3322 9.45833 10.083 9.2405C10.057 9.2195 9.97198 9.15551 9.956 9.14051C9.72298 8.97392 9.40465 8.99525 9.19601 9.19151C8.94031 9.4234 8.921 9.81865 9.15284 10.0744C9.15289 10.0744 9.15293 10.0745 9.15298 10.0745C9.74961 10.7081 10.5828 11.0649 11.453 11.0595C12.4843 11.1049 13.4007 10.4068 13.631 9.40053C13.7281 8.79158 13.5006 8.17611 13.031 7.77655C12.7655 7.54433 12.4565 7.36723 12.122 7.25544Z" fill="#021700"/>
<path d="M4.12097 5.16859V10.4306C4.12097 10.7758 4.40082 11.0556 4.74596 11.0556C5.0911 11.0556 5.37094 10.7757 5.37094 10.4306V8.76761H6.21094C7.37626 8.76761 8.32093 7.82294 8.32093 6.65762C8.32093 5.49231 7.37626 4.54764 6.21094 4.54764L6.20494 4.54366H4.73996C4.69754 4.54441 4.47385 4.55261 4.29699 4.73608C4.12782 4.91158 4.1213 5.12336 4.12097 5.16859ZM6.20494 7.51361H5.37296L5.36696 5.79362H6.20494C6.67993 5.79339 7.06515 6.17823 7.06538 6.65322C7.06562 7.1282 6.68077 7.51342 6.20579 7.51366C6.20555 7.51361 6.20523 7.51361 6.20494 7.51361Z" fill="#021700"/>
<path d="M19 0H5.00002C2.23997 0.00332812 0.00332812 2.23997 0 5.00002V19C0.00332812 21.76 2.23997 23.9967 5.00002 24H16.343C17.6699 24.0038 18.9432 23.4766 19.879 22.536L22.535 19.878C23.4757 18.9426 24.0033 17.6697 24 16.343V5.00002C23.9967 2.23997 21.76 0.00332812 19 0ZM2.00002 19V5.00002C2.00002 3.34317 3.34317 2.00002 5.00002 2.00002H19C20.6569 2.00002 22 3.34317 22 5.00002V15H18C16.3432 15 15 16.3432 15 18V22H5.00002C3.34312 22 2.00002 20.6569 2.00002 19ZM18.465 21.122C18.063 21.523 17.5547 21.8006 17 21.922V18C17 17.4477 17.4477 17 18 17H21.925C21.8013 17.5535 21.524 18.0609 21.125 18.464L18.465 21.122Z" fill="#021700"/>
</g>
<defs>
<clipPath id="clip0_195_76515">
<rect width="24" height="24" fill="white"/>
</clipPath>
</defs>
</svg>
