<svg width="24" height="24" viewBox="0 0 24 24" fill="none" xmlns="http://www.w3.org/2000/svg">
<g clip-path="url(#clip0_195_76514)">
<path d="M15.0001 12.0004C15.0001 12.2657 14.8948 12.52 14.7072 12.7075C14.5197 12.8951 14.2653 13.0004 14.0001 13.0004H13.0001V17.5004C13.0001 17.9949 12.8535 18.4782 12.5788 18.8894C12.3041 19.3005 11.9136 19.6209 11.4568 19.8101C11 19.9994 10.4973 20.0489 10.0124 19.9524C9.52744 19.8559 9.08199 19.6178 8.73236 19.2682C8.38272 18.9186 8.14462 18.4731 8.04816 17.9882C7.9517 17.5032 8.0012 17.0005 8.19042 16.5437C8.37964 16.0869 8.70007 15.6965 9.1112 15.4218C9.52232 15.1471 10.0057 15.0004 10.5001 15.0004C10.668 15.0008 10.8355 15.0175 11.0001 15.0504V13.0004C11.0001 12.47 11.2108 11.9613 11.5859 11.5862C11.961 11.2112 12.4697 11.0004 13.0001 11.0004H14.0001C14.2653 11.0004 14.5197 11.1058 14.7072 11.2933C14.8948 11.4809 15.0001 11.7352 15.0001 12.0004ZM22.0001 10.4854V19.0004C21.9985 20.326 21.4712 21.5969 20.5339 22.5342C19.5966 23.4716 18.3257 23.9988 17.0001 24.0004H7.00012C5.67453 23.9988 4.40368 23.4716 3.46634 22.5342C2.529 21.5969 2.00171 20.326 2.00012 19.0004V5.00044C2.00171 3.67484 2.529 2.40399 3.46634 1.46666C4.40368 0.529318 5.67453 0.00202356 7.00012 0.000435699H11.5151C12.4348 -0.0019658 13.3459 0.178071 14.1956 0.530125C15.0452 0.882179 15.8166 1.39926 16.4651 2.05144L19.9491 5.53544C20.6013 6.18393 21.1184 6.95533 21.4704 7.805C21.8225 8.65467 22.0025 9.56572 22.0001 10.4854ZM15.0511 3.46544C14.7366 3.16006 14.3832 2.89746 14.0001 2.68444V7.00044C14.0001 7.26565 14.1055 7.52001 14.293 7.70754C14.4806 7.89508 14.7349 8.00044 15.0001 8.00044H19.3161C19.1031 7.61731 18.8405 7.26394 18.5351 6.94944L15.0511 3.46544ZM20.0001 10.4854C20.0001 10.3204 19.9681 10.1624 19.9531 10.0004H15.0001C14.2045 10.0004 13.4414 9.68437 12.8788 9.12176C12.3162 8.55915 12.0001 7.79609 12.0001 7.00044V2.04744C11.8381 2.03244 11.6801 2.00044 11.5151 2.00044H7.00012C6.20447 2.00044 5.44141 2.31651 4.8788 2.87912C4.31619 3.44172 4.00012 4.20479 4.00012 5.00044V19.0004C4.00012 19.7961 4.31619 20.5591 4.8788 21.1218C5.44141 21.6844 6.20447 22.0004 7.00012 22.0004H17.0001C17.7958 22.0004 18.5588 21.6844 19.1214 21.1218C19.6841 20.5591 20.0001 19.7961 20.0001 19.0004V10.4854Z" fill="#021700"/>
</g>
<defs>
<clipPath id="clip0_195_76514">
<rect width="24" height="24" fill="white"/>
</clipPath>
</defs>
</svg>
