<svg width="24" height="24" viewBox="0 0 24 24" fill="none" xmlns="http://www.w3.org/2000/svg">
<g clip-path="url(#clip0_195_76511)">
<path d="M15.2069 14.2074L13.4139 16.0005L15.2069 17.7934C15.3024 17.8857 15.3786 17.996 15.431 18.118C15.4834 18.24 15.511 18.3713 15.5121 18.504C15.5133 18.6368 15.488 18.7685 15.4377 18.8914C15.3874 19.0143 15.3132 19.126 15.2193 19.2198C15.1254 19.3137 15.0137 19.388 14.8908 19.4383C14.7679 19.4886 14.6363 19.5139 14.5035 19.5127C14.3707 19.5115 14.2395 19.484 14.1175 19.4316C13.9955 19.3791 13.8851 19.303 13.7929 19.2075L11.9999 17.4144L10.2069 19.2075C10.0183 19.3896 9.76567 19.4904 9.50348 19.4881C9.24128 19.4858 8.99047 19.3807 8.80506 19.1953C8.61965 19.0099 8.51448 18.759 8.5122 18.4969C8.50993 18.2347 8.61072 17.9821 8.79288 17.7934L10.5859 16.0005L8.79288 14.2074C8.61072 14.0188 8.50993 13.7662 8.5122 13.504C8.51448 13.2419 8.61965 12.991 8.80506 12.8056C8.99047 12.6202 9.24128 12.5151 9.50348 12.5128C9.76567 12.5105 10.0183 12.6113 10.2069 12.7935L11.9999 14.5865L13.7929 12.7935C13.9815 12.6113 14.2341 12.5105 14.4963 12.5128C14.7585 12.5151 15.0093 12.6202 15.1947 12.8056C15.3801 12.991 15.4853 13.2419 15.4876 13.504C15.4898 13.7662 15.389 14.0188 15.2069 14.2074ZM21.9999 10.4854V19.0005C21.9983 20.326 21.471 21.5969 20.5337 22.5342C19.5963 23.4716 18.3255 23.9989 16.9999 24.0005H6.99988C5.67428 23.9989 4.40344 23.4716 3.4661 22.5342C2.52876 21.5969 2.00147 20.326 1.99988 19.0005V5.00045C2.00147 3.67486 2.52876 2.40401 3.4661 1.46667C4.40344 0.529332 5.67428 0.00203815 6.99988 0.000450295H11.5149C12.4345 -0.00191663 13.3455 0.178038 14.1951 0.529909C15.0447 0.881781 15.8162 1.39859 16.4649 2.05045L19.9489 5.53645C20.6011 6.18469 21.1182 6.95591 21.4703 7.80542C21.8224 8.65494 22.0024 9.56587 21.9999 10.4854ZM15.0509 3.46445C14.7362 3.15961 14.3828 2.89737 13.9999 2.68445V7.00045C13.9999 7.26567 14.1052 7.52002 14.2928 7.70756C14.4803 7.89509 14.7347 8.00045 14.9999 8.00045H19.3159C19.1028 7.61764 18.8402 7.2646 18.5349 6.95045L15.0509 3.46445ZM19.9999 10.4854C19.9999 10.3204 19.9679 10.1624 19.9529 10.0005H14.9999C14.2042 10.0005 13.4412 9.68438 12.8786 9.12177C12.3159 8.55916 11.9999 7.7961 11.9999 7.00045V2.04745C11.8379 2.03245 11.6789 2.00045 11.5149 2.00045H6.99988C6.20423 2.00045 5.44117 2.31652 4.87856 2.87913C4.31595 3.44174 3.99988 4.2048 3.99988 5.00045V19.0005C3.99988 19.7961 4.31595 20.5592 4.87856 21.1218C5.44117 21.6844 6.20423 22.0005 6.99988 22.0005H16.9999C17.7955 22.0005 18.5586 21.6844 19.1212 21.1218C19.6838 20.5592 19.9999 19.7961 19.9999 19.0005V10.4854Z" fill="#021700"/>
</g>
<defs>
<clipPath id="clip0_195_76511">
<rect width="24" height="24" fill="white"/>
</clipPath>
</defs>
</svg>
