<svg width="24" height="24" viewBox="0 0 24 24" fill="none" xmlns="http://www.w3.org/2000/svg">
<g clip-path="url(#clip0_195_76510)">
<path d="M19.9499 5.53642L16.4639 2.05042C15.8155 1.3985 15.0442 0.881645 14.1947 0.529765C13.3452 0.177884 12.4344 -0.00203383 11.5149 0.000421525H6.99988C5.67428 0.00200938 4.40344 0.529304 3.4661 1.46664C2.52876 2.40398 2.00147 3.67483 1.99988 5.00042V19.0004C2.00147 20.326 2.52876 21.5969 3.4661 22.5342C4.40344 23.4715 5.67428 23.9988 6.99988 24.0004H16.9999C18.3255 23.9988 19.5963 23.4715 20.5337 22.5342C21.471 21.5969 21.9983 20.326 21.9999 19.0004V10.4854C22.0023 9.56594 21.8224 8.6551 21.4705 7.80561C21.1187 6.95612 20.6018 6.18485 19.9499 5.53642ZM18.5359 6.95042C18.8409 7.26483 19.1035 7.61783 19.3169 8.00042H14.9999C14.7347 8.00042 14.4803 7.89507 14.2928 7.70753C14.1052 7.51999 13.9999 7.26564 13.9999 7.00042V2.68342C14.3825 2.89681 14.7355 3.15937 15.0499 3.46442L18.5359 6.95042ZM19.9999 19.0004C19.9999 19.7961 19.6838 20.5591 19.1212 21.1217C18.5586 21.6844 17.7955 22.0004 16.9999 22.0004H6.99988C6.20423 22.0004 5.44117 21.6844 4.87856 21.1217C4.31595 20.5591 3.99988 19.7961 3.99988 19.0004V5.00042C3.99988 4.20477 4.31595 3.44171 4.87856 2.8791C5.44117 2.31649 6.20423 2.00042 6.99988 2.00042H11.5149C11.6799 2.00042 11.8379 2.03242 11.9999 2.04742V7.00042C11.9999 7.79607 12.3159 8.55913 12.8786 9.12174C13.4412 9.68435 14.2042 10.0004 14.9999 10.0004H19.9529C19.9679 10.1624 19.9999 10.3204 19.9999 10.4854V19.0004ZM16.7239 13.3114C16.9065 13.5035 17.0054 13.7602 16.9988 14.0252C16.9922 14.2901 16.8808 14.5416 16.6889 14.7244L13.0999 18.1384C12.5357 18.6937 11.775 19.0035 10.9834 19.0003C10.1918 18.9971 9.43355 18.6812 8.87388 18.1214L7.33388 16.7474C7.13576 16.5708 7.01593 16.3227 7.00074 16.0577C6.99321 15.9265 7.01161 15.7951 7.05487 15.671C7.09814 15.5469 7.16542 15.4325 7.25288 15.3344C7.34034 15.2363 7.44626 15.1564 7.56461 15.0993C7.68295 15.0421 7.81139 15.0088 7.9426 15.0013C8.20759 14.9861 8.46776 15.0768 8.66588 15.2534L10.2509 16.6674C10.3416 16.7693 10.4522 16.8516 10.576 16.9091C10.6997 16.9667 10.8338 16.9983 10.9702 17.002C11.1066 17.0058 11.2423 16.9816 11.369 16.9309C11.4957 16.8802 11.6107 16.8042 11.7069 16.7074L15.3069 13.2764C15.4021 13.1854 15.5143 13.1141 15.6371 13.0666C15.76 13.019 15.891 12.9963 16.0226 12.9995C16.1543 13.0028 16.284 13.032 16.4044 13.0855C16.5247 13.139 16.6333 13.2158 16.7239 13.3114Z" fill="#021700"/>
</g>
<defs>
<clipPath id="clip0_195_76510">
<rect width="24" height="24" fill="white"/>
</clipPath>
</defs>
</svg>
