<svg width="24" height="24" viewBox="0 0 24 24" fill="none" xmlns="http://www.w3.org/2000/svg">
<g clip-path="url(#clip0_195_76525)">
<path d="M24 11.1004C24.0085 10.3529 23.7417 9.62843 23.2504 9.06502C22.7591 8.50161 22.0777 8.13868 21.336 8.04541C21.636 7.50041 22.072 6.23241 21.99 3.04541C21.984 2.72448 21.9043 2.40923 21.7571 2.124C21.6099 1.83876 21.3991 1.59119 21.141 1.40041C20.8959 1.21792 20.6123 1.09401 20.3119 1.03819C20.0115 0.982376 19.7023 0.996132 19.408 1.07841C17.9191 1.49558 16.5245 2.1953 15.3 3.13941C14.811 2.32753 14.2685 1.54914 13.676 0.809407C13.4689 0.567595 13.2119 0.373476 12.9227 0.240383C12.6335 0.107289 12.3189 0.0383759 12.0005 0.0383759C11.6821 0.0383759 11.3675 0.107289 11.0783 0.240383C10.7891 0.373476 10.5321 0.567595 10.325 0.809407C9.73476 1.54772 9.19423 2.32443 8.70698 3.13441C7.47611 2.19305 6.07767 1.494 4.58598 1.07441C4.29244 0.99221 3.98389 0.978863 3.68435 1.03541C3.38481 1.09195 3.10236 1.21686 2.85898 1.40041C2.60109 1.59073 2.3904 1.83778 2.24319 2.1225C2.09597 2.40721 2.01619 2.72195 2.00998 3.04241C1.92798 6.23041 2.36698 7.49741 2.66198 8.04241C1.92022 8.1364 1.23897 8.50001 0.74805 9.06396C0.257129 9.62791 -0.00914035 10.3528 -1.72393e-05 11.1004C-1.72393e-05 15.3904 6.38698 18.2854 9.47798 19.4354C9.01329 19.8528 8.61176 20.3355 8.28598 20.8684C8.10007 21.1794 8.00089 21.5345 7.99878 21.8968C7.99667 22.2591 8.0917 22.6153 8.27398 22.9284C8.45983 23.2536 8.7282 23.5239 9.05198 23.7121C9.37575 23.9003 9.74347 23.9998 10.118 24.0004H13.882C14.2569 23.9994 14.6249 23.8993 14.9487 23.7104C15.2725 23.5214 15.5406 23.2503 15.726 22.9244C15.9082 22.6115 16.0033 22.2555 16.0014 21.8934C15.9995 21.5313 15.9006 21.1763 15.715 20.8654C15.5268 20.5573 15.3098 20.2677 15.067 20.0004H16C16.5304 20.0004 17.0391 20.2111 17.4142 20.5862C17.7893 20.9613 18 21.47 18 22.0004C18 22.2656 18.1053 22.52 18.2929 22.7075C18.4804 22.8951 18.7348 23.0004 19 23.0004C19.2652 23.0004 19.5196 22.8951 19.7071 22.7075C19.8946 22.52 20 22.2656 20 22.0004C19.9974 21.1731 19.7379 20.367 19.2572 19.6935C18.7766 19.0201 18.0986 18.5127 17.317 18.2414C20.415 16.7404 24 14.3104 24 11.1004ZM16.372 4.88441C17.3992 3.9867 18.6221 3.34154 19.943 3.00041C19.943 3.00041 19.989 3.01941 19.991 3.09341C20.054 5.52741 19.777 6.81341 19.521 7.17641C19.3745 7.39153 19.1852 7.57413 18.965 7.71281C18.7448 7.85149 18.4983 7.94327 18.241 7.98241C17.9958 8.01703 17.7462 8.00042 17.5078 7.93364C17.2694 7.86685 17.0475 7.75134 16.856 7.59441C16.6412 7.45249 16.4575 7.2684 16.316 7.05331C16.1745 6.83823 16.0782 6.59663 16.0329 6.34319C15.9877 6.08974 15.9944 5.82975 16.0527 5.57898C16.1109 5.32821 16.2196 5.0919 16.372 4.88441ZM11.892 2.05241C11.9049 2.03598 11.9214 2.02269 11.9402 2.01356C11.959 2.00443 11.9796 1.99968 12.0005 1.99968C12.0214 1.99968 12.042 2.00443 12.0608 2.01356C12.0796 2.02269 12.0961 2.03598 12.109 2.05241C12.8711 2.96211 13.5186 3.96192 14.037 5.02941C14.0576 5.06433 14.0807 5.09775 14.106 5.12941C13.9932 5.61945 13.9799 6.12715 14.067 6.62241C13.9011 7.01953 13.6243 7.36046 13.2697 7.6044C12.9151 7.84834 12.4978 7.98497 12.0676 7.99795C11.6374 8.01092 11.2126 7.89969 10.844 7.67756C10.4753 7.45543 10.1785 7.13181 9.98898 6.74541C9.967 6.71348 9.9433 6.68277 9.91798 6.65341C10.0119 6.16022 10.0058 5.65319 9.89998 5.16241C9.90524 5.15476 9.90991 5.14674 9.91398 5.13841C10.4329 4.02624 11.0982 2.98839 11.892 2.05241ZM4.00898 3.09241C4.00856 3.07527 4.01172 3.05823 4.01826 3.04239C4.02481 3.02655 4.03459 3.01225 4.04698 3.00041C5.37669 3.34009 6.60916 3.9844 7.64698 4.88241C7.79475 5.09408 7.89852 5.33325 7.95217 5.58576C8.00581 5.83827 8.00822 6.09897 7.95926 6.35243C7.91031 6.60589 7.81097 6.84694 7.66715 7.06131C7.52333 7.27568 7.33795 7.459 7.12198 7.60041C6.93262 7.7565 6.71286 7.87151 6.47667 7.93814C6.24047 8.00476 5.99301 8.02154 5.74998 7.98741C5.49378 7.94863 5.24842 7.85705 5.02945 7.71847C4.81049 7.5799 4.6227 7.39736 4.47798 7.18241C4.22198 6.81441 3.94598 5.52741 4.00898 3.09241ZM13.882 22.0004H10.118C10.056 22.0004 10.018 21.9544 10.006 21.8844C10.5077 21.1255 11.1799 20.4943 11.969 20.0414C12.7887 20.4954 13.4826 21.1463 13.988 21.9354C13.9776 21.9546 13.9623 21.9707 13.9437 21.9822C13.9251 21.9936 13.9038 21.9999 13.882 22.0004ZM14.676 17.2094C15.3089 16.2901 15.7544 15.255 15.987 14.1634C16.0302 13.9016 15.9677 13.6334 15.8132 13.4178C15.6586 13.2021 15.4248 13.0566 15.163 13.0134C14.9012 12.9702 14.633 13.0327 14.4173 13.1872C14.2017 13.3418 14.0562 13.5756 14.013 13.8374C13.6321 15.1863 12.948 16.4303 12.013 17.4744C11.0886 16.3958 10.3956 15.1388 9.97698 13.7814C9.94823 13.6532 9.8945 13.532 9.81888 13.4246C9.74326 13.3172 9.64723 13.2257 9.53626 13.1554C9.4253 13.0851 9.30157 13.0374 9.17215 13.0149C9.04273 12.9924 8.91015 12.9956 8.78198 13.0244C8.65381 13.0532 8.53256 13.1069 8.42515 13.1825C8.31775 13.2581 8.22629 13.3542 8.15599 13.4651C8.0857 13.5761 8.03795 13.6998 8.01547 13.8292C7.99299 13.9587 7.99622 14.0912 8.02498 14.2194C8.30549 15.2933 8.76492 16.3122 9.38398 17.2334C6.29998 15.9654 1.99998 13.6404 1.99998 11.1004C1.99551 10.9563 2.0203 10.8127 2.07286 10.6784C2.12542 10.5441 2.20466 10.4219 2.30579 10.3191C2.40692 10.2163 2.52784 10.135 2.66125 10.0802C2.79466 10.0255 2.93778 9.99831 3.08198 10.0004H20.918C21.0622 9.99831 21.2053 10.0255 21.3387 10.0802C21.4721 10.135 21.5931 10.2163 21.6942 10.3191C21.7953 10.4219 21.8745 10.5441 21.9271 10.6784C21.9797 10.8127 22.0045 10.9563 22 11.1004C22 13.6234 17.755 15.9354 14.676 17.2094Z" fill="#021700"/>
</g>
<defs>
<clipPath id="clip0_195_76525">
<rect width="24" height="24" fill="white"/>
</clipPath>
</defs>
</svg>
