<svg width="24" height="24" viewBox="0 0 24 24" fill="none" xmlns="http://www.w3.org/2000/svg">
<g clip-path="url(#clip0_195_76526)">
<path d="M23.5352 14.7255C23.3281 14.4739 23.0624 14.2771 22.7614 14.1523C22.4605 14.0274 22.1335 13.9784 21.8092 14.0095C20.0668 14.1472 18.3756 14.6641 16.854 15.524C15.3324 16.3839 14.0171 17.566 13.0002 18.9875V13.9105C14.3967 13.6732 15.6644 12.9499 16.5794 11.8685C17.4943 10.787 17.9975 9.41702 18.0002 8.00047C18.0002 5.20747 16.0572 2.84847 14.1562 0.909465C13.5798 0.346311 12.806 0.0310211 12.0002 0.0310211C11.1944 0.0310211 10.4205 0.346311 9.84417 0.909465C7.94317 2.84847 6.00017 5.20747 6.00017 8.00047C6.0028 9.41702 6.50604 10.787 7.42097 11.8685C8.3359 12.9499 9.60363 13.6732 11.0002 13.9105V18.9875C9.98328 17.566 8.66798 16.3839 7.14635 15.524C5.62471 14.6641 3.93352 14.1472 2.19117 14.0095C1.86686 13.9786 1.53992 14.0277 1.239 14.1525C0.938089 14.2774 0.672383 14.4741 0.465169 14.7255C0.259282 14.9699 0.115928 15.2608 0.0474636 15.573C-0.0210008 15.8851 -0.0125222 16.2093 0.0721686 16.5175C2.11117 23.8555 11.5912 24.0005 11.9942 24.0005H12.0062C12.4062 24.0005 21.8902 23.8555 23.9292 16.5175C24.0134 16.2092 24.0215 15.8851 23.9529 15.5729C23.8843 15.2608 23.7409 14.97 23.5352 14.7255ZM8.00017 8.00047C8.00017 5.34647 11.3182 2.28147 11.3382 2.26447C10.9732 3.20047 8.69317 8.90047 11.0002 9.00047C11.2654 9.00047 11.5197 8.89511 11.7073 8.70757C11.8948 8.52004 12.0002 8.26568 12.0002 8.00047C12.0757 6.2219 12.5029 4.47593 13.2572 2.86347C14.6882 4.39347 16.0002 6.15447 16.0002 8.00047C16.0002 9.06133 15.5787 10.0787 14.8286 10.8289C14.0785 11.579 13.061 12.0005 12.0002 12.0005C10.9393 12.0005 9.92189 11.579 9.17174 10.8289C8.4216 10.0787 8.00017 9.06133 8.00017 8.00047ZM2.00617 16.0005C3.8079 16.1464 5.53918 16.7654 7.02502 17.7949C8.51086 18.8244 9.69859 20.2278 10.4682 21.8635C7.97117 21.5175 3.20017 20.3005 2.00617 16.0005ZM13.5452 21.8615C14.321 20.2304 15.5091 18.8301 16.9919 17.7988C18.4748 16.7676 20.2011 16.1412 22.0002 15.9815C20.8062 20.2835 16.0462 21.5115 13.5452 21.8615Z" fill="#021700"/>
</g>
<defs>
<clipPath id="clip0_195_76526">
<rect width="24" height="24" fill="white"/>
</clipPath>
</defs>
</svg>
