<svg width="24" height="24" viewBox="0 0 24 24" fill="none" xmlns="http://www.w3.org/2000/svg">
<g clip-path="url(#clip0_195_76530)">
<path d="M9 11.9999C10.1867 11.9999 11.3467 11.648 12.3334 10.9888C13.3201 10.3295 14.0892 9.3924 14.5433 8.29604C14.9974 7.19969 15.1162 5.99329 14.8847 4.8294C14.6532 3.66551 14.0818 2.59642 13.2426 1.7573C12.4035 0.918186 11.3344 0.346741 10.1705 0.11523C9.00666 -0.116281 7.80026 0.00253868 6.7039 0.456664C5.60754 0.91079 4.67047 1.67983 4.01118 2.66652C3.35189 3.65321 3 4.81325 3 5.99994C3.00159 7.59075 3.63424 9.11595 4.75911 10.2408C5.88399 11.3657 7.40919 11.9984 9 11.9999ZM9 1.99994C9.79113 1.99994 10.5645 2.23454 11.2223 2.67406C11.8801 3.11359 12.3928 3.7383 12.6955 4.46921C12.9983 5.20011 13.0775 6.00438 12.9231 6.7803C12.7688 7.55623 12.3878 8.26896 11.8284 8.82837C11.269 9.38778 10.5563 9.76874 9.78036 9.92308C9.00444 10.0774 8.20017 9.99821 7.46927 9.69546C6.73836 9.39271 6.11365 8.88002 5.67412 8.22222C5.2346 7.56443 5 6.79107 5 5.99994C5 4.93908 5.42143 3.92166 6.17157 3.17151C6.92172 2.42137 7.93913 1.99994 9 1.99994Z" fill="#021700"/>
<path d="M9 13.9997C6.61395 14.0026 4.32645 14.9517 2.63925 16.6389C0.952057 18.3261 0.00291096 20.6136 0 22.9997C0 23.2649 0.105357 23.5192 0.292893 23.7068C0.48043 23.8943 0.734784 23.9997 1 23.9997C1.26522 23.9997 1.51957 23.8943 1.70711 23.7068C1.89464 23.5192 2 23.2649 2 22.9997C2 21.1432 2.7375 19.3627 4.05025 18.0499C5.36301 16.7372 7.14348 15.9997 9 15.9997C10.8565 15.9997 12.637 16.7372 13.9497 18.0499C15.2625 19.3627 16 21.1432 16 22.9997C16 23.2649 16.1054 23.5192 16.2929 23.7068C16.4804 23.8943 16.7348 23.9997 17 23.9997C17.2652 23.9997 17.5196 23.8943 17.7071 23.7068C17.8946 23.5192 18 23.2649 18 22.9997C17.9971 20.6136 17.0479 18.3261 15.3607 16.6389C13.6735 14.9517 11.3861 14.0026 9 13.9997Z" fill="#021700"/>
<path d="M21.9998 7.875C21.4433 7.90272 20.9204 8.14977 20.5456 8.56207C20.1708 8.97437 19.9746 9.51836 19.9998 10.075C20.0251 9.51836 19.8289 8.97437 19.4541 8.56207C19.0792 8.14977 18.5564 7.90272 17.9998 7.875C17.4433 7.90272 16.9204 8.14977 16.5456 8.56207C16.1708 8.97437 15.9746 9.51836 15.9999 10.075C15.9999 11.805 18.2558 13.832 19.3798 14.734C19.5558 14.8749 19.7745 14.9516 19.9998 14.9516C20.2252 14.9516 20.4439 14.8749 20.6198 14.734C21.7438 13.834 23.9998 11.805 23.9998 10.075C24.0251 9.51836 23.8289 8.97437 23.4541 8.56207C23.0792 8.14977 22.5564 7.90272 21.9998 7.875Z" fill="#021700"/>
</g>
<defs>
<clipPath id="clip0_195_76530">
<rect width="24" height="24" fill="white"/>
</clipPath>
</defs>
</svg>
