<svg width="24" height="24" viewBox="0 0 24 24" fill="none" xmlns="http://www.w3.org/2000/svg">
<g clip-path="url(#clip0_195_76534)">
<path d="M23.241 0.435262C23.0056 0.246185 22.73 0.113393 22.4354 0.0470175C22.1407 -0.0193584 21.8349 -0.0175647 21.541 0.0522617C20.6052 0.302697 19.7421 0.771284 19.0223 1.41963C18.3025 2.06798 17.7466 2.87763 17.4 3.78226C15.6397 3.29726 13.8256 3.03455 12 3.00026C10.1745 3.03455 8.36035 3.29726 6.60004 3.78226C6.25314 2.87733 5.69673 2.0675 4.9764 1.41914C4.25608 0.770777 3.39236 0.302352 2.45604 0.0522617C2.16223 -0.0176402 1.85632 -0.0194717 1.56169 0.0469069C1.26706 0.113286 0.991495 0.246119 0.756041 0.435262C0.519614 0.623069 0.328779 0.861971 0.197849 1.13405C0.0669187 1.40613 -0.00070798 1.70432 4.09331e-05 2.00626V9.85826C-0.00391442 11.3034 0.278822 12.7349 0.831882 14.07C1.38494 15.4051 2.19734 16.6173 3.22204 17.6363L7.87904 22.2933C8.97637 23.378 10.4571 23.9863 12 23.9863C13.543 23.9863 15.0237 23.378 16.121 22.2933L20.778 17.6363C21.8026 16.6171 22.6148 15.405 23.1679 14.0699C23.7209 12.7348 24.0038 11.3033 24 9.85826V2.00626C24.0009 1.704 23.933 1.4055 23.8015 1.13334C23.67 0.861178 23.4784 0.622469 23.241 0.435262ZM5.05104 5.31626C5.13481 5.56776 5.315 5.7757 5.55202 5.8944C5.78903 6.01309 6.06348 6.03283 6.31504 5.94926C8.15719 5.3722 10.0703 5.05284 12 5.00026C13.9297 5.05296 15.8429 5.37232 17.685 5.94926C17.9365 6.03252 18.2107 6.01263 18.4474 5.89396C18.6842 5.77528 18.8643 5.56752 18.948 5.31626C19.565 3.46726 20.619 2.32126 22 2.00626V8.17326C19.572 8.73226 13 10.9843 13 19.0003V19.1843C12.355 18.9443 11.6451 18.9443 11 19.1843V19.0003C11 10.9853 4.42904 8.73226 2.00004 8.17326V2.00026C3.38104 2.32126 4.43504 3.46826 5.05104 5.31626ZM4.63604 16.2223C3.03526 14.6258 2.09965 12.4816 2.01804 10.2223C2.69958 10.4016 3.36307 10.6437 4.00004 10.9453V11.0003C4.1797 11.8282 4.63223 12.5718 5.28503 13.1118C5.93784 13.6519 6.7531 13.957 7.60004 13.9783C8.56027 15.4738 9.04809 17.2237 9.00004 19.0003V20.5863L4.63604 16.2223ZM19.364 16.2223L15 20.5863V19.0003C14.952 17.2237 15.4398 15.4738 16.4 13.9783C17.2469 13.9566 18.062 13.6514 18.7147 13.1114C19.3674 12.5715 19.8201 11.828 20 11.0003V10.9453C20.637 10.644 21.3005 10.4023 21.982 10.2233C21.9002 12.4822 20.9646 14.6261 19.364 16.2223Z" fill="#021700"/>
</g>
<defs>
<clipPath id="clip0_195_76534">
<rect width="24" height="24" fill="white"/>
</clipPath>
</defs>
</svg>
