<svg width="24" height="24" viewBox="0 0 24 24" fill="none" xmlns="http://www.w3.org/2000/svg">
<g clip-path="url(#clip0_195_76540)">
<path d="M23.1469 9.471L22.3599 8.4C21.8145 7.65793 21.1026 7.0542 20.2815 6.63736C19.4603 6.22052 18.5528 6.00222 17.6319 6H6.38288C5.4809 6.00236 4.5915 6.21176 3.78323 6.61209C2.97495 7.01241 2.26938 7.59296 1.72087 8.309L0.899875 9.383C0.233357 10.2623 -0.0800167 11.3592 0.0213957 12.4579C0.122808 13.5566 0.631666 14.5776 1.44787 15.32L9.43788 23.027C10.1396 23.6528 11.0476 23.9979 11.9879 23.996C12.9481 23.9941 13.8739 23.638 14.5879 22.996L22.5239 15.363C23.3448 14.6361 23.8639 13.6283 23.9792 12.5379C24.0945 11.4476 23.7976 10.3535 23.1469 9.471ZM20.7469 9.578L21.5339 10.652C21.6129 10.7619 21.6825 10.8783 21.7419 11H16.9509C16.8785 10.5211 16.7537 10.0516 16.5789 9.6L15.9389 8H17.6319C18.2383 8.00115 18.836 8.1445 19.377 8.41856C19.918 8.69261 20.3872 9.08973 20.7469 9.578ZM11.9899 20.088L9.22088 13.818C9.12072 13.5528 9.04507 13.279 8.99488 13H14.9469C14.9049 13.2199 14.8461 13.4362 14.7709 13.647L11.9899 20.088ZM9.09988 11C9.1417 10.8207 9.19412 10.6441 9.25688 10.471L10.2409 8H13.7849L14.7219 10.343C14.8041 10.5569 14.871 10.7765 14.9219 11H9.09988ZM3.31088 9.521C3.67244 9.04935 4.13741 8.66695 4.67 8.40326C5.20259 8.13957 5.78858 8.00161 6.38288 8H8.08288L7.39988 9.729C7.23509 10.1392 7.11213 10.5651 7.03288 11H2.24487C2.31346 10.8587 2.39622 10.7246 2.49188 10.6L3.31088 9.521ZM2.81088 13.854C2.55 13.6174 2.34505 13.3257 2.21088 13H6.98288C7.04919 13.5388 7.1791 14.0678 7.36988 14.576L10.1969 20.976L2.81088 13.854ZM13.7709 21.014L16.6249 14.4C16.7905 13.9474 16.9059 13.4779 16.9689 13H21.7999C21.6583 13.3433 21.4421 13.6507 21.1669 13.9L13.7709 21.014Z" fill="#021700"/>
<path d="M11.9999 4C12.2651 4 12.5195 3.89464 12.707 3.70711C12.8945 3.51957 12.9999 3.26522 12.9999 3V1C12.9999 0.734784 12.8945 0.48043 12.707 0.292893C12.5195 0.105357 12.2651 0 11.9999 0C11.7347 0 11.4803 0.105357 11.2928 0.292893C11.1052 0.48043 10.9999 0.734784 10.9999 1V3C10.9999 3.26522 11.1052 3.51957 11.2928 3.70711C11.4803 3.89464 11.7347 4 11.9999 4Z" fill="#021700"/>
<path d="M16.5529 3.89987C16.671 3.95923 16.7996 3.9946 16.9315 4.00394C17.0633 4.01328 17.1956 3.9964 17.3209 3.95428C17.4462 3.91215 17.5618 3.84562 17.6612 3.75853C17.7606 3.67144 17.8417 3.56551 17.8999 3.44687L18.8999 1.44687C19.0185 1.2095 19.0379 0.934758 18.9539 0.683085C18.8699 0.431411 18.6893 0.22342 18.4519 0.104868C18.2146 -0.0136833 17.9398 -0.0330851 17.6881 0.0509312C17.4365 0.134947 17.2285 0.3155 17.1099 0.552868L16.1099 2.55287C16.0502 2.67033 16.0143 2.79844 16.0043 2.92982C15.9942 3.06121 16.0102 3.19329 16.0514 3.31846C16.0926 3.44364 16.1581 3.55944 16.2441 3.65922C16.3302 3.759 16.4351 3.84078 16.5529 3.89987Z" fill="#021700"/>
<path d="M6.10506 3.44687C6.22361 3.6849 6.43186 3.86609 6.68401 3.95057C6.93615 4.03506 7.21152 4.01592 7.44956 3.89737C7.68759 3.77882 7.86878 3.57056 7.95326 3.31842C8.03775 3.06628 8.01861 2.7909 7.90006 2.55287L6.90006 0.552868C6.84136 0.435335 6.76008 0.330515 6.66087 0.244393C6.56166 0.15827 6.44646 0.0925318 6.32184 0.0509312C6.07017 -0.0330851 5.79543 -0.0136833 5.55806 0.104868C5.32069 0.22342 5.14014 0.431411 5.05612 0.683085C4.9721 0.934758 4.9915 1.2095 5.11006 1.44687L6.10506 3.44687Z" fill="#021700"/>
</g>
<defs>
<clipPath id="clip0_195_76540">
<rect width="24" height="24" fill="white"/>
</clipPath>
</defs>
</svg>
