<svg width="24" height="24" viewBox="0 0 24 24" fill="none" xmlns="http://www.w3.org/2000/svg">
<g clip-path="url(#clip0_195_76542)">
<path d="M23.9549 21.3188C23.9159 21.1934 23.8526 21.0769 23.7686 20.9759C23.6846 20.875 23.5815 20.7916 23.4652 20.7305C23.349 20.6694 23.2218 20.6318 23.091 20.6198C22.9602 20.6079 22.8283 20.6218 22.7029 20.6608L21.4029 21.0608L20.4719 18.3238C21.4498 17.7751 22.2125 16.9108 22.6354 15.8723C23.0583 14.8338 23.1163 13.6826 22.7999 12.6068L20.9569 7.13183C20.725 6.38438 20.2122 5.75602 19.5264 5.37891C18.8406 5.00181 18.0353 4.90535 17.2799 5.10983L13.4279 6.18383C12.8755 6.33753 12.3795 6.64806 11.9999 7.07783C11.6203 6.64806 11.1243 6.33753 10.5719 6.18383L6.71891 5.10983C5.96898 4.90296 5.16807 4.99469 4.48433 5.36574C3.80058 5.73679 3.28718 6.35832 3.05191 7.09983L1.18491 12.6568C0.880932 13.7317 0.949015 14.8778 1.37812 15.9092C1.80722 16.9406 2.57218 17.7967 3.54891 18.3388L2.60491 21.0668L1.29991 20.6608C1.1745 20.6214 1.04256 20.6071 0.911615 20.6187C0.780672 20.6303 0.653296 20.6676 0.536759 20.7284C0.420221 20.7892 0.316804 20.8724 0.232414 20.9732C0.148023 21.074 0.08431 21.1904 0.0449134 21.3158C0.00551686 21.4412 -0.00879213 21.5732 0.00280344 21.7041C0.014399 21.8351 0.051672 21.9624 0.112494 22.079C0.173317 22.1955 0.256497 22.2989 0.357287 22.3833C0.458076 22.4677 0.574501 22.5314 0.699914 22.5708L2.85991 23.2418C2.87491 23.2418 2.88391 23.2588 2.89891 23.2648C2.91391 23.2708 2.95091 23.2708 2.97691 23.2778L5.15791 23.9548C5.4112 24.0336 5.68539 24.0085 5.92019 23.8851C6.15499 23.7617 6.33114 23.5501 6.40991 23.2968C6.48868 23.0435 6.46361 22.7693 6.34021 22.5345C6.21681 22.2998 6.0052 22.1236 5.75191 22.0448L4.51591 21.6598L5.45091 18.9598C5.63635 18.9836 5.82298 18.997 6.00991 18.9998C7.09108 18.9972 8.14226 18.6441 9.00585 17.9936C9.86944 17.3431 10.4989 16.4303 10.7999 15.3918L11.9999 11.8358L13.1829 15.3358C13.4745 16.3875 14.1022 17.3148 14.9701 17.9764C15.838 18.6379 16.8986 18.9974 17.9899 18.9998C18.1842 18.998 18.3782 18.9846 18.5709 18.9598L19.4889 21.6598L18.2449 22.0458C17.9916 22.1246 17.78 22.3008 17.6566 22.5356C17.5332 22.7703 17.5081 23.0445 17.5869 23.2978C17.6657 23.5511 17.8418 23.7627 18.0766 23.8861C18.3114 24.0095 18.5856 24.0346 18.8389 23.9558L21.0139 23.2808C21.0399 23.2738 21.0669 23.2808 21.0929 23.2678C21.1189 23.2548 21.1189 23.2488 21.1349 23.2428L23.2969 22.5718C23.4225 22.5328 23.5391 22.4695 23.6401 22.3854C23.7411 22.3013 23.8246 22.1981 23.8857 22.0817C23.9468 21.9654 23.9844 21.8381 23.9963 21.7072C24.0081 21.5763 23.9941 21.4443 23.9549 21.3188ZM13.3569 8.59183C13.4205 8.47465 13.5072 8.37155 13.6117 8.28871C13.7162 8.20588 13.8363 8.14503 13.9649 8.10983L17.8159 7.03683C17.9019 7.01277 17.9907 7.00032 18.0799 6.99983C18.2998 7.00215 18.5132 7.07529 18.6883 7.20841C18.8633 7.34152 18.9909 7.52752 19.0519 7.73883L19.8129 9.99983H13.4899L13.2749 9.36283C13.2366 9.23533 13.2241 9.10145 13.2382 8.96906C13.2522 8.83666 13.2926 8.70841 13.3569 8.59183ZM5.91791 6.99983C6.00746 6.99999 6.09657 7.0121 6.18291 7.03583L10.0349 8.10983C10.2894 8.18001 10.5058 8.34798 10.6369 8.57708C10.7681 8.80619 10.8033 9.07785 10.7349 9.33283L10.5099 9.99983H4.18691L4.95691 7.70983C5.02046 7.50448 5.14799 7.32482 5.32088 7.19709C5.49377 7.06936 5.70296 7.00024 5.91791 6.99983ZM8.89191 14.7998C8.73219 15.3706 8.40695 15.8813 7.95724 16.2675C7.50754 16.6536 6.95353 16.8979 6.36513 16.9694C5.77673 17.041 5.18032 16.9367 4.65116 16.6696C4.122 16.4025 3.68382 15.9847 3.39191 15.4688C3.00543 14.7949 2.9005 13.9957 3.09991 13.2448L3.51391 11.9998H9.83591L8.89191 14.7998ZM16.5239 16.6078C16.1735 16.409 15.8664 16.1421 15.6207 15.8229C15.3749 15.5036 15.1955 15.1384 15.0929 14.7488L14.1639 11.9998H20.4869L20.8869 13.1938C21.0465 13.7657 21.0329 14.372 20.8477 14.936C20.6625 15.5001 20.3141 15.9965 19.8466 16.3625C19.3792 16.7285 18.8136 16.9475 18.2216 16.9919C17.6296 17.0363 17.0377 16.904 16.5209 16.6118L16.5239 16.6078Z" fill="#021700"/>
<path d="M15.553 3.89987C15.6711 3.95923 15.7998 3.9946 15.9316 4.00394C16.0634 4.01328 16.1958 3.9964 16.321 3.95428C16.4463 3.91215 16.5619 3.84562 16.6613 3.75853C16.7607 3.67144 16.8419 3.56551 16.9001 3.44687L17.9001 1.44687C18.0186 1.2095 18.038 0.934758 17.954 0.683085C17.87 0.431411 17.6894 0.22342 17.4521 0.104868C17.2147 -0.0136833 16.9399 -0.0330851 16.6883 0.0509312C16.4366 0.134947 16.2286 0.3155 16.1101 0.552868L15.11 2.55287C15.0503 2.67033 15.0144 2.79844 15.0044 2.92982C14.9943 3.06121 15.0104 3.19329 15.0515 3.31846C15.0927 3.44364 15.1582 3.55944 15.2443 3.65922C15.3303 3.759 15.4353 3.84078 15.553 3.89987Z" fill="#021700"/>
<path d="M7.10506 3.44687C7.22361 3.6849 7.43186 3.86609 7.684 3.95057C7.80885 3.99241 7.94072 4.00924 8.07207 4.00011C8.20343 3.99098 8.3317 3.95607 8.44956 3.89737C8.56742 3.83867 8.67256 3.75733 8.75899 3.65799C8.84541 3.55865 8.91143 3.44327 8.95326 3.31842C8.99509 3.19357 9.01193 3.06171 9.0028 2.93035C8.99367 2.799 8.95876 2.67073 8.90006 2.55287L7.90006 0.552868C7.84136 0.435335 7.76008 0.330515 7.66087 0.244393C7.56166 0.15827 7.44646 0.0925318 7.32184 0.0509312C7.07017 -0.0330851 6.79543 -0.0136833 6.55806 0.104868C6.32069 0.22342 6.14014 0.431411 6.05612 0.683085C5.9721 0.934758 5.9915 1.2095 6.11006 1.44687L7.10506 3.44687Z" fill="#021700"/>
<path d="M12.0001 4C12.2653 4 12.5197 3.89464 12.7072 3.70711C12.8948 3.51957 13.0001 3.26522 13.0001 3V1C13.0001 0.734784 12.8948 0.48043 12.7072 0.292893C12.5197 0.105357 12.2653 0 12.0001 0C11.7349 0 11.4806 0.105357 11.293 0.292893C11.1055 0.48043 11.0001 0.734784 11.0001 1V3C11.0001 3.26522 11.1055 3.51957 11.293 3.70711C11.4806 3.89464 11.7349 4 12.0001 4Z" fill="#021700"/>
</g>
<defs>
<clipPath id="clip0_195_76542">
<rect width="24" height="24" fill="white"/>
</clipPath>
</defs>
</svg>
