<svg width="24" height="24" viewBox="0 0 24 24" fill="none" xmlns="http://www.w3.org/2000/svg">
<g clip-path="url(#clip0_195_76544)">
<path d="M12.9999 15.9997C14.5822 15.9997 16.1289 15.5305 17.4445 14.6514C18.7601 13.7724 19.7855 12.5229 20.391 11.0611C20.9965 9.59931 21.1549 7.99078 20.8462 6.43893C20.5375 4.88708 19.7756 3.46162 18.6568 2.3428C17.538 1.22398 16.1125 0.46205 14.5607 0.153368C13.0088 -0.155314 11.4003 0.00311285 9.93848 0.608614C8.47667 1.21411 7.22724 2.2395 6.34819 3.55509C5.46914 4.87068 4.99995 6.4174 4.99995 7.99965C5.00233 10.1207 5.84595 12.1541 7.34573 13.6539C8.8455 15.1536 10.8789 15.9973 12.9999 15.9997ZM12.9999 1.99965C14.1866 1.99965 15.3467 2.35154 16.3334 3.01083C17.3201 3.67012 18.0891 4.60719 18.5432 5.70355C18.9974 6.79991 19.1162 8.00631 18.8847 9.17019C18.6531 10.3341 18.0817 11.4032 17.2426 12.2423C16.4035 13.0814 15.3344 13.6529 14.1705 13.8844C13.0066 14.1159 11.8002 13.9971 10.7038 13.5429C9.60749 13.0888 8.67042 12.3198 8.01113 11.3331C7.35184 10.3464 6.99995 9.18634 6.99995 7.99965C7.00154 6.40884 7.63419 4.88364 8.75906 3.75876C9.88394 2.63389 11.4091 2.00124 12.9999 1.99965ZM22.9069 14.7726C21.8991 16.2411 20.5768 17.4667 19.0361 18.3603C17.4954 19.2539 15.7751 19.793 13.9999 19.9387V21.9997H17.9999C18.2652 21.9997 18.5195 22.105 18.7071 22.2925C18.8946 22.4801 18.9999 22.7344 18.9999 22.9997C18.9999 23.2649 18.8946 23.5192 18.7071 23.7068C18.5195 23.8943 18.2652 23.9997 17.9999 23.9997H7.99995C7.73473 23.9997 7.48038 23.8943 7.29284 23.7068C7.10531 23.5192 6.99995 23.2649 6.99995 22.9997C6.99995 22.7344 7.10531 22.4801 7.29284 22.2925C7.48038 22.105 7.73473 21.9997 7.99995 21.9997H11.9999V19.9487C9.81739 19.7671 7.72621 18.9914 5.95323 17.7056C4.18024 16.4199 2.79313 14.6733 1.94235 12.6552C1.09157 10.6371 0.809593 8.4246 1.12701 6.25763C1.44442 4.09066 2.34911 2.05196 3.74295 0.36265C3.91189 0.158168 4.15514 0.0291737 4.4192 0.00404383C4.68325 -0.021086 4.94647 0.0597073 5.15095 0.22865C5.35543 0.397593 5.48442 0.640847 5.50955 0.904898C5.53468 1.16895 5.45389 1.43217 5.28495 1.63665C4.4265 2.67916 3.7881 3.88475 3.40826 5.18071C3.02843 6.47666 2.91502 7.83613 3.07488 9.1771C3.23475 10.5181 3.66457 11.8128 4.33843 12.9831C5.01228 14.1535 5.91621 15.1752 6.99569 15.9867C8.07516 16.7981 9.30782 17.3826 10.6193 17.7047C11.9308 18.0268 13.294 18.08 14.6265 17.8609C15.9591 17.6419 17.2335 17.1552 18.3729 16.4302C19.5123 15.7052 20.493 14.757 21.2559 13.6426C21.4058 13.4237 21.6365 13.2733 21.8972 13.2244C22.158 13.1756 22.4275 13.2323 22.6464 13.3821C22.8654 13.532 23.0158 13.7627 23.0647 14.0234C23.1135 14.2842 23.0568 14.5537 22.9069 14.7726Z" fill="#021700"/>
</g>
<defs>
<clipPath id="clip0_195_76544">
<rect width="24" height="24" fill="white"/>
</clipPath>
</defs>
</svg>
