<svg width="24" height="24" viewBox="0 0 24 24" fill="none" xmlns="http://www.w3.org/2000/svg">
<g clip-path="url(#clip0_195_76547)">
<path d="M22.0568 5.22982L14.6828 1.71682C13.0596 0.747262 11.0393 0.730059 9.39979 1.67182L1.94282 5.22982C1.91483 5.24384 1.88582 5.25884 1.85882 5.27482C0.0891931 6.28667 -0.525151 8.5415 0.486693 10.3111C0.829677 10.911 1.33419 11.4026 1.94282 11.7298L3.99983 12.7099V17.6098C4.00105 19.8009 5.42676 21.7367 7.51883 22.3879C8.97472 22.809 10.4843 23.0152 11.9998 22.9999C13.5151 23.0168 15.0247 22.8124 16.4809 22.3929C18.5729 21.7417 19.9986 19.8059 19.9999 17.6149V12.7078L21.9999 11.7518V19.9998C21.9999 20.5521 22.4476 20.9998 22.9999 20.9998C23.5521 20.9998 23.9998 20.5521 23.9998 19.9998V7.99981C24.0065 6.82554 23.0793 5.74076 22.0568 5.22982ZM17.9998 17.6149C18.0003 18.9254 17.15 20.0847 15.8998 20.4778C14.632 20.8401 13.3183 21.0159 11.9998 20.9998C10.6813 21.0159 9.36758 20.8401 8.0998 20.4778C6.8496 20.0847 5.99929 18.9254 5.9998 17.6149V13.6629L9.31682 15.2429C10.1353 15.7289 11.07 15.9843 12.0218 15.9819C12.9278 15.9883 13.8186 15.7484 14.5988 15.2879L17.9998 13.6628V17.6149ZM21.1998 9.92482L13.6578 13.5248C12.6062 14.1372 11.3028 14.1198 10.2678 13.4798L2.8888 9.96982C2.06629 9.52629 1.75907 8.49996 2.2026 7.6775C2.3526 7.39934 2.57751 7.16876 2.85182 7.01182L10.3468 3.43184C11.3987 2.82087 12.7015 2.83817 13.7368 3.47684L21.1108 6.98984C21.6531 7.29096 21.9924 7.85961 21.9998 8.47986C22.0008 9.06739 21.6982 9.61376 21.1998 9.92482Z" fill="#021700"/>
</g>
<defs>
<clipPath id="clip0_195_76547">
<rect width="24" height="24" fill="white"/>
</clipPath>
</defs>
</svg>
