<svg width="24" height="24" viewBox="0 0 24 24" fill="none" xmlns="http://www.w3.org/2000/svg">
<g clip-path="url(#clip0_195_76562)">
<path d="M23.9999 9.72375V18.9998C23.9983 20.3254 23.471 21.5962 22.5337 22.5335C21.5963 23.4709 20.3255 23.9982 18.9999 23.9998H17.9999C17.7347 23.9998 17.4803 23.8944 17.2928 23.7069C17.1052 23.5193 16.9999 23.265 16.9999 22.9998C16.9999 22.7345 17.1052 22.4802 17.2928 22.2926C17.4803 22.1051 17.7347 21.9998 17.9999 21.9998H18.9999C19.7955 21.9998 20.5586 21.6837 21.1212 21.1211C21.6838 20.5585 21.9999 19.7954 21.9999 18.9998V9.72375C21.9999 9.23267 21.8794 8.74909 21.6489 8.31547C21.4184 7.88184 21.085 7.51143 20.6779 7.23675L13.6779 2.51375C13.1833 2.17656 12.5985 1.99621 11.9999 1.99621C11.4013 1.99621 10.8165 2.17656 10.3219 2.51375L3.32188 7.23675C2.9148 7.51143 2.58138 7.88184 2.35088 8.31547C2.12038 8.74909 1.99985 9.23267 1.99988 9.72375V18.9998C1.99988 19.7954 2.31595 20.5585 2.87856 21.1211C3.44117 21.6837 4.20423 21.9998 4.99988 21.9998H5.99988C6.2651 21.9998 6.51945 22.1051 6.70699 22.2926C6.89453 22.4802 6.99988 22.7345 6.99988 22.9998C6.99988 23.265 6.89453 23.5193 6.70699 23.7069C6.51945 23.8944 6.2651 23.9998 5.99988 23.9998H4.99988C3.67429 23.9982 2.40344 23.4709 1.4661 22.5335C0.528764 21.5962 0.0014697 20.3254 -0.000118153 18.9998V9.72375C-0.00114303 8.90547 0.198961 8.09948 0.582586 7.37669C0.966211 6.65391 1.5216 6.03649 2.19988 5.57875L9.19988 0.854753C10.0251 0.294706 10.9995 -0.00469971 11.9969 -0.00469971C12.9942 -0.00469971 13.9686 0.294706 14.7939 0.854753L21.7939 5.57875C22.4728 6.03625 23.0291 6.65347 23.4137 7.37619C23.7984 8.09892 23.9996 8.90505 23.9999 9.72375ZM18.9999 15.0068C19.0024 15.9263 18.8226 16.8371 18.4707 17.6866C18.1188 18.5361 17.6019 19.3074 16.9499 19.9558L13.4349 23.3938C13.0501 23.7663 12.5355 23.9746 11.9999 23.9746C11.4643 23.9746 10.9497 23.7663 10.5649 23.3938L7.05788 19.9638C6.24228 19.1507 5.63987 18.149 5.30407 17.0474C4.96827 15.9458 4.90944 14.7783 5.13281 13.6486C5.35618 12.5188 5.85484 11.4616 6.58459 10.5707C7.31433 9.67974 8.25262 8.98263 9.31627 8.54112C10.3799 8.09961 11.5361 7.92735 12.6822 8.03961C13.8284 8.15186 14.9291 8.54517 15.8869 9.18466C16.8447 9.82416 17.6299 10.6901 18.1729 11.7057C18.7159 12.7212 19 13.8551 18.9999 15.0068ZM16.9999 15.0068C16.9999 14.1845 16.7971 13.375 16.4096 12.6498C16.022 11.9247 15.4616 11.3063 14.7779 10.8495C14.0943 10.3926 13.3085 10.1114 12.4903 10.0308C11.672 9.95015 10.8465 10.0726 10.0868 10.3871C9.32714 10.7017 8.65678 11.1988 8.13511 11.8344C7.61344 12.4699 7.25655 13.2243 7.09606 14.0307C6.93556 14.8371 6.97642 15.6707 7.21501 16.4576C7.4536 17.2444 7.88255 17.9603 8.46388 18.5418L11.9639 21.9638L15.5439 18.5338C16.0075 18.0712 16.3749 17.5213 16.6248 16.9159C16.8747 16.3106 17.0022 15.6617 16.9999 15.0068ZM14.9999 14.9998C14.9999 15.5931 14.8239 16.1731 14.4943 16.6665C14.1646 17.1598 13.6961 17.5443 13.1479 17.7714C12.5998 17.9985 11.9966 18.0579 11.4146 17.9421C10.8327 17.8264 10.2981 17.5406 9.87856 17.1211C9.459 16.7015 9.17328 16.167 9.05753 15.585C8.94177 15.0031 9.00118 14.3999 9.22824 13.8517C9.45531 13.3035 9.83982 12.835 10.3332 12.5053C10.8265 12.1757 11.4065 11.9998 11.9999 11.9998C12.7955 11.9998 13.5586 12.3158 14.1212 12.8784C14.6838 13.441 14.9999 14.2041 14.9999 14.9998Z" fill="#021700"/>
</g>
<defs>
<clipPath id="clip0_195_76562">
<rect width="24" height="24" fill="white"/>
</clipPath>
</defs>
</svg>
