<svg width="24" height="24" viewBox="0 0 24 24" fill="none" xmlns="http://www.w3.org/2000/svg">
<g clip-path="url(#clip0_195_76572)">
<path d="M1 6.0003H23C23.2652 6.0003 23.5196 5.89494 23.7071 5.70741C23.8946 5.51987 24 5.26552 24 5.0003C24 4.73509 23.8946 4.48073 23.7071 4.2932C23.5196 4.10566 23.2652 4.00031 23 4.00031H1C0.734784 4.00031 0.48043 4.10566 0.292893 4.2932C0.105357 4.48073 0 4.73509 0 5.0003C0 5.26552 0.105357 5.51987 0.292893 5.70741C0.48043 5.89494 0.734784 6.0003 1 6.0003Z" fill="#021700"/>
<path d="M23.0001 9H9.00012C8.73491 9 8.48055 9.10536 8.29302 9.29289C8.10548 9.48043 8.00012 9.73478 8.00012 10C8.00012 10.2652 8.10548 10.5196 8.29302 10.7071C8.48055 10.8946 8.73491 11 9.00012 11H23.0001C23.2653 11 23.5197 10.8946 23.7072 10.7071C23.8948 10.5196 24.0001 10.2652 24.0001 10C24.0001 9.73478 23.8948 9.48043 23.7072 9.29289C23.5197 9.10536 23.2653 9 23.0001 9Z" fill="#021700"/>
<path d="M23 19.0003H1C0.734784 19.0003 0.48043 19.1057 0.292893 19.2932C0.105357 19.4807 0 19.7351 0 20.0003C0 20.2655 0.105357 20.5199 0.292893 20.7074C0.48043 20.895 0.734784 21.0003 1 21.0003H23C23.2652 21.0003 23.5196 20.895 23.7071 20.7074C23.8946 20.5199 24 20.2655 24 20.0003C24 19.7351 23.8946 19.4807 23.7071 19.2932C23.5196 19.1057 23.2652 19.0003 23 19.0003Z" fill="#021700"/>
<path d="M23.0001 13.9997H9.00012C8.73491 13.9997 8.48055 14.1051 8.29302 14.2926C8.10548 14.4801 8.00012 14.7345 8.00012 14.9997C8.00012 15.2649 8.10548 15.5193 8.29302 15.7068C8.48055 15.8943 8.73491 15.9997 9.00012 15.9997H23.0001C23.2653 15.9997 23.5197 15.8943 23.7072 15.7068C23.8948 15.5193 24.0001 15.2649 24.0001 14.9997C24.0001 14.7345 23.8948 14.4801 23.7072 14.2926C23.5197 14.1051 23.2653 13.9997 23.0001 13.9997Z" fill="#021700"/>
<path d="M1.707 16.2449L4.681 13.2709C4.88508 13.0662 4.99968 12.7889 4.99968 12.4999C4.99968 12.2108 4.88508 11.9336 4.681 11.7289L1.707 8.75488C1.56709 8.61501 1.38883 8.51979 1.19479 8.48125C1.00074 8.44272 0.799624 8.4626 0.616884 8.5384C0.434143 8.61419 0.27799 8.74249 0.168182 8.90705C0.0583736 9.07161 -0.00015534 9.26505 3.09641e-07 9.46288V15.5369C-0.00015534 15.7347 0.0583736 15.9282 0.168182 16.0927C0.27799 16.2573 0.434143 16.3856 0.616884 16.4614C0.799624 16.5372 1.00074 16.5571 1.19479 16.5185C1.38883 16.48 1.56709 16.3848 1.707 16.2449Z" fill="#021700"/>
</g>
<defs>
<clipPath id="clip0_195_76572">
<rect width="24" height="24" fill="white"/>
</clipPath>
</defs>
</svg>
