<svg width="24" height="24" viewBox="0 0 24 24" fill="none" xmlns="http://www.w3.org/2000/svg">
<g clip-path="url(#clip0_195_76583)">
<path d="M20.4571 4.55507L12.4861 0.126072C12.3375 0.0434115 12.1702 3.05176e-05 12.0001 3.05176e-05C11.83 3.05176e-05 11.6628 0.0434115 11.5141 0.126072L3.54312 4.55507C3.07553 4.81486 2.6859 5.19495 2.4146 5.65597C2.1433 6.11698 2.0002 6.64215 2.00012 7.17707V19.0001C2.00171 20.3257 2.529 21.5965 3.46634 22.5339C4.40368 23.4712 5.67453 23.9985 7.00012 24.0001H17.0001C18.3257 23.9985 19.5966 23.4712 20.5339 22.5339C21.4712 21.5965 21.9985 20.3257 22.0001 19.0001V7.17707C22 6.64215 21.8569 6.11698 21.5856 5.65597C21.3143 5.19495 20.9247 4.81486 20.4571 4.55507ZM20.0001 19.0001C20.0001 19.7957 19.6841 20.5588 19.1214 21.1214C18.5588 21.684 17.7958 22.0001 17.0001 22.0001H7.00012C6.20447 22.0001 5.44141 21.684 4.8788 21.1214C4.31619 20.5588 4.00012 19.7957 4.00012 19.0001V7.17707C3.99968 6.99819 4.04722 6.82246 4.13781 6.66821C4.22839 6.51396 4.35869 6.38683 4.51512 6.30007L12.0001 2.14407L19.4861 6.30007C19.6424 6.38696 19.7725 6.51415 19.8629 6.66839C19.9533 6.82263 20.0007 6.99829 20.0001 7.17707V19.0001Z" fill="#021700"/>
<path d="M12 8.50031C12.8284 8.50031 13.5 7.82873 13.5 7.00031C13.5 6.17188 12.8284 5.50031 12 5.50031C11.1716 5.50031 10.5 6.17188 10.5 7.00031C10.5 7.82873 11.1716 8.50031 12 8.50031Z" fill="#021700"/>
</g>
<defs>
<clipPath id="clip0_195_76583">
<rect width="24" height="24" fill="white"/>
</clipPath>
</defs>
</svg>
