<svg width="24" height="24" viewBox="0 0 24 24" fill="none" xmlns="http://www.w3.org/2000/svg">
<g clip-path="url(#clip0_195_76589)">
<path d="M23.119 0.871577C22.8065 0.559766 22.4287 0.321167 22.0128 0.172974C21.5969 0.0247801 21.1534 -0.029318 20.7141 0.0145774C17.9211 0.284577 8.52806 1.44758 4.90007 5.07158C3.16584 6.81053 2.13747 9.1304 2.01354 11.5832C1.88962 14.036 2.67894 16.4477 4.22907 18.3526L0.289073 22.2926C0.106915 22.4812 0.0061212 22.7338 0.00839962 22.996C0.010678 23.2582 0.115847 23.509 0.301255 23.6944C0.486663 23.8798 0.737475 23.985 0.999671 23.9873C1.26187 23.9895 1.51447 23.8887 1.70307 23.7066L5.64307 19.7666C7.54757 21.3188 9.95993 22.1097 12.4138 21.9865C14.8676 21.8633 17.1886 20.8347 18.9281 19.0996C22.604 15.4226 23.728 6.05858 23.987 3.27658C24.0294 2.83645 23.9735 2.39241 23.8234 1.97651C23.6733 1.56061 23.4327 1.18322 23.119 0.871577ZM17.5191 17.6816C16.1556 19.0401 14.3443 19.8559 12.4233 19.9768C10.5024 20.0977 8.60312 19.5154 7.08006 18.3386L16.7121 8.70658C16.8942 8.51797 16.995 8.26537 16.9927 8.00318C16.9904 7.74098 16.8853 7.49017 16.6999 7.30476C16.5145 7.11935 16.2637 7.01418 16.0015 7.0119C15.7393 7.00962 15.4867 7.11042 15.2981 7.29258L5.66107 16.9246C4.48404 15.4016 3.9016 13.5023 4.0225 11.5813C4.1434 9.66028 4.95938 7.84896 6.31807 6.48558C8.82706 3.97758 15.7451 2.49958 20.907 2.00458C21.0532 1.99035 21.2008 2.00851 21.3392 2.05776C21.4776 2.10701 21.6034 2.18614 21.7078 2.28953C21.8121 2.39292 21.8924 2.51802 21.9429 2.65595C21.9934 2.79389 22.0129 2.94125 22 3.08758C21.5 8.47458 20.059 15.1366 17.5141 17.6816H17.5191Z" fill="#021700"/>
</g>
<defs>
<clipPath id="clip0_195_76589">
<rect width="24" height="24" fill="white"/>
</clipPath>
</defs>
</svg>
