<svg width="24" height="24" viewBox="0 0 24 24" fill="none" xmlns="http://www.w3.org/2000/svg">
<g clip-path="url(#clip0_195_76594)">
<path d="M17.0001 13.1841V10.0001C17.0001 9.73486 16.8948 9.4805 16.7072 9.29297C16.5197 9.10543 16.2653 9.00007 16.0001 9.00007V2.41407C16.0002 2.00278 15.8951 1.59831 15.6947 1.23909C15.4944 0.879868 15.2056 0.577836 14.8557 0.361692C14.5058 0.145548 14.1064 0.022473 13.6955 0.00416197C13.2846 -0.0141491 12.8759 0.0729123 12.5081 0.257073L9.88612 1.56707C9.31832 1.84945 8.84081 2.28499 8.50753 2.82449C8.17426 3.36399 7.9985 3.98594 8.00012 4.62007V9.00007C7.73491 9.00007 7.48055 9.10543 7.29302 9.29297C7.10548 9.4805 7.00012 9.73486 7.00012 10.0001V13.1841C6.41721 13.3902 5.91221 13.7713 5.55421 14.2754C5.19621 14.7794 5.00269 15.3818 5.00012 16.0001V19.0001C5.00171 20.3257 5.529 21.5965 6.46634 22.5339C7.40368 23.4712 8.67453 23.9985 10.0001 24.0001H14.0001C15.3257 23.9985 16.5966 23.4712 17.5339 22.5339C18.4712 21.5965 18.9985 20.3257 19.0001 19.0001V16.0001C18.9976 15.3818 18.804 14.7794 18.446 14.2754C18.088 13.7713 17.583 13.3902 17.0001 13.1841ZM9.00012 13.0001V11.0001H15.0001V13.0001H9.00012ZM10.0001 4.62007C9.99939 4.3575 10.0721 4.09995 10.2102 3.87657C10.3482 3.6532 10.546 3.4729 10.7811 3.35607L13.4001 2.04607C13.463 2.01351 13.5332 1.99774 13.604 2.0003C13.6748 2.00286 13.7437 2.02366 13.804 2.06068C13.8644 2.0977 13.9141 2.14969 13.9485 2.21161C13.9829 2.27352 14.0006 2.34326 14.0001 2.41407V9.00007H10.0001V4.62007ZM17.0001 19.0001C17.0001 19.7957 16.6841 20.5588 16.1214 21.1214C15.5588 21.684 14.7958 22.0001 14.0001 22.0001H10.0001C9.20447 22.0001 8.44141 21.684 7.8788 21.1214C7.31619 20.5588 7.00012 19.7957 7.00012 19.0001V16.0001C7.00012 15.7349 7.10548 15.4805 7.29302 15.293C7.48055 15.1054 7.73491 15.0001 8.00012 15.0001H16.0001C16.2653 15.0001 16.5197 15.1054 16.7072 15.293C16.8948 15.4805 17.0001 15.7349 17.0001 16.0001V19.0001Z" fill="#021700"/>
</g>
<defs>
<clipPath id="clip0_195_76594">
<rect width="24" height="24" fill="white"/>
</clipPath>
</defs>
</svg>
