<svg width="24" height="24" viewBox="0 0 24 24" fill="none" xmlns="http://www.w3.org/2000/svg">
<g clip-path="url(#clip0_195_76595)">
<path d="M3.99993 6.00012C3.60568 6.00115 3.21514 5.924 2.8509 5.77312C2.48667 5.62224 2.15597 5.40063 1.87793 5.12112L0.333929 3.74712C0.135812 3.57048 0.0159778 3.32238 0.000787327 3.05739C-0.0144031 2.7924 0.076295 2.53223 0.252929 2.33412C0.429563 2.136 0.677665 2.01616 0.942654 2.00097C1.20764 1.98578 1.46781 2.07648 1.66593 2.25312L3.25093 3.66712C3.34167 3.76901 3.45229 3.85126 3.57601 3.90881C3.69972 3.96635 3.8339 3.99797 3.97029 4.00171C4.10668 4.00546 4.24239 3.98126 4.36907 3.93059C4.49576 3.87993 4.61074 3.80388 4.70693 3.70712L8.31093 0.276116C8.50472 0.103586 8.75799 0.0131348 9.01723 0.0238668C9.27648 0.0345988 9.5214 0.145674 9.70027 0.333631C9.87914 0.521588 9.97795 0.77171 9.97584 1.03117C9.97372 1.29062 9.87084 1.5391 9.68893 1.72412L6.09993 5.13812C5.8237 5.41273 5.49605 5.63021 5.13572 5.77812C4.77539 5.92603 4.38944 6.00147 3.99993 6.00012ZM23.9999 4.00012C23.9999 3.7349 23.8946 3.48055 23.707 3.29301C23.5195 3.10547 23.2651 3.00012 22.9999 3.00012H12.9999C12.7347 3.00012 12.4804 3.10547 12.2928 3.29301C12.1053 3.48055 11.9999 3.7349 11.9999 4.00012C11.9999 4.26533 12.1053 4.51969 12.2928 4.70722C12.4804 4.89476 12.7347 5.00012 12.9999 5.00012H22.9999C23.2651 5.00012 23.5195 4.89476 23.707 4.70722C23.8946 4.51969 23.9999 4.26533 23.9999 4.00012ZM6.09993 13.1381L9.68893 9.72412C9.7891 9.63494 9.87031 9.52652 9.92772 9.40531C9.98514 9.2841 10.0176 9.15259 10.0231 9.01858C10.0287 8.88458 10.0072 8.75083 9.96002 8.62529C9.91282 8.49976 9.84085 8.385 9.74839 8.28784C9.65593 8.19069 9.54487 8.11312 9.42183 8.05977C9.29878 8.00641 9.16626 7.97835 9.03214 7.97725C8.89803 7.97616 8.76507 8.00206 8.64117 8.0534C8.51727 8.10474 8.40496 8.18048 8.31093 8.27612L4.71093 11.7071C4.52056 11.8891 4.26732 11.9907 4.00393 11.9907C3.74054 11.9907 3.4873 11.8891 3.29693 11.7071L1.70693 10.1221C1.51833 9.93996 1.26572 9.83916 1.00353 9.84144C0.741331 9.84372 0.490519 9.94889 0.305111 10.1343C0.119703 10.3197 0.0145336 10.5705 0.0122552 10.8327C0.00997675 11.0949 0.110771 11.3475 0.292929 11.5361L1.87793 13.1211C2.4376 13.6809 3.19585 13.9968 3.98743 14C4.77901 14.0032 5.53977 13.6934 6.10393 13.1381H6.09993ZM23.9999 12.0001C23.9999 11.7349 23.8946 11.4805 23.707 11.293C23.5195 11.1055 23.2651 11.0001 22.9999 11.0001H12.9999C12.7347 11.0001 12.4804 11.1055 12.2928 11.293C12.1053 11.4805 11.9999 11.7349 11.9999 12.0001C11.9999 12.2653 12.1053 12.5197 12.2928 12.7072C12.4804 12.8948 12.7347 13.0001 12.9999 13.0001H22.9999C23.2651 13.0001 23.5195 12.8948 23.707 12.7072C23.8946 12.5197 23.9999 12.2653 23.9999 12.0001ZM6.09993 21.1381L9.68493 17.7241C9.7851 17.6349 9.86631 17.5265 9.92372 17.4053C9.98114 17.2841 10.0136 17.1526 10.0191 17.0186C10.0247 16.8846 10.0032 16.7508 9.95601 16.6253C9.90882 16.4998 9.83685 16.385 9.74439 16.2878C9.65193 16.1907 9.54087 16.1131 9.41783 16.0598C9.29478 16.0064 9.16226 15.9783 9.02814 15.9773C8.89403 15.9762 8.76107 16.0021 8.63717 16.0534C8.51327 16.1047 8.40096 16.1805 8.30693 16.2761L4.70693 19.7071C4.61074 19.8039 4.49576 19.8799 4.36907 19.9306C4.24239 19.9813 4.10668 20.0055 3.97029 20.0017C3.8339 19.998 3.69972 19.9664 3.57601 19.9088C3.45229 19.8513 3.34167 19.769 3.25093 19.6671L1.66593 18.2531C1.46781 18.0765 1.20764 17.9858 0.942654 18.001C0.677665 18.0162 0.429563 18.136 0.252929 18.3341C0.076295 18.5322 -0.0144031 18.7924 0.000787327 19.0574C0.0159778 19.3224 0.135812 19.5705 0.333929 19.7471L1.87793 21.1211C2.4376 21.6809 3.19585 21.9968 3.98743 22C4.77901 22.0032 5.53977 21.6934 6.10393 21.1381H6.09993ZM23.9999 20.0001C23.9999 19.7349 23.8946 19.4805 23.707 19.293C23.5195 19.1055 23.2651 19.0001 22.9999 19.0001H12.9999C12.7347 19.0001 12.4804 19.1055 12.2928 19.293C12.1053 19.4805 11.9999 19.7349 11.9999 20.0001C11.9999 20.2653 12.1053 20.5197 12.2928 20.7072C12.4804 20.8948 12.7347 21.0001 12.9999 21.0001H22.9999C23.2651 21.0001 23.5195 20.8948 23.707 20.7072C23.8946 20.5197 23.9999 20.2653 23.9999 20.0001Z" fill="#021700"/>
</g>
<defs>
<clipPath id="clip0_195_76595">
<rect width="24" height="24" fill="white"/>
</clipPath>
</defs>
</svg>
