<svg width="24" height="24" viewBox="0 0 24 24" fill="none" xmlns="http://www.w3.org/2000/svg">
<path d="M8.17465 22.4473C10.2773 24.5043 13.6354 24.5127 15.7483 22.4663L19.7302 18.7866C24.0437 14.5306 24.0902 7.58366 19.8341 3.27022C15.5781 -1.04322 8.63116 -1.08981 4.31772 3.16625C4.28285 3.20066 4.24816 3.23534 4.21376 3.27022C-0.0707597 7.55539 -0.0701971 14.5025 4.21497 18.787C4.22383 18.7959 4.23274 18.8047 4.24165 18.8136L8.17465 22.4473ZM5.62413 4.68064C9.12222 1.16713 14.8062 1.15461 18.3198 4.6527C21.8333 8.1508 21.8458 13.8348 18.3477 17.3483L14.3738 21.021C13.0165 22.2984 10.8969 22.2905 9.54912 21.003L5.62413 17.3763C2.11835 13.8705 2.1183 8.18652 5.62404 4.68069C5.62408 4.68069 5.62413 4.68064 5.62413 4.68064ZM6.98468 11.0285C6.98468 10.4776 7.43126 10.031 7.98213 10.031H10.9745V7.03864C10.9745 6.48777 11.4211 6.04119 11.9719 6.04119C12.5228 6.04119 12.9694 6.48777 12.9694 7.03864V10.031H15.9618C16.5126 10.031 16.9592 10.4776 16.9592 11.0285C16.9592 11.5793 16.5126 12.0259 15.9618 12.0259H12.9694V15.0183C12.9694 15.5691 12.5228 16.0157 11.9719 16.0157C11.4211 16.0157 10.9745 15.5691 10.9745 15.0183V12.0259H7.98213C7.43126 12.0259 6.98468 11.5793 6.98468 11.0285Z" fill="#021700"/>
</svg>
