<svg width="24" height="24" viewBox="0 0 24 24" fill="none" xmlns="http://www.w3.org/2000/svg">
<g clip-path="url(#clip0_195_76613)">
<path d="M21.0117 0H16.0312C15.4811 0 15.0352 0.446719 15.0352 0.997734C15.0352 1.54875 15.4811 1.99547 16.0312 1.99547H20.5994L13.794 8.81208C10.1109 5.90208 4.77003 6.53372 1.86485 10.2229C-1.04032 13.912 -0.409758 19.2617 3.27331 22.1717C6.95638 25.0817 12.2973 24.45 15.2024 20.7609C17.6357 17.671 17.6357 13.3128 15.2024 10.2229L22.0079 3.40631V7.98197C22.0079 8.53303 22.4538 8.9797 23.004 8.9797C23.5541 8.9797 24.0001 8.53298 24.0001 7.98197V2.99325C24.0001 1.34011 22.6621 0 21.0117 0ZM8.56044 21.9504C4.98458 21.9504 2.08578 19.0468 2.08578 15.465C2.08578 11.8833 4.98458 8.9797 8.56044 8.9797C12.1363 8.9797 15.0351 11.8833 15.0351 15.465C15.0307 19.045 12.1345 21.946 8.56044 21.9504Z" fill="#021700"/>
</g>
<defs>
<clipPath id="clip0_195_76613">
<rect width="24" height="24" fill="white"/>
</clipPath>
</defs>
</svg>
