<svg width="24" height="24" viewBox="0 0 24 24" fill="none" xmlns="http://www.w3.org/2000/svg">
<g clip-path="url(#clip0_195_76614)">
<path d="M22.5139 10.972C22.1061 10.6072 21.6247 10.3342 21.1024 10.1714C20.58 10.0085 20.0288 9.95962 19.4859 10.028C17.2988 10.2924 15.1406 10.7577 13.0389 11.418C13.3589 8.913 15.7499 8 17.9999 8C18.7955 8 19.5586 7.68393 20.1212 7.12132C20.6838 6.55871 20.9999 5.79565 20.9999 5C20.9999 4.20435 20.6838 3.44129 20.1212 2.87868C19.5586 2.31607 18.7955 2 17.9999 2C17.0677 1.99978 16.1449 2.18649 15.2861 2.54908C14.4273 2.91166 13.6499 3.44277 12.9999 4.111V1C12.9999 0.734784 12.8945 0.48043 12.707 0.292893C12.5195 0.105357 12.2651 0 11.9999 0C11.7347 0 11.4803 0.105357 11.2928 0.292893C11.1052 0.48043 10.9999 0.734784 10.9999 1V4.11C10.3497 3.44214 9.57223 2.91133 8.71345 2.54893C7.85468 2.18653 6.932 1.99988 5.99989 2C5.20424 2 4.44118 2.31607 3.87857 2.87868C3.31596 3.44129 2.99989 4.20435 2.99989 5C2.99989 5.79565 3.31596 6.55871 3.87857 7.12132C4.44118 7.68393 5.20424 8 5.99989 8C8.24989 8 10.6409 8.913 10.9609 11.418C8.85911 10.7578 6.701 10.2925 4.51389 10.028C3.97104 9.96001 3.41991 10.0091 2.89761 10.1719C2.37531 10.3348 1.89394 10.6076 1.48589 10.972C1.01522 11.4032 0.641025 11.929 0.387857 12.5149C0.13469 13.1009 0.00827049 13.7337 0.0168926 14.372C0.0168926 23.062 4.85189 24 6.93089 24C8.05982 23.9395 9.14098 23.5249 10.0209 22.815C10.5808 22.3407 11.2702 22.0453 11.9999 21.967C12.7295 22.0453 13.4189 22.3407 13.9789 22.815C14.8589 23.5247 15.94 23.9393 17.0689 24C19.1479 24 23.9829 23.062 23.9829 14.375C23.9917 13.7363 23.8654 13.1029 23.6122 12.5165C23.359 11.93 22.9847 11.4037 22.5139 10.972ZM17.9999 4C18.2651 4 18.5195 4.10536 18.707 4.29289C18.8945 4.48043 18.9999 4.73478 18.9999 5C18.9999 5.26522 18.8945 5.51957 18.707 5.70711C18.5195 5.89464 18.2651 6 17.9999 6C16.3151 5.94531 14.657 6.43098 13.2679 7.386C13.6055 6.39892 14.243 5.54196 15.0914 4.93489C15.9398 4.32782 16.9567 4.00096 17.9999 4ZM5.99989 6C5.73468 6 5.48032 5.89464 5.29279 5.70711C5.10525 5.51957 4.99989 5.26522 4.99989 5C4.99989 4.73478 5.10525 4.48043 5.29279 4.29289C5.48032 4.10536 5.73468 4 5.99989 4C7.04318 4.0012 8.06005 4.32814 8.90855 4.93516C9.75706 5.54218 10.3949 6.399 10.7329 7.386C9.34355 6.43077 7.68504 5.9451 5.99989 6ZM17.0689 22C16.3392 21.9217 15.6498 21.6263 15.0899 21.152C14.2097 20.4426 13.1287 20.028 11.9999 19.967C10.8711 20.028 9.79004 20.4426 8.90989 21.152C8.34994 21.6263 7.66055 21.9217 6.93089 22C3.76189 22 2.01689 19.292 2.01689 14.375C2.01059 14.019 2.07846 13.6656 2.21619 13.3373C2.35392 13.009 2.5585 12.7129 2.81689 12.468C3.01232 12.2897 3.24465 12.1567 3.49735 12.0784C3.75004 12.0001 4.01689 11.9784 4.27889 12.015C6.78929 12.3104 9.25664 12.8977 11.6309 13.765C11.8697 13.8607 12.1361 13.8607 12.3749 13.765C14.7487 12.8961 17.2162 12.3087 19.7269 12.015C19.9889 11.9789 20.2556 12.0008 20.5082 12.0791C20.7608 12.1573 20.9932 12.2901 21.1889 12.468C21.4475 12.7128 21.6522 13.0088 21.7899 13.3372C21.9277 13.6655 21.9954 14.019 21.9889 14.375C21.9829 19.292 20.2379 22 17.0689 22Z" fill="#021700"/>
<path d="M17.83 15.023C15.309 15.6 12 16.648 12 16.648C14.009 16.861 16.056 18.699 17.114 18.993C18.223 19.301 18.641 18.149 18.981 16.268C19.02 16.1049 19.0183 15.9348 18.9759 15.7726C18.9335 15.6104 18.8518 15.4612 18.738 15.3381C18.6242 15.215 18.4818 15.1218 18.3234 15.0669C18.1651 15.0119 17.9956 14.9968 17.83 15.023Z" fill="#021700"/>
<path d="M5.01887 16.268C5.35887 18.149 5.77688 19.301 6.88588 18.993C7.94388 18.699 9.98588 16.861 11.9999 16.648C11.9999 16.648 8.69088 15.596 6.16988 15.023C6.00429 14.9968 5.83481 15.0119 5.67644 15.0669C5.51806 15.1218 5.37568 15.215 5.26188 15.3381C5.14808 15.4612 5.06637 15.6104 5.02398 15.7726C4.9816 15.9348 4.97984 16.1049 5.01887 16.268Z" fill="#021700"/>
</g>
<defs>
<clipPath id="clip0_195_76614">
<rect width="24" height="24" fill="white"/>
</clipPath>
</defs>
</svg>
