<svg width="24" height="24" viewBox="0 0 24 24" fill="none" xmlns="http://www.w3.org/2000/svg">
<g clip-path="url(#clip0_195_76615)">
<path d="M16 6.99974L15.977 5.82274C16.648 5.59324 17.2158 5.13284 17.5789 4.52364C17.942 3.91444 18.0769 3.19607 17.9595 2.49664C17.8422 1.79721 17.4802 1.16221 16.9381 0.704883C16.3961 0.24756 15.7092 -0.00234535 15 -0.000261733H9C8.29317 -0.00160106 7.60868 0.247258 7.06776 0.702237C6.52683 1.15722 6.16439 1.78895 6.04461 2.48556C5.92484 3.18217 6.05547 3.89868 6.41336 4.50821C6.77126 5.11773 7.33332 5.58092 8 5.81574V6.99974C6.67441 7.00133 5.40356 7.52862 4.46622 8.46596C3.52888 9.4033 3.00159 10.6741 3 11.9997V18.9997C3.00159 20.3253 3.52888 21.5962 4.46622 22.5335C5.40356 23.4709 6.67441 23.9982 8 23.9997H16C17.3256 23.9982 18.5964 23.4709 19.5338 22.5335C20.4711 21.5962 20.9984 20.3253 21 18.9997V11.9997C20.9984 10.6741 20.4711 9.4033 19.5338 8.46596C18.5964 7.52862 17.3256 7.00133 16 6.99974ZM9 1.99974H15C15.2652 1.99974 15.5196 2.1051 15.7071 2.29263C15.8946 2.48017 16 2.73452 16 2.99974C16 3.26496 15.8946 3.51931 15.7071 3.70685C15.5196 3.89438 15.2652 3.99974 15 3.99974H9C8.73478 3.99974 8.48043 3.89438 8.29289 3.70685C8.10536 3.51931 8 3.26496 8 2.99974C8 2.73452 8.10536 2.48017 8.29289 2.29263C8.48043 2.1051 8.73478 1.99974 9 1.99974ZM19 18.9997C19 19.7954 18.6839 20.5585 18.1213 21.1211C17.5587 21.6837 16.7956 21.9997 16 21.9997H8C7.20435 21.9997 6.44129 21.6837 5.87868 21.1211C5.31607 20.5585 5 19.7954 5 18.9997V11.9997C5 11.2041 5.31607 10.441 5.87868 9.87842C6.44129 9.31581 7.20435 8.99974 8 8.99974H9C9.26522 8.99974 9.51957 8.89438 9.70711 8.70685C9.89464 8.51931 10 8.26496 10 7.99974V5.99974H13.973L14 8.01374C14.0037 8.27652 14.1107 8.52729 14.2978 8.71181C14.4849 8.89633 14.7372 8.99977 15 8.99974H16C16.7956 8.99974 17.5587 9.31581 18.1213 9.87842C18.6839 10.441 19 11.2041 19 11.9997V18.9997ZM16 14.9997C16 15.265 15.8946 15.5193 15.7071 15.7068C15.5196 15.8944 15.2652 15.9997 15 15.9997H13V17.9997C13 18.265 12.8946 18.5193 12.7071 18.7068C12.5196 18.8944 12.2652 18.9997 12 18.9997C11.7348 18.9997 11.4804 18.8944 11.2929 18.7068C11.1054 18.5193 11 18.265 11 17.9997V15.9997H9C8.73478 15.9997 8.48043 15.8944 8.29289 15.7068C8.10536 15.5193 8 15.265 8 14.9997C8 14.7345 8.10536 14.4802 8.29289 14.2926C8.48043 14.1051 8.73478 13.9997 9 13.9997H11V11.9997C11 11.7345 11.1054 11.4802 11.2929 11.2926C11.4804 11.1051 11.7348 10.9997 12 10.9997C12.2652 10.9997 12.5196 11.1051 12.7071 11.2926C12.8946 11.4802 13 11.7345 13 11.9997V13.9997H15C15.2652 13.9997 15.5196 14.1051 15.7071 14.2926C15.8946 14.4802 16 14.7345 16 14.9997Z" fill="#021700"/>
</g>
<defs>
<clipPath id="clip0_195_76615">
<rect width="24" height="24" fill="white"/>
</clipPath>
</defs>
</svg>
