<svg width="24" height="24" viewBox="0 0 24 24" fill="none" xmlns="http://www.w3.org/2000/svg">
<g clip-path="url(#clip0_195_76626)">
<path d="M17.9999 18.9997C18.1977 18.9997 18.391 18.941 18.5554 18.8311C18.7198 18.7212 18.8479 18.5651 18.9236 18.3824C18.9993 18.1997 19.0191 17.9986 18.9805 17.8047C18.9419 17.6107 18.8467 17.4326 18.7069 17.2927L12.5349 11.1217C11.5973 10.1844 10.3257 9.65778 8.99992 9.65778C7.6741 9.65778 6.40256 10.1844 5.46492 11.1217L3.29292 13.2927C3.11076 13.4813 3.00997 13.7339 3.01224 13.9961C3.01452 14.2583 3.11969 14.5091 3.3051 14.6945C3.49051 14.8799 3.74132 14.9851 4.00352 14.9874C4.26571 14.9897 4.51832 14.8889 4.70692 14.7067L6.87892 12.5357C7.45014 11.9898 8.20982 11.6852 8.99992 11.6852C9.79002 11.6852 10.5497 11.9898 11.1209 12.5357L17.2929 18.7067C17.4804 18.8943 17.7347 18.9997 17.9999 18.9997Z" fill="#021700"/>
<path d="M16.0001 10.4996C16.6924 10.4996 17.369 10.2944 17.9446 9.90978C18.5202 9.52519 18.9688 8.97857 19.2337 8.33903C19.4986 7.69949 19.5679 6.99575 19.4329 6.31682C19.2978 5.63789 18.9645 5.01425 18.475 4.52476C17.9855 4.03528 17.3619 3.70194 16.6829 3.56689C16.004 3.43184 15.3003 3.50115 14.6607 3.76606C14.0212 4.03096 13.4746 4.47957 13.09 5.05514C12.7054 5.63071 12.5001 6.3074 12.5001 6.99964C12.5001 7.92789 12.8689 8.81813 13.5252 9.47451C14.1816 10.1309 15.0719 10.4996 16.0001 10.4996ZM16.0001 5.49964C16.2968 5.49964 16.5868 5.58761 16.8335 5.75243C17.0802 5.91725 17.2724 6.15152 17.3859 6.42561C17.4995 6.6997 17.5292 7.0013 17.4713 7.29227C17.4134 7.58324 17.2706 7.85052 17.0608 8.0603C16.851 8.27007 16.5837 8.41294 16.2928 8.47081C16.0018 8.52869 15.7002 8.49899 15.4261 8.38546C15.152 8.27192 14.9177 8.07966 14.7529 7.83299C14.5881 7.58632 14.5001 7.29631 14.5001 6.99964C14.5001 6.60181 14.6582 6.22028 14.9395 5.93898C15.2208 5.65767 15.6023 5.49964 16.0001 5.49964Z" fill="#021700"/>
<path d="M22.9999 16.0003C22.7346 16.0003 22.4803 16.1057 22.2928 16.2932C22.1052 16.4807 21.9999 16.7351 21.9999 17.0003V19.0003C21.9999 19.7959 21.6838 20.559 21.1212 21.1216C20.5586 21.6842 19.7955 22.0003 18.9999 22.0003H16.9999C16.7347 22.0003 16.4803 22.1056 16.2928 22.2932C16.1052 22.4807 15.9999 22.7351 15.9999 23.0003C15.9999 23.2655 16.1052 23.5199 16.2928 23.7074C16.4803 23.8949 16.7347 24.0003 16.9999 24.0003H18.9999C20.3255 23.9987 21.5963 23.4714 22.5336 22.5341C23.471 21.5967 23.9983 20.3259 23.9999 19.0003V17.0003C23.9999 16.7351 23.8945 16.4807 23.707 16.2932C23.5194 16.1057 23.2651 16.0003 22.9999 16.0003Z" fill="#021700"/>
<path d="M1 8C1.26522 8 1.51957 7.89464 1.70711 7.70711C1.89464 7.51957 2 7.26522 2 7V5C2 4.20435 2.31607 3.44129 2.87868 2.87868C3.44129 2.31607 4.20435 2 5 2H7C7.26522 2 7.51957 1.89464 7.70711 1.70711C7.89464 1.51957 8 1.26522 8 1C8 0.734784 7.89464 0.48043 7.70711 0.292893C7.51957 0.105357 7.26522 0 7 0L5 0C3.67441 0.00158786 2.40356 0.528882 1.46622 1.46622C0.528882 2.40356 0.00158786 3.67441 0 5L0 7C0 7.26522 0.105357 7.51957 0.292893 7.70711C0.48043 7.89464 0.734784 8 1 8Z" fill="#021700"/>
<path d="M7 22.0003H5C4.20435 22.0003 3.44129 21.6842 2.87868 21.1216C2.31607 20.559 2 19.7959 2 19.0003V17.0003C2 16.7351 1.89464 16.4807 1.70711 16.2932C1.51957 16.1057 1.26522 16.0003 1 16.0003C0.734784 16.0003 0.48043 16.1057 0.292893 16.2932C0.105357 16.4807 0 16.7351 0 17.0003L0 19.0003C0.00158786 20.3259 0.528882 21.5967 1.46622 22.5341C2.40356 23.4714 3.67441 23.9987 5 24.0003H7C7.26522 24.0003 7.51957 23.8949 7.70711 23.7074C7.89464 23.5199 8 23.2655 8 23.0003C8 22.7351 7.89464 22.4807 7.70711 22.2932C7.51957 22.1056 7.26522 22.0003 7 22.0003Z" fill="#021700"/>
<path d="M18.9999 0H16.9999C16.7347 0 16.4803 0.105357 16.2928 0.292893C16.1052 0.48043 15.9999 0.734784 15.9999 1C15.9999 1.26522 16.1052 1.51957 16.2928 1.70711C16.4803 1.89464 16.7347 2 16.9999 2H18.9999C19.7955 2 20.5586 2.31607 21.1212 2.87868C21.6838 3.44129 21.9999 4.20435 21.9999 5V7C21.9999 7.26522 22.1052 7.51957 22.2928 7.70711C22.4803 7.89464 22.7346 8 22.9999 8C23.2651 8 23.5194 7.89464 23.707 7.70711C23.8945 7.51957 23.9999 7.26522 23.9999 7V5C23.9983 3.67441 23.471 2.40356 22.5336 1.46622C21.5963 0.528882 20.3255 0.00158786 18.9999 0V0Z" fill="#021700"/>
</g>
<defs>
<clipPath id="clip0_195_76626">
<rect width="24" height="24" fill="white"/>
</clipPath>
</defs>
</svg>
