<svg width="24" height="24" viewBox="0 0 24 24" fill="none" xmlns="http://www.w3.org/2000/svg">
<g clip-path="url(#clip0_195_76653)">
<path d="M22.563 1.43735C20.189 -0.936649 16.644 -0.357649 12 3.13735C7.35699 -0.357649 3.81299 -0.937649 1.43699 1.43735C-0.939013 3.81235 -0.358012 7.35634 3.13699 12.0003C-0.358012 16.6433 -0.938013 20.1883 1.43699 22.5633C1.88228 23.0251 2.41738 23.3907 3.00934 23.6379C3.60129 23.885 4.23757 24.0084 4.87899 24.0003C6.84999 24.0003 9.22999 22.9483 12 20.8643C14.769 22.9483 17.149 24.0003 19.121 24.0003C19.7624 24.0084 20.3987 23.885 20.9906 23.6379C21.5826 23.3907 22.1177 23.0251 22.563 22.5633C24.938 20.1883 24.363 16.6443 20.863 12.0003C24.358 7.35634 24.938 3.81235 22.563 1.43735ZM19.085 2.02835C19.4671 2.01684 19.8476 2.08355 20.2031 2.22439C20.5585 2.36523 20.8814 2.57722 21.152 2.84735C22.898 4.59434 21.608 7.56034 19.564 10.3863C18.726 9.39834 17.782 8.37134 16.706 7.29434C15.63 6.21734 14.6 5.27334 13.612 4.43434C15.51 3.06135 17.472 2.02835 19.085 2.02835ZM18.311 12.0003C17.3 13.2203 16.229 14.3613 15.295 15.3003C14.361 16.2393 13.22 17.3003 12 18.3113C10.78 17.3003 9.63899 16.2293 8.70499 15.3003C7.77099 14.3713 6.69999 13.2203 5.68899 12.0003C6.69999 10.7803 7.77099 9.63834 8.70499 8.70534C9.63899 7.77234 10.78 6.70034 12 5.68834C13.22 6.69834 14.361 7.77134 15.3 8.70534C16.239 9.63934 17.3 10.7803 18.311 12.0003ZM2.84799 2.84835C3.11826 2.57775 3.44109 2.36538 3.79659 2.22435C4.15209 2.08332 4.53272 2.01662 4.91499 2.02835C6.52799 2.02835 8.48999 3.06135 10.388 4.43434C9.39999 5.27334 8.37199 6.21734 7.29399 7.29434C6.21599 8.37134 5.27399 9.39434 4.43499 10.3863C2.39199 7.56034 1.09999 4.59434 2.84799 2.84835ZM2.84799 21.1483C1.10199 19.4023 2.39199 16.4353 4.43499 13.6103C5.27399 14.5983 6.21799 15.6253 7.29399 16.7023C8.36999 17.7793 9.39399 18.7253 10.383 19.5633C7.55799 21.6093 4.59199 22.9003 2.84799 21.1523V21.1483ZM21.148 21.1483C19.403 22.8923 16.438 21.6053 13.613 19.5633C14.599 18.7253 15.627 17.7763 16.702 16.7023C17.777 15.6283 18.722 14.6023 19.56 13.6103C21.608 16.4403 22.9 19.4063 21.152 21.1523L21.148 21.1483Z" fill="#021700"/>
<path d="M11.9999 14.0003C13.1044 14.0003 13.9999 13.1049 13.9999 12.0003C13.9999 10.8957 13.1044 10.0003 11.9999 10.0003C10.8953 10.0003 9.99988 10.8957 9.99988 12.0003C9.99988 13.1049 10.8953 14.0003 11.9999 14.0003Z" fill="#021700"/>
</g>
<defs>
<clipPath id="clip0_195_76653">
<rect width="24" height="24" fill="white"/>
</clipPath>
</defs>
</svg>
