<svg width="388" height="284" viewBox="0 0 388 284" fill="none" xmlns="http://www.w3.org/2000/svg">
<path d="M0 30C0 13.4314 13.4315 0 30 0H358C374.569 0 388 13.4315 388 30V283.37H0V30Z" fill="#029871"/>
<mask id="mask0_5407_33517" style="mask-type:luminance" maskUnits="userSpaceOnUse" x="92" y="20" width="224" height="257">
<path d="M315.253 20.165H92.9307V276.969H315.253V20.165Z" fill="white"/>
</mask>
<g mask="url(#mask0_5407_33517)">
<path d="M146.145 272.828C146.145 272.828 110.194 263.594 97.8528 210.502C85.5107 157.41 98.299 81.2153 115.023 61.3827C134.877 37.8377 187.943 34.8765 228.78 50.7644C290.488 74.7715 310.61 146.789 278.683 197.575C262.647 223.084 255.073 219.736 249.17 241.434C243.268 263.134 191.219 286.679 146.145 272.829" fill="#39B188"/>
</g>
<mask id="mask1_5407_33517" style="mask-type:luminance" maskUnits="userSpaceOnUse" x="99" y="40" width="195" height="237">
<path d="M175.053 40.8486C149.734 40.8502 126.667 47.5774 115.024 61.3847C109.163 68.3355 103.784 82.2128 99.8018 99.5928V217.899C113.587 264.467 146.147 272.831 146.147 272.831C155.476 275.696 165.104 276.962 174.559 276.972H174.812C210.943 276.926 244.504 258.603 249.172 241.436C255.076 219.738 262.649 223.086 278.686 197.577C310.612 146.791 290.49 74.7719 228.782 50.7649C211.894 44.1957 192.919 40.8486 175.063 40.8486H175.053Z" fill="white"/>
</mask>
<g mask="url(#mask1_5407_33517)">
<path d="M138.212 78.5183C138.766 79.1068 139.313 79.7075 139.849 80.3155C140.352 81.4107 140.69 82.5553 140.865 83.7476C141.024 84.2022 141.166 84.6565 141.391 85.0801C142.221 86.6389 143.693 87.7058 145.303 88.1725C154.009 90.6984 158.252 78.7493 158.636 71.8167C158.871 67.5739 158.684 64.1581 154.895 61.8363C152.549 60.3998 149.697 60.0061 147.129 60.7752C145.671 59.4144 143.568 59.0615 141.769 60.3757C140.702 61.1538 140.377 62.0868 139.872 63.2682C139.788 64.3561 139.433 65.3531 138.807 66.2635C138.466 66.4484 138.138 66.6526 137.818 66.8731C137.291 67.353 136.723 67.7241 136.29 68.3143C133.787 71.7328 135.879 75.7628 138.212 78.5183Z" fill="#231F38"/>
<path d="M305.193 269.912C305.193 269.912 286.894 254.99 282.301 252.166C279.89 250.682 277.491 249.165 275.061 247.716C274.018 247.094 272.777 246.187 271.498 246.606C268.518 247.585 269.136 253.187 269.43 255.457C270.085 260.479 263.968 267.456 264.291 267.54C269.915 268.999 302.255 280.676 302.255 280.676L305.193 269.912Z" fill="#F49E92"/>
<path d="M241.56 249.038C244.216 260.559 251.421 273.519 260.959 280.084C261.296 280.312 261.685 280.583 262.113 280.882C262.678 281.237 263.308 281.636 263.965 281.993C265.334 282.762 266.809 283.374 267.95 283.303C268.486 283.274 268.901 283.131 269.238 282.905C269.99 282.405 270.352 281.48 270.849 280.411C271.492 279.016 272.081 277.607 272.685 276.21C273.706 273.875 274.766 271.568 276.188 269.403C278.092 266.47 283.808 252.968 283.808 252.968C283.808 252.968 280.655 250.489 279.327 249.692C276.08 247.769 272.968 245.549 270.056 243.071C268.902 242.074 267.534 241.034 266.675 239.724C260.759 230.566 257.58 214.773 251.972 206.298C251.878 205.359 251.703 204.404 251.435 203.422C251.248 202.739 250.282 203.024 250.428 203.722C250.469 203.878 250.483 204.035 250.51 204.191C249.128 202.184 247.68 200.218 246.149 198.295C245.989 198.096 245.734 198.38 245.881 198.58C247.612 200.902 249.223 203.35 250.764 205.859C251.637 214.218 246.632 221.224 243.413 228.587C240.542 235.153 239.924 242.002 241.561 249.038" fill="#FDCF8D"/>
<path d="M215.078 263.766C217.601 272.125 219.841 282.551 228.401 286.139C233.055 288.09 238.301 287.92 243.198 288.418C249.638 289.072 255.903 290.369 262.235 291.737C262.343 291.764 262.437 291.75 262.531 291.722C262.839 291.835 263.241 291.664 263.229 291.223C262.933 286.096 261.686 280.97 260.733 275.943C259.753 270.701 258.734 265.475 257.688 260.249C256.722 255.435 255.34 250.791 255.125 245.836C254.911 240.751 255.447 235.695 255.782 230.64C256.171 224.673 256.4 218.662 255.553 212.725C255.5 212.339 255.447 211.969 255.379 211.598C255.326 211.285 255.259 210.972 255.205 210.673C254.186 205.575 252.133 200.804 249.49 196.388C249.275 196.005 249.048 195.634 248.807 195.265C246.163 191.035 242.997 187.119 239.723 183.529C240.125 183.173 240.515 182.788 240.89 182.361C241.037 182.19 240.824 181.977 240.663 182.118C240.259 182.488 239.817 182.816 239.361 183.13C238.999 182.746 238.649 182.361 238.288 181.99C238.113 181.805 237.778 182.062 237.939 182.275C238.234 182.688 238.528 183.087 238.825 183.5C234.049 186.491 227.193 186.96 222.055 187.588C216.031 188.328 209.94 188.542 203.876 188.285C203.5 188.27 203.246 188.626 203.219 188.982C201.394 214.603 207.779 239.61 215.078 263.765" fill="#FDCF8D"/>
<path d="M256.157 252.773C257.337 258.626 258.679 264.451 259.927 270.289C260.034 270.802 260.141 271.301 260.249 271.814C260.879 274.818 261.456 277.866 262.113 280.885C262.756 283.805 263.482 286.696 264.366 289.516C264.487 289.915 265.145 289.872 265.092 289.416C264.797 286.938 264.419 284.461 263.965 281.996C263.885 281.498 263.791 280.999 263.695 280.516C265.226 281.669 267.251 282.409 269.236 282.908C269.988 282.409 270.351 281.483 270.847 280.416C271.491 279.02 272.081 277.61 272.686 276.215C272.027 273.965 271.035 271.799 269.934 269.664C267.239 264.436 265.132 259.765 264.072 253.883C263.038 248.272 260.638 243.487 258.867 238.147C257.016 232.55 256.613 226.952 256.599 221.072C256.599 221.03 256.572 221.015 256.545 221C256.572 219.99 256.599 218.978 256.613 217.981C256.627 217.583 256.075 217.597 256.035 217.981C255.002 229.802 253.809 241.025 256.156 252.773" fill="#E99B56"/>
<path d="M221.85 198.187C222.941 205.695 223.635 213.266 224.735 220.768C225.773 227.836 229.425 233.69 230.962 240.532C232.587 247.775 230.567 254.895 234.084 261.749C235.616 264.733 237.146 267.303 237.655 270.721C238.106 273.737 237.901 276.688 237.469 279.682C237.425 279.984 236.997 279.894 236.985 279.612C236.827 275.569 237.083 271.405 235.692 267.566C234.604 264.563 232.614 262.04 231.568 259.017C229.304 252.467 231.248 245.269 229.11 238.639C227.103 232.411 224.258 227.077 223.392 220.435C222.433 213.083 222.039 205.624 221.614 198.222C221.605 198.081 221.83 198.045 221.851 198.188" fill="#E99B56"/>
<path d="M121.89 273.251C121.85 276.627 122.078 279.974 122.654 283.135C124.305 292.264 129.846 299.142 138.23 301.89C147.126 304.811 156.692 306.021 166.082 306.918C165.626 310.038 165.17 313.157 164.74 316.275C164.271 319.608 163.814 322.94 163.358 326.273C163.305 326.685 163.238 327.085 163.184 327.498C162.165 335.059 161.158 342.623 160.138 350.169C160.085 350.554 160.273 350.925 160.676 350.925C175.728 350.995 239.078 342.749 255.54 340.073C263.67 338.748 272.068 337.836 279.768 334.533C291.039 329.704 293.816 314.979 292.473 303.401C290.824 289.158 279.917 283.02 268.943 277.096C255.526 269.847 241.601 263.709 227.285 258.753C219.934 256.219 212.488 254.111 204.908 252.472C199.635 251.318 194.309 250.067 188.943 249.169C188.809 249.14 188.661 249.126 188.528 249.096C188.473 248.87 188.434 248.642 188.379 248.414C188.366 248.342 188.352 248.257 188.326 248.186C188.245 247.773 188.138 247.36 188.043 246.947C187.507 244.739 186.891 242.56 186.34 240.481C185.145 235.839 183.75 231.297 182.208 226.781C182.369 226.781 182.53 226.753 182.704 226.766C183.523 226.881 183.51 225.528 182.704 225.415C182.356 225.372 182.033 225.372 181.724 225.4C181.671 225.244 181.632 225.1 181.578 224.959C181.39 224.418 180.598 224.631 180.76 225.187C180.786 225.315 180.826 225.428 180.852 225.556C178.949 226.084 177.66 227.693 175.433 227.92C172.36 228.263 168.685 227.194 165.587 226.953C159.065 226.454 152.478 226.384 145.985 227.381C141.692 228.035 136.46 228.704 133.401 232.336C130.194 236.124 128.477 241.822 126.639 246.449C124.6 251.634 124.882 253.313 123.419 260.021C122.615 263.709 122.078 267.656 121.931 271.614C121.903 272.155 121.89 272.711 121.89 273.251Z" fill="#833738"/>
<path d="M121.891 273.25C126.184 273.522 130.571 272.781 133.039 269.121C134.837 266.428 134.891 262.968 134.917 259.807C134.971 255.264 134.676 250.777 134.06 246.291C133.978 245.692 133.025 245.85 133.08 246.433C133.563 252.387 134.823 260.676 132.73 266.372C130.892 271.385 126.439 271.898 121.932 271.613C121.903 272.154 121.891 272.71 121.891 273.251" fill="#552121"/>
<path d="M255.997 301.874C259.225 300.642 262.49 300.184 265.848 300.071C266.578 300.682 266.918 301.652 266.842 303.005C266.65 303.166 266.456 303.325 266.264 303.487C266.414 303.154 264.718 305.467 264.874 305.198C264.298 306.198 264.425 307.624 263.922 308.506C262.723 310.604 259.912 310.12 257.737 310.34C254.046 308.431 249.972 307.746 245.895 307.655C249.182 305.491 252.255 303.284 255.998 301.874M150.574 264.832C151.875 273.831 159.912 277.606 167.358 279.785C171.972 281.138 176.736 281.992 181.512 282.32C186.314 282.648 191.076 282.034 195.866 282.135C201.594 282.249 205.458 284.955 210.529 287.247C214.005 288.815 217.68 289.326 221.41 289.569C231.351 290.21 241.024 290.907 250.67 293.785C254.614 294.952 259.739 296.29 263.482 298.583C258.062 298.84 252.696 301.246 248.135 304.166C246.633 305.12 245.237 306.288 243.695 307.185C241.387 308.495 238.771 308.552 236.207 308.738C231.781 309.037 227.339 309.136 222.913 309.094C204.801 308.923 166.083 306.914 166.083 306.914C165.627 310.033 165.17 313.152 164.741 316.272C168.993 315.959 173.234 315.403 177.486 314.919C181.336 314.491 185.187 314.136 189.064 314.121C192.525 314.121 195.973 314.634 199.447 314.577C202.869 314.506 206.196 313.622 209.564 313.096C213.534 312.499 217.532 312.285 221.531 312.056C226.225 311.8 231.337 311.658 236.047 310.418C238.917 310.234 241.722 310.062 244.298 308.639C244.337 308.667 244.378 308.681 244.431 308.696C248.229 309.08 251.904 310.006 255.594 310.875C254.655 311.202 253.756 311.658 252.952 312.313C250.067 314.634 249.074 318.551 246.551 321.199C242.741 325.202 236.127 326.227 231.043 326.654C226.307 327.066 221.531 326.797 216.796 326.484C206.733 325.8 196.859 325.941 186.783 326.356C178.962 326.683 171.168 326.455 163.359 326.269C163.306 326.683 163.238 327.081 163.185 327.494C172.778 327.865 182.369 327.722 191.962 327.294C197.96 327.025 203.943 326.853 209.939 327.209C215.333 327.509 220.727 328.078 226.119 328.05C233.605 328.022 243.814 327.337 248.685 320.373C250.16 318.238 251.139 315.618 253.017 313.822C254.56 312.356 256.399 311.757 258.331 311.487C258.438 311.515 258.559 311.53 258.666 311.558C258.814 311.587 258.921 311.502 258.988 311.402C259.699 311.315 260.41 311.287 261.135 311.259C263.362 311.174 264.139 311.202 265.039 309.18C265.052 308.012 265.32 306.886 265.87 305.819C266.367 305.05 266.957 304.409 267.669 303.882C268.111 303.311 268.393 303.311 268.594 302.572C268.862 301.688 268.594 301.091 268.138 300.363C268.07 300.25 267.976 300.137 267.896 300.037H268.138C268.702 300.037 268.849 299.096 268.272 298.968C267.507 298.797 266.729 298.697 265.964 298.627C265.414 298.342 264.851 298.099 264.395 297.858C262.584 296.904 260.732 296.035 258.854 295.236C250.349 291.634 241.307 289.655 232.211 288.756C226.697 288.216 220.995 288.586 215.561 287.375C211.08 286.378 207.484 283.545 203.246 281.936C198.402 280.085 193.317 280.782 188.3 280.952C183.215 281.123 178.13 280.726 173.139 279.685C163.4 277.663 151.97 273.69 152.023 261.172C152.05 255.817 153.204 250.548 153.285 245.193C153.351 240.323 152.828 235.522 151.299 230.922C151.205 230.624 150.803 230.737 150.857 231.05C152.171 237.488 152.212 243.911 151.487 250.434C150.963 255.19 149.877 260.033 150.575 264.832" fill="#552121"/>
<path d="M239.222 163.629C239.897 162.915 237.702 162.52 237.839 162.237C238.992 159.863 239.687 158.922 242.909 159.329C245.839 159.7 248.113 160.913 250.139 162.672C252.061 164.343 254.741 174.013 253.632 176.438C252.473 178.976 241.59 185.627 241.59 185.627C241.59 185.627 243.744 181.066 241.853 178.843C238.611 175.028 236.389 171.14 236.167 166.566C236.171 166.667 237.916 165.009 239.222 163.629Z" fill="#F49E92"/>
<path d="M212.466 72.0781C211.065 77.8529 208.267 82.6947 203.093 85.9362C195.464 90.7125 186.492 90.1596 179.305 84.768C176.683 82.7992 174.229 80.4938 171.21 79.2184C167.939 77.8339 164.499 78.33 161.07 78.4659C156.867 78.6298 152.318 77.934 150.267 73.5212C149.882 72.6927 149.597 71.8179 149.361 70.9222C149.301 68.4767 149.088 65.9911 148.884 63.3875C148.182 54.4205 150.505 44.1062 154.584 36.1824C156.598 32.2658 159.204 28.8294 163.374 27.1646C167.146 25.6578 171.651 25.5044 175.617 26.4315C187.567 20.1668 205.318 31.365 210.163 42.4899C211.435 45.4096 212.177 48.5494 212.329 51.7373C212.524 55.8446 210.764 59.597 210.813 63.6251C210.846 66.4923 211.772 69.2687 212.466 72.0781Z" fill="#231F38"/>
<path d="M145.459 97.8936L165.128 107.065C165.128 107.065 166.405 104.735 167.862 102.096C169.432 99.2067 171.225 95.9325 171.765 94.9312C171.877 94.7391 171.934 94.6346 171.946 94.6214L162.473 67.2852C162.473 67.2852 161.431 67.2852 158.417 72.7098C155.404 78.1507 145.459 97.8936 145.459 97.8936Z" fill="#F49E92"/>
<path d="M159.932 97.2585C162.294 100.413 164.878 101.887 167.864 102.095C169.432 99.2048 171.225 95.9307 171.767 94.9294C171.114 92.9384 170.377 90.977 169.642 89.0458C168.405 85.8311 167.226 82.1012 165.405 79.2262C163.071 75.5541 159.433 76.7344 158.169 80.6705C156.447 86.0085 156.53 92.7031 159.933 97.2589" fill="#EB7261"/>
<path d="M119.018 247.532C119.807 251.516 123.559 251.559 126.831 251.137C131.065 250.592 134.983 248.663 139.054 247.435C142.501 246.395 146.06 247.126 149.46 246.136C157.327 243.843 160.551 233.076 168.354 230.033C170.485 229.203 172.974 228.86 175.04 227.861C177.388 228.773 179.749 229.639 182.091 230.472C185.759 231.779 189.36 231.891 191.622 228.024C194.984 222.271 191.232 214.1 189.746 208.295C189.495 207.315 189.242 206.321 189.235 205.304C189.227 204.163 189.53 203.046 189.767 201.93C191.018 196.057 189.471 190.946 189.252 185.153C189.029 179.271 190.152 173.477 191.248 167.745C192.47 161.359 193.249 154.855 191.177 148.567C190.07 145.206 188.469 142.049 187.173 138.773C186.948 138.205 186.742 137.633 186.53 137.062C186.047 134.36 185.359 131.697 184.343 129.105C181.633 122.185 176.478 116.782 171.179 112.007C164.019 105.557 154.612 96.3287 144.476 97.0858C135.4 97.7625 130.6 106.771 127.747 114.881C117.954 142.726 120.194 173.203 121.82 202.23C122.222 209.368 121.935 216.55 120.972 223.627C120.671 225.843 120.258 228.082 119.855 230.335C118.836 236.04 117.888 241.831 119.018 247.531" fill="#F0DBD8"/>
<path d="M144.216 104.558C150.2 109.956 159.936 112.27 167.731 112.747C167.359 113.294 167.02 113.814 166.763 114.291C166.547 114.695 167.066 115.132 167.373 114.79C169.25 112.692 173.679 108.625 173.332 105.291C173.145 103.493 171.748 102.35 170.533 101.272C168.389 99.3737 166.214 97.5109 164.056 95.6313C159.944 92.0486 155.925 88.262 151.676 84.8656C149.531 83.1518 146.914 82.0011 144.766 84.3379C142.524 86.7761 137.221 101.241 136.886 104.542C136.505 108.274 141.535 102.141 144.216 104.558Z" fill="#F0DBD8"/>
<path d="M193.462 41.0458C194.706 42.1515 203.039 63.1632 203.039 63.1632L197.874 74.0361C197.874 74.0361 188.806 89.8511 186.049 92.1623C176.994 99.7522 169.35 97.6957 165.154 90.0192C163.378 86.7703 161.467 83.1328 160.305 79.6246C159.772 78.0149 159.346 76.3536 158.918 74.7097C158.794 74.2388 158.322 73.2134 158.418 72.7157L160.503 61.8723L163.801 46.7593L169.009 36.068L176.505 30.1709L184.115 31.0934L193.463 41.0454L193.462 41.0458Z" fill="#F49E92"/>
<path d="M189.591 72.2639C189.984 71.6082 190.508 71.0417 191.117 70.6112C191.413 70.4027 191.743 70.2206 192.097 70.2027C194.127 70.0983 192.264 73.2621 191.658 73.8806C191.328 74.2188 190.933 74.5111 190.481 74.5899C190.029 74.6688 189.515 74.4886 189.288 74.0654C189.02 73.5677 189.216 72.9356 189.49 72.441C189.522 72.3812 189.556 72.3218 189.591 72.2636" fill="#231F38"/>
<path d="M157.197 66.8869C157.263 67.13 154.51 71.8615 154.51 71.8615L158.417 72.7095C158.417 72.7095 164.17 61.8288 165.977 58.543C166.471 57.6431 166.921 56.7233 167.344 55.7934C173.172 53.6014 177.174 48.3627 179.036 42.4167C180.08 44.8565 181.561 47.0097 183.573 48.6489C188.394 52.5772 193.936 55.133 197.587 60.5623C199.203 62.9648 199.819 65.4593 200.44 68.2671C201.061 71.075 201.076 70.802 201.026 73.6708C201.019 74.0955 201.621 74.1759 201.717 73.769C202.067 72.3205 202.268 70.7244 202.306 69.103C202.38 69.0836 202.448 69.0343 202.488 68.9466C204.282 65.1685 203.246 61.5326 203.412 57.5309C203.606 52.8396 202.283 47.7905 200.629 43.4642C197.756 35.9442 190.451 30.6729 183.509 27.8131C175.31 24.4361 169.123 31.1497 165.105 37.8858C160.255 46.0197 157.839 55.972 157.248 65.5575C156.861 65.8394 156.879 66.5293 157.197 66.8869Z" fill="#231F38"/>
<path d="M185.171 43.3355C191.167 45.6305 196.687 48.8153 200.49 54.4142C203.819 59.3159 206.472 66.5571 205.002 72.6449C204.932 72.9369 204.452 72.9757 204.407 72.6449C203.558 66.4601 203.039 60.9493 199.556 55.6349C195.912 50.0763 190.359 47.0658 185.058 43.6201C184.921 43.5308 185.01 43.2742 185.171 43.3355Z" fill="#474366"/>
<path d="M184.068 39.1256C188.824 38.9544 193.811 42.2164 196.147 46.5575C196.298 46.8405 195.954 47.0983 195.734 46.8941C192.166 43.5916 188.523 41.3277 183.968 39.9122C183.555 39.7841 183.642 39.1407 184.068 39.1256Z" fill="#474366"/>
<path d="M199.673 70.0566C199.657 70.0046 199.639 69.9553 199.621 69.9048C199.053 68.3491 198.34 66.8377 197.245 65.6531C196.469 64.8126 192.639 62.0929 191.736 64.5532C191.557 65.0451 191.669 65.5728 191.924 65.9692C192.181 66.3656 192.562 66.6501 192.951 66.9126C194.648 68.0603 196.596 68.9008 198.004 70.3878C198.23 70.6247 198.454 70.8871 198.772 70.99C199.09 71.0898 199.538 70.9574 199.679 70.6173C199.757 70.4309 199.727 70.2384 199.673 70.0566Z" fill="#231F38"/>
<path d="M178.843 116.362C185.47 123.668 195.823 122.042 203.726 119.028C212.005 115.87 218.802 109.662 220.89 99.8709C222.005 94.6416 221.464 89.6239 221.39 84.3258C221.329 79.9265 221.791 76.6598 218.712 73.8446C219.793 74.3171 220.856 74.7954 221.875 75.2679C222.257 75.4454 222.478 74.7655 222.148 74.545C216.329 70.6466 208.804 67.3395 201.905 68.557C197.339 69.3634 191.882 72.3976 189.636 77.2484C188.84 78.0858 188.109 79.0145 187.456 80.0217C186.197 81.9649 185.239 84.1689 184.674 86.488C184.373 87.7203 184.318 88.9929 183.868 90.1748C183.253 91.7903 182.026 92.6456 181.035 94.0301C177.945 98.3459 179.211 102.93 177.369 107.522C176.026 110.87 176.402 113.67 178.843 116.362Z" fill="#D95F4B"/>
<path d="M215.834 127.282C217.7 128.901 219.462 128.03 221.658 128.004C224.139 127.974 226.699 128.799 228.992 129.577C232.399 130.736 232.888 126.398 236.205 126.549C237.412 126.604 238.37 127.576 239.689 127.415C240.667 127.294 241.548 126.876 242.33 126.195C243.029 125.586 243.522 124.891 243.853 124.154C243.89 124.13 243.928 124.113 243.96 124.078C245.391 122.508 246.053 120.507 245.808 118.252C245.56 115.987 244.456 115.189 243.462 113.441C242.07 110.992 244.108 108.398 243.31 105.624C242.507 102.821 240.272 101.318 238.948 98.9197C237.012 95.4131 237.901 90.7681 236.915 86.8677C236.203 84.0494 234.879 81.4504 233.125 79.2836C229.038 74.2391 223.039 72.0839 217.079 72.8829C216.86 72.9128 216.85 73.2584 217.079 73.272C217.419 73.2929 217.756 73.3419 218.096 73.3733C216.062 74.5105 216.64 79.0914 217.093 82.0421C217.877 87.1344 218.069 92.3653 217.658 97.5127C217.358 101.233 216.556 104.8 215.872 108.411C215.779 108.453 215.702 108.526 215.678 108.666C215.003 112.638 213.79 116.779 213.331 120.751C213.039 123.271 214.037 125.722 215.834 127.281" fill="#D95F4B"/>
<path d="M197.242 124.755C197.242 124.755 199.24 130.23 203.206 133.373C204.083 134.075 205.075 134.67 206.151 135.051C212.059 137.141 222.865 132.825 222.865 132.825L218.194 117.372L217.361 114.701L208.193 119.278L197.242 124.755V124.755Z" fill="#F49E92"/>
<path d="M197.242 124.753C197.242 124.753 199.24 130.228 203.206 133.371C211.196 131.556 216.873 122.708 216.873 122.708L217.155 117.115L208.193 119.276L197.242 124.753Z" fill="#EB7261"/>
<path d="M188.09 120.812C193.108 126.053 204.56 127.474 211.658 123.571C219.721 119.128 229.46 111.696 229.526 104.348C229.66 89.7071 219.102 73.5435 203.888 76.3482C196.926 77.6449 193.21 78.2855 189.212 84.4673C186.811 88.1976 184.1 95.9738 183.308 100.431V100.46C183.093 101.67 182.88 103.023 182.745 104.489V104.504C182.275 109.687 182.87 115.343 188.09 120.812Z" fill="#F49E92"/>
<path d="M215.691 125.553C216.723 126.895 220.398 128.468 221.659 128.005C226.881 126.087 228.82 119.635 228.301 113.643C227.827 108.183 224.773 101.165 220.746 97.4809C220.612 96.5153 220.458 95.5556 220.284 94.6106C220.242 94.378 219.936 94.4572 219.921 94.6626C219.863 95.436 219.822 96.2125 219.786 96.989C219.567 97.0814 219.417 97.3167 219.57 97.6106C219.626 97.7177 219.687 97.8222 219.743 97.9293C219.443 105.379 219.716 112.913 216.81 119.9C216.195 121.379 214.409 123.885 215.691 125.553" fill="#D95F4B"/>
<path d="M185.644 85.881C191.708 81.7632 196.873 81.5399 203.202 82.4935C203.372 85.0777 204.066 87.6677 205.501 89.699C207.119 91.9866 208.553 91.848 210.705 92.9032C212.902 93.9806 213.761 96.7838 215.623 98.3352C217.22 99.6677 218.183 100.928 219.329 102.726C219.621 103.188 219.877 103.69 220.263 104.07C220.39 104.196 221.122 104.587 221.159 104.661C223.131 108.664 226.283 123.08 230.326 123.032C231.038 123.025 231.88 105.062 231.144 104.921C230.972 104.887 230.801 104.854 230.628 104.819C230.44 98.0549 228.585 90.6483 226.075 84.5143C223.837 79.0466 219.858 75.6277 214.731 74.0316C205.12 71.0389 192.585 73.8126 186.784 83.7242C186.234 84.1905 185.709 84.6987 185.223 85.2695C184.953 85.5855 185.302 86.1131 185.644 85.8806" fill="#D95F4B"/>
<path d="M205.067 102.772C205.176 102.668 205.3 102.58 205.425 102.514C206.251 102.087 207.244 102.106 208.068 102.526C208.402 102.696 210.159 104.179 209.516 104.644C209.387 104.736 209.217 104.717 209.066 104.685C208.183 104.504 207.288 103.748 206.366 103.909C206.1 103.955 205.838 104.046 205.569 104.058C204.801 104.092 204.498 103.322 205.068 102.772" fill="#231F38"/>
<path d="M188.412 97.2628C188.52 97.1584 188.645 97.0706 188.77 97.005C190.185 96.2704 192.08 96.8233 192.865 98.2987C192.98 98.5149 193.026 98.7875 192.928 99.0111C192.572 99.8233 190.703 98.2408 190.049 98.2777C189.7 98.2971 189.373 98.4594 189.029 98.5118C188.686 98.5654 188.27 98.4598 188.134 98.1197C188.009 97.8126 188.167 97.4981 188.412 97.2628Z" fill="#231F38"/>
<path d="M188.981 93.0521C189.001 92.9224 189.042 92.7959 189.103 92.6825C189.332 92.2562 189.768 92 190.211 91.8613C190.936 91.6377 191.71 91.6796 192.46 91.7705C193.388 91.8823 195.257 92.3459 194.801 93.784C194.69 94.1357 194.403 94.4203 194.065 94.5158C193.769 94.5993 193.457 94.5442 193.154 94.4948C192.173 94.3337 191.18 94.2402 190.188 94.2118C189.881 94.2029 189.554 94.194 189.305 94.0076C189.027 93.7991 188.926 93.4128 188.982 93.0525" fill="#D95F4B"/>
<path d="M211.575 99.3122C211.615 99.1872 211.634 99.0529 211.627 98.9189C211.598 98.4138 211.288 97.9324 210.915 97.5507C210.303 96.9264 209.52 96.5075 208.738 96.1437C207.77 95.6922 205.711 94.9933 205.493 96.5118C205.44 96.8857 205.59 97.3015 205.88 97.5849C206.132 97.8307 206.467 97.9677 206.789 98.1036C207.832 98.5431 208.854 99.0471 209.846 99.6089C210.152 99.7816 210.479 99.9664 210.814 99.9517C211.183 99.9369 211.463 99.6582 211.574 99.3122" fill="#D95F4B"/>
<path d="M216.558 105.651C215.112 108.312 214.014 114.383 217.969 115.414C219.329 115.77 220.745 115.049 221.831 114.11C223.991 112.246 225.342 108.687 225.142 105.763C225.028 104.094 224.271 102.409 222.918 101.549C220.976 100.316 218.557 102.69 217.217 104.601C216.95 104.979 216.726 105.342 216.558 105.651Z" fill="#F49E92"/>
<path d="M193.196 105.362C193.441 105.09 193.687 104.832 193.891 104.522C193.922 104.479 193.957 104.452 193.991 104.419C194.07 104.33 194.144 104.234 194.223 104.143C194.852 103.423 195.83 104.484 195.231 105.213C194.934 105.575 194.637 105.936 194.34 106.298C194.252 106.405 194.155 106.463 194.057 106.499C193.418 106.928 192.614 106.012 193.196 105.362Z" fill="#EB7261"/>
<path d="M190.386 108.652C190.704 110.122 191.492 111.731 192.8 112.443C194.677 113.466 196.583 112.173 197.937 110.822C198.509 110.254 197.596 109.883 197.196 109.802C195.853 109.53 194.517 109.2 193.198 108.814C192.958 108.746 191.882 108.288 191.128 108.19C190.643 108.128 190.292 108.214 190.386 108.652Z" fill="white"/>
<path d="M158.309 109.318C158.309 109.318 172.589 128.559 176.385 132.496C178.379 134.565 180.352 136.66 182.371 138.699C183.239 139.574 184.231 140.778 185.569 140.705C188.683 140.535 189.384 134.945 189.623 132.668C190.153 127.628 189.137 122.48 188.037 117.6C188.686 117.886 189.336 118.169 189.997 118.416C190.319 118.535 190.519 118.004 190.226 117.838C185.114 114.956 163.163 101.692 163.163 101.692L158.309 109.318Z" fill="#F49E92"/>
<path d="M188.2 116.483L185.127 114.914C185.127 114.914 182.104 124.377 180.723 130.429C179.34 136.483 178.837 142.091 179.006 143.247C179.173 144.405 184.461 147.074 184.461 147.074L188.2 116.483H188.2Z" fill="white"/>
<path d="M181.47 149.856C181.438 150.324 186.785 156.623 189.49 159.368C189.365 165.478 191.28 171.497 194.196 176.836C196.238 180.574 197.833 184.387 199.655 188.225C200.894 190.834 202.575 192.375 205.338 192.815C213.279 194.078 222.704 192.247 230.438 190.317C235.163 189.135 247.2 196.623 250.25 192.322C253.682 187.484 244.878 175.157 242.981 170.604C241.029 165.909 238.354 161.856 236.797 156.923C235.172 151.768 234.05 146.44 232.201 141.363C230.792 137.49 228.658 133.848 226.292 130.454C224.95 128.529 222.621 127.692 220.47 128.411C218.63 129.028 216.303 129.689 214.175 129.952C213.586 130.025 213.003 130.065 212.416 130.124C210.289 128.852 208.14 127.619 206.033 126.357C201.336 123.543 189.088 116.119 188.2 116.484C186.448 117.205 182.084 140.786 181.47 149.856Z" fill="#3B8181"/>
<path d="M140.078 101.852C140.027 102.102 140.06 102.433 140.266 102.608C141.358 103.53 142.126 103.409 143.478 103.469C144.834 103.529 145.949 103.295 147.272 103.913C148.456 104.465 149.312 105.46 150.243 106.374C152.437 108.531 154.758 110.874 157.91 111.13C160.64 111.352 162.794 109.952 164.045 107.415C164.597 106.297 164.911 105.144 164.751 104.108C165.053 104.204 165.282 103.837 165.071 103.566C161.312 98.6955 155.202 95.864 149.315 95.7937C146.988 95.7638 138.876 96.0752 140.172 100.28C140.232 100.473 140.378 100.652 140.56 100.728C140.337 101.048 140.165 101.416 140.078 101.852" fill="#F49E92"/>
<path d="M141.233 100.044C142.47 99.1485 143.875 98.7149 145.366 98.6046C146.716 98.5048 148.597 98.3678 149.762 99.2006C150.06 99.4122 149.993 99.8458 149.668 99.974C148.564 100.409 147.307 100.013 146.15 99.9976C144.588 99.9782 143.133 100.206 141.714 100.919C141.159 101.196 140.721 100.413 141.232 100.044" fill="#EB7261"/>
<path d="M175.013 64.3736C175.448 63.6895 176.016 63.104 176.675 62.6641C176.994 62.4525 177.348 62.2693 177.725 62.2603C179.88 62.2099 177.821 65.5123 177.162 66.1498C176.804 66.4985 176.377 66.7966 175.896 66.8665C175.415 66.9364 174.874 66.7295 174.644 66.2764C174.373 65.7398 174.599 65.0751 174.901 64.558C174.937 64.4955 174.974 64.4345 175.013 64.3736Z" fill="#231F38"/>
<path d="M180.534 79.6537C181.276 79.4258 182.316 79.4541 182.993 79.0829C184.201 78.4198 183.939 77.2632 183.967 76.0876C184.013 74.1234 184.11 72.1771 184.35 70.2277C184.45 69.4066 185.57 69.3483 185.597 70.2277C185.646 71.7955 185.61 73.35 185.521 74.9162C185.457 76.0981 185.516 77.5361 185.138 78.6718C184.48 80.6464 182.27 80.4764 180.632 80.4123C180.226 80.396 180.133 79.7775 180.535 79.6537" fill="#EB7261"/>
<path d="M174.192 55.5195C174.25 55.509 174.308 55.5017 174.364 55.4958C176.142 55.2858 177.963 55.2365 179.698 55.6985C180.929 56.0262 185.676 58.3184 183.904 60.3346C183.551 60.7368 182.993 60.8816 182.477 60.8308C181.96 60.7815 181.473 60.5582 181.005 60.3194C178.954 59.2747 177.047 57.8502 174.848 57.2375C174.494 57.1405 174.122 57.0558 173.843 56.8054C173.566 56.5565 173.431 56.0751 173.667 55.7785C173.795 55.6174 173.992 55.5537 174.192 55.5195Z" fill="#231F38"/>
<path d="M161.532 60.3192C161.653 62.3637 162.085 69.9645 165.661 68.3726C167.354 67.6202 168.188 64.8555 168.793 63.2105C169.61 60.987 170.19 58.6695 169.933 56.2969C170.102 53.498 169.244 50.1346 165.954 50.6712C161.879 51.3343 161.329 56.8886 161.532 60.3192" fill="#F49E92"/>
<path d="M215.238 175.937L216.875 201.102L241.212 185.593L246.458 182.246L249.651 180.21C249.651 180.21 247.787 170.242 245.491 169.058C245.049 168.831 243.694 168.945 241.775 169.273C239.978 169.573 237.697 170.071 235.215 170.655C226.415 172.718 215.239 175.937 215.239 175.937" fill="#F49E92"/>
<path d="M158.879 188.298C160.864 193.34 162.998 198.367 165.922 202.896C172 212.266 181.136 216.852 191.72 217.465C198.241 217.836 204.761 216.852 211.201 215.927C214.501 215.442 217.949 215.214 221.197 214.474C222.551 214.161 223.397 213.833 223.947 212.395C224.886 209.974 224.672 206.384 224.925 203.779C225.275 200.346 225.609 196.929 225.932 193.497C226.603 186.176 227.086 178.842 227.784 171.522C227.81 171.195 227.489 170.895 227.193 170.91C223.288 170.995 219.398 171.366 215.521 171.935C212.248 172.404 207.096 174.342 203.957 172.661C203.487 172.434 203.058 172.092 202.695 171.665C202.656 171.621 202.615 171.564 202.576 171.522C200.79 169.4 199.355 167.363 196.94 165.94C194.471 164.502 191.531 161.187 189.491 159.365C186.943 157.086 185.014 155.985 183.175 152.98C181.539 150.287 179.754 147.696 177.849 145.219C174.455 140.775 170.658 136.802 166.459 133.298C166.768 131.589 167.077 129.881 167.385 128.172C167.56 127.16 166.097 126.719 165.91 127.744C165.628 129.225 165.372 130.706 165.118 132.186C164.809 131.945 164.527 131.688 164.218 131.447C164.018 131.304 163.803 131.617 163.964 131.788C164.312 132.144 164.661 132.501 164.997 132.857C163.924 139.18 162.917 145.545 161.521 151.77C160.019 158.519 154.989 164.102 154.546 171.081C154.171 177.105 156.733 182.887 158.879 188.298" fill="#F0DBD8"/>
<path d="M192.94 188.771C195.918 187.418 196.239 184.398 197.125 181.435C198.132 178.062 200.399 175.768 202.466 173.261C201.836 174.33 201.218 175.412 200.749 176.565C199.689 179.13 199.192 181.906 199.259 184.711C199.313 187.261 199.796 189.611 198.991 192.103C198.427 193.784 197.354 195.122 196.495 196.632C195.314 198.724 194.643 200.677 195.087 203.112C195.194 203.681 196.12 203.553 196.053 202.97C195.582 198.754 198.709 196.248 200.037 192.659C201.085 189.854 200.399 187.02 200.387 184.129C200.36 179.828 201.916 176.381 203.901 172.764C203.915 172.736 203.942 172.692 203.956 172.664C203.485 172.436 203.056 172.093 202.694 171.667C202.655 171.624 202.614 171.567 202.573 171.525C200.735 173.12 199.031 175.056 197.744 177.021C195.558 180.354 195.839 185.652 192.525 188.017C192.069 188.343 192.458 188.999 192.94 188.771Z" fill="#E0B2AA"/>
<path d="M226.241 147.577C226.062 145.969 229.956 142.049 230.728 141.462C231.5 140.874 231.639 140.422 231.639 140.422L230.245 136.924C230.245 136.924 233.304 134.878 235.336 133.839C236.651 133.167 238.583 132.324 240.005 133.148C241.809 134.197 240.88 136.09 239.451 137.467C240.457 137.845 241.333 138.498 242.025 139.489C242.563 140.259 242.722 141.041 243.014 141.901C243.27 142.655 243.126 142.743 243.57 143.455C243.987 144.126 246.052 151.261 243.044 152.772C243.381 153.392 243.518 154.161 243.394 154.948C243.067 157.033 240.979 157.926 239.295 158.644C237.797 159.282 233.94 160.18 232.865 159.234C232.25 158.692 232.046 157.982 232.306 157.221C230.266 157.249 228.309 156.686 229.532 153.818C227.352 152.775 227.468 150.962 228.563 149.136C227.346 149.223 226.394 148.947 226.241 147.577" fill="#F49E92"/>
<path d="M174.855 79.1598C175.027 82.6292 178.66 84.7052 181.593 84.1092C182.203 83.9869 182.417 84.8516 181.848 85.0869C178.169 86.6041 173.799 83.2776 173.597 79.1598C173.555 78.2999 174.812 78.3045 174.855 79.1598Z" fill="#EB7261"/>
<path d="M205.014 107.696C205.113 107.611 205.218 107.535 205.328 107.468C205.922 107.115 206.631 107.03 207.309 107.097C208.86 107.255 212.029 108.935 211.107 111.121C210.75 111.962 209.772 112.278 208.904 112.303C207.928 112.333 206.945 112.117 206.059 111.679C205.11 111.209 204.195 110.309 204.244 109.197C204.271 108.61 204.579 108.069 205.013 107.697" fill="#F08070"/>
<path d="M182.745 104.489V104.504C182.96 104.661 183.187 104.804 183.43 104.917C184.315 105.358 185.294 105.573 186.273 105.543C187.145 105.514 188.125 105.202 188.475 104.361C189.4 102.182 186.234 100.501 184.677 100.345C184.221 100.301 183.752 100.316 183.309 100.459C183.095 101.67 182.88 103.023 182.745 104.489Z" fill="#F08070"/>
<path d="M232.992 138.556C234.694 137.441 236.681 137.243 238.613 137.532C239.032 137.595 238.916 138.294 238.516 138.297C236.753 138.315 235.171 138.878 233.584 139.632C232.908 139.954 232.333 138.987 232.992 138.556" fill="#EB7261"/>
<path d="M229.478 148.167C231.069 146.973 232.823 146.001 234.471 144.891C235.938 143.901 237.394 142.799 238.954 141.964C238.962 141.873 239.034 141.788 239.135 141.815C239.207 141.794 239.278 141.772 239.35 141.749C239.396 141.725 239.441 141.696 239.489 141.673C239.49 141.679 239.493 141.687 239.494 141.692C239.761 141.508 240.14 141.922 239.866 142.193C238.513 143.537 236.874 144.602 235.323 145.67C233.597 146.858 231.85 148.168 229.969 149.059C229.399 149.33 228.959 148.556 229.478 148.167" fill="#EB7261"/>
<path d="M230.957 152.562C232.838 151.232 235.08 150.438 237.036 149.206C239.09 147.91 241.128 146.289 242.667 144.334C242.828 144.128 243.141 144.394 243.012 144.615C240.558 148.873 235.89 152.238 231.32 153.477C230.791 153.62 230.516 152.873 230.957 152.562Z" fill="#EB7261"/>
<path d="M233.719 156.997C234.208 155.823 236.051 155.563 237.064 155.06C238.56 154.317 240.031 153.389 241.322 152.295C241.561 152.094 242.017 152.368 241.793 152.68C240.769 154.096 239.587 155.081 238.11 155.929C237.076 156.523 235.071 157.987 233.897 157.464C233.706 157.377 233.633 157.203 233.719 156.997" fill="#EB7261"/>
<path d="M243.217 168.115C243.714 167.758 244.386 167.707 244.975 167.664C245.588 167.616 246.083 167.787 246.675 167.827C246.992 167.85 247.104 168.377 246.755 168.45C246.228 168.56 245.676 168.861 245.149 169.026C244.629 169.188 244.089 169.429 243.544 169.401C242.887 169.365 242.681 168.499 243.217 168.115" fill="#EB7261"/>
<path d="M213.885 131.176C215.263 131.468 216.822 131.954 218.35 132.632C220.656 132.319 223.481 132.215 225.387 133.428C225.736 133.647 225.564 134.163 225.192 134.194C223.913 134.306 222.561 133.837 221.285 133.707C220.955 133.673 220.621 133.652 220.29 133.623C222.3 134.798 224.065 136.349 225.007 138.294C225.219 138.734 224.788 139.212 224.368 138.971C222.619 137.968 221.229 136.331 219.549 135.19C217.705 133.938 215.702 132.852 213.682 131.961C213.235 131.763 213.391 131.072 213.885 131.177" fill="#1F5353"/>
<path d="M191.217 159.465C193.355 160.721 195.328 162.277 197.389 163.669C199.456 165.067 201.643 166.299 203.589 167.887C203.834 168.085 203.71 168.563 203.363 168.456C198.85 167.053 194.013 163.655 190.848 159.972C190.617 159.703 190.908 159.283 191.217 159.465Z" fill="#1F5353"/>
<path d="M244.418 204.905C245.344 208.096 246.309 211.385 249.677 212.339C251.676 212.909 253.594 212.468 255.379 211.598C255.325 211.285 255.258 210.972 255.204 210.674C253.514 211.413 251.744 211.797 249.959 211.243C246.391 210.103 245.64 205.417 244.78 202.1C244.271 200.106 243.733 198.64 245.814 197.428C246.833 196.83 248.322 196.646 249.489 196.389C249.274 196.005 249.047 195.634 248.805 195.263C247.06 195.577 245.129 195.962 243.854 196.844C241.507 198.468 243.747 202.612 244.418 204.905Z" fill="#E99B56"/>
<path d="M203.278 80.2651C204.253 77.0608 206.441 76.2653 209.285 75.733C211.224 75.3692 212.677 73.8182 214.636 73.3562C216.231 72.9807 217.916 72.9761 219.508 73.322C219.849 73.3965 219.845 73.9731 219.508 74.0523C218.17 74.3609 216.787 74.3609 215.458 74.7034C213.791 75.1328 212.877 76.1682 211.423 76.9121C210.79 77.2371 210.294 77.2907 209.623 77.3978C207.096 77.8047 205.623 78.2442 204.129 80.6467C203.851 81.094 203.106 80.8257 203.277 80.2651" fill="#B13F2E"/>
<path d="M208.698 82.2468C209.864 84.3453 210.786 86.6791 212.555 88.3152C214.199 89.8383 216.368 89.3747 217.934 90.7025C218.861 91.4895 218.913 92.5475 219.33 93.6548C220.203 95.9707 221.753 96.8811 223.456 98.3433C223.687 98.5428 223.499 99.0048 223.207 98.9796C218.726 98.5952 219.025 92.5669 215.466 91.2181C211.408 89.6802 209.337 87.0126 207.971 82.5714C207.827 82.1109 208.472 81.8384 208.698 82.2464" fill="#B13F2E"/>
<path d="M223.276 93.3292C224.058 94.6287 225.013 95.9088 226.017 97.0223C227.091 98.2146 228.433 98.5007 229.681 99.3576C230.101 99.6453 229.973 100.465 229.408 100.425C225.99 100.183 223.718 96.7346 222.682 93.5944C222.556 93.2128 223.085 93.0117 223.276 93.3292Z" fill="#B13F2E"/>
<path d="M227.336 104.156C230.683 105.728 232.415 109.345 232.585 113.134C232.696 115.615 233.29 117.153 234.822 119.162C235.077 119.497 235.465 119.737 235.73 120.081C236.791 121.461 237.166 122.671 236.397 124.242C236.255 124.533 235.897 124.36 235.87 124.09C235.44 119.941 231.378 119.606 231.187 115.588C230.972 111.116 230.479 107.624 226.999 104.62C226.735 104.392 227.073 104.033 227.336 104.156Z" fill="#B13F2E"/>
<path d="M175.459 27.6926C177.516 29.0262 178.65 31.2796 178.361 33.8758C178.23 35.0351 177.851 36.3272 178.55 37.4361C178.885 37.9653 179.697 38.1753 180.075 38.7759C180.607 39.6223 180.658 40.4108 180.338 41.3527C180.15 41.9087 179.427 41.8058 179.382 41.2141C179.199 38.8536 176.529 38.5643 176.54 36.1917C176.546 35.0918 177.079 34.0816 177.072 32.9654C177.06 31.186 176.158 29.5585 174.951 28.3918C174.597 28.0505 175.053 27.4305 175.459 27.6929" fill="#474366"/>
<path d="M197.127 32.4435C204.795 34.5537 211.137 44.6132 209.956 52.9648C209.908 53.3061 209.378 53.2925 209.318 52.9648C208.6 48.9263 207.934 45.1377 205.837 41.5821C203.6 37.7878 200.43 35.2455 196.998 32.7685C196.845 32.6582 196.936 32.3899 197.127 32.4435Z" fill="#474366"/>
<path d="M163.3 62.71C164.106 63.1185 164.523 64.5686 164.328 65.4581C164.178 66.1437 163.635 66.7622 162.973 66.8022C162.068 66.8573 161.381 65.8514 161.304 64.8916C161.241 64.1124 161.505 63.2524 162.132 62.8409C162.576 62.5501 162.971 62.5427 163.301 62.7096" fill="white"/>
<path d="M174.071 29.1789C174.302 29.2193 174.3 29.6289 174.071 29.6724C170.001 30.4326 166.17 31.3461 163.008 34.4145C159.922 37.4071 158.448 41.4771 157.558 45.7121C157.489 46.0387 157.032 45.9536 157.023 45.6345C156.761 36.5289 165.313 27.6333 174.071 29.1789Z" fill="#474366"/>
<path d="M137.361 72.3519C138.56 73.9911 139.305 75.8244 141.459 75.732C142.566 75.6843 143.235 75.1881 144.295 75.1194C145.8 75.0223 147.176 75.9809 148.693 75.2165C150.504 74.3029 150.833 71.8783 151.151 69.9735C151.154 69.9572 151.171 69.9541 151.175 69.9378C149.608 67.4518 148.554 64.7023 148.607 61.5237C148.621 60.7635 149.694 60.765 149.719 61.5237C149.869 66.0945 152.392 69.6307 155.246 72.8202C155.896 73.5474 154.853 74.6547 154.208 73.9216C153.366 72.9619 152.566 71.9649 151.839 70.929C151.499 74.8573 149.886 77.5413 145.542 77.0882C144.416 76.9706 143.81 76.9271 142.643 77.221C141.878 77.4116 141.367 77.5592 140.584 77.3297C138.666 76.7695 137.098 74.7308 136.747 72.7309C136.688 72.3954 137.112 72.0126 137.36 72.3523" fill="#474366"/>
<path d="M139.791 70.8324C140.824 71.0498 141.732 71.567 142.806 71.6536C143.619 71.7192 144.554 71.7265 145.356 71.4734C145.409 71.3049 145.632 71.2276 145.77 71.3616C145.84 71.4183 145.9 71.4823 145.951 71.5569C146.094 71.7417 146.149 72.0472 145.951 72.2247C144.279 73.7284 140.752 73.5405 139.174 71.9579C138.684 71.4676 139.204 70.7089 139.791 70.8328" fill="#474366"/>
<path d="M156.416 49.4305C156.465 48.8881 157.196 48.8718 157.223 49.4305C157.481 54.9281 157.259 60.3753 158.761 65.7044C158.914 66.244 158.135 66.6148 157.89 66.095C155.601 61.2337 155.949 54.6959 156.416 49.4305Z" fill="#474366"/>
<path d="M235.215 170.653C238.247 174.839 240.863 180.237 241.212 185.592L246.457 182.244C246.349 178.642 245.344 175.067 243.574 171.878C243.198 171.194 242.567 170.254 241.788 169.285L241.775 169.271C239.978 169.57 237.697 170.069 235.215 170.653Z" fill="#231F38"/>
<path d="M238.318 177.435C238.318 179.82 240.14 181.755 242.388 181.755C244.636 181.755 246.457 179.821 246.457 177.435C246.457 175.049 244.635 173.114 242.388 173.114C240.142 173.114 238.318 175.049 238.318 177.435Z" fill="white"/>
<path d="M132.715 172.441C135.763 176.626 138.895 180.628 142.642 184.136C145.72 187.016 149.04 189.576 152.347 192.15C147.063 184.003 142.597 175.089 138.56 166.422C138.408 166.097 138.833 165.827 139.022 166.136C145.816 177.332 151.411 189.575 159.554 199.787C167.705 210.007 177.774 216.166 190.359 217.551C190.685 217.588 190.679 218.043 190.359 218.086C178.752 219.646 167.518 211.43 160.112 202.721C157.908 200.129 155.839 197.372 153.882 194.505C145.649 189.104 136.33 182.34 132.287 172.792C132.172 172.52 132.509 172.16 132.715 172.441Z" fill="#E0B2AA"/>
<path d="M165.297 217.702C167.272 218.472 169.022 219.928 170.702 221.247C172.152 222.386 174 223.629 174.871 225.339C174.91 225.417 174.846 225.508 174.764 225.485C172.931 225.01 171.239 223.413 169.712 222.272C168.089 221.058 166.283 219.928 164.924 218.38C164.683 218.106 164.917 217.554 165.296 217.701" fill="#E0B2AA"/>
<path d="M129.762 121.745C133.871 119.815 139.435 120.28 143.802 120.779C148.531 121.319 153.172 122.603 157.534 124.616C165.956 128.503 173.825 135.357 178.144 144.065C178.229 144.233 178.004 144.448 177.882 144.281C172.471 136.888 166.399 130.584 158.331 126.527C153.77 124.236 148.82 122.764 143.802 122.196C139.118 121.667 134.565 122.798 129.96 122.523C129.61 122.5 129.377 121.925 129.762 121.745Z" fill="#E0B2AA"/>
<path d="M179.323 261.928C179.203 262.369 179.766 262.597 179.995 262.241C182.033 258.953 183.603 255.534 186.004 252.486C186.917 251.318 187.91 250.207 188.943 249.169C188.808 249.139 188.66 249.126 188.527 249.097C188.473 248.869 188.433 248.641 188.378 248.413C184.288 252.06 180.719 256.687 179.323 261.928Z" fill="#552121"/>
<path d="M177.137 255.248C180.558 254.279 183.135 252.001 185.871 249.765C186.65 249.124 187.467 248.625 188.326 248.184C188.246 247.771 188.138 247.358 188.044 246.945C187.373 247.23 186.716 247.586 186.085 248.012C184.542 249.081 183.228 250.476 181.698 251.559C180.129 252.656 178.411 253.467 176.908 254.649C176.641 254.863 176.787 255.347 177.137 255.248" fill="#552121"/>
</g>
<mask id="mask2_5407_33517" style="mask-type:luminance" maskUnits="userSpaceOnUse" x="99" y="20" width="217" height="165">
<path d="M315.251 20.165H99.7998V184.247H315.251V20.165Z" fill="white"/>
</mask>
<g mask="url(#mask2_5407_33517)">
<path d="M138.211 78.5153C138.766 79.1039 139.312 79.7045 139.848 80.3125C140.351 81.4078 140.689 82.5523 140.865 83.7447C141.023 84.1993 141.165 84.6536 141.39 85.0771C142.22 86.636 143.692 87.7029 145.302 88.1695C154.008 90.6955 158.251 78.7463 158.635 71.8138C158.87 67.571 158.683 64.1551 154.894 61.8334C152.548 60.3969 149.697 60.0032 147.128 60.7723C145.67 59.4115 143.567 59.0586 141.768 60.3728C140.701 61.1509 140.376 62.0838 139.871 63.2653C139.787 64.3531 139.432 65.3502 138.806 66.2606C138.465 66.4454 138.137 66.6496 137.817 66.8702C137.29 67.35 136.722 67.7212 136.289 68.3113C133.786 71.7299 135.878 75.7599 138.211 78.5153Z" fill="#231F38"/>
<path d="M215.077 263.763C217.6 272.122 219.84 282.548 228.4 286.137C233.054 288.087 238.3 287.917 243.197 288.415C249.637 289.069 255.902 290.366 262.234 291.734C262.342 291.761 262.436 291.747 262.53 291.719C262.838 291.833 263.24 291.661 263.228 291.22C262.932 286.093 261.685 280.967 260.732 275.94C259.752 270.699 258.733 265.472 257.687 260.246C256.721 255.432 255.339 250.788 255.125 245.833C254.91 240.748 255.446 235.692 255.781 230.637C256.17 224.67 256.399 218.659 255.552 212.722C255.499 212.336 255.446 211.966 255.378 211.595C255.325 211.282 255.258 210.969 255.204 210.67C254.185 205.572 252.132 200.801 249.489 196.385C249.274 196.002 249.047 195.631 248.806 195.262C246.162 191.032 242.996 187.116 239.722 183.526C240.124 183.17 240.514 182.785 240.889 182.359C241.036 182.187 240.823 181.974 240.662 182.115C240.258 182.485 239.816 182.813 239.36 183.127C238.998 182.743 238.648 182.358 238.287 181.987C238.112 181.803 237.777 182.059 237.938 182.272C238.233 182.685 238.527 183.084 238.824 183.497C234.048 186.488 227.192 186.957 222.054 187.585C216.03 188.326 209.939 188.539 203.875 188.282C203.499 188.267 203.245 188.623 203.218 188.979C201.393 214.6 207.778 239.607 215.077 263.762" fill="#FDCF8D"/>
<path d="M239.221 163.626C239.896 162.912 237.701 162.517 237.838 162.234C238.991 159.86 239.686 158.919 242.908 159.326C245.838 159.697 248.112 160.91 250.138 162.669C252.06 164.34 254.74 174.01 253.631 176.435C252.472 178.973 241.589 185.624 241.589 185.624C241.589 185.624 243.743 181.064 241.852 178.84C238.61 175.025 236.388 171.137 236.166 166.563C236.17 166.665 237.915 165.006 239.221 163.626Z" fill="#F49E92"/>
<path d="M212.465 72.0751C211.064 77.85 208.266 82.6918 203.092 85.9333C195.463 90.7096 186.491 90.1567 179.304 84.7651C176.682 82.7963 174.228 80.4908 171.209 79.2154C167.938 77.8309 164.498 78.3271 161.069 78.463C156.866 78.6268 152.317 77.9311 150.266 73.5183C149.881 72.6897 149.596 71.815 149.36 70.9193C149.3 68.4737 149.087 65.9882 148.883 63.3845C148.181 54.4175 150.504 44.1033 154.583 36.1795C156.597 32.2628 159.203 28.8264 163.373 27.1616C167.145 25.6548 171.65 25.5015 175.616 26.4286C187.566 20.1638 205.317 31.3621 210.162 42.487C211.434 45.4067 212.176 48.5464 212.328 51.7343C212.523 55.8416 210.763 59.5941 210.812 63.6222C210.845 66.4894 211.771 69.2658 212.465 72.0751Z" fill="#231F38"/>
<path d="M145.458 97.8907L165.127 107.062C165.127 107.062 166.404 104.732 167.861 102.093C169.431 99.2037 171.224 95.9296 171.764 94.9283C171.876 94.7361 171.933 94.6317 171.945 94.6185L162.472 67.2822C162.472 67.2822 161.43 67.2822 158.416 72.7069C155.403 78.1478 145.458 97.8907 145.458 97.8907Z" fill="#F49E92"/>
<path d="M159.931 97.2556C162.293 100.41 164.877 101.884 167.863 102.092C169.432 99.2019 171.224 95.9277 171.766 94.9265C171.113 92.9355 170.376 90.9741 169.641 89.0429C168.404 85.8282 167.225 82.0983 165.404 79.2233C163.07 75.5512 159.432 76.7315 158.168 80.6672C156.446 86.0052 156.529 92.6998 159.932 97.2556" fill="#EB7261"/>
<path d="M119.017 247.529C119.806 251.513 123.558 251.556 126.83 251.134C131.064 250.589 134.982 248.66 139.053 247.432C142.5 246.392 146.059 247.123 149.459 246.133C157.326 243.84 160.55 233.074 168.353 230.03C170.484 229.2 172.973 228.857 175.039 227.859C177.387 228.771 179.748 229.636 182.09 230.47C185.758 231.776 189.359 231.888 191.621 228.021C194.983 222.269 191.231 214.097 189.745 208.292C189.494 207.312 189.241 206.318 189.234 205.301C189.226 204.16 189.529 203.044 189.767 201.927C191.017 196.054 189.47 190.943 189.251 185.15C189.028 179.268 190.151 173.474 191.247 167.742C192.469 161.356 193.248 154.852 191.176 148.564C190.069 145.203 188.468 142.046 187.172 138.77C186.947 138.202 186.741 137.63 186.529 137.059C186.046 134.357 185.358 131.694 184.342 129.102C181.632 122.182 176.477 116.779 171.178 112.004C164.018 105.554 154.612 96.3258 144.475 97.0828C135.399 97.7596 130.599 106.768 127.747 114.878C117.953 142.723 120.194 173.2 121.819 202.227C122.221 209.365 121.934 216.547 120.971 223.624C120.67 225.84 120.257 228.079 119.854 230.332C118.835 236.037 117.887 241.828 119.017 247.528" fill="#F0DBD8"/>
<path d="M144.215 104.555C150.199 109.953 159.935 112.267 167.73 112.744C167.358 113.291 167.019 113.811 166.762 114.288C166.546 114.692 167.066 115.129 167.372 114.787C169.249 112.689 173.678 108.622 173.331 105.288C173.144 103.49 171.747 102.347 170.532 101.269C168.388 99.3708 166.213 97.5079 164.055 95.6284C159.943 92.0456 155.924 88.259 151.675 84.8626C149.53 83.1489 146.913 81.9981 144.765 84.335C142.523 86.7732 137.22 101.238 136.885 104.539C136.504 108.271 141.534 102.138 144.215 104.555Z" fill="#F0DBD8"/>
<path d="M193.461 41.0428C194.705 42.1486 203.038 63.1603 203.038 63.1603L197.873 74.0332C197.873 74.0332 188.805 89.8482 186.048 92.1594C176.993 99.7493 169.349 97.6927 165.153 90.0163C163.377 86.7674 161.466 83.1299 160.304 79.6217C159.771 78.012 159.345 76.3507 158.917 74.7068C158.793 74.2359 158.321 73.2105 158.417 72.7128L160.502 61.8693L163.8 46.7563L169.008 36.0651L176.504 30.168L184.114 31.0904L193.462 41.0425L193.461 41.0428Z" fill="#F49E92"/>
<path d="M189.59 72.2581C189.984 71.6023 190.507 71.0359 191.116 70.6053C191.412 70.3968 191.742 70.2147 192.096 70.1969C194.126 70.0924 192.263 73.2563 191.657 73.8748C191.327 74.2129 190.932 74.5053 190.48 74.5841C190.028 74.6629 189.514 74.4828 189.287 74.0596C189.019 73.5618 189.215 72.9298 189.489 72.4351C189.521 72.3753 189.555 72.3159 189.59 72.2577" fill="#231F38"/>
<path d="M157.196 66.884C157.262 67.127 154.509 71.8586 154.509 71.8586L158.416 72.7066C158.416 72.7066 164.169 61.8259 165.976 58.5401C166.47 57.6401 166.92 56.7204 167.343 55.7905C173.171 53.5985 177.173 48.3598 179.035 42.4138C180.079 44.8535 181.56 47.0068 183.572 48.646C188.393 52.5743 193.935 55.1301 197.586 60.5594C199.202 62.9619 199.818 65.4564 200.439 68.2642C201.06 71.072 201.075 70.7991 201.025 73.6679C201.018 74.0926 201.62 74.173 201.717 73.7661C202.066 72.3175 202.267 70.7214 202.305 69.1001C202.379 69.0807 202.447 69.0314 202.487 68.9436C204.281 65.1656 203.245 61.5296 203.411 57.5279C203.605 52.8367 202.282 47.7875 200.628 43.4613C197.755 35.9413 190.45 30.67 183.508 27.8101C175.309 24.4331 169.122 31.1468 165.104 37.8829C160.254 46.0167 157.838 55.9691 157.247 65.5546C156.861 65.8365 156.878 66.5264 157.196 66.884Z" fill="#231F38"/>
<path d="M185.17 43.3326C191.166 45.6276 196.686 48.8124 200.489 54.4113C203.818 59.313 206.471 66.5542 205.001 72.642C204.931 72.9339 204.451 72.9728 204.406 72.642C203.557 66.4571 203.038 60.9463 199.555 55.632C195.911 50.0734 190.358 47.0629 185.057 43.6172C184.92 43.5279 185.009 43.2713 185.17 43.3326Z" fill="#474366"/>
<path d="M184.067 39.1227C188.823 38.9514 193.81 42.2135 196.146 46.5545C196.297 46.8376 195.953 47.0954 195.733 46.8911C192.165 43.5887 188.522 41.3248 183.967 39.9092C183.554 39.7811 183.641 39.1378 184.067 39.1227Z" fill="#474366"/>
<path d="M199.672 70.0537C199.656 70.0017 199.638 69.9524 199.62 69.9019C199.052 68.3462 198.339 66.8347 197.244 65.6502C196.468 64.8096 192.638 62.0899 191.735 64.5503C191.556 65.0422 191.668 65.5698 191.923 65.9662C192.18 66.3626 192.561 66.6472 192.95 66.9097C194.647 68.0573 196.595 68.8979 198.003 70.3849C198.229 70.6217 198.453 70.8842 198.771 70.9871C199.089 71.0868 199.537 70.9545 199.679 70.6144C199.756 70.428 199.726 70.2354 199.672 70.0537Z" fill="#231F38"/>
<path d="M178.842 116.359C185.469 123.665 195.822 122.039 203.725 119.025C212.004 115.867 218.801 109.659 220.889 99.868C222.004 94.6387 221.463 89.6209 221.389 84.3229C221.328 79.9236 221.79 76.6569 218.711 73.8417C219.792 74.3142 220.855 74.7925 221.874 75.265C222.256 75.4424 222.477 74.7626 222.147 74.5421C216.328 70.6437 208.803 67.3366 201.904 68.5541C197.338 69.3605 191.881 72.3947 189.635 77.2455C188.84 78.0829 188.108 79.0116 187.455 80.0187C186.196 81.9619 185.238 84.166 184.673 86.485C184.372 87.7173 184.317 88.99 183.867 90.1719C183.252 91.7874 182.025 92.6427 181.034 94.0272C177.944 98.343 179.21 102.927 177.368 107.519C176.025 110.868 176.401 113.668 178.842 116.359Z" fill="#D95F4B"/>
<path d="M215.833 127.279C217.699 128.898 219.461 128.027 221.657 128.001C224.138 127.971 226.698 128.797 228.991 129.574C232.398 130.733 232.887 126.396 236.204 126.546C237.411 126.601 238.369 127.573 239.688 127.412C240.666 127.291 241.547 126.874 242.329 126.193C243.028 125.583 243.521 124.888 243.852 124.151C243.889 124.127 243.927 124.11 243.959 124.075C245.39 122.505 246.052 120.504 245.807 118.249C245.559 115.984 244.455 115.186 243.461 113.438C242.069 110.989 244.107 108.395 243.309 105.622C242.506 102.818 240.271 101.315 238.947 98.9168C237.011 95.4101 237.9 90.7651 236.914 86.8648C236.202 84.0465 234.878 81.4475 233.124 79.2807C229.037 74.2362 223.038 72.081 217.078 72.88C216.859 72.9099 216.849 73.2555 217.078 73.269C217.418 73.29 217.755 73.3389 218.095 73.3704C216.061 74.5076 216.639 79.0885 217.092 82.0392C217.876 87.1315 218.068 92.3624 217.657 97.5098C217.357 101.23 216.555 104.797 215.871 108.408C215.778 108.45 215.701 108.523 215.677 108.663C215.002 112.635 213.789 116.776 213.33 120.748C213.038 123.268 214.036 125.719 215.833 127.278" fill="#D95F4B"/>
<path d="M197.241 124.752C197.241 124.752 199.239 130.227 203.205 133.37C204.082 134.072 205.074 134.667 206.15 135.048C212.058 137.138 222.864 132.822 222.864 132.822L218.193 117.369L217.36 114.698L208.192 119.275L197.241 124.752V124.752Z" fill="#F49E92"/>
<path d="M197.241 124.75C197.241 124.75 199.239 130.225 203.205 133.368C211.195 131.553 216.872 122.705 216.872 122.705L217.154 117.112L208.192 119.273L197.241 124.75Z" fill="#EB7261"/>
<path d="M188.088 120.809C193.106 126.051 204.558 127.471 211.656 123.568C219.719 119.125 229.458 111.693 229.524 104.345C229.658 89.7041 219.1 73.5405 203.886 76.3452C196.924 77.642 193.208 78.2826 189.21 84.4643C186.809 88.1946 184.098 95.9709 183.306 100.428V100.457C183.091 101.667 182.878 103.02 182.743 104.486V104.501C182.273 109.684 182.868 115.34 188.088 120.809Z" fill="#F49E92"/>
<path d="M215.69 125.55C216.722 126.892 220.397 128.465 221.658 128.002C226.88 126.084 228.819 119.632 228.3 113.64C227.826 108.18 224.772 101.162 220.745 97.478C220.611 96.5124 220.457 95.5526 220.283 94.6076C220.241 94.3751 219.935 94.4543 219.92 94.6597C219.862 95.4331 219.821 96.2096 219.785 96.9861C219.566 97.0785 219.416 97.3138 219.569 97.6077C219.625 97.7148 219.686 97.8193 219.742 97.9264C219.442 105.376 219.715 112.91 216.809 119.897C216.194 121.376 214.408 123.882 215.69 125.55" fill="#D95F4B"/>
<path d="M185.643 85.878C191.707 81.7603 196.872 81.537 203.201 82.4906C203.371 85.0747 204.065 87.6648 205.5 89.6961C207.118 91.9836 208.552 91.845 210.704 92.9003C212.901 93.9777 213.76 96.7809 215.622 98.3323C217.219 99.6648 218.182 100.925 219.328 102.723C219.62 103.185 219.876 103.687 220.262 104.067C220.389 104.193 221.121 104.584 221.158 104.658C223.13 108.661 226.282 123.077 230.325 123.029C231.037 123.022 231.879 105.06 231.143 104.918C230.971 104.884 230.8 104.851 230.627 104.816C230.439 98.052 228.584 90.6453 226.074 84.5114C223.836 79.0437 219.857 75.6247 214.73 74.0286C205.119 71.036 192.584 73.8097 186.783 83.7213C186.233 84.1876 185.708 84.6958 185.222 85.2665C184.952 85.5826 185.301 86.1102 185.643 85.8776" fill="#D95F4B"/>
<path d="M205.066 102.769C205.175 102.665 205.299 102.577 205.425 102.511C206.25 102.084 207.243 102.103 208.067 102.523C208.401 102.694 210.158 104.176 209.515 104.641C209.386 104.733 209.216 104.714 209.065 104.683C208.182 104.501 207.287 103.745 206.365 103.906C206.099 103.952 205.837 104.043 205.568 104.055C204.8 104.089 204.497 103.319 205.067 102.769" fill="#231F38"/>
<path d="M188.411 97.2599C188.519 97.1554 188.644 97.0677 188.769 97.0021C190.184 96.2675 192.079 96.8204 192.864 98.2957C192.979 98.512 193.025 98.7845 192.927 99.0082C192.571 99.8204 190.702 98.2379 190.048 98.2748C189.699 98.2942 189.372 98.4565 189.028 98.5089C188.685 98.5625 188.269 98.4569 188.133 98.1168C188.008 97.8096 188.166 97.4952 188.411 97.2599Z" fill="#231F38"/>
<path d="M188.98 93.0492C189 92.9195 189.041 92.7929 189.102 92.6796C189.331 92.2533 189.767 91.997 190.21 91.8584C190.935 91.6348 191.709 91.6767 192.459 91.7676C193.387 91.8794 195.256 92.343 194.8 93.781C194.689 94.1328 194.402 94.4174 194.064 94.5129C193.768 94.5964 193.456 94.5412 193.153 94.4919C192.172 94.3308 191.179 94.2372 190.187 94.2089C189.88 94.2 189.553 94.191 189.304 94.0047C189.026 93.7962 188.925 93.4099 188.981 93.0496" fill="#D95F4B"/>
<path d="M211.574 99.3093C211.614 99.1843 211.633 99.05 211.626 98.916C211.597 98.4109 211.287 97.9295 210.914 97.5478C210.302 96.9235 209.519 96.5046 208.737 96.1408C207.769 95.6893 205.71 94.9904 205.492 96.5089C205.439 96.8828 205.589 97.2986 205.879 97.582C206.131 97.8277 206.466 97.9648 206.788 98.1007C207.831 98.5402 208.853 99.0441 209.845 99.6059C210.151 99.7787 210.478 99.9635 210.813 99.9488C211.182 99.934 211.462 99.6552 211.573 99.3093" fill="#D95F4B"/>
<path d="M216.557 105.648C215.111 108.309 214.013 114.38 217.968 115.411C219.328 115.767 220.744 115.046 221.83 114.107C223.99 112.243 225.341 108.684 225.141 105.76C225.027 104.091 224.27 102.406 222.917 101.546C220.975 100.314 218.556 102.687 217.216 104.598C216.949 104.976 216.725 105.339 216.557 105.648Z" fill="#F49E92"/>
<path d="M193.195 105.359C193.44 105.087 193.686 104.829 193.89 104.519C193.921 104.476 193.956 104.449 193.99 104.416C194.069 104.327 194.143 104.231 194.222 104.14C194.851 103.42 195.829 104.482 195.23 105.21C194.933 105.572 194.636 105.933 194.34 106.295C194.251 106.402 194.154 106.46 194.056 106.496C193.417 106.925 192.613 106.009 193.195 105.359Z" fill="#EB7261"/>
<path d="M190.385 108.649C190.703 110.119 191.491 111.728 192.799 112.44C194.676 113.463 196.582 112.171 197.936 110.819C198.508 110.251 197.595 109.88 197.195 109.799C195.852 109.527 194.516 109.197 193.197 108.811C192.957 108.743 191.881 108.285 191.127 108.187C190.642 108.125 190.291 108.211 190.385 108.649Z" fill="white"/>
<path d="M158.308 109.315C158.308 109.315 172.588 128.556 176.384 132.494C178.378 134.562 180.351 136.658 182.37 138.696C183.238 139.571 184.23 140.775 185.568 140.702C188.682 140.532 189.383 134.942 189.622 132.665C190.152 127.625 189.136 122.478 188.036 117.597C188.685 117.883 189.335 118.166 189.996 118.413C190.318 118.532 190.518 118.001 190.225 117.835C185.113 114.953 163.162 101.689 163.162 101.689L158.308 109.315Z" fill="#F49E92"/>
<path d="M188.199 116.48L185.126 114.911C185.126 114.911 182.103 124.374 180.722 130.426C179.339 136.48 178.836 142.088 179.005 143.244C179.172 144.402 184.46 147.071 184.46 147.071L188.199 116.48H188.199Z" fill="white"/>
<path d="M181.469 149.853C181.437 150.321 186.784 156.62 189.489 159.365C189.364 165.476 191.279 171.495 194.195 176.833C196.237 180.571 197.832 184.384 199.654 188.222C200.893 190.831 202.574 192.372 205.337 192.812C213.278 194.076 222.703 192.244 230.437 190.314C235.162 189.132 247.199 196.62 250.249 192.319C253.681 187.481 244.877 175.154 242.981 170.601C241.028 165.906 238.353 161.853 236.797 156.92C235.171 151.765 234.049 146.437 232.2 141.36C230.791 137.487 228.657 133.845 226.291 130.451C224.949 128.526 222.62 127.69 220.469 128.408C218.629 129.025 216.302 129.686 214.174 129.949C213.585 130.022 213.002 130.062 212.415 130.122C210.288 128.849 208.139 127.617 206.032 126.354C201.335 123.54 189.087 116.116 188.199 116.481C186.447 117.202 182.083 140.783 181.469 149.853Z" fill="#3B8181"/>
<path d="M140.077 101.849C140.026 102.099 140.059 102.43 140.265 102.605C141.357 103.527 142.125 103.406 143.477 103.466C144.833 103.526 145.948 103.292 147.271 103.91C148.455 104.462 149.311 105.457 150.242 106.371C152.437 108.528 154.757 110.871 157.909 111.127C160.639 111.35 162.793 109.949 164.044 107.412C164.596 106.295 164.91 105.141 164.75 104.105C165.052 104.201 165.281 103.834 165.07 103.563C161.311 98.6926 155.201 95.8611 149.314 95.7908C146.987 95.7609 138.875 96.0723 140.171 100.277C140.231 100.47 140.377 100.649 140.559 100.725C140.336 101.045 140.164 101.413 140.077 101.849" fill="#F49E92"/>
<path d="M141.232 100.041C142.469 99.1456 143.874 98.7119 145.365 98.6017C146.715 98.5019 148.596 98.3648 149.762 99.1976C150.059 99.4092 149.992 99.8429 149.668 99.971C148.563 100.406 147.306 100.01 146.149 99.9947C144.587 99.9753 143.132 100.203 141.713 100.916C141.158 101.193 140.72 100.411 141.231 100.041" fill="#EB7261"/>
<path d="M175.012 64.3707C175.447 63.6866 176.015 63.1011 176.674 62.6612C176.993 62.4496 177.347 62.2663 177.724 62.2574C179.879 62.2069 177.82 65.5094 177.161 66.1469C176.803 66.4955 176.376 66.7937 175.895 66.8636C175.414 66.9335 174.873 66.7266 174.643 66.2735C174.372 65.7369 174.598 65.0722 174.9 64.5551C174.936 64.4926 174.973 64.4316 175.012 64.3707Z" fill="#231F38"/>
<path d="M180.533 79.6507C181.275 79.4228 182.315 79.4512 182.992 79.08C184.2 78.4169 183.938 77.2603 183.966 76.0846C184.012 74.1205 184.109 72.1742 184.349 70.2248C184.449 69.4037 185.569 69.3454 185.596 70.2248C185.645 71.7926 185.609 73.3471 185.52 74.9133C185.456 76.0951 185.515 77.5332 185.137 78.6688C184.479 80.6435 182.269 80.4734 180.631 80.4094C180.225 80.3931 180.132 79.7746 180.534 79.6507" fill="#EB7261"/>
<path d="M174.191 55.5166C174.249 55.5061 174.307 55.4987 174.363 55.4929C176.141 55.2829 177.962 55.2336 179.697 55.6956C180.928 56.0233 185.675 58.3155 183.903 60.3317C183.55 60.7339 182.992 60.8787 182.476 60.8278C181.959 60.7785 181.472 60.5553 181.004 60.3165C178.953 59.2717 177.046 57.8473 174.847 57.2346C174.493 57.1375 174.121 57.0529 173.842 56.8025C173.565 56.5536 173.43 56.0722 173.666 55.7756C173.794 55.6144 173.991 55.5508 174.191 55.5166Z" fill="#231F38"/>
<path d="M161.531 60.3162C161.652 62.3608 162.084 69.9615 165.66 68.3697C167.353 67.6173 168.187 64.8526 168.792 63.2075C169.609 60.984 170.189 58.6666 169.932 56.294C170.101 53.4951 169.243 50.1317 165.954 50.6682C161.878 51.3314 161.328 56.8857 161.531 60.3162" fill="#F49E92"/>
<path d="M215.237 175.935L216.874 201.099L241.211 185.59L246.457 182.243L249.65 180.207C249.65 180.207 247.786 170.239 245.49 169.056C245.048 168.828 243.693 168.942 241.774 169.27C239.977 169.57 237.696 170.068 235.214 170.652C226.414 172.716 215.238 175.935 215.238 175.935" fill="#F49E92"/>
<path d="M158.878 188.295C160.863 193.337 162.997 198.364 165.921 202.893C171.999 212.264 181.135 216.849 191.719 217.462C198.24 217.833 204.76 216.849 211.2 215.924C214.5 215.439 217.948 215.212 221.196 214.471C222.55 214.158 223.396 213.83 223.946 212.392C224.885 209.971 224.671 206.381 224.924 203.776C225.274 200.343 225.608 196.926 225.931 193.494C226.602 186.173 227.085 178.84 227.783 171.519C227.809 171.192 227.488 170.892 227.192 170.907C223.287 170.992 219.397 171.363 215.52 171.932C212.247 172.402 207.095 174.339 203.956 172.658C203.486 172.431 203.057 172.089 202.694 171.662C202.655 171.618 202.614 171.561 202.575 171.519C200.789 169.397 199.354 167.36 196.939 165.937C194.47 164.499 191.53 161.184 189.49 159.362C186.942 157.083 185.013 155.982 183.174 152.977C181.538 150.285 179.753 147.693 177.848 145.216C174.454 140.772 170.657 136.799 166.458 133.295C166.767 131.586 167.076 129.878 167.384 128.169C167.559 127.157 166.096 126.716 165.909 127.741C165.627 129.222 165.371 130.704 165.117 132.183C164.809 131.942 164.526 131.685 164.217 131.444C164.017 131.301 163.802 131.614 163.963 131.785C164.311 132.141 164.66 132.498 164.997 132.854C163.923 139.177 162.916 145.542 161.52 151.767C160.018 158.516 154.988 164.099 154.545 171.078C154.17 177.102 156.732 182.884 158.878 188.295" fill="#F0DBD8"/>
<path d="M192.939 188.768C195.917 187.415 196.238 184.395 197.124 181.433C198.131 178.059 200.398 175.765 202.465 173.258C201.835 174.327 201.217 175.409 200.748 176.562C199.688 179.127 199.191 181.903 199.258 184.708C199.312 187.258 199.795 189.608 198.99 192.1C198.426 193.781 197.353 195.12 196.494 196.629C195.313 198.721 194.642 200.674 195.086 203.109C195.193 203.678 196.119 203.55 196.052 202.967C195.582 198.751 198.708 196.245 200.036 192.656C201.084 189.851 200.398 187.017 200.386 184.126C200.359 179.825 201.915 176.378 203.9 172.761C203.914 172.733 203.941 172.69 203.955 172.661C203.485 172.433 203.055 172.09 202.693 171.664C202.654 171.621 202.613 171.564 202.572 171.522C200.734 173.117 199.03 175.053 197.743 177.019C195.557 180.351 195.838 185.649 192.524 188.014C192.068 188.34 192.457 188.996 192.939 188.768Z" fill="#E0B2AA"/>
<path d="M226.24 147.574C226.061 145.966 229.955 142.046 230.727 141.459C231.499 140.871 231.638 140.419 231.638 140.419L230.244 136.921C230.244 136.921 233.303 134.875 235.335 133.836C236.65 133.164 238.582 132.321 240.004 133.145C241.808 134.194 240.879 136.087 239.45 137.464C240.456 137.842 241.332 138.495 242.024 139.486C242.562 140.257 242.721 141.038 243.013 141.898C243.269 142.652 243.125 142.74 243.569 143.452C243.986 144.123 246.051 151.258 243.043 152.769C243.38 153.389 243.517 154.158 243.393 154.945C243.066 157.03 240.978 157.923 239.294 158.641C237.796 159.279 233.939 160.177 232.864 159.231C232.249 158.689 232.045 157.979 232.305 157.218C230.265 157.246 228.308 156.683 229.531 153.815C227.351 152.772 227.467 150.959 228.562 149.133C227.345 149.22 226.393 148.944 226.24 147.574" fill="#F49E92"/>
<path d="M174.854 79.1569C175.026 82.6263 178.659 84.7023 181.592 84.1063C182.202 83.984 182.416 84.8486 181.847 85.0839C178.168 86.6012 173.798 83.2747 173.596 79.1569C173.554 78.2969 174.811 78.3016 174.854 79.1569Z" fill="#EB7261"/>
<path d="M205.013 107.693C205.112 107.608 205.217 107.532 205.327 107.466C205.921 107.112 206.63 107.027 207.308 107.094C208.86 107.252 212.028 108.932 211.106 111.118C210.749 111.959 209.771 112.275 208.903 112.3C207.927 112.33 206.944 112.114 206.058 111.676C205.109 111.206 204.194 110.306 204.243 109.194C204.27 108.607 204.578 108.066 205.012 107.694" fill="#F08070"/>
<path d="M182.744 104.487V104.501C182.959 104.658 183.186 104.801 183.429 104.914C184.314 105.355 185.293 105.57 186.272 105.54C187.144 105.512 188.124 105.199 188.474 104.358C189.399 102.179 186.233 100.498 184.676 100.342C184.22 100.299 183.751 100.313 183.308 100.457C183.094 101.667 182.879 103.02 182.744 104.486" fill="#F08070"/>
<path d="M232.991 138.553C234.693 137.439 236.68 137.24 238.612 137.529C239.031 137.592 238.915 138.291 238.515 138.294C236.752 138.312 235.17 138.875 233.583 139.629C232.907 139.951 232.332 138.984 232.991 138.553" fill="#EB7261"/>
<path d="M229.477 148.164C231.068 146.97 232.822 145.998 234.47 144.888C235.937 143.898 237.393 142.796 238.953 141.961C238.961 141.87 239.033 141.785 239.134 141.812C239.206 141.791 239.277 141.769 239.349 141.746C239.395 141.723 239.44 141.693 239.488 141.67C239.489 141.676 239.492 141.684 239.493 141.69C239.76 141.505 240.139 141.919 239.865 142.19C238.512 143.534 236.873 144.599 235.322 145.667C233.596 146.855 231.849 148.165 229.968 149.056C229.398 149.328 228.958 148.553 229.477 148.164" fill="#EB7261"/>
<path d="M230.956 152.559C232.837 151.229 235.079 150.435 237.035 149.203C239.089 147.907 241.127 146.286 242.666 144.331C242.827 144.125 243.14 144.391 243.011 144.612C240.557 148.87 235.889 152.235 231.319 153.474C230.79 153.617 230.515 152.87 230.956 152.559Z" fill="#EB7261"/>
<path d="M233.718 156.994C234.207 155.82 236.05 155.56 237.063 155.057C238.559 154.314 240.03 153.386 241.321 152.292C241.56 152.091 242.016 152.365 241.792 152.677C240.768 154.093 239.586 155.078 238.109 155.926C237.075 156.52 235.07 157.984 233.896 157.461C233.706 157.374 233.632 157.2 233.718 156.994" fill="#EB7261"/>
<path d="M243.216 168.112C243.713 167.755 244.385 167.704 244.974 167.661C245.587 167.613 246.083 167.785 246.674 167.825C246.991 167.847 247.103 168.374 246.754 168.447C246.227 168.558 245.675 168.858 245.148 169.023C244.628 169.185 244.088 169.426 243.543 169.398C242.886 169.362 242.68 168.497 243.216 168.112" fill="#EB7261"/>
<path d="M213.884 131.173C215.262 131.465 216.821 131.951 218.349 132.629C220.655 132.316 223.48 132.212 225.386 133.425C225.735 133.644 225.563 134.16 225.191 134.191C223.912 134.303 222.56 133.834 221.284 133.704C220.954 133.67 220.62 133.649 220.289 133.621C222.299 134.795 224.064 136.346 225.006 138.291C225.218 138.731 224.787 139.209 224.367 138.968C222.618 137.965 221.228 136.329 219.548 135.187C217.704 133.935 215.701 132.849 213.681 131.958C213.234 131.76 213.39 131.069 213.884 131.174" fill="#1F5353"/>
<path d="M191.216 159.462C193.354 160.719 195.327 162.274 197.388 163.666C199.456 165.064 201.642 166.297 203.588 167.884C203.833 168.082 203.709 168.56 203.362 168.453C198.849 167.05 194.013 163.653 190.847 159.969C190.616 159.701 190.907 159.28 191.216 159.462Z" fill="#1F5353"/>
<path d="M203.277 80.2621C204.252 77.0579 206.44 76.2624 209.284 75.7301C211.223 75.3663 212.676 73.8152 214.636 73.3532C216.231 72.9778 217.915 72.9731 219.507 73.3191C219.848 73.3936 219.844 73.9701 219.507 74.0494C218.169 74.358 216.786 74.358 215.457 74.7004C213.79 75.1299 212.876 76.1653 211.422 76.9092C210.789 77.2342 210.293 77.2877 209.622 77.3949C207.095 77.8018 205.622 78.2413 204.128 80.6438C203.85 81.091 203.105 80.8228 203.276 80.2621" fill="#B13F2E"/>
<path d="M208.697 82.2439C209.863 84.3424 210.785 86.6761 212.554 88.3122C214.198 89.8353 216.367 89.3718 217.933 90.6996C218.86 91.4866 218.912 92.5445 219.329 93.6518C220.202 95.9677 221.752 96.8782 223.455 98.3403C223.686 98.5399 223.498 99.0019 223.206 98.9767C218.725 98.5923 219.024 92.5639 215.465 91.2152C211.407 89.6773 209.336 87.0096 207.97 82.5685C207.826 82.108 208.471 81.8354 208.697 82.2435" fill="#B13F2E"/>
<path d="M223.275 93.3263C224.057 94.6258 225.012 95.9058 226.016 97.0193C227.09 98.2117 228.432 98.4978 229.68 99.3547C230.1 99.6424 229.972 100.462 229.407 100.422C225.989 100.18 223.717 96.7317 222.681 93.5915C222.555 93.2098 223.084 93.0087 223.275 93.3263Z" fill="#B13F2E"/>
<path d="M227.335 104.153C230.682 105.726 232.414 109.342 232.584 113.131C232.695 115.612 233.289 117.15 234.821 119.159C235.076 119.494 235.464 119.734 235.729 120.078C236.79 121.458 237.165 122.668 236.396 124.239C236.254 124.53 235.896 124.357 235.869 124.087C235.439 119.938 231.377 119.603 231.186 115.585C230.971 111.113 230.478 107.621 226.998 104.617C226.734 104.389 227.072 104.03 227.335 104.153Z" fill="#B13F2E"/>
<path d="M175.458 27.6896C177.515 29.0233 178.649 31.2767 178.36 33.8729C178.229 35.0322 177.85 36.3243 178.549 37.4331C178.884 37.9623 179.696 38.1724 180.074 38.773C180.606 39.6194 180.657 40.4079 180.337 41.3498C180.149 41.9058 179.426 41.8029 179.381 41.2112C179.198 38.8506 176.528 38.5614 176.539 36.1888C176.545 35.0889 177.078 34.0787 177.071 32.9624C177.059 31.1831 176.157 29.5556 174.95 28.3889C174.596 28.0476 175.053 27.4276 175.458 27.69" fill="#474366"/>
<path d="M197.126 32.4406C204.794 34.5507 211.136 44.6103 209.955 52.9619C209.907 53.3032 209.377 53.2896 209.317 52.9619C208.599 48.9233 207.933 45.1348 205.836 41.5792C203.599 37.7848 200.429 35.2426 196.997 32.7656C196.844 32.6553 196.935 32.387 197.126 32.4406Z" fill="#474366"/>
<path d="M163.298 62.7071C164.104 63.1155 164.521 64.5656 164.326 65.4551C164.176 66.1408 163.633 66.7593 162.971 66.7992C162.066 66.8544 161.379 65.8484 161.302 64.8887C161.239 64.1095 161.503 63.2495 162.131 62.8379C162.574 62.5471 162.969 62.5398 163.299 62.7067" fill="white"/>
<path d="M174.07 29.176C174.301 29.2164 174.299 29.626 174.07 29.6695C170 30.4297 166.169 31.3432 163.007 34.4115C159.921 37.4042 158.447 41.4742 157.557 45.7092C157.488 46.0357 157.031 45.9507 157.022 45.6316C156.76 36.5259 165.312 27.6304 174.07 29.176Z" fill="#474366"/>
<path d="M137.36 72.349C138.559 73.9882 139.304 75.8215 141.458 75.7291C142.566 75.6814 143.234 75.1852 144.294 75.1165C145.799 75.0194 147.175 75.978 148.692 75.2135C150.503 74.3 150.832 71.8754 151.15 69.9706C151.153 69.9543 151.17 69.9512 151.174 69.9349C149.607 67.4489 148.553 64.6993 148.606 61.5207C148.62 60.7605 149.693 60.7621 149.718 61.5207C149.868 66.0916 152.391 69.6278 155.245 72.8172C155.895 73.5444 154.852 74.6517 154.208 73.9187C153.365 72.959 152.565 71.9619 151.838 70.9261C151.498 74.8544 149.885 77.5384 145.541 77.0853C144.415 76.9676 143.809 76.9241 142.642 77.2181C141.877 77.4087 141.366 77.5562 140.583 77.3268C138.665 76.7665 137.097 74.7278 136.746 72.728C136.687 72.3925 137.111 72.0097 137.359 72.3494" fill="#474366"/>
<path d="M139.79 70.8295C140.823 71.0469 141.731 71.564 142.805 71.6506C143.618 71.7162 144.553 71.7236 145.355 71.4705C145.408 71.302 145.631 71.2247 145.769 71.3587C145.839 71.4154 145.899 71.4794 145.95 71.554C146.093 71.7388 146.148 72.0443 145.95 72.2217C144.278 73.7254 140.751 73.5375 139.173 71.955C138.683 71.4647 139.203 70.706 139.79 70.8299" fill="#474366"/>
<path d="M156.415 49.4276C156.464 48.8852 157.195 48.8689 157.222 49.4276C157.48 54.9252 157.258 60.3723 158.761 65.7014C158.913 66.2411 158.134 66.6119 157.889 66.092C155.6 61.2308 155.948 54.693 156.415 49.4276Z" fill="#474366"/>
<path d="M235.214 170.65C238.246 174.836 240.862 180.234 241.211 185.589L246.456 182.242C246.348 178.639 245.343 175.064 243.573 171.875C243.197 171.191 242.566 170.251 241.787 169.282L241.774 169.269C239.977 169.567 237.696 170.066 235.214 170.65Z" fill="#231F38"/>
<path d="M238.317 177.432C238.317 179.818 240.14 181.752 242.387 181.752C244.635 181.752 246.456 179.818 246.456 177.432C246.456 175.046 244.634 173.111 242.387 173.111C240.141 173.111 238.317 175.046 238.317 177.432Z" fill="white"/>
<path d="M132.714 172.436C135.762 176.62 138.894 180.622 142.641 184.13C145.719 187.01 149.039 189.571 152.346 192.144C147.062 183.997 142.596 175.083 138.559 166.416C138.407 166.091 138.832 165.821 139.021 166.13C145.815 177.326 151.41 189.569 159.553 199.781C167.704 210.001 177.773 216.161 190.358 217.545C190.684 217.582 190.678 218.037 190.358 218.08C178.751 219.64 167.517 211.424 160.111 202.715C157.907 200.123 155.838 197.366 153.881 194.499C145.648 189.098 136.329 182.334 132.286 172.786C132.171 172.514 132.508 172.154 132.714 172.436Z" fill="#E0B2AA"/>
<path d="M129.761 121.742C133.87 119.812 139.434 120.277 143.801 120.776C148.53 121.316 153.171 122.6 157.533 124.614C165.955 128.5 173.824 135.354 178.143 144.062C178.228 144.23 178.003 144.445 177.881 144.278C172.47 136.885 166.398 130.581 158.33 126.524C153.769 124.233 148.819 122.761 143.801 122.193C139.117 121.664 134.564 122.795 129.959 122.52C129.61 122.497 129.377 121.922 129.761 121.742Z" fill="#E0B2AA"/>
</g>
</svg>
