<svg width="24" height="24" viewBox="0 0 24 24" fill="none" xmlns="http://www.w3.org/2000/svg">
<g clip-path="url(#clip0_195_76687)">
<path d="M23.0002 2.99968H13.0002C12.735 2.99968 12.4806 3.10503 12.2931 3.29257C12.1055 3.48011 12.0002 3.73446 12.0002 3.99968V7.26967L9.60019 3.10968C9.42506 2.80425 9.1724 2.55047 8.86775 2.37398C8.5631 2.19749 8.21727 2.10455 7.86519 2.10455C7.51311 2.10455 7.16728 2.19749 6.86263 2.37398C6.55799 2.55047 6.30533 2.80425 6.13019 3.10968L0.13019 13.4997C0.0424221 13.6517 -0.00378418 13.8241 -0.00378418 13.9997C-0.00378418 14.1752 0.0424221 14.3476 0.13019 14.4997C0.218295 14.6523 0.345159 14.7789 0.497937 14.8667C0.650714 14.9545 0.82398 15.0004 1.00019 14.9997H5.29019C5.09603 15.6485 4.99832 16.3224 5.00019 16.9997C5.00019 18.8562 5.73769 20.6366 7.05044 21.9494C8.3632 23.2622 10.1437 23.9997 12.0002 23.9997C13.8567 23.9997 15.6372 23.2622 16.9499 21.9494C18.2627 20.6366 19.0002 18.8562 19.0002 16.9997C19.0021 16.3224 18.9044 15.6485 18.7102 14.9997H23.0002C23.2654 14.9997 23.5198 14.8943 23.7073 14.7068C23.8948 14.5192 24.0002 14.2649 24.0002 13.9997V3.99968C24.0002 3.73446 23.8948 3.48011 23.7073 3.29257C23.5198 3.10503 23.2654 2.99968 23.0002 2.99968ZM2.73019 12.9997L7.86019 4.10968L11.2902 9.99967C10.2901 10.111 9.3258 10.4366 8.46295 10.9543C7.60011 11.472 6.85901 12.1696 6.29019 12.9997H2.73019ZM12.0002 21.9997C11.0113 21.9997 10.0446 21.7064 9.22234 21.157C8.40009 20.6076 7.75923 19.8267 7.38079 18.9131C7.00236 17.9994 6.90334 16.9941 7.09626 16.0242C7.28919 15.0543 7.7654 14.1634 8.46466 13.4641C9.16392 12.7649 10.0548 12.2887 11.0247 12.0957C11.9946 11.9028 13 12.0018 13.9136 12.3803C14.8272 12.7587 15.6081 13.3996 16.1575 14.2218C16.7069 15.0441 17.0002 16.0108 17.0002 16.9997C17.0002 18.3257 16.4734 19.5975 15.5357 20.5352C14.598 21.4729 13.3263 21.9997 12.0002 21.9997ZM22.0002 12.9997H17.7402C16.8321 11.7031 15.5151 10.7488 14.0002 10.2897V4.99968H22.0002V12.9997Z" fill="#021700"/>
</g>
<defs>
<clipPath id="clip0_195_76687">
<rect width="24" height="24" fill="white"/>
</clipPath>
</defs>
</svg>
