<svg width="24" height="24" viewBox="0 0 24 24" fill="none" xmlns="http://www.w3.org/2000/svg">
<g clip-path="url(#clip0_195_76688)">
<path d="M10.42 20.656C9.61638 20.6553 8.834 20.3977 8.18703 19.921L1.54603 15.051C1.06732 14.6995 0.678082 14.2402 0.409795 13.7103C0.141507 13.1805 0.00170898 12.5949 0.00170898 12.001C0.00170898 11.4071 0.141507 10.8215 0.409795 10.2917C0.678082 9.76179 1.06732 9.30252 1.54603 8.951L8.18703 4.081C8.73171 3.68075 9.37367 3.43374 10.0462 3.36567C10.7186 3.2976 11.3971 3.41095 12.0109 3.69392C12.6248 3.9769 13.1516 4.41918 13.5365 4.97475C13.9215 5.53031 14.1506 6.17888 14.2 6.853L17.982 4.079C18.5459 3.66655 19.2129 3.41825 19.9093 3.36161C20.6056 3.30498 21.304 3.44221 21.9271 3.75812C22.5502 4.07403 23.0737 4.55627 23.4396 5.15141C23.8055 5.74656 23.9994 6.43138 24 7.13V16.87C23.9999 17.5691 23.806 18.2545 23.44 18.8502C23.0739 19.4458 22.5501 19.9284 21.9264 20.2444C21.3028 20.5604 20.6038 20.6975 19.907 20.6404C19.2103 20.5833 18.5429 20.3343 17.979 19.921L14.2 17.147C14.1291 18.1005 13.7005 18.9919 13.0001 19.6426C12.2996 20.2934 11.3791 20.6553 10.423 20.656H10.42ZM13.207 14.181C13.42 14.181 13.6274 14.2489 13.799 14.375L19.162 18.308C19.4278 18.5026 19.7424 18.6199 20.0707 18.6467C20.3991 18.6735 20.7285 18.6089 21.0224 18.46C21.3163 18.3111 21.5632 18.0837 21.7357 17.8031C21.9083 17.5224 21.9998 17.1995 22 16.87V7.13C21.9996 6.80052 21.9079 6.4776 21.7352 6.19701C21.5625 5.91641 21.3155 5.68909 21.0216 5.54021C20.7277 5.39133 20.3983 5.32671 20.0699 5.3535C19.7415 5.38029 19.4269 5.49745 19.161 5.692L13.8 9.625C13.651 9.73444 13.4746 9.80044 13.2904 9.81566C13.1061 9.83089 12.9213 9.79474 12.7563 9.71123C12.5914 9.62773 12.4528 9.50014 12.356 9.34263C12.2593 9.18512 12.208 9.00387 12.208 8.819V7.13C12.2079 6.80037 12.1165 6.47722 11.9439 6.1964C11.7712 5.91558 11.5242 5.68808 11.2301 5.53913C10.9361 5.39019 10.6065 5.32562 10.278 5.35261C9.94947 5.37959 9.63484 5.49707 9.36903 5.692L2.72903 10.562C2.50314 10.7276 2.31943 10.9441 2.1928 11.1939C2.06617 11.4438 2.00019 11.7199 2.00019 12C2.00019 12.2801 2.06617 12.5562 2.1928 12.8061C2.31943 13.0559 2.50314 13.2724 2.72903 13.438L9.36903 18.308C9.63485 18.5026 9.94937 18.6199 10.2777 18.6467C10.6061 18.6735 10.9355 18.6089 11.2294 18.46C11.5233 18.3111 11.7702 18.0837 11.9427 17.8031C12.1153 17.5224 12.2068 17.1995 12.207 16.87V15.181C12.207 14.9158 12.3124 14.6614 12.4999 14.4739C12.6875 14.2864 12.9418 14.181 13.207 14.181Z" fill="#021700"/>
</g>
<defs>
<clipPath id="clip0_195_76688">
<rect width="24" height="24" fill="white"/>
</clipPath>
</defs>
</svg>
