<svg width="24" height="24" viewBox="0 0 24 24" fill="none" xmlns="http://www.w3.org/2000/svg">
<g clip-path="url(#clip0_195_76695)">
<path d="M22.0999 1.90052C18.6639 -1.53048 9.37187 -0.0664764 4.65187 4.65252C-0.0681291 9.37152 -1.53113 18.6645 1.89987 22.1005C3.50646 23.4499 5.57368 24.1238 7.66687 23.9805C12.0009 23.9422 16.1653 22.2908 19.3479 19.3485C24.0659 14.6295 25.5309 5.33652 22.0999 1.90052ZM16.3329 2.00052C17.8969 1.87517 19.4507 2.34441 20.6839 3.31452C21.6999 4.33152 22.1109 6.30052 21.9589 8.54552L15.4589 2.04552C15.7539 2.02652 16.0499 2.00052 16.3329 2.00052ZM3.31587 20.6845C2.29987 19.6695 1.88887 17.7005 2.04087 15.4555L8.54087 21.9555C6.29987 22.1105 4.33087 21.7005 3.31587 20.6845ZM17.9339 17.9345C15.998 19.7585 13.6031 21.0225 11.0049 21.5915L2.40487 12.9915C2.97517 10.3941 4.24059 8.00048 6.06587 6.06652C8.00489 4.24311 10.4042 2.98261 13.0059 2.42052L21.5919 11.0065C21.0229 13.6047 19.7585 15.9994 17.9339 17.9345ZM17.7069 11.7075C17.5193 11.895 17.265 12.0003 16.9999 12.0003C16.7347 12.0003 16.4804 11.895 16.2929 11.7075L14.9999 10.4145L13.4139 12.0005L14.7069 13.2935C14.8024 13.3858 14.8786 13.4961 14.931 13.6181C14.9834 13.7401 15.011 13.8713 15.0121 14.0041C15.0133 14.1369 14.988 14.2686 14.9377 14.3915C14.8874 14.5144 14.8132 14.626 14.7193 14.7199C14.6254 14.8138 14.5137 14.8881 14.3908 14.9383C14.2679 14.9886 14.1362 15.0139 14.0035 15.0128C13.8707 15.0116 13.7395 14.984 13.6175 14.9316C13.4955 14.8792 13.3851 14.803 13.2929 14.7075L11.9999 13.4145L10.4139 15.0005L11.7069 16.2935C11.8024 16.3858 11.8786 16.4961 11.931 16.6181C11.9834 16.7401 12.011 16.8713 12.0121 17.0041C12.0133 17.1369 11.988 17.2686 11.9377 17.3915C11.8874 17.5144 11.8132 17.626 11.7193 17.7199C11.6254 17.8138 11.5137 17.8881 11.3908 17.9383C11.2679 17.9886 11.1362 18.0139 11.0035 18.0128C10.8707 18.0116 10.7395 17.984 10.6175 17.9316C10.4955 17.8792 10.3851 17.803 10.2929 17.7075L6.29287 13.7075C6.11071 13.5189 6.00992 13.2663 6.0122 13.0041C6.01447 12.7419 6.11964 12.4911 6.30505 12.3057C6.49046 12.1203 6.74127 12.0151 7.00347 12.0129C7.26567 12.0106 7.51827 12.1114 7.70687 12.2935L8.99987 13.5865L10.5859 12.0005L9.29287 10.7075C9.11071 10.5189 9.00992 10.2663 9.0122 10.0041C9.01447 9.74193 9.11964 9.49111 9.30505 9.30571C9.49046 9.1203 9.74127 9.01513 10.0035 9.01285C10.2657 9.01057 10.5183 9.11137 10.7069 9.29352L11.9999 10.5865L13.5859 9.00052L12.2929 7.70752C12.1107 7.51892 12.0099 7.26632 12.0122 7.00412C12.0145 6.74193 12.1196 6.49111 12.3051 6.30571C12.4905 6.1203 12.7413 6.01513 13.0035 6.01285C13.2657 6.01057 13.5183 6.11137 13.7069 6.29352L17.7069 10.2935C17.8943 10.4811 17.9997 10.7354 17.9997 11.0005C17.9997 11.2657 17.8943 11.52 17.7069 11.7075Z" fill="#021700"/>
</g>
<defs>
<clipPath id="clip0_195_76695">
<rect width="24" height="24" fill="white"/>
</clipPath>
</defs>
</svg>
