<svg width="17" height="17" viewBox="0 0 17 17" fill="none" xmlns="http://www.w3.org/2000/svg">
<path d="M5.87301 12.1103C6.53687 12.5719 7.31256 12.8352 8.11774 12.8728C8.73483 12.9013 9.33973 12.7976 9.91616 12.5648C10.4509 12.3482 10.9267 12.0341 11.3323 11.6305C11.7237 11.2401 12.0318 10.7836 12.2483 10.2733C12.4649 9.76293 12.5797 9.2231 12.5879 8.67107C12.597 8.0987 12.4923 7.53752 12.2758 7.00379C11.9637 6.23115 11.4381 5.57237 10.7569 5.09862C10.0931 4.63707 9.31737 4.37376 8.51219 4.33615C7.8951 4.30768 7.2902 4.41138 6.71377 4.64418C6.17902 4.86073 5.70323 5.17487 5.2976 5.57847C4.90619 5.96886 4.59815 6.42533 4.38161 6.93669C4.16507 7.44704 4.05019 7.98687 4.04206 8.53891C4.03291 9.11127 4.13762 9.67245 4.35416 10.2062C4.66627 10.9788 5.19187 11.6376 5.87301 12.1114V12.1103ZM6.95166 5.23078C7.44269 5.03254 7.95813 4.94409 8.48271 4.96849C9.89888 5.03457 11.1575 5.92616 11.6892 7.24067C12.4415 9.1011 11.5397 11.2259 9.67929 11.9782C9.18825 12.1764 8.67282 12.2649 8.14824 12.2405C6.73207 12.1744 5.47347 11.2828 4.94178 9.96829C4.18947 8.10785 5.09122 5.98309 6.95166 5.23078Z" fill="#0A1932" stroke="#0A1932" stroke-width="0.6"/>
<path d="M6.35798 16.5741C6.52268 16.5822 6.68534 16.51 6.79005 16.3748L7.64911 15.2657C8.05474 15.3063 8.46343 15.3104 8.86907 15.2768L9.70881 16.3992C9.8491 16.5863 10.0972 16.6554 10.3137 16.569C10.3137 16.569 10.3137 16.569 10.3147 16.569L12.412 15.7211C12.6286 15.6337 12.7597 15.41 12.7302 15.1782L12.5533 13.7875C12.8685 13.5303 13.1776 13.2415 13.4398 12.9305L14.8143 13.1277C15.0461 13.1612 15.2708 13.0341 15.3623 12.8186L16.2437 10.7345C16.3352 10.519 16.2691 10.2689 16.0841 10.1256L14.975 9.26854C15.0156 8.86392 15.0177 8.45421 14.9841 8.04756L16.1065 7.2068C16.2935 7.06651 16.3627 6.81743 16.2752 6.60089L15.8198 5.47751L15.4294 4.50866C15.404 4.44665 15.3684 4.39276 15.3247 4.346C15.2139 4.22705 15.0502 4.16504 14.8825 4.18639L14.0325 4.29517V4.29923L13.4958 4.36735C13.2386 4.05219 12.9508 3.76042 12.6398 3.49711L12.84 2.10941C12.8736 1.87761 12.7465 1.65192 12.531 1.56144L10.4479 0.677987C10.2324 0.58649 9.98228 0.651554 9.83893 0.836581L8.97988 1.94573C8.57424 1.90506 8.16454 1.901 7.7589 1.93455L6.91916 0.812182C6.77887 0.625121 6.52979 0.554974 6.31325 0.643421L4.21594 1.49129C4.21594 1.49129 4.21594 1.49129 4.21492 1.49129C3.99838 1.57974 3.86825 1.80238 3.89773 2.03417L4.07462 3.42493C3.75947 3.68214 3.46769 3.96984 3.20439 4.28093L1.81668 4.08066C1.58591 4.04711 1.36021 4.17419 1.26872 4.38971L0.385262 6.4728C0.293765 6.68832 0.358829 6.93841 0.543857 7.08176L1.653 7.94081C1.61234 8.34645 1.60827 8.75615 1.64182 9.16179L0.519457 10.0015C0.332397 10.1418 0.262249 10.3909 0.350696 10.6074L1.19857 12.7048C1.286 12.9213 1.50966 13.0524 1.74145 13.023L3.1322 12.8461C3.38941 13.1612 3.67712 13.453 3.98821 13.7163L3.78793 15.104C3.75438 15.3358 3.88146 15.5605 4.09699 15.652L6.18007 16.5354C6.237 16.5598 6.29698 16.573 6.35697 16.5761L6.35798 16.5741ZM4.52703 13.3351C4.15189 13.0352 3.81437 12.6915 3.52158 12.3134C3.45244 12.2249 3.34265 12.1781 3.23082 12.1924L1.75365 12.3805L0.973893 10.4519L2.1664 9.56031C2.25587 9.49321 2.30365 9.38342 2.29145 9.27159C2.23858 8.79682 2.24265 8.31392 2.30466 7.83813C2.3189 7.7263 2.27315 7.61549 2.1847 7.54738L1.00642 6.63546L1.81871 4.72012L3.29283 4.9326C3.40365 4.94886 3.51548 4.90413 3.58562 4.8167C3.88553 4.44156 4.22915 4.10404 4.60734 3.81125C4.69579 3.74212 4.74255 3.63232 4.72832 3.52049L4.54024 2.04332L6.4688 1.26357L7.36038 2.45608C7.42748 2.54656 7.53728 2.59332 7.64911 2.58112C8.12387 2.52826 8.60677 2.53233 9.08256 2.59434C9.19439 2.60857 9.30418 2.56282 9.37332 2.47438L10.2852 1.2961L12.2006 2.10839L11.9871 3.58251C11.9708 3.69332 12.0155 3.80515 12.103 3.8753C12.4781 4.1752 12.8156 4.51883 13.1084 4.89701C13.1776 4.98546 13.2874 5.03223 13.3992 5.01799L14.8743 4.83093L15.1935 5.61781L15.6083 6.64766C15.6144 6.66392 15.6215 6.67917 15.6297 6.69442L15.6541 6.75542L14.4616 7.64802C14.3721 7.71512 14.3243 7.82492 14.3365 7.93675C14.3904 8.41355 14.3863 8.89543 14.3264 9.3702C14.3121 9.48203 14.3579 9.59182 14.4473 9.66096L15.6256 10.5719L14.8143 12.4882L13.513 12.3012C13.5039 12.2991 13.4958 12.2981 13.4866 12.2971L13.3402 12.2757C13.263 12.2646 13.1857 12.2829 13.1216 12.3245C13.0922 12.3428 13.0657 12.3662 13.0434 12.3947C12.7435 12.7698 12.3998 13.1073 12.0216 13.4001C11.9332 13.4693 11.8864 13.5791 11.9007 13.6909L12.0887 15.1681L10.1602 15.9478L9.2686 14.7553C9.2015 14.6658 9.09171 14.6181 8.97988 14.6303C8.5041 14.6831 8.02221 14.6791 7.54643 14.617C7.4346 14.6028 7.32378 14.6486 7.25567 14.737L6.34375 15.9153L4.42841 15.103L4.64089 13.6289C4.65715 13.5181 4.61242 13.4062 4.52499 13.3361L4.52703 13.3351Z" fill="#0A1932" stroke="#0A1932" stroke-width="0.6"/>
</svg>
