<svg width="24" height="24" viewBox="0 0 24 24" fill="none" xmlns="http://www.w3.org/2000/svg">
<g clip-path="url(#clip0_195_76760)">
<path d="M20.4849 3.5159C18.807 1.83963 16.6699 0.698428 14.3436 0.236545C12.0173 -0.225338 9.60626 0.0128371 7.4153 0.920964C5.22434 1.82909 3.35179 3.3664 2.03437 5.33856C0.716947 7.31072 0.0137939 9.62919 0.0137939 12.0009C0.0137939 14.3726 0.716947 16.6911 2.03437 18.6632C3.35179 20.6354 5.22434 22.1727 7.4153 23.0808C9.60626 23.989 12.0173 24.2271 14.3436 23.7653C16.6699 23.3034 18.807 22.1622 20.4849 20.4859C22.732 18.2338 23.9939 15.1823 23.9939 12.0009C23.9939 8.8195 22.732 5.768 20.4849 3.5159ZM21.9339 10.9329C20.7347 11.0784 19.5181 10.9491 18.3763 10.555C17.2344 10.1609 16.1972 9.51215 15.3431 8.65794C14.489 7.80373 13.8404 6.76643 13.4464 5.62453C13.0524 4.48263 12.9233 3.26606 13.0689 2.0669C15.3386 2.30553 17.4575 3.31633 19.0712 4.93021C20.6849 6.54408 21.6955 8.66315 21.9339 10.9329ZM2.06587 13.0689C3.26504 12.9234 4.4816 13.0527 5.62345 13.4468C6.76531 13.8409 7.80254 14.4897 8.65665 15.3439C9.51076 16.1981 10.1594 17.2354 10.5534 18.3773C10.9474 19.5192 11.0765 20.7357 10.9309 21.9349C8.66114 21.6963 6.54219 20.6855 4.9285 19.0716C3.31481 17.4577 2.30424 15.3387 2.06587 13.0689ZM19.0709 19.0689C17.428 20.7154 15.26 21.7341 12.9439 21.9479C13.0874 20.4812 12.904 19.0009 12.4068 17.6135C11.9097 16.2262 11.1112 14.9663 10.0689 13.9245C9.0265 12.8827 7.76616 12.0849 6.37854 11.5885C4.99091 11.0922 3.51051 10.9096 2.04387 11.0539C2.26138 8.73819 3.28096 6.5712 4.92645 4.92736C6.57193 3.28352 8.73994 2.2661 11.0559 2.0509C10.9214 3.43746 11.0785 4.83681 11.5171 6.15902C11.9557 7.48123 12.6661 8.69704 13.6026 9.72831C14.5392 10.7596 15.6811 11.5835 16.9551 12.1471C18.229 12.7107 19.6068 13.0015 20.9999 13.0009C21.3169 13.0009 21.6349 12.9849 21.9529 12.9549C21.7357 15.2678 20.7161 17.4318 19.0709 19.0719V19.0689Z" fill="#021700"/>
</g>
<defs>
<clipPath id="clip0_195_76760">
<rect width="24" height="24" fill="white"/>
</clipPath>
</defs>
</svg>
