<svg width="24" height="24" viewBox="0 0 24 24" fill="none" xmlns="http://www.w3.org/2000/svg">
<g clip-path="url(#clip0_195_76764)">
<path d="M11.1072 14.4471C11.1652 14.5656 11.2462 14.6715 11.3454 14.7586C11.4445 14.8456 11.56 14.9122 11.685 14.9545C11.81 14.9967 11.9422 15.0138 12.0739 15.0047C12.2055 14.9957 12.3341 14.9606 12.4522 14.9016C12.5702 14.8426 12.6754 14.7608 12.7617 14.661C12.848 14.5611 12.9137 14.4452 12.955 14.3198C12.9963 14.1945 13.0123 14.0622 13.0022 13.9306C12.9921 13.799 12.9561 13.6707 12.8962 13.5531L7.39615 2.55312C7.31311 2.38697 7.18544 2.24724 7.02745 2.14958C6.86946 2.05191 6.68739 2.00018 6.50165 2.00018C6.31591 2.00018 6.13384 2.05191 5.97585 2.14958C5.81786 2.24724 5.69019 2.38697 5.60715 2.55312L0.107153 13.5531C0.0472389 13.6707 0.0111949 13.799 0.00109911 13.9306C-0.00899664 14.0622 0.00705565 14.1945 0.0483304 14.3198C0.0896052 14.4452 0.155286 14.5611 0.241586 14.661C0.327886 14.7608 0.433098 14.8426 0.551155 14.9016C0.669213 14.9606 0.797781 14.9957 0.929447 15.0047C1.06111 15.0138 1.19327 14.9967 1.3183 14.9545C1.44334 14.9122 1.55877 14.8456 1.65794 14.7586C1.75712 14.6715 1.83808 14.5656 1.89615 14.4471L3.61915 11.0001H9.38315L11.1072 14.4471ZM4.61915 9.00012L6.50015 5.23612L8.38315 9.00012H4.61915Z" fill="#021700"/>
<path d="M23.7068 11.2924C23.5193 11.1049 23.265 10.9996 22.9998 10.9996C22.7347 10.9996 22.4804 11.1049 22.2928 11.2924L12.9998 20.5853L8.70684 16.2924C8.61459 16.1968 8.50425 16.1207 8.38224 16.0683C8.26024 16.0158 8.12902 15.9883 7.99624 15.9871C7.86346 15.9859 7.73178 16.0112 7.60888 16.0615C7.48599 16.1118 7.37433 16.1861 7.28044 16.28C7.18655 16.3739 7.1123 16.4855 7.06202 16.6084C7.01173 16.7313 6.98643 16.863 6.98759 16.9958C6.98874 17.1285 7.01633 17.2598 7.06874 17.3818C7.12114 17.5038 7.19733 17.6141 7.29284 17.7064L12.2928 22.7063C12.4804 22.8938 12.7347 22.9991 12.9998 22.9991C13.265 22.9991 13.5193 22.8938 13.7068 22.7063L23.7068 12.7064C23.8943 12.5188 23.9996 12.2645 23.9996 11.9994C23.9996 11.7342 23.8943 11.4799 23.7068 11.2924Z" fill="#021700"/>
</g>
<defs>
<clipPath id="clip0_195_76764">
<rect width="24" height="24" fill="white"/>
</clipPath>
</defs>
</svg>
